<svg id="my-svg" width="100%" xmlns="http://www.w3.org/2000/svg" xmlns:xlink="http://www.w3.org/1999/xlink" style="max-width: 1790px; background-color: lightgrey;" viewBox="100 -71 1790 1084.5999755859375" role="graphics-document document" aria-roledescription="timeline"><style>#my-svg{font-family:Inter;font-size:26px;fill:#333;}@keyframes edge-animation-frame{from{stroke-dashoffset:0;}}@keyframes dash{to{stroke-dashoffset:0;}}#my-svg .edge-animation-slow{stroke-dasharray:9,5!important;stroke-dashoffset:900;animation:dash 50s linear infinite;stroke-linecap:round;}#my-svg .edge-animation-fast{stroke-dasharray:9,5!important;stroke-dashoffset:900;animation:dash 20s linear infinite;stroke-linecap:round;}#my-svg .error-icon{fill:#552222;}#my-svg .error-text{fill:#552222;stroke:#552222;}#my-svg .edge-thickness-normal{stroke-width:1px;}#my-svg .edge-thickness-thick{stroke-width:3.5px;}#my-svg .edge-pattern-solid{stroke-dasharray:0;}#my-svg .edge-thickness-invisible{stroke-width:0;fill:none;}#my-svg .edge-pattern-dashed{stroke-dasharray:3;}#my-svg .edge-pattern-dotted{stroke-dasharray:2;}#my-svg .marker{fill:#333333;stroke:#333333;}#my-svg .marker.cross{stroke:#333333;}#my-svg svg{font-family:Inter;font-size:26px;}#my-svg p{margin:0;}#my-svg .edge{stroke-width:3;}#my-svg .section--1 rect,#my-svg .section--1 path,#my-svg .section--1 circle,#my-svg .section--1 path{fill:#90EE90;}#my-svg .section--1 text{fill:#000000;}#my-svg .node-icon--1{font-size:40px;color:#000000;}#my-svg .section-edge--1{stroke:#90EE90;}#my-svg .edge-depth--1{stroke-width:17;}#my-svg .section--1 line{stroke:hsl(60, 100%, 86.2745098039%);stroke-width:3;}#my-svg .lineWrapper line{stroke:#000000;}#my-svg .disabled,#my-svg .disabled circle,#my-svg .disabled text{fill:lightgray;}#my-svg .disabled text{fill:#efefef;}#my-svg .section-0 rect,#my-svg .section-0 path,#my-svg .section-0 circle,#my-svg .section-0 path{fill:#3B82F6;}#my-svg .section-0 text{fill:black;}#my-svg .node-icon-0{font-size:40px;color:black;}#my-svg .section-edge-0{stroke:#3B82F6;}#my-svg .edge-depth-0{stroke-width:14;}#my-svg .section-0 line{stroke:hsl(240, 100%, 83.5294117647%);stroke-width:3;}#my-svg .lineWrapper line{stroke:black;}#my-svg .disabled,#my-svg .disabled circle,#my-svg .disabled text{fill:lightgray;}#my-svg .disabled text{fill:#efefef;}#my-svg .section-1 rect,#my-svg .section-1 path,#my-svg .section-1 circle,#my-svg .section-1 path{fill:#F59E0B;}#my-svg .section-1 text{fill:#000000;}#my-svg .node-icon-1{font-size:40px;color:#000000;}#my-svg .section-edge-1{stroke:#F59E0B;}#my-svg .edge-depth-1{stroke-width:11;}#my-svg .section-1 line{stroke:hsl(260, 100%, 86.2745098039%);stroke-width:3;}#my-svg .lineWrapper line{stroke:#000000;}#my-svg .disabled,#my-svg .disabled circle,#my-svg .disabled text{fill:lightgray;}#my-svg .disabled text{fill:#efefef;}#my-svg .section-2 rect,#my-svg .section-2 path,#my-svg .section-2 circle,#my-svg .section-2 path{fill:hsl(270, 100%, 76.2745098039%);}#my-svg .section-2 text{fill:#000000;}#my-svg .node-icon-2{font-size:40px;color:#000000;}#my-svg .section-edge-2{stroke:hsl(270, 100%, 76.2745098039%);}#my-svg .edge-depth-2{stroke-width:8;}#my-svg .section-2 line{stroke:hsl(90, 100%, 86.2745098039%);stroke-width:3;}#my-svg .lineWrapper line{stroke:#000000;}#my-svg .disabled,#my-svg .disabled circle,#my-svg .disabled text{fill:lightgray;}#my-svg .disabled text{fill:#efefef;}#my-svg .section-3 rect,#my-svg .section-3 path,#my-svg .section-3 circle,#my-svg .section-3 path{fill:hsl(300, 100%, 76.2745098039%);}#my-svg .section-3 text{fill:#000000;}#my-svg .node-icon-3{font-size:40px;color:#000000;}#my-svg .section-edge-3{stroke:hsl(300, 100%, 76.2745098039%);}#my-svg .edge-depth-3{stroke-width:5;}#my-svg .section-3 line{stroke:hsl(120, 100%, 86.2745098039%);stroke-width:3;}#my-svg .lineWrapper line{stroke:#000000;}#my-svg .disabled,#my-svg .disabled circle,#my-svg .disabled text{fill:lightgray;}#my-svg .disabled text{fill:#efefef;}#my-svg .section-4 rect,#my-svg .section-4 path,#my-svg .section-4 circle,#my-svg .section-4 path{fill:hsl(330, 100%, 76.2745098039%);}#my-svg .section-4 text{fill:black;}#my-svg .node-icon-4{font-size:40px;color:black;}#my-svg .section-edge-4{stroke:hsl(330, 100%, 76.2745098039%);}#my-svg .edge-depth-4{stroke-width:2;}#my-svg .section-4 line{stroke:hsl(150, 100%, 86.2745098039%);stroke-width:3;}#my-svg .lineWrapper line{stroke:black;}#my-svg .disabled,#my-svg .disabled circle,#my-svg .disabled text{fill:lightgray;}#my-svg .disabled text{fill:#efefef;}#my-svg .section-5 rect,#my-svg .section-5 path,#my-svg .section-5 circle,#my-svg .section-5 path{fill:hsl(0, 100%, 76.2745098039%);}#my-svg .section-5 text{fill:black;}#my-svg .node-icon-5{font-size:40px;color:black;}#my-svg .section-edge-5{stroke:hsl(0, 100%, 76.2745098039%);}#my-svg .edge-depth-5{stroke-width:-1;}#my-svg .section-5 line{stroke:hsl(180, 100%, 86.2745098039%);stroke-width:3;}#my-svg .lineWrapper line{stroke:black;}#my-svg .disabled,#my-svg .disabled circle,#my-svg .disabled text{fill:lightgray;}#my-svg .disabled text{fill:#efefef;}#my-svg .section-6 rect,#my-svg .section-6 path,#my-svg .section-6 circle,#my-svg .section-6 path{fill:hsl(30, 100%, 76.2745098039%);}#my-svg .section-6 text{fill:black;}#my-svg .node-icon-6{font-size:40px;color:black;}#my-svg .section-edge-6{stroke:hsl(30, 100%, 76.2745098039%);}#my-svg .edge-depth-6{stroke-width:-4;}#my-svg .section-6 line{stroke:hsl(210, 100%, 86.2745098039%);stroke-width:3;}#my-svg .lineWrapper line{stroke:black;}#my-svg .disabled,#my-svg .disabled circle,#my-svg .disabled text{fill:lightgray;}#my-svg .disabled text{fill:#efefef;}#my-svg .section-7 rect,#my-svg .section-7 path,#my-svg .section-7 circle,#my-svg .section-7 path{fill:hsl(90, 100%, 76.2745098039%);}#my-svg .section-7 text{fill:black;}#my-svg .node-icon-7{font-size:40px;color:black;}#my-svg .section-edge-7{stroke:hsl(90, 100%, 76.2745098039%);}#my-svg .edge-depth-7{stroke-width:-7;}#my-svg .section-7 line{stroke:hsl(270, 100%, 86.2745098039%);stroke-width:3;}#my-svg .lineWrapper line{stroke:black;}#my-svg .disabled,#my-svg .disabled circle,#my-svg .disabled text{fill:lightgray;}#my-svg .disabled text{fill:#efefef;}#my-svg .section-8 rect,#my-svg .section-8 path,#my-svg .section-8 circle,#my-svg .section-8 path{fill:hsl(150, 100%, 76.2745098039%);}#my-svg .section-8 text{fill:black;}#my-svg .node-icon-8{font-size:40px;color:black;}#my-svg .section-edge-8{stroke:hsl(150, 100%, 76.2745098039%);}#my-svg .edge-depth-8{stroke-width:-10;}#my-svg .section-8 line{stroke:hsl(330, 100%, 86.2745098039%);stroke-width:3;}#my-svg .lineWrapper line{stroke:black;}#my-svg .disabled,#my-svg .disabled circle,#my-svg .disabled text{fill:lightgray;}#my-svg .disabled text{fill:#efefef;}#my-svg .section-9 rect,#my-svg .section-9 path,#my-svg .section-9 circle,#my-svg .section-9 path{fill:hsl(180, 100%, 76.2745098039%);}#my-svg .section-9 text{fill:black;}#my-svg .node-icon-9{font-size:40px;color:black;}#my-svg .section-edge-9{stroke:hsl(180, 100%, 76.2745098039%);}#my-svg .edge-depth-9{stroke-width:-13;}#my-svg .section-9 line{stroke:hsl(0, 100%, 86.2745098039%);stroke-width:3;}#my-svg .lineWrapper line{stroke:black;}#my-svg .disabled,#my-svg .disabled circle,#my-svg .disabled text{fill:lightgray;}#my-svg .disabled text{fill:#efefef;}#my-svg .section-10 rect,#my-svg .section-10 path,#my-svg .section-10 circle,#my-svg .section-10 path{fill:hsl(210, 100%, 76.2745098039%);}#my-svg .section-10 text{fill:black;}#my-svg .node-icon-10{font-size:40px;color:black;}#my-svg .section-edge-10{stroke:hsl(210, 100%, 76.2745098039%);}#my-svg .edge-depth-10{stroke-width:-16;}#my-svg .section-10 line{stroke:hsl(30, 100%, 86.2745098039%);stroke-width:3;}#my-svg .lineWrapper line{stroke:black;}#my-svg .disabled,#my-svg .disabled circle,#my-svg .disabled text{fill:lightgray;}#my-svg .disabled text{fill:#efefef;}#my-svg .section-root rect,#my-svg .section-root path,#my-svg .section-root circle{fill:hsl(240, 100%, 46.2745098039%);}#my-svg .section-root text{fill:#ffffff;}#my-svg .icon-container{height:100%;display:flex;justify-content:center;align-items:center;}#my-svg .edge{fill:none;}#my-svg .eventWrapper{filter:brightness(120%);}#my-svg :root{--mermaid-font-family:"trebuchet ms",verdana,arial,sans-serif;}</style><g/><g/><defs><marker id="arrowhead" refX="5" refY="2" markerWidth="6" markerHeight="4" orient="auto"><path d="M 0,0 V 4 L6,2 Z"/></marker></defs><g transform="translate(200, 50)"><g class="timeline-node section--1"><g><path id="node-undefined" class="node-bkg node-undefined" d="M0 101.39999847412109 v-96.39999847412109 q0,-5 5,-5 h380 q5,0 5,5 v101.39999847412109 H0 Z"/><line class="node-line--1" x1="0" y1="106.39999847412109" x2="390" y2="106.39999847412109"/></g><g transform="translate(195, 10)"><text dy="1em" alignment-baseline="middle" dominant-baseline="middle" text-anchor="middle"><tspan x="0" dy="1em">Foundation   and   Core</tspan></text></g></g></g><g class="taskWrapper" transform="translate(200, 206.3999984741211)"><g class="timeline-node section--1"><g><path id="node-undefined" class="node-bkg node-undefined" d="M0 101.39999847412109 v-96.39999847412109 q0,-5 5,-5 h180 q5,0 5,5 v101.39999847412109 H0 Z"/><line class="node-line--1" x1="0" y1="106.39999847412109" x2="190" y2="106.39999847412109"/></g><g transform="translate(95, 10)"><text dy="1em" alignment-baseline="middle" dominant-baseline="middle" text-anchor="middle"><tspan x="0" dy="1em">Initial   Build</tspan></text></g></g></g><g class="lineWrapper"><line x1="295" y1="312.7999969482422" x2="295" y2="963.599983215332" stroke-width="2" stroke="black" marker-end="url(#arrowhead)" stroke-dasharray="5,5"/></g><g class="eventWrapper" transform="translate(200, 406.3999984741211)"><g class="timeline-node section--1"><g><path id="node-undefined" class="node-bkg node-undefined" d="M0 52.8 v-47.8 q0,-5 5,-5 h180 q5,0 5,5 v52.8 H0 Z"/><line class="node-line--1" x1="0" y1="57.8" x2="190" y2="57.8"/></g><g transform="translate(95, 10)"><text dy="1em" alignment-baseline="middle" dominant-baseline="middle" text-anchor="middle"><tspan x="0" dy="1em">First   Version</tspan></text></g></g></g><g class="eventWrapper" transform="translate(200, 474.1999984741211)"><g class="timeline-node section--1"><g><path id="node-undefined" class="node-bkg node-undefined" d="M0 81.39999847412109 v-76.39999847412109 q0,-5 5,-5 h180 q5,0 5,5 v81.39999847412109 H0 Z"/><line class="node-line--1" x1="0" y1="86.39999847412109" x2="190" y2="86.39999847412109"/></g><g transform="translate(95, 10)"><text dy="1em" alignment-baseline="middle" dominant-baseline="middle" text-anchor="middle"><tspan x="0" dy="1em">Bidirectional</tspan><tspan x="0" dy="1.1em">Training</tspan></text></g></g></g><g class="eventWrapper" transform="translate(200, 570.5999969482422)"><g class="timeline-node section--1"><g><path id="node-undefined" class="node-bkg node-undefined" d="M0 109.99999694824218 v-104.99999694824218 q0,-5 5,-5 h180 q5,0 5,5 v109.99999694824218 H0 Z"/><line class="node-line--1" x1="0" y1="114.99999694824218" x2="190" y2="114.99999694824218"/></g><g transform="translate(95, 10)"><text dy="1em" alignment-baseline="middle" dominant-baseline="middle" text-anchor="middle"><tspan x="0" dy="1em">TTS   and</tspan><tspan x="0" dy="1.1em">Dictation</tspan><tspan x="0" dy="1.1em">Integration</tspan></text></g></g></g><g class="taskWrapper" transform="translate(400, 206.3999984741211)"><g class="timeline-node section--1"><g><path id="node-undefined" class="node-bkg node-undefined" d="M0 101.39999847412109 v-96.39999847412109 q0,-5 5,-5 h180 q5,0 5,5 v101.39999847412109 H0 Z"/><line class="node-line--1" x1="0" y1="106.39999847412109" x2="190" y2="106.39999847412109"/></g><g transform="translate(95, 10)"><text dy="1em" alignment-baseline="middle" dominant-baseline="middle" text-anchor="middle"><tspan x="0" dy="1em">CLI   and</tspan><tspan x="0" dy="1.1em">Headless</tspan></text></g></g></g><g class="lineWrapper"><line x1="495" y1="312.7999969482422" x2="495" y2="963.599983215332" stroke-width="2" stroke="black" marker-end="url(#arrowhead)" stroke-dasharray="5,5"/></g><g class="eventWrapper" transform="translate(400, 406.3999984741211)"><g class="timeline-node section--1"><g><path id="node-undefined" class="node-bkg node-undefined" d="M0 81.39999847412109 v-76.39999847412109 q0,-5 5,-5 h180 q5,0 5,5 v81.39999847412109 H0 Z"/><line class="node-line--1" x1="0" y1="86.39999847412109" x2="190" y2="86.39999847412109"/></g><g transform="translate(95, 10)"><text dy="1em" alignment-baseline="middle" dominant-baseline="middle" text-anchor="middle"><tspan x="0" dy="1em">LangQuizCLI</tspan><tspan x="0" dy="1.1em">Target</tspan></text></g></g></g><g class="eventWrapper" transform="translate(400, 502.7999969482422)"><g class="timeline-node section--1"><g><path id="node-undefined" class="node-bkg node-undefined" d="M0 81.39999847412109 v-76.39999847412109 q0,-5 5,-5 h180 q5,0 5,5 v81.39999847412109 H0 Z"/><line class="node-line--1" x1="0" y1="86.39999847412109" x2="190" y2="86.39999847412109"/></g><g transform="translate(95, 10)"><text dy="1em" alignment-baseline="middle" dominant-baseline="middle" text-anchor="middle"><tspan x="0" dy="1em">Headless</tspan><tspan x="0" dy="1.1em">macOS   App</tspan></text></g></g></g><g class="eventWrapper" transform="translate(400, 599.1999954223633)"><g class="timeline-node section--1"><g><path id="node-undefined" class="node-bkg node-undefined" d="M0 138.5999954223633 v-133.5999954223633 q0,-5 5,-5 h180 q5,0 5,5 v138.5999954223633 H0 Z"/><line class="node-line--1" x1="0" y1="143.5999954223633" x2="190" y2="143.5999954223633"/></g><g transform="translate(95, 10)"><text dy="1em" alignment-baseline="middle" dominant-baseline="middle" text-anchor="middle"><tspan x="0" dy="1em">Xcode</tspan><tspan x="0" dy="1.1em">Schemes</tspan><tspan x="0" dy="1.1em">(iOS,   CLI,</tspan><tspan x="0" dy="1.1em">Headless)</tspan></text></g></g></g><g transform="translate(600, 50)"><g class="timeline-node section-0"><g><path id="node-undefined" class="node-bkg node-undefined" d="M0 101.39999847412109 v-96.39999847412109 q0,-5 5,-5 h380 q5,0 5,5 v101.39999847412109 H0 Z"/><line class="node-line-0" x1="0" y1="106.39999847412109" x2="390" y2="106.39999847412109"/></g><g transform="translate(195, 10)"><text dy="1em" alignment-baseline="middle" dominant-baseline="middle" text-anchor="middle"><tspan x="0" dy="1em">NLP   and   Automation</tspan></text></g></g></g><g class="taskWrapper" transform="translate(600, 206.3999984741211)"><g class="timeline-node section-0"><g><path id="node-undefined" class="node-bkg node-undefined" d="M0 101.39999847412109 v-96.39999847412109 q0,-5 5,-5 h180 q5,0 5,5 v101.39999847412109 H0 Z"/><line class="node-line-0" x1="0" y1="106.39999847412109" x2="190" y2="106.39999847412109"/></g><g transform="translate(95, 10)"><text dy="1em" alignment-baseline="middle" dominant-baseline="middle" text-anchor="middle"><tspan x="0" dy="1em">Advanced</tspan><tspan x="0" dy="1.1em">Alignment</tspan></text></g></g></g><g class="lineWrapper"><line x1="695" y1="312.7999969482422" x2="695" y2="963.599983215332" stroke-width="2" stroke="black" marker-end="url(#arrowhead)" stroke-dasharray="5,5"/></g><g class="eventWrapper" transform="translate(600, 406.3999984741211)"><g class="timeline-node section-0"><g><path id="node-undefined" class="node-bkg node-undefined" d="M0 109.99999694824218 v-104.99999694824218 q0,-5 5,-5 h180 q5,0 5,5 v109.99999694824218 H0 Z"/><line class="node-line-0" x1="0" y1="114.99999694824218" x2="190" y2="114.99999694824218"/></g><g transform="translate(95, 10)"><text dy="1em" alignment-baseline="middle" dominant-baseline="middle" text-anchor="middle"><tspan x="0" dy="1em">Levenshtein</tspan><tspan x="0" dy="1.1em">Word-level</tspan><tspan x="0" dy="1.1em">Edit   Distance</tspan></text></g></g></g><g class="eventWrapper" transform="translate(600, 531.3999954223633)"><g class="timeline-node section-0"><g><path id="node-undefined" class="node-bkg node-undefined" d="M0 138.5999954223633 v-133.5999954223633 q0,-5 5,-5 h180 q5,0 5,5 v138.5999954223633 H0 Z"/><line class="node-line-0" x1="0" y1="143.5999954223633" x2="190" y2="143.5999954223633"/></g><g transform="translate(95, 10)"><text dy="1em" alignment-baseline="middle" dominant-baseline="middle" text-anchor="middle"><tspan x="0" dy="1em">German</tspan><tspan x="0" dy="1.1em">EsZett   and</tspan><tspan x="0" dy="1.1em">Contraction</tspan><tspan x="0" dy="1.1em">Normalization</tspan></text></g></g></g><g class="eventWrapper" transform="translate(600, 684.9999908447267)"><g class="timeline-node section-0"><g><path id="node-undefined" class="node-bkg node-undefined" d="M0 167.1999938964844 v-162.1999938964844 q0,-5 5,-5 h180 q5,0 5,5 v167.1999938964844 H0 Z"/><line class="node-line-0" x1="0" y1="172.1999938964844" x2="190" y2="172.1999938964844"/></g><g transform="translate(95, 10)"><text dy="1em" alignment-baseline="middle" dominant-baseline="middle" text-anchor="middle"><tspan x="0" dy="1em">Homonym</tspan><tspan x="0" dy="1.1em">and   Typo</tspan><tspan x="0" dy="1.1em">Detection</tspan><tspan x="0" dy="1.1em">(Fuzzy</tspan><tspan x="0" dy="1.1em">Matching)</tspan></text></g></g></g><g class="taskWrapper" transform="translate(800, 206.3999984741211)"><g class="timeline-node section-0"><g><path id="node-undefined" class="node-bkg node-undefined" d="M0 101.39999847412109 v-96.39999847412109 q0,-5 5,-5 h180 q5,0 5,5 v101.39999847412109 H0 Z"/><line class="node-line-0" x1="0" y1="106.39999847412109" x2="190" y2="106.39999847412109"/></g><g transform="translate(95, 10)"><text dy="1em" alignment-baseline="middle" dominant-baseline="middle" text-anchor="middle"><tspan x="0" dy="1em">DevOps   and</tspan><tspan x="0" dy="1.1em">Docs</tspan></text></g></g></g><g class="lineWrapper"><line x1="895" y1="312.7999969482422" x2="895" y2="963.599983215332" stroke-width="2" stroke="black" marker-end="url(#arrowhead)" stroke-dasharray="5,5"/></g><g class="eventWrapper" transform="translate(800, 406.3999984741211)"><g class="timeline-node section-0"><g><path id="node-undefined" class="node-bkg node-undefined" d="M0 81.39999847412109 v-76.39999847412109 q0,-5 5,-5 h180 q5,0 5,5 v81.39999847412109 H0 Z"/><line class="node-line-0" x1="0" y1="86.39999847412109" x2="190" y2="86.39999847412109"/></g><g transform="translate(95, 10)"><text dy="1em" alignment-baseline="middle" dominant-baseline="middle" text-anchor="middle"><tspan x="0" dy="1em">Sandbox-test</tspan><tspan x="0" dy="1.1em">Makefile</tspan></text></g></g></g><g class="eventWrapper" transform="translate(800, 502.7999969482422)"><g class="timeline-node section-0"><g><path id="node-undefined" class="node-bkg node-undefined" d="M0 81.39999847412109 v-76.39999847412109 q0,-5 5,-5 h180 q5,0 5,5 v81.39999847412109 H0 Z"/><line class="node-line-0" x1="0" y1="86.39999847412109" x2="190" y2="86.39999847412109"/></g><g transform="translate(95, 10)"><text dy="1em" alignment-baseline="middle" dominant-baseline="middle" text-anchor="middle"><tspan x="0" dy="1em">Automated</tspan><tspan x="0" dy="1.1em">DocC</tspan></text></g></g></g><g class="eventWrapper" transform="translate(800, 599.1999954223633)"><g class="timeline-node section-0"><g><path id="node-undefined" class="node-bkg node-undefined" d="M0 109.99999694824218 v-104.99999694824218 q0,-5 5,-5 h180 q5,0 5,5 v109.99999694824218 H0 Z"/><line class="node-line-0" x1="0" y1="114.99999694824218" x2="190" y2="114.99999694824218"/></g><g transform="translate(95, 10)"><text dy="1em" alignment-baseline="middle" dominant-baseline="middle" text-anchor="middle"><tspan x="0" dy="1em">Sphinx</tspan><tspan x="0" dy="1.1em">Traceability</tspan><tspan x="0" dy="1.1em">Environment</tspan></text></g></g></g><g transform="translate(1000, 50)"><g class="timeline-node section-1"><g><path id="node-undefined" class="node-bkg node-undefined" d="M0 101.39999847412109 v-96.39999847412109 q0,-5 5,-5 h580 q5,0 5,5 v101.39999847412109 H0 Z"/><line class="node-line-1" x1="0" y1="106.39999847412109" x2="590" y2="106.39999847412109"/></g><g transform="translate(295, 10)"><text dy="1em" alignment-baseline="middle" dominant-baseline="middle" text-anchor="middle"><tspan x="0" dy="1em">Multimodal   and   UI</tspan></text></g></g></g><g class="taskWrapper" transform="translate(1000, 206.3999984741211)"><g class="timeline-node section-1"><g><path id="node-undefined" class="node-bkg node-undefined" d="M0 101.39999847412109 v-96.39999847412109 q0,-5 5,-5 h180 q5,0 5,5 v101.39999847412109 H0 Z"/><line class="node-line-1" x1="0" y1="106.39999847412109" x2="190" y2="106.39999847412109"/></g><g transform="translate(95, 10)"><text dy="1em" alignment-baseline="middle" dominant-baseline="middle" text-anchor="middle"><tspan x="0" dy="1em">Native   GUI</tspan><tspan x="0" dy="1.1em">Picker</tspan></text></g></g></g><g class="lineWrapper"><line x1="1095" y1="312.7999969482422" x2="1095" y2="963.599983215332" stroke-width="2" stroke="black" marker-end="url(#arrowhead)" stroke-dasharray="5,5"/></g><g class="eventWrapper" transform="translate(1000, 406.3999984741211)"><g class="timeline-node section-1"><g><path id="node-undefined" class="node-bkg node-undefined" d="M0 138.5999954223633 v-133.5999954223633 q0,-5 5,-5 h180 q5,0 5,5 v138.5999954223633 H0 Z"/><line class="node-line-1" x1="0" y1="143.5999954223633" x2="190" y2="143.5999954223633"/></g><g transform="translate(95, 10)"><text dy="1em" alignment-baseline="middle" dominant-baseline="middle" text-anchor="middle"><tspan x="0" dy="1em">macOS</tspan><tspan x="0" dy="1.1em">NSAlert   and</tspan><tspan x="0" dy="1.1em">TableView   for</tspan><tspan x="0" dy="1.1em">File   Selection</tspan></text></g></g></g><g class="eventWrapper" transform="translate(1000, 559.9999938964844)"><g class="timeline-node section-1"><g><path id="node-undefined" class="node-bkg node-undefined" d="M0 138.5999954223633 v-133.5999954223633 q0,-5 5,-5 h180 q5,0 5,5 v138.5999954223633 H0 Z"/><line class="node-line-1" x1="0" y1="143.5999954223633" x2="190" y2="143.5999954223633"/></g><g transform="translate(95, 10)"><text dy="1em" alignment-baseline="middle" dominant-baseline="middle" text-anchor="middle"><tspan x="0" dy="1em">Checkbox</tspan><tspan x="0" dy="1.1em">support   for</tspan><tspan x="0" dy="1.1em">persistent</tspan><tspan x="0" dy="1.1em">error   clearing</tspan></text></g></g></g><g class="taskWrapper" transform="translate(1200, 206.3999984741211)"><g class="timeline-node section-1"><g><path id="node-undefined" class="node-bkg node-undefined" d="M0 101.39999847412109 v-96.39999847412109 q0,-5 5,-5 h180 q5,0 5,5 v101.39999847412109 H0 Z"/><line class="node-line-1" x1="0" y1="106.39999847412109" x2="190" y2="106.39999847412109"/></g><g transform="translate(95, 10)"><text dy="1em" alignment-baseline="middle" dominant-baseline="middle" text-anchor="middle"><tspan x="0" dy="1em"/><tspan x="0" dy="1.1em">MMController</tspan><tspan x="0" dy="1.1em"/></text></g></g></g><g class="lineWrapper"><line x1="1295" y1="312.7999969482422" x2="1295" y2="963.599983215332" stroke-width="2" stroke="black" marker-end="url(#arrowhead)" stroke-dasharray="5,5"/></g><g class="eventWrapper" transform="translate(1200, 406.3999984741211)"><g class="timeline-node section-1"><g><path id="node-undefined" class="node-bkg node-undefined" d="M0 138.5999954223633 v-133.5999954223633 q0,-5 5,-5 h180 q5,0 5,5 v138.5999954223633 H0 Z"/><line class="node-line-1" x1="0" y1="143.5999954223633" x2="190" y2="143.5999954223633"/></g><g transform="translate(95, 10)"><text dy="1em" alignment-baseline="middle" dominant-baseline="middle" text-anchor="middle"><tspan x="0" dy="1em">Real-time</tspan><tspan x="0" dy="1.1em">Voice-to-Text</tspan><tspan x="0" dy="1.1em">Terminal</tspan><tspan x="0" dy="1.1em">Controller</tspan></text></g></g></g><g class="eventWrapper" transform="translate(1200, 559.9999938964844)"><g class="timeline-node section-1"><g><path id="node-undefined" class="node-bkg node-undefined" d="M0 109.99999694824218 v-104.99999694824218 q0,-5 5,-5 h180 q5,0 5,5 v109.99999694824218 H0 Z"/><line class="node-line-1" x1="0" y1="114.99999694824218" x2="190" y2="114.99999694824218"/></g><g transform="translate(95, 10)"><text dy="1em" alignment-baseline="middle" dominant-baseline="middle" text-anchor="middle"><tspan x="0" dy="1em">Synchronized</tspan><tspan x="0" dy="1.1em">Speech   and</tspan><tspan x="0" dy="1.1em">Type   Buffer</tspan></text></g></g></g><g class="eventWrapper" transform="translate(1200, 684.9999908447265)"><g class="timeline-node section-1"><g><path id="node-undefined" class="node-bkg node-undefined" d="M0 109.99999694824218 v-104.99999694824218 q0,-5 5,-5 h180 q5,0 5,5 v109.99999694824218 H0 Z"/><line class="node-line-1" x1="0" y1="114.99999694824218" x2="190" y2="114.99999694824218"/></g><g transform="translate(95, 10)"><text dy="1em" alignment-baseline="middle" dominant-baseline="middle" text-anchor="middle"><tspan x="0" dy="1em">UUID   Task</tspan><tspan x="0" dy="1.1em">Guarding   for</tspan><tspan x="0" dy="1.1em">Speech   Reset</tspan></text></g></g></g><g class="taskWrapper" transform="translate(1400, 206.3999984741211)"><g class="timeline-node section-1"><g><path id="node-undefined" class="node-bkg node-undefined" d="M0 101.39999847412109 v-96.39999847412109 q0,-5 5,-5 h180 q5,0 5,5 v101.39999847412109 H0 Z"/><line class="node-line-1" x1="0" y1="106.39999847412109" x2="190" y2="106.39999847412109"/></g><g transform="translate(95, 10)"><text dy="1em" alignment-baseline="middle" dominant-baseline="middle" text-anchor="middle"><tspan x="0" dy="1em">AI   Integration</tspan></text></g></g></g><g class="lineWrapper"><line x1="1495" y1="312.7999969482422" x2="1495" y2="963.599983215332" stroke-width="2" stroke="black" marker-end="url(#arrowhead)" stroke-dasharray="5,5"/></g><g class="eventWrapper" transform="translate(1400, 406.3999984741211)"><g class="timeline-node section-1"><g><path id="node-undefined" class="node-bkg node-undefined" d="M0 138.5999954223633 v-133.5999954223633 q0,-5 5,-5 h180 q5,0 5,5 v138.5999954223633 H0 Z"/><line class="node-line-1" x1="0" y1="143.5999954223633" x2="190" y2="143.5999954223633"/></g><g transform="translate(95, 10)"><text dy="1em" alignment-baseline="middle" dominant-baseline="middle" text-anchor="middle"><tspan x="0" dy="1em">Experimental</tspan><tspan x="0" dy="1.1em">Ollama   API</tspan><tspan x="0" dy="1.1em">Grammar</tspan><tspan x="0" dy="1.1em">Check</tspan></text></g></g></g><g class="eventWrapper" transform="translate(1400, 559.9999938964844)"><g class="timeline-node section-1"><g><path id="node-undefined" class="node-bkg node-undefined" d="M0 138.5999954223633 v-133.5999954223633 q0,-5 5,-5 h180 q5,0 5,5 v138.5999954223633 H0 Z"/><line class="node-line-1" x1="0" y1="143.5999954223633" x2="190" y2="143.5999954223633"/></g><g transform="translate(95, 10)"><text dy="1em" alignment-baseline="middle" dominant-baseline="middle" text-anchor="middle"><tspan x="0" dy="1em">Language</tspan><tspan x="0" dy="1.1em">Configuration</tspan><tspan x="0" dy="1.1em">externalized</tspan><tspan x="0" dy="1.1em">to   JSON</tspan></text></g></g></g><text x="545" font-size="4ex" font-weight="bold" y="20">LangQuiz: Multimodal Headless Evolution</text><g class="lineWrapper"><line x1="150" y1="362.7999969482422" x2="1840" y2="362.7999969482422" stroke-width="4" stroke="black" marker-end="url(#arrowhead)"/></g></svg>