<?xml version="1.0" encoding="UTF-8" standalone="no"?>
<!DOCTYPE svg PUBLIC "-//W3C//DTD SVG 1.1//EN"
 "http://www.w3.org/Graphics/SVG/1.1/DTD/svg11.dtd">
<!-- Generated by graphviz version 2.43.0 (0)
 -->
<!-- Title: G Pages: 1 -->
<svg width="2252pt" height="1881pt"
 viewBox="0.00 0.00 2252.00 1881.00" xmlns="http://www.w3.org/2000/svg" xmlns:xlink="http://www.w3.org/1999/xlink">
<g id="graph0" class="graph" transform="scale(1 1) rotate(0) translate(4 1877)">
<title>G</title>
<!-- PromptEngineering -->
<g id="node1" class="node">
<title>PromptEngineering</title>
<polygon fill="lightblue" stroke="black" points="399,-1057 0,-1057 0,-949 399,-949 399,-1057"/>
<text text-anchor="start" x="8" y="-995.9" font-family="Helvetica,sans-Serif" font-size="32.00"> </text>
<text text-anchor="start" x="19" y="-995.9" font-family="Helvetica,sans-Serif" font-weight="bold" font-size="32.00">Prompt Engineering</text>
<text text-anchor="start" x="380" y="-995.9" font-family="Helvetica,sans-Serif" font-size="32.00"> </text>
</g>
<!-- A1 -->
<g id="node2" class="node">
<title>A1</title>
<polygon fill="lightgreen" stroke="black" points="1006,-1693 635,-1693 635,-1621 1006,-1621 1006,-1693"/>
<text text-anchor="start" x="643" y="-1664.4" font-family="Helvetica,sans-Serif" font-size="32.00"> </text>
<text text-anchor="start" x="654" y="-1664.4" font-family="Helvetica,sans-Serif" font-weight="bold" font-size="32.00">Content &amp; Creative</text>
<text text-anchor="start" x="714.5" y="-1632.4" font-family="Helvetica,sans-Serif" font-weight="bold" font-size="32.00">Generation</text>
<text text-anchor="start" x="915.5" y="-1632.4" font-family="Helvetica,sans-Serif" font-size="32.00"> </text>
</g>
<!-- PromptEngineering&#45;&gt;A1 -->
<g id="edge1" class="edge">
<title>PromptEngineering&#45;&gt;A1</title>
<path fill="none" stroke="black" stroke-width="1.5" d="M251.68,-1057.08C371.57,-1183.75 668.71,-1497.69 778.17,-1613.33"/>
<polygon fill="black" stroke="black" stroke-width="1.5" points="775.68,-1615.8 785.1,-1620.65 780.77,-1610.99 775.68,-1615.8"/>
<text text-anchor="middle" x="508" y="-1413.4" font-family="Times,serif" font-size="22.00">ENCOMPASSES</text>
</g>
<!-- A2 -->
<g id="node3" class="node">
<title>A2</title>
<polygon fill="lightgreen" stroke="black" points="1012,-1272 629,-1272 629,-1200 1012,-1200 1012,-1272"/>
<text text-anchor="start" x="637" y="-1243.4" font-family="Helvetica,sans-Serif" font-size="32.00"> </text>
<text text-anchor="start" x="648" y="-1243.4" font-family="Helvetica,sans-Serif" font-weight="bold" font-size="32.00">Linguistic &amp; Textual</text>
<text text-anchor="start" x="693" y="-1211.4" font-family="Helvetica,sans-Serif" font-weight="bold" font-size="32.00">Enhancement</text>
<text text-anchor="start" x="937" y="-1211.4" font-family="Helvetica,sans-Serif" font-size="32.00"> </text>
</g>
<!-- PromptEngineering&#45;&gt;A2 -->
<g id="edge2" class="edge">
<title>PromptEngineering&#45;&gt;A2</title>
<path fill="none" stroke="black" stroke-width="1.5" d="M344.07,-1057.04C457.15,-1099.6 612.18,-1157.96 714.04,-1196.3"/>
<polygon fill="black" stroke="black" stroke-width="1.5" points="712.83,-1199.59 723.42,-1199.83 715.29,-1193.03 712.83,-1199.59"/>
<text text-anchor="middle" x="508" y="-1153.4" font-family="Times,serif" font-size="22.00">ENCOMPASSES</text>
</g>
<!-- A3 -->
<g id="node4" class="node">
<title>A3</title>
<polygon fill="lightgreen" stroke="black" points="1656.5,-1039 1202.5,-1039 1202.5,-967 1656.5,-967 1656.5,-1039"/>
<text text-anchor="start" x="1210.5" y="-1010.4" font-family="Helvetica,sans-Serif" font-size="32.00"> </text>
<text text-anchor="start" x="1221.5" y="-1010.4" font-family="Helvetica,sans-Serif" font-weight="bold" font-size="32.00">Information Retrieval &amp;</text>
<text text-anchor="start" x="1226" y="-978.4" font-family="Helvetica,sans-Serif" font-weight="bold" font-size="32.00">Knowledge Extraction</text>
<text text-anchor="start" x="1622" y="-978.4" font-family="Helvetica,sans-Serif" font-size="32.00"> </text>
</g>
<!-- PromptEngineering&#45;&gt;A3 -->
<g id="edge3" class="edge">
<title>PromptEngineering&#45;&gt;A3</title>
<path fill="none" stroke="black" stroke-width="1.5" d="M399.16,-1003C615.71,-1003 962.01,-1003 1192.31,-1003"/>
<polygon fill="black" stroke="black" stroke-width="1.5" points="1192.5,-1006.5 1202.5,-1003 1192.5,-999.5 1192.5,-1006.5"/>
<text text-anchor="middle" x="820.5" y="-1009.4" font-family="Times,serif" font-size="22.00">ENCOMPASSES</text>
</g>
<!-- A4 -->
<g id="node5" class="node">
<title>A4</title>
<polygon fill="lightgreen" stroke="black" points="1659,-706 1200,-706 1200,-634 1659,-634 1659,-706"/>
<text text-anchor="start" x="1253.5" y="-677.4" font-family="Helvetica,sans-Serif" font-size="32.00"> </text>
<text text-anchor="start" x="1264.5" y="-677.4" font-family="Helvetica,sans-Serif" font-weight="bold" font-size="32.00">Code Generation &amp;</text>
<text text-anchor="start" x="1208" y="-645.4" font-family="Helvetica,sans-Serif" font-weight="bold" font-size="32.00">Development Assistance</text>
</g>
<!-- PromptEngineering&#45;&gt;A4 -->
<g id="edge4" class="edge">
<title>PromptEngineering&#45;&gt;A4</title>
<path fill="none" stroke="black" stroke-width="1.5" d="M329.89,-949C492.99,-883.21 783.35,-773.61 1042,-715 1089.31,-704.28 1140.48,-696.03 1189.63,-689.72"/>
<polygon fill="black" stroke="black" stroke-width="1.5" points="1190.28,-693.16 1199.76,-688.44 1189.4,-686.22 1190.28,-693.16"/>
<text text-anchor="middle" x="820.5" y="-843.4" font-family="Times,serif" font-size="22.00">ENCOMPASSES</text>
</g>
<!-- A5 -->
<g id="node6" class="node">
<title>A5</title>
<polygon fill="lightgreen" stroke="black" points="1024,-432 617,-432 617,-360 1024,-360 1024,-432"/>
<text text-anchor="start" x="625" y="-403.4" font-family="Helvetica,sans-Serif" font-size="32.00"> </text>
<text text-anchor="start" x="636" y="-403.4" font-family="Helvetica,sans-Serif" font-weight="bold" font-size="32.00">Specific Language &amp; </text>
<text text-anchor="start" x="655.5" y="-371.4" font-family="Helvetica,sans-Serif" font-weight="bold" font-size="32.00"> Tool Applications</text>
<text text-anchor="start" x="974.5" y="-371.4" font-family="Helvetica,sans-Serif" font-size="32.00"> </text>
</g>
<!-- PromptEngineering&#45;&gt;A5 -->
<g id="edge5" class="edge">
<title>PromptEngineering&#45;&gt;A5</title>
<path fill="none" stroke="black" stroke-width="1.5" d="M225.89,-948.98C261.35,-877.55 331.1,-750.52 417,-663 513.16,-565.03 650.93,-483.17 737.77,-436.89"/>
<polygon fill="black" stroke="black" stroke-width="1.5" points="739.6,-439.88 746.79,-432.11 736.32,-433.69 739.6,-439.88"/>
<text text-anchor="middle" x="508" y="-669.4" font-family="Times,serif" font-size="22.00">ENCOMPASSES</text>
</g>
<!-- C1_1 -->
<g id="node10" class="node">
<title>C1_1</title>
<polygon fill="#f0f0f0" stroke="black" points="1543.5,-1873 1315.5,-1873 1315.5,-1801 1543.5,-1801 1543.5,-1873"/>
<text text-anchor="middle" x="1429.5" y="-1828.9" font-family="Helvetica,sans-Serif" font-size="32.00">Text Creation</text>
</g>
<!-- A1&#45;&gt;C1_1 -->
<g id="edge6" class="edge">
<title>A1&#45;&gt;C1_1</title>
<path fill="none" stroke="black" stroke-width="1.5" d="M909.69,-1693.03C985.59,-1722.94 1098.58,-1764.82 1200,-1792 1233.86,-1801.07 1270.99,-1809.16 1305.29,-1815.89"/>
<polygon fill="black" stroke="black" stroke-width="1.5" points="1304.88,-1819.38 1315.36,-1817.85 1306.21,-1812.51 1304.88,-1819.38"/>
<text text-anchor="middle" x="1112" y="-1792.4" font-family="Times,serif" font-size="22.00">APPLIES TO</text>
</g>
<!-- C1_2 -->
<g id="node11" class="node">
<title>C1_2</title>
<polygon fill="#f0f0f0" stroke="black" points="1559.5,-1783 1299.5,-1783 1299.5,-1711 1559.5,-1711 1559.5,-1783"/>
<text text-anchor="middle" x="1429.5" y="-1738.9" font-family="Helvetica,sans-Serif" font-size="32.00">Summarization</text>
</g>
<!-- A1&#45;&gt;C1_2 -->
<g id="edge7" class="edge">
<title>A1&#45;&gt;C1_2</title>
<path fill="none" stroke="black" stroke-width="1.5" d="M1006.09,-1684.37C1097.09,-1697.86 1205.03,-1713.87 1289.02,-1726.32"/>
<polygon fill="black" stroke="black" stroke-width="1.5" points="1288.73,-1729.81 1299.14,-1727.82 1289.76,-1722.89 1288.73,-1729.81"/>
<text text-anchor="middle" x="1112" y="-1716.4" font-family="Times,serif" font-size="22.00">APPLIES TO</text>
</g>
<!-- C1_3 -->
<g id="node12" class="node">
<title>C1_3</title>
<polygon fill="#f0f0f0" stroke="black" points="1567.5,-1693 1291.5,-1693 1291.5,-1621 1567.5,-1621 1567.5,-1693"/>
<text text-anchor="middle" x="1429.5" y="-1648.9" font-family="Helvetica,sans-Serif" font-size="32.00">Creative Writing</text>
</g>
<!-- A1&#45;&gt;C1_3 -->
<g id="edge8" class="edge">
<title>A1&#45;&gt;C1_3</title>
<path fill="none" stroke="black" stroke-width="1.5" d="M1006.09,-1657C1094.15,-1657 1198.08,-1657 1280.81,-1657"/>
<polygon fill="black" stroke="black" stroke-width="1.5" points="1281.05,-1660.5 1291.05,-1657 1281.05,-1653.5 1281.05,-1660.5"/>
<text text-anchor="middle" x="1112" y="-1663.4" font-family="Times,serif" font-size="22.00">APPLIES TO</text>
</g>
<!-- C1_4 -->
<g id="node13" class="node">
<title>C1_4</title>
<polygon fill="#f0f0f0" stroke="black" points="1603,-1603 1256,-1603 1256,-1531 1603,-1531 1603,-1603"/>
<text text-anchor="middle" x="1429.5" y="-1558.9" font-family="Helvetica,sans-Serif" font-size="32.00">Dialogue Generation</text>
</g>
<!-- A1&#45;&gt;C1_4 -->
<g id="edge9" class="edge">
<title>A1&#45;&gt;C1_4</title>
<path fill="none" stroke="black" stroke-width="1.5" d="M1006.09,-1629.63C1082.12,-1618.36 1169.97,-1605.33 1245.79,-1594.09"/>
<polygon fill="black" stroke="black" stroke-width="1.5" points="1246.55,-1597.52 1255.93,-1592.59 1245.53,-1590.59 1246.55,-1597.52"/>
<text text-anchor="middle" x="1112" y="-1628.4" font-family="Times,serif" font-size="22.00">APPLIES TO</text>
</g>
<!-- C2 -->
<g id="node14" class="node">
<title>C2</title>
<polygon fill="#f0f0f0" stroke="black" points="1639,-1417 1220,-1417 1220,-1339 1639,-1339 1639,-1417"/>
<text text-anchor="middle" x="1429.5" y="-1387.4" font-family="Helvetica,sans-Serif" font-size="32.00">Multilingual Processing &amp;</text>
<text text-anchor="middle" x="1429.5" y="-1352.4" font-family="Helvetica,sans-Serif" font-size="32.00">Translation</text>
</g>
<!-- A2&#45;&gt;C2 -->
<g id="edge10" class="edge">
<title>A2&#45;&gt;C2</title>
<path fill="none" stroke="black" stroke-width="1.5" d="M965.89,-1272.07C991.25,-1278.39 1017.4,-1284.9 1042,-1291 1112.2,-1308.42 1129.49,-1313.9 1200,-1330 1209.88,-1332.26 1220.02,-1334.53 1230.25,-1336.8"/>
<polygon fill="black" stroke="black" stroke-width="1.5" points="1229.58,-1340.23 1240.1,-1338.97 1231.09,-1333.4 1229.58,-1340.23"/>
<text text-anchor="middle" x="1112" y="-1331.4" font-family="Times,serif" font-size="22.00">APPLIES TO</text>
</g>
<!-- C3 -->
<g id="node15" class="node">
<title>C3</title>
<polygon fill="#f0f0f0" stroke="black" points="1610,-1321 1249,-1321 1249,-1243 1610,-1243 1610,-1321"/>
<text text-anchor="middle" x="1429.5" y="-1291.4" font-family="Helvetica,sans-Serif" font-size="32.00">Textual Refinement &amp;</text>
<text text-anchor="middle" x="1429.5" y="-1256.4" font-family="Helvetica,sans-Serif" font-size="32.00">Generation</text>
</g>
<!-- A2&#45;&gt;C3 -->
<g id="edge11" class="edge">
<title>A2&#45;&gt;C3</title>
<path fill="none" stroke="black" stroke-width="1.5" d="M1012.31,-1250.46C1084.51,-1255.93 1166.64,-1262.16 1238.75,-1267.62"/>
<polygon fill="black" stroke="black" stroke-width="1.5" points="1238.62,-1271.12 1248.85,-1268.39 1239.15,-1264.14 1238.62,-1271.12"/>
<text text-anchor="middle" x="1112" y="-1269.4" font-family="Times,serif" font-size="22.00">APPLIES TO</text>
</g>
<!-- C4 -->
<g id="node16" class="node">
<title>C4</title>
<polygon fill="#f0f0f0" stroke="black" points="1634.5,-1225 1224.5,-1225 1224.5,-1153 1634.5,-1153 1634.5,-1225"/>
<text text-anchor="middle" x="1429.5" y="-1180.9" font-family="Helvetica,sans-Serif" font-size="32.00">Tone &amp; Style Adjustment</text>
</g>
<!-- A2&#45;&gt;C4 -->
<g id="edge12" class="edge">
<title>A2&#45;&gt;C4</title>
<path fill="none" stroke="black" stroke-width="1.5" d="M1012.31,-1221.23C1076.45,-1216.26 1148.42,-1210.69 1214.24,-1205.59"/>
<polygon fill="black" stroke="black" stroke-width="1.5" points="1214.62,-1209.07 1224.32,-1204.81 1214.08,-1202.09 1214.62,-1209.07"/>
<text text-anchor="middle" x="1112" y="-1224.4" font-family="Times,serif" font-size="22.00">APPLIES TO</text>
</g>
<!-- C5 -->
<g id="node17" class="node">
<title>C5</title>
<polygon fill="orange" stroke="black" points="1610.5,-1135 1248.5,-1135 1248.5,-1057 1610.5,-1057 1610.5,-1135"/>
<text text-anchor="middle" x="1429.5" y="-1105.4" font-family="Helvetica,sans-Serif" font-size="32.00">Prompt Refinement &amp;</text>
<text text-anchor="middle" x="1429.5" y="-1070.4" font-family="Helvetica,sans-Serif" font-size="32.00">Refactoring</text>
</g>
<!-- A2&#45;&gt;C5 -->
<g id="edge13" class="edge">
<title>A2&#45;&gt;C5</title>
<path fill="none" stroke="black" stroke-width="1.5" d="M961.35,-1199.93C988.09,-1193.19 1015.89,-1186.29 1042,-1180 1105.68,-1164.66 1175.58,-1149.09 1238.21,-1135.59"/>
<polygon fill="black" stroke="black" stroke-width="1.5" points="1239.15,-1138.96 1248.19,-1133.44 1237.68,-1132.12 1239.15,-1138.96"/>
<text text-anchor="middle" x="1112" y="-1186.4" font-family="Times,serif" font-size="22.00">APPLIES TO</text>
</g>
<!-- C30 -->
<g id="node35" class="node">
<title>C30</title>
<polygon fill="orange" stroke="black" points="1589,-1513 1270,-1513 1270,-1435 1589,-1435 1589,-1513"/>
<text text-anchor="middle" x="1429.5" y="-1483.4" font-family="Helvetica,sans-Serif" font-size="32.00">Term, Text Content</text>
<text text-anchor="middle" x="1429.5" y="-1448.4" font-family="Helvetica,sans-Serif" font-size="32.00">Explanation</text>
</g>
<!-- A2&#45;&gt;C30 -->
<g id="edge14" class="edge">
<title>A2&#45;&gt;C30</title>
<path fill="none" stroke="black" stroke-width="1.5" d="M879.82,-1272.04C952.24,-1315.18 1080.82,-1386.52 1200,-1426 1219.27,-1432.38 1239.74,-1438.11 1260.21,-1443.18"/>
<polygon fill="black" stroke="black" stroke-width="1.5" points="1259.38,-1446.58 1269.92,-1445.54 1261.03,-1439.78 1259.38,-1446.58"/>
<text text-anchor="middle" x="1112" y="-1424.4" font-family="Times,serif" font-size="22.00">APPLIES TO</text>
</g>
<!-- C7 -->
<g id="node18" class="node">
<title>C7</title>
<polygon fill="orange" stroke="black" points="2215.5,-1368 1863.5,-1368 1863.5,-1290 2215.5,-1290 2215.5,-1368"/>
<text text-anchor="middle" x="2039.5" y="-1338.4" font-family="Helvetica,sans-Serif" font-size="32.00">Targeted Information</text>
<text text-anchor="middle" x="2039.5" y="-1303.4" font-family="Helvetica,sans-Serif" font-size="32.00">Querying</text>
</g>
<!-- A3&#45;&gt;C7 -->
<g id="edge15" class="edge">
<title>A3&#45;&gt;C7</title>
<path fill="none" stroke="black" stroke-width="1.5" d="M1650.12,-1039.01C1653.22,-1041.83 1656.19,-1044.82 1659,-1048 1695.76,-1089.55 1638.09,-1257.46 1677,-1297 1722.2,-1342.93 1788.98,-1357.27 1852.89,-1357.93"/>
<polygon fill="black" stroke="black" stroke-width="1.5" points="1853.12,-1361.43 1863.12,-1357.92 1853.12,-1354.43 1853.12,-1361.43"/>
<text text-anchor="middle" x="1747" y="-1361.4" font-family="Times,serif" font-size="22.00">APPLIES TO</text>
</g>
<!-- C10 -->
<g id="node19" class="node">
<title>C10</title>
<polygon fill="orange" stroke="black" points="2237,-1176 1842,-1176 1842,-1104 2237,-1104 2237,-1176"/>
<text text-anchor="middle" x="2039.5" y="-1131.9" font-family="Helvetica,sans-Serif" font-size="32.00">MS PPT Data Extraction</text>
</g>
<!-- A3&#45;&gt;C10 -->
<g id="edge16" class="edge">
<title>A3&#45;&gt;C10</title>
<path fill="none" stroke="black" stroke-width="1.5" d="M1648.94,-1039.31C1652.43,-1042.03 1655.79,-1044.93 1659,-1048 1683.46,-1071.4 1650.92,-1100.43 1677,-1122 1690.24,-1132.95 1758.13,-1137.83 1831.57,-1139.82"/>
<polygon fill="black" stroke="black" stroke-width="1.5" points="1831.88,-1143.33 1841.97,-1140.09 1832.06,-1136.34 1831.88,-1143.33"/>
<text text-anchor="middle" x="1747" y="-1145.4" font-family="Times,serif" font-size="22.00">APPLIES TO</text>
</g>
<!-- C11 -->
<g id="node20" class="node">
<title>C11</title>
<polygon fill="orange" stroke="black" points="2244,-990 1835,-990 1835,-918 2244,-918 2244,-990"/>
<text text-anchor="middle" x="2039.5" y="-945.9" font-family="Helvetica,sans-Serif" font-size="32.00">MS DOC Data Extraction</text>
</g>
<!-- A3&#45;&gt;C11 -->
<g id="edge17" class="edge">
<title>A3&#45;&gt;C11</title>
<path fill="none" stroke="black" stroke-width="1.5" d="M1602.01,-966.99C1627.06,-962.9 1652.63,-959.36 1677,-957 1724.63,-952.39 1775.96,-950.27 1824.55,-949.55"/>
<polygon fill="black" stroke="black" stroke-width="1.5" points="1824.6,-953.05 1834.56,-949.42 1824.51,-946.05 1824.6,-953.05"/>
<text text-anchor="middle" x="1747" y="-963.4" font-family="Times,serif" font-size="22.00">APPLIES TO</text>
</g>
<!-- C20 -->
<g id="node27" class="node">
<title>C20</title>
<polygon fill="orange" stroke="black" points="2173,-1272 1906,-1272 1906,-1194 2173,-1194 2173,-1272"/>
<text text-anchor="middle" x="2039.5" y="-1242.4" font-family="Helvetica,sans-Serif" font-size="32.00">Jira Ticket</text>
<text text-anchor="middle" x="2039.5" y="-1207.4" font-family="Helvetica,sans-Serif" font-size="32.00">Data Extraction</text>
</g>
<!-- A3&#45;&gt;C20 -->
<g id="edge18" class="edge">
<title>A3&#45;&gt;C20</title>
<path fill="none" stroke="black" stroke-width="1.5" d="M1649.97,-1039.14C1653.12,-1041.92 1656.13,-1044.87 1659,-1048 1684.36,-1075.69 1649.67,-1190.26 1677,-1216 1734.01,-1269.7 1821.21,-1275.14 1895.69,-1266.58"/>
<polygon fill="black" stroke="black" stroke-width="1.5" points="1896.14,-1270.05 1905.64,-1265.34 1895.28,-1263.1 1896.14,-1270.05"/>
<text text-anchor="middle" x="1747" y="-1275.4" font-family="Times,serif" font-size="22.00">APPLIES TO</text>
</g>
<!-- C21 -->
<g id="node28" class="node">
<title>C21</title>
<polygon fill="orange" stroke="black" points="2173,-1086 1906,-1086 1906,-1008 2173,-1008 2173,-1086"/>
<text text-anchor="middle" x="2039.5" y="-1056.4" font-family="Helvetica,sans-Serif" font-size="32.00">GitHub File</text>
<text text-anchor="middle" x="2039.5" y="-1021.4" font-family="Helvetica,sans-Serif" font-size="32.00">Data Extraction</text>
</g>
<!-- A3&#45;&gt;C21 -->
<g id="edge19" class="edge">
<title>A3&#45;&gt;C21</title>
<path fill="none" stroke="black" stroke-width="1.5" d="M1656.8,-1026.38C1663.61,-1026.95 1670.35,-1027.49 1677,-1028 1748.97,-1033.54 1829.13,-1037.93 1895.64,-1041.09"/>
<polygon fill="black" stroke="black" stroke-width="1.5" points="1895.61,-1044.59 1905.77,-1041.57 1895.94,-1037.6 1895.61,-1044.59"/>
<text text-anchor="middle" x="1747" y="-1043.4" font-family="Times,serif" font-size="22.00">APPLIES TO</text>
</g>
<!-- C22 -->
<g id="node29" class="node">
<title>C22</title>
<polygon fill="orange" stroke="black" points="2177.5,-900 1901.5,-900 1901.5,-822 2177.5,-822 2177.5,-900"/>
<text text-anchor="middle" x="2039.5" y="-870.4" font-family="Helvetica,sans-Serif" font-size="32.00">Google Manifest</text>
<text text-anchor="middle" x="2039.5" y="-835.4" font-family="Helvetica,sans-Serif" font-size="32.00">Data Extraction</text>
</g>
<!-- A3&#45;&gt;C22 -->
<g id="edge20" class="edge">
<title>A3&#45;&gt;C22</title>
<path fill="none" stroke="black" stroke-width="1.5" d="M1475.32,-966.84C1522.34,-931.43 1599.98,-879.85 1677,-859 1745.72,-840.4 1824.51,-838.67 1890.96,-842.52"/>
<polygon fill="black" stroke="black" stroke-width="1.5" points="1890.89,-846.02 1901.09,-843.16 1891.33,-839.04 1890.89,-846.02"/>
<text text-anchor="middle" x="1747" y="-865.4" font-family="Times,serif" font-size="22.00">APPLIES TO</text>
</g>
<!-- C12 -->
<g id="node21" class="node">
<title>C12</title>
<polygon fill="#f0f0f0" stroke="black" points="2239,-612 1840,-612 1840,-540 2239,-540 2239,-612"/>
<text text-anchor="middle" x="2039.5" y="-567.9" font-family="Helvetica,sans-Serif" font-size="32.00">PyTest Code Generation</text>
</g>
<!-- A4&#45;&gt;C12 -->
<g id="edge21" class="edge">
<title>A4&#45;&gt;C12</title>
<path fill="none" stroke="black" stroke-width="1.5" d="M1643.8,-633.97C1649.16,-630.03 1654.25,-625.72 1659,-621 1685.17,-595.02 1648.23,-563.08 1677,-540 1707.85,-515.25 1795.22,-523.39 1876.33,-538.13"/>
<polygon fill="black" stroke="black" stroke-width="1.5" points="1875.72,-541.58 1886.19,-539.96 1877,-534.7 1875.72,-541.58"/>
<text text-anchor="middle" x="1747" y="-546.4" font-family="Times,serif" font-size="22.00">APPLIES TO</text>
</g>
<!-- C13 -->
<g id="node22" class="node">
<title>C13</title>
<polygon fill="#f0f0f0" stroke="black" points="2197.5,-708 1881.5,-708 1881.5,-630 2197.5,-630 2197.5,-708"/>
<text text-anchor="middle" x="2039.5" y="-678.4" font-family="Helvetica,sans-Serif" font-size="32.00">Python Module API</text>
<text text-anchor="middle" x="2039.5" y="-643.4" font-family="Helvetica,sans-Serif" font-size="32.00">Doc Generation</text>
</g>
<!-- A4&#45;&gt;C13 -->
<g id="edge22" class="edge">
<title>A4&#45;&gt;C13</title>
<path fill="none" stroke="black" stroke-width="1.5" d="M1640.52,-633.91C1646.97,-630.01 1653.16,-625.72 1659,-621 1674.16,-608.75 1660.63,-591.59 1677,-581 1703.13,-564.11 1790.87,-564.11 1817,-581 1833.37,-591.59 1819.96,-608.59 1835,-621 1846.15,-630.2 1858.75,-637.69 1872.08,-643.8"/>
<polygon fill="black" stroke="black" stroke-width="1.5" points="1870.85,-647.08 1881.42,-647.8 1873.61,-640.65 1870.85,-647.08"/>
<text text-anchor="middle" x="1747" y="-587.4" font-family="Times,serif" font-size="22.00">APPLIES TO</text>
</g>
<!-- C14 -->
<g id="node23" class="node">
<title>C14</title>
<polygon fill="orange" stroke="black" points="2215.5,-804 1863.5,-804 1863.5,-726 2215.5,-726 2215.5,-804"/>
<text text-anchor="middle" x="2039.5" y="-774.4" font-family="Helvetica,sans-Serif" font-size="32.00">MySQL Python Client</text>
<text text-anchor="middle" x="2039.5" y="-739.4" font-family="Helvetica,sans-Serif" font-size="32.00">Code Generation</text>
</g>
<!-- A4&#45;&gt;C14 -->
<g id="edge23" class="edge">
<title>A4&#45;&gt;C14</title>
<path fill="none" stroke="black" stroke-width="1.5" d="M1659.21,-652.47C1726.62,-651.7 1789.67,-656.72 1817,-675 1833.88,-686.29 1819.45,-703.94 1835,-717 1841.06,-722.09 1847.56,-726.66 1854.39,-730.76"/>
<polygon fill="black" stroke="black" stroke-width="1.5" points="1852.76,-733.87 1863.2,-735.72 1856.19,-727.77 1852.76,-733.87"/>
<text text-anchor="middle" x="1747" y="-681.4" font-family="Times,serif" font-size="22.00">APPLIES TO</text>
</g>
<!-- PY -->
<g id="node7" class="node">
<title>PY</title>
<polygon fill="#f0f0f0" stroke="black" points="1512.5,-851 1346.5,-851 1346.5,-779 1512.5,-779 1512.5,-851"/>
<text text-anchor="start" x="1355" y="-807.9" font-family="Helvetica,sans-Serif" font-size="32.00"> </text>
<text text-anchor="start" x="1366" y="-807.9" font-family="Helvetica,sans-Serif" font-weight="bold" font-size="32.00">Python</text>
<text text-anchor="start" x="1493" y="-807.9" font-family="Helvetica,sans-Serif" font-size="32.00"> </text>
</g>
<!-- A5&#45;&gt;PY -->
<g id="edge24" class="edge">
<title>A5&#45;&gt;PY</title>
<path fill="none" stroke="black" stroke-width="1.5" d="M857.11,-432.23C921.13,-495.87 1061.9,-629.1 1200,-715 1242.82,-741.63 1293.97,-764.73 1337.01,-781.99"/>
<polygon fill="black" stroke="black" stroke-width="1.5" points="1335.76,-785.26 1346.34,-785.7 1338.34,-778.76 1335.76,-785.26"/>
<text text-anchor="middle" x="1112" y="-706.4" font-family="Times,serif" font-size="22.00">SUPPORTS</text>
</g>
<!-- GO -->
<g id="node8" class="node">
<title>GO</title>
<polygon fill="orange" stroke="black" points="1512.5,-162 1346.5,-162 1346.5,-90 1512.5,-90 1512.5,-162"/>
<text text-anchor="start" x="1355" y="-118.9" font-family="Helvetica,sans-Serif" font-size="32.00"> </text>
<text text-anchor="start" x="1366" y="-118.9" font-family="Helvetica,sans-Serif" font-weight="bold" font-size="32.00">Golang</text>
<text text-anchor="start" x="1493" y="-118.9" font-family="Helvetica,sans-Serif" font-size="32.00"> </text>
</g>
<!-- A5&#45;&gt;GO -->
<g id="edge25" class="edge">
<title>A5&#45;&gt;GO</title>
<path fill="none" stroke="black" stroke-width="1.5" d="M866.08,-359.96C909.34,-326.04 977.7,-275.18 1042,-239 1108.62,-201.51 1126.97,-193.62 1200,-171 1244.07,-157.35 1294.25,-146.93 1336.33,-139.57"/>
<polygon fill="black" stroke="black" stroke-width="1.5" points="1337.03,-143 1346.29,-137.86 1335.84,-136.1 1337.03,-143"/>
<text text-anchor="middle" x="1112" y="-245.4" font-family="Times,serif" font-size="22.00">SUPPORTS</text>
</g>
<!-- PS -->
<g id="node9" class="node">
<title>PS</title>
<polygon fill="orange" stroke="black" points="1549.5,-72 1309.5,-72 1309.5,0 1549.5,0 1549.5,-72"/>
<text text-anchor="start" x="1317.5" y="-28.9" font-family="Helvetica,sans-Serif" font-size="32.00"> </text>
<text text-anchor="start" x="1328.5" y="-28.9" font-family="Helvetica,sans-Serif" font-weight="bold" font-size="32.00">PowerShell</text>
<text text-anchor="start" x="1530.5" y="-28.9" font-family="Helvetica,sans-Serif" font-size="32.00"> </text>
</g>
<!-- A5&#45;&gt;PS -->
<g id="edge26" class="edge">
<title>A5&#45;&gt;PS</title>
<path fill="none" stroke="black" stroke-width="1.5" d="M846.14,-359.82C883.31,-307.53 958.33,-210.48 1042,-150 1117.58,-95.37 1219.24,-66.72 1299.33,-51.81"/>
<polygon fill="black" stroke="black" stroke-width="1.5" points="1300.27,-55.2 1309.48,-49.97 1299.02,-48.31 1300.27,-55.2"/>
<text text-anchor="middle" x="1112" y="-156.4" font-family="Times,serif" font-size="22.00">SUPPORTS</text>
</g>
<!-- C15 -->
<g id="node24" class="node">
<title>C15</title>
<polygon fill="orange" stroke="black" points="1513,-612 1346,-612 1346,-540 1513,-540 1513,-612"/>
<text text-anchor="middle" x="1429.5" y="-567.9" font-family="Helvetica,sans-Serif" font-size="32.00">PlantUML</text>
</g>
<!-- A5&#45;&gt;C15 -->
<g id="edge27" class="edge">
<title>A5&#45;&gt;C15</title>
<path fill="none" stroke="black" stroke-width="1.5" d="M909.69,-432.03C985.59,-461.94 1098.58,-503.82 1200,-531 1244.29,-542.87 1294.18,-553.06 1336.02,-560.72"/>
<polygon fill="black" stroke="black" stroke-width="1.5" points="1335.46,-564.17 1345.92,-562.51 1336.71,-557.29 1335.46,-564.17"/>
<text text-anchor="middle" x="1112" y="-531.4" font-family="Times,serif" font-size="22.00">SUPPORTS</text>
</g>
<!-- C16 -->
<g id="node25" class="node">
<title>C16</title>
<polygon fill="orange" stroke="black" points="1547.5,-522 1311.5,-522 1311.5,-450 1547.5,-450 1547.5,-522"/>
<text text-anchor="middle" x="1429.5" y="-477.9" font-family="Helvetica,sans-Serif" font-size="32.00">Sphinx&#45;Needs</text>
</g>
<!-- A5&#45;&gt;C16 -->
<g id="edge28" class="edge">
<title>A5&#45;&gt;C16</title>
<path fill="none" stroke="black" stroke-width="1.5" d="M1024.04,-426.03C1115.63,-439.61 1221.05,-455.24 1301.3,-467.14"/>
<polygon fill="black" stroke="black" stroke-width="1.5" points="1301.05,-470.64 1311.46,-468.65 1302.08,-463.72 1301.05,-470.64"/>
<text text-anchor="middle" x="1112" y="-455.4" font-family="Times,serif" font-size="22.00">SUPPORTS</text>
</g>
<!-- C17 -->
<g id="node26" class="node">
<title>C17</title>
<polygon fill="#f0f0f0" stroke="black" points="1585.5,-432 1273.5,-432 1273.5,-360 1585.5,-360 1585.5,-432"/>
<text text-anchor="middle" x="1429.5" y="-387.9" font-family="Helvetica,sans-Serif" font-size="32.00">Web Development</text>
</g>
<!-- A5&#45;&gt;C17 -->
<g id="edge29" class="edge">
<title>A5&#45;&gt;C17</title>
<path fill="none" stroke="black" stroke-width="1.5" d="M1024.04,-396C1101.59,-396 1189.06,-396 1262.76,-396"/>
<polygon fill="black" stroke="black" stroke-width="1.5" points="1263.07,-399.5 1273.07,-396 1263.07,-392.5 1263.07,-399.5"/>
<text text-anchor="middle" x="1112" y="-402.4" font-family="Times,serif" font-size="22.00">SUPPORTS</text>
</g>
<!-- C27 -->
<g id="node33" class="node">
<title>C27</title>
<polygon fill="orange" stroke="black" points="1552.5,-252 1306.5,-252 1306.5,-180 1552.5,-180 1552.5,-252"/>
<text text-anchor="start" x="1314.5" y="-208.9" font-family="Helvetica,sans-Serif" font-size="32.00"> </text>
<text text-anchor="start" x="1325.5" y="-208.9" font-family="Helvetica,sans-Serif" font-weight="bold" font-size="32.00">Kubernetes</text>
<text text-anchor="start" x="1533.5" y="-208.9" font-family="Helvetica,sans-Serif" font-size="32.00"> </text>
</g>
<!-- A5&#45;&gt;C27 -->
<g id="edge30" class="edge">
<title>A5&#45;&gt;C27</title>
<path fill="none" stroke="black" stroke-width="1.5" d="M909.69,-359.97C985.59,-330.06 1098.58,-288.18 1200,-261 1230.83,-252.73 1264.38,-245.29 1296.04,-238.94"/>
<polygon fill="black" stroke="black" stroke-width="1.5" points="1297.12,-242.29 1306.25,-236.92 1295.76,-235.43 1297.12,-242.29"/>
<text text-anchor="middle" x="1112" y="-317.4" font-family="Times,serif" font-size="22.00">SUPPORTS</text>
</g>
<!-- C29 -->
<g id="node34" class="node">
<title>C29</title>
<polygon fill="#f0f0f0" stroke="black" points="1512.5,-342 1346.5,-342 1346.5,-270 1512.5,-270 1512.5,-342"/>
<text text-anchor="middle" x="1429.5" y="-297.9" font-family="Helvetica,sans-Serif" font-size="32.00">Docker</text>
</g>
<!-- A5&#45;&gt;C29 -->
<g id="edge31" class="edge">
<title>A5&#45;&gt;C29</title>
<path fill="none" stroke="black" stroke-width="1.5" d="M1024.04,-365.97C1129.62,-350.32 1253.59,-331.93 1336.18,-319.69"/>
<polygon fill="black" stroke="black" stroke-width="1.5" points="1336.92,-323.12 1346.3,-318.19 1335.89,-316.19 1336.92,-323.12"/>
<text text-anchor="middle" x="1112" y="-368.4" font-family="Times,serif" font-size="22.00">SUPPORTS</text>
</g>
<!-- PY&#45;&gt;C10 -->
<g id="edge32" class="edge">
<title>PY&#45;&gt;C10</title>
<path fill="none" stroke="black" stroke-width="1.5" d="M1512.7,-845.82C1562.96,-868.99 1624.09,-905.76 1659,-958 1685.8,-998.09 1643.55,-1030.27 1677,-1065 1721.08,-1110.77 1754.78,-1081.1 1817,-1094 1829.41,-1096.57 1842.21,-1099.23 1855.11,-1101.91"/>
<polygon fill="black" stroke="black" stroke-width="1.5" points="1854.49,-1105.35 1864.99,-1103.96 1855.91,-1098.5 1854.49,-1105.35"/>
<text text-anchor="middle" x="1747" y="-1100.4" font-family="Times,serif" font-size="22.00">ENABLES</text>
</g>
<!-- PY&#45;&gt;C11 -->
<g id="edge33" class="edge">
<title>PY&#45;&gt;C11</title>
<path fill="none" stroke="black" stroke-width="1.5" d="M1512.67,-841.26C1560.34,-855.92 1621.7,-873.84 1677,-887 1724.49,-898.31 1775.87,-908.84 1824.58,-918.05"/>
<polygon fill="black" stroke="black" stroke-width="1.5" points="1824.13,-921.52 1834.6,-919.93 1825.42,-914.64 1824.13,-921.52"/>
<text text-anchor="middle" x="1747" y="-922.4" font-family="Times,serif" font-size="22.00">ENABLES</text>
</g>
<!-- PY&#45;&gt;C12 -->
<g id="edge34" class="edge">
<title>PY&#45;&gt;C12</title>
<path fill="none" stroke="black" stroke-width="1.5" d="M1512.52,-799.18C1562.21,-785.33 1622.8,-760.07 1659,-715 1684.82,-682.86 1646.94,-652.22 1677,-624 1677.41,-623.61 1749.75,-613.97 1829.59,-603.43"/>
<polygon fill="black" stroke="black" stroke-width="1.5" points="1830.42,-606.85 1839.88,-602.08 1829.5,-599.92 1830.42,-606.85"/>
<text text-anchor="middle" x="1747" y="-630.4" font-family="Times,serif" font-size="22.00">ENABLES</text>
</g>
<!-- PY&#45;&gt;C13 -->
<g id="edge35" class="edge">
<title>PY&#45;&gt;C13</title>
<path fill="none" stroke="black" stroke-width="1.5" d="M1512.73,-788.66C1560.41,-773.89 1621.77,-755.72 1677,-742 1739.98,-726.35 1809.76,-711.65 1871.08,-699.6"/>
<polygon fill="black" stroke="black" stroke-width="1.5" points="1872.09,-702.96 1881.24,-697.61 1870.75,-696.09 1872.09,-702.96"/>
<text text-anchor="middle" x="1747" y="-748.4" font-family="Times,serif" font-size="22.00">ENABLES</text>
</g>
<!-- PY&#45;&gt;C14 -->
<g id="edge36" class="edge">
<title>PY&#45;&gt;C14</title>
<path fill="none" stroke="black" stroke-width="1.5" d="M1512.71,-801.24C1560.52,-793.76 1622.01,-785.03 1677,-780 1734.09,-774.78 1796.42,-771.37 1853,-769.15"/>
<polygon fill="black" stroke="black" stroke-width="1.5" points="1853.27,-772.64 1863.13,-768.76 1853,-765.65 1853.27,-772.64"/>
<text text-anchor="middle" x="1747" y="-786.4" font-family="Times,serif" font-size="22.00">ENABLES</text>
</g>
<!-- PY&#45;&gt;C20 -->
<g id="edge37" class="edge">
<title>PY&#45;&gt;C20</title>
<path fill="none" stroke="black" stroke-width="1.5" d="M1512.73,-844.26C1563.85,-867.01 1625.92,-903.9 1659,-958 1683.32,-997.77 1645.09,-1133.02 1677,-1167 1698.53,-1189.93 1786.02,-1182.53 1817,-1188 1842.53,-1192.5 1869.63,-1197.68 1895.8,-1202.88"/>
<polygon fill="black" stroke="black" stroke-width="1.5" points="1895.28,-1206.35 1905.77,-1204.88 1896.65,-1199.48 1895.28,-1206.35"/>
<text text-anchor="middle" x="1747" y="-1194.4" font-family="Times,serif" font-size="22.00">ENABLES</text>
</g>
<!-- PY&#45;&gt;C21 -->
<g id="edge38" class="edge">
<title>PY&#45;&gt;C21</title>
<path fill="none" stroke="black" stroke-width="1.5" d="M1501.57,-851.02C1549.03,-877.03 1611.26,-915.02 1659,-958 1668.65,-966.68 1665.74,-974.54 1677,-981 1731.47,-1012.25 1755.13,-989.25 1817,-1000 1842.59,-1004.44 1869.72,-1009.72 1895.89,-1015.11"/>
<polygon fill="black" stroke="black" stroke-width="1.5" points="1895.37,-1018.58 1905.87,-1017.18 1896.79,-1011.73 1895.37,-1018.58"/>
<text text-anchor="middle" x="1747" y="-1006.4" font-family="Times,serif" font-size="22.00">ENABLES</text>
</g>
<!-- PY&#45;&gt;C22 -->
<g id="edge39" class="edge">
<title>PY&#45;&gt;C22</title>
<path fill="none" stroke="black" stroke-width="1.5" d="M1512.55,-810.53C1590.96,-807.36 1712.36,-805.34 1817,-816 1841.19,-818.46 1866.65,-822.37 1891.34,-826.88"/>
<polygon fill="black" stroke="black" stroke-width="1.5" points="1891.02,-830.38 1901.5,-828.77 1892.31,-823.5 1891.02,-830.38"/>
<text text-anchor="middle" x="1747" y="-822.4" font-family="Times,serif" font-size="22.00">ENABLES</text>
</g>
<!-- C24 -->
<g id="node30" class="node">
<title>C24</title>
<polygon fill="#f0f0f0" stroke="black" points="2122.5,-522 1956.5,-522 1956.5,-450 2122.5,-450 2122.5,-522"/>
<text text-anchor="middle" x="2039.5" y="-477.9" font-family="Helvetica,sans-Serif" font-size="32.00">HTML</text>
</g>
<!-- C17&#45;&gt;C24 -->
<g id="edge40" class="edge">
<title>C17&#45;&gt;C24</title>
<path fill="none" stroke="black" stroke-width="1.5" d="M1585.89,-419C1699.9,-435.88 1850.88,-458.23 1946.38,-472.36"/>
<polygon fill="black" stroke="black" stroke-width="1.5" points="1945.9,-475.83 1956.31,-473.83 1946.93,-468.91 1945.9,-475.83"/>
<text text-anchor="middle" x="1747" y="-457.4" font-family="Times,serif" font-size="22.00">UTILIZES</text>
</g>
<!-- C25 -->
<g id="node31" class="node">
<title>C25</title>
<polygon fill="#f0f0f0" stroke="black" points="2128,-432 1951,-432 1951,-360 2128,-360 2128,-432"/>
<text text-anchor="middle" x="2039.5" y="-387.9" font-family="Helvetica,sans-Serif" font-size="32.00">JavaScript</text>
</g>
<!-- C17&#45;&gt;C25 -->
<g id="edge41" class="edge">
<title>C17&#45;&gt;C25</title>
<path fill="none" stroke="black" stroke-width="1.5" d="M1585.89,-396C1697.58,-396 1844.75,-396 1940.48,-396"/>
<polygon fill="black" stroke="black" stroke-width="1.5" points="1940.73,-399.5 1950.73,-396 1940.73,-392.5 1940.73,-399.5"/>
<text text-anchor="middle" x="1747" y="-402.4" font-family="Times,serif" font-size="22.00">UTILIZES</text>
</g>
<!-- C26 -->
<g id="node32" class="node">
<title>C26</title>
<polygon fill="#f0f0f0" stroke="black" points="2122.5,-342 1956.5,-342 1956.5,-270 2122.5,-270 2122.5,-342"/>
<text text-anchor="middle" x="2039.5" y="-297.9" font-family="Helvetica,sans-Serif" font-size="32.00">CSS</text>
</g>
<!-- C17&#45;&gt;C26 -->
<g id="edge42" class="edge">
<title>C17&#45;&gt;C26</title>
<path fill="none" stroke="black" stroke-width="1.5" d="M1585.89,-373C1699.9,-356.12 1850.88,-333.77 1946.38,-319.64"/>
<polygon fill="black" stroke="black" stroke-width="1.5" points="1946.93,-323.09 1956.31,-318.17 1945.9,-316.17 1946.93,-323.09"/>
<text text-anchor="middle" x="1747" y="-366.4" font-family="Times,serif" font-size="22.00">UTILIZES</text>
</g>
<!-- C31 -->
<g id="node36" class="node">
<title>C31</title>
<polygon fill="orange" stroke="black" points="2122.5,-72 1956.5,-72 1956.5,0 2122.5,0 2122.5,-72"/>
<text text-anchor="middle" x="2039.5" y="-27.9" font-family="Helvetica,sans-Serif" font-size="32.00">Kubectl</text>
</g>
<!-- C27&#45;&gt;C31 -->
<g id="edge43" class="edge">
<title>C27&#45;&gt;C31</title>
<path fill="none" stroke="black" stroke-width="1.5" d="M1552.58,-212.89C1589.82,-206.74 1628.85,-194.47 1659,-171 1673.75,-159.52 1662.99,-145.37 1677,-133 1732.42,-84.08 1763.71,-100.56 1835,-81 1871.05,-71.11 1911.14,-61.87 1946.14,-54.37"/>
<polygon fill="black" stroke="black" stroke-width="1.5" points="1947.29,-57.71 1956.35,-52.21 1945.84,-50.86 1947.29,-57.71"/>
<text text-anchor="middle" x="1747" y="-139.4" font-family="Times,serif" font-size="22.00">UTILIZES</text>
</g>
<!-- C32 -->
<g id="node37" class="node">
<title>C32</title>
<polygon fill="#f0f0f0" stroke="black" points="2122.5,-252 1956.5,-252 1956.5,-180 2122.5,-180 2122.5,-252"/>
<text text-anchor="middle" x="2039.5" y="-207.9" font-family="Helvetica,sans-Serif" font-size="32.00">Helm</text>
</g>
<!-- C27&#45;&gt;C32 -->
<g id="edge44" class="edge">
<title>C27&#45;&gt;C32</title>
<path fill="none" stroke="black" stroke-width="1.5" d="M1552.81,-216C1668.92,-216 1840.9,-216 1946,-216"/>
<polygon fill="black" stroke="black" stroke-width="1.5" points="1946.28,-219.5 1956.28,-216 1946.28,-212.5 1946.28,-219.5"/>
<text text-anchor="middle" x="1747" y="-222.4" font-family="Times,serif" font-size="22.00">UTILIZES</text>
</g>
<!-- C33 -->
<g id="node38" class="node">
<title>C33</title>
<polygon fill="orange" stroke="black" points="2127.5,-162 1951.5,-162 1951.5,-90 2127.5,-90 2127.5,-162"/>
<text text-anchor="middle" x="2039.5" y="-117.9" font-family="Helvetica,sans-Serif" font-size="32.00">DevSpace</text>
</g>
<!-- C27&#45;&gt;C33 -->
<g id="edge45" class="edge">
<title>C27&#45;&gt;C33</title>
<path fill="none" stroke="black" stroke-width="1.5" d="M1552.81,-197.9C1667.19,-180.96 1835.79,-156.01 1941.26,-140.39"/>
<polygon fill="black" stroke="black" stroke-width="1.5" points="1941.89,-143.84 1951.27,-138.91 1940.86,-136.91 1941.89,-143.84"/>
<text text-anchor="middle" x="1747" y="-186.4" font-family="Times,serif" font-size="22.00">UTILIZES</text>
</g>
</g>
</svg>
