<?xml version="1.0" encoding="UTF-8" standalone="no"?>
<!DOCTYPE svg PUBLIC "-//W3C//DTD SVG 1.1//EN"
 "http://www.w3.org/Graphics/SVG/1.1/DTD/svg11.dtd">
<!-- Generated by graphviz version 2.43.0 (0)
 -->
<!-- Title: G Pages: 1 -->
<svg width="2912pt" height="2629pt"
 viewBox="0.00 0.00 2912.00 2628.56" xmlns="http://www.w3.org/2000/svg" xmlns:xlink="http://www.w3.org/1999/xlink">
<g id="graph0" class="graph" transform="scale(1 1) rotate(0) translate(4 2624.56)">
<title>G</title>
<!-- root -->
<g id="node1" class="node">
<title>root</title>
<path fill="LightSkyBlue" stroke="Gray" stroke-width="6.5" d="M370,-1085.56C370,-1085.56 12,-1085.56 12,-1085.56 6,-1085.56 0,-1079.56 0,-1073.56 0,-1073.56 0,-919.56 0,-919.56 0,-913.56 6,-907.56 12,-907.56 12,-907.56 370,-907.56 370,-907.56 376,-907.56 382,-913.56 382,-919.56 382,-919.56 382,-1073.56 382,-1073.56 382,-1079.56 376,-1085.56 370,-1085.56"/>
<text text-anchor="start" x="39.5" y="-1032.56" font-family="Helvetica,sans-Serif" font-size="50.00"> </text>
<text text-anchor="start" x="55.5" y="-1032.56" font-family="Helvetica,sans-Serif" font-weight="bold" font-size="50.00">Deep Dive</text>
<text text-anchor="start" x="135" y="-982.56" font-family="Helvetica,sans-Serif" font-weight="bold" font-size="50.00">into</text>
<text text-anchor="start" x="74.5" y="-932.56" font-family="Helvetica,sans-Serif" font-weight="bold" font-size="50.00">AI &amp; ML</text>
<text text-anchor="start" x="291.5" y="-932.56" font-family="Helvetica,sans-Serif" font-size="50.00"> </text>
</g>
<!-- foundations -->
<g id="node2" class="node">
<title>foundations</title>
<path fill="Chartreuse" stroke="Gray" stroke-width="6.5" d="M935,-1790.56C935,-1790.56 531,-1790.56 531,-1790.56 525,-1790.56 519,-1784.56 519,-1778.56 519,-1778.56 519,-1624.56 519,-1624.56 519,-1618.56 525,-1612.56 531,-1612.56 531,-1612.56 935,-1612.56 935,-1612.56 941,-1612.56 947,-1618.56 947,-1624.56 947,-1624.56 947,-1778.56 947,-1778.56 947,-1784.56 941,-1790.56 935,-1790.56"/>
<text text-anchor="start" x="550.5" y="-1737.56" font-family="Helvetica,sans-Serif" font-size="50.00"> </text>
<text text-anchor="start" x="566.5" y="-1737.56" font-family="Helvetica,sans-Serif" font-weight="bold" font-size="50.00">Foundations</text>
<text text-anchor="start" x="533" y="-1687.56" font-family="Helvetica,sans-Serif" font-weight="bold" font-size="50.00">(Prerequisites</text>
<text text-anchor="start" x="582" y="-1637.56" font-family="Helvetica,sans-Serif" font-weight="bold" font-size="50.00">/Enablers)</text>
<text text-anchor="start" x="868" y="-1637.56" font-family="Helvetica,sans-Serif" font-size="50.00"> </text>
</g>
<!-- root&#45;&gt;foundations -->
<g id="edge1" class="edge">
<title>root&#45;&gt;foundations</title>
<path fill="none" stroke="Gray" stroke-width="2.5" d="M214.4,-1085.7C278.56,-1323.99 314.81,-1376.01 594.05,-1594.11"/>
<polygon fill="Gray" stroke="Gray" stroke-width="2.5" points="587.6,-1602.4 617.72,-1612.56 600.51,-1585.84 587.6,-1602.4"/>
</g>
<!-- core_ml -->
<g id="node3" class="node">
<title>core_ml</title>
<path fill="Chartreuse" stroke="Gray" stroke-width="6.5" d="M912,-1085.56C912,-1085.56 554,-1085.56 554,-1085.56 548,-1085.56 542,-1079.56 542,-1073.56 542,-1073.56 542,-919.56 542,-919.56 542,-913.56 548,-907.56 554,-907.56 554,-907.56 912,-907.56 912,-907.56 918,-907.56 924,-913.56 924,-919.56 924,-919.56 924,-1073.56 924,-1073.56 924,-1079.56 918,-1085.56 912,-1085.56"/>
<text text-anchor="start" x="592" y="-1032.56" font-family="Helvetica,sans-Serif" font-size="50.00"> </text>
<text text-anchor="start" x="608" y="-1032.56" font-family="Helvetica,sans-Serif" font-weight="bold" font-size="50.00">Core AI &amp;</text>
<text text-anchor="start" x="615.5" y="-982.56" font-family="Helvetica,sans-Serif" font-weight="bold" font-size="50.00">Machine</text>
<text text-anchor="start" x="601" y="-932.56" font-family="Helvetica,sans-Serif" font-weight="bold" font-size="50.00">Learning</text>
<text text-anchor="start" x="849" y="-932.56" font-family="Helvetica,sans-Serif" font-size="50.00"> </text>
</g>
<!-- root&#45;&gt;core_ml -->
<g id="edge2" class="edge">
<title>root&#45;&gt;core_ml</title>
<path fill="none" stroke="Gray" stroke-width="2.5" d="M382.3,-970.3C416.16,-970.18 456.32,-972.29 511.51,-976.64"/>
<polygon fill="Gray" stroke="Gray" stroke-width="2.5" points="511.03,-987.13 541.79,-979.11 512.74,-966.2 511.03,-987.13"/>
</g>
<!-- mlops -->
<g id="node4" class="node">
<title>mlops</title>
<path fill="Chartreuse" stroke="Gray" stroke-width="6.5" d="M913,-454.56C913,-454.56 553,-454.56 553,-454.56 547,-454.56 541,-448.56 541,-442.56 541,-442.56 541,-338.56 541,-338.56 541,-332.56 547,-326.56 553,-326.56 553,-326.56 913,-326.56 913,-326.56 919,-326.56 925,-332.56 925,-338.56 925,-338.56 925,-442.56 925,-442.56 925,-448.56 919,-454.56 913,-454.56"/>
<text text-anchor="start" x="600" y="-401.56" font-family="Helvetica,sans-Serif" font-size="50.00"> </text>
<text text-anchor="start" x="616" y="-401.56" font-family="Helvetica,sans-Serif" font-weight="bold" font-size="50.00">MLOps &amp;</text>
<text text-anchor="start" x="555" y="-351.56" font-family="Helvetica,sans-Serif" font-weight="bold" font-size="50.00">Deployment</text>
<text text-anchor="start" x="895" y="-351.56" font-family="Helvetica,sans-Serif" font-size="50.00"> </text>
</g>
<!-- root&#45;&gt;mlops -->
<g id="edge3" class="edge">
<title>root&#45;&gt;mlops</title>
<path fill="none" stroke="Gray" stroke-width="2.5" d="M221.68,-907.39C311.07,-651.19 346.96,-600.9 586.3,-469.23"/>
<polygon fill="Gray" stroke="Gray" stroke-width="2.5" points="591.58,-478.31 612.88,-454.71 581.52,-459.87 591.58,-478.31"/>
</g>
<!-- planguages -->
<g id="node5" class="node">
<title>planguages</title>
<path fill="#dddddd" stroke="Gray" stroke-width="6.5" d="M1593,-2414.56C1593,-2414.56 1190,-2414.56 1190,-2414.56 1184,-2414.56 1178,-2408.56 1178,-2402.56 1178,-2402.56 1178,-2298.56 1178,-2298.56 1178,-2292.56 1184,-2286.56 1190,-2286.56 1190,-2286.56 1593,-2286.56 1593,-2286.56 1599,-2286.56 1605,-2292.56 1605,-2298.56 1605,-2298.56 1605,-2402.56 1605,-2402.56 1605,-2408.56 1599,-2414.56 1593,-2414.56"/>
<text text-anchor="start" x="1192" y="-2361.56" font-family="Helvetica,sans-Serif" font-size="50.00"> </text>
<text text-anchor="start" x="1208" y="-2361.56" font-family="Helvetica,sans-Serif" font-weight="bold" font-size="50.00">Programming</text>
<text text-anchor="start" x="1230.5" y="-2311.56" font-family="Helvetica,sans-Serif" font-weight="bold" font-size="50.00">Languages</text>
<text text-anchor="start" x="1536.5" y="-2311.56" font-family="Helvetica,sans-Serif" font-size="50.00"> </text>
</g>
<!-- foundations&#45;&gt;planguages -->
<g id="edge4" class="edge">
<title>foundations&#45;&gt;planguages</title>
<path fill="none" stroke="Gray" stroke-width="2.5" d="M777.21,-1790.75C937.23,-2112.11 984.74,-2180.68 1202.05,-2274.71"/>
<polygon fill="Gray" stroke="Gray" stroke-width="2.5" points="1198.06,-2284.43 1229.78,-2286.48 1206.26,-2265.1 1198.06,-2284.43"/>
</g>
<!-- da_db -->
<g id="node6" class="node">
<title>da_db</title>
<path fill="#dddddd" stroke="Gray" stroke-width="6.5" d="M1624.5,-1949.56C1624.5,-1949.56 1158.5,-1949.56 1158.5,-1949.56 1152.5,-1949.56 1146.5,-1943.56 1146.5,-1937.56 1146.5,-1937.56 1146.5,-1833.56 1146.5,-1833.56 1146.5,-1827.56 1152.5,-1821.56 1158.5,-1821.56 1158.5,-1821.56 1624.5,-1821.56 1624.5,-1821.56 1630.5,-1821.56 1636.5,-1827.56 1636.5,-1833.56 1636.5,-1833.56 1636.5,-1937.56 1636.5,-1937.56 1636.5,-1943.56 1630.5,-1949.56 1624.5,-1949.56"/>
<text text-anchor="start" x="1160.5" y="-1896.56" font-family="Helvetica,sans-Serif" font-size="50.00"> </text>
<text text-anchor="start" x="1176.5" y="-1896.56" font-family="Helvetica,sans-Serif" font-weight="bold" font-size="50.00">Data Analysis &amp;</text>
<text text-anchor="start" x="1226.5" y="-1846.56" font-family="Helvetica,sans-Serif" font-weight="bold" font-size="50.00"> Databases</text>
<text text-anchor="start" x="1540.5" y="-1846.56" font-family="Helvetica,sans-Serif" font-size="50.00"> </text>
</g>
<!-- foundations&#45;&gt;da_db -->
<g id="edge8" class="edge">
<title>foundations&#45;&gt;da_db</title>
<path fill="none" stroke="Gray" stroke-width="2.5" d="M844.71,-1790.58C937.83,-1860.47 996.45,-1884.65 1116.33,-1889.88"/>
<polygon fill="Gray" stroke="Gray" stroke-width="2.5" points="1116.08,-1900.38 1146.39,-1890.79 1116.72,-1879.39 1116.08,-1900.38"/>
</g>
<!-- cs_math -->
<g id="node13" class="node">
<title>cs_math</title>
<path fill="#dddddd" stroke="Gray" stroke-width="6.5" d="M1687,-1676.56C1687,-1676.56 1096,-1676.56 1096,-1676.56 1090,-1676.56 1084,-1670.56 1084,-1664.56 1084,-1664.56 1084,-1560.56 1084,-1560.56 1084,-1554.56 1090,-1548.56 1096,-1548.56 1096,-1548.56 1687,-1548.56 1687,-1548.56 1693,-1548.56 1699,-1554.56 1699,-1560.56 1699,-1560.56 1699,-1664.56 1699,-1664.56 1699,-1670.56 1693,-1676.56 1687,-1676.56"/>
<text text-anchor="start" x="1098" y="-1623.56" font-family="Helvetica,sans-Serif" font-size="50.00"> </text>
<text text-anchor="start" x="1114" y="-1623.56" font-family="Helvetica,sans-Serif" font-weight="bold" font-size="50.00">Computer Science &amp;</text>
<text text-anchor="start" x="1104.5" y="-1573.56" font-family="Helvetica,sans-Serif" font-weight="bold" font-size="50.00">Math Fundamentals</text>
<text text-anchor="start" x="1662.5" y="-1573.56" font-family="Helvetica,sans-Serif" font-size="50.00"> </text>
</g>
<!-- foundations&#45;&gt;cs_math -->
<g id="edge12" class="edge">
<title>foundations&#45;&gt;cs_math</title>
<path fill="none" stroke="Gray" stroke-width="2.5" d="M947.12,-1727.16C1000.81,-1724.44 1059.79,-1711.71 1152.83,-1685.08"/>
<polygon fill="Gray" stroke="Gray" stroke-width="2.5" points="1155.88,-1695.13 1181.77,-1676.68 1150.03,-1674.96 1155.88,-1695.13"/>
</g>
<!-- ml_found -->
<g id="node16" class="node">
<title>ml_found</title>
<path fill="Gold" stroke="Gray" stroke-width="6.5" d="M1600.5,-1488.56C1600.5,-1488.56 1182.5,-1488.56 1182.5,-1488.56 1176.5,-1488.56 1170.5,-1482.56 1170.5,-1476.56 1170.5,-1476.56 1170.5,-1322.56 1170.5,-1322.56 1170.5,-1316.56 1176.5,-1310.56 1182.5,-1310.56 1182.5,-1310.56 1600.5,-1310.56 1600.5,-1310.56 1606.5,-1310.56 1612.5,-1316.56 1612.5,-1322.56 1612.5,-1322.56 1612.5,-1476.56 1612.5,-1476.56 1612.5,-1482.56 1606.5,-1488.56 1600.5,-1488.56"/>
<text text-anchor="start" x="1266" y="-1435.56" font-family="Helvetica,sans-Serif" font-size="50.00"> </text>
<text text-anchor="start" x="1282" y="-1435.56" font-family="Helvetica,sans-Serif" font-weight="bold" font-size="50.00">Machine</text>
<text text-anchor="start" x="1267.5" y="-1385.56" font-family="Helvetica,sans-Serif" font-weight="bold" font-size="50.00">Learning</text>
<text text-anchor="start" x="1184.5" y="-1335.56" font-family="Helvetica,sans-Serif" font-weight="bold" font-size="50.00">Fundamentals</text>
<text text-anchor="start" x="1582.5" y="-1335.56" font-family="Helvetica,sans-Serif" font-size="50.00"> </text>
</g>
<!-- core_ml&#45;&gt;ml_found -->
<g id="edge15" class="edge">
<title>core_ml&#45;&gt;ml_found</title>
<path fill="none" stroke="Gray" stroke-width="2.5" d="M836.91,-1085.66C917.1,-1150.48 986.4,-1191.03 1190.66,-1296.57"/>
<polygon fill="Gray" stroke="Gray" stroke-width="2.5" points="1186.15,-1306.06 1217.62,-1310.48 1195.77,-1287.39 1186.15,-1306.06"/>
</g>
<!-- dl_fw -->
<g id="node17" class="node">
<title>dl_fw</title>
<path fill="Gold" stroke="Gray" stroke-width="6.5" d="M1573.5,-1274.56C1573.5,-1274.56 1209.5,-1274.56 1209.5,-1274.56 1203.5,-1274.56 1197.5,-1268.56 1197.5,-1262.56 1197.5,-1262.56 1197.5,-1108.56 1197.5,-1108.56 1197.5,-1102.56 1203.5,-1096.56 1209.5,-1096.56 1209.5,-1096.56 1573.5,-1096.56 1573.5,-1096.56 1579.5,-1096.56 1585.5,-1102.56 1585.5,-1108.56 1585.5,-1108.56 1585.5,-1262.56 1585.5,-1262.56 1585.5,-1268.56 1579.5,-1274.56 1573.5,-1274.56"/>
<text text-anchor="start" x="1311" y="-1221.56" font-family="Helvetica,sans-Serif" font-size="50.00"> </text>
<text text-anchor="start" x="1327" y="-1221.56" font-family="Helvetica,sans-Serif" font-weight="bold" font-size="50.00">Deep</text>
<text text-anchor="start" x="1267.5" y="-1171.56" font-family="Helvetica,sans-Serif" font-weight="bold" font-size="50.00">Learning</text>
<text text-anchor="start" x="1211.5" y="-1121.56" font-family="Helvetica,sans-Serif" font-weight="bold" font-size="50.00">Frameworks</text>
<text text-anchor="start" x="1555.5" y="-1121.56" font-family="Helvetica,sans-Serif" font-size="50.00"> </text>
</g>
<!-- core_ml&#45;&gt;dl_fw -->
<g id="edge16" class="edge">
<title>core_ml&#45;&gt;dl_fw</title>
<path fill="none" stroke="Gray" stroke-width="2.5" d="M924.24,-1027.86C983.31,-1042.05 1050.58,-1063.91 1168.89,-1105.75"/>
<polygon fill="Gray" stroke="Gray" stroke-width="2.5" points="1165.71,-1115.76 1197.49,-1115.9 1172.73,-1095.97 1165.71,-1115.76"/>
</g>
<!-- transformers_llms -->
<g id="node21" class="node">
<title>transformers_llms</title>
<path fill="Gold" stroke="Gray" stroke-width="6.5" d="M1619,-1060.56C1619,-1060.56 1164,-1060.56 1164,-1060.56 1158,-1060.56 1152,-1054.56 1152,-1048.56 1152,-1048.56 1152,-944.56 1152,-944.56 1152,-938.56 1158,-932.56 1164,-932.56 1164,-932.56 1619,-932.56 1619,-932.56 1625,-932.56 1631,-938.56 1631,-944.56 1631,-944.56 1631,-1048.56 1631,-1048.56 1631,-1054.56 1625,-1060.56 1619,-1060.56"/>
<text text-anchor="start" x="1166" y="-1007.56" font-family="Helvetica,sans-Serif" font-size="50.00"> </text>
<text text-anchor="start" x="1182" y="-1007.56" font-family="Helvetica,sans-Serif" font-weight="bold" font-size="50.00">Transformers &amp;</text>
<text text-anchor="start" x="1312" y="-957.56" font-family="Helvetica,sans-Serif" font-weight="bold" font-size="50.00">LLMs</text>
<text text-anchor="start" x="1455" y="-957.56" font-family="Helvetica,sans-Serif" font-size="50.00"> </text>
</g>
<!-- core_ml&#45;&gt;transformers_llms -->
<g id="edge20" class="edge">
<title>core_ml&#45;&gt;transformers_llms</title>
<path fill="none" stroke="Gray" stroke-width="2.5" d="M924,-936.69C978.27,-928.14 1033.78,-930.92 1121.9,-945.04"/>
<polygon fill="Gray" stroke="Gray" stroke-width="2.5" points="1120.37,-955.43 1151.69,-950.02 1123.83,-934.72 1120.37,-955.43"/>
</g>
<!-- computer_vision -->
<g id="node22" class="node">
<title>computer_vision</title>
<path fill="Gold" stroke="Gray" stroke-width="6.5" d="M1642.5,-896.56C1642.5,-896.56 1140.5,-896.56 1140.5,-896.56 1134.5,-896.56 1128.5,-890.56 1128.5,-884.56 1128.5,-884.56 1128.5,-800.56 1128.5,-800.56 1128.5,-794.56 1134.5,-788.56 1140.5,-788.56 1140.5,-788.56 1642.5,-788.56 1642.5,-788.56 1648.5,-788.56 1654.5,-794.56 1654.5,-800.56 1654.5,-800.56 1654.5,-884.56 1654.5,-884.56 1654.5,-890.56 1648.5,-896.56 1642.5,-896.56"/>
<text text-anchor="start" x="1142.5" y="-831.06" font-family="Helvetica,sans-Serif" font-size="50.00"> </text>
<text text-anchor="start" x="1158.5" y="-831.06" font-family="Helvetica,sans-Serif" font-weight="bold" font-size="50.00">Computer Vision</text>
<text text-anchor="start" x="1624.5" y="-831.06" font-family="Helvetica,sans-Serif" font-size="50.00"> </text>
</g>
<!-- core_ml&#45;&gt;computer_vision -->
<g id="edge21" class="edge">
<title>core_ml&#45;&gt;computer_vision</title>
<path fill="none" stroke="Gray" stroke-width="2.5" d="M858.29,-907.3C935.57,-857.51 992.38,-838.88 1098.25,-835.15"/>
<polygon fill="Gray" stroke="Gray" stroke-width="2.5" points="1098.49,-845.65 1128.25,-834.5 1098.03,-824.66 1098.49,-845.65"/>
</g>
<!-- rl -->
<g id="node23" class="node">
<title>rl</title>
<path fill="Gold" stroke="Gray" stroke-width="6.5" d="M1609,-752.56C1609,-752.56 1174,-752.56 1174,-752.56 1168,-752.56 1162,-746.56 1162,-740.56 1162,-740.56 1162,-636.56 1162,-636.56 1162,-630.56 1168,-624.56 1174,-624.56 1174,-624.56 1609,-624.56 1609,-624.56 1615,-624.56 1621,-630.56 1621,-636.56 1621,-636.56 1621,-740.56 1621,-740.56 1621,-746.56 1615,-752.56 1609,-752.56"/>
<text text-anchor="start" x="1176" y="-699.56" font-family="Helvetica,sans-Serif" font-size="50.00"> </text>
<text text-anchor="start" x="1192" y="-699.56" font-family="Helvetica,sans-Serif" font-weight="bold" font-size="50.00">Reinforcement</text>
<text text-anchor="start" x="1259.5" y="-649.56" font-family="Helvetica,sans-Serif" font-weight="bold" font-size="50.00">Learning</text>
<text text-anchor="start" x="1507.5" y="-649.56" font-family="Helvetica,sans-Serif" font-size="50.00"> </text>
</g>
<!-- core_ml&#45;&gt;rl -->
<g id="edge22" class="edge">
<title>core_ml&#45;&gt;rl</title>
<path fill="none" stroke="Gray" stroke-width="2.5" d="M813.15,-907.29C926.42,-784.13 983.63,-744.34 1131.91,-719.11"/>
<polygon fill="Gray" stroke="Gray" stroke-width="2.5" points="1133.75,-729.45 1161.75,-714.4 1130.48,-708.71 1133.75,-729.45"/>
</g>
<!-- testing -->
<g id="node24" class="node">
<title>testing</title>
<path fill="#dddddd" stroke="Gray" stroke-width="6.5" d="M1570.5,-588.56C1570.5,-588.56 1212.5,-588.56 1212.5,-588.56 1206.5,-588.56 1200.5,-582.56 1200.5,-576.56 1200.5,-576.56 1200.5,-492.56 1200.5,-492.56 1200.5,-486.56 1206.5,-480.56 1212.5,-480.56 1212.5,-480.56 1570.5,-480.56 1570.5,-480.56 1576.5,-480.56 1582.5,-486.56 1582.5,-492.56 1582.5,-492.56 1582.5,-576.56 1582.5,-576.56 1582.5,-582.56 1576.5,-588.56 1570.5,-588.56"/>
<text text-anchor="start" x="1281" y="-523.06" font-family="Helvetica,sans-Serif" font-size="50.00"> </text>
<text text-anchor="start" x="1297" y="-523.06" font-family="Helvetica,sans-Serif" font-weight="bold" font-size="50.00">Testing</text>
</g>
<!-- mlops&#45;&gt;testing -->
<g id="edge23" class="edge">
<title>mlops&#45;&gt;testing</title>
<path fill="none" stroke="Gray" stroke-width="2.5" d="M925.09,-362.55C1019.52,-358.97 1091.04,-385.3 1257.12,-467.22"/>
<polygon fill="Gray" stroke="Gray" stroke-width="2.5" points="1252.49,-476.64 1284.03,-480.56 1261.82,-457.83 1252.49,-476.64"/>
</g>
<!-- microservices -->
<g id="node26" class="node">
<title>microservices</title>
<path fill="#dddddd" stroke="Gray" stroke-width="6.5" d="M1595.5,-444.56C1595.5,-444.56 1187.5,-444.56 1187.5,-444.56 1181.5,-444.56 1175.5,-438.56 1175.5,-432.56 1175.5,-432.56 1175.5,-348.56 1175.5,-348.56 1175.5,-342.56 1181.5,-336.56 1187.5,-336.56 1187.5,-336.56 1595.5,-336.56 1595.5,-336.56 1601.5,-336.56 1607.5,-342.56 1607.5,-348.56 1607.5,-348.56 1607.5,-432.56 1607.5,-432.56 1607.5,-438.56 1601.5,-444.56 1595.5,-444.56"/>
<text text-anchor="start" x="1189.5" y="-379.06" font-family="Helvetica,sans-Serif" font-size="50.00"> </text>
<text text-anchor="start" x="1205.5" y="-379.06" font-family="Helvetica,sans-Serif" font-weight="bold" font-size="50.00">Microservices</text>
</g>
<!-- mlops&#45;&gt;microservices -->
<g id="edge25" class="edge">
<title>mlops&#45;&gt;microservices</title>
<path fill="none" stroke="Gray" stroke-width="2.5" d="M887.59,-326.47C990.78,-289.66 1054.22,-290.2 1189.89,-328.11"/>
<polygon fill="Gray" stroke="Gray" stroke-width="2.5" points="1187.26,-338.28 1218.99,-336.48 1193.06,-318.1 1187.26,-338.28"/>
</g>
<!-- cloud_and_devops -->
<g id="node27" class="node">
<title>cloud_and_devops</title>
<path fill="#dddddd" stroke="Gray" stroke-width="6.5" d="M1636.5,-300.56C1636.5,-300.56 1146.5,-300.56 1146.5,-300.56 1140.5,-300.56 1134.5,-294.56 1134.5,-288.56 1134.5,-288.56 1134.5,-204.56 1134.5,-204.56 1134.5,-198.56 1140.5,-192.56 1146.5,-192.56 1146.5,-192.56 1636.5,-192.56 1636.5,-192.56 1642.5,-192.56 1648.5,-198.56 1648.5,-204.56 1648.5,-204.56 1648.5,-288.56 1648.5,-288.56 1648.5,-294.56 1642.5,-300.56 1636.5,-300.56"/>
<text text-anchor="start" x="1148.5" y="-235.06" font-family="Helvetica,sans-Serif" font-size="50.00"> </text>
<text text-anchor="start" x="1164.5" y="-235.06" font-family="Helvetica,sans-Serif" font-weight="bold" font-size="50.00">Cloud &amp; DevOps</text>
<text text-anchor="start" x="1618.5" y="-235.06" font-family="Helvetica,sans-Serif" font-size="50.00"> </text>
</g>
<!-- mlops&#45;&gt;cloud_and_devops -->
<g id="edge26" class="edge">
<title>mlops&#45;&gt;cloud_and_devops</title>
<path fill="none" stroke="Gray" stroke-width="2.5" d="M824.85,-326.37C940.99,-247 1002.2,-217.25 1104.04,-216.25"/>
<polygon fill="Gray" stroke="Gray" stroke-width="2.5" points="1104.15,-226.76 1134.31,-216.73 1104.48,-205.76 1104.15,-226.76"/>
</g>
<!-- security -->
<g id="node31" class="node">
<title>security</title>
<path fill="#dddddd" stroke="Gray" stroke-width="6.5" d="M1570.5,-156.56C1570.5,-156.56 1212.5,-156.56 1212.5,-156.56 1206.5,-156.56 1200.5,-150.56 1200.5,-144.56 1200.5,-144.56 1200.5,-60.56 1200.5,-60.56 1200.5,-54.56 1206.5,-48.56 1212.5,-48.56 1212.5,-48.56 1570.5,-48.56 1570.5,-48.56 1576.5,-48.56 1582.5,-54.56 1582.5,-60.56 1582.5,-60.56 1582.5,-144.56 1582.5,-144.56 1582.5,-150.56 1576.5,-156.56 1570.5,-156.56"/>
<text text-anchor="start" x="1258.5" y="-91.06" font-family="Helvetica,sans-Serif" font-size="50.00"> </text>
<text text-anchor="start" x="1274.5" y="-91.06" font-family="Helvetica,sans-Serif" font-weight="bold" font-size="50.00">Security</text>
<text text-anchor="start" x="1508.5" y="-91.06" font-family="Helvetica,sans-Serif" font-size="50.00"> </text>
</g>
<!-- mlops&#45;&gt;security -->
<g id="edge30" class="edge">
<title>mlops&#45;&gt;security</title>
<path fill="none" stroke="Gray" stroke-width="2.5" d="M797.62,-326.35C956.72,-169.44 1015.07,-126.77 1170.22,-111.95"/>
<polygon fill="Gray" stroke="Gray" stroke-width="2.5" points="1171.32,-122.39 1200.36,-109.48 1169.61,-101.46 1171.32,-122.39"/>
</g>
<!-- python -->
<g id="node7" class="node">
<title>python</title>
<path fill="#dddddd" stroke="Gray" stroke-width="6.5" d="M2271,-2620.56C2271,-2620.56 1913,-2620.56 1913,-2620.56 1907,-2620.56 1901,-2614.56 1901,-2608.56 1901,-2608.56 1901,-2524.56 1901,-2524.56 1901,-2518.56 1907,-2512.56 1913,-2512.56 1913,-2512.56 2271,-2512.56 2271,-2512.56 2277,-2512.56 2283,-2518.56 2283,-2524.56 2283,-2524.56 2283,-2608.56 2283,-2608.56 2283,-2614.56 2277,-2620.56 2271,-2620.56"/>
<text text-anchor="start" x="1976.5" y="-2555.06" font-family="Helvetica,sans-Serif" font-size="50.00"> </text>
<text text-anchor="start" x="1992.5" y="-2555.06" font-family="Helvetica,sans-Serif" font-weight="bold" font-size="50.00">Python</text>
<text text-anchor="start" x="2191.5" y="-2555.06" font-family="Helvetica,sans-Serif" font-size="50.00"> </text>
</g>
<!-- planguages&#45;&gt;python -->
<g id="edge5" class="edge">
<title>planguages&#45;&gt;python</title>
<path fill="none" stroke="Gray" stroke-width="2.5" d="M1490.96,-2414.8C1682.08,-2537.36 1758.71,-2577.72 1870.69,-2582.1"/>
<polygon fill="Gray" stroke="Gray" stroke-width="2.5" points="1870.71,-2592.6 1900.83,-2582.45 1870.96,-2571.6 1870.71,-2592.6"/>
</g>
<!-- mojo -->
<g id="node8" class="node">
<title>mojo</title>
<path fill="#dddddd" stroke="Gray" stroke-width="6.5" d="M2271,-2476.56C2271,-2476.56 1913,-2476.56 1913,-2476.56 1907,-2476.56 1901,-2470.56 1901,-2464.56 1901,-2464.56 1901,-2380.56 1901,-2380.56 1901,-2374.56 1907,-2368.56 1913,-2368.56 1913,-2368.56 2271,-2368.56 2271,-2368.56 2277,-2368.56 2283,-2374.56 2283,-2380.56 2283,-2380.56 2283,-2464.56 2283,-2464.56 2283,-2470.56 2277,-2476.56 2271,-2476.56"/>
<text text-anchor="start" x="2008" y="-2411.06" font-family="Helvetica,sans-Serif" font-size="50.00"> </text>
<text text-anchor="start" x="2024" y="-2411.06" font-family="Helvetica,sans-Serif" font-weight="bold" font-size="50.00">Mojo</text>
<text text-anchor="start" x="2160" y="-2411.06" font-family="Helvetica,sans-Serif" font-size="50.00"> </text>
</g>
<!-- planguages&#45;&gt;mojo -->
<g id="edge6" class="edge">
<title>planguages&#45;&gt;mojo</title>
<path fill="none" stroke="Gray" stroke-width="2.5" d="M1537.11,-2414.58C1700.16,-2484.26 1772.72,-2502.73 1879.71,-2482.85"/>
<polygon fill="Gray" stroke="Gray" stroke-width="2.5" points="1882.12,-2493.07 1909.31,-2476.61 1877.79,-2472.53 1882.12,-2493.07"/>
</g>
<!-- rust -->
<g id="node9" class="node">
<title>rust</title>
<path fill="#dddddd" stroke="Gray" stroke-width="6.5" d="M2271,-2332.56C2271,-2332.56 1913,-2332.56 1913,-2332.56 1907,-2332.56 1901,-2326.56 1901,-2320.56 1901,-2320.56 1901,-2236.56 1901,-2236.56 1901,-2230.56 1907,-2224.56 1913,-2224.56 1913,-2224.56 2271,-2224.56 2271,-2224.56 2277,-2224.56 2283,-2230.56 2283,-2236.56 2283,-2236.56 2283,-2320.56 2283,-2320.56 2283,-2326.56 2277,-2332.56 2271,-2332.56"/>
<text text-anchor="start" x="2012" y="-2267.06" font-family="Helvetica,sans-Serif" font-size="50.00"> </text>
<text text-anchor="start" x="2028" y="-2267.06" font-family="Helvetica,sans-Serif" font-weight="bold" font-size="50.00">Rust</text>
<text text-anchor="start" x="2156" y="-2267.06" font-family="Helvetica,sans-Serif" font-size="50.00"> </text>
</g>
<!-- planguages&#45;&gt;rust -->
<g id="edge7" class="edge">
<title>planguages&#45;&gt;rust</title>
<path fill="none" stroke="Gray" stroke-width="2.5" d="M1605.02,-2402.09C1757.95,-2433.11 1823.74,-2420.28 1965.84,-2346.8"/>
<polygon fill="Gray" stroke="Gray" stroke-width="2.5" points="1971.12,-2355.89 1992.8,-2332.64 1961.36,-2337.3 1971.12,-2355.89"/>
</g>
<!-- sql -->
<g id="node10" class="node">
<title>sql</title>
<path fill="#dddddd" stroke="Gray" stroke-width="6.5" d="M2271,-2188.56C2271,-2188.56 1913,-2188.56 1913,-2188.56 1907,-2188.56 1901,-2182.56 1901,-2176.56 1901,-2176.56 1901,-2092.56 1901,-2092.56 1901,-2086.56 1907,-2080.56 1913,-2080.56 1913,-2080.56 2271,-2080.56 2271,-2080.56 2277,-2080.56 2283,-2086.56 2283,-2092.56 2283,-2092.56 2283,-2176.56 2283,-2176.56 2283,-2182.56 2277,-2188.56 2271,-2188.56"/>
<text text-anchor="start" x="2020.5" y="-2123.06" font-family="Helvetica,sans-Serif" font-size="50.00"> </text>
<text text-anchor="start" x="2036.5" y="-2123.06" font-family="Helvetica,sans-Serif" font-weight="bold" font-size="50.00">SQL</text>
<text text-anchor="start" x="2147.5" y="-2123.06" font-family="Helvetica,sans-Serif" font-size="50.00"> </text>
</g>
<!-- da_db&#45;&gt;sql -->
<g id="edge9" class="edge">
<title>da_db&#45;&gt;sql</title>
<path fill="none" stroke="Gray" stroke-width="2.5" d="M1491.39,-1949.67C1687.73,-2075.03 1769.15,-2120.47 1870.59,-2133.94"/>
<polygon fill="Gray" stroke="Gray" stroke-width="2.5" points="1869.69,-2144.4 1900.6,-2136.99 1871.81,-2123.51 1869.69,-2144.4"/>
</g>
<!-- python_da -->
<g id="node11" class="node">
<title>python_da</title>
<path fill="MediumSpringGreen" stroke="Gray" stroke-width="6.5" d="M2294.5,-2044.56C2294.5,-2044.56 1889.5,-2044.56 1889.5,-2044.56 1883.5,-2044.56 1877.5,-2038.56 1877.5,-2032.56 1877.5,-2032.56 1877.5,-1928.56 1877.5,-1928.56 1877.5,-1922.56 1883.5,-1916.56 1889.5,-1916.56 1889.5,-1916.56 2294.5,-1916.56 2294.5,-1916.56 2300.5,-1916.56 2306.5,-1922.56 2306.5,-1928.56 2306.5,-1928.56 2306.5,-2032.56 2306.5,-2032.56 2306.5,-2038.56 2300.5,-2044.56 2294.5,-2044.56"/>
<text text-anchor="start" x="1935" y="-1991.56" font-family="Helvetica,sans-Serif" font-size="50.00"> </text>
<text text-anchor="start" x="1951" y="-1991.56" font-family="Helvetica,sans-Serif" font-weight="bold" font-size="50.00">Python for</text>
<text text-anchor="start" x="1891.5" y="-1941.56" font-family="Helvetica,sans-Serif" font-weight="bold" font-size="50.00">Data Analysis</text>
<text text-anchor="start" x="2276.5" y="-1941.56" font-family="Helvetica,sans-Serif" font-size="50.00"> </text>
</g>
<!-- da_db&#45;&gt;python_da -->
<g id="edge10" class="edge">
<title>da_db&#45;&gt;python_da</title>
<path fill="none" stroke="Gray" stroke-width="2.5" d="M1542.5,-1949.71C1689.53,-2010.78 1765.75,-2034.91 1847.25,-2032.41"/>
<polygon fill="Gray" stroke="Gray" stroke-width="2.5" points="1848.14,-2042.87 1877.35,-2030.34 1846.7,-2021.92 1848.14,-2042.87"/>
</g>
<!-- data_eng_found -->
<g id="node12" class="node">
<title>data_eng_found</title>
<path fill="#dddddd" stroke="Gray" stroke-width="6.5" d="M2301,-1880.56C2301,-1880.56 1883,-1880.56 1883,-1880.56 1877,-1880.56 1871,-1874.56 1871,-1868.56 1871,-1868.56 1871,-1714.56 1871,-1714.56 1871,-1708.56 1877,-1702.56 1883,-1702.56 1883,-1702.56 2301,-1702.56 2301,-1702.56 2307,-1702.56 2313,-1708.56 2313,-1714.56 2313,-1714.56 2313,-1868.56 2313,-1868.56 2313,-1874.56 2307,-1880.56 2301,-1880.56"/>
<text text-anchor="start" x="2017.5" y="-1827.56" font-family="Helvetica,sans-Serif" font-size="50.00"> </text>
<text text-anchor="start" x="2033.5" y="-1827.56" font-family="Helvetica,sans-Serif" font-weight="bold" font-size="50.00">Data</text>
<text text-anchor="start" x="1922" y="-1777.56" font-family="Helvetica,sans-Serif" font-weight="bold" font-size="50.00">Engineering</text>
<text text-anchor="start" x="1885" y="-1727.56" font-family="Helvetica,sans-Serif" font-weight="bold" font-size="50.00">Fundamentals</text>
<text text-anchor="start" x="2283" y="-1727.56" font-family="Helvetica,sans-Serif" font-size="50.00"> </text>
</g>
<!-- da_db&#45;&gt;data_eng_found -->
<g id="edge11" class="edge">
<title>da_db&#45;&gt;data_eng_found</title>
<path fill="none" stroke="Gray" stroke-width="2.5" d="M1636.59,-1927.23C1759.09,-1943.12 1824.63,-1935.6 1912.17,-1894.08"/>
<polygon fill="Gray" stroke="Gray" stroke-width="2.5" points="1916.99,-1903.41 1939.14,-1880.61 1907.61,-1884.62 1916.99,-1903.41"/>
</g>
<!-- stats -->
<g id="node14" class="node">
<title>stats</title>
<path fill="#dddddd" stroke="Gray" stroke-width="6.5" d="M2271,-1666.56C2271,-1666.56 1913,-1666.56 1913,-1666.56 1907,-1666.56 1901,-1660.56 1901,-1654.56 1901,-1654.56 1901,-1570.56 1901,-1570.56 1901,-1564.56 1907,-1558.56 1913,-1558.56 1913,-1558.56 2271,-1558.56 2271,-1558.56 2277,-1558.56 2283,-1564.56 2283,-1570.56 2283,-1570.56 2283,-1654.56 2283,-1654.56 2283,-1660.56 2277,-1666.56 2271,-1666.56"/>
<text text-anchor="start" x="1942.5" y="-1601.06" font-family="Helvetica,sans-Serif" font-size="50.00"> </text>
<text text-anchor="start" x="1958.5" y="-1601.06" font-family="Helvetica,sans-Serif" font-weight="bold" font-size="50.00">Statistics</text>
<text text-anchor="start" x="2225.5" y="-1601.06" font-family="Helvetica,sans-Serif" font-size="50.00"> </text>
</g>
<!-- cs_math&#45;&gt;stats -->
<g id="edge13" class="edge">
<title>cs_math&#45;&gt;stats</title>
<path fill="none" stroke="Gray" stroke-width="2.5" d="M1699.23,-1674.38C1792.55,-1688.96 1850.25,-1688.96 1913.18,-1674.36"/>
<polygon fill="Gray" stroke="Gray" stroke-width="2.5" points="1916.26,-1684.41 1942.6,-1666.63 1910.92,-1664.1 1916.26,-1684.41"/>
</g>
<!-- design_modelling -->
<g id="node15" class="node">
<title>design_modelling</title>
<path fill="#dddddd" stroke="Gray" stroke-width="6.5" d="M2271,-1522.56C2271,-1522.56 1913,-1522.56 1913,-1522.56 1907,-1522.56 1901,-1516.56 1901,-1510.56 1901,-1510.56 1901,-1406.56 1901,-1406.56 1901,-1400.56 1907,-1394.56 1913,-1394.56 1913,-1394.56 2271,-1394.56 2271,-1394.56 2277,-1394.56 2283,-1400.56 2283,-1406.56 2283,-1406.56 2283,-1510.56 2283,-1510.56 2283,-1516.56 2277,-1522.56 2271,-1522.56"/>
<text text-anchor="start" x="1948" y="-1469.56" font-family="Helvetica,sans-Serif" font-size="50.00"> </text>
<text text-anchor="start" x="1964" y="-1469.56" font-family="Helvetica,sans-Serif" font-weight="bold" font-size="50.00">Design &#160;&amp;</text>
<text text-anchor="start" x="1945.5" y="-1419.56" font-family="Helvetica,sans-Serif" font-weight="bold" font-size="50.00">Modelling</text>
<text text-anchor="start" x="2222.5" y="-1419.56" font-family="Helvetica,sans-Serif" font-size="50.00"> </text>
</g>
<!-- cs_math&#45;&gt;design_modelling -->
<g id="edge14" class="edge">
<title>cs_math&#45;&gt;design_modelling</title>
<path fill="none" stroke="Gray" stroke-width="2.5" d="M1699.34,-1615.48C1825.81,-1610.95 1886.99,-1591.99 1972.98,-1538.81"/>
<polygon fill="Gray" stroke="Gray" stroke-width="2.5" points="1978.64,-1547.65 1998.29,-1522.67 1967.35,-1529.94 1978.64,-1547.65"/>
</g>
<!-- cuda -->
<g id="node18" class="node">
<title>cuda</title>
<path fill="Thistle" stroke="Gray" stroke-width="6.5" d="M2271,-1358.56C2271,-1358.56 1913,-1358.56 1913,-1358.56 1907,-1358.56 1901,-1352.56 1901,-1346.56 1901,-1346.56 1901,-1262.56 1901,-1262.56 1901,-1256.56 1907,-1250.56 1913,-1250.56 1913,-1250.56 2271,-1250.56 2271,-1250.56 2277,-1250.56 2283,-1256.56 2283,-1262.56 2283,-1262.56 2283,-1346.56 2283,-1346.56 2283,-1352.56 2277,-1358.56 2271,-1358.56"/>
<text text-anchor="start" x="1997" y="-1293.06" font-family="Helvetica,sans-Serif" font-size="50.00"> </text>
<text text-anchor="start" x="2013" y="-1293.06" font-family="Helvetica,sans-Serif" font-weight="bold" font-size="50.00">CUDA</text>
<text text-anchor="start" x="2171" y="-1293.06" font-family="Helvetica,sans-Serif" font-size="50.00"> </text>
</g>
<!-- dl_fw&#45;&gt;cuda -->
<g id="edge17" class="edge">
<title>dl_fw&#45;&gt;cuda</title>
<path fill="none" stroke="Gray" stroke-width="2.5" d="M1585.72,-1197.09C1771.33,-1208.82 1852.6,-1217.83 1930.06,-1241.2"/>
<polygon fill="Gray" stroke="Gray" stroke-width="2.5" points="1926.84,-1251.19 1958.62,-1250.49 1933.34,-1231.22 1926.84,-1251.19"/>
</g>
<!-- pytorch -->
<g id="node19" class="node">
<title>pytorch</title>
<path fill="Thistle" stroke="Gray" stroke-width="6.5" d="M2271,-1214.56C2271,-1214.56 1913,-1214.56 1913,-1214.56 1907,-1214.56 1901,-1208.56 1901,-1202.56 1901,-1202.56 1901,-1118.56 1901,-1118.56 1901,-1112.56 1907,-1106.56 1913,-1106.56 1913,-1106.56 2271,-1106.56 2271,-1106.56 2277,-1106.56 2283,-1112.56 2283,-1118.56 2283,-1118.56 2283,-1202.56 2283,-1202.56 2283,-1208.56 2277,-1214.56 2271,-1214.56"/>
<text text-anchor="start" x="1964.5" y="-1149.06" font-family="Helvetica,sans-Serif" font-size="50.00"> </text>
<text text-anchor="start" x="1980.5" y="-1149.06" font-family="Helvetica,sans-Serif" font-weight="bold" font-size="50.00">PyTorch</text>
<text text-anchor="start" x="2203.5" y="-1149.06" font-family="Helvetica,sans-Serif" font-size="50.00"> </text>
</g>
<!-- dl_fw&#45;&gt;pytorch -->
<g id="edge18" class="edge">
<title>dl_fw&#45;&gt;pytorch</title>
<path fill="none" stroke="Gray" stroke-width="2.5" d="M1585.58,-1156.39C1725.76,-1135.92 1804.88,-1126.9 1870.75,-1127.61"/>
<polygon fill="Gray" stroke="Gray" stroke-width="2.5" points="1870.4,-1138.1 1900.75,-1128.65 1871.13,-1117.12 1870.4,-1138.1"/>
</g>
<!-- tensorflow -->
<g id="node20" class="node">
<title>tensorflow</title>
<path fill="Thistle" stroke="Gray" stroke-width="6.5" d="M2271,-1070.56C2271,-1070.56 1913,-1070.56 1913,-1070.56 1907,-1070.56 1901,-1064.56 1901,-1058.56 1901,-1058.56 1901,-974.56 1901,-974.56 1901,-968.56 1907,-962.56 1913,-962.56 1913,-962.56 2271,-962.56 2271,-962.56 2277,-962.56 2283,-968.56 2283,-974.56 2283,-974.56 2283,-1058.56 2283,-1058.56 2283,-1064.56 2277,-1070.56 2271,-1070.56"/>
<text text-anchor="start" x="1924.5" y="-1005.06" font-family="Helvetica,sans-Serif" font-size="50.00"> </text>
<text text-anchor="start" x="1940.5" y="-1005.06" font-family="Helvetica,sans-Serif" font-weight="bold" font-size="50.00">TensorFlow</text>
</g>
<!-- dl_fw&#45;&gt;tensorflow -->
<g id="edge19" class="edge">
<title>dl_fw&#45;&gt;tensorflow</title>
<path fill="none" stroke="Gray" stroke-width="2.5" d="M1585.8,-1115.69C1725.75,-1066.03 1803.52,-1041.28 1870.93,-1028.92"/>
<polygon fill="Gray" stroke="Gray" stroke-width="2.5" points="1872.88,-1039.25 1900.85,-1024.15 1869.57,-1018.51 1872.88,-1039.25"/>
</g>
<!-- pytest -->
<g id="node25" class="node">
<title>pytest</title>
<path fill="#dddddd" stroke="Gray" stroke-width="6.5" d="M2271,-588.56C2271,-588.56 1913,-588.56 1913,-588.56 1907,-588.56 1901,-582.56 1901,-576.56 1901,-576.56 1901,-492.56 1901,-492.56 1901,-486.56 1907,-480.56 1913,-480.56 1913,-480.56 2271,-480.56 2271,-480.56 2277,-480.56 2283,-486.56 2283,-492.56 2283,-492.56 2283,-576.56 2283,-576.56 2283,-582.56 2277,-588.56 2271,-588.56"/>
<text text-anchor="start" x="1991" y="-523.06" font-family="Helvetica,sans-Serif" font-size="50.00"> </text>
<text text-anchor="start" x="2007" y="-523.06" font-family="Helvetica,sans-Serif" font-weight="bold" font-size="50.00">PyTest</text>
</g>
<!-- testing&#45;&gt;pytest -->
<g id="edge24" class="edge">
<title>testing&#45;&gt;pytest</title>
<path fill="none" stroke="Gray" stroke-width="2.5" d="M1557.91,-480.5C1738.13,-424.75 1806.23,-421.11 1936.55,-469.6"/>
<polygon fill="Gray" stroke="Gray" stroke-width="2.5" points="1933.13,-479.54 1964.9,-480.55 1940.69,-459.95 1933.13,-479.54"/>
</g>
<!-- cloud_platforms -->
<g id="node28" class="node">
<title>cloud_platforms</title>
<path fill="SandyBrown" stroke="Gray" stroke-width="6.5" d="M2336,-300.56C2336,-300.56 1848,-300.56 1848,-300.56 1842,-300.56 1836,-294.56 1836,-288.56 1836,-288.56 1836,-204.56 1836,-204.56 1836,-198.56 1842,-192.56 1848,-192.56 1848,-192.56 2336,-192.56 2336,-192.56 2342,-192.56 2348,-198.56 2348,-204.56 2348,-204.56 2348,-288.56 2348,-288.56 2348,-294.56 2342,-300.56 2336,-300.56"/>
<text text-anchor="start" x="1850" y="-235.06" font-family="Helvetica,sans-Serif" font-size="50.00"> </text>
<text text-anchor="start" x="1866" y="-235.06" font-family="Helvetica,sans-Serif" font-weight="bold" font-size="50.00">Cloud Platforms</text>
<text text-anchor="start" x="2318" y="-235.06" font-family="Helvetica,sans-Serif" font-size="50.00"> </text>
</g>
<!-- cloud_and_devops&#45;&gt;cloud_platforms -->
<g id="edge27" class="edge">
<title>cloud_and_devops&#45;&gt;cloud_platforms</title>
<path fill="none" stroke="Gray" stroke-width="2.5" d="M1548.61,-192.48C1729.26,-133.11 1796.55,-129.45 1935.39,-181.51"/>
<polygon fill="Gray" stroke="Gray" stroke-width="2.5" points="1931.9,-191.42 1963.67,-192.46 1939.49,-171.84 1931.9,-191.42"/>
</g>
<!-- gcp -->
<g id="node29" class="node">
<title>gcp</title>
<path fill="#dddddd" stroke="Gray" stroke-width="6.5" d="M2892,-392.56C2892,-392.56 2497,-392.56 2497,-392.56 2491,-392.56 2485,-386.56 2485,-380.56 2485,-380.56 2485,-276.56 2485,-276.56 2485,-270.56 2491,-264.56 2497,-264.56 2497,-264.56 2892,-264.56 2892,-264.56 2898,-264.56 2904,-270.56 2904,-276.56 2904,-276.56 2904,-380.56 2904,-380.56 2904,-386.56 2898,-392.56 2892,-392.56"/>
<text text-anchor="start" x="2499" y="-339.56" font-family="Helvetica,sans-Serif" font-size="50.00"> </text>
<text text-anchor="start" x="2515" y="-339.56" font-family="Helvetica,sans-Serif" font-weight="bold" font-size="50.00">Google Cloud</text>
<text text-anchor="start" x="2564" y="-289.56" font-family="Helvetica,sans-Serif" font-weight="bold" font-size="50.00">Platform</text>
<text text-anchor="start" x="2809" y="-289.56" font-family="Helvetica,sans-Serif" font-size="50.00"> </text>
</g>
<!-- cloud_platforms&#45;&gt;gcp -->
<g id="edge28" class="edge">
<title>cloud_platforms&#45;&gt;gcp</title>
<path fill="none" stroke="Gray" stroke-width="2.5" d="M2348.29,-218.33C2439.94,-212.89 2492.17,-221.49 2555.99,-251.08"/>
<polygon fill="Gray" stroke="Gray" stroke-width="2.5" points="2551.62,-260.63 2583.16,-264.52 2560.93,-241.81 2551.62,-260.63"/>
</g>
<!-- aws -->
<g id="node30" class="node">
<title>aws</title>
<path fill="#dddddd" stroke="Gray" stroke-width="6.5" d="M2886.5,-228.56C2886.5,-228.56 2502.5,-228.56 2502.5,-228.56 2496.5,-228.56 2490.5,-222.56 2490.5,-216.56 2490.5,-216.56 2490.5,-112.56 2490.5,-112.56 2490.5,-106.56 2496.5,-100.56 2502.5,-100.56 2502.5,-100.56 2886.5,-100.56 2886.5,-100.56 2892.5,-100.56 2898.5,-106.56 2898.5,-112.56 2898.5,-112.56 2898.5,-216.56 2898.5,-216.56 2898.5,-222.56 2892.5,-228.56 2886.5,-228.56"/>
<text text-anchor="start" x="2504.5" y="-175.56" font-family="Helvetica,sans-Serif" font-size="50.00"> </text>
<text text-anchor="start" x="2520.5" y="-175.56" font-family="Helvetica,sans-Serif" font-weight="bold" font-size="50.00">Amazon Web</text>
<text text-anchor="start" x="2567.5" y="-125.56" font-family="Helvetica,sans-Serif" font-weight="bold" font-size="50.00">Services</text>
<text text-anchor="start" x="2805.5" y="-125.56" font-family="Helvetica,sans-Serif" font-size="50.00"> </text>
</g>
<!-- cloud_platforms&#45;&gt;aws -->
<g id="edge29" class="edge">
<title>cloud_platforms&#45;&gt;aws</title>
<path fill="none" stroke="Gray" stroke-width="2.5" d="M2247.46,-192.47C2345.65,-159.15 2407.41,-141.29 2460.42,-135.13"/>
<polygon fill="Gray" stroke="Gray" stroke-width="2.5" points="2461.3,-145.59 2490.41,-132.83 2459.7,-124.65 2461.3,-145.59"/>
</g>
<!-- openssl -->
<g id="node32" class="node">
<title>openssl</title>
<path fill="#dddddd" stroke="Gray" stroke-width="6.5" d="M2271,-156.56C2271,-156.56 1913,-156.56 1913,-156.56 1907,-156.56 1901,-150.56 1901,-144.56 1901,-144.56 1901,-60.56 1901,-60.56 1901,-54.56 1907,-48.56 1913,-48.56 1913,-48.56 2271,-48.56 2271,-48.56 2277,-48.56 2283,-54.56 2283,-60.56 2283,-60.56 2283,-144.56 2283,-144.56 2283,-150.56 2277,-156.56 2271,-156.56"/>
<text text-anchor="start" x="1951" y="-91.06" font-family="Helvetica,sans-Serif" font-size="50.00"> </text>
<text text-anchor="start" x="1967" y="-91.06" font-family="Helvetica,sans-Serif" font-weight="bold" font-size="50.00">OpenSSL</text>
<text text-anchor="start" x="2217" y="-91.06" font-family="Helvetica,sans-Serif" font-size="50.00"> </text>
</g>
<!-- security&#45;&gt;openssl -->
<g id="edge31" class="edge">
<title>security&#45;&gt;openssl</title>
<path fill="none" stroke="Gray" stroke-width="2.5" d="M1545.79,-48.49C1726.14,11.88 1793.17,15.55 1934.7,-37.49"/>
<polygon fill="Gray" stroke="Gray" stroke-width="2.5" points="1931.28,-47.42 1963.04,-48.45 1938.85,-27.84 1931.28,-47.42"/>
</g>
</g>
</svg>
