<?xml version="1.0" encoding="UTF-8" standalone="no"?>
<!DOCTYPE svg PUBLIC "-//W3C//DTD SVG 1.1//EN"
 "http://www.w3.org/Graphics/SVG/1.1/DTD/svg11.dtd">
<!-- Generated by graphviz version 13.0.0 (20250608.1624)
 -->
<!-- Pages: 1 -->
<svg width="756pt" height="1048pt"
 viewBox="0.00 0.00 756.00 1048.00" xmlns="http://www.w3.org/2000/svg" xmlns:xlink="http://www.w3.org/1999/xlink">
<g id="graph0" class="graph" transform="scale(1 1) rotate(0) translate(4 1044)">
<g id="clust1" class="cluster">
<title>cluster_infra</title>
<path fill="#e6f3ff" stroke="black" d="M380.88,-517C380.88,-517 727.75,-517 727.75,-517 733.75,-517 739.75,-523 739.75,-529 739.75,-529 739.75,-769 739.75,-769 739.75,-775 733.75,-781 727.75,-781 727.75,-781 380.88,-781 380.88,-781 374.88,-781 368.88,-775 368.88,-769 368.88,-769 368.88,-529 368.88,-529 368.88,-523 374.88,-517 380.88,-517"/>
<text xml:space="preserve" text-anchor="start" x="462.81" y="-764.7" font-family="Times,serif" font-weight="bold" font-size="14.00">Infrastructure and Middleware</text>
</g>
<g id="clust2" class="cluster">
<title>cluster_standard</title>
<path fill="#d8d8e8" stroke="black" d="M383.75,-392C383.75,-392 519,-392 519,-392 525,-392 531,-398 531,-404 531,-404 531,-497 531,-497 531,-503 525,-509 519,-509 519,-509 383.75,-509 383.75,-509 377.75,-509 371.75,-503 371.75,-497 371.75,-497 371.75,-404 371.75,-404 371.75,-398 377.75,-392 383.75,-392"/>
<text xml:space="preserve" text-anchor="start" x="379.75" y="-492.7" font-family="Times,serif" font-weight="bold" font-size="14.00">Standard gRPC Services</text>
</g>
<g id="clust3" class="cluster">
<title>cluster_service</title>
<path fill="#c8c7cf" stroke="black" d="M188.25,-940C188.25,-940 342.25,-940 342.25,-940 348.25,-940 354.25,-946 354.25,-952 354.25,-952 354.25,-1002 354.25,-1002 354.25,-1008 348.25,-1014 342.25,-1014 342.25,-1014 188.25,-1014 188.25,-1014 182.25,-1014 176.25,-1008 176.25,-1002 176.25,-1002 176.25,-952 176.25,-952 176.25,-946 182.25,-940 188.25,-940"/>
<text xml:space="preserve" text-anchor="start" x="184.25" y="-997.7" font-family="Times,serif" font-weight="bold" font-size="14.00">Business Logic and Services</text>
</g>
<g id="clust6" class="cluster">
<title>cluster_legend</title>
<path fill="LightGrey" stroke="black" stroke-dasharray="5,2" d="M20,-787C20,-787 84.25,-787 84.25,-787 90.25,-787 96.25,-793 96.25,-799 96.25,-799 96.25,-892 96.25,-892 96.25,-898 90.25,-904 84.25,-904 84.25,-904 20,-904 20,-904 14,-904 8,-898 8,-892 8,-892 8,-799 8,-799 8,-793 14,-787 20,-787"/>
<text xml:space="preserve" text-anchor="start" x="30.75" y="-887.7" font-family="Times,serif" font-weight="bold" font-size="14.00">Legend</text>
</g>
<!-- gRPC Expert (Swift) -->
<g id="node1" class="node">
<title>gRPC Expert (Swift)</title>
<path fill="SandyBrown" stroke="Grey" stroke-width="2" d="M87.5,-669C87.5,-669 16.75,-669 16.75,-669 10.75,-669 4.75,-663 4.75,-657 4.75,-657 4.75,-643 4.75,-643 4.75,-637 10.75,-631 16.75,-631 16.75,-631 87.5,-631 87.5,-631 93.5,-631 99.5,-637 99.5,-643 99.5,-643 99.5,-657 99.5,-657 99.5,-663 93.5,-669 87.5,-669"/>
<text xml:space="preserve" text-anchor="middle" x="52.12" y="-651.7" font-family="Helvetica,sans-Serif" font-size="14.00">gRPC Expert</text>
<text xml:space="preserve" text-anchor="middle" x="52.12" y="-636.7" font-family="Helvetica,sans-Serif" font-size="14.00">(Swift)</text>
</g>
<!-- BusinessService -->
<g id="node10" class="node">
<title>BusinessService</title>
<path fill="#90ee90" stroke="Grey" stroke-width="2" d="M322.62,-984C322.62,-984 206.88,-984 206.88,-984 200.88,-984 194.88,-978 194.88,-972 194.88,-972 194.88,-960 194.88,-960 194.88,-954 200.88,-948 206.88,-948 206.88,-948 322.62,-948 322.62,-948 328.62,-948 334.62,-954 334.62,-960 334.62,-960 334.62,-972 334.62,-972 334.62,-978 328.62,-984 322.62,-984"/>
<text xml:space="preserve" text-anchor="middle" x="264.75" y="-960.2" font-family="Helvetica,sans-Serif" font-size="14.00">AudioStreamService</text>
</g>
<!-- gRPC Expert (Swift)&#45;&gt;BusinessService -->
<g id="edge7" class="edge">
<title>gRPC Expert (Swift)&#45;&gt;BusinessService</title>
<path fill="none" stroke="Green" stroke-width="2.5" stroke-dasharray="5,2" d="M60.58,-669.85C83.88,-731.48 155,-916.58 176.25,-936 178.25,-937.83 180.37,-939.55 182.58,-941.16"/>
<polygon fill="Green" stroke="Green" stroke-width="2.5" points="180.71,-944.12 191.06,-946.4 184.39,-938.17 180.71,-944.12"/>
<text xml:space="preserve" text-anchor="middle" x="137.88" y="-924.02" font-family="Helvetica,sans-Serif" font-size="14.00" fill="Green">built using</text>
</g>
<!-- Protocol Fundamentals -->
<g id="node11" class="node">
<title>Protocol Fundamentals</title>
<path fill="#90ee90" stroke="Grey" stroke-width="2" d="M330.5,-932C330.5,-932 199,-932 199,-932 193,-932 187,-926 187,-920 187,-920 187,-908 187,-908 187,-902 193,-896 199,-896 199,-896 330.5,-896 330.5,-896 336.5,-896 342.5,-902 342.5,-908 342.5,-908 342.5,-920 342.5,-920 342.5,-926 336.5,-932 330.5,-932"/>
<text xml:space="preserve" text-anchor="middle" x="264.75" y="-908.2" font-family="Helvetica,sans-Serif" font-size="14.00">Protocol Fundamentals</text>
</g>
<!-- gRPC Expert (Swift)&#45;&gt;Protocol Fundamentals -->
<g id="edge1" class="edge">
<title>gRPC Expert (Swift)&#45;&gt;Protocol Fundamentals</title>
<path fill="none" stroke="Green" stroke-width="2" d="M65.05,-669.98C85.78,-704.06 130.62,-774.96 176.25,-829 193.66,-849.62 215.41,-870.77 232.87,-886.81"/>
<polygon fill="Green" stroke="Green" stroke-width="2" points="230.08,-889 239.84,-893.13 234.78,-883.82 230.08,-889"/>
</g>
<!-- Swift Implementation -->
<g id="node12" class="node">
<title>Swift Implementation</title>
<path fill="#90ee90" stroke="Grey" stroke-width="2" d="M324.12,-825C324.12,-825 205.38,-825 205.38,-825 199.38,-825 193.38,-819 193.38,-813 193.38,-813 193.38,-801 193.38,-801 193.38,-795 199.38,-789 205.38,-789 205.38,-789 324.12,-789 324.12,-789 330.12,-789 336.12,-795 336.12,-801 336.12,-801 336.12,-813 336.12,-813 336.12,-819 330.12,-825 324.12,-825"/>
<text xml:space="preserve" text-anchor="middle" x="264.75" y="-801.2" font-family="Helvetica,sans-Serif" font-size="14.00">Swift Implementation</text>
</g>
<!-- gRPC Expert (Swift)&#45;&gt;Swift Implementation -->
<g id="edge2" class="edge">
<title>gRPC Expert (Swift)&#45;&gt;Swift Implementation</title>
<path fill="none" stroke="Green" stroke-width="2" d="M79.8,-669.88C117.38,-697.89 185.98,-749.03 227.96,-780.32"/>
<polygon fill="Green" stroke="Green" stroke-width="2" points="225.74,-783.03 235.85,-786.2 229.92,-777.42 225.74,-783.03"/>
</g>
<!-- Security &amp; Auth -->
<g id="node13" class="node">
<title>Security &amp; Auth</title>
<path fill="#90ee90" stroke="Grey" stroke-width="2" d="M307.25,-668C307.25,-668 222.25,-668 222.25,-668 216.25,-668 210.25,-662 210.25,-656 210.25,-656 210.25,-644 210.25,-644 210.25,-638 216.25,-632 222.25,-632 222.25,-632 307.25,-632 307.25,-632 313.25,-632 319.25,-638 319.25,-644 319.25,-644 319.25,-656 319.25,-656 319.25,-662 313.25,-668 307.25,-668"/>
<text xml:space="preserve" text-anchor="middle" x="264.75" y="-644.2" font-family="Helvetica,sans-Serif" font-size="14.00">Security &amp; Auth</text>
</g>
<!-- gRPC Expert (Swift)&#45;&gt;Security &amp; Auth -->
<g id="edge3" class="edge">
<title>gRPC Expert (Swift)&#45;&gt;Security &amp; Auth</title>
<path fill="none" stroke="Green" stroke-width="2" d="M100.39,-650C128.86,-650 165.54,-650 196.94,-650"/>
<polygon fill="Green" stroke="Green" stroke-width="2" points="196.55,-653.5 206.55,-650 196.55,-646.5 196.55,-653.5"/>
</g>
<!-- Observability -->
<g id="node14" class="node">
<title>Observability</title>
<path fill="#90ee90" stroke="Grey" stroke-width="2" d="M300.12,-503C300.12,-503 229.38,-503 229.38,-503 223.38,-503 217.38,-497 217.38,-491 217.38,-491 217.38,-479 217.38,-479 217.38,-473 223.38,-467 229.38,-467 229.38,-467 300.12,-467 300.12,-467 306.12,-467 312.12,-473 312.12,-479 312.12,-479 312.12,-491 312.12,-491 312.12,-497 306.12,-503 300.12,-503"/>
<text xml:space="preserve" text-anchor="middle" x="264.75" y="-479.2" font-family="Helvetica,sans-Serif" font-size="14.00">Observability</text>
</g>
<!-- gRPC Expert (Swift)&#45;&gt;Observability -->
<g id="edge4" class="edge">
<title>gRPC Expert (Swift)&#45;&gt;Observability</title>
<path fill="none" stroke="Green" stroke-width="2" d="M78.53,-630.1C116.26,-600.54 187.16,-545 229.46,-511.86"/>
<polygon fill="Green" stroke="Green" stroke-width="2" points="231.46,-514.74 237.17,-505.82 227.14,-509.23 231.46,-514.74"/>
</g>
<!-- CLI &amp; Testing Tools -->
<g id="node15" class="node">
<title>CLI &amp; Testing Tools</title>
<path fill="#ffd700" stroke="Grey" stroke-width="2" d="M318.5,-341C318.5,-341 211,-341 211,-341 205,-341 199,-335 199,-329 199,-329 199,-317 199,-317 199,-311 205,-305 211,-305 211,-305 318.5,-305 318.5,-305 324.5,-305 330.5,-311 330.5,-317 330.5,-317 330.5,-329 330.5,-329 330.5,-335 324.5,-341 318.5,-341"/>
<text xml:space="preserve" text-anchor="middle" x="264.75" y="-317.2" font-family="Helvetica,sans-Serif" font-size="14.00">CLI &amp; Testing Tools</text>
</g>
<!-- gRPC Expert (Swift)&#45;&gt;CLI &amp; Testing Tools -->
<g id="edge5" class="edge">
<title>gRPC Expert (Swift)&#45;&gt;CLI &amp; Testing Tools</title>
<path fill="none" stroke="Green" stroke-width="2" d="M65.08,-630.34C76,-612.44 92.66,-585.34 107.5,-562 155.82,-485.99 214.25,-397.49 244.11,-352.51"/>
<polygon fill="Green" stroke="Green" stroke-width="2" points="246.94,-354.58 249.55,-344.31 241.11,-350.71 246.94,-354.58"/>
</g>
<!-- Operations &amp; Advanced -->
<g id="node16" class="node">
<title>Operations &amp; Advanced</title>
<path fill="#ffd700" stroke="Grey" stroke-width="2" d="M332.38,-148C332.38,-148 197.12,-148 197.12,-148 191.12,-148 185.12,-142 185.12,-136 185.12,-136 185.12,-124 185.12,-124 185.12,-118 191.12,-112 197.12,-112 197.12,-112 332.38,-112 332.38,-112 338.38,-112 344.38,-118 344.38,-124 344.38,-124 344.38,-136 344.38,-136 344.38,-142 338.38,-148 332.38,-148"/>
<text xml:space="preserve" text-anchor="middle" x="264.75" y="-124.2" font-family="Helvetica,sans-Serif" font-size="14.00">Operations &amp; Advanced</text>
</g>
<!-- gRPC Expert (Swift)&#45;&gt;Operations &amp; Advanced -->
<g id="edge6" class="edge">
<title>gRPC Expert (Swift)&#45;&gt;Operations &amp; Advanced</title>
<path fill="none" stroke="Green" stroke-width="2" d="M58.37,-630.24C67.42,-596.75 86.97,-526.82 107.5,-469 134.36,-393.36 142.75,-374.94 176.25,-302 199.41,-251.57 229.24,-194.38 247.4,-160.3"/>
<polygon fill="Green" stroke="Green" stroke-width="2" points="250.47,-161.98 252.11,-151.51 244.3,-158.68 250.47,-161.98"/>
</g>
<!-- mTLS -->
<g id="node2" class="node">
<title>mTLS</title>
<path fill="#ffd700" stroke="Grey" stroke-width="2" d="M512.88,-750.5C512.88,-750.5 388.88,-750.5 388.88,-750.5 382.88,-750.5 376.88,-744.5 376.88,-738.5 376.88,-738.5 376.88,-709.5 376.88,-709.5 376.88,-703.5 382.88,-697.5 388.88,-697.5 388.88,-697.5 512.88,-697.5 512.88,-697.5 518.88,-697.5 524.88,-703.5 524.88,-709.5 524.88,-709.5 524.88,-738.5 524.88,-738.5 524.88,-744.5 518.88,-750.5 512.88,-750.5"/>
<text xml:space="preserve" text-anchor="middle" x="450.88" y="-733.2" font-family="Helvetica,sans-Serif" font-size="14.00">mTLS</text>
<text xml:space="preserve" text-anchor="middle" x="450.88" y="-718.2" font-family="Helvetica,sans-Serif" font-size="14.00">(handshake hangs &#45;</text>
<text xml:space="preserve" text-anchor="middle" x="450.88" y="-703.2" font-family="Helvetica,sans-Serif" font-size="14.00">CA list not advertised)</text>
</g>
<!-- AuthInterceptor -->
<g id="node3" class="node">
<title>AuthInterceptor</title>
<path fill="#90ee90" stroke="Grey" stroke-width="2" d="M719.75,-724C719.75,-724 635.5,-724 635.5,-724 629.5,-724 623.5,-718 623.5,-712 623.5,-712 623.5,-700 623.5,-700 623.5,-694 629.5,-688 635.5,-688 635.5,-688 719.75,-688 719.75,-688 725.75,-688 731.75,-694 731.75,-700 731.75,-700 731.75,-712 731.75,-712 731.75,-718 725.75,-724 719.75,-724"/>
<text xml:space="preserve" text-anchor="middle" x="677.62" y="-700.2" font-family="Helvetica,sans-Serif" font-size="14.00">AuthInterceptor</text>
</g>
<!-- mTLS&#45;&gt;AuthInterceptor -->
<g id="edge18" class="edge">
<title>mTLS&#45;&gt;AuthInterceptor</title>
<path fill="none" stroke="Green" stroke-width="2" d="M525.78,-718.08C552.94,-715.91 583.5,-713.46 609.98,-711.34"/>
<polygon fill="Green" stroke="Green" stroke-width="2" points="609.92,-714.85 619.61,-710.57 609.36,-707.88 609.92,-714.85"/>
<text xml:space="preserve" text-anchor="middle" x="577.25" y="-748.31" font-family="Helvetica,sans-Serif" font-size="14.00" fill="Green">workaround:</text>
<text xml:space="preserve" text-anchor="middle" x="577.25" y="-733.31" font-family="Helvetica,sans-Serif" font-size="14.00" fill="Green">cert check</text>
<text xml:space="preserve" text-anchor="middle" x="577.25" y="-718.31" font-family="Helvetica,sans-Serif" font-size="14.00" fill="Green">at RPC layer</text>
</g>
<!-- StructuredLogging -->
<g id="node4" class="node">
<title>StructuredLogging</title>
<path fill="#90ee90" stroke="Grey" stroke-width="2" d="M503.88,-561C503.88,-561 397.88,-561 397.88,-561 391.88,-561 385.88,-555 385.88,-549 385.88,-549 385.88,-537 385.88,-537 385.88,-531 391.88,-525 397.88,-525 397.88,-525 503.88,-525 503.88,-525 509.88,-525 515.88,-531 515.88,-537 515.88,-537 515.88,-549 515.88,-549 515.88,-555 509.88,-561 503.88,-561"/>
<text xml:space="preserve" text-anchor="middle" x="450.88" y="-537.2" font-family="Helvetica,sans-Serif" font-size="14.00">Structured Logging</text>
</g>
<!-- openssl -->
<g id="node5" class="node">
<title>openssl</title>
<path fill="#90ee90" stroke="Grey" stroke-width="2" d="M476.5,-690C476.5,-690 425.25,-690 425.25,-690 419.25,-690 413.25,-684 413.25,-678 413.25,-678 413.25,-666 413.25,-666 413.25,-660 419.25,-654 425.25,-654 425.25,-654 476.5,-654 476.5,-654 482.5,-654 488.5,-660 488.5,-666 488.5,-666 488.5,-678 488.5,-678 488.5,-684 482.5,-690 476.5,-690"/>
<text xml:space="preserve" text-anchor="middle" x="450.88" y="-666.2" font-family="Helvetica,sans-Serif" font-size="14.00">OpenSSL</text>
</g>
<!-- TLS -->
<g id="node6" class="node">
<title>TLS</title>
<path fill="#90ee90" stroke="Grey" stroke-width="2" d="M465.88,-647C465.88,-647 435.88,-647 435.88,-647 429.88,-647 423.88,-641 423.88,-635 423.88,-635 423.88,-623 423.88,-623 423.88,-617 429.88,-611 435.88,-611 435.88,-611 465.88,-611 465.88,-611 471.88,-611 477.88,-617 477.88,-623 477.88,-623 477.88,-635 477.88,-635 477.88,-641 471.88,-647 465.88,-647"/>
<text xml:space="preserve" text-anchor="middle" x="450.88" y="-623.2" font-family="Helvetica,sans-Serif" font-size="14.00">TLS</text>
</g>
<!-- JWT -->
<g id="node7" class="node">
<title>JWT</title>
<path fill="#90ee90" stroke="Grey" stroke-width="2" d="M495.25,-604C495.25,-604 406.5,-604 406.5,-604 400.5,-604 394.5,-598 394.5,-592 394.5,-592 394.5,-580 394.5,-580 394.5,-574 400.5,-568 406.5,-568 406.5,-568 495.25,-568 495.25,-568 501.25,-568 507.25,-574 507.25,-580 507.25,-580 507.25,-592 507.25,-592 507.25,-598 501.25,-604 495.25,-604"/>
<text xml:space="preserve" text-anchor="middle" x="450.88" y="-580.2" font-family="Helvetica,sans-Serif" font-size="14.00">JWT Interceptor</text>
</g>
<!-- Reflection -->
<g id="node8" class="node">
<title>Reflection</title>
<path fill="#90ee90" stroke="Grey" stroke-width="2" d="M476.88,-479C476.88,-479 424.88,-479 424.88,-479 418.88,-479 412.88,-473 412.88,-467 412.88,-467 412.88,-455 412.88,-455 412.88,-449 418.88,-443 424.88,-443 424.88,-443 476.88,-443 476.88,-443 482.88,-443 488.88,-449 488.88,-455 488.88,-455 488.88,-467 488.88,-467 488.88,-473 482.88,-479 476.88,-479"/>
<text xml:space="preserve" text-anchor="middle" x="450.88" y="-455.2" font-family="Helvetica,sans-Serif" font-size="14.00">Reflection</text>
</g>
<!-- HealthCheck -->
<g id="node9" class="node">
<title>HealthCheck</title>
<path fill="#90ee90" stroke="Grey" stroke-width="2" d="M487.38,-436C487.38,-436 414.38,-436 414.38,-436 408.38,-436 402.38,-430 402.38,-424 402.38,-424 402.38,-412 402.38,-412 402.38,-406 408.38,-400 414.38,-400 414.38,-400 487.38,-400 487.38,-400 493.38,-400 499.38,-406 499.38,-412 499.38,-412 499.38,-424 499.38,-424 499.38,-430 493.38,-436 487.38,-436"/>
<text xml:space="preserve" text-anchor="middle" x="450.88" y="-412.2" font-family="Helvetica,sans-Serif" font-size="14.00">Health Check</text>
</g>
<!-- HTTP/2 -->
<g id="node17" class="node">
<title>HTTP/2</title>
<path fill="#90ee90" stroke="Grey" stroke-width="2" d="M470.12,-1040C470.12,-1040 431.62,-1040 431.62,-1040 425.62,-1040 419.62,-1034 419.62,-1028 419.62,-1028 419.62,-1016 419.62,-1016 419.62,-1010 425.62,-1004 431.62,-1004 431.62,-1004 470.12,-1004 470.12,-1004 476.12,-1004 482.12,-1010 482.12,-1016 482.12,-1016 482.12,-1028 482.12,-1028 482.12,-1034 476.12,-1040 470.12,-1040"/>
<text xml:space="preserve" text-anchor="middle" x="450.88" y="-1016.2" font-family="Helvetica,sans-Serif" font-size="14.00">HTTP/2</text>
</g>
<!-- Protocol Fundamentals&#45;&gt;HTTP/2 -->
<g id="edge8" class="edge">
<title>Protocol Fundamentals&#45;&gt;HTTP/2</title>
<path fill="none" stroke="Green" stroke-width="2" d="M343.13,-929.97C347.18,-932.56 350.93,-935.55 354.25,-939 373.57,-959.1 349.46,-979.99 368.88,-1000 378.64,-1010.06 392.51,-1015.67 406.02,-1018.75"/>
<polygon fill="Green" stroke="Green" stroke-width="2" points="405.28,-1022.17 415.74,-1020.46 406.5,-1015.28 405.28,-1022.17"/>
</g>
<!-- Protobuf -->
<g id="node18" class="node">
<title>Protobuf</title>
<path fill="#90ee90" stroke="Grey" stroke-width="2" d="M472.38,-997C472.38,-997 429.38,-997 429.38,-997 423.38,-997 417.38,-991 417.38,-985 417.38,-985 417.38,-973 417.38,-973 417.38,-967 423.38,-961 429.38,-961 429.38,-961 472.38,-961 472.38,-961 478.38,-961 484.38,-967 484.38,-973 484.38,-973 484.38,-985 484.38,-985 484.38,-991 478.38,-997 472.38,-997"/>
<text xml:space="preserve" text-anchor="middle" x="450.88" y="-973.2" font-family="Helvetica,sans-Serif" font-size="14.00">Protobuf</text>
</g>
<!-- Protocol Fundamentals&#45;&gt;Protobuf -->
<g id="edge9" class="edge">
<title>Protocol Fundamentals&#45;&gt;Protobuf</title>
<path fill="none" stroke="Green" stroke-width="2" d="M343.3,-932.75C347.11,-934.64 350.78,-936.72 354.25,-939 362.86,-944.67 360.24,-951.38 368.88,-957 379.39,-963.84 391.99,-968.57 404.09,-971.83"/>
<polygon fill="Green" stroke="Green" stroke-width="2" points="402.93,-975.15 413.46,-974.04 404.53,-968.34 402.93,-975.15"/>
</g>
<!-- Bidirectional Streaming -->
<g id="node19" class="node">
<title>Bidirectional Streaming</title>
<path fill="#90ee90" stroke="Grey" stroke-width="2" d="M516.62,-954C516.62,-954 385.12,-954 385.12,-954 379.12,-954 373.12,-948 373.12,-942 373.12,-942 373.12,-930 373.12,-930 373.12,-924 379.12,-918 385.12,-918 385.12,-918 516.62,-918 516.62,-918 522.62,-918 528.62,-924 528.62,-930 528.62,-930 528.62,-942 528.62,-942 528.62,-948 522.62,-954 516.62,-954"/>
<text xml:space="preserve" text-anchor="middle" x="450.88" y="-930.2" font-family="Helvetica,sans-Serif" font-size="14.00">Bidirectional Streaming</text>
</g>
<!-- Protocol Fundamentals&#45;&gt;Bidirectional Streaming -->
<g id="edge10" class="edge">
<title>Protocol Fundamentals&#45;&gt;Bidirectional Streaming</title>
<path fill="none" stroke="Green" stroke-width="2" d="M343.3,-923.27C348.72,-923.91 354.21,-924.57 359.68,-925.22"/>
<polygon fill="Green" stroke="Green" stroke-width="2" points="359.06,-928.67 369.41,-926.39 359.89,-921.72 359.06,-928.67"/>
</g>
<!-- Multiplexing -->
<g id="node20" class="node">
<title>Multiplexing</title>
<path fill="#90ee90" stroke="Grey" stroke-width="2" d="M482.88,-911C482.88,-911 418.88,-911 418.88,-911 412.88,-911 406.88,-905 406.88,-899 406.88,-899 406.88,-887 406.88,-887 406.88,-881 412.88,-875 418.88,-875 418.88,-875 482.88,-875 482.88,-875 488.88,-875 494.88,-881 494.88,-887 494.88,-887 494.88,-899 494.88,-899 494.88,-905 488.88,-911 482.88,-911"/>
<text xml:space="preserve" text-anchor="middle" x="450.88" y="-887.2" font-family="Helvetica,sans-Serif" font-size="14.00">Multiplexing</text>
</g>
<!-- Protocol Fundamentals&#45;&gt;Multiplexing -->
<g id="edge11" class="edge">
<title>Protocol Fundamentals&#45;&gt;Multiplexing</title>
<path fill="none" stroke="Green" stroke-width="2" d="M343.3,-905.15C360.04,-903.25 377.44,-901.26 393.2,-899.46"/>
<polygon fill="Green" stroke="Green" stroke-width="2" points="393.46,-902.96 403,-898.35 392.66,-896 393.46,-902.96"/>
</g>
<!-- grpc&#45;swift 2.0 -->
<g id="node21" class="node">
<title>grpc&#45;swift 2.0</title>
<path fill="#90ee90" stroke="Grey" stroke-width="2" d="M492.62,-868C492.62,-868 409.12,-868 409.12,-868 403.12,-868 397.12,-862 397.12,-856 397.12,-856 397.12,-844 397.12,-844 397.12,-838 403.12,-832 409.12,-832 409.12,-832 492.62,-832 492.62,-832 498.62,-832 504.62,-838 504.62,-844 504.62,-844 504.62,-856 504.62,-856 504.62,-862 498.62,-868 492.62,-868"/>
<text xml:space="preserve" text-anchor="middle" x="450.88" y="-844.2" font-family="Helvetica,sans-Serif" font-size="14.00">gRPC Swift 2.0</text>
</g>
<!-- Swift Implementation&#45;&gt;grpc&#45;swift 2.0 -->
<g id="edge12" class="edge">
<title>Swift Implementation&#45;&gt;grpc&#45;swift 2.0</title>
<path fill="none" stroke="Green" stroke-width="2" d="M336.94,-823.62C352.35,-827.23 368.6,-831.02 383.81,-834.57"/>
<polygon fill="Green" stroke="Green" stroke-width="2" points="382.82,-837.93 393.35,-836.8 384.41,-831.12 382.82,-837.93"/>
</g>
<!-- AsyncSequence -->
<g id="node22" class="node">
<title>AsyncSequence</title>
<path fill="#90ee90" stroke="Grey" stroke-width="2" d="M495.62,-825C495.62,-825 406.12,-825 406.12,-825 400.12,-825 394.12,-819 394.12,-813 394.12,-813 394.12,-801 394.12,-801 394.12,-795 400.12,-789 406.12,-789 406.12,-789 495.62,-789 495.62,-789 501.62,-789 507.62,-795 507.62,-801 507.62,-801 507.62,-813 507.62,-813 507.62,-819 501.62,-825 495.62,-825"/>
<text xml:space="preserve" text-anchor="middle" x="450.88" y="-801.2" font-family="Helvetica,sans-Serif" font-size="14.00">AsyncSequence</text>
</g>
<!-- Swift Implementation&#45;&gt;AsyncSequence -->
<g id="edge13" class="edge">
<title>Swift Implementation&#45;&gt;AsyncSequence</title>
<path fill="none" stroke="Green" stroke-width="2" d="M336.94,-807C351.19,-807 366.15,-807 380.35,-807"/>
<polygon fill="Green" stroke="Green" stroke-width="2" points="380.11,-810.5 390.11,-807 380.11,-803.5 380.11,-810.5"/>
</g>
<!-- Security &amp; Auth&#45;&gt;mTLS -->
<g id="edge15" class="edge">
<title>Security &amp; Auth&#45;&gt;mTLS</title>
<path fill="none" stroke="Green" stroke-width="2" d="M308.96,-668.99C324.54,-675.72 342.53,-683.34 364.1,-692.05"/>
<polygon fill="Green" stroke="Green" stroke-width="2" points="362.7,-695.25 373.28,-695.72 365.3,-688.76 362.7,-695.25"/>
</g>
<!-- Security &amp; Auth&#45;&gt;openssl -->
<g id="edge17" class="edge">
<title>Security &amp; Auth&#45;&gt;openssl</title>
<path fill="none" stroke="Green" stroke-width="2" d="M320,-656.48C345.17,-659.49 374.92,-663.04 399.59,-665.99"/>
<polygon fill="Green" stroke="Green" stroke-width="2" points="398.99,-669.44 409.33,-667.16 399.82,-662.49 398.99,-669.44"/>
</g>
<!-- Security &amp; Auth&#45;&gt;TLS -->
<g id="edge14" class="edge">
<title>Security &amp; Auth&#45;&gt;TLS</title>
<path fill="none" stroke="Green" stroke-width="2" d="M320,-643.81C348.9,-640.52 383.83,-636.53 410.18,-633.53"/>
<polygon fill="Green" stroke="Green" stroke-width="2" points="410.56,-637.01 420.09,-632.4 409.76,-630.05 410.56,-637.01"/>
</g>
<!-- Security &amp; Auth&#45;&gt;JWT -->
<g id="edge16" class="edge">
<title>Security &amp; Auth&#45;&gt;JWT</title>
<path fill="none" stroke="Green" stroke-width="2" d="M308.96,-631.03C327.25,-623.36 348.91,-614.75 368.88,-608 373,-606.6 377.27,-605.23 381.59,-603.9"/>
<polygon fill="Green" stroke="Green" stroke-width="2" points="382.34,-607.33 390.93,-601.13 380.35,-600.62 382.34,-607.33"/>
</g>
<!-- Observability&#45;&gt;StructuredLogging -->
<g id="edge21" class="edge">
<title>Observability&#45;&gt;StructuredLogging</title>
<path fill="none" stroke="Green" stroke-width="2" d="M312.69,-499.79C332.37,-505.99 355.72,-513.34 377.52,-520.21"/>
<polygon fill="Green" stroke="Green" stroke-width="2" points="376.3,-523.49 386.89,-523.16 378.41,-516.82 376.3,-523.49"/>
</g>
<!-- Observability&#45;&gt;Reflection -->
<g id="edge19" class="edge">
<title>Observability&#45;&gt;Reflection</title>
<path fill="none" stroke="Green" stroke-width="2" d="M312.69,-478.88C339.15,-475.43 372.22,-471.12 399.26,-467.6"/>
<polygon fill="Green" stroke="Green" stroke-width="2" points="399.53,-471.09 408.99,-466.33 398.63,-464.15 399.53,-471.09"/>
</g>
<!-- Observability&#45;&gt;HealthCheck -->
<g id="edge20" class="edge">
<title>Observability&#45;&gt;HealthCheck</title>
<path fill="none" stroke="Green" stroke-width="2" d="M305.36,-466.09C324.32,-457.47 347.5,-447.52 368.88,-440 375.4,-437.7 382.3,-435.5 389.2,-433.44"/>
<polygon fill="Green" stroke="Green" stroke-width="2" points="390,-436.85 398.64,-430.72 388.06,-430.12 390,-436.85"/>
</g>
<!-- grpcurl -->
<g id="node23" class="node">
<title>grpcurl</title>
<path fill="#90ee90" stroke="Grey" stroke-width="2" d="M467.5,-384C467.5,-384 434.25,-384 434.25,-384 428.25,-384 422.25,-378 422.25,-372 422.25,-372 422.25,-360 422.25,-360 422.25,-354 428.25,-348 434.25,-348 434.25,-348 467.5,-348 467.5,-348 473.5,-348 479.5,-354 479.5,-360 479.5,-360 479.5,-372 479.5,-372 479.5,-378 473.5,-384 467.5,-384"/>
<text xml:space="preserve" text-anchor="middle" x="450.88" y="-360.2" font-family="Helvetica,sans-Serif" font-size="14.00">grpcurl</text>
</g>
<!-- CLI &amp; Testing Tools&#45;&gt;grpcurl -->
<g id="edge22" class="edge">
<title>CLI &amp; Testing Tools&#45;&gt;grpcurl</title>
<path fill="none" stroke="Green" stroke-width="2" d="M331.44,-338.34C357.34,-344.39 386.28,-351.15 409.07,-356.47"/>
<polygon fill="Green" stroke="Green" stroke-width="2" points="408.23,-359.87 418.76,-358.73 409.82,-353.05 408.23,-359.87"/>
</g>
<!-- ghz Load Testing -->
<g id="node24" class="node">
<title>ghz Load Testing</title>
<path fill="#ffd700" stroke="Grey" stroke-width="2" d="M497.88,-341C497.88,-341 403.88,-341 403.88,-341 397.88,-341 391.88,-335 391.88,-329 391.88,-329 391.88,-317 391.88,-317 391.88,-311 397.88,-305 403.88,-305 403.88,-305 497.88,-305 497.88,-305 503.88,-305 509.88,-311 509.88,-317 509.88,-317 509.88,-329 509.88,-329 509.88,-335 503.88,-341 497.88,-341"/>
<text xml:space="preserve" text-anchor="middle" x="450.88" y="-317.2" font-family="Helvetica,sans-Serif" font-size="14.00">ghz Load Testing</text>
</g>
<!-- CLI &amp; Testing Tools&#45;&gt;ghz Load Testing -->
<g id="edge23" class="edge">
<title>CLI &amp; Testing Tools&#45;&gt;ghz Load Testing</title>
<path fill="none" stroke="Green" stroke-width="2" d="M331.44,-323C346.61,-323 362.82,-323 378.23,-323"/>
<polygon fill="Green" stroke="Green" stroke-width="2" points="377.92,-326.5 387.92,-323 377.92,-319.5 377.92,-326.5"/>
</g>
<!-- grpc_cli Core Debug -->
<g id="node25" class="node">
<title>grpc_cli Core Debug</title>
<path fill="#ffd700" stroke="Grey" stroke-width="2" d="M508.38,-298C508.38,-298 393.38,-298 393.38,-298 387.38,-298 381.38,-292 381.38,-286 381.38,-286 381.38,-274 381.38,-274 381.38,-268 387.38,-262 393.38,-262 393.38,-262 508.38,-262 508.38,-262 514.38,-262 520.38,-268 520.38,-274 520.38,-274 520.38,-286 520.38,-286 520.38,-292 514.38,-298 508.38,-298"/>
<text xml:space="preserve" text-anchor="middle" x="450.88" y="-274.2" font-family="Helvetica,sans-Serif" font-size="14.00">grpc_cli Core Debug</text>
</g>
<!-- CLI &amp; Testing Tools&#45;&gt;grpc_cli Core Debug -->
<g id="edge24" class="edge">
<title>CLI &amp; Testing Tools&#45;&gt;grpc_cli Core Debug</title>
<path fill="none" stroke="Green" stroke-width="2" d="M331.44,-307.66C343.25,-304.9 355.68,-302 367.88,-299.15"/>
<polygon fill="Green" stroke="Green" stroke-width="2" points="368.58,-302.58 377.52,-296.9 366.99,-295.76 368.58,-302.58"/>
</g>
<!-- grpcdebug Channelz -->
<g id="node26" class="node">
<title>grpcdebug Channelz</title>
<path fill="#ffd700" stroke="Grey" stroke-width="2" d="M509.12,-255C509.12,-255 392.62,-255 392.62,-255 386.62,-255 380.62,-249 380.62,-243 380.62,-243 380.62,-231 380.62,-231 380.62,-225 386.62,-219 392.62,-219 392.62,-219 509.12,-219 509.12,-219 515.12,-219 521.12,-225 521.12,-231 521.12,-231 521.12,-243 521.12,-243 521.12,-249 515.12,-255 509.12,-255"/>
<text xml:space="preserve" text-anchor="middle" x="450.88" y="-231.2" font-family="Helvetica,sans-Serif" font-size="14.00">grpcdebug Channelz</text>
</g>
<!-- CLI &amp; Testing Tools&#45;&gt;grpcdebug Channelz -->
<g id="edge25" class="edge">
<title>CLI &amp; Testing Tools&#45;&gt;grpcdebug Channelz</title>
<path fill="none" stroke="Green" stroke-width="2" d="M291.3,-304.21C309.44,-291.53 334.99,-274.98 368.41,-259.68"/>
<polygon fill="Green" stroke="Green" stroke-width="2" points="369.54,-263.01 377.28,-255.77 366.72,-256.6 369.54,-263.01"/>
</g>
<!-- Backpressure -->
<g id="node27" class="node">
<title>Backpressure</title>
<path fill="#ffd700" stroke="Grey" stroke-width="2" d="M488.12,-212C488.12,-212 413.62,-212 413.62,-212 407.62,-212 401.62,-206 401.62,-200 401.62,-200 401.62,-188 401.62,-188 401.62,-182 407.62,-176 413.62,-176 413.62,-176 488.12,-176 488.12,-176 494.12,-176 500.12,-182 500.12,-188 500.12,-188 500.12,-200 500.12,-200 500.12,-206 494.12,-212 488.12,-212"/>
<text xml:space="preserve" text-anchor="middle" x="450.88" y="-188.2" font-family="Helvetica,sans-Serif" font-size="14.00">Backpressure</text>
</g>
<!-- Operations &amp; Advanced&#45;&gt;Backpressure -->
<g id="edge26" class="edge">
<title>Operations &amp; Advanced&#45;&gt;Backpressure</title>
<path fill="none" stroke="Green" stroke-width="2" d="M308.96,-148.97C327.25,-156.64 348.91,-165.25 368.88,-172 375.18,-174.13 381.81,-176.2 388.46,-178.17"/>
<polygon fill="Green" stroke="Green" stroke-width="2" points="387.27,-181.47 397.85,-180.85 389.2,-174.74 387.27,-181.47"/>
</g>
<!-- OpenTelemetry -->
<g id="node28" class="node">
<title>OpenTelemetry</title>
<path fill="#ffd700" stroke="Grey" stroke-width="2" d="M493.38,-169C493.38,-169 408.38,-169 408.38,-169 402.38,-169 396.38,-163 396.38,-157 396.38,-157 396.38,-145 396.38,-145 396.38,-139 402.38,-133 408.38,-133 408.38,-133 493.38,-133 493.38,-133 499.38,-133 505.38,-139 505.38,-145 505.38,-145 505.38,-157 505.38,-157 505.38,-163 499.38,-169 493.38,-169"/>
<text xml:space="preserve" text-anchor="middle" x="450.88" y="-145.2" font-family="Helvetica,sans-Serif" font-size="14.00">OpenTelemetry</text>
</g>
<!-- Operations &amp; Advanced&#45;&gt;OpenTelemetry -->
<g id="edge27" class="edge">
<title>Operations &amp; Advanced&#45;&gt;OpenTelemetry</title>
<path fill="none" stroke="Green" stroke-width="2" d="M345.17,-139.06C357.68,-140.48 370.51,-141.95 382.7,-143.34"/>
<polygon fill="Green" stroke="Green" stroke-width="2" points="382.3,-146.82 392.64,-144.47 383.1,-139.86 382.3,-146.82"/>
</g>
<!-- Deadlines &amp; Timeouts -->
<g id="node29" class="node">
<title>Deadlines &amp; Timeouts</title>
<path fill="#ffd700" stroke="Grey" stroke-width="2" d="M513.25,-126C513.25,-126 388.5,-126 388.5,-126 382.5,-126 376.5,-120 376.5,-114 376.5,-114 376.5,-102 376.5,-102 376.5,-96 382.5,-90 388.5,-90 388.5,-90 513.25,-90 513.25,-90 519.25,-90 525.25,-96 525.25,-102 525.25,-102 525.25,-114 525.25,-114 525.25,-120 519.25,-126 513.25,-126"/>
<text xml:space="preserve" text-anchor="middle" x="450.88" y="-102.2" font-family="Helvetica,sans-Serif" font-size="14.00">Deadlines &amp; Timeouts</text>
</g>
<!-- Operations &amp; Advanced&#45;&gt;Deadlines &amp; Timeouts -->
<g id="edge28" class="edge">
<title>Operations &amp; Advanced&#45;&gt;Deadlines &amp; Timeouts</title>
<path fill="none" stroke="Green" stroke-width="2" d="M345.17,-120.51C351.02,-119.81 356.94,-119.1 362.84,-118.4"/>
<polygon fill="Green" stroke="Green" stroke-width="2" points="363.14,-121.89 372.65,-117.23 362.31,-114.94 363.14,-121.89"/>
</g>
<!-- Error Handling -->
<g id="node30" class="node">
<title>Error Handling</title>
<path fill="#ffd700" stroke="Grey" stroke-width="2" d="M493.75,-83C493.75,-83 408,-83 408,-83 402,-83 396,-77 396,-71 396,-71 396,-57 396,-57 396,-51 402,-45 408,-45 408,-45 493.75,-45 493.75,-45 499.75,-45 505.75,-51 505.75,-57 505.75,-57 505.75,-71 505.75,-71 505.75,-77 499.75,-83 493.75,-83"/>
<text xml:space="preserve" text-anchor="middle" x="450.88" y="-65.7" font-family="Helvetica,sans-Serif" font-size="14.00">Error Handling</text>
<text xml:space="preserve" text-anchor="middle" x="450.88" y="-50.7" font-family="Helvetica,sans-Serif" font-size="14.00">&amp; Status Codes</text>
</g>
<!-- Operations &amp; Advanced&#45;&gt;Error Handling -->
<g id="edge29" class="edge">
<title>Operations &amp; Advanced&#45;&gt;Error Handling</title>
<path fill="none" stroke="Green" stroke-width="2" d="M307.96,-111.07C326.46,-103.12 348.55,-94.1 368.88,-87 373.48,-85.39 378.26,-83.81 383.09,-82.28"/>
<polygon fill="Green" stroke="Green" stroke-width="2" points="383.71,-85.76 392.24,-79.48 381.65,-79.06 383.71,-85.76"/>
</g>
<!-- Connection Mgmt -->
<g id="node31" class="node">
<title>Connection Mgmt</title>
<path fill="#ffd700" stroke="Grey" stroke-width="2" d="M500.5,-38C500.5,-38 401.25,-38 401.25,-38 395.25,-38 389.25,-32 389.25,-26 389.25,-26 389.25,-12 389.25,-12 389.25,-6 395.25,0 401.25,0 401.25,0 500.5,0 500.5,0 506.5,0 512.5,-6 512.5,-12 512.5,-12 512.5,-26 512.5,-26 512.5,-32 506.5,-38 500.5,-38"/>
<text xml:space="preserve" text-anchor="middle" x="450.88" y="-20.7" font-family="Helvetica,sans-Serif" font-size="14.00">Connection Mgmt</text>
<text xml:space="preserve" text-anchor="middle" x="450.88" y="-5.7" font-family="Helvetica,sans-Serif" font-size="14.00">&amp; Load Balancing</text>
</g>
<!-- Operations &amp; Advanced&#45;&gt;Connection Mgmt -->
<g id="edge30" class="edge">
<title>Operations &amp; Advanced&#45;&gt;Connection Mgmt</title>
<path fill="none" stroke="Green" stroke-width="2" d="M282.95,-111.13C302.09,-91.21 334.85,-60.22 368.88,-42 371.39,-40.65 373.99,-39.38 376.65,-38.18"/>
<polygon fill="Green" stroke="Green" stroke-width="2" points="377.85,-41.46 385.8,-34.46 375.21,-34.98 377.85,-41.46"/>
</g>
<!-- Practiced -->
<g id="node32" class="node">
<title>Practiced</title>
<path fill="#90ee90" stroke="Grey" stroke-width="2" d="M76.25,-831C76.25,-831 28,-831 28,-831 22,-831 16,-825 16,-819 16,-819 16,-807 16,-807 16,-801 22,-795 28,-795 28,-795 76.25,-795 76.25,-795 82.25,-795 88.25,-801 88.25,-807 88.25,-807 88.25,-819 88.25,-819 88.25,-825 82.25,-831 76.25,-831"/>
<text xml:space="preserve" text-anchor="middle" x="52.12" y="-807.2" font-family="Helvetica,sans-Serif" font-size="14.00">Practiced</text>
</g>
<!-- To Do -->
<g id="node33" class="node">
<title>To Do</title>
<path fill="#ffd700" stroke="Grey" stroke-width="2" d="M67.12,-874C67.12,-874 37.12,-874 37.12,-874 31.13,-874 25.12,-868 25.12,-862 25.12,-862 25.12,-850 25.12,-850 25.12,-844 31.12,-838 37.12,-838 37.12,-838 67.12,-838 67.12,-838 73.12,-838 79.12,-844 79.12,-850 79.12,-850 79.12,-862 79.12,-862 79.12,-868 73.12,-874 67.12,-874"/>
<text xml:space="preserve" text-anchor="middle" x="52.12" y="-850.2" font-family="Helvetica,sans-Serif" font-size="14.00">To Do</text>
</g>
</g>
</svg>
