<?xml version="1.0" encoding="UTF-8" standalone="no"?>
<!DOCTYPE svg PUBLIC "-//W3C//DTD SVG 1.1//EN"
 "http://www.w3.org/Graphics/SVG/1.1/DTD/svg11.dtd">
<!-- Generated by graphviz version 13.0.0 (20250608.1624)
 -->
<!-- Pages: 1 -->
<svg width="671pt" height="838pt"
 viewBox="0.00 0.00 671.00 838.00" xmlns="http://www.w3.org/2000/svg" xmlns:xlink="http://www.w3.org/1999/xlink">
<g id="graph0" class="graph" transform="scale(1 1) rotate(0) translate(4 834)">
<g id="clust1" class="cluster">
<title>cluster_legend</title>
<path fill="LightGrey" stroke="black" stroke-width="0" stroke-dasharray="5,2" d="M20,-422C20,-422 88.75,-422 88.75,-422 94.75,-422 100.75,-428 100.75,-434 100.75,-434 100.75,-527 100.75,-527 100.75,-533 94.75,-539 88.75,-539 88.75,-539 20,-539 20,-539 14,-539 8,-533 8,-527 8,-527 8,-434 8,-434 8,-428 14,-422 20,-422"/>
<text xml:space="preserve" text-anchor="start" x="33" y="-522.7" font-family="Times,serif" font-weight="bold" font-size="14.00">Legend</text>
</g>
<!-- gRPC Expert (Swift) -->
<g id="node1" class="node">
<title>gRPC Expert (Swift)</title>
<path fill="SandyBrown" stroke="Grey" stroke-width="2" d="M204.25,-510C204.25,-510 129.75,-510 129.75,-510 123.75,-510 117.75,-504 117.75,-498 117.75,-498 117.75,-484 117.75,-484 117.75,-478 123.75,-472 129.75,-472 129.75,-472 204.25,-472 204.25,-472 210.25,-472 216.25,-478 216.25,-484 216.25,-484 216.25,-498 216.25,-498 216.25,-504 210.25,-510 204.25,-510"/>
<text xml:space="preserve" text-anchor="middle" x="167" y="-492.7" font-family="Helvetica,sans-Serif" font-weight="bold" font-size="14.00">gRPC Expert</text>
<text xml:space="preserve" text-anchor="middle" x="167" y="-477.7" font-family="Helvetica,sans-Serif" font-weight="bold" font-size="14.00">(Swift)</text>
</g>
<!-- Protocol Fundamentals -->
<g id="node2" class="node">
<title>Protocol Fundamentals</title>
<path fill="#90ee90" stroke="Grey" stroke-width="2" d="M453.38,-787C453.38,-787 310.62,-787 310.62,-787 304.62,-787 298.62,-781 298.62,-775 298.62,-775 298.62,-763 298.62,-763 298.62,-757 304.62,-751 310.62,-751 310.62,-751 453.38,-751 453.38,-751 459.38,-751 465.38,-757 465.38,-763 465.38,-763 465.38,-775 465.38,-775 465.38,-781 459.38,-787 453.38,-787"/>
<text xml:space="preserve" text-anchor="middle" x="382" y="-763.2" font-family="Helvetica,sans-Serif" font-weight="bold" font-size="14.00">Protocol Fundamentals</text>
</g>
<!-- gRPC Expert (Swift)&#45;&gt;Protocol Fundamentals -->
<g id="edge1" class="edge">
<title>gRPC Expert (Swift)&#45;&gt;Protocol Fundamentals</title>
<path fill="none" stroke="Green" stroke-width="2" d="M175.06,-510.61C184.63,-536.16 202.96,-581.84 224.25,-618 248.84,-659.77 255.15,-671.32 290,-705 304.56,-719.07 322.45,-732.34 338.5,-743.12"/>
<polygon fill="Green" stroke="Green" stroke-width="2" points="336.44,-745.95 346.73,-748.5 340.28,-740.1 336.44,-745.95"/>
<text xml:space="preserve" text-anchor="middle" x="253.12" y="-697.21" font-family="Helvetica,sans-Serif" font-size="14.00" fill="Green">COVERS</text>
</g>
<!-- Interface Definition -->
<g id="node3" class="node">
<title>Interface Definition</title>
<path fill="#90ee90" stroke="Grey" stroke-width="2" d="M439.12,-701C439.12,-701 324.88,-701 324.88,-701 318.88,-701 312.88,-695 312.88,-689 312.88,-689 312.88,-677 312.88,-677 312.88,-671 318.88,-665 324.88,-665 324.88,-665 439.12,-665 439.12,-665 445.12,-665 451.12,-671 451.12,-677 451.12,-677 451.12,-689 451.12,-689 451.12,-695 445.12,-701 439.12,-701"/>
<text xml:space="preserve" text-anchor="middle" x="382" y="-677.2" font-family="Helvetica,sans-Serif" font-weight="bold" font-size="14.00">Interface Definition</text>
</g>
<!-- gRPC Expert (Swift)&#45;&gt;Interface Definition -->
<g id="edge2" class="edge">
<title>gRPC Expert (Swift)&#45;&gt;Interface Definition</title>
<path fill="none" stroke="Green" stroke-width="2" d="M184.25,-510.73C195.11,-523.52 209.97,-540.29 224.25,-554 263.7,-591.89 312.93,-631.25 345.58,-656.38"/>
<polygon fill="Green" stroke="Green" stroke-width="2" points="343.09,-658.88 353.16,-662.17 347.34,-653.32 343.09,-658.88"/>
<text xml:space="preserve" text-anchor="middle" x="253.12" y="-604.02" font-family="Helvetica,sans-Serif" font-size="14.00" fill="Green">COVERS</text>
</g>
<!-- Swift Implementation -->
<g id="node4" class="node">
<title>Swift Implementation</title>
<path fill="#90ee90" stroke="Grey" stroke-width="2" d="M447,-597C447,-597 317,-597 317,-597 311,-597 305,-591 305,-585 305,-585 305,-573 305,-573 305,-567 311,-561 317,-561 317,-561 447,-561 447,-561 453,-561 459,-567 459,-573 459,-573 459,-585 459,-585 459,-591 453,-597 447,-597"/>
<text xml:space="preserve" text-anchor="middle" x="382" y="-573.2" font-family="Helvetica,sans-Serif" font-weight="bold" font-size="14.00">Swift Implementation</text>
</g>
<!-- gRPC Expert (Swift)&#45;&gt;Swift Implementation -->
<g id="edge3" class="edge">
<title>gRPC Expert (Swift)&#45;&gt;Swift Implementation</title>
<path fill="none" stroke="Green" stroke-width="2" d="M216.33,-510.97C248.03,-524.07 289.66,-541.26 323.12,-555.09"/>
<polygon fill="Green" stroke="Green" stroke-width="2" points="321.67,-558.28 332.25,-558.86 324.34,-551.81 321.67,-558.28"/>
<text xml:space="preserve" text-anchor="middle" x="253.12" y="-539.34" font-family="Helvetica,sans-Serif" font-size="14.00" fill="Green">COVERS</text>
</g>
<!-- Security and Auth -->
<g id="node5" class="node">
<title>Security and Auth</title>
<path fill="#90ee90" stroke="Grey" stroke-width="2" d="M435.75,-509C435.75,-509 328.25,-509 328.25,-509 322.25,-509 316.25,-503 316.25,-497 316.25,-497 316.25,-485 316.25,-485 316.25,-479 322.25,-473 328.25,-473 328.25,-473 435.75,-473 435.75,-473 441.75,-473 447.75,-479 447.75,-485 447.75,-485 447.75,-497 447.75,-497 447.75,-503 441.75,-509 435.75,-509"/>
<text xml:space="preserve" text-anchor="middle" x="382" y="-485.2" font-family="Helvetica,sans-Serif" font-weight="bold" font-size="14.00">Security and Auth</text>
</g>
<!-- gRPC Expert (Swift)&#45;&gt;Security and Auth -->
<g id="edge4" class="edge">
<title>gRPC Expert (Swift)&#45;&gt;Security and Auth</title>
<path fill="none" stroke="Green" stroke-width="2" d="M217.13,-491C242.49,-491 274.03,-491 302.65,-491"/>
<polygon fill="Green" stroke="Green" stroke-width="2" points="302.54,-494.5 312.54,-491 302.54,-487.5 302.54,-494.5"/>
<text xml:space="preserve" text-anchor="middle" x="253.12" y="-492.7" font-family="Helvetica,sans-Serif" font-size="14.00" fill="Green">COVERS</text>
</g>
<!-- Observability -->
<g id="node6" class="node">
<title>Observability</title>
<path fill="#90ee90" stroke="Grey" stroke-width="2" d="M421.12,-401C421.12,-401 342.88,-401 342.88,-401 336.88,-401 330.88,-395 330.88,-389 330.88,-389 330.88,-377 330.88,-377 330.88,-371 336.88,-365 342.88,-365 342.88,-365 421.12,-365 421.12,-365 427.12,-365 433.12,-371 433.12,-377 433.12,-377 433.12,-389 433.12,-389 433.12,-395 427.12,-401 421.12,-401"/>
<text xml:space="preserve" text-anchor="middle" x="382" y="-377.2" font-family="Helvetica,sans-Serif" font-weight="bold" font-size="14.00">Observability</text>
</g>
<!-- gRPC Expert (Swift)&#45;&gt;Observability -->
<g id="edge5" class="edge">
<title>gRPC Expert (Swift)&#45;&gt;Observability</title>
<path fill="none" stroke="Green" stroke-width="2" d="M207.07,-471.19C242.33,-453.31 294.35,-426.93 332.31,-407.69"/>
<polygon fill="Green" stroke="Green" stroke-width="2" points="333.57,-410.97 340.91,-403.33 330.41,-404.73 333.57,-410.97"/>
<text xml:space="preserve" text-anchor="middle" x="253.12" y="-463.74" font-family="Helvetica,sans-Serif" font-size="14.00" fill="Green">COVERS</text>
</g>
<!-- CLI and Testing Tools -->
<g id="node7" class="node">
<title>CLI and Testing Tools</title>
<path fill="#ffd700" stroke="Grey" stroke-width="2" d="M448.5,-251C448.5,-251 315.5,-251 315.5,-251 309.5,-251 303.5,-245 303.5,-239 303.5,-239 303.5,-227 303.5,-227 303.5,-221 309.5,-215 315.5,-215 315.5,-215 448.5,-215 448.5,-215 454.5,-215 460.5,-221 460.5,-227 460.5,-227 460.5,-239 460.5,-239 460.5,-245 454.5,-251 448.5,-251"/>
<text xml:space="preserve" text-anchor="middle" x="382" y="-227.2" font-family="Helvetica,sans-Serif" font-weight="bold" font-size="14.00">CLI and Testing Tools</text>
</g>
<!-- gRPC Expert (Swift)&#45;&gt;CLI and Testing Tools -->
<g id="edge6" class="edge">
<title>gRPC Expert (Swift)&#45;&gt;CLI and Testing Tools</title>
<path fill="none" stroke="Green" stroke-width="2" d="M182.8,-471.29C194,-456.49 209.87,-435.79 224.25,-418 269.84,-361.59 325.07,-297.31 356.31,-261.31"/>
<polygon fill="Green" stroke="Green" stroke-width="2" points="358.55,-264.06 362.47,-254.22 353.27,-259.47 358.55,-264.06"/>
<text xml:space="preserve" text-anchor="middle" x="253.12" y="-419.7" font-family="Helvetica,sans-Serif" font-size="14.00" fill="Green">COVERS</text>
</g>
<!-- Operations and Advanced -->
<g id="node8" class="node">
<title>Operations and Advanced</title>
<path fill="#ffd700" stroke="Grey" stroke-width="2" d="M462,-101C462,-101 302,-101 302,-101 296,-101 290,-95 290,-89 290,-89 290,-77 290,-77 290,-71 296,-65 302,-65 302,-65 462,-65 462,-65 468,-65 474,-71 474,-77 474,-77 474,-89 474,-89 474,-95 468,-101 462,-101"/>
<text xml:space="preserve" text-anchor="middle" x="382" y="-77.2" font-family="Helvetica,sans-Serif" font-weight="bold" font-size="14.00">Operations and Advanced</text>
</g>
<!-- gRPC Expert (Swift)&#45;&gt;Operations and Advanced -->
<g id="edge7" class="edge">
<title>gRPC Expert (Swift)&#45;&gt;Operations and Advanced</title>
<path fill="none" stroke="Green" stroke-width="2" d="M174.07,-471.44C183.56,-441.55 203.04,-382.91 224.25,-335 249.5,-277.96 257.25,-264.09 290,-211 311.67,-175.87 339.53,-137.53 358.68,-112.06"/>
<polygon fill="Green" stroke="Green" stroke-width="2" points="361.24,-114.48 364.49,-104.39 355.66,-110.25 361.24,-114.48"/>
<text xml:space="preserve" text-anchor="middle" x="253.12" y="-336.7" font-family="Helvetica,sans-Serif" font-size="14.00" fill="Green">COVERS</text>
</g>
<!-- HTTP/2 -->
<g id="node13" class="node">
<title>HTTP/2</title>
<path fill="#90ee90" stroke="Grey" stroke-width="2" d="M596.25,-830C596.25,-830 557.75,-830 557.75,-830 551.75,-830 545.75,-824 545.75,-818 545.75,-818 545.75,-806 545.75,-806 545.75,-800 551.75,-794 557.75,-794 557.75,-794 596.25,-794 596.25,-794 602.25,-794 608.25,-800 608.25,-806 608.25,-806 608.25,-818 608.25,-818 608.25,-824 602.25,-830 596.25,-830"/>
<text xml:space="preserve" text-anchor="middle" x="577" y="-806.2" font-family="Helvetica,sans-Serif" font-weight="bold" font-size="14.00">HTTP/2</text>
</g>
<!-- Protocol Fundamentals&#45;&gt;HTTP/2 -->
<g id="edge9" class="edge">
<title>Protocol Fundamentals&#45;&gt;HTTP/2</title>
<path fill="none" stroke="Green" stroke-width="2" d="M466.25,-787.55C489.07,-792.63 512.9,-797.94 532.5,-802.31"/>
<polygon fill="Green" stroke="Green" stroke-width="2" points="531.55,-805.68 542.07,-804.44 533.07,-798.85 531.55,-805.68"/>
</g>
<!-- Protobuf -->
<g id="node14" class="node">
<title>Protobuf</title>
<path fill="#90ee90" stroke="Grey" stroke-width="2" d="M601.12,-787C601.12,-787 552.88,-787 552.88,-787 546.88,-787 540.88,-781 540.88,-775 540.88,-775 540.88,-763 540.88,-763 540.88,-757 546.88,-751 552.88,-751 552.88,-751 601.12,-751 601.12,-751 607.12,-751 613.12,-757 613.12,-763 613.12,-763 613.12,-775 613.12,-775 613.12,-781 607.12,-787 601.12,-787"/>
<text xml:space="preserve" text-anchor="middle" x="577" y="-763.2" font-family="Helvetica,sans-Serif" font-weight="bold" font-size="14.00">Protobuf</text>
</g>
<!-- Protocol Fundamentals&#45;&gt;Protobuf -->
<g id="edge10" class="edge">
<title>Protocol Fundamentals&#45;&gt;Protobuf</title>
<path fill="none" stroke="Green" stroke-width="2" d="M466.25,-769C487.1,-769 508.8,-769 527.34,-769"/>
<polygon fill="Green" stroke="Green" stroke-width="2" points="527.19,-772.5 537.19,-769 527.19,-765.5 527.19,-772.5"/>
</g>
<!-- Bidirectional Streaming -->
<g id="node15" class="node">
<title>Bidirectional Streaming</title>
<path fill="#90ee90" stroke="Grey" stroke-width="2" d="M649.12,-744C649.12,-744 504.88,-744 504.88,-744 498.88,-744 492.88,-738 492.88,-732 492.88,-732 492.88,-720 492.88,-720 492.88,-714 498.88,-708 504.88,-708 504.88,-708 649.12,-708 649.12,-708 655.12,-708 661.12,-714 661.12,-720 661.12,-720 661.12,-732 661.12,-732 661.12,-738 655.12,-744 649.12,-744"/>
<text xml:space="preserve" text-anchor="middle" x="577" y="-720.2" font-family="Helvetica,sans-Serif" font-weight="bold" font-size="14.00">Bidirectional Streaming</text>
</g>
<!-- Interface Definition&#45;&gt;Bidirectional Streaming -->
<g id="edge11" class="edge">
<title>Interface Definition&#45;&gt;Bidirectional Streaming</title>
<path fill="none" stroke="Green" stroke-width="2" d="M451.86,-698.34C460.79,-700.33 470.07,-702.4 479.35,-704.47"/>
<polygon fill="Green" stroke="Green" stroke-width="2" points="478.49,-707.86 489.01,-706.62 480.01,-701.03 478.49,-707.86"/>
</g>
<!-- Multiplexing -->
<g id="node16" class="node">
<title>Multiplexing</title>
<path fill="#90ee90" stroke="Grey" stroke-width="2" d="M612.75,-701C612.75,-701 541.25,-701 541.25,-701 535.25,-701 529.25,-695 529.25,-689 529.25,-689 529.25,-677 529.25,-677 529.25,-671 535.25,-665 541.25,-665 541.25,-665 612.75,-665 612.75,-665 618.75,-665 624.75,-671 624.75,-677 624.75,-677 624.75,-689 624.75,-689 624.75,-695 618.75,-701 612.75,-701"/>
<text xml:space="preserve" text-anchor="middle" x="577" y="-677.2" font-family="Helvetica,sans-Serif" font-weight="bold" font-size="14.00">Multiplexing</text>
</g>
<!-- Interface Definition&#45;&gt;Multiplexing -->
<g id="edge12" class="edge">
<title>Interface Definition&#45;&gt;Multiplexing</title>
<path fill="none" stroke="Green" stroke-width="2" d="M451.86,-683C472.64,-683 495.29,-683 515.48,-683"/>
<polygon fill="Green" stroke="Green" stroke-width="2" points="515.33,-686.5 525.33,-683 515.33,-679.5 515.33,-686.5"/>
</g>
<!-- grpc&#45;swift 2.0 -->
<g id="node11" class="node">
<title>grpc&#45;swift 2.0</title>
<path fill="#90ee90" stroke="Grey" stroke-width="2" d="M646.88,-657.5C646.88,-657.5 507.12,-657.5 507.12,-657.5 501.12,-657.5 495.12,-651.5 495.12,-645.5 495.12,-645.5 495.12,-616.5 495.12,-616.5 495.12,-610.5 501.12,-604.5 507.12,-604.5 507.12,-604.5 646.88,-604.5 646.88,-604.5 652.88,-604.5 658.88,-610.5 658.88,-616.5 658.88,-616.5 658.88,-645.5 658.88,-645.5 658.88,-651.5 652.88,-657.5 646.88,-657.5"/>
<text xml:space="preserve" text-anchor="middle" x="577" y="-640.2" font-family="Helvetica,sans-Serif" font-weight="bold" font-size="14.00">gRPC Swift 2.0</text>
<text xml:space="preserve" text-anchor="middle" x="577" y="-625.2" font-family="Helvetica,sans-Serif" font-weight="bold" font-size="14.00">Modular Stack</text>
<text xml:space="preserve" text-anchor="middle" x="577" y="-610.2" font-family="Helvetica,sans-Serif" font-weight="bold" font-size="14.00">(low&#45;level architecture)</text>
</g>
<!-- Swift Implementation&#45;&gt;grpc&#45;swift 2.0 -->
<g id="edge13" class="edge">
<title>Swift Implementation&#45;&gt;grpc&#45;swift 2.0</title>
<path fill="none" stroke="Green" stroke-width="2" d="M453.5,-597.99C462.71,-600.48 472.26,-603.05 481.78,-605.61"/>
<polygon fill="Green" stroke="Green" stroke-width="2" points="480.76,-608.96 491.32,-608.19 482.58,-602.2 480.76,-608.96"/>
</g>
<!-- AsyncSequence -->
<g id="node17" class="node">
<title>AsyncSequence</title>
<path fill="#90ee90" stroke="Grey" stroke-width="2" d="M625.12,-597C625.12,-597 528.88,-597 528.88,-597 522.88,-597 516.88,-591 516.88,-585 516.88,-585 516.88,-573 516.88,-573 516.88,-567 522.88,-561 528.88,-561 528.88,-561 625.12,-561 625.12,-561 631.12,-561 637.12,-567 637.12,-573 637.12,-573 637.12,-585 637.12,-585 637.12,-591 631.12,-597 625.12,-597"/>
<text xml:space="preserve" text-anchor="middle" x="577" y="-573.2" font-family="Helvetica,sans-Serif" font-weight="bold" font-size="14.00">AsyncSequence</text>
</g>
<!-- Swift Implementation&#45;&gt;AsyncSequence -->
<g id="edge14" class="edge">
<title>Swift Implementation&#45;&gt;AsyncSequence</title>
<path fill="none" stroke="Green" stroke-width="2" d="M459.83,-579C474.16,-579 489.09,-579 503.29,-579"/>
<polygon fill="Green" stroke="Green" stroke-width="2" points="503.05,-582.5 513.05,-579 503.05,-575.5 503.05,-582.5"/>
</g>
<!-- openssl -->
<g id="node12" class="node">
<title>openssl</title>
<path fill="#90ee90" stroke="Grey" stroke-width="2" d="M649.88,-554C649.88,-554 504.12,-554 504.12,-554 498.12,-554 492.12,-548 492.12,-542 492.12,-542 492.12,-528 492.12,-528 492.12,-522 498.12,-516 504.12,-516 504.12,-516 649.88,-516 649.88,-516 655.88,-516 661.88,-522 661.88,-528 661.88,-528 661.88,-542 661.88,-542 661.88,-548 655.88,-554 649.88,-554"/>
<text xml:space="preserve" text-anchor="middle" x="577" y="-536.7" font-family="Helvetica,sans-Serif" font-weight="bold" font-size="14.00">OpenSSL</text>
<text xml:space="preserve" text-anchor="middle" x="577" y="-521.7" font-family="Helvetica,sans-Serif" font-weight="bold" font-size="14.00">Certificate Management</text>
</g>
<!-- Security and Auth&#45;&gt;openssl -->
<g id="edge8" class="edge">
<title>Security and Auth&#45;&gt;openssl</title>
<path fill="none" stroke="Green" stroke-width="2" d="M448.61,-505.96C458.4,-508.19 468.66,-510.53 478.93,-512.87"/>
<polygon fill="Green" stroke="Green" stroke-width="2" points="477.96,-516.24 488.48,-515.05 479.51,-509.41 477.96,-516.24"/>
</g>
<!-- TLS -->
<g id="node18" class="node">
<title>TLS</title>
<path fill="#90ee90" stroke="Grey" stroke-width="2" d="M592,-509C592,-509 562,-509 562,-509 556,-509 550,-503 550,-497 550,-497 550,-485 550,-485 550,-479 556,-473 562,-473 562,-473 592,-473 592,-473 598,-473 604,-479 604,-485 604,-485 604,-497 604,-497 604,-503 598,-509 592,-509"/>
<text xml:space="preserve" text-anchor="middle" x="577" y="-485.2" font-family="Helvetica,sans-Serif" font-weight="bold" font-size="14.00">TLS</text>
</g>
<!-- Security and Auth&#45;&gt;TLS -->
<g id="edge15" class="edge">
<title>Security and Auth&#45;&gt;TLS</title>
<path fill="none" stroke="Green" stroke-width="2" d="M448.61,-491C477.88,-491 511.39,-491 536.69,-491"/>
<polygon fill="Green" stroke="Green" stroke-width="2" points="536.44,-494.5 546.44,-491 536.44,-487.5 536.44,-494.5"/>
</g>
<!-- JWT -->
<g id="node19" class="node">
<title>JWT</title>
<path fill="#90ee90" stroke="Grey" stroke-width="2" d="M592,-466C592,-466 562,-466 562,-466 556,-466 550,-460 550,-454 550,-454 550,-442 550,-442 550,-436 556,-430 562,-430 562,-430 592,-430 592,-430 598,-430 604,-436 604,-442 604,-442 604,-454 604,-454 604,-460 598,-466 592,-466"/>
<text xml:space="preserve" text-anchor="middle" x="577" y="-442.2" font-family="Helvetica,sans-Serif" font-weight="bold" font-size="14.00">JWT</text>
</g>
<!-- Security and Auth&#45;&gt;JWT -->
<g id="edge16" class="edge">
<title>Security and Auth&#45;&gt;JWT</title>
<path fill="none" stroke="Green" stroke-width="2" d="M448.61,-476.38C478.02,-469.83 511.7,-462.33 537.04,-456.68"/>
<polygon fill="Green" stroke="Green" stroke-width="2" points="537.52,-460.16 546.51,-454.57 535.99,-453.33 537.52,-460.16"/>
</g>
<!-- Reflection -->
<g id="node20" class="node">
<title>Reflection</title>
<path fill="#90ee90" stroke="Grey" stroke-width="2" d="M605.62,-423C605.62,-423 548.38,-423 548.38,-423 542.38,-423 536.38,-417 536.38,-411 536.38,-411 536.38,-399 536.38,-399 536.38,-393 542.38,-387 548.38,-387 548.38,-387 605.62,-387 605.62,-387 611.62,-387 617.62,-393 617.62,-399 617.62,-399 617.62,-411 617.62,-411 617.62,-417 611.62,-423 605.62,-423"/>
<text xml:space="preserve" text-anchor="middle" x="577" y="-399.2" font-family="Helvetica,sans-Serif" font-weight="bold" font-size="14.00">Reflection</text>
</g>
<!-- Observability&#45;&gt;Reflection -->
<g id="edge17" class="edge">
<title>Observability&#45;&gt;Reflection</title>
<path fill="none" stroke="Green" stroke-width="2" d="M433.96,-388.81C461.34,-391.93 495.07,-395.77 522.79,-398.93"/>
<polygon fill="Green" stroke="Green" stroke-width="2" points="522.11,-402.38 532.45,-400.04 522.91,-395.43 522.11,-402.38"/>
</g>
<!-- Health Check -->
<g id="node21" class="node">
<title>Health Check</title>
<path fill="#90ee90" stroke="Grey" stroke-width="2" d="M615.75,-380C615.75,-380 538.25,-380 538.25,-380 532.25,-380 526.25,-374 526.25,-368 526.25,-368 526.25,-356 526.25,-356 526.25,-350 532.25,-344 538.25,-344 538.25,-344 615.75,-344 615.75,-344 621.75,-344 627.75,-350 627.75,-356 627.75,-356 627.75,-368 627.75,-368 627.75,-374 621.75,-380 615.75,-380"/>
<text xml:space="preserve" text-anchor="middle" x="577" y="-356.2" font-family="Helvetica,sans-Serif" font-weight="bold" font-size="14.00">Health Check</text>
</g>
<!-- Observability&#45;&gt;Health Check -->
<g id="edge18" class="edge">
<title>Observability&#45;&gt;Health Check</title>
<path fill="none" stroke="Green" stroke-width="2" d="M433.96,-377.46C458.13,-374.82 487.25,-371.66 512.81,-368.88"/>
<polygon fill="Green" stroke="Green" stroke-width="2" points="512.85,-372.39 522.41,-367.83 512.09,-365.43 512.85,-372.39"/>
</g>
<!-- Structured Logging -->
<g id="node22" class="node">
<title>Structured Logging</title>
<path fill="#90ee90" stroke="Grey" stroke-width="2" d="M635.62,-337C635.62,-337 518.38,-337 518.38,-337 512.38,-337 506.38,-331 506.38,-325 506.38,-325 506.38,-313 506.38,-313 506.38,-307 512.38,-301 518.38,-301 518.38,-301 635.62,-301 635.62,-301 641.62,-301 647.62,-307 647.62,-313 647.62,-313 647.62,-325 647.62,-325 647.62,-331 641.62,-337 635.62,-337"/>
<text xml:space="preserve" text-anchor="middle" x="577" y="-313.2" font-family="Helvetica,sans-Serif" font-weight="bold" font-size="14.00">Structured Logging</text>
</g>
<!-- Observability&#45;&gt;Structured Logging -->
<g id="edge19" class="edge">
<title>Observability&#45;&gt;Structured Logging</title>
<path fill="none" stroke="Green" stroke-width="2" d="M428.29,-364.02C447.45,-356.35 470.13,-347.73 491,-341 491.9,-340.71 492.8,-340.42 493.71,-340.13"/>
<polygon fill="Green" stroke="Green" stroke-width="2" points="494.32,-343.61 502.87,-337.36 492.29,-336.91 494.32,-343.61"/>
</g>
<!-- grpcurl -->
<g id="node23" class="node">
<title>grpcurl</title>
<path fill="#90ee90" stroke="Grey" stroke-width="2" d="M596.25,-294C596.25,-294 557.75,-294 557.75,-294 551.75,-294 545.75,-288 545.75,-282 545.75,-282 545.75,-270 545.75,-270 545.75,-264 551.75,-258 557.75,-258 557.75,-258 596.25,-258 596.25,-258 602.25,-258 608.25,-264 608.25,-270 608.25,-270 608.25,-282 608.25,-282 608.25,-288 602.25,-294 596.25,-294"/>
<text xml:space="preserve" text-anchor="middle" x="577" y="-270.2" font-family="Helvetica,sans-Serif" font-weight="bold" font-size="14.00">grpcurl</text>
</g>
<!-- CLI and Testing Tools&#45;&gt;grpcurl -->
<g id="edge20" class="edge">
<title>CLI and Testing Tools&#45;&gt;grpcurl</title>
<path fill="none" stroke="Green" stroke-width="2" d="M461.22,-250.43C485.62,-255.86 511.64,-261.66 532.73,-266.36"/>
<polygon fill="Green" stroke="Green" stroke-width="2" points="531.69,-269.71 542.21,-268.47 533.21,-262.88 531.69,-269.71"/>
</g>
<!-- ghz Load Testing -->
<g id="node24" class="node">
<title>ghz Load Testing</title>
<path fill="#ffd700" stroke="Grey" stroke-width="2" d="M628.5,-251C628.5,-251 525.5,-251 525.5,-251 519.5,-251 513.5,-245 513.5,-239 513.5,-239 513.5,-227 513.5,-227 513.5,-221 519.5,-215 525.5,-215 525.5,-215 628.5,-215 628.5,-215 634.5,-215 640.5,-221 640.5,-227 640.5,-227 640.5,-239 640.5,-239 640.5,-245 634.5,-251 628.5,-251"/>
<text xml:space="preserve" text-anchor="middle" x="577" y="-227.2" font-family="Helvetica,sans-Serif" font-weight="bold" font-size="14.00">ghz Load Testing</text>
</g>
<!-- CLI and Testing Tools&#45;&gt;ghz Load Testing -->
<g id="edge21" class="edge">
<title>CLI and Testing Tools&#45;&gt;ghz Load Testing</title>
<path fill="none" stroke="Green" stroke-width="2" d="M461.22,-233C473.94,-233 487.1,-233 499.77,-233"/>
<polygon fill="Green" stroke="Green" stroke-width="2" points="499.73,-236.5 509.73,-233 499.73,-229.5 499.73,-236.5"/>
</g>
<!-- grpc_cli Core Debug -->
<g id="node25" class="node">
<title>grpc_cli Core Debug</title>
<path fill="#ffd700" stroke="Grey" stroke-width="2" d="M639,-208C639,-208 515,-208 515,-208 509,-208 503,-202 503,-196 503,-196 503,-184 503,-184 503,-178 509,-172 515,-172 515,-172 639,-172 639,-172 645,-172 651,-178 651,-184 651,-184 651,-196 651,-196 651,-202 645,-208 639,-208"/>
<text xml:space="preserve" text-anchor="middle" x="577" y="-184.2" font-family="Helvetica,sans-Serif" font-weight="bold" font-size="14.00">grpc_cli Core Debug</text>
</g>
<!-- CLI and Testing Tools&#45;&gt;grpc_cli Core Debug -->
<g id="edge22" class="edge">
<title>CLI and Testing Tools&#45;&gt;grpc_cli Core Debug</title>
<path fill="none" stroke="Green" stroke-width="2" d="M461.22,-215.57C470.49,-213.51 479.99,-211.39 489.36,-209.3"/>
<polygon fill="Green" stroke="Green" stroke-width="2" points="490.08,-212.73 499.08,-207.14 488.56,-205.9 490.08,-212.73"/>
</g>
<!-- grpcdebug Channelz -->
<g id="node26" class="node">
<title>grpcdebug Channelz</title>
<path fill="#ffd700" stroke="Grey" stroke-width="2" d="M639.75,-165C639.75,-165 514.25,-165 514.25,-165 508.25,-165 502.25,-159 502.25,-153 502.25,-153 502.25,-141 502.25,-141 502.25,-135 508.25,-129 514.25,-129 514.25,-129 639.75,-129 639.75,-129 645.75,-129 651.75,-135 651.75,-141 651.75,-141 651.75,-153 651.75,-153 651.75,-159 645.75,-165 639.75,-165"/>
<text xml:space="preserve" text-anchor="middle" x="577" y="-141.2" font-family="Helvetica,sans-Serif" font-weight="bold" font-size="14.00">grpcdebug Channelz</text>
</g>
<!-- CLI and Testing Tools&#45;&gt;grpcdebug Channelz -->
<g id="edge23" class="edge">
<title>CLI and Testing Tools&#45;&gt;grpcdebug Channelz</title>
<path fill="none" stroke="Green" stroke-width="2" d="M409.85,-214.18C428.89,-201.49 455.67,-184.93 489.63,-169.99"/>
<polygon fill="Green" stroke="Green" stroke-width="2" points="490.79,-173.3 498.64,-166.18 488.06,-166.85 490.79,-173.3"/>
</g>
<!-- Backpressure -->
<g id="node27" class="node">
<title>Backpressure</title>
<path fill="#ffd700" stroke="Grey" stroke-width="2" d="M617.62,-122C617.62,-122 536.38,-122 536.38,-122 530.38,-122 524.38,-116 524.38,-110 524.38,-110 524.38,-98 524.38,-98 524.38,-92 530.38,-86 536.38,-86 536.38,-86 617.62,-86 617.62,-86 623.62,-86 629.62,-92 629.62,-98 629.62,-98 629.62,-110 629.62,-110 629.62,-116 623.62,-122 617.62,-122"/>
<text xml:space="preserve" text-anchor="middle" x="577" y="-98.2" font-family="Helvetica,sans-Serif" font-weight="bold" font-size="14.00">Backpressure</text>
</g>
<!-- Operations and Advanced&#45;&gt;Backpressure -->
<g id="edge24" class="edge">
<title>Operations and Advanced&#45;&gt;Backpressure</title>
<path fill="none" stroke="Green" stroke-width="2" d="M474.98,-93.01C487.11,-94.33 499.34,-95.66 510.89,-96.92"/>
<polygon fill="Green" stroke="Green" stroke-width="2" points="510.28,-100.37 520.6,-97.97 511.04,-93.41 510.28,-100.37"/>
</g>
<!-- OpenTelemetry -->
<g id="node28" class="node">
<title>OpenTelemetry</title>
<path fill="#ffd700" stroke="Grey" stroke-width="2" d="M622.88,-79C622.88,-79 531.12,-79 531.12,-79 525.12,-79 519.12,-73 519.12,-67 519.12,-67 519.12,-55 519.12,-55 519.12,-49 525.12,-43 531.12,-43 531.12,-43 622.88,-43 622.88,-43 628.88,-43 634.88,-49 634.88,-55 634.88,-55 634.88,-67 634.88,-67 634.88,-73 628.88,-79 622.88,-79"/>
<text xml:space="preserve" text-anchor="middle" x="577" y="-55.2" font-family="Helvetica,sans-Serif" font-weight="bold" font-size="14.00">OpenTelemetry</text>
</g>
<!-- Operations and Advanced&#45;&gt;OpenTelemetry -->
<g id="edge25" class="edge">
<title>Operations and Advanced&#45;&gt;OpenTelemetry</title>
<path fill="none" stroke="Green" stroke-width="2" d="M474.98,-72.52C485.24,-71.35 495.57,-70.17 505.5,-69.04"/>
<polygon fill="Green" stroke="Green" stroke-width="2" points="505.74,-72.53 515.28,-67.92 504.95,-65.58 505.74,-72.53"/>
</g>
<!-- Deadlines and Timeouts -->
<g id="node29" class="node">
<title>Deadlines and Timeouts</title>
<path fill="#ffd700" stroke="Grey" stroke-width="2" d="M651,-36C651,-36 503,-36 503,-36 497,-36 491,-30 491,-24 491,-24 491,-12 491,-12 491,-6 497,0 503,0 503,0 651,0 651,0 657,0 663,-6 663,-12 663,-12 663,-24 663,-24 663,-30 657,-36 651,-36"/>
<text xml:space="preserve" text-anchor="middle" x="577" y="-12.2" font-family="Helvetica,sans-Serif" font-weight="bold" font-size="14.00">Deadlines and Timeouts</text>
</g>
<!-- Operations and Advanced&#45;&gt;Deadlines and Timeouts -->
<g id="edge26" class="edge">
<title>Operations and Advanced&#45;&gt;Deadlines and Timeouts</title>
<path fill="none" stroke="Green" stroke-width="2" d="M426.94,-64.05C443.71,-57.15 463.33,-49.45 488.42,-41"/>
<polygon fill="Green" stroke="Green" stroke-width="2" points="489.49,-44.33 497.89,-37.88 487.3,-37.69 489.49,-44.33"/>
</g>
<!-- To Do -->
<g id="node9" class="node">
<title>To Do</title>
<path fill="#ffd700" stroke="Grey" stroke-width="2" d="M69.5,-466C69.5,-466 39.25,-466 39.25,-466 33.25,-466 27.25,-460 27.25,-454 27.25,-454 27.25,-442 27.25,-442 27.25,-436 33.25,-430 39.25,-430 39.25,-430 69.5,-430 69.5,-430 75.5,-430 81.5,-436 81.5,-442 81.5,-442 81.5,-454 81.5,-454 81.5,-460 75.5,-466 69.5,-466"/>
<text xml:space="preserve" text-anchor="middle" x="54.38" y="-442.2" font-family="Helvetica,sans-Serif" font-weight="bold" font-size="14.00">To Do</text>
</g>
<!-- Practiced -->
<g id="node10" class="node">
<title>Practiced</title>
<path fill="#90ee90" stroke="Grey" stroke-width="2" d="M80.75,-509C80.75,-509 28,-509 28,-509 22,-509 16,-503 16,-497 16,-497 16,-485 16,-485 16,-479 22,-473 28,-473 28,-473 80.75,-473 80.75,-473 86.75,-473 92.75,-479 92.75,-485 92.75,-485 92.75,-497 92.75,-497 92.75,-503 86.75,-509 80.75,-509"/>
<text xml:space="preserve" text-anchor="middle" x="54.38" y="-485.2" font-family="Helvetica,sans-Serif" font-weight="bold" font-size="14.00">Practiced</text>
</g>
<!-- Practiced&#45;&gt;gRPC Expert (Swift) -->
</g>
</svg>
