<svg xmlns="http://www.w3.org/2000/svg" xmlns:xlink="http://www.w3.org/1999/xlink" contentStyleType="text/css" data-diagram-type="DESCRIPTION" height="1204px" preserveAspectRatio="none" style="width:1641px;height:1204px;" version="1.1" viewBox="0 0 1641 1204" width="1641px" zoomAndPan="magnify"><title>CI/CD System Design for Autotriage</title><defs><style type="text/css"><![CDATA[svg .entity {
    cursor: pointer;
}
svg.mouseover-active > g > * {
	opacity: 0.2 !important;
}
svg.mouseover-active > g > g.mouseover-highlighted {
	opacity: 1.0 !important;
}
svg.click-active > g > * {
    opacity: 0.3;
}
svg.click-active > g > g.click-highlighted {
    opacity: 1.0;
}
]]></style><script>(function (){
    function escapeForCssAttributeSelector(entityName) {
        return entityName
            ?.replaceAll('\\', '\\\\')
            ?.replaceAll('"', '\\"');
    }

    function getLineEdgesAndNodes(startingNode) {
        function findNextEdgesAndNodes(startingNode, forwards, elementsEncounteredSoFar = new Set()) {
            elementsEncounteredSoFar.add(startingNode);
            const nodeName = startingNode.getAttribute("data-entity");
            const escapedNodeName = escapeForCssAttributeSelector(nodeName);
            const thisLinkAttributeIndex = forwards ? 2 : 1;
            const nextLinkAttributeIndex = forwards ? 1 : 2;

            svg.querySelectorAll(`.link[data-entity-${nextLinkAttributeIndex}="${escapedNodeName}"]`).forEach(link =&gt; {
                if (! elementsEncounteredSoFar.has(link)) {
                    elementsEncounteredSoFar.add(link);

                    const linkStartNodeName = link.getAttribute(`data-entity-${thisLinkAttributeIndex}`);
                    const linkStartNode = svg.querySelector(`[data-entity="${escapeForCssAttributeSelector(linkStartNodeName)}"]`);

                    if (! elementsEncounteredSoFar.has(linkStartNode)) {
                        elementsEncounteredSoFar.add(linkStartNode);
                        findNextEdgesAndNodes(linkStartNode, forwards, elementsEncounteredSoFar);
                    }
                }
            });

            return elementsEncounteredSoFar;
        }

        const ancestors = findNextEdgesAndNodes(startingNode, false);
        const descendants = findNextEdgesAndNodes(startingNode, true);

        return ancestors.union(descendants);
    }

	function getEdgesAndDistance1Nodes(startingNode) {
		const nodeName = startingNode.getAttribute("data-entity");
		const escapedNodeName = escapeForCssAttributeSelector(nodeName);
		let results = new Set();

        svg.querySelectorAll(`.link[data-entity-1="${escapedNodeName}"], .link[data-entity-2="${escapedNodeName}"]`).forEach(link =&gt; {
            const linkStartNodeName = link.getAttribute("data-entity-1");
            const linkEndNodeName = link.getAttribute("data-entity-2");

            if (linkStartNodeName === nodeName) {
                results.add(svg.querySelector(`[data-entity="${escapeForCssAttributeSelector(linkEndNodeName)}"]`));
                results.add(link);
            } else if (linkEndNodeName === nodeName) {
                results.add(svg.querySelector(`[data-entity="${escapeForCssAttributeSelector(linkStartNodeName)}"]`));
                results.add(link);
			}
		});

		return results;
	}

	/**
	 * @param {SVGElement} elem
	 * @param tagName in lowercase, e.g. "g" or "svg"
	 * @return {{SVGElement}} or null if no matching ancestor is found
	 */
	function findAncestorWithTagName(elem, tagName) {
		while (elem &amp;&amp; elem.nodeName.toLowerCase() !== tagName) {
			elem = elem.parentElement;
		}
		return elem;
	}

    function onClickEntity() {
        if (svg.classList.contains("click-active") &amp;&amp; this.classList.contains("click-selected")) {
            handleDeselect("click");
        } else {
            handleSelectNeighbors(this, "click");
        }
    }

    function onDoubleClickEntity() {
        if (svg.classList.contains("click-active") &amp;&amp; this.classList.contains("click-selected")) {
            handleDeselect("click");
        } else {
            handleSelectLine(this, "click");
        }
    }

	function onMouseOverEntity() {
	    handleSelectNeighbors(this, "mouseover");
	}

	function onMouseOutEntity() {
	    handleDeselect("mouseover");
	}

    // CSS class descriptions:
    //   xxx-active: highlight styles will be ignored when this is not added to the the parent &lt;svg&gt;.
    //   xxx-selected: lets us track which entity `&lt;g&gt;` was clicked/hovered.
    //   xxx-highlighted: when highlighting is 'active', elements without this class will be dimmed.
    //
    // 'xxx' event type will be 'click' or 'mouseover'.
	function handleSelectNeighbors(selectedEntityElem, eventType) {
	    svg.querySelectorAll(`.${eventType}-selected, .${eventType}-highlighted`).forEach(elem =&gt; {
            elem.classList.remove(`${eventType}-selected`, `${eventType}-highlighted`);
        });

        svg.classList.add(`${eventType}-active`);
        selectedEntityElem.classList.add(`${eventType}-selected`, `${eventType}-highlighted`);

        getEdgesAndDistance1Nodes(selectedEntityElem).forEach(node =&gt; {
            node.classList.add(`${eventType}-highlighted`);
        });
	}
	
    function handleSelectLine(selectedEntityElem, eventType) {
        svg.querySelectorAll(`.${eventType}-selected, .${eventType}-highlighted`).forEach(elem =&gt; {
            elem.classList.remove(`${eventType}-selected`, `${eventType}-highlighted`);
        });

        svg.classList.add(`${eventType}-active`);
        selectedEntityElem.classList.add(`${eventType}-selected`, `${eventType}-highlighted`);

        getLineEdgesAndNodes(selectedEntityElem).forEach(node =&gt; {
            node.classList.add(`${eventType}-highlighted`);
        });
    }

    function handleDeselect(eventType) {
		svg.classList.remove(`${eventType}-active`);
    }

	const svg = findAncestorWithTagName(document.currentScript, "svg");

    document.addEventListener("DOMContentLoaded", () =&gt; {
        svg.querySelectorAll("g.entity").forEach(entity =&gt; {
            entity.addEventListener("mouseover", onMouseOverEntity);
            entity.addEventListener("mouseout", onMouseOutEntity);
            entity.addEventListener("click", onClickEntity);
            entity.addEventListener("dblclick", onDoubleClickEntity);
        });

        svg.addEventListener("keydown", event =&gt; {
            if (event.code === "Escape") {
              handleDeselect("click");
            }
          });
    });
})();
</script></defs><g><g class="title" data-source-line="4"><text fill="#808080" font-family="sans-serif" font-size="22" font-weight="bold" lengthAdjust="spacing" textLength="410.5879" x="608.3073" y="31.2695">CI/CD System Design for Autotriage</text></g><!--cluster CICD--><g class="cluster" data-entity="CICD" data-source-line="36" data-uid="ent0004" id="cluster_CICD"><path d="M921.66,488.8702 L1070.1659,488.8702 A3.75,3.75 0 0 1 1072.6659,491.3702 L1079.6659,511.3584 L1109.66,511.3584 A2.5,2.5 0 0 1 1112.16,513.8584 L1112.16,606.3402 A2.5,2.5 0 0 1 1109.66,608.8402 L921.66,608.8402 A2.5,2.5 0 0 1 919.16,606.3402 L919.16,491.3702 A2.5,2.5 0 0 1 921.66,488.8702" fill="#B0C4DE" style="stroke:#000000;stroke-width:1.5;"/><line style="stroke:#000000;stroke-width:1.5;" x1="919.16" x2="1079.6659" y1="511.3584" y2="511.3584"/><text fill="#808080" font-family="sans-serif" font-size="14" font-weight="bold" lengthAdjust="spacing" textLength="147.5059" x="923.16" y="504.4053">CI/CD Orchestration</text></g><!--cluster Infrastructure Layer (Edge)--><g class="cluster" data-entity="Infrastructure Layer .Edge." data-source-line="41" data-uid="ent0006" id="cluster_Infrastructure Layer .Edge."><path d="M421.66,194.4002 L616.7596,194.4002 A3.75,3.75 0 0 1 619.2596,196.9002 L626.2596,216.8884 L864.66,216.8884 A2.5,2.5 0 0 1 867.16,219.3884 L867.16,295.8802 A2.5,2.5 0 0 1 864.66,298.3802 L421.66,298.3802 A2.5,2.5 0 0 1 419.16,295.8802 L419.16,196.9002 A2.5,2.5 0 0 1 421.66,194.4002" fill="#D3D3D3" style="stroke:#000000;stroke-width:1.5;"/><line style="stroke:#000000;stroke-width:1.5;" x1="419.16" x2="626.2596" y1="216.8884" y2="216.8884"/><text fill="#808080" font-family="sans-serif" font-size="14" font-weight="bold" lengthAdjust="spacing" textLength="194.0996" x="423.16" y="209.9353">Infrastructure Layer (Edge)</text></g><!--cluster Infrastructure Layer--><g class="cluster" data-entity="Infrastructure Layer" data-source-line="47" data-uid="ent0009" id="cluster_Infrastructure Layer"><path d="M816.66,669.8802 L961.6454,669.8802 A3.75,3.75 0 0 1 964.1454,672.3802 L971.1454,692.3684 L1040.66,692.3684 A2.5,2.5 0 0 1 1043.16,694.8684 L1043.16,924.8702 A2.5,2.5 0 0 1 1040.66,927.3702 L816.66,927.3702 A2.5,2.5 0 0 1 814.16,924.8702 L814.16,672.3802 A2.5,2.5 0 0 1 816.66,669.8802" fill="#D3D3D3" style="stroke:#000000;stroke-width:1.5;"/><line style="stroke:#000000;stroke-width:1.5;" x1="814.16" x2="971.1454" y1="692.3684" y2="692.3684"/><text fill="#808080" font-family="sans-serif" font-size="14" font-weight="bold" lengthAdjust="spacing" textLength="143.9854" x="818.16" y="685.4153">Infrastructure Layer</text></g><!--cluster Intelligence Hub--><g class="cluster" data-entity="Intelligence Hub" data-source-line="53" data-uid="ent0012" id="cluster_Intelligence Hub"><path d="M256.66,331.3802 L375.327,331.3802 A3.75,3.75 0 0 1 377.827,333.8802 L384.827,353.8684 L564.66,353.8684 A2.5,2.5 0 0 1 567.16,356.3684 L567.16,754.8602 A2.5,2.5 0 0 1 564.66,757.3602 L256.66,757.3602 A2.5,2.5 0 0 1 254.16,754.8602 L254.16,333.8802 A2.5,2.5 0 0 1 256.66,331.3802" fill="#B0C4DE" style="stroke:#000000;stroke-width:1.5;"/><line style="stroke:#000000;stroke-width:1.5;" x1="254.16" x2="384.827" y1="353.8684" y2="353.8684"/><text fill="#808080" font-family="sans-serif" font-size="14" font-weight="bold" lengthAdjust="spacing" textLength="117.667" x="258.16" y="346.9153">Intelligence Hub</text></g><!--cluster Monitoring Layer--><g class="cluster" data-entity="Monitoring Layer" data-source-line="61" data-uid="ent0017" id="cluster_Monitoring Layer"><path d="M510.66,976.3702 L634.7342,976.3702 A3.75,3.75 0 0 1 637.2342,978.8702 L644.2342,998.8584 L875.66,998.8584 A2.5,2.5 0 0 1 878.16,1001.3584 L878.16,1061.3602 A2.5,2.5 0 0 1 875.66,1063.8602 L510.66,1063.8602 A2.5,2.5 0 0 1 508.16,1061.3602 L508.16,978.8702 A2.5,2.5 0 0 1 510.66,976.3702" fill="#FFFFE0" style="stroke:#000000;stroke-width:1.5;"/><line style="stroke:#000000;stroke-width:1.5;" x1="508.16" x2="644.2342" y1="998.8584" y2="998.8584"/><text fill="#808080" font-family="sans-serif" font-size="14" font-weight="bold" lengthAdjust="spacing" textLength="123.0742" x="512.16" y="991.9053">Monitoring Layer</text></g><!--entity Runner--><g class="entity" data-entity="Runner" data-source-line="37" data-uid="ent0005" id="entity_Runner"><rect fill="#F1F1F1" height="52.9766" rx="2.5" ry="2.5" style="stroke:#181818;stroke-width:0.5;" width="125.8545" x="943.23" y="531.8702"/><text fill="#808080" font-family="sans-serif" font-size="14" lengthAdjust="spacing" textLength="105.8545" x="953.23" y="555.4053">Pipeline Runner</text><text fill="#808080" font-family="sans-serif" font-size="14" lengthAdjust="spacing" textLength="103.667" x="953.23" y="571.8936">(Build Instance)</text></g><!--entity LB--><g class="entity" data-entity="LB" data-source-line="42" data-uid="ent0007" id="entity_LB"><rect fill="#F1F1F1" height="36.4883" rx="2.5" ry="2.5" style="stroke:#181818;stroke-width:0.5;" width="113.9873" x="435.16" y="237.6502"/><text fill="#808080" font-family="sans-serif" font-size="14" lengthAdjust="spacing" textLength="93.9873" x="445.16" y="261.1853">Load Balancer</text></g><!--entity Ingress--><g class="entity" data-entity="Ingress" data-source-line="43" data-uid="ent0008" id="entity_Ingress"><rect fill="#F1F1F1" height="52.9766" rx="2.5" ry="2.5" style="stroke:#181818;stroke-width:0.5;" width="141.8438" x="709.23" y="229.4002"/><text fill="#808080" font-family="sans-serif" font-size="14" lengthAdjust="spacing" textLength="121.8438" x="719.23" y="252.9353">Ingress Controller</text><text fill="#808080" font-family="sans-serif" font-size="14" lengthAdjust="spacing" textLength="119.8818" x="719.23" y="269.4236">(TLS Termination)</text></g><!--entity Queue--><g class="entity" data-entity="Queue" data-source-line="48" data-uid="ent0010" id="entity_Queue"><rect fill="#F1F1F1" height="36.4883" rx="2.5" ry="2.5" style="stroke:#181818;stroke-width:0.5;" width="57.9326" x="901.19" y="704.8802"/><text fill="#808080" font-family="sans-serif" font-size="14" lengthAdjust="spacing" textLength="37.9326" x="911.19" y="728.4153">Kafka</text></g><!--entity KEDA--><g class="entity" data-entity="KEDA" data-source-line="49" data-uid="ent0011" id="entity_KEDA"><rect fill="#FFD700" height="52.9766" rx="2.5" ry="2.5" style="stroke:#181818;stroke-width:0.5;" width="193.9883" x="833.16" y="858.4002"/><text fill="#808080" font-family="sans-serif" font-size="14" lengthAdjust="spacing" textLength="36.873" x="843.16" y="881.9353">KEDA</text><text fill="#808080" font-family="sans-serif" font-size="14" lengthAdjust="spacing" textLength="173.9883" x="843.16" y="898.4236">(Event-Driven Autoscaler)</text></g><!--entity CB--><g class="entity" data-entity="CB" data-source-line="54" data-uid="ent0013" id="entity_CB"><rect fill="#F1F1F1" height="36.4883" rx="2.5" ry="2.5" style="stroke:#181818;stroke-width:0.5;" width="120.0576" x="270.13" y="704.8802"/><text fill="#808080" font-family="sans-serif" font-size="14" lengthAdjust="spacing" textLength="100.0576" x="280.13" y="728.4153">Circuit Breaker</text></g><!--entity Ingestor--><g class="entity" data-entity="Ingestor" data-source-line="55" data-uid="ent0014" id="entity_Ingestor"><rect fill="#F1F1F1" height="36.4883" rx="2.5" ry="2.5" style="stroke:#181818;stroke-width:0.5;" width="111.5674" x="439.37" y="540.1102"/><text fill="#808080" font-family="sans-serif" font-size="14" lengthAdjust="spacing" textLength="91.5674" x="449.37" y="563.6453">Data Ingestor</text></g><!--entity Engine--><g class="entity" data-entity="Engine" data-source-line="56" data-uid="ent0015" id="entity_Engine"><rect fill="#F1F1F1" height="36.4883" rx="2.5" ry="2.5" style="stroke:#181818;stroke-width:0.5;" width="134.1602" x="270.08" y="540.1102"/><text fill="#808080" font-family="sans-serif" font-size="14" lengthAdjust="spacing" textLength="114.1602" x="280.08" y="563.6453">Signature Engine</text></g><!--entity Decision--><g class="entity" data-entity="Decision" data-source-line="57" data-uid="ent0016" id="entity_Decision"><rect fill="#F1F1F1" height="36.4883" rx="2.5" ry="2.5" style="stroke:#181818;stroke-width:0.5;" width="118.417" x="432.95" y="366.3802"/><text fill="#808080" font-family="sans-serif" font-size="14" lengthAdjust="spacing" textLength="98.417" x="442.95" y="389.9153">Decision Logic</text></g><!--entity Prom--><g class="entity" data-entity="Prom" data-source-line="62" data-uid="ent0018" id="entity_Prom"><rect fill="#FFA500" height="36.4883" rx="2.5" ry="2.5" style="stroke:#181818;stroke-width:0.5;" width="100.4863" x="761.91" y="1011.3702"/><text fill="#808080" font-family="sans-serif" font-size="14" lengthAdjust="spacing" textLength="80.4863" x="771.91" y="1034.9053">Prometheus</text></g><!--entity Graf--><g class="entity" data-entity="Graf" data-source-line="63" data-uid="ent0019" id="entity_Graf"><rect fill="#ADD8E6" height="36.4883" rx="2.5" ry="2.5" style="stroke:#181818;stroke-width:0.5;" width="72.876" x="523.72" y="1011.3702"/><text fill="#808080" font-family="sans-serif" font-size="14" lengthAdjust="spacing" textLength="52.876" x="533.72" y="1034.9053">Grafana</text></g><!--entity User--><g class="entity" data-entity="User" data-source-line="32" data-uid="ent0002" id="entity_User"><ellipse cx="392.1592" cy="60.9102" fill="#FFFFFF" rx="8" ry="8" style="stroke:#696969;stroke-width:3;"/><path d="M392.1592,68.9102 L392.1592,95.9102 M379.1592,76.9102 L405.1592,76.9102 M392.1592,95.9102 L379.1592,110.9102 M392.1592,95.9102 L405.1592,110.9102" fill="none" style="stroke:#696969;stroke-width:3;"/><text fill="#000000" font-family="sans-serif" font-size="14" lengthAdjust="spacing" textLength="68.3184" x="358" y="128.4453">Developer</text></g><!--entity GitHub--><g class="entity" data-entity="GitHub" data-source-line="33" data-uid="ent0003" id="entity_GitHub"><rect fill="#FFFFE0" height="52.9766" rx="2.5" ry="2.5" style="stroke:#181818;stroke-width:0.5;" width="183.8779" x="561.22" y="64.1702"/><text fill="#808080" font-family="sans-serif" font-size="14" lengthAdjust="spacing" textLength="47.1885" x="571.22" y="87.7053">GitHub</text><text fill="#808080" font-family="sans-serif" font-size="14" lengthAdjust="spacing" textLength="163.8779" x="571.22" y="104.1936">(Repository + Webhook)</text></g><!--entity Redis--><g class="entity" data-entity="Redis" data-source-line="67" data-uid="ent0020" id="entity_Redis"><path d="M431.83,872.1402 C431.83,862.1402 460.1537,862.1402 460.1537,862.1402 C460.1537,862.1402 488.4775,862.1402 488.4775,872.1402 L488.4775,897.6284 C488.4775,907.6284 460.1537,907.6284 460.1537,907.6284 C460.1537,907.6284 431.83,907.6284 431.83,897.6284 L431.83,872.1402" fill="#D3D3D3" style="stroke:#181818;stroke-width:0.5;"/><path d="M431.83,872.1402 C431.83,882.1402 460.1537,882.1402 460.1537,882.1402 C460.1537,882.1402 488.4775,882.1402 488.4775,872.1402" fill="none" style="stroke:#181818;stroke-width:0.5;"/><text fill="#808080" font-family="sans-serif" font-size="14" lengthAdjust="spacing" textLength="36.6475" x="441.83" y="899.6753">Redis</text></g><!--entity DB--><g class="entity" data-entity="DB" data-source-line="68" data-uid="ent0021" id="entity_DB"><path d="M257.1,1016.8702 C257.1,1006.8702 296.1527,1006.8702 296.1527,1006.8702 C296.1527,1006.8702 335.2055,1006.8702 335.2055,1016.8702 L335.2055,1042.3584 C335.2055,1052.3584 296.1527,1052.3584 296.1527,1052.3584 C296.1527,1052.3584 257.1,1052.3584 257.1,1042.3584 L257.1,1016.8702" fill="#D3D3D3" style="stroke:#181818;stroke-width:0.5;"/><path d="M257.1,1016.8702 C257.1,1026.8702 296.1527,1026.8702 296.1527,1026.8702 C296.1527,1026.8702 335.2055,1026.8702 335.2055,1016.8702" fill="none" style="stroke:#181818;stroke-width:0.5;"/><text fill="#808080" font-family="sans-serif" font-size="14" lengthAdjust="spacing" textLength="58.1055" x="267.1" y="1044.4053">Postgres</text></g><g class="entity" data-entity="GMN61" data-source-line="125" data-uid="ent0062" id="entity_GMN61"><path d="M192.53,1149.2002 L192.53,1174.5107 A0,0 0 0 0 192.53,1174.5107 L395.7712,1174.5107 A0,0 0 0 0 395.7712,1174.5107 L395.7712,1159.2002 L385.7712,1149.2002 L298.34,1149.2002 L295.82,1052.7102 L290.34,1149.2002 L192.53,1149.2002 A0,0 0 0 0 192.53,1149.2002" fill="#FEFFDD" style="stroke:#181818;stroke-width:0.5;"/><path d="M385.7712,1149.2002 L385.7712,1159.2002 L395.7712,1159.2002 L385.7712,1149.2002" fill="#FEFFDD" style="stroke:#181818;stroke-width:0.5;"/><text fill="#808080" font-family="sans-serif" font-size="13" lengthAdjust="spacing" textLength="182.2412" x="198.53" y="1166.7685">Stateful: Vertical scaling only</text></g><g class="entity" data-entity="GMN64" data-source-line="129" data-uid="ent0065" id="entity_GMN64"><path d="M724.84,1126.2402 L724.84,1197.4823 A0,0 0 0 0 724.84,1197.4823 L991.4753,1197.4823 A0,0 0 0 0 991.4753,1197.4823 L991.4753,1136.2402 L981.4753,1126.2402 L849.84,1126.2402 L818.36,1048.1802 L841.84,1126.2402 L724.84,1126.2402 A0,0 0 0 0 724.84,1126.2402" fill="#FEFFDD" style="stroke:#181818;stroke-width:0.5;"/><path d="M981.4753,1126.2402 L981.4753,1136.2402 L991.4753,1136.2402 L981.4753,1126.2402" fill="#FEFFDD" style="stroke:#181818;stroke-width:0.5;"/><text fill="#808080" font-family="sans-serif" font-size="13" font-weight="bold" lengthAdjust="spacing" textLength="82.9321" x="730.84" y="1143.8085">Prometheus:</text><text fill="#808080" font-family="sans-serif" font-size="13" lengthAdjust="spacing" textLength="245.6353" x="730.84" y="1159.1191">- Scrapes metrics from all components</text><text fill="#808080" font-family="sans-serif" font-size="13" lengthAdjust="spacing" textLength="158.6406" x="730.84" y="1174.4296">- Stores time-series data</text><text fill="#808080" font-family="sans-serif" font-size="13" lengthAdjust="spacing" textLength="240.4429" x="730.84" y="1189.7402">- Acts as the source of truth for alerts</text></g><g class="entity" data-entity="GMN67" data-source-line="136" data-uid="ent0068" id="entity_GMN67"><path d="M430.4,1126.2402 L430.4,1197.4823 A0,0 0 0 0 430.4,1197.4823 L689.9068,1197.4823 A0,0 0 0 0 689.9068,1197.4823 L689.9068,1136.2402 L679.9068,1126.2402 L564.16,1126.2402 L560.16,1048.1802 L556.16,1126.2402 L430.4,1126.2402 A0,0 0 0 0 430.4,1126.2402" fill="#FEFFDD" style="stroke:#181818;stroke-width:0.5;"/><path d="M679.9068,1126.2402 L679.9068,1136.2402 L689.9068,1136.2402 L679.9068,1126.2402" fill="#FEFFDD" style="stroke:#181818;stroke-width:0.5;"/><text fill="#808080" font-family="sans-serif" font-size="13" font-weight="bold" lengthAdjust="spacing" textLength="55.6689" x="436.4" y="1143.8085">Grafana:</text><text fill="#808080" font-family="sans-serif" font-size="13" lengthAdjust="spacing" textLength="238.5068" x="436.4" y="1159.1191">- Visualizes metrics from Prometheus</text><text fill="#808080" font-family="sans-serif" font-size="13" lengthAdjust="spacing" textLength="205.4419" x="436.4" y="1174.4296">- Provides real-time dashboards</text><text fill="#808080" font-family="sans-serif" font-size="13" lengthAdjust="spacing" textLength="230.7437" x="436.4" y="1189.7402">- Used for system health monitoring</text></g><g class="entity" data-entity="GMN70" data-source-line="143" data-uid="ent0071" id="entity_GMN70"><path d="M1059.02,679.8402 L1059.02,719.1202 L959.35,723.1202 L1059.02,727.1202 L1059.02,766.3929 A0,0 0 0 0 1059.02,766.3929 L1261.2837,766.3929 A0,0 0 0 0 1261.2837,766.3929 L1261.2837,689.8402 L1251.2837,679.8402 L1059.02,679.8402 A0,0 0 0 0 1059.02,679.8402" fill="#FEFFDD" style="stroke:#181818;stroke-width:0.5;"/><path d="M1251.2837,679.8402 L1251.2837,689.8402 L1261.2837,689.8402 L1251.2837,679.8402" fill="#FEFFDD" style="stroke:#181818;stroke-width:0.5;"/><text fill="#808080" font-family="sans-serif" font-size="13" font-weight="bold" lengthAdjust="spacing" textLength="78.3809" x="1065.02" y="697.4085">Availability:</text><text fill="#808080" font-family="sans-serif" font-size="13" lengthAdjust="spacing" textLength="148.002" x="1065.02" y="712.7191">- Min. 3 brokers across</text><text fill="#808080" font-family="sans-serif" font-size="13" lengthAdjust="spacing" textLength="173.0371" x="1073.2466" y="728.0296">different Availability Zones.</text><text fill="#808080" font-family="sans-serif" font-size="13" lengthAdjust="spacing" textLength="172.8403" x="1065.02" y="743.3402">- Automatic leader election</text><text fill="#808080" font-family="sans-serif" font-size="13" lengthAdjust="spacing" textLength="110.1445" x="1073.2466" y="758.6507">on broker failure.</text></g><g class="entity" data-entity="GMN73" data-source-line="151" data-uid="ent0074" id="entity_GMN73"><path d="M6,994.0002 L6,1065.2423 A0,0 0 0 0 6,1065.2423 L222.311,1065.2423 A0,0 0 0 0 222.311,1065.2423 L222.311,1033.6202 L256.78,1029.6202 L222.311,1025.6202 L222.311,1004.0002 L212.311,994.0002 L6,994.0002 A0,0 0 0 0 6,994.0002" fill="#FEFFDD" style="stroke:#181818;stroke-width:0.5;"/><path d="M212.311,994.0002 L212.311,1004.0002 L222.311,1004.0002 L212.311,994.0002" fill="#FEFFDD" style="stroke:#181818;stroke-width:0.5;"/><text fill="#808080" font-family="sans-serif" font-size="13" font-weight="bold" lengthAdjust="spacing" textLength="78.3809" x="12" y="1011.5685">Availability:</text><text fill="#808080" font-family="sans-serif" font-size="13" lengthAdjust="spacing" textLength="195.311" x="12" y="1026.8791">- Primary-Replica architecture.</text><text fill="#808080" font-family="sans-serif" font-size="13" lengthAdjust="spacing" textLength="190.1504" x="12" y="1042.1896">- Automatic failover to replica</text><text fill="#808080" font-family="sans-serif" font-size="13" lengthAdjust="spacing" textLength="162.7666" x="20.2266" y="1057.5002">upon Master node failure.</text></g><g class="entity" data-entity="GMN76" data-source-line="158" data-uid="ent0077" id="entity_GMN76"><path d="M1139.21,522.7302 L1139.21,593.9723 L1371.0918,593.9723 L1371.0918,532.7302 L1361.0918,522.7302 L1139.21,522.7302" fill="#FEFFDD" style="stroke:#181818;stroke-width:0.5;"/><path d="M1361.0918,522.7302 L1361.0918,532.7302 L1371.0918,532.7302 L1361.0918,522.7302" fill="#FEFFDD" style="stroke:#181818;stroke-width:1;"/><text fill="#808080" font-family="sans-serif" font-size="13" font-weight="bold" lengthAdjust="spacing" textLength="78.3809" x="1145.21" y="540.2985">Availability:</text><text fill="#808080" font-family="sans-serif" font-size="13" lengthAdjust="spacing" textLength="188.7793" x="1145.21" y="555.6091">- High Availability (HA) mode.</text><text fill="#808080" font-family="sans-serif" font-size="13" lengthAdjust="spacing" textLength="206.7686" x="1145.21" y="570.9196">- Standby instance automatically</text><text fill="#808080" font-family="sans-serif" font-size="13" lengthAdjust="spacing" textLength="188.9634" x="1153.4366" y="586.2302">takes over if the primary fails.</text></g><!--link User to GitHub--><g class="link" data-entity-1="User" data-entity-2="GitHub" data-source-line="71" data-uid="lnk22" id="link_User_GitHub"><path d="M426.81,90.6602 C460.93,90.6602 508.51,90.6602 554.98,90.6602" fill="none" id="User-to-GitHub" style="stroke:#808080;stroke-width:1;"/><polygon fill="#808080" points="560.98,90.6602,551.98,86.6602,555.98,90.6602,551.98,94.6602,560.98,90.6602" style="stroke:#808080;stroke-width:1;"/><text fill="#808080" font-family="sans-serif" font-size="13" lengthAdjust="spacing" textLength="98.6489" x="444.77" y="84.2285">git push/merge</text></g><!--reverse link User to GitHub--><g class="link" data-entity-1="User" data-entity-2="GitHub" data-source-line="72" data-uid="lnk24" id="link_User_GitHub"><path d="M432.4047,106.4994 C440.0447,108.9894 442.48,109.3602 450.27,110.6602 C486.22,116.6702 526.09,114.6102 560.9,110.0002" fill="none" id="User-backto-GitHub" style="stroke:#808080;stroke-width:1;"/><polygon fill="#808080" points="426.7,104.6402,434.0175,111.2321,431.4539,106.1895,436.4965,103.6259,426.7,104.6402" style="stroke:#808080;stroke-width:1;"/><text fill="#808080" font-family="sans-serif" font-size="13" lengthAdjust="spacing" textLength="85.3506" x="451.27" y="107.2285">review/status</text></g><!--link GitHub to LB--><g class="link" data-entity-1="GitHub" data-entity-2="LB" data-source-line="74" data-uid="lnk25" id="link_GitHub_LB"><path d="M627.64,117.5202 C594.66,150.9602 542.2929,204.058 513.8229,232.928" fill="none" id="GitHub-to-LB" style="stroke:#808080;stroke-width:1;"/><polygon fill="#808080" points="509.61,237.2002,518.7775,233.6006,513.1208,233.64,513.0813,227.9833,509.61,237.2002" style="stroke:#808080;stroke-width:1;"/><text fill="#808080" font-family="sans-serif" font-size="13" lengthAdjust="spacing" textLength="110.9316" x="583.29" y="174.9685">Webhook (HTTPS)</text></g><!--reverse link Ingress to LB--><g class="link" data-entity-1="Ingress" data-entity-2="LB" data-source-line="75" data-uid="lnk27" id="link_Ingress_LB"><path d="M702.98,255.8902 C653.81,255.8902 595.25,255.8902 549.4,255.8902" fill="none" id="Ingress-backto-LB" style="stroke:#808080;stroke-width:1;"/><polygon fill="#808080" points="708.98,255.8902,699.98,251.8902,703.98,255.8902,699.98,259.8902,708.98,255.8902" style="stroke:#808080;stroke-width:1;"/><text fill="#808080" font-family="sans-serif" font-size="13" lengthAdjust="spacing" textLength="124.2363" x="567.19" y="249.4585">Forward HTTPS/TLS</text></g><!--link Ingress to Runner--><g class="link" data-entity-1="Ingress" data-entity-2="Runner" data-source-line="76" data-uid="lnk28" id="link_Ingress_Runner"><path d="M779.54,282.8402 C779.97,313.6502 784.44,365.5502 807.16,402.8702 C842.52,460.9602 903.1101,502.5394 949.3501,528.5394" fill="none" id="Ingress-to-Runner" style="stroke:#808080;stroke-width:1;"/><polygon fill="#808080" points="954.58,531.4802,948.6956,523.5825,950.2217,529.0296,944.7746,530.5557,954.58,531.4802" style="stroke:#808080;stroke-width:1;"/><text fill="#808080" font-family="sans-serif" font-size="13" lengthAdjust="spacing" textLength="154.4956" x="808.16" y="389.6885">Trigger Workflow (HTTP)</text></g><!--reverse link Ingress to Runner--><g class="link" data-entity-1="Ingress" data-entity-2="Runner" data-source-line="98" data-uid="lnk48" id="link_Ingress_Runner"><path d="M857.3699,265.7747 C897.2399,273.8747 938.62,289.3002 967.16,323.3802 C1017.66,383.6802 1014.51,484.2502 1009.66,531.4302" fill="none" id="Ingress-backto-Runner" style="stroke:#FF0000;stroke-width:3;"/><polygon fill="#FF0000" points="851.49,264.5802,859.5135,270.2919,856.3899,265.5756,861.1062,262.4521,851.49,264.5802" style="stroke:#FF0000;stroke-width:3;"/><text fill="#808080" font-family="sans-serif" font-size="13" lengthAdjust="spacing" textLength="59.2681" x="1004.93" y="389.6885">API Proxy</text></g><!--reverse link GitHub to Ingress--><g class="link" data-entity-1="GitHub" data-entity-2="Ingress" data-source-line="77" data-uid="lnk30" id="link_GitHub_Ingress"><path d="M676.964,122.256 C700.744,152.826 736.39,198.6302 760.13,229.1502" fill="none" id="GitHub-backto-Ingress" style="stroke:#FF0000;stroke-width:3;"/><polygon fill="#FF0000" points="673.28,117.5202,675.6487,127.0799,676.35,121.4667,681.9632,122.168,673.28,117.5202" style="stroke:#FF0000;stroke-width:3;"/><text fill="#808080" font-family="sans-serif" font-size="13" lengthAdjust="spacing" textLength="119.8374" x="721.46" y="174.9685">Update Status (API)</text></g><!--link Runner to Queue--><g class="link" data-entity-1="Runner" data-entity-2="Queue" data-source-line="79" data-uid="lnk31" id="link_Runner_Queue"><path d="M995.51,585.3002 C987.91,603.5002 977.28,628.3302 967.16,649.8402 C958.27,668.7202 950.0938,684.6256 942.4138,699.1556" fill="none" id="Runner-to-Queue" style="stroke:#008000;stroke-width:3;"/><polygon fill="#008000" points="939.61,704.4602,947.3521,698.3725,941.9465,700.0397,940.2793,694.6341,939.61,704.4602" style="stroke:#008000;stroke-width:3;"/><text fill="#808080" font-family="sans-serif" font-size="13" lengthAdjust="spacing" textLength="107.3135" x="974.91" y="646.4085">Stream telemetry</text></g><!--reverse link CICD to KEDA--><g class="link" data-entity-1="CICD" data-entity-2="KEDA" data-source-line="82" data-uid="lnk33" id="link_CICD_KEDA"><path d="M1112.7544,614.4105 C1112.8488,614.6181 1110.6342,609.6604 1110.7312,609.8666 C1111.1189,610.6916 1111.5268,611.5055 1111.9557,612.3061 C1112.8135,613.9073 1113.7555,615.4555 1114.7896,616.9343 C1116.8577,619.8919 1119.2938,622.5714 1122.16,624.8402 C1141.16,639.8902 1319.35,620.4202 1340.16,632.8402 C1423.28,682.4802 1500.78,756.3002 1436.16,828.4002 C1409.43,858.2202 1166.9,873.6202 1027.55,880.0802" fill="none" id="CICD-backto-KEDA" style="stroke:#808080;stroke-width:1;stroke-dasharray:7,7;"/><polygon fill="#808080" points="1110.3034,608.9339,1110.3288,618.7828,1112.3459,613.4977,1117.6309,615.5148,1110.3034,608.9339" style="stroke:#808080;stroke-width:1;"/><text fill="#808080" font-family="sans-serif" font-size="13" lengthAdjust="spacing" textLength="172.3325" x="1460.87" y="720.6885">1. Scales Runners based on</text><text fill="#808080" font-family="sans-serif" font-size="13" lengthAdjust="spacing" textLength="140.1118" x="1476.9804" y="735.9991">Queue/Webhook Load</text></g><!--reverse link Ingestor to KEDA--><g class="link" data-entity-1="Ingestor" data-entity-2="KEDA" data-source-line="83" data-uid="lnk35" id="link_Ingestor_KEDA"><path d="M540.6614,579.6636 C566.6814,592.4936 594.77,609.1002 619.16,632.8402 C669.39,681.7702 651.54,718.9302 703.16,766.4002 C747.91,807.5402 809.77,838.3002 857.62,858.0002" fill="none" id="Ingestor-backto-KEDA" style="stroke:#808080;stroke-width:1;stroke-dasharray:7,7;"/><polygon fill="#808080" points="535.28,577.0102,541.5831,584.5779,539.7645,579.2214,545.121,577.4028,535.28,577.0102" style="stroke:#808080;stroke-width:1;"/><text fill="#808080" font-family="sans-serif" font-size="13" lengthAdjust="spacing" textLength="179.3022" x="704.16" y="720.6885">2. Scales Ingestors based on</text><text fill="#808080" font-family="sans-serif" font-size="13" lengthAdjust="spacing" textLength="130.1079" x="728.7572" y="735.9991">Kafka Consumer Lag</text></g><!--reverse link Queue to KEDA--><g class="link" data-entity-1="Queue" data-entity-2="KEDA" data-source-line="84" data-uid="lnk37" id="link_Queue_KEDA"><path d="M930.16,747.8302 C930.16,776.0202 930.16,825.2502 930.16,857.9202" fill="none" id="Queue-backto-KEDA" style="stroke:#0000FF;stroke-width:3;"/><polygon fill="#0000FF" points="930.16,741.8302,926.16,750.8302,930.16,746.8302,934.16,750.8302,930.16,741.8302" style="stroke:#0000FF;stroke-width:3;"/><text fill="#808080" font-family="sans-serif" font-size="13" lengthAdjust="spacing" textLength="160.5068" x="931.16" y="809.9685">1. Monitor Consumer Lag</text><text fill="#808080" font-family="sans-serif" font-size="13" lengthAdjust="spacing" textLength="96.1035" x="963.3617" y="825.2791">&amp; Queue Depth</text></g><!--reverse link Ingestor to Queue--><g class="link" data-entity-1="Ingestor" data-entity-2="Queue" data-source-line="87" data-uid="lnk39" id="link_Ingestor_Queue"><path d="M557.3498,567.2379 C631.9698,577.8879 758.61,602.7002 856.66,661.8802 C874.63,672.7202 890.42,690.9802 903.93,704.5502" fill="none" id="Ingestor-backto-Queue" style="stroke:#008000;stroke-width:3;"/><polygon fill="#008000" points="551.41,566.3902,559.7545,571.6217,556.3598,567.0966,560.8849,563.7019,551.41,566.3902" style="stroke:#008000;stroke-width:3;"/></g><!--reverse link Ingestor to Queue--><!--link Ingestor to Engine--><g class="link" data-entity-1="Ingestor" data-entity-2="Engine" data-source-line="88" data-uid="lnk40" id="link_Ingestor_Engine"><path d="M439.16,558.3502 C427.58,558.3502 422.01,558.3502 410.43,558.3502" fill="none" id="Ingestor-to-Engine" style="stroke:#008000;stroke-width:3;"/><polygon fill="#008000" points="404.43,558.3502,413.43,562.3502,409.43,558.3502,413.43,554.3502,404.43,558.3502" style="stroke:#008000;stroke-width:3;"/></g><!--link Engine to Redis--><g class="link" data-entity-1="Engine" data-entity-2="Redis" data-source-line="89" data-uid="lnk41" id="link_Engine_Redis"><path d="M358.639,581.0942 C374.669,596.4042 395.72,613.6902 422.16,624.8402 C433.74,629.7302 469.92,623.3502 478.16,632.8402 C492.97,649.9302 472.9325,797.5839 464.3825,855.7539" fill="none" id="Engine-Redis" style="stroke:#008000;stroke-width:3;"/><polygon fill="#008000" points="354.3,576.9502,358.0457,586.0589,357.9158,580.4036,363.5712,580.2736,354.3,576.9502" style="stroke:#008000;stroke-width:3;"/><polygon fill="#008000" points="463.51,861.6902,468.7763,853.3675,464.2371,856.7433,460.8613,852.2041,463.51,861.6902" style="stroke:#008000;stroke-width:3;"/><text fill="#808080" font-family="sans-serif" font-size="13" lengthAdjust="spacing" textLength="78.4824" x="484.32" y="728.1885">Cache check</text></g><!--link Engine to CB--><g class="link" data-entity-1="Engine" data-entity-2="CB" data-source-line="90" data-uid="lnk42" id="link_Engine_CB"><path d="M322.9841,582.1413 C314.5741,596.5413 306.73,612.5802 302.16,632.8402 C296.43,658.1902 305.8484,681.5063 315.9284,699.3463" fill="none" id="Engine-CB" style="stroke:#008000;stroke-width:3;"/><polygon fill="#008000" points="326.01,576.9602,318.0171,582.7145,323.4884,581.2777,324.9252,586.7491,326.01,576.9602" style="stroke:#008000;stroke-width:3;"/><polygon fill="#008000" points="318.88,704.5702,317.9352,694.7667,316.4204,700.217,310.9701,698.7022,318.88,704.5702" style="stroke:#008000;stroke-width:3;"/><text fill="#808080" font-family="sans-serif" font-size="13" lengthAdjust="spacing" textLength="170.6504" x="303.16" y="646.4085">Prevents cascading failures</text></g><!--link CB to DB--><g class="link" data-entity-1="CB" data-entity-2="DB" data-source-line="91" data-uid="lnk43" id="link_CB_DB"><path d="M327.0149,747.4272 C323.5949,773.0072 317.91,816.3702 313.16,858.4002 C307.14,911.5202 301.7338,968.1158 298.7238,1000.5858" fill="none" id="CB-DB" style="stroke:#008000;stroke-width:3;"/><polygon fill="#008000" points="327.81,741.4802,322.6526,749.8707,327.1474,746.4361,330.5821,750.9309,327.81,741.4802" style="stroke:#008000;stroke-width:3;"/><polygon fill="#008000" points="298.17,1006.5602,302.9837,997.9678,298.6315,1001.5815,295.0178,997.2294,298.17,1006.5602" style="stroke:#008000;stroke-width:3;"/><text fill="#808080" font-family="sans-serif" font-size="13" lengthAdjust="spacing" textLength="99.7217" x="314.16" y="889.9485">Persist/Fallback</text></g><!--reverse link Decision to Engine--><g class="link" data-entity-1="Decision" data-entity-2="Engine" data-source-line="92" data-uid="lnk45" id="link_Decision_Engine"><path d="M472.1302,407.8045 C442.3502,440.8045 382.79,506.8002 353.07,539.7202" fill="none" id="Decision-backto-Engine" style="stroke:#008000;stroke-width:3;"/><polygon fill="#008000" points="476.15,403.3502,467.1508,407.3519,472.8002,407.0621,473.09,412.7116,476.15,403.3502" style="stroke:#008000;stroke-width:3;"/></g><!--link Decision to Runner--><g class="link" data-entity-1="Decision" data-entity-2="Runner" data-source-line="95" data-uid="lnk46" id="link_Decision_Runner"><path d="M521.21,403.3502 C551.12,420.9902 599.54,447.8002 644.16,464.8702 C745.79,503.7402 863.7731,530.2209 937.1031,544.6609" fill="none" id="Decision-to-Runner" style="stroke:#FF0000;stroke-width:3;"/><polygon fill="#FF0000" points="942.99,545.8202,934.9324,540.1567,938.0842,544.8541,933.3867,548.0059,942.99,545.8202" style="stroke:#FF0000;stroke-width:3;"/><text fill="#808080" font-family="sans-serif" font-size="13" lengthAdjust="spacing" textLength="97.7856" x="650.4317" y="446.4385">1. Set PR Status</text><text fill="#808080" font-family="sans-serif" font-size="13" lengthAdjust="spacing" textLength="108.3291" x="645.16" y="461.7491">2. Abort Instance</text></g><!--link CB to Redis--><!--link Decision to Ingestor--><!--link LB to Decision--><!--link Ingestor to Prom--><g class="link" data-entity-1="Ingestor" data-entity-2="Prom" data-source-line="106" data-uid="lnk54" id="link_Ingestor_Prom"><path d="M511.52,576.8402 C528.78,596.2002 555.6,629.0402 571.16,661.8802 C603.84,730.8502 584.41,757.6902 613.16,828.4002 C638.9,891.7202 641.92,914.0102 692.16,960.3702 C715.23,981.6702 740.7046,996.4361 765.3646,1008.3161" fill="none" id="Ingestor-to-Prom" style="stroke:#808080;stroke-width:1;stroke-dasharray:7,7;"/><polygon fill="#808080" points="770.77,1010.9202,764.3979,1003.4104,766.2655,1008.7501,760.9258,1010.6177,770.77,1010.9202" style="stroke:#808080;stroke-width:1;"/><text fill="#808080" font-family="sans-serif" font-size="13" lengthAdjust="spacing" textLength="119.0376" x="614.16" y="817.4685">1. Expose /metrics</text></g><!--link Runner to Prom--><g class="link" data-entity-1="Runner" data-entity-2="Prom" data-source-line="107" data-uid="lnk55" id="link_Runner_Prom"><path d="M1026.06,585.2702 C1038.16,599.1902 1054.79,615.3802 1073.16,624.8402 C1155.84,667.4602 1219.48,590.5202 1279.16,661.8802 C1308.96,697.5102 1300.28,725.0202 1279.16,766.4002 C1196.06,929.1202 971.2405,995.2439 868.5005,1017.7939" fill="none" id="Runner-to-Prom" style="stroke:#808080;stroke-width:1;stroke-dasharray:7,7;"/><polygon fill="#808080" points="862.64,1019.0802,872.2883,1021.0577,867.5237,1018.0082,870.5732,1013.2437,862.64,1019.0802" style="stroke:#808080;stroke-width:1;"/><text fill="#808080" font-family="sans-serif" font-size="13" lengthAdjust="spacing" textLength="119.0376" x="1260.58" y="817.4685">1. Expose /metrics</text></g><!--link Queue to Prom--><g class="link" data-entity-1="Queue" data-entity-2="Prom" data-source-line="108" data-uid="lnk56" id="link_Queue_Prom"><path d="M908.7,741.6902 C898.52,749.6602 886.02,758.9502 874.16,766.4002 C798.4,813.9602 741.76,782.0502 695.16,858.4002 C677.33,887.6002 680.31,904.5502 695.16,935.3702 C711.73,969.7702 742.6198,992.4699 770.3698,1008.0699" fill="none" id="Queue-to-Prom" style="stroke:#808080;stroke-width:1;stroke-dasharray:7,7;"/><polygon fill="#808080" points="775.6,1011.0102,769.7148,1003.113,771.2415,1008.56,765.7945,1010.0866,775.6,1011.0102" style="stroke:#808080;stroke-width:1;"/><text fill="#808080" font-family="sans-serif" font-size="13" lengthAdjust="spacing" textLength="119.0376" x="696.16" y="889.9485">1. Expose /metrics</text></g><!--link KEDA to Prom--><g class="link" data-entity-1="KEDA" data-entity-2="Prom" data-source-line="109" data-uid="lnk57" id="link_KEDA_Prom"><path d="M908.79,911.7302 C885.01,940.4902 851.0632,981.5559 830.4932,1006.4359" fill="none" id="KEDA-to-Prom" style="stroke:#808080;stroke-width:1;stroke-dasharray:7,7;"/><polygon fill="#808080" points="826.67,1011.0602,835.4876,1006.6726,829.856,1007.2066,829.3219,1001.575,826.67,1011.0602" style="stroke:#808080;stroke-width:1;"/><text fill="#808080" font-family="sans-serif" font-size="13" lengthAdjust="spacing" textLength="119.0376" x="882.72" y="956.9385">1. Expose /metrics</text></g><!--reverse link Graf to Prom--><g class="link" data-entity-1="Graf" data-entity-2="Prom" data-source-line="112" data-uid="lnk59" id="link_Graf_Prom"><path d="M603.07,1029.6202 C646.54,1029.6202 712.98,1029.6202 761.64,1029.6202" fill="none" id="Graf-backto-Prom" style="stroke:#808080;stroke-width:1;"/><polygon fill="#808080" points="597.07,1029.6202,606.07,1033.6202,602.07,1029.6202,606.07,1025.6202,597.07,1029.6202" style="stroke:#808080;stroke-width:1;"/><text fill="#808080" font-family="sans-serif" font-size="13" lengthAdjust="spacing" textLength="129.0859" x="614.75" y="1023.1885">2. Real-time metrics</text></g><!--link DB to Graf--><g class="link" data-entity-1="DB" data-entity-2="Graf" data-source-line="113" data-uid="lnk60" id="link_DB_Graf"><path d="M335.68,1029.6202 C386.46,1029.6202 467.92,1029.6202 517.35,1029.6202" fill="none" id="DB-to-Graf" style="stroke:#808080;stroke-width:1;"/><polygon fill="#808080" points="523.35,1029.6202,514.35,1025.6202,518.35,1029.6202,514.35,1033.6202,523.35,1029.6202" style="stroke:#808080;stroke-width:1;"/><text fill="#808080" font-family="sans-serif" font-size="13" lengthAdjust="spacing" textLength="66.2759" x="396.3672" y="1008.1885">Historical/</text><text fill="#808080" font-family="sans-serif" font-size="13" lengthAdjust="spacing" textLength="150.0903" x="354.46" y="1023.4991">Business analytics (SQL)</text></g><!--link CICD to GMN76--><g class="link" data-entity-1="CICD" data-entity-2="GMN76" data-source-line="158" data-uid="lnk78" id="link_CICD_GMN76"><path d="M1112.1998,558.3502 C1112.5546,558.3502 1112.9094,558.3502 1113.2642,558.3502 C1116.1028,558.3502 1118.9419,558.3502 1121.7813,558.3502 C1127.46,558.3502 1133.14,558.3502 1138.82,558.3502" fill="none" id="CICD-GMN76" style="stroke:#808080;stroke-width:1;stroke-dasharray:7,7;"/></g></g></svg>