<?xml version="1.0" encoding="UTF-8" standalone="no"?>
<!DOCTYPE svg PUBLIC "-//W3C//DTD SVG 1.1//EN"
 "http://www.w3.org/Graphics/SVG/1.1/DTD/svg11.dtd">
<!-- Generated by graphviz version 13.0.0 (20250608.1624)
 -->
<!-- Pages: 1 -->
<svg width="1175pt" height="1328pt"
 viewBox="0.00 0.00 1175.00 1328.00" xmlns="http://www.w3.org/2000/svg" xmlns:xlink="http://www.w3.org/1999/xlink">
<g id="graph0" class="graph" transform="scale(1 1) rotate(0) translate(4 1324)">
<g id="clust1" class="cluster">
<title>cluster_pro</title>
<polygon fill="none" stroke="#546e7a" stroke-dasharray="5,2" points="8.5,-1106 8.5,-1294 284,-1294 284,-1106 8.5,-1106"/>
<text xml:space="preserve" text-anchor="middle" x="146.25" y="-1276.7" font-family="Times,serif" font-size="14.00">Professional Engineering &amp; CI/CD</text>
</g>
<!-- Expert -->
<g id="node1" class="node">
<title>Expert</title>
<path fill="#cfd8dc" stroke="black" stroke-width="1.5" d="M111.25,-459C111.25,-459 12,-459 12,-459 6,-459 0,-453 0,-447 0,-447 0,-433 0,-433 0,-427 6,-421 12,-421 12,-421 111.25,-421 111.25,-421 117.25,-421 123.25,-427 123.25,-433 123.25,-433 123.25,-447 123.25,-447 123.25,-453 117.25,-459 111.25,-459"/>
<text xml:space="preserve" text-anchor="middle" x="61.62" y="-441.7" font-family="Helvetica,sans-Serif" font-size="14.00" fill="#263238">IDStore Expert</text>
<text xml:space="preserve" text-anchor="middle" x="61.62" y="-426.7" font-family="Helvetica,sans-Serif" font-size="14.00" fill="#263238">(Python Architect)</text>
</g>
<!-- Dev -->
<g id="node12" class="node">
<title>Dev</title>
<path fill="#c8e6c9" stroke="black" stroke-width="1.5" d="M254.25,-876C254.25,-876 182,-876 182,-876 176,-876 170,-870 170,-864 170,-864 170,-852 170,-852 170,-846 176,-840 182,-840 182,-840 254.25,-840 254.25,-840 260.25,-840 266.25,-846 266.25,-852 266.25,-852 266.25,-864 266.25,-864 266.25,-870 260.25,-876 254.25,-876"/>
<text xml:space="preserve" text-anchor="middle" x="218.12" y="-852.2" font-family="Helvetica,sans-Serif" font-size="14.00" fill="#263238">Development</text>
</g>
<!-- Expert&#45;&gt;Dev -->
<g id="edge19" class="edge">
<title>Expert&#45;&gt;Dev</title>
<path fill="none" stroke="Green" stroke-width="2" d="M69.87,-459.6C94.59,-526.48 175.75,-746.07 205.8,-827.37"/>
<polygon fill="Green" stroke="Green" stroke-width="2" points="202.45,-828.39 209.2,-836.56 209.02,-825.97 202.45,-828.39"/>
</g>
<!-- Core -->
<g id="node20" class="node">
<title>Core</title>
<path fill="#eceff1" stroke="black" stroke-width="1.5" d="M876,-412C876,-412 846,-412 846,-412 840,-412 834,-406 834,-400 834,-400 834,-388 834,-388 834,-382 840,-376 846,-376 846,-376 876,-376 876,-376 882,-376 888,-382 888,-388 888,-388 888,-400 888,-400 888,-406 882,-412 876,-412"/>
<text xml:space="preserve" text-anchor="middle" x="861" y="-388.2" font-family="Helvetica,sans-Serif" font-size="14.00" fill="#263238">Core</text>
</g>
<!-- Expert&#45;&gt;Core -->
<g id="edge20" class="edge">
<title>Expert&#45;&gt;Core</title>
<path fill="none" stroke="Green" stroke-width="2" d="M104.58,-459.64C135.11,-472.14 177.8,-486 217.12,-486 217.12,-486 217.12,-486 666.12,-486 727.84,-486 790.86,-447.48 827.66,-420.29"/>
<polygon fill="Green" stroke="Green" stroke-width="2" points="829.51,-423.28 835.35,-414.45 825.27,-417.71 829.51,-423.28"/>
</g>
<!-- Async -->
<g id="node21" class="node">
<title>Async</title>
<path fill="#eceff1" stroke="black" stroke-width="1.5" d="M233.12,-412C233.12,-412 203.12,-412 203.12,-412 197.12,-412 191.12,-406 191.12,-400 191.12,-400 191.12,-388 191.12,-388 191.12,-382 197.12,-376 203.12,-376 203.12,-376 233.12,-376 233.12,-376 239.12,-376 245.12,-382 245.12,-388 245.12,-388 245.12,-400 245.12,-400 245.12,-406 239.12,-412 233.12,-412"/>
<text xml:space="preserve" text-anchor="middle" x="218.12" y="-388.2" font-family="Helvetica,sans-Serif" font-size="14.00" fill="#263238">Async</text>
</g>
<!-- Expert&#45;&gt;Async -->
<g id="edge21" class="edge">
<title>Expert&#45;&gt;Async</title>
<path fill="none" stroke="Green" stroke-width="2" d="M123.69,-421.82C142.24,-416.3 162.09,-410.38 178.71,-405.44"/>
<polygon fill="Green" stroke="Green" stroke-width="2" points="179.22,-408.94 187.81,-402.73 177.22,-402.23 179.22,-408.94"/>
</g>
<!-- Resilience -->
<g id="node22" class="node">
<title>Resilience</title>
<path fill="#eceff1" stroke="black" stroke-width="1.5" d="M245.25,-256C245.25,-256 191,-256 191,-256 185,-256 179,-250 179,-244 179,-244 179,-232 179,-232 179,-226 185,-220 191,-220 191,-220 245.25,-220 245.25,-220 251.25,-220 257.25,-226 257.25,-232 257.25,-232 257.25,-244 257.25,-244 257.25,-250 251.25,-256 245.25,-256"/>
<text xml:space="preserve" text-anchor="middle" x="218.12" y="-232.2" font-family="Helvetica,sans-Serif" font-size="14.00" fill="#263238">Resilience</text>
</g>
<!-- Expert&#45;&gt;Resilience -->
<g id="edge22" class="edge">
<title>Expert&#45;&gt;Resilience</title>
<path fill="none" stroke="Green" stroke-width="2" d="M77.72,-420.26C105.11,-384.45 163.11,-308.62 194.99,-266.94"/>
<polygon fill="Green" stroke="Green" stroke-width="2" points="197.74,-269.11 201.03,-259.04 192.18,-264.86 197.74,-269.11"/>
</g>
<!-- Logs -->
<g id="node23" class="node">
<title>Logs</title>
<path fill="#eceff1" stroke="black" stroke-width="1.5" d="M233.12,-121C233.12,-121 203.12,-121 203.12,-121 197.12,-121 191.12,-115 191.12,-109 191.12,-109 191.12,-97 191.12,-97 191.12,-91 197.12,-85 203.12,-85 203.12,-85 233.12,-85 233.12,-85 239.12,-85 245.12,-91 245.12,-97 245.12,-97 245.12,-109 245.12,-109 245.12,-115 239.12,-121 233.12,-121"/>
<text xml:space="preserve" text-anchor="middle" x="218.12" y="-97.2" font-family="Helvetica,sans-Serif" font-size="14.00" fill="#263238">Logs</text>
</g>
<!-- Expert&#45;&gt;Logs -->
<g id="edge23" class="edge">
<title>Expert&#45;&gt;Logs</title>
<path fill="none" stroke="Green" stroke-width="2" d="M70.33,-420.46C86.17,-380.62 123.97,-287.31 160.25,-211 173.01,-184.16 188.86,-154.31 200.59,-132.81"/>
<polygon fill="Green" stroke="Green" stroke-width="2" points="203.59,-134.6 205.34,-124.15 197.46,-131.23 203.59,-134.6"/>
</g>
<!-- Docs -->
<g id="node24" class="node">
<title>Docs</title>
<path fill="#eceff1" stroke="black" stroke-width="1.5" d="M233.12,-604C233.12,-604 203.12,-604 203.12,-604 197.12,-604 191.12,-598 191.12,-592 191.12,-592 191.12,-580 191.12,-580 191.12,-574 197.12,-568 203.12,-568 203.12,-568 233.12,-568 233.12,-568 239.12,-568 245.12,-574 245.12,-580 245.12,-580 245.12,-592 245.12,-592 245.12,-598 239.12,-604 233.12,-604"/>
<text xml:space="preserve" text-anchor="middle" x="218.12" y="-580.2" font-family="Helvetica,sans-Serif" font-size="14.00" fill="#263238">Docs</text>
</g>
<!-- Expert&#45;&gt;Docs -->
<g id="edge24" class="edge">
<title>Expert&#45;&gt;Docs</title>
<path fill="none" stroke="Green" stroke-width="2" d="M83.46,-459.69C110.52,-485.26 157.87,-530 188.34,-558.8"/>
<polygon fill="Green" stroke="Green" stroke-width="2" points="185.72,-561.14 195.39,-565.46 190.53,-556.05 185.72,-561.14"/>
</g>
<!-- ProEng -->
<g id="node2" class="node">
<title>ProEng</title>
<path fill="#b3e5fc" stroke="black" stroke-width="1.5" d="M94.75,-1208C94.75,-1208 28.5,-1208 28.5,-1208 22.5,-1208 16.5,-1202 16.5,-1196 16.5,-1196 16.5,-1182 16.5,-1182 16.5,-1176 22.5,-1170 28.5,-1170 28.5,-1170 94.75,-1170 94.75,-1170 100.75,-1170 106.75,-1176 106.75,-1182 106.75,-1182 106.75,-1196 106.75,-1196 106.75,-1202 100.75,-1208 94.75,-1208"/>
<text xml:space="preserve" text-anchor="middle" x="61.62" y="-1190.7" font-family="Helvetica,sans-Serif" font-size="14.00" fill="#263238">Professional</text>
<text xml:space="preserve" text-anchor="middle" x="61.62" y="-1175.7" font-family="Helvetica,sans-Serif" font-size="14.00" fill="#263238">Engineering</text>
</g>
<!-- CI/CD -->
<g id="node3" class="node">
<title>CI/CD</title>
<path fill="#eceff1" stroke="black" stroke-width="1.5" d="M264,-1152C264,-1152 172.25,-1152 172.25,-1152 166.25,-1152 160.25,-1146 160.25,-1140 160.25,-1140 160.25,-1126 160.25,-1126 160.25,-1120 166.25,-1114 172.25,-1114 172.25,-1114 264,-1114 264,-1114 270,-1114 276,-1120 276,-1126 276,-1126 276,-1140 276,-1140 276,-1146 270,-1152 264,-1152"/>
<text xml:space="preserve" text-anchor="middle" x="218.12" y="-1134.7" font-family="Helvetica,sans-Serif" font-size="14.00" fill="#263238">CI/CD Pipelines</text>
<text xml:space="preserve" text-anchor="middle" x="218.12" y="-1119.7" font-family="Helvetica,sans-Serif" font-size="14.00" fill="#263238">(GitHub Actions)</text>
</g>
<!-- ProEng&#45;&gt;CI/CD -->
<g id="edge1" class="edge">
<title>ProEng&#45;&gt;CI/CD</title>
<path fill="none" stroke="Green" stroke-width="2" d="M107.31,-1172.8C120.82,-1167.91 135.95,-1162.42 150.57,-1157.12"/>
<polygon fill="Green" stroke="Green" stroke-width="2" points="151.62,-1160.47 159.83,-1153.77 149.23,-1153.89 151.62,-1160.47"/>
</g>
<!-- Quality -->
<g id="node4" class="node">
<title>Quality</title>
<path fill="#cfd8dc" stroke="black" stroke-width="1.5" d="M258,-1264C258,-1264 178.25,-1264 178.25,-1264 172.25,-1264 166.25,-1258 166.25,-1252 166.25,-1252 166.25,-1238 166.25,-1238 166.25,-1232 172.25,-1226 178.25,-1226 178.25,-1226 258,-1226 258,-1226 264,-1226 270,-1232 270,-1238 270,-1238 270,-1252 270,-1252 270,-1258 264,-1264 258,-1264"/>
<text xml:space="preserve" text-anchor="middle" x="218.12" y="-1246.7" font-family="Helvetica,sans-Serif" font-size="14.00" fill="#263238">Static Analysis</text>
<text xml:space="preserve" text-anchor="middle" x="218.12" y="-1231.7" font-family="Helvetica,sans-Serif" font-size="14.00" fill="#263238">(Ruff / Mypy)</text>
</g>
<!-- ProEng&#45;&gt;Quality -->
<g id="edge2" class="edge">
<title>ProEng&#45;&gt;Quality</title>
<path fill="none" stroke="Green" stroke-width="2" d="M107.31,-1205.2C121.73,-1210.42 138,-1216.32 153.51,-1221.94"/>
<polygon fill="Green" stroke="Green" stroke-width="2" points="152.29,-1225.22 162.89,-1225.34 154.68,-1218.64 152.29,-1225.22"/>
</g>
<!-- Perf -->
<g id="node5" class="node">
<title>Perf</title>
<path fill="#e1bee7" stroke="black" stroke-width="1.5" d="M253.12,-1208C253.12,-1208 183.12,-1208 183.12,-1208 177.12,-1208 171.12,-1202 171.12,-1196 171.12,-1196 171.12,-1182 171.12,-1182 171.12,-1176 177.12,-1170 183.12,-1170 183.12,-1170 253.12,-1170 253.12,-1170 259.12,-1170 265.12,-1176 265.12,-1182 265.12,-1182 265.12,-1196 265.12,-1196 265.12,-1202 259.12,-1208 253.12,-1208"/>
<text xml:space="preserve" text-anchor="middle" x="218.12" y="-1190.7" font-family="Helvetica,sans-Serif" font-size="14.00" fill="#263238">Performance</text>
<text xml:space="preserve" text-anchor="middle" x="218.12" y="-1175.7" font-family="Helvetica,sans-Serif" font-size="14.00" fill="#263238">Engineering</text>
</g>
<!-- ProEng&#45;&gt;Perf -->
<g id="edge3" class="edge">
<title>ProEng&#45;&gt;Perf</title>
<path fill="none" stroke="Green" stroke-width="2" d="M107.31,-1189C123.08,-1189 141.06,-1189 157.84,-1189"/>
<polygon fill="Green" stroke="Green" stroke-width="2" points="157.36,-1192.5 167.36,-1189 157.36,-1185.5 157.36,-1192.5"/>
</g>
<!-- Sec -->
<g id="node6" class="node">
<title>Sec</title>
<path fill="#ffccbc" stroke="black" stroke-width="1.5" d="M436.25,-1320C436.25,-1320 343,-1320 343,-1320 337,-1320 331,-1314 331,-1308 331,-1308 331,-1294 331,-1294 331,-1288 337,-1282 343,-1282 343,-1282 436.25,-1282 436.25,-1282 442.25,-1282 448.25,-1288 448.25,-1294 448.25,-1294 448.25,-1308 448.25,-1308 448.25,-1314 442.25,-1320 436.25,-1320"/>
<text xml:space="preserve" text-anchor="middle" x="389.62" y="-1302.7" font-family="Helvetica,sans-Serif" font-size="14.00" fill="#263238">Security Auditing</text>
<text xml:space="preserve" text-anchor="middle" x="389.62" y="-1287.7" font-family="Helvetica,sans-Serif" font-size="14.00" fill="#263238">(pip&#45;audit)</text>
</g>
<!-- Quality&#45;&gt;Sec -->
<g id="edge4" class="edge">
<title>Quality&#45;&gt;Sec</title>
<path fill="none" stroke="Green" stroke-width="2" d="M270.44,-1261.95C285.5,-1266.93 302.25,-1272.46 318.28,-1277.76"/>
<polygon fill="Green" stroke="Green" stroke-width="2" points="316.89,-1280.99 327.49,-1280.8 319.09,-1274.34 316.89,-1280.99"/>
</g>
<!-- SBOM -->
<g id="node7" class="node">
<title>SBOM</title>
<path fill="#fff9c4" stroke="black" stroke-width="1.5" d="M437,-1264C437,-1264 342.25,-1264 342.25,-1264 336.25,-1264 330.25,-1258 330.25,-1252 330.25,-1252 330.25,-1238 330.25,-1238 330.25,-1232 336.25,-1226 342.25,-1226 342.25,-1226 437,-1226 437,-1226 443,-1226 449,-1232 449,-1238 449,-1238 449,-1252 449,-1252 449,-1258 443,-1264 437,-1264"/>
<text xml:space="preserve" text-anchor="middle" x="389.62" y="-1246.7" font-family="Helvetica,sans-Serif" font-size="14.00" fill="#263238">Supply Chain</text>
<text xml:space="preserve" text-anchor="middle" x="389.62" y="-1231.7" font-family="Helvetica,sans-Serif" font-size="14.00" fill="#263238">Security (SBOM)</text>
</g>
<!-- Quality&#45;&gt;SBOM -->
<g id="edge5" class="edge">
<title>Quality&#45;&gt;SBOM</title>
<path fill="none" stroke="Green" stroke-width="2" d="M270.44,-1245C285.06,-1245 301.25,-1245 316.85,-1245"/>
<polygon fill="Green" stroke="Green" stroke-width="2" points="316.73,-1248.5 326.73,-1245 316.73,-1241.5 316.73,-1248.5"/>
</g>
<!-- Latency -->
<g id="node9" class="node">
<title>Latency</title>
<path fill="#eceff1" stroke="black" stroke-width="1.5" d="M423.88,-1208C423.88,-1208 355.38,-1208 355.38,-1208 349.38,-1208 343.38,-1202 343.38,-1196 343.38,-1196 343.38,-1182 343.38,-1182 343.38,-1176 349.38,-1170 355.38,-1170 355.38,-1170 423.88,-1170 423.88,-1170 429.88,-1170 435.88,-1176 435.88,-1182 435.88,-1182 435.88,-1196 435.88,-1196 435.88,-1202 429.88,-1208 423.88,-1208"/>
<text xml:space="preserve" text-anchor="middle" x="389.62" y="-1190.7" font-family="Helvetica,sans-Serif" font-size="14.00" fill="#263238">Latency</text>
<text xml:space="preserve" text-anchor="middle" x="389.62" y="-1175.7" font-family="Helvetica,sans-Serif" font-size="14.00" fill="#263238">Optimization</text>
</g>
<!-- Perf&#45;&gt;Latency -->
<g id="edge8" class="edge">
<title>Perf&#45;&gt;Latency</title>
<path fill="none" stroke="Green" stroke-width="2" d="M265.44,-1189C285.33,-1189 308.8,-1189 329.89,-1189"/>
<polygon fill="Green" stroke="Green" stroke-width="2" points="329.63,-1192.5 339.63,-1189 329.63,-1185.5 329.63,-1192.5"/>
</g>
<!-- Throughput -->
<g id="node10" class="node">
<title>Throughput</title>
<path fill="#eceff1" stroke="black" stroke-width="1.5" d="M420.12,-1152C420.12,-1152 359.12,-1152 359.12,-1152 353.12,-1152 347.12,-1146 347.12,-1140 347.12,-1140 347.12,-1126 347.12,-1126 347.12,-1120 353.12,-1114 359.12,-1114 359.12,-1114 420.12,-1114 420.12,-1114 426.12,-1114 432.12,-1120 432.12,-1126 432.12,-1126 432.12,-1140 432.12,-1140 432.12,-1146 426.12,-1152 420.12,-1152"/>
<text xml:space="preserve" text-anchor="middle" x="389.62" y="-1134.7" font-family="Helvetica,sans-Serif" font-size="14.00" fill="#263238">System</text>
<text xml:space="preserve" text-anchor="middle" x="389.62" y="-1119.7" font-family="Helvetica,sans-Serif" font-size="14.00" fill="#263238">Throughput</text>
</g>
<!-- Perf&#45;&gt;Throughput -->
<g id="edge9" class="edge">
<title>Perf&#45;&gt;Throughput</title>
<path fill="none" stroke="Green" stroke-width="2" d="M265.44,-1173.7C286.68,-1166.68 312,-1158.31 334.15,-1151"/>
<polygon fill="Green" stroke="Green" stroke-width="2" points="335.16,-1154.35 343.55,-1147.89 332.96,-1147.71 335.16,-1154.35"/>
</g>
<!-- Profiling -->
<g id="node11" class="node">
<title>Profiling</title>
<path fill="#eceff1" stroke="black" stroke-width="1.5" d="M443.38,-1096C443.38,-1096 335.88,-1096 335.88,-1096 329.88,-1096 323.88,-1090 323.88,-1084 323.88,-1084 323.88,-1070 323.88,-1070 323.88,-1064 329.88,-1058 335.88,-1058 335.88,-1058 443.38,-1058 443.38,-1058 449.38,-1058 455.38,-1064 455.38,-1070 455.38,-1070 455.38,-1084 455.38,-1084 455.38,-1090 449.38,-1096 443.38,-1096"/>
<text xml:space="preserve" text-anchor="middle" x="389.62" y="-1078.7" font-family="Helvetica,sans-Serif" font-size="14.00" fill="#263238">Benchmarking</text>
<text xml:space="preserve" text-anchor="middle" x="389.62" y="-1063.7" font-family="Helvetica,sans-Serif" font-size="14.00" fill="#263238">(py&#45;spy / hyperfine)</text>
</g>
<!-- Perf&#45;&gt;Profiling -->
<g id="edge10" class="edge">
<title>Perf&#45;&gt;Profiling</title>
<path fill="none" stroke="Green" stroke-width="2" d="M265.84,-1173.54C272.41,-1170.08 278.71,-1165.93 284,-1161 304.5,-1141.89 292,-1123.56 313,-1105 313.45,-1104.61 313.9,-1104.22 314.36,-1103.83"/>
<polygon fill="Green" stroke="Green" stroke-width="2" points="316.07,-1106.91 322.22,-1098.28 312.03,-1101.19 316.07,-1106.91"/>
</g>
<!-- Artifacts -->
<g id="node8" class="node">
<title>Artifacts</title>
<path fill="#e1f5fe" stroke="black" stroke-width="1.5" d="M720.38,-1264C720.38,-1264 609.88,-1264 609.88,-1264 603.88,-1264 597.88,-1258 597.88,-1252 597.88,-1252 597.88,-1238 597.88,-1238 597.88,-1232 603.88,-1226 609.88,-1226 609.88,-1226 720.38,-1226 720.38,-1226 726.38,-1226 732.38,-1232 732.38,-1238 732.38,-1238 732.38,-1252 732.38,-1252 732.38,-1258 726.38,-1264 720.38,-1264"/>
<text xml:space="preserve" text-anchor="middle" x="665.12" y="-1246.7" font-family="Helvetica,sans-Serif" font-size="14.00" fill="#263238">Final</text>
<text xml:space="preserve" text-anchor="middle" x="665.12" y="-1231.7" font-family="Helvetica,sans-Serif" font-size="14.00" fill="#263238">Application Artifacts</text>
</g>
<!-- Sec&#45;&gt;Artifacts -->
<g id="edge6" class="edge">
<title>Sec&#45;&gt;Artifacts</title>
<path fill="none" stroke="Green" stroke-width="2" d="M448.96,-1289.06C488.51,-1280.96 541.28,-1270.15 584.67,-1261.27"/>
<polygon fill="Green" stroke="Green" stroke-width="2" points="585.16,-1264.74 594.25,-1259.31 583.75,-1257.88 585.16,-1264.74"/>
</g>
<!-- SBOM&#45;&gt;Artifacts -->
<g id="edge7" class="edge">
<title>SBOM&#45;&gt;Artifacts</title>
<path fill="none" stroke="Green" stroke-width="2" d="M449.63,-1245C489.14,-1245 541.61,-1245 584.76,-1245"/>
<polygon fill="Green" stroke="Green" stroke-width="2" points="584.51,-1248.5 594.51,-1245 584.51,-1241.5 584.51,-1248.5"/>
</g>
<!-- Test -->
<g id="node13" class="node">
<title>Test</title>
<path fill="#eceff1" stroke="black" stroke-width="1.5" d="M404.62,-930C404.62,-930 374.62,-930 374.62,-930 368.62,-930 362.62,-924 362.62,-918 362.62,-918 362.62,-906 362.62,-906 362.62,-900 368.62,-894 374.62,-894 374.62,-894 404.62,-894 404.62,-894 410.62,-894 416.62,-900 416.62,-906 416.62,-906 416.62,-918 416.62,-918 416.62,-924 410.62,-930 404.62,-930"/>
<text xml:space="preserve" text-anchor="middle" x="389.62" y="-906.2" font-family="Helvetica,sans-Serif" font-size="14.00" fill="#263238">Test</text>
</g>
<!-- Dev&#45;&gt;Test -->
<g id="edge11" class="edge">
<title>Dev&#45;&gt;Test</title>
<path fill="none" stroke="Green" stroke-width="2" d="M266.79,-873.19C293.14,-881.58 325.45,-891.87 350.17,-899.75"/>
<polygon fill="Green" stroke="Green" stroke-width="2" points="348.86,-903 359.45,-902.71 350.99,-896.34 348.86,-903"/>
</g>
<!-- Pkg -->
<g id="node14" class="node">
<title>Pkg</title>
<path fill="#eceff1" stroke="black" stroke-width="1.5" d="M404.62,-876C404.62,-876 374.62,-876 374.62,-876 368.62,-876 362.62,-870 362.62,-864 362.62,-864 362.62,-852 362.62,-852 362.62,-846 368.62,-840 374.62,-840 374.62,-840 404.62,-840 404.62,-840 410.62,-840 416.62,-846 416.62,-852 416.62,-852 416.62,-864 416.62,-864 416.62,-870 410.62,-876 404.62,-876"/>
<text xml:space="preserve" text-anchor="middle" x="389.62" y="-852.2" font-family="Helvetica,sans-Serif" font-size="14.00" fill="#263238">Pkg</text>
</g>
<!-- Dev&#45;&gt;Pkg -->
<g id="edge12" class="edge">
<title>Dev&#45;&gt;Pkg</title>
<path fill="none" stroke="Green" stroke-width="2" d="M266.79,-858C292.9,-858 324.85,-858 349.49,-858"/>
<polygon fill="Green" stroke="Green" stroke-width="2" points="349.31,-861.5 359.31,-858 349.31,-854.5 349.31,-861.5"/>
</g>
<!-- Lint -->
<g id="node15" class="node">
<title>Lint</title>
<path fill="#eceff1" stroke="black" stroke-width="1.5" d="M404.62,-822C404.62,-822 374.62,-822 374.62,-822 368.62,-822 362.62,-816 362.62,-810 362.62,-810 362.62,-798 362.62,-798 362.62,-792 368.62,-786 374.62,-786 374.62,-786 404.62,-786 404.62,-786 410.62,-786 416.62,-792 416.62,-798 416.62,-798 416.62,-810 416.62,-810 416.62,-816 410.62,-822 404.62,-822"/>
<text xml:space="preserve" text-anchor="middle" x="389.62" y="-798.2" font-family="Helvetica,sans-Serif" font-size="14.00" fill="#263238">Lint</text>
</g>
<!-- Dev&#45;&gt;Lint -->
<g id="edge13" class="edge">
<title>Dev&#45;&gt;Lint</title>
<path fill="none" stroke="Green" stroke-width="2" d="M266.79,-842.81C293.14,-834.42 325.45,-824.13 350.17,-816.25"/>
<polygon fill="Green" stroke="Green" stroke-width="2" points="350.99,-819.66 359.45,-813.29 348.86,-813 350.99,-819.66"/>
</g>
<!-- devpi -->
<g id="node16" class="node">
<title>devpi</title>
<path fill="#fff9c4" stroke="black" stroke-width="1.5" d="M435.88,-986C435.88,-986 343.38,-986 343.38,-986 337.38,-986 331.38,-980 331.38,-974 331.38,-974 331.38,-960 331.38,-960 331.38,-954 337.38,-948 343.38,-948 343.38,-948 435.88,-948 435.88,-948 441.88,-948 447.88,-954 447.88,-960 447.88,-960 447.88,-974 447.88,-974 447.88,-980 441.88,-986 435.88,-986"/>
<text xml:space="preserve" text-anchor="middle" x="389.62" y="-968.7" font-family="Helvetica,sans-Serif" font-size="14.00" fill="#263238">devpi</text>
<text xml:space="preserve" text-anchor="middle" x="389.62" y="-953.7" font-family="Helvetica,sans-Serif" font-size="14.00" fill="#263238">(Sandbox Proxy)</text>
</g>
<!-- Dev&#45;&gt;devpi -->
<g id="edge14" class="edge">
<title>Dev&#45;&gt;devpi</title>
<path fill="none" stroke="Green" stroke-width="2" d="M236.65,-876.58C254.45,-894.57 283.53,-921.6 313,-939 314.99,-940.18 317.04,-941.32 319.14,-942.42"/>
<polygon fill="Green" stroke="Green" stroke-width="2" points="317.39,-945.47 327.92,-946.68 320.44,-939.17 317.39,-945.47"/>
</g>
<!-- Load -->
<g id="node17" class="node">
<title>Load</title>
<path fill="#eceff1" stroke="black" stroke-width="1.5" d="M404.62,-1040C404.62,-1040 374.62,-1040 374.62,-1040 368.62,-1040 362.62,-1034 362.62,-1028 362.62,-1028 362.62,-1016 362.62,-1016 362.62,-1010 368.62,-1004 374.62,-1004 374.62,-1004 404.62,-1004 404.62,-1004 410.62,-1004 416.62,-1010 416.62,-1016 416.62,-1016 416.62,-1028 416.62,-1028 416.62,-1034 410.62,-1040 404.62,-1040"/>
<text xml:space="preserve" text-anchor="middle" x="389.62" y="-1016.2" font-family="Helvetica,sans-Serif" font-size="14.00" fill="#263238">Load</text>
</g>
<!-- Dev&#45;&gt;Load -->
<g id="edge15" class="edge">
<title>Dev&#45;&gt;Load</title>
<path fill="none" stroke="Green" stroke-width="2" d="M227.25,-876.73C240.87,-906.01 270.98,-962.62 313,-995 323.77,-1003.3 337.3,-1009.19 349.94,-1013.31"/>
<polygon fill="Green" stroke="Green" stroke-width="2" points="348.65,-1016.58 359.23,-1016.01 350.6,-1009.86 348.65,-1016.58"/>
</g>
<!-- Persist -->
<g id="node18" class="node">
<title>Persist</title>
<path fill="#eceff1" stroke="black" stroke-width="1.5" d="M406.25,-768C406.25,-768 373,-768 373,-768 367,-768 361,-762 361,-756 361,-756 361,-744 361,-744 361,-738 367,-732 373,-732 373,-732 406.25,-732 406.25,-732 412.25,-732 418.25,-738 418.25,-744 418.25,-744 418.25,-756 418.25,-756 418.25,-762 412.25,-768 406.25,-768"/>
<text xml:space="preserve" text-anchor="middle" x="389.62" y="-744.2" font-family="Helvetica,sans-Serif" font-size="14.00" fill="#263238">Persist</text>
</g>
<!-- Dev&#45;&gt;Persist -->
<g id="edge16" class="edge">
<title>Dev&#45;&gt;Persist</title>
<path fill="none" stroke="Green" stroke-width="2" d="M236.61,-839.34C254.37,-821.3 283.42,-794.23 313,-777 323.88,-770.66 336.5,-765.44 348.27,-761.32"/>
<polygon fill="Green" stroke="Green" stroke-width="2" points="349.3,-764.67 357.72,-758.24 347.13,-758.02 349.3,-764.67"/>
</g>
<!-- devpi&#45;&gt;Artifacts -->
<g id="edge17" class="edge">
<title>devpi&#45;&gt;Artifacts</title>
<path fill="none" stroke="Green" stroke-width="2" stroke-dasharray="5,2" d="M448.5,-984.6C454.75,-987.6 460.81,-991.05 466.25,-995 550.4,-1056.09 617.61,-1162.15 647.42,-1214.28"/>
<polygon fill="Green" stroke="Green" stroke-width="2" points="644.26,-1215.8 652.21,-1222.8 650.36,-1212.37 644.26,-1215.8"/>
</g>
<!-- Audit -->
<g id="node19" class="node">
<title>Audit</title>
<path fill="#ffccbc" stroke="black" stroke-width="1.5" d="M738,-985C738,-985 592.25,-985 592.25,-985 586.25,-985 580.25,-979 580.25,-973 580.25,-973 580.25,-961 580.25,-961 580.25,-955 586.25,-949 592.25,-949 592.25,-949 738,-949 738,-949 744,-949 750,-955 750,-961 750,-961 750,-973 750,-973 750,-979 744,-985 738,-985"/>
<text xml:space="preserve" text-anchor="middle" x="665.12" y="-961.2" font-family="Helvetica,sans-Serif" font-size="14.00" fill="#263238">Compliance Policy Check</text>
</g>
<!-- devpi&#45;&gt;Audit -->
<g id="edge18" class="edge">
<title>devpi&#45;&gt;Audit</title>
<path fill="none" stroke="Green" stroke-width="2" stroke-dasharray="1,5" d="M448.29,-967C482.58,-967 526.98,-967 566.59,-967"/>
<polygon fill="Green" stroke="Green" stroke-width="2" points="566.51,-970.5 576.51,-967 566.51,-963.5 566.51,-970.5"/>
<text xml:space="preserve" text-anchor="middle" x="523.25" y="-968.7" font-family="Helvetica,sans-Serif" font-size="14.00" fill="#a39a9a">Policy Check</text>
</g>
<!-- Data -->
<g id="node25" class="node">
<title>Data</title>
<path fill="#eceff1" stroke="black" stroke-width="1.5" d="M1008.38,-493C1008.38,-493 978.38,-493 978.38,-493 972.38,-493 966.38,-487 966.38,-481 966.38,-481 966.38,-469 966.38,-469 966.38,-463 972.38,-457 978.38,-457 978.38,-457 1008.38,-457 1008.38,-457 1014.38,-457 1020.38,-463 1020.38,-469 1020.38,-469 1020.38,-481 1020.38,-481 1020.38,-487 1014.38,-493 1008.38,-493"/>
<text xml:space="preserve" text-anchor="middle" x="993.38" y="-469.2" font-family="Helvetica,sans-Serif" font-size="14.00" fill="#263238">Data</text>
</g>
<!-- Core&#45;&gt;Data -->
<g id="edge25" class="edge">
<title>Core&#45;&gt;Data</title>
<path fill="none" stroke="Green" stroke-width="2" d="M880.31,-412.54C892.25,-423.88 908.62,-438.07 925,-448 933.94,-453.42 944.16,-458.16 953.9,-462.1"/>
<polygon fill="Green" stroke="Green" stroke-width="2" points="952.41,-465.28 963,-465.56 954.9,-458.73 952.41,-465.28"/>
</g>
<!-- Queue -->
<g id="node26" class="node">
<title>Queue</title>
<path fill="#eceff1" stroke="black" stroke-width="1.5" d="M1010,-439C1010,-439 976.75,-439 976.75,-439 970.75,-439 964.75,-433 964.75,-427 964.75,-427 964.75,-415 964.75,-415 964.75,-409 970.75,-403 976.75,-403 976.75,-403 1010,-403 1010,-403 1016,-403 1022,-409 1022,-415 1022,-415 1022,-427 1022,-427 1022,-433 1016,-439 1010,-439"/>
<text xml:space="preserve" text-anchor="middle" x="993.38" y="-415.2" font-family="Helvetica,sans-Serif" font-size="14.00" fill="#263238">Queue</text>
</g>
<!-- Core&#45;&gt;Queue -->
<g id="edge26" class="edge">
<title>Core&#45;&gt;Queue</title>
<path fill="none" stroke="Green" stroke-width="2" d="M888.7,-399.53C906.87,-403.29 931.27,-408.34 951.83,-412.6"/>
<polygon fill="Green" stroke="Green" stroke-width="2" points="950.9,-415.98 961.4,-414.58 952.31,-409.13 950.9,-415.98"/>
</g>
<!-- Buffer -->
<g id="node27" class="node">
<title>Buffer</title>
<path fill="#eceff1" stroke="black" stroke-width="1.5" d="M1008.38,-385C1008.38,-385 978.38,-385 978.38,-385 972.38,-385 966.38,-379 966.38,-373 966.38,-373 966.38,-361 966.38,-361 966.38,-355 972.38,-349 978.38,-349 978.38,-349 1008.38,-349 1008.38,-349 1014.38,-349 1020.38,-355 1020.38,-361 1020.38,-361 1020.38,-373 1020.38,-373 1020.38,-379 1014.38,-385 1008.38,-385"/>
<text xml:space="preserve" text-anchor="middle" x="993.38" y="-361.2" font-family="Helvetica,sans-Serif" font-size="14.00" fill="#263238">Buffer</text>
</g>
<!-- Core&#45;&gt;Buffer -->
<g id="edge27" class="edge">
<title>Core&#45;&gt;Buffer</title>
<path fill="none" stroke="Green" stroke-width="2" d="M888.7,-388.47C907.24,-384.63 932.26,-379.45 953.07,-375.14"/>
<polygon fill="Green" stroke="Green" stroke-width="2" points="953.67,-378.59 962.75,-373.14 952.25,-371.74 953.67,-378.59"/>
</g>
<!-- StorageInterface -->
<g id="node28" class="node">
<title>StorageInterface</title>
<path fill="#eceff1" stroke="black" stroke-width="1.5" d="M1049.75,-331C1049.75,-331 937,-331 937,-331 931,-331 925,-325 925,-319 925,-319 925,-305 925,-305 925,-299 931,-293 937,-293 937,-293 1049.75,-293 1049.75,-293 1055.75,-293 1061.75,-299 1061.75,-305 1061.75,-305 1061.75,-319 1061.75,-319 1061.75,-325 1055.75,-331 1049.75,-331"/>
<text xml:space="preserve" text-anchor="middle" x="993.38" y="-313.7" font-family="Helvetica,sans-Serif" font-size="14.00" fill="#263238">StorageInterface</text>
<text xml:space="preserve" text-anchor="middle" x="993.38" y="-298.7" font-family="Helvetica,sans-Serif" font-size="14.00" fill="#263238">(Repository Pattern)</text>
</g>
<!-- Core&#45;&gt;StorageInterface -->
<g id="edge28" class="edge">
<title>Core&#45;&gt;StorageInterface</title>
<path fill="none" stroke="Green" stroke-width="2" d="M880.62,-375.28C892.56,-364 908.8,-349.96 925,-340 926.37,-339.16 927.76,-338.34 929.18,-337.53"/>
<polygon fill="Green" stroke="Green" stroke-width="2" points="930.51,-340.78 937.73,-333.03 927.25,-334.59 930.51,-340.78"/>
</g>
<!-- Async&#45;&gt;Core -->
<g id="edge47" class="edge">
<title>Async&#45;&gt;Core</title>
<path fill="none" stroke="#78909c" stroke-width="2" stroke-dasharray="5,2" d="M245.85,-394C346.33,-394 701.81,-394 820.84,-394"/>
<polygon fill="#78909c" stroke="#78909c" stroke-width="2" points="820.49,-397.5 830.49,-394 820.49,-390.5 820.49,-397.5"/>
<text xml:space="preserve" text-anchor="middle" x="523.25" y="-395.7" font-family="Helvetica,sans-Serif" font-size="14.00" fill="#a39a9a">drives</text>
</g>
<!-- Event -->
<g id="node31" class="node">
<title>Event</title>
<path fill="#eceff1" stroke="black" stroke-width="1.5" d="M419.75,-366C419.75,-366 359.5,-366 359.5,-366 353.5,-366 347.5,-360 347.5,-354 347.5,-354 347.5,-340 347.5,-340 347.5,-334 353.5,-328 359.5,-328 359.5,-328 419.75,-328 419.75,-328 425.75,-328 431.75,-334 431.75,-340 431.75,-340 431.75,-354 431.75,-354 431.75,-360 425.75,-366 419.75,-366"/>
<text xml:space="preserve" text-anchor="middle" x="389.62" y="-348.7" font-family="Helvetica,sans-Serif" font-size="14.00" fill="#263238">Event Loop</text>
<text xml:space="preserve" text-anchor="middle" x="389.62" y="-333.7" font-family="Helvetica,sans-Serif" font-size="14.00" fill="#263238">(Asyncio)</text>
</g>
<!-- Async&#45;&gt;Event -->
<g id="edge31" class="edge">
<title>Async&#45;&gt;Event</title>
<path fill="none" stroke="Green" stroke-width="2" d="M245.61,-386.66C269.32,-380.08 304.82,-370.24 334.51,-362"/>
<polygon fill="Green" stroke="Green" stroke-width="2" points="335.22,-365.44 343.92,-359.4 333.35,-358.7 335.22,-365.44"/>
</g>
<!-- Threads -->
<g id="node32" class="node">
<title>Threads</title>
<path fill="#eceff1" stroke="black" stroke-width="1.5" d="M410.38,-310C410.38,-310 368.88,-310 368.88,-310 362.88,-310 356.88,-304 356.88,-298 356.88,-298 356.88,-286 356.88,-286 356.88,-280 362.88,-274 368.88,-274 368.88,-274 410.38,-274 410.38,-274 416.38,-274 422.38,-280 422.38,-286 422.38,-286 422.38,-298 422.38,-298 422.38,-304 416.38,-310 410.38,-310"/>
<text xml:space="preserve" text-anchor="middle" x="389.62" y="-286.2" font-family="Helvetica,sans-Serif" font-size="14.00" fill="#263238">Threads</text>
</g>
<!-- Async&#45;&gt;Threads -->
<g id="edge32" class="edge">
<title>Async&#45;&gt;Threads</title>
<path fill="none" stroke="Green" stroke-width="2" d="M238.24,-375.54C256.3,-358.92 284.76,-334.74 313,-319 322.72,-313.58 333.72,-308.92 344.27,-305.07"/>
<polygon fill="Green" stroke="Green" stroke-width="2" points="345.15,-308.47 353.47,-301.91 342.88,-301.85 345.15,-308.47"/>
</g>
<!-- Sync -->
<g id="node33" class="node">
<title>Sync</title>
<path fill="#eceff1" stroke="black" stroke-width="1.5" d="M404.62,-458C404.62,-458 374.62,-458 374.62,-458 368.62,-458 362.62,-452 362.62,-446 362.62,-446 362.62,-434 362.62,-434 362.62,-428 368.62,-422 374.62,-422 374.62,-422 404.62,-422 404.62,-422 410.62,-422 416.62,-428 416.62,-434 416.62,-434 416.62,-446 416.62,-446 416.62,-452 410.62,-458 404.62,-458"/>
<text xml:space="preserve" text-anchor="middle" x="389.62" y="-434.2" font-family="Helvetica,sans-Serif" font-size="14.00" fill="#263238">Sync</text>
</g>
<!-- Async&#45;&gt;Sync -->
<g id="edge33" class="edge">
<title>Async&#45;&gt;Sync</title>
<path fill="none" stroke="Green" stroke-width="2" d="M245.61,-401.19C273.51,-408.76 317.76,-420.77 349.64,-429.42"/>
<polygon fill="Green" stroke="Green" stroke-width="2" points="348.56,-432.75 359.13,-431.99 350.39,-426 348.56,-432.75"/>
</g>
<!-- Err -->
<g id="node34" class="node">
<title>Err</title>
<path fill="#eceff1" stroke="black" stroke-width="1.5" d="M429.12,-256C429.12,-256 350.12,-256 350.12,-256 344.12,-256 338.12,-250 338.12,-244 338.12,-244 338.12,-232 338.12,-232 338.12,-226 344.12,-220 350.12,-220 350.12,-220 429.12,-220 429.12,-220 435.12,-220 441.12,-226 441.12,-232 441.12,-232 441.12,-244 441.12,-244 441.12,-250 435.12,-256 429.12,-256"/>
<text xml:space="preserve" text-anchor="middle" x="389.62" y="-232.2" font-family="Helvetica,sans-Serif" font-size="14.00" fill="#263238">Error Handling</text>
</g>
<!-- Resilience&#45;&gt;Err -->
<g id="edge34" class="edge">
<title>Resilience&#45;&gt;Err</title>
<path fill="none" stroke="Green" stroke-width="2" d="M257.59,-238C277.35,-238 301.95,-238 324.48,-238"/>
<polygon fill="Green" stroke="Green" stroke-width="2" points="324.43,-241.5 334.43,-238 324.43,-234.5 324.43,-241.5"/>
</g>
<!-- Shut -->
<g id="node35" class="node">
<title>Shut</title>
<path fill="#eceff1" stroke="black" stroke-width="1.5" d="M443.38,-202C443.38,-202 335.88,-202 335.88,-202 329.88,-202 323.88,-196 323.88,-190 323.88,-190 323.88,-178 323.88,-178 323.88,-172 329.88,-166 335.88,-166 335.88,-166 443.38,-166 443.38,-166 449.38,-166 455.38,-172 455.38,-178 455.38,-178 455.38,-190 455.38,-190 455.38,-196 449.38,-202 443.38,-202"/>
<text xml:space="preserve" text-anchor="middle" x="389.62" y="-178.2" font-family="Helvetica,sans-Serif" font-size="14.00" fill="#263238">Graceful Shutdown</text>
</g>
<!-- Resilience&#45;&gt;Shut -->
<g id="edge35" class="edge">
<title>Resilience&#45;&gt;Shut</title>
<path fill="none" stroke="Green" stroke-width="2" d="M257.59,-225.75C275.39,-220.08 297.11,-213.15 317.72,-206.59"/>
<polygon fill="Green" stroke="Green" stroke-width="2" points="318.67,-209.96 327.13,-203.59 316.54,-203.29 318.67,-209.96"/>
</g>
<!-- JSON -->
<g id="node40" class="node">
<title>JSON</title>
<path fill="#eceff1" stroke="black" stroke-width="1.5" d="M453.5,-148C453.5,-148 325.75,-148 325.75,-148 319.75,-148 313.75,-142 313.75,-136 313.75,-136 313.75,-124 313.75,-124 313.75,-118 319.75,-112 325.75,-112 325.75,-112 453.5,-112 453.5,-112 459.5,-112 465.5,-118 465.5,-124 465.5,-124 465.5,-136 465.5,-136 465.5,-142 459.5,-148 453.5,-148"/>
<text xml:space="preserve" text-anchor="middle" x="389.62" y="-124.2" font-family="Helvetica,sans-Serif" font-size="14.00" fill="#263238">Structured JSON Logs</text>
</g>
<!-- Logs&#45;&gt;JSON -->
<g id="edge40" class="edge">
<title>Logs&#45;&gt;JSON</title>
<path fill="none" stroke="Green" stroke-width="2" d="M245.61,-107.22C260.65,-109.61 280.44,-112.77 300.48,-115.96"/>
<polygon fill="Green" stroke="Green" stroke-width="2" points="299.88,-119.41 310.3,-117.52 300.98,-112.49 299.88,-119.41"/>
</g>
<!-- Ctx -->
<g id="node41" class="node">
<title>Ctx</title>
<path fill="#eceff1" stroke="black" stroke-width="1.5" d="M444.12,-94C444.12,-94 335.12,-94 335.12,-94 329.12,-94 323.12,-88 323.12,-82 323.12,-82 323.12,-68 323.12,-68 323.12,-62 329.12,-56 335.12,-56 335.12,-56 444.12,-56 444.12,-56 450.12,-56 456.12,-62 456.12,-68 456.12,-68 456.12,-82 456.12,-82 456.12,-88 450.12,-94 444.12,-94"/>
<text xml:space="preserve" text-anchor="middle" x="389.62" y="-76.7" font-family="Helvetica,sans-Serif" font-size="14.00" fill="#263238">ContextVars</text>
<text xml:space="preserve" text-anchor="middle" x="389.62" y="-61.7" font-family="Helvetica,sans-Serif" font-size="14.00" fill="#263238">(State Propagation)</text>
</g>
<!-- Logs&#45;&gt;Ctx -->
<g id="edge41" class="edge">
<title>Logs&#45;&gt;Ctx</title>
<path fill="none" stroke="Green" stroke-width="2" d="M245.61,-98.62C262.97,-95.76 286.66,-91.84 309.76,-88.03"/>
<polygon fill="Green" stroke="Green" stroke-width="2" points="310.2,-91.5 319.5,-86.42 309.06,-84.6 310.2,-91.5"/>
</g>
<!-- Ana -->
<g id="node42" class="node">
<title>Ana</title>
<path fill="#eceff1" stroke="black" stroke-width="1.5" d="M435.12,-38C435.12,-38 344.12,-38 344.12,-38 338.12,-38 332.12,-32 332.12,-26 332.12,-26 332.12,-12 332.12,-12 332.12,-6 338.12,0 344.12,0 344.12,0 435.12,0 435.12,0 441.12,0 447.12,-6 447.12,-12 447.12,-12 447.12,-26 447.12,-26 447.12,-32 441.12,-38 435.12,-38"/>
<text xml:space="preserve" text-anchor="middle" x="389.62" y="-20.7" font-family="Helvetica,sans-Serif" font-size="14.00" fill="#263238">Telemetry</text>
<text xml:space="preserve" text-anchor="middle" x="389.62" y="-5.7" font-family="Helvetica,sans-Serif" font-size="14.00" fill="#263238">(IDStoreMetrics)</text>
</g>
<!-- Logs&#45;&gt;Ana -->
<g id="edge42" class="edge">
<title>Logs&#45;&gt;Ana</title>
<path fill="none" stroke="Green" stroke-width="2" d="M245.52,-85.48C263.94,-73.69 289.38,-58.3 313,-47 315.37,-45.87 317.79,-44.75 320.26,-43.65"/>
<polygon fill="Green" stroke="Green" stroke-width="2" points="321.36,-46.99 329.2,-39.86 318.63,-40.54 321.36,-46.99"/>
</g>
<!-- Ref -->
<g id="node43" class="node">
<title>Ref</title>
<path fill="#eceff1" stroke="black" stroke-width="1.5" d="M429.5,-658C429.5,-658 349.75,-658 349.75,-658 343.75,-658 337.75,-652 337.75,-646 337.75,-646 337.75,-634 337.75,-634 337.75,-628 343.75,-622 349.75,-622 349.75,-622 429.5,-622 429.5,-622 435.5,-622 441.5,-628 441.5,-634 441.5,-634 441.5,-646 441.5,-646 441.5,-652 435.5,-658 429.5,-658"/>
<text xml:space="preserve" text-anchor="middle" x="389.62" y="-634.2" font-family="Helvetica,sans-Serif" font-size="14.00" fill="#263238">API Reference</text>
</g>
<!-- Docs&#45;&gt;Ref -->
<g id="edge43" class="edge">
<title>Docs&#45;&gt;Ref</title>
<path fill="none" stroke="Green" stroke-width="2" d="M245.61,-594.44C266.76,-601.18 297.31,-610.91 324.74,-619.65"/>
<polygon fill="Green" stroke="Green" stroke-width="2" points="323.6,-622.96 334.19,-622.66 325.73,-616.29 323.6,-622.96"/>
</g>
<!-- ADR -->
<g id="node44" class="node">
<title>ADR</title>
<path fill="#eceff1" stroke="black" stroke-width="1.5" d="M454.25,-604C454.25,-604 325,-604 325,-604 319,-604 313,-598 313,-592 313,-592 313,-580 313,-580 313,-574 319,-568 325,-568 325,-568 454.25,-568 454.25,-568 460.25,-568 466.25,-574 466.25,-580 466.25,-580 466.25,-592 466.25,-592 466.25,-598 460.25,-604 454.25,-604"/>
<text xml:space="preserve" text-anchor="middle" x="389.62" y="-580.2" font-family="Helvetica,sans-Serif" font-size="14.00" fill="#263238">Architectural Decisions</text>
</g>
<!-- Docs&#45;&gt;ADR -->
<g id="edge44" class="edge">
<title>Docs&#45;&gt;ADR</title>
<path fill="none" stroke="Green" stroke-width="2" d="M245.61,-586C260.43,-586 279.85,-586 299.58,-586"/>
<polygon fill="Green" stroke="Green" stroke-width="2" points="299.52,-589.5 309.52,-586 299.52,-582.5 299.52,-589.5"/>
</g>
<!-- Design -->
<g id="node45" class="node">
<title>Design</title>
<path fill="#eceff1" stroke="black" stroke-width="1.5" d="M446.38,-550C446.38,-550 332.88,-550 332.88,-550 326.88,-550 320.88,-544 320.88,-538 320.88,-538 320.88,-526 320.88,-526 320.88,-520 326.88,-514 332.88,-514 332.88,-514 446.38,-514 446.38,-514 452.38,-514 458.38,-520 458.38,-526 458.38,-526 458.38,-538 458.38,-538 458.38,-544 452.38,-550 446.38,-550"/>
<text xml:space="preserve" text-anchor="middle" x="389.62" y="-526.2" font-family="Helvetica,sans-Serif" font-size="14.00" fill="#263238">System Architecture</text>
</g>
<!-- Docs&#45;&gt;Design -->
<g id="edge45" class="edge">
<title>Docs&#45;&gt;Design</title>
<path fill="none" stroke="Green" stroke-width="2" d="M245.61,-577.56C264.97,-571.39 292.2,-562.72 317.71,-554.59"/>
<polygon fill="Green" stroke="Green" stroke-width="2" points="318.71,-557.95 327.17,-551.58 316.58,-551.28 318.71,-557.95"/>
</g>
<!-- Sphinx -->
<g id="node46" class="node">
<title>Sphinx</title>
<path fill="#eceff1" stroke="black" stroke-width="1.5" d="M435.88,-714C435.88,-714 343.38,-714 343.38,-714 337.38,-714 331.38,-708 331.38,-702 331.38,-702 331.38,-688 331.38,-688 331.38,-682 337.38,-676 343.38,-676 343.38,-676 435.88,-676 435.88,-676 441.88,-676 447.88,-682 447.88,-688 447.88,-688 447.88,-702 447.88,-702 447.88,-708 441.88,-714 435.88,-714"/>
<text xml:space="preserve" text-anchor="middle" x="389.62" y="-696.7" font-family="Helvetica,sans-Serif" font-size="14.00" fill="#263238">Sphinx</text>
<text xml:space="preserve" text-anchor="middle" x="389.62" y="-681.7" font-family="Helvetica,sans-Serif" font-size="14.00" fill="#263238">(Documentation)</text>
</g>
<!-- Docs&#45;&gt;Sphinx -->
<g id="edge46" class="edge">
<title>Docs&#45;&gt;Sphinx</title>
<path fill="none" stroke="Green" stroke-width="2" d="M236.65,-604.58C254.45,-622.57 283.53,-649.6 313,-667 314.99,-668.18 317.04,-669.32 319.14,-670.42"/>
<polygon fill="Green" stroke="Green" stroke-width="2" points="317.39,-673.47 327.92,-674.68 320.44,-667.17 317.39,-673.47"/>
</g>
<!-- MockDB -->
<g id="node29" class="node">
<title>MockDB</title>
<path fill="#eceff1" stroke="black" stroke-width="1.5" d="M1154.5,-357C1154.5,-357 1110.75,-357 1110.75,-357 1104.75,-357 1098.75,-351 1098.75,-345 1098.75,-345 1098.75,-333 1098.75,-333 1098.75,-327 1104.75,-321 1110.75,-321 1110.75,-321 1154.5,-321 1154.5,-321 1160.5,-321 1166.5,-327 1166.5,-333 1166.5,-333 1166.5,-345 1166.5,-345 1166.5,-351 1160.5,-357 1154.5,-357"/>
<text xml:space="preserve" text-anchor="middle" x="1132.62" y="-333.2" font-family="Helvetica,sans-Serif" font-size="14.00" fill="#263238">MockDB</text>
</g>
<!-- StorageInterface&#45;&gt;MockDB -->
<g id="edge29" class="edge">
<title>StorageInterface&#45;&gt;MockDB</title>
<path fill="none" stroke="Green" stroke-width="2" stroke-dasharray="5,2" d="M1062.2,-325.34C1070.15,-326.91 1078.11,-328.47 1085.66,-329.96"/>
<polygon fill="Green" stroke="Green" stroke-width="2" points="1084.85,-333.36 1095.33,-331.86 1086.2,-326.5 1084.85,-333.36"/>
</g>
<!-- NoOp -->
<g id="node30" class="node">
<title>NoOp</title>
<path fill="#eceff1" stroke="black" stroke-width="1.5" d="M1147.62,-303C1147.62,-303 1117.62,-303 1117.62,-303 1111.62,-303 1105.62,-297 1105.62,-291 1105.62,-291 1105.62,-279 1105.62,-279 1105.62,-273 1111.62,-267 1117.62,-267 1117.62,-267 1147.62,-267 1147.62,-267 1153.62,-267 1159.62,-273 1159.62,-279 1159.62,-279 1159.62,-291 1159.62,-291 1159.62,-297 1153.62,-303 1147.62,-303"/>
<text xml:space="preserve" text-anchor="middle" x="1132.62" y="-279.2" font-family="Helvetica,sans-Serif" font-size="14.00" fill="#263238">NoOp</text>
</g>
<!-- StorageInterface&#45;&gt;NoOp -->
<g id="edge30" class="edge">
<title>StorageInterface&#45;&gt;NoOp</title>
<path fill="none" stroke="Green" stroke-width="2" stroke-dasharray="5,2" d="M1062.2,-298.66C1072.57,-296.62 1082.97,-294.57 1092.44,-292.71"/>
<polygon fill="Green" stroke="Green" stroke-width="2" points="1093.02,-296.16 1102.15,-290.8 1091.67,-289.29 1093.02,-296.16"/>
</g>
<!-- CustomEx -->
<g id="node36" class="node">
<title>CustomEx</title>
<path fill="#eceff1" stroke="black" stroke-width="1.5" d="M692.62,-202C692.62,-202 637.62,-202 637.62,-202 631.62,-202 625.62,-196 625.62,-190 625.62,-190 625.62,-178 625.62,-178 625.62,-172 631.62,-166 637.62,-166 637.62,-166 692.62,-166 692.62,-166 698.62,-166 704.62,-172 704.62,-178 704.62,-178 704.62,-190 704.62,-190 704.62,-196 698.62,-202 692.62,-202"/>
<text xml:space="preserve" text-anchor="middle" x="665.12" y="-178.2" font-family="Helvetica,sans-Serif" font-size="14.00" fill="#263238">CustomEx</text>
</g>
<!-- Err&#45;&gt;CustomEx -->
<g id="edge36" class="edge">
<title>Err&#45;&gt;CustomEx</title>
<path fill="none" stroke="Green" stroke-width="2" d="M441.75,-227.91C490.57,-218.27 563.76,-203.82 612.69,-194.16"/>
<polygon fill="Green" stroke="Green" stroke-width="2" points="613.09,-197.64 622.22,-192.27 611.73,-190.78 613.09,-197.64"/>
</g>
<!-- Retry -->
<g id="node37" class="node">
<title>Retry</title>
<path fill="#eceff1" stroke="black" stroke-width="1.5" d="M680.12,-364C680.12,-364 650.12,-364 650.12,-364 644.12,-364 638.12,-358 638.12,-352 638.12,-352 638.12,-340 638.12,-340 638.12,-334 644.12,-328 650.12,-328 650.12,-328 680.12,-328 680.12,-328 686.12,-328 692.12,-334 692.12,-340 692.12,-340 692.12,-352 692.12,-352 692.12,-358 686.12,-364 680.12,-364"/>
<text xml:space="preserve" text-anchor="middle" x="665.12" y="-340.2" font-family="Helvetica,sans-Serif" font-size="14.00" fill="#263238">Retry</text>
</g>
<!-- Err&#45;&gt;Retry -->
<g id="edge37" class="edge">
<title>Err&#45;&gt;Retry</title>
<path fill="none" stroke="Green" stroke-width="2" d="M441.51,-253.93C449.95,-257.2 458.48,-260.91 466.25,-265 474.98,-269.59 475.66,-273.14 484.25,-278 524.64,-300.83 536.79,-302.76 580.25,-319 594.73,-324.41 610.85,-329.76 625.06,-334.25"/>
<polygon fill="Green" stroke="Green" stroke-width="2" points="623.99,-337.58 634.58,-337.21 626.07,-330.89 623.99,-337.58"/>
</g>
<!-- Circuit -->
<g id="node38" class="node">
<title>Circuit</title>
<path fill="#eceff1" stroke="black" stroke-width="1.5" d="M680.25,-256C680.25,-256 650,-256 650,-256 644,-256 638,-250 638,-244 638,-244 638,-232 638,-232 638,-226 644,-220 650,-220 650,-220 680.25,-220 680.25,-220 686.25,-220 692.25,-226 692.25,-232 692.25,-232 692.25,-244 692.25,-244 692.25,-250 686.25,-256 680.25,-256"/>
<text xml:space="preserve" text-anchor="middle" x="665.12" y="-232.2" font-family="Helvetica,sans-Serif" font-size="14.00" fill="#263238">Circuit</text>
</g>
<!-- Err&#45;&gt;Circuit -->
<g id="edge38" class="edge">
<title>Err&#45;&gt;Circuit</title>
<path fill="none" stroke="Green" stroke-width="2" d="M441.75,-238C494.63,-238 576.1,-238 624.36,-238"/>
<polygon fill="Green" stroke="Green" stroke-width="2" points="624.31,-241.5 634.31,-238 624.31,-234.5 624.31,-241.5"/>
</g>
<!-- Degrade -->
<g id="node39" class="node">
<title>Degrade</title>
<path fill="#eceff1" stroke="black" stroke-width="1.5" d="M687,-310C687,-310 643.25,-310 643.25,-310 637.25,-310 631.25,-304 631.25,-298 631.25,-298 631.25,-286 631.25,-286 631.25,-280 637.25,-274 643.25,-274 643.25,-274 687,-274 687,-274 693,-274 699,-280 699,-286 699,-286 699,-298 699,-298 699,-304 693,-310 687,-310"/>
<text xml:space="preserve" text-anchor="middle" x="665.12" y="-286.2" font-family="Helvetica,sans-Serif" font-size="14.00" fill="#263238">Degrade</text>
</g>
<!-- Err&#45;&gt;Degrade -->
<g id="edge39" class="edge">
<title>Err&#45;&gt;Degrade</title>
<path fill="none" stroke="Green" stroke-width="2" d="M441.75,-248.09C492.45,-258.1 569.43,-273.3 618.23,-282.94"/>
<polygon fill="Green" stroke="Green" stroke-width="2" points="617.44,-286.35 627.93,-284.85 618.79,-279.48 617.44,-286.35"/>
</g>
<!-- Circuit&#45;&gt;Core -->
<g id="edge48" class="edge">
<title>Circuit&#45;&gt;Core</title>
<path fill="none" stroke="Green" stroke-width="2" stroke-dasharray="1,5" d="M692.73,-242.63C710.1,-246.56 732.69,-253.46 750,-265 789.35,-291.23 822.63,-335.35 841.97,-364.57"/>
<polygon fill="Green" stroke="Green" stroke-width="2" points="838.91,-366.29 847.27,-372.8 844.8,-362.5 838.91,-366.29"/>
<text xml:space="preserve" text-anchor="middle" x="792" y="-330.17" font-family="Helvetica,sans-Serif" font-size="14.00" fill="#a39a9a">protects</text>
</g>
</g>
</svg>
