<?xml version="1.0" encoding="UTF-8" standalone="no"?>
<!DOCTYPE svg PUBLIC "-//W3C//DTD SVG 1.1//EN"
 "http://www.w3.org/Graphics/SVG/1.1/DTD/svg11.dtd">
<!-- Generated by graphviz version 13.0.0 (20250608.1624)
 -->
<!-- Title: G Pages: 1 -->
<svg width="1690pt" height="785pt"
 viewBox="0.00 0.00 1690.00 785.00" xmlns="http://www.w3.org/2000/svg" xmlns:xlink="http://www.w3.org/1999/xlink">
<g id="graph0" class="graph" transform="scale(1 1) rotate(0) translate(4 780.73)">
<title>G</title>
<text xml:space="preserve" text-anchor="start" x="553.88" y="-752.83" font-family="Helvetica,sans-Serif" font-weight="bold" font-size="22.00" fill="#f33333">LangQuiz: Unified macOS Headless Architecture (2026)</text>
<g id="clust1" class="cluster">
<title>cluster_deployment</title>
<path fill="#f8f9fa" stroke="#607d8b" stroke-width="3" d="M580.26,-639.58C580.26,-639.58 1230.26,-639.58 1230.26,-639.58 1236.26,-639.58 1242.26,-645.58 1242.26,-651.58 1242.26,-651.58 1242.26,-726.23 1242.26,-726.23 1242.26,-732.23 1236.26,-738.23 1230.26,-738.23 1230.26,-738.23 580.26,-738.23 580.26,-738.23 574.26,-738.23 568.26,-732.23 568.26,-726.23 568.26,-726.23 568.26,-651.58 568.26,-651.58 568.26,-645.58 574.26,-639.58 580.26,-639.58"/>
<text xml:space="preserve" text-anchor="middle" x="905.26" y="-720.93" font-family="Helvetica,sans-Serif" font-size="14.00" fill="#999999">macOS Deployment and Security</text>
</g>
<g id="clust2" class="cluster">
<title>cluster_user</title>
<path fill="#f1f8e9" stroke="#4caf50" stroke-width="3" stroke-dasharray="5,2" d="M121.26,-497.33C121.26,-497.33 1000.26,-497.33 1000.26,-497.33 1006.26,-497.33 1012.26,-503.33 1012.26,-509.33 1012.26,-509.33 1012.26,-600.33 1012.26,-600.33 1012.26,-606.33 1006.26,-612.33 1000.26,-612.33 1000.26,-612.33 121.26,-612.33 121.26,-612.33 115.26,-612.33 109.26,-606.33 109.26,-600.33 109.26,-600.33 109.26,-509.33 109.26,-509.33 109.26,-503.33 115.26,-497.33 121.26,-497.33"/>
<text xml:space="preserve" text-anchor="middle" x="560.76" y="-595.03" font-family="Helvetica,sans-Serif" font-size="14.00" fill="#999999">User Interaction</text>
</g>
<g id="clust3" class="cluster">
<title>cluster_state</title>
<path fill="#fdf0ff" stroke="magenta" stroke-width="3" stroke-dasharray="1,5" d="M1127.26,-234.5C1127.26,-234.5 1662.26,-234.5 1662.26,-234.5 1668.26,-234.5 1674.26,-240.5 1674.26,-246.5 1674.26,-246.5 1674.26,-299.5 1674.26,-299.5 1674.26,-305.5 1668.26,-311.5 1662.26,-311.5 1662.26,-311.5 1127.26,-311.5 1127.26,-311.5 1121.26,-311.5 1115.26,-305.5 1115.26,-299.5 1115.26,-299.5 1115.26,-246.5 1115.26,-246.5 1115.26,-240.5 1121.26,-234.5 1127.26,-234.5"/>
<text xml:space="preserve" text-anchor="middle" x="1394.76" y="-294.2" font-family="Helvetica,sans-Serif" font-size="14.00" fill="#999999">Input State and UI Management</text>
</g>
<g id="clust4" class="cluster">
<title>cluster_analysis</title>
<path fill="#e1f5fe" stroke="#b3e5fc" stroke-width="3" d="M81.26,-8C81.26,-8 305.26,-8 305.26,-8 311.26,-8 317.26,-14 317.26,-20 317.26,-20 317.26,-428.08 317.26,-428.08 317.26,-434.08 311.26,-440.08 305.26,-440.08 305.26,-440.08 81.26,-440.08 81.26,-440.08 75.26,-440.08 69.26,-434.08 69.26,-428.08 69.26,-428.08 69.26,-20 69.26,-20 69.26,-14 75.26,-8 81.26,-8"/>
<text xml:space="preserve" text-anchor="middle" x="193.26" y="-422.78" font-family="Helvetica,sans-Serif" font-size="14.00" fill="#999999">Linguistic Engine and AI Validation</text>
</g>
<g id="clust5" class="cluster">
<title>cluster_frameworks</title>
<path fill="#f5f5fa" stroke="#9090c0" stroke-width="3" d="M483.26,-235.5C483.26,-235.5 1095.26,-235.5 1095.26,-235.5 1101.26,-235.5 1107.26,-241.5 1107.26,-247.5 1107.26,-247.5 1107.26,-458.08 1107.26,-458.08 1107.26,-464.08 1101.26,-470.08 1095.26,-470.08 1095.26,-470.08 483.26,-470.08 483.26,-470.08 477.26,-470.08 471.26,-464.08 471.26,-458.08 471.26,-458.08 471.26,-247.5 471.26,-247.5 471.26,-241.5 477.26,-235.5 483.26,-235.5"/>
<text xml:space="preserve" text-anchor="middle" x="789.26" y="-452.78" font-family="Helvetica,sans-Serif" font-size="14.00" fill="#999999">macOS Frameworks and AI</text>
</g>
<g id="clust6" class="cluster">
<title>cluster_av_internal</title>
<path fill="#ffffff" stroke="#777777" stroke-width="3" stroke-dasharray="1,5" d="M759.26,-364.08C759.26,-364.08 899.26,-364.08 899.26,-364.08 905.26,-364.08 911.26,-370.08 911.26,-376.08 911.26,-376.08 911.26,-427.08 911.26,-427.08 911.26,-433.08 905.26,-439.08 899.26,-439.08 899.26,-439.08 759.26,-439.08 759.26,-439.08 753.26,-439.08 747.26,-433.08 747.26,-427.08 747.26,-427.08 747.26,-376.08 747.26,-376.08 747.26,-370.08 753.26,-364.08 759.26,-364.08"/>
<text xml:space="preserve" text-anchor="middle" x="829.26" y="-421.78" font-family="Helvetica,sans-Serif" font-size="14.00" fill="#999999">AVFoundation Engine</text>
</g>
<!-- Launcher -->
<g id="node1" class="node">
<title>Launcher</title>
<polygon fill="#eceff1" stroke="black" points="952.38,-696.41 784.13,-696.41 784.13,-692.41 780.13,-692.41 780.13,-688.41 784.13,-688.41 784.13,-666.41 780.13,-666.41 780.13,-662.41 784.13,-662.41 784.13,-658.41 952.38,-658.41 952.38,-696.41"/>
<polyline fill="none" stroke="black" points="784.13,-692.41 788.13,-692.41 788.13,-688.41 784.13,-688.41"/>
<polyline fill="none" stroke="black" points="784.13,-666.41 788.13,-666.41 788.13,-662.41 784.13,-662.41"/>
<text xml:space="preserve" text-anchor="middle" x="868.26" y="-679.11" font-family="Helvetica,sans-Serif" font-size="14.00" fill="#111111">launcher.sh</text>
<text xml:space="preserve" text-anchor="middle" x="868.26" y="-664.11" font-family="Helvetica,sans-Serif" font-size="14.00" fill="#111111">(AppleScript TTY Spawn)</text>
</g>
<!-- Keyboard -->
<g id="node4" class="node">
<title>Keyboard</title>
<path fill="#ffffff" stroke="black" d="M992.26,-581.33C992.26,-581.33 803.09,-581.33 803.09,-581.33 797.09,-581.33 787.58,-576.47 784.07,-571.6 784.07,-571.6 743.28,-515.07 743.28,-515.07 739.77,-510.2 742.26,-505.33 748.26,-505.33 748.26,-505.33 937.42,-505.33 937.42,-505.33 943.42,-505.33 952.93,-510.2 956.44,-515.07 956.44,-515.07 997.24,-571.6 997.24,-571.6 1000.75,-576.47 998.26,-581.33 992.26,-581.33"/>
<text xml:space="preserve" text-anchor="middle" x="870.26" y="-545.03" font-family="Helvetica,sans-Serif" font-size="14.00" fill="#111111">Keyboard</text>
<text xml:space="preserve" text-anchor="middle" x="870.26" y="-530.03" font-family="Helvetica,sans-Serif" font-size="14.00" fill="#111111">(Nav: Ctrl&#45;B/E/V/X)</text>
</g>
<!-- Launcher&#45;&gt;Keyboard -->
<!-- APP -->
<g id="node21" class="node">
<title>APP</title>
<path fill="#ffffcc" stroke="black" stroke-width="3" d="M1180.51,-564.71C1180.51,-567.33 1149.02,-569.46 1110.26,-569.46 1071.5,-569.46 1040.01,-567.33 1040.01,-564.71 1040.01,-564.71 1040.01,-521.96 1040.01,-521.96 1040.01,-519.34 1071.5,-517.21 1110.26,-517.21 1149.02,-517.21 1180.51,-519.34 1180.51,-521.96 1180.51,-521.96 1180.51,-564.71 1180.51,-564.71"/>
<path fill="none" stroke="black" stroke-width="3" d="M1180.51,-564.71C1180.51,-562.09 1149.02,-559.96 1110.26,-559.96 1071.5,-559.96 1040.01,-562.09 1040.01,-564.71"/>
<text xml:space="preserve" text-anchor="middle" x="1110.26" y="-545.03" font-family="Helvetica,sans-Serif" font-size="14.00" fill="#111111">Main Application</text>
<text xml:space="preserve" text-anchor="middle" x="1110.26" y="-530.03" font-family="Helvetica,sans-Serif" font-size="14.00" fill="#111111">(cli/headless targets)</text>
</g>
<!-- Launcher&#45;&gt;APP -->
<g id="edge5" class="edge">
<title>Launcher&#45;&gt;APP</title>
<path fill="none" stroke="#888888" stroke-width="1.5" d="M910,-657.93C935.68,-646.72 969.34,-632.32 999.51,-620.33 1009.08,-616.53 1012.23,-617.29 1021.26,-612.33 1038.59,-602.81 1056.2,-590.12 1071.13,-578.28"/>
<polygon fill="#888888" stroke="#888888" stroke-width="1.5" points="1073.2,-581.11 1078.76,-572.1 1068.79,-575.67 1073.2,-581.11"/>
<text xml:space="preserve" text-anchor="middle" x="1050.88" y="-622.08" font-family="Helvetica,sans-Serif" font-size="10.00" fill="#999999">APP_LAUNCH_MODE</text>
</g>
<!-- AppBundle -->
<g id="node2" class="node">
<title>AppBundle</title>
<polygon fill="#eceff1" stroke="black" points="747.88,-696.41 744.88,-700.41 723.88,-700.41 720.88,-696.41 576.63,-696.41 576.63,-658.41 747.88,-658.41 747.88,-696.41"/>
<text xml:space="preserve" text-anchor="middle" x="662.26" y="-679.11" font-family="Helvetica,sans-Serif" font-size="14.00" fill="#111111">LangQuiz.app</text>
<text xml:space="preserve" text-anchor="middle" x="662.26" y="-664.11" font-family="Helvetica,sans-Serif" font-size="14.00" fill="#111111">(Bundle&#45;based Discovery)</text>
</g>
<!-- Sanitizer -->
<g id="node13" class="node">
<title>Sanitizer</title>
<path fill="#ffffff" stroke="black" d="M277.51,-409.08C277.51,-409.08 89.01,-409.08 89.01,-409.08 83.01,-409.08 77.01,-403.08 77.01,-397.08 77.01,-397.08 77.01,-383.08 77.01,-383.08 77.01,-377.08 83.01,-371.08 89.01,-371.08 89.01,-371.08 277.51,-371.08 277.51,-371.08 283.51,-371.08 289.51,-377.08 289.51,-383.08 289.51,-383.08 289.51,-397.08 289.51,-397.08 289.51,-403.08 283.51,-409.08 277.51,-409.08"/>
<text xml:space="preserve" text-anchor="middle" x="183.26" y="-391.78" font-family="Helvetica,sans-Serif" font-size="14.00" fill="#111111">Data Sanitizer</text>
<text xml:space="preserve" text-anchor="middle" x="183.26" y="-376.78" font-family="Helvetica,sans-Serif" font-size="14.00" fill="#111111">(Regex&#45;free Comment Stripping)</text>
</g>
<!-- AppBundle&#45;&gt;Sanitizer -->
<g id="edge6" class="edge">
<title>AppBundle&#45;&gt;Sanitizer</title>
<path fill="none" stroke="#888888" stroke-width="1.5" d="M576.14,-674.08C410.1,-668.71 58.74,-652.65 22.26,-612.33 -12.04,-574.44 -1.96,-542.34 22.26,-497.33 43.11,-458.58 84.98,-431.62 120.79,-414.55"/>
<polygon fill="#888888" stroke="#888888" stroke-width="1.5" points="121.98,-417.86 129.62,-410.51 119.07,-411.49 121.98,-417.86"/>
<text xml:space="preserve" text-anchor="middle" x="61.26" y="-539.46" font-family="Helvetica,sans-Serif" font-size="10.00" fill="#999999">Raw Phrase Files</text>
</g>
<!-- Entitlements -->
<g id="node3" class="node">
<title>Entitlements</title>
<path fill="#eceff1" stroke="black" d="M1225.79,-679.18C1225.79,-679.18 1217.7,-687.59 1217.7,-687.59 1213.65,-691.8 1203.8,-696.66 1198,-697.33 1198,-697.33 1122.86,-705.91 1122.86,-705.91 1117.06,-706.57 1105.46,-706.57 1099.66,-705.91 1099.66,-705.91 1024.52,-697.33 1024.52,-697.33 1018.72,-696.66 1008.87,-691.8 1004.82,-687.59 1004.82,-687.59 996.72,-679.18 996.72,-679.18 992.68,-674.98 994.22,-669.11 999.82,-667.44 999.82,-667.44 1045.49,-653.86 1045.49,-653.86 1051.09,-652.2 1062.52,-650.54 1068.36,-650.54 1068.36,-650.54 1154.16,-650.54 1154.16,-650.54 1160,-650.54 1171.43,-652.2 1177.02,-653.86 1177.02,-653.86 1222.7,-667.44 1222.7,-667.44 1228.29,-669.11 1229.84,-674.98 1225.79,-679.18"/>
<text xml:space="preserve" text-anchor="middle" x="1111.26" y="-679.11" font-family="Helvetica,sans-Serif" font-size="14.00" fill="#111111">Hardened Runtime</text>
<text xml:space="preserve" text-anchor="middle" x="1111.26" y="-664.11" font-family="Helvetica,sans-Serif" font-size="14.00" fill="#111111">(macOS Code Signing)</text>
</g>
<!-- Entitlements&#45;&gt;APP -->
<g id="edge7" class="edge">
<title>Entitlements&#45;&gt;APP</title>
<path fill="none" stroke="#888888" stroke-width="1.5" d="M1111.06,-650.31C1110.92,-631.08 1110.71,-604.62 1110.55,-582.94"/>
<polygon fill="#888888" stroke="#888888" stroke-width="1.5" points="1114.05,-583.07 1110.48,-573.1 1107.05,-583.12 1114.05,-583.07"/>
<text xml:space="preserve" text-anchor="middle" x="1155.91" y="-622.08" font-family="Helvetica,sans-Serif" font-size="10.00" fill="#999999">macOS Permissions</text>
</g>
<!-- MMController -->
<g id="node8" class="node">
<title>MMController</title>
<path fill="#ffdaff" stroke="black" stroke-width="2" d="M1246.76,-408.08C1246.76,-408.08 1155.76,-408.08 1155.76,-408.08 1149.76,-408.08 1143.76,-402.08 1143.76,-396.08 1143.76,-396.08 1143.76,-384.08 1143.76,-384.08 1143.76,-378.08 1149.76,-372.08 1155.76,-372.08 1155.76,-372.08 1246.76,-372.08 1246.76,-372.08 1252.76,-372.08 1258.76,-378.08 1258.76,-384.08 1258.76,-384.08 1258.76,-396.08 1258.76,-396.08 1258.76,-402.08 1252.76,-408.08 1246.76,-408.08"/>
<text xml:space="preserve" text-anchor="start" x="1157.01" y="-389.78" font-family="Helvetica,sans-Serif" font-weight="bold" font-size="14.00" fill="#111111">MMController</text>
<text xml:space="preserve" text-anchor="start" x="1151.76" y="-379.58" font-family="Helvetica,sans-Serif" font-size="10.00" fill="#111111">Raw TTY Orchestrator</text>
</g>
<!-- Keyboard&#45;&gt;MMController -->
<g id="edge9" class="edge">
<title>Keyboard&#45;&gt;MMController</title>
<path fill="none" stroke="#4caf50" stroke-width="1.5" d="M919.89,-504.91C936.49,-494.33 955.66,-484.07 974.76,-478.08 1004.81,-468.66 1087.28,-482.43 1116.26,-470.08 1142.18,-459.04 1165.15,-436.49 1180.66,-418.29"/>
<polygon fill="#4caf50" stroke="#4caf50" stroke-width="1.5" points="1183.2,-420.71 1186.83,-410.75 1177.78,-416.27 1183.2,-420.71"/>
<text xml:space="preserve" text-anchor="middle" x="1007.01" y="-479.83" font-family="Helvetica,sans-Serif" font-size="10.00" fill="#999999">termios events</text>
</g>
<!-- Keyboard&#45;&gt;MMController -->
<!-- Microphone -->
<g id="node5" class="node">
<title>Microphone</title>
<ellipse fill="#ffffff" stroke="black" cx="363.26" cy="-543.33" rx="73.89" ry="26.87"/>
<text xml:space="preserve" text-anchor="middle" x="363.26" y="-545.03" font-family="Helvetica,sans-Serif" font-size="14.00" fill="#111111">Microphone</text>
<text xml:space="preserve" text-anchor="middle" x="363.26" y="-530.03" font-family="Helvetica,sans-Serif" font-size="14.00" fill="#111111">(Speech Input)</text>
</g>
<!-- InputNode -->
<g id="node20" class="node">
<title>InputNode</title>
<path fill="#f5f5f5" stroke="black" d="M890.88,-408.08C890.88,-408.08 767.63,-408.08 767.63,-408.08 761.63,-408.08 755.63,-402.08 755.63,-396.08 755.63,-396.08 755.63,-384.08 755.63,-384.08 755.63,-378.08 761.63,-372.08 767.63,-372.08 767.63,-372.08 890.88,-372.08 890.88,-372.08 896.88,-372.08 902.88,-378.08 902.88,-384.08 902.88,-384.08 902.88,-396.08 902.88,-396.08 902.88,-402.08 896.88,-408.08 890.88,-408.08"/>
<text xml:space="preserve" text-anchor="middle" x="829.26" y="-384.28" font-family="Helvetica,sans-Serif" font-size="14.00" fill="#111111">InputNode (PCM Tap)</text>
</g>
<!-- Microphone&#45;&gt;InputNode -->
<g id="edge10" class="edge">
<title>Microphone&#45;&gt;InputNode</title>
<path fill="none" stroke="#4caf50" stroke-width="1.5" d="M400.97,-520.04C417.15,-511.5 436.6,-502.57 455.26,-497.33 582.46,-461.67 631.83,-526.57 751.26,-470.08 775.55,-458.6 796.52,-436.19 810.57,-418.17"/>
<polygon fill="#4caf50" stroke="#4caf50" stroke-width="1.5" points="813.3,-420.36 816.48,-410.26 807.69,-416.18 813.3,-420.36"/>
</g>
<!-- Speaker -->
<g id="node6" class="node">
<title>Speaker</title>
<path fill="#ffffff" stroke="black" d="M531.97,-505.33C531.97,-505.33 640.54,-505.33 640.54,-505.33 646.54,-505.33 655.71,-510.43 658.88,-515.53 658.88,-515.53 693.43,-571.14 693.43,-571.14 696.59,-576.24 693.76,-581.33 687.76,-581.33 687.76,-581.33 484.76,-581.33 484.76,-581.33 478.76,-581.33 475.92,-576.24 479.09,-571.14 479.09,-571.14 513.64,-515.53 513.64,-515.53 516.81,-510.43 525.97,-505.33 531.97,-505.33"/>
<text xml:space="preserve" text-anchor="middle" x="586.26" y="-545.03" font-family="Helvetica,sans-Serif" font-size="14.00" fill="#111111">Speaker</text>
<text xml:space="preserve" text-anchor="middle" x="586.26" y="-530.03" font-family="Helvetica,sans-Serif" font-size="14.00" fill="#111111">(TTS Feedback)</text>
</g>
<!-- GUIPicker -->
<g id="node7" class="node">
<title>GUIPicker</title>
<polygon fill="#ffffff" stroke="black" points="253.63,-562.33 116.88,-562.33 116.88,-558.33 112.88,-558.33 112.88,-554.33 116.88,-554.33 116.88,-532.33 112.88,-532.33 112.88,-528.33 116.88,-528.33 116.88,-524.33 253.63,-524.33 253.63,-562.33"/>
<polyline fill="none" stroke="black" points="116.88,-558.33 120.88,-558.33 120.88,-554.33 116.88,-554.33"/>
<polyline fill="none" stroke="black" points="116.88,-532.33 120.88,-532.33 120.88,-528.33 116.88,-528.33"/>
<text xml:space="preserve" text-anchor="middle" x="185.26" y="-545.03" font-family="Helvetica,sans-Serif" font-size="14.00" fill="#111111">AppKit File Picker</text>
<text xml:space="preserve" text-anchor="middle" x="185.26" y="-530.03" font-family="Helvetica,sans-Serif" font-size="14.00" fill="#111111">(NSAlert/TableView)</text>
</g>
<!-- GUIPicker&#45;&gt;Sanitizer -->
<g id="edge8" class="edge">
<title>GUIPicker&#45;&gt;Sanitizer</title>
<path fill="none" stroke="#888888" stroke-width="1.5" d="M185.02,-524.09C184.68,-498.65 184.07,-452.2 183.66,-421.49"/>
<polygon fill="#888888" stroke="#888888" stroke-width="1.5" points="187.16,-421.62 183.53,-411.66 180.16,-421.71 187.16,-421.62"/>
<text xml:space="preserve" text-anchor="middle" x="222.43" y="-479.83" font-family="Helvetica,sans-Serif" font-size="10.00" fill="#999999">Selected Content</text>
</g>
<!-- Buffer -->
<g id="node9" class="node">
<title>Buffer</title>
<path fill="#ffffff" stroke="black" d="M1477.51,-280.5C1477.51,-280.5 1343.01,-280.5 1343.01,-280.5 1337.01,-280.5 1331.01,-274.5 1331.01,-268.5 1331.01,-268.5 1331.01,-254.5 1331.01,-254.5 1331.01,-248.5 1337.01,-242.5 1343.01,-242.5 1343.01,-242.5 1477.51,-242.5 1477.51,-242.5 1483.51,-242.5 1489.51,-248.5 1489.51,-254.5 1489.51,-254.5 1489.51,-268.5 1489.51,-268.5 1489.51,-274.5 1483.51,-280.5 1477.51,-280.5"/>
<text xml:space="preserve" text-anchor="middle" x="1410.26" y="-263.2" font-family="Helvetica,sans-Serif" font-size="14.00" fill="#111111">Synchronized Buffer</text>
<text xml:space="preserve" text-anchor="middle" x="1410.26" y="-248.2" font-family="Helvetica,sans-Serif" font-size="14.00" fill="#111111">(Cursor and Arrow Nav)</text>
</g>
<!-- MMController&#45;&gt;Buffer -->
<g id="edge12" class="edge">
<title>MMController&#45;&gt;Buffer</title>
<path fill="none" stroke="#888888" stroke-width="1.5" d="M1230.76,-371.22C1267.01,-349.26 1328.73,-311.88 1369.49,-287.19"/>
<polygon fill="#888888" stroke="#888888" stroke-width="1.5" points="1371.21,-290.24 1377.95,-282.07 1367.58,-284.26 1371.21,-290.24"/>
<text xml:space="preserve" text-anchor="middle" x="1345.4" y="-326.88" font-family="Helvetica,sans-Serif" font-size="10.00" fill="#999999">Manage Cursor</text>
</g>
<!-- ModalUI -->
<g id="node10" class="node">
<title>ModalUI</title>
<path fill="#ffffff" stroke="black" d="M1654.51,-280.5C1654.51,-280.5 1538.01,-280.5 1538.01,-280.5 1532.01,-280.5 1526.01,-274.5 1526.01,-268.5 1526.01,-268.5 1526.01,-254.5 1526.01,-254.5 1526.01,-248.5 1532.01,-242.5 1538.01,-242.5 1538.01,-242.5 1654.51,-242.5 1654.51,-242.5 1660.51,-242.5 1666.51,-248.5 1666.51,-254.5 1666.51,-254.5 1666.51,-268.5 1666.51,-268.5 1666.51,-274.5 1660.51,-280.5 1654.51,-280.5"/>
<text xml:space="preserve" text-anchor="middle" x="1596.26" y="-263.2" font-family="Helvetica,sans-Serif" font-size="14.00" fill="#111111">showModalMessage</text>
<text xml:space="preserve" text-anchor="middle" x="1596.26" y="-248.2" font-family="Helvetica,sans-Serif" font-size="14.00" fill="#111111">(ANSI Overlays)</text>
</g>
<!-- MMController&#45;&gt;ModalUI -->
<g id="edge13" class="edge">
<title>MMController&#45;&gt;ModalUI</title>
<path fill="none" stroke="#888888" stroke-width="1.5" d="M1259.61,-378.94C1322.23,-366.99 1423.95,-344.49 1507.26,-311.5 1524.15,-304.81 1541.86,-295.57 1556.99,-286.92"/>
<polygon fill="#888888" stroke="#888888" stroke-width="1.5" points="1558.68,-289.98 1565.54,-281.91 1555.14,-283.94 1558.68,-289.98"/>
<text xml:space="preserve" text-anchor="middle" x="1520.84" y="-326.88" font-family="Helvetica,sans-Serif" font-size="10.00" fill="#999999">Display Help/Diff</text>
</g>
<!-- UUIDGuard -->
<g id="node11" class="node">
<title>UUIDGuard</title>
<path fill="#ffffff" stroke="black" d="M1283.26,-280.5C1283.26,-280.5 1135.26,-280.5 1135.26,-280.5 1129.26,-280.5 1123.26,-274.5 1123.26,-268.5 1123.26,-268.5 1123.26,-254.5 1123.26,-254.5 1123.26,-248.5 1129.26,-242.5 1135.26,-242.5 1135.26,-242.5 1283.26,-242.5 1283.26,-242.5 1289.26,-242.5 1295.26,-248.5 1295.26,-254.5 1295.26,-254.5 1295.26,-268.5 1295.26,-268.5 1295.26,-274.5 1289.26,-280.5 1283.26,-280.5"/>
<text xml:space="preserve" text-anchor="middle" x="1209.26" y="-263.2" font-family="Helvetica,sans-Serif" font-size="14.00" fill="#111111">UUID Task Guard</text>
<text xml:space="preserve" text-anchor="middle" x="1209.26" y="-248.2" font-family="Helvetica,sans-Serif" font-size="14.00" fill="#111111">(Speech and Clear Reset)</text>
</g>
<!-- MMController&#45;&gt;UUIDGuard -->
<g id="edge14" class="edge">
<title>MMController&#45;&gt;UUIDGuard</title>
<path fill="none" stroke="#888888" stroke-width="1.5" d="M1202.39,-371.22C1203.67,-350.88 1205.79,-317.33 1207.34,-292.86"/>
<polygon fill="#888888" stroke="#888888" stroke-width="1.5" points="1210.83,-293.15 1207.97,-282.95 1203.84,-292.71 1210.83,-293.15"/>
<text xml:space="preserve" text-anchor="middle" x="1237.37" y="-326.88" font-family="Helvetica,sans-Serif" font-size="10.00" fill="#999999">Rotate TaskID</text>
</g>
<!-- Normalization -->
<g id="node14" class="node">
<title>Normalization</title>
<path fill="#ffffff" stroke="black" d="M296.88,-200.25C296.88,-200.25 89.63,-200.25 89.63,-200.25 83.63,-200.25 77.63,-194.25 77.63,-188.25 77.63,-188.25 77.63,-176.25 77.63,-176.25 77.63,-170.25 83.63,-164.25 89.63,-164.25 89.63,-164.25 296.88,-164.25 296.88,-164.25 302.88,-164.25 308.88,-170.25 308.88,-176.25 308.88,-176.25 308.88,-188.25 308.88,-188.25 308.88,-194.25 302.88,-200.25 296.88,-200.25"/>
<text xml:space="preserve" text-anchor="middle" x="193.26" y="-176.45" font-family="Helvetica,sans-Serif" font-size="14.00" fill="#111111">NLP: Orthography and Contractions</text>
</g>
<!-- Buffer&#45;&gt;Normalization -->
<g id="edge17" class="edge">
<title>Buffer&#45;&gt;Normalization</title>
<path fill="none" stroke="#888888" stroke-width="1.5" d="M1350.98,-242.06C1338.63,-238.94 1325.61,-236.17 1313.26,-234.5 1255.67,-226.69 323.29,-241.9 267.26,-226.5 252.83,-222.53 238.32,-215.01 226.02,-207.34"/>
<polygon fill="#888888" stroke="#888888" stroke-width="1.5" points="228.01,-204.46 217.73,-201.89 224.17,-210.31 228.01,-204.46"/>
<text xml:space="preserve" text-anchor="middle" x="301.76" y="-217" font-family="Helvetica,sans-Serif" font-size="10.00" fill="#999999">Raw User Input</text>
</g>
<!-- TranslationValidator -->
<g id="node12" class="node">
<title>TranslationValidator</title>
<path fill="#fff9c4" stroke="black" stroke-width="2" d="M297.38,-280.5C297.38,-280.5 141.13,-280.5 141.13,-280.5 135.13,-280.5 129.13,-274.5 129.13,-268.5 129.13,-268.5 129.13,-254.5 129.13,-254.5 129.13,-248.5 135.13,-242.5 141.13,-242.5 141.13,-242.5 297.38,-242.5 297.38,-242.5 303.38,-242.5 309.38,-248.5 309.38,-254.5 309.38,-254.5 309.38,-268.5 309.38,-268.5 309.38,-274.5 303.38,-280.5 297.38,-280.5"/>
<text xml:space="preserve" text-anchor="middle" x="219.26" y="-263.2" font-family="Helvetica,sans-Serif" font-size="14.00" fill="#111111">TranslationValidator</text>
<text xml:space="preserve" text-anchor="middle" x="219.26" y="-248.2" font-family="Helvetica,sans-Serif" font-size="14.00" fill="#111111">(Semantic Pair Verification)</text>
</g>
<!-- TranslationValidator&#45;&gt;Normalization -->
<g id="edge2" class="edge">
<title>TranslationValidator&#45;&gt;Normalization</title>
<path fill="none" stroke="#888888" stroke-width="1.5" d="M212.96,-241.8C209.97,-232.91 206.33,-222.08 202.99,-212.17"/>
<polygon fill="#888888" stroke="#888888" stroke-width="1.5" points="206.37,-211.23 199.86,-202.87 199.73,-213.46 206.37,-211.23"/>
</g>
<!-- Ollama -->
<g id="node19" class="node">
<title>Ollama</title>
<path fill="#ffffff" stroke="black" d="M715.4,-386.07C715.4,-386.07 715.4,-394.1 715.4,-394.1 715.4,-398.12 711.51,-403.11 707.61,-404.08 707.61,-404.08 655.16,-417.22 655.16,-417.22 651.26,-418.19 643.35,-419.17 639.34,-419.17 639.34,-419.17 559.18,-419.17 559.18,-419.17 555.17,-419.17 547.25,-418.19 543.36,-417.22 543.36,-417.22 490.9,-404.08 490.9,-404.08 487.01,-403.11 483.11,-398.12 483.11,-394.1 483.11,-394.1 483.11,-386.07 483.11,-386.07 483.11,-382.05 487.01,-377.06 490.9,-376.09 490.9,-376.09 543.36,-362.95 543.36,-362.95 547.25,-361.98 555.17,-361 559.18,-361 559.18,-361 639.34,-361 639.34,-361 643.35,-361 651.26,-361.98 655.16,-362.95 655.16,-362.95 707.61,-376.09 707.61,-376.09 711.51,-377.06 715.4,-382.05 715.4,-386.07"/>
<path fill="none" stroke="black" d="M719.4,-385.03C719.4,-385.03 719.4,-395.14 719.4,-395.14 719.4,-400.2 714.5,-406.48 709.59,-407.71 709.59,-407.71 657.67,-420.71 657.67,-420.71 652.76,-421.94 642.8,-423.17 637.75,-423.17 637.75,-423.17 560.77,-423.17 560.77,-423.17 555.71,-423.17 545.75,-421.94 540.85,-420.71 540.85,-420.71 488.92,-407.71 488.92,-407.71 484.02,-406.48 479.11,-400.2 479.11,-395.14 479.11,-395.14 479.11,-385.03 479.11,-385.03 479.11,-379.97 484.02,-373.69 488.92,-372.46 488.92,-372.46 540.85,-359.46 540.85,-359.46 545.75,-358.23 555.71,-357 560.77,-357 560.77,-357 637.75,-357 637.75,-357 642.8,-357 652.76,-358.23 657.67,-359.46 657.67,-359.46 709.59,-372.46 709.59,-372.46 714.5,-373.69 719.4,-379.97 719.4,-385.03"/>
<text xml:space="preserve" text-anchor="middle" x="599.26" y="-391.78" font-family="Helvetica,sans-Serif" font-size="14.00" fill="#111111">Ollama API</text>
<text xml:space="preserve" text-anchor="middle" x="599.26" y="-376.78" font-family="Helvetica,sans-Serif" font-size="14.00" fill="#111111">(Structured Response)</text>
</g>
<!-- TranslationValidator&#45;&gt;Ollama -->
<g id="edge15" class="edge">
<title>TranslationValidator&#45;&gt;Ollama</title>
<path fill="none" stroke="#2563eb" stroke-width="1.5" d="M304.41,-281.48C350.89,-291.39 409.55,-303.15 462.26,-311.5 492.75,-316.33 503.54,-305.9 531.26,-319.5 545.02,-326.25 557.57,-336.96 568.03,-347.97"/>
<polygon fill="#2563eb" stroke="#2563eb" stroke-width="1.5" points="565.16,-350.01 574.45,-355.11 570.37,-345.33 565.16,-350.01"/>
<text xml:space="preserve" text-anchor="middle" x="606.92" y="-332.5" font-family="Helvetica,sans-Serif" font-size="10.00" fill="#999999">Structured Prompt</text>
<text xml:space="preserve" text-anchor="middle" x="606.92" y="-321.25" font-family="Helvetica,sans-Serif" font-size="10.00" fill="#999999">(URLSession Async)</text>
</g>
<!-- Sanitizer&#45;&gt;TranslationValidator -->
<g id="edge1" class="edge">
<title>Sanitizer&#45;&gt;TranslationValidator</title>
<path fill="none" stroke="#888888" stroke-width="1.5" d="M188.49,-370.68C194.27,-350.36 203.67,-317.32 210.56,-293.09"/>
<polygon fill="#888888" stroke="#888888" stroke-width="1.5" points="213.91,-294.1 213.28,-283.53 207.18,-292.19 213.91,-294.1"/>
</g>
<!-- WordAlignment -->
<g id="node15" class="node">
<title>WordAlignment</title>
<path fill="#ffffff" stroke="black" d="M290.76,-123C290.76,-123 109.76,-123 109.76,-123 103.76,-123 97.76,-117 97.76,-111 97.76,-111 97.76,-97 97.76,-97 97.76,-91 103.76,-85 109.76,-85 109.76,-85 290.76,-85 290.76,-85 296.76,-85 302.76,-91 302.76,-97 302.76,-97 302.76,-111 302.76,-111 302.76,-117 296.76,-123 290.76,-123"/>
<text xml:space="preserve" text-anchor="middle" x="200.26" y="-105.7" font-family="Helvetica,sans-Serif" font-size="14.00" fill="#111111">Levenshtein Alignment</text>
<text xml:space="preserve" text-anchor="middle" x="200.26" y="-90.7" font-family="Helvetica,sans-Serif" font-size="14.00" fill="#111111">(Fuzzy and Homonym Support)</text>
</g>
<!-- Normalization&#45;&gt;WordAlignment -->
<g id="edge3" class="edge">
<title>Normalization&#45;&gt;WordAlignment</title>
<path fill="none" stroke="#888888" stroke-width="1.5" d="M194.85,-163.95C195.62,-155.52 196.57,-145.12 197.47,-135.42"/>
<polygon fill="#888888" stroke="#888888" stroke-width="1.5" points="200.94,-135.84 198.37,-125.56 193.97,-135.2 200.94,-135.84"/>
</g>
<!-- DiffEngine -->
<g id="node16" class="node">
<title>DiffEngine</title>
<path fill="#ffccbc" stroke="black" d="M277.26,-54C277.26,-54 165.26,-54 165.26,-54 159.26,-54 153.26,-48 153.26,-42 153.26,-42 153.26,-28 153.26,-28 153.26,-22 159.26,-16 165.26,-16 165.26,-16 277.26,-16 277.26,-16 283.26,-16 289.26,-22 289.26,-28 289.26,-28 289.26,-42 289.26,-42 289.26,-48 283.26,-54 277.26,-54"/>
<text xml:space="preserve" text-anchor="middle" x="221.26" y="-36.7" font-family="Helvetica,sans-Serif" font-size="14.00" fill="#111111">Character&#45;Level Diff</text>
<text xml:space="preserve" text-anchor="middle" x="221.26" y="-21.7" font-family="Helvetica,sans-Serif" font-size="14.00" fill="#111111">(ANSI Highlighting)</text>
</g>
<!-- WordAlignment&#45;&gt;DiffEngine -->
<g id="edge4" class="edge">
<title>WordAlignment&#45;&gt;DiffEngine</title>
<path fill="none" stroke="#888888" stroke-width="1.5" d="M206,-84.69C207.85,-78.78 209.95,-72.07 211.99,-65.57"/>
<polygon fill="#888888" stroke="#888888" stroke-width="1.5" points="215.2,-67.04 214.85,-56.45 208.52,-64.95 215.2,-67.04"/>
</g>
<!-- DiffEngine&#45;&gt;ModalUI -->
<g id="edge18" class="edge">
<title>DiffEngine&#45;&gt;ModalUI</title>
<path fill="none" stroke="#888888" stroke-width="1.5" d="M289.47,-43.33C482.23,-64.75 1046.91,-132.19 1507.26,-234.5 1513.2,-235.82 1519.32,-237.32 1525.44,-238.91"/>
<polygon fill="#888888" stroke="#888888" stroke-width="1.5" points="1524.42,-242.26 1534.98,-241.48 1526.24,-235.5 1524.42,-242.26"/>
<text xml:space="preserve" text-anchor="middle" x="1088.69" y="-139.75" font-family="Helvetica,sans-Serif" font-size="10.00" fill="#999999">Alignment Preview</text>
</g>
<!-- TTSManager -->
<g id="node17" class="node">
<title>TTSManager</title>
<path fill="#ffffff" stroke="black" d="M1087.26,-409.08C1087.26,-409.08 951.26,-409.08 951.26,-409.08 945.26,-409.08 939.26,-403.08 939.26,-397.08 939.26,-397.08 939.26,-383.08 939.26,-383.08 939.26,-377.08 945.26,-371.08 951.26,-371.08 951.26,-371.08 1087.26,-371.08 1087.26,-371.08 1093.26,-371.08 1099.26,-377.08 1099.26,-383.08 1099.26,-383.08 1099.26,-397.08 1099.26,-397.08 1099.26,-403.08 1093.26,-409.08 1087.26,-409.08"/>
<text xml:space="preserve" text-anchor="middle" x="1019.26" y="-391.78" font-family="Helvetica,sans-Serif" font-size="14.00" fill="#111111">TTSManager</text>
<text xml:space="preserve" text-anchor="middle" x="1019.26" y="-376.78" font-family="Helvetica,sans-Serif" font-size="14.00" fill="#111111">(Async RunLoop Pump)</text>
</g>
<!-- TTSManager&#45;&gt;Speaker -->
<g id="edge22" class="edge">
<title>TTSManager&#45;&gt;Speaker</title>
<path fill="none" stroke="#4caf50" stroke-width="1.5" d="M1002.27,-409.55C983.96,-428.17 953.02,-456.09 920.26,-470.08 836.95,-505.68 806.44,-476.56 718.26,-497.33 702.52,-501.04 686.01,-505.88 670.2,-511"/>
<polygon fill="#4caf50" stroke="#4caf50" stroke-width="1.5" points="669.38,-507.59 660.99,-514.06 671.58,-514.23 669.38,-507.59"/>
</g>
<!-- Recognition -->
<g id="node18" class="node">
<title>Recognition</title>
<path fill="#ffffff" stroke="black" d="M890.88,-279.5C890.88,-279.5 767.63,-279.5 767.63,-279.5 761.63,-279.5 755.63,-273.5 755.63,-267.5 755.63,-267.5 755.63,-255.5 755.63,-255.5 755.63,-249.5 761.63,-243.5 767.63,-243.5 767.63,-243.5 890.88,-243.5 890.88,-243.5 896.88,-243.5 902.88,-249.5 902.88,-255.5 902.88,-255.5 902.88,-267.5 902.88,-267.5 902.88,-273.5 896.88,-279.5 890.88,-279.5"/>
<text xml:space="preserve" text-anchor="middle" x="829.26" y="-255.7" font-family="Helvetica,sans-Serif" font-size="14.00" fill="#111111">SFSpeechRecognizer</text>
</g>
<!-- Ollama&#45;&gt;TranslationValidator -->
<g id="edge16" class="edge">
<title>Ollama&#45;&gt;TranslationValidator</title>
<path fill="none" stroke="#2563eb" stroke-width="1.5" d="M509.78,-366.73C485.09,-359.69 458.5,-351.3 434.51,-342 413.57,-333.88 410.01,-328.09 389.26,-319.5 358.66,-306.83 324.14,-294.85 294.24,-285.17"/>
<polygon fill="#2563eb" stroke="#2563eb" stroke-width="1.5" points="295.34,-281.85 284.75,-282.14 293.21,-288.52 295.34,-281.85"/>
<text xml:space="preserve" text-anchor="middle" x="478.38" y="-326.88" font-family="Helvetica,sans-Serif" font-size="10.00" fill="#999999">Validation Feedback</text>
</g>
<!-- InputNode&#45;&gt;Recognition -->
<g id="edge11" class="edge">
<title>InputNode&#45;&gt;Recognition</title>
<path fill="none" stroke="blue" stroke-width="1.5" d="M829.26,-371.75C829.26,-351.2 829.26,-316.63 829.26,-291.88"/>
<polygon fill="blue" stroke="blue" stroke-width="1.5" points="832.76,-291.9 829.26,-281.9 825.76,-291.9 832.76,-291.9"/>
<text xml:space="preserve" text-anchor="middle" x="849.88" y="-326.88" font-family="Helvetica,sans-Serif" font-size="10.00" fill="#999999">installTap</text>
</g>
<!-- APP&#45;&gt;MMController -->
<g id="edge19" class="edge">
<title>APP&#45;&gt;MMController</title>
<path fill="none" stroke="#888888" stroke-width="1.5" d="M1138.76,-515.88C1146.39,-507.85 1154.2,-498.67 1160.26,-489.33 1174.18,-467.89 1185.02,-440.95 1192.05,-420.7"/>
<polygon fill="#888888" stroke="#888888" stroke-width="1.5" points="1195.37,-421.81 1195.21,-411.22 1188.73,-419.6 1195.37,-421.81"/>
<text xml:space="preserve" text-anchor="middle" x="1172.99" y="-479.83" font-family="Helvetica,sans-Serif" font-size="10.00" fill="#999999">Init</text>
</g>
<!-- APP&#45;&gt;TranslationValidator -->
<g id="edge20" class="edge">
<title>APP&#45;&gt;TranslationValidator</title>
<path fill="none" stroke="#888888" stroke-width="1.5" d="M1067.36,-516.02C1053.19,-508.6 1037.01,-501.44 1021.26,-497.33 952.31,-479.34 442.37,-505.44 380.51,-470.08 328.52,-440.37 344.08,-404.22 307.26,-357 288.63,-333.1 265.14,-308.1 247.11,-289.82"/>
<polygon fill="#888888" stroke="#888888" stroke-width="1.5" points="249.64,-287.39 240.1,-282.77 244.68,-292.33 249.64,-287.39"/>
<text xml:space="preserve" text-anchor="middle" x="421.38" y="-386.21" font-family="Helvetica,sans-Serif" font-size="10.00" fill="#999999">Pre&#45;Session Verify</text>
</g>
<!-- APP&#45;&gt;TTSManager -->
<g id="edge21" class="edge">
<title>APP&#45;&gt;TTSManager</title>
<path fill="none" stroke="#888888" stroke-width="1.5" d="M1077.16,-515.71C1068.93,-507.88 1060.71,-498.84 1054.51,-489.33 1040.82,-468.34 1031.64,-441.35 1026.08,-420.98"/>
<polygon fill="#888888" stroke="#888888" stroke-width="1.5" points="1029.52,-420.28 1023.65,-411.46 1022.74,-422.01 1029.52,-420.28"/>
<text xml:space="preserve" text-anchor="middle" x="1102.88" y="-479.83" font-family="Helvetica,sans-Serif" font-size="10.00" fill="#999999">Async Task and Drain</text>
</g>
</g>
</svg>
