<?xml version="1.0" encoding="UTF-8" standalone="no"?>
<!DOCTYPE svg PUBLIC "-//W3C//DTD SVG 1.1//EN"
 "http://www.w3.org/Graphics/SVG/1.1/DTD/svg11.dtd">
<!-- Generated by graphviz version 13.0.0 (20250608.1624)
 -->
<!-- Title: G Pages: 1 -->
<svg width="1054pt" height="626pt"
 viewBox="0.00 0.00 1054.00 626.00" xmlns="http://www.w3.org/2000/svg" xmlns:xlink="http://www.w3.org/1999/xlink">
<g id="graph0" class="graph" transform="scale(1 1) rotate(0) translate(4 622.29)">
<title>G</title>
<text xml:space="preserve" text-anchor="start" x="266.5" y="-594.39" font-family="Helvetica,sans-Serif" font-weight="bold" font-size="22.00" fill="#f33333">LangQuiz: Unified Multimodal Architecture (2026)</text>
<g id="clust1" class="cluster">
<title>cluster_io</title>
<path fill="#e8f5e9" stroke="#4caf50" d="M760,-90C760,-90 1026,-90 1026,-90 1032,-90 1038,-96 1038,-102 1038,-102 1038,-544.66 1038,-544.66 1038,-550.66 1032,-556.66 1026,-556.66 1026,-556.66 760,-556.66 760,-556.66 754,-556.66 748,-550.66 748,-544.66 748,-544.66 748,-102 748,-102 748,-96 754,-90 760,-90"/>
<text xml:space="preserve" text-anchor="middle" x="893" y="-539.36" font-family="Helvetica,sans-Serif" font-size="14.00" fill="#999999">Input and Output Modalities</text>
</g>
<g id="clust2" class="cluster">
<title>cluster_services</title>
<path fill="#f5f5fa" stroke="#9090c0" d="M20,-12C20,-12 266,-12 266,-12 272,-12 278,-18 278,-24 278,-24 278,-285.42 278,-285.42 278,-291.42 272,-297.42 266,-297.42 266,-297.42 20,-297.42 20,-297.42 14,-297.42 8,-291.42 8,-285.42 8,-285.42 8,-24 8,-24 8,-18 14,-12 20,-12"/>
<text xml:space="preserve" text-anchor="middle" x="143" y="-280.12" font-family="Helvetica,sans-Serif" font-size="14.00" fill="#999999">External and AI Services</text>
</g>
<g id="clust3" class="cluster">
<title>cluster_headless_core</title>
<path fill="#f8f9fa" stroke="#607d8b" d="M418,-8C418,-8 728,-8 728,-8 734,-8 740,-14 740,-20 740,-20 740,-567.79 740,-567.79 740,-573.79 734,-579.79 728,-579.79 728,-579.79 418,-579.79 418,-579.79 412,-579.79 406,-573.79 406,-567.79 406,-567.79 406,-20 406,-20 406,-14 412,-8 418,-8"/>
<text xml:space="preserve" text-anchor="middle" x="573" y="-562.49" font-family="Helvetica,sans-Serif" font-size="14.00" fill="#999999">macOS Headless Core</text>
</g>
<g id="clust4" class="cluster">
<title>cluster_controller</title>
<polygon fill="none" stroke="#607d8b" stroke-dasharray="1,5" points="433,-342.67 433,-548.79 645,-548.79 645,-342.67 433,-342.67"/>
<text xml:space="preserve" text-anchor="middle" x="539" y="-531.49" font-family="Helvetica,sans-Serif" font-size="14.00" fill="#999999">Input Management</text>
</g>
<g id="clust5" class="cluster">
<title>cluster_logic</title>
<polygon fill="none" stroke="#999999" stroke-dasharray="1,5" points="562,-16 562,-283.33 732,-283.33 732,-16 562,-16"/>
<text xml:space="preserve" text-anchor="middle" x="647" y="-266.03" font-family="Helvetica,sans-Serif" font-size="14.00" fill="#999999">Linguistic Engine</text>
</g>
<!-- Keyboard -->
<g id="node1" class="node">
<title>Keyboard</title>
<path fill="#ffffff" stroke="black" d="M1018.11,-407.67C1018.11,-407.67 824,-407.67 824,-407.67 818,-407.67 808.43,-402.84 804.87,-398.01 804.87,-398.01 763.02,-341.32 763.02,-341.32 759.45,-336.49 761.89,-331.67 767.89,-331.67 767.89,-331.67 962,-331.67 962,-331.67 968,-331.67 977.57,-336.49 981.13,-341.32 981.13,-341.32 1022.98,-398.01 1022.98,-398.01 1026.55,-402.84 1024.11,-407.67 1018.11,-407.67"/>
<text xml:space="preserve" text-anchor="middle" x="893" y="-371.37" font-family="Helvetica,sans-Serif" font-size="14.00" fill="#111111">Keyboard</text>
<text xml:space="preserve" text-anchor="middle" x="893" y="-356.37" font-family="Helvetica,sans-Serif" font-size="14.00" fill="#111111">(Character Stream)</text>
</g>
<!-- Terminal -->
<g id="node3" class="node">
<title>Terminal</title>
<polygon fill="#e0e0e0" stroke="black" points="943.5,-229.33 814.5,-229.33 810.5,-225.33 810.5,-191.33 939.5,-191.33 943.5,-195.33 943.5,-229.33"/>
<polyline fill="none" stroke="black" points="939.5,-225.33 810.5,-225.33"/>
<polyline fill="none" stroke="black" points="939.5,-225.33 939.5,-191.33"/>
<polyline fill="none" stroke="black" points="939.5,-225.33 943.5,-229.33"/>
<text xml:space="preserve" text-anchor="middle" x="877" y="-212.03" font-family="Helvetica,sans-Serif" font-size="14.00" fill="#111111">Headless TTY</text>
<text xml:space="preserve" text-anchor="middle" x="877" y="-197.03" font-family="Helvetica,sans-Serif" font-size="14.00" fill="#111111">(ANSI / Raw Mode)</text>
</g>
<!-- Keyboard&#45;&gt;Terminal -->
<!-- MMController -->
<g id="node9" class="node">
<title>MMController</title>
<path fill="#ffdaff" stroke="black" d="M600.88,-388.67C600.88,-388.67 461.12,-388.67 461.12,-388.67 455.12,-388.67 449.12,-382.67 449.12,-376.67 449.12,-376.67 449.12,-362.67 449.12,-362.67 449.12,-356.67 455.12,-350.67 461.12,-350.67 461.12,-350.67 600.88,-350.67 600.88,-350.67 606.88,-350.67 612.88,-356.67 612.88,-362.67 612.88,-362.67 612.88,-376.67 612.88,-376.67 612.88,-382.67 606.88,-388.67 600.88,-388.67"/>
<text xml:space="preserve" text-anchor="middle" x="531" y="-371.37" font-family="Helvetica,sans-Serif" font-size="14.00" fill="#111111">MMController</text>
<text xml:space="preserve" text-anchor="middle" x="531" y="-356.37" font-family="Helvetica,sans-Serif" font-size="14.00" fill="#111111">(Input Sync / Navigation)</text>
</g>
<!-- Keyboard&#45;&gt;MMController -->
<g id="edge6" class="edge">
<title>Keyboard&#45;&gt;MMController</title>
<path fill="none" stroke="#888888" stroke-width="1.5" d="M783.38,-369.67C732.91,-369.67 673.63,-369.67 625.21,-369.67"/>
<polygon fill="#888888" stroke="#888888" stroke-width="1.5" points="625.41,-366.17 615.41,-369.67 625.41,-373.17 625.41,-366.17"/>
<text xml:space="preserve" text-anchor="middle" x="684.38" y="-374.42" font-family="Helvetica,sans-Serif" font-size="10.00" fill="#999999">Raw I/O</text>
</g>
<!-- Microphone -->
<g id="node2" class="node">
<title>Microphone</title>
<ellipse fill="#ffffff" stroke="black" cx="888" cy="-475.79" rx="102.53" ry="26.87"/>
<text xml:space="preserve" text-anchor="middle" x="888" y="-477.49" font-family="Helvetica,sans-Serif" font-size="14.00" fill="#111111">Microphone</text>
<text xml:space="preserve" text-anchor="middle" x="888" y="-462.49" font-family="Helvetica,sans-Serif" font-size="14.00" fill="#111111">(AVFoundation PCM)</text>
</g>
<!-- Microphone&#45;&gt;Keyboard -->
<!-- SpeechEngine -->
<g id="node10" class="node">
<title>SpeechEngine</title>
<path fill="#ffffff" stroke="black" d="M625,-494.79C625,-494.79 453,-494.79 453,-494.79 447,-494.79 441,-488.79 441,-482.79 441,-482.79 441,-468.79 441,-468.79 441,-462.79 447,-456.79 453,-456.79 453,-456.79 625,-456.79 625,-456.79 631,-456.79 637,-462.79 637,-468.79 637,-468.79 637,-482.79 637,-482.79 637,-488.79 631,-494.79 625,-494.79"/>
<text xml:space="preserve" text-anchor="middle" x="539" y="-477.49" font-family="Helvetica,sans-Serif" font-size="14.00" fill="#111111">SpeechRecognizer</text>
<text xml:space="preserve" text-anchor="middle" x="539" y="-462.49" font-family="Helvetica,sans-Serif" font-size="14.00" fill="#111111">(UUID Guard / &#39;and&#39; Sanitizer)</text>
</g>
<!-- Microphone&#45;&gt;SpeechEngine -->
<g id="edge7" class="edge">
<title>Microphone&#45;&gt;SpeechEngine</title>
<path fill="none" stroke="#888888" stroke-width="1.5" d="M785.12,-475.79C742.38,-475.79 692.71,-475.79 649.23,-475.79"/>
<polygon fill="#888888" stroke="#888888" stroke-width="1.5" points="649.42,-472.29 639.42,-475.79 649.41,-479.29 649.42,-472.29"/>
<text xml:space="preserve" text-anchor="middle" x="711.23" y="-480.54" font-family="Helvetica,sans-Serif" font-size="10.00" fill="#999999">PCM Audio</text>
</g>
<!-- Speakers -->
<g id="node4" class="node">
<title>Speakers</title>
<polygon fill="#ffffff" stroke="black" points="930.5,-136 821.5,-136 821.5,-132 817.5,-132 817.5,-128 821.5,-128 821.5,-106 817.5,-106 817.5,-102 821.5,-102 821.5,-98 930.5,-98 930.5,-136"/>
<polyline fill="none" stroke="black" points="821.5,-132 825.5,-132 825.5,-128 821.5,-128"/>
<polyline fill="none" stroke="black" points="821.5,-106 825.5,-106 825.5,-102 821.5,-102"/>
<text xml:space="preserve" text-anchor="middle" x="876" y="-118.7" font-family="Helvetica,sans-Serif" font-size="14.00" fill="#111111">TTS Playback</text>
<text xml:space="preserve" text-anchor="middle" x="876" y="-103.7" font-family="Helvetica,sans-Serif" font-size="14.00" fill="#111111">(macOS Voice)</text>
</g>
<!-- Terminal&#45;&gt;Speakers -->
<!-- Ollama -->
<g id="node5" class="node">
<title>Ollama</title>
<path fill="#ffffff" stroke="black" d="M266.03,-206.32C266.03,-206.32 266.03,-214.35 266.03,-214.35 266.03,-218.37 262.12,-223.3 258.22,-224.23 258.22,-224.23 201.78,-237.57 201.78,-237.57 197.87,-238.49 189.95,-239.42 185.93,-239.42 185.93,-239.42 100.07,-239.42 100.07,-239.42 96.05,-239.42 88.13,-238.49 84.22,-237.57 84.22,-237.57 27.78,-224.23 27.78,-224.23 23.88,-223.3 19.97,-218.37 19.97,-214.35 19.97,-214.35 19.97,-206.32 19.97,-206.32 19.97,-202.3 23.88,-197.36 27.78,-196.44 27.78,-196.44 84.22,-183.1 84.22,-183.1 88.13,-182.17 96.05,-181.25 100.07,-181.25 100.07,-181.25 185.93,-181.25 185.93,-181.25 189.95,-181.25 197.87,-182.17 201.78,-183.1 201.78,-183.1 258.22,-196.44 258.22,-196.44 262.12,-197.36 266.03,-202.3 266.03,-206.32"/>
<path fill="none" stroke="black" d="M270.03,-205.26C270.03,-205.26 270.03,-215.4 270.03,-215.4 270.03,-220.48 265.1,-226.71 260.16,-227.88 260.16,-227.88 204.3,-241.08 204.3,-241.08 199.36,-242.25 189.36,-243.42 184.29,-243.42 184.29,-243.42 101.71,-243.42 101.71,-243.42 96.64,-243.42 86.64,-242.25 81.7,-241.08 81.7,-241.08 25.84,-227.88 25.84,-227.88 20.9,-226.71 15.97,-220.48 15.97,-215.4 15.97,-215.4 15.97,-205.26 15.97,-205.26 15.97,-200.19 20.9,-193.96 25.84,-192.79 25.84,-192.79 81.7,-179.58 81.7,-179.58 86.64,-178.42 96.64,-177.25 101.71,-177.25 101.71,-177.25 184.29,-177.25 184.29,-177.25 189.36,-177.25 199.36,-178.42 204.3,-179.58 204.3,-179.58 260.16,-192.79 260.16,-192.79 265.1,-193.96 270.03,-200.19 270.03,-205.26"/>
<text xml:space="preserve" text-anchor="middle" x="143" y="-212.03" font-family="Helvetica,sans-Serif" font-size="14.00" fill="#111111">Ollama API</text>
<text xml:space="preserve" text-anchor="middle" x="143" y="-197.03" font-family="Helvetica,sans-Serif" font-size="14.00" fill="#111111">(gemma3:4b Grammar)</text>
</g>
<!-- Browser -->
<g id="node6" class="node">
<title>Browser</title>
<polygon fill="#ffffff" stroke="black" points="259.12,-136 120.88,-136 120.88,-132 116.88,-132 116.88,-128 120.88,-128 120.88,-106 116.88,-106 116.88,-102 120.88,-102 120.88,-98 259.12,-98 259.12,-136"/>
<polyline fill="none" stroke="black" points="120.88,-132 124.88,-132 124.88,-128 120.88,-128"/>
<polyline fill="none" stroke="black" points="120.88,-106 124.88,-106 124.88,-102 120.88,-102"/>
<text xml:space="preserve" text-anchor="middle" x="190" y="-118.7" font-family="Helvetica,sans-Serif" font-size="14.00" fill="#111111">Web Dashboard</text>
<text xml:space="preserve" text-anchor="middle" x="190" y="-103.7" font-family="Helvetica,sans-Serif" font-size="14.00" fill="#111111">(Progress and Logs)</text>
</g>
<!-- Ollama&#45;&gt;Browser -->
<!-- GUIPicker -->
<g id="node7" class="node">
<title>GUIPicker</title>
<path fill="#ffffff" stroke="black" d="M247.75,-62C247.75,-62 146.25,-62 146.25,-62 140.25,-62 134.25,-56 134.25,-50 134.25,-50 134.25,-36 134.25,-36 134.25,-30 140.25,-24 146.25,-24 146.25,-24 247.75,-24 247.75,-24 253.75,-24 259.75,-30 259.75,-36 259.75,-36 259.75,-50 259.75,-50 259.75,-56 253.75,-62 247.75,-62"/>
<path fill="none" stroke="black" d="M251.75,-66C251.75,-66 142.25,-66 142.25,-66 136.25,-66 130.25,-60 130.25,-54 130.25,-54 130.25,-32 130.25,-32 130.25,-26 136.25,-20 142.25,-20 142.25,-20 251.75,-20 251.75,-20 257.75,-20 263.75,-26 263.75,-32 263.75,-32 263.75,-54 263.75,-54 263.75,-60 257.75,-66 251.75,-66"/>
<text xml:space="preserve" text-anchor="middle" x="197" y="-44.7" font-family="Helvetica,sans-Serif" font-size="14.00" fill="#111111">AppKit GUI Picker</text>
<text xml:space="preserve" text-anchor="middle" x="197" y="-29.7" font-family="Helvetica,sans-Serif" font-size="14.00" fill="#111111">(File Selection)</text>
</g>
<!-- Browser&#45;&gt;GUIPicker -->
<!-- APP -->
<g id="node8" class="node">
<title>APP</title>
<path fill="#ffffcc" stroke="black" stroke-width="2" d="M532.38,-231.71C532.38,-234.33 505.76,-236.46 473,-236.46 440.24,-236.46 413.62,-234.33 413.62,-231.71 413.62,-231.71 413.62,-188.96 413.62,-188.96 413.62,-186.34 440.24,-184.21 473,-184.21 505.76,-184.21 532.38,-186.34 532.38,-188.96 532.38,-188.96 532.38,-231.71 532.38,-231.71"/>
<path fill="none" stroke="black" stroke-width="2" d="M532.38,-231.71C532.38,-229.09 505.76,-226.96 473,-226.96 440.24,-226.96 413.62,-229.09 413.62,-231.71"/>
<text xml:space="preserve" text-anchor="middle" x="473" y="-212.03" font-family="Helvetica,sans-Serif" font-size="14.00" fill="#111111">LanguageTrainer</text>
<text xml:space="preserve" text-anchor="middle" x="473" y="-197.03" font-family="Helvetica,sans-Serif" font-size="14.00" fill="#111111">(Orchestrator)</text>
</g>
<!-- GUIPicker&#45;&gt;APP -->
<g id="edge17" class="edge">
<title>GUIPicker&#45;&gt;APP</title>
<path fill="none" stroke="#888888" stroke-width="1.5" d="M248.61,-66.44C263.79,-73.51 280.28,-81.67 295,-90 342.07,-116.62 393.06,-151.48 428.36,-176.64"/>
<polygon fill="#888888" stroke="#888888" stroke-width="1.5" points="425.87,-179.16 436.03,-182.14 429.94,-173.47 425.87,-179.16"/>
<text xml:space="preserve" text-anchor="middle" x="415.32" y="-113.12" font-family="Helvetica,sans-Serif" font-size="10.00" fill="#999999">RecentFiles Selection</text>
</g>
<!-- APP&#45;&gt;Terminal -->
<g id="edge13" class="edge">
<title>APP&#45;&gt;Terminal</title>
<path fill="none" stroke="#888888" stroke-width="1.5" d="M488.09,-237.15C500.4,-256.06 519.71,-279.91 544,-290.88 627.44,-328.56 662.08,-316.41 750,-290.88 785.92,-280.45 821.41,-256.47 845.7,-237.37"/>
<polygon fill="#888888" stroke="#888888" stroke-width="1.5" points="847.73,-240.23 853.31,-231.23 843.33,-234.79 847.73,-240.23"/>
<text xml:space="preserve" text-anchor="middle" x="664" y="-307.17" font-family="Helvetica,sans-Serif" font-size="10.00" fill="#999999">ANSI Render</text>
</g>
<!-- APP&#45;&gt;Speakers -->
<g id="edge14" class="edge">
<title>APP&#45;&gt;Speakers</title>
<path fill="none" stroke="#888888" stroke-width="1.5" d="M521.86,-184.63C529.14,-181.73 536.66,-179.13 544,-177.25 626.91,-155.97 651.98,-178.59 736,-162.25 762.56,-157.09 791.16,-148.6 815.54,-140.43"/>
<polygon fill="#888888" stroke="#888888" stroke-width="1.5" points="816.67,-143.74 825,-137.2 814.4,-137.12 816.67,-143.74"/>
<text xml:space="preserve" text-anchor="middle" x="821.82" y="-152.75" font-family="Helvetica,sans-Serif" font-size="10.00" fill="#999999">Trigger TTS (Ctrl&#45;T)</text>
</g>
<!-- APP&#45;&gt;Ollama -->
<g id="edge15" class="edge">
<title>APP&#45;&gt;Ollama</title>
<path fill="none" stroke="#2563eb" stroke-width="1.5" d="M412.73,-210.33C376.15,-210.33 327.86,-210.33 282.26,-210.33"/>
<polygon fill="#2563eb" stroke="#2563eb" stroke-width="1.5" points="282.38,-206.83 272.38,-210.33 282.38,-213.83 282.38,-206.83"/>
<text xml:space="preserve" text-anchor="middle" x="341.83" y="-215.08" font-family="Helvetica,sans-Serif" font-size="10.00" fill="#999999">Grammar Check</text>
</g>
<!-- APP&#45;&gt;Browser -->
<g id="edge16" class="edge">
<title>APP&#45;&gt;Browser</title>
<path fill="none" stroke="#ff5722" stroke-width="1.5" d="M412.96,-194.96C379.24,-186.42 336.57,-174.81 299.25,-162.25 280.8,-156.04 260.97,-148.33 243.33,-141.1"/>
<polygon fill="#ff5722" stroke="#ff5722" stroke-width="1.5" points="244.77,-137.9 234.2,-137.3 242.09,-144.37 244.77,-137.9"/>
<text xml:space="preserve" text-anchor="middle" x="323.62" y="-152.75" font-family="Helvetica,sans-Serif" font-size="10.00" fill="#999999">State Push</text>
</g>
<!-- Normalizer -->
<g id="node12" class="node">
<title>Normalizer</title>
<path fill="#ffffff" stroke="black" d="M710.5,-136C710.5,-136 583.5,-136 583.5,-136 577.5,-136 571.5,-130 571.5,-124 571.5,-124 571.5,-110 571.5,-110 571.5,-104 577.5,-98 583.5,-98 583.5,-98 710.5,-98 710.5,-98 716.5,-98 722.5,-104 722.5,-110 722.5,-110 722.5,-124 722.5,-124 722.5,-130 716.5,-136 710.5,-136"/>
<text xml:space="preserve" text-anchor="middle" x="647" y="-118.7" font-family="Helvetica,sans-Serif" font-size="14.00" fill="#111111">Normalization</text>
<text xml:space="preserve" text-anchor="middle" x="647" y="-103.7" font-family="Helvetica,sans-Serif" font-size="14.00" fill="#111111">(EsZett / Contractions)</text>
</g>
<!-- APP&#45;&gt;Normalizer -->
<g id="edge10" class="edge">
<title>APP&#45;&gt;Normalizer</title>
<path fill="none" stroke="#888888" stroke-width="1.5" d="M520.09,-184.62C545.34,-171.36 576.31,-155.1 601.34,-141.97"/>
<polygon fill="#888888" stroke="#888888" stroke-width="1.5" points="602.79,-145.16 610.01,-137.41 599.53,-138.96 602.79,-145.16"/>
</g>
<!-- MMController&#45;&gt;APP -->
<g id="edge9" class="edge">
<title>MMController&#45;&gt;APP</title>
<path fill="none" stroke="#888888" stroke-width="1.5" d="M524.23,-350.31C515.08,-325.48 498.53,-280.6 486.72,-248.56"/>
<polygon fill="#888888" stroke="#888888" stroke-width="1.5" points="490.14,-247.7 483.39,-239.53 483.57,-250.12 490.14,-247.7"/>
<text xml:space="preserve" text-anchor="middle" x="546.96" y="-307.17" font-family="Helvetica,sans-Serif" font-size="10.00" fill="#999999">Finalized Phrase</text>
</g>
<!-- SpeechEngine&#45;&gt;MMController -->
<g id="edge8" class="edge">
<title>SpeechEngine&#45;&gt;MMController</title>
<path fill="none" stroke="#888888" stroke-width="1.5" d="M537.61,-456.65C536.43,-441.37 534.73,-419.17 533.34,-401.16"/>
<polygon fill="#888888" stroke="#888888" stroke-width="1.5" points="536.83,-400.91 532.58,-391.21 529.85,-401.45 536.83,-400.91"/>
<text xml:space="preserve" text-anchor="middle" x="573.22" y="-424.42" font-family="Helvetica,sans-Serif" font-size="10.00" fill="#999999">Sanitized Stream</text>
</g>
<!-- WordAlignment -->
<g id="node11" class="node">
<title>WordAlignment</title>
<path fill="#ffffff" stroke="black" d="M711.62,-62C711.62,-62 582.38,-62 582.38,-62 576.38,-62 570.38,-56 570.38,-50 570.38,-50 570.38,-36 570.38,-36 570.38,-30 576.38,-24 582.38,-24 582.38,-24 711.62,-24 711.62,-24 717.62,-24 723.62,-30 723.62,-36 723.62,-36 723.62,-50 723.62,-50 723.62,-56 717.62,-62 711.62,-62"/>
<text xml:space="preserve" text-anchor="middle" x="647" y="-44.7" font-family="Helvetica,sans-Serif" font-size="14.00" fill="#111111">Levenshtein Alignment</text>
<text xml:space="preserve" text-anchor="middle" x="647" y="-29.7" font-family="Helvetica,sans-Serif" font-size="14.00" fill="#111111">(Fuzzy / Typos)</text>
</g>
<!-- Normalizer&#45;&gt;WordAlignment -->
<g id="edge11" class="edge">
<title>Normalizer&#45;&gt;WordAlignment</title>
<path fill="none" stroke="#888888" stroke-width="1.5" d="M647,-97.83C647,-90.72 647,-82.37 647,-74.4"/>
<polygon fill="#888888" stroke="#888888" stroke-width="1.5" points="650.5,-74.68 647,-64.68 643.5,-74.68 650.5,-74.68"/>
</g>
<!-- LanguageConfig -->
<g id="node13" class="node">
<title>LanguageConfig</title>
<polygon fill="#fff9c4" stroke="black" points="717.75,-229.33 604.25,-229.33 604.25,-191.33 723.75,-191.33 723.75,-223.33 717.75,-229.33"/>
<polyline fill="none" stroke="black" points="717.75,-229.33 717.75,-223.33"/>
<polyline fill="none" stroke="black" points="723.75,-223.33 717.75,-223.33"/>
<text xml:space="preserve" text-anchor="middle" x="664" y="-212.03" font-family="Helvetica,sans-Serif" font-size="14.00" fill="#111111">de.json</text>
<text xml:space="preserve" text-anchor="middle" x="664" y="-197.03" font-family="Helvetica,sans-Serif" font-size="14.00" fill="#111111">(Linguistic Rules)</text>
</g>
<!-- LanguageConfig&#45;&gt;Normalizer -->
<g id="edge12" class="edge">
<title>LanguageConfig&#45;&gt;Normalizer</title>
<path fill="none" stroke="#888888" stroke-width="1.5" d="M660.56,-190.85C658.28,-178.6 655.23,-162.23 652.61,-148.12"/>
<polygon fill="#888888" stroke="#888888" stroke-width="1.5" points="656.12,-147.88 650.85,-138.69 649.24,-149.16 656.12,-147.88"/>
<text xml:space="preserve" text-anchor="middle" x="679.74" y="-152.75" font-family="Helvetica,sans-Serif" font-size="10.00" fill="#999999">Load Rules</text>
</g>
</g>
</svg>
