<?xml version="1.0" encoding="UTF-8" standalone="no"?>
<!DOCTYPE svg PUBLIC "-//W3C//DTD SVG 1.1//EN"
 "http://www.w3.org/Graphics/SVG/1.1/DTD/svg11.dtd">
<!-- Generated by graphviz version 13.0.0 (20250608.1624)
 -->
<!-- Title: G Pages: 1 -->
<svg width="1169pt" height="723pt"
 viewBox="0.00 0.00 1169.00 723.00" xmlns="http://www.w3.org/2000/svg" xmlns:xlink="http://www.w3.org/1999/xlink">
<g id="graph0" class="graph" transform="scale(1 1) rotate(0) translate(4 719.12)">
<title>G</title>
<text xml:space="preserve" text-anchor="start" x="349.42" y="-691.23" font-family="Helvetica,sans-Serif" font-weight="bold" font-size="22.00" fill="#f33333">LangQuiz: Containerized Architecture (2026)</text>
<g id="clust1" class="cluster">
<title>cluster_external</title>
<path fill="#f5f5fa" stroke="#9090c0" d="M28,-17C28,-17 204,-17 204,-17 210,-17 216,-23 216,-29 216,-29 216,-339.75 216,-339.75 216,-345.75 210,-351.75 204,-351.75 204,-351.75 28,-351.75 28,-351.75 22,-351.75 16,-345.75 16,-339.75 16,-339.75 16,-29 16,-29 16,-23 22,-17 28,-17"/>
<text xml:space="preserve" text-anchor="middle" x="116" y="-334.45" font-family="Helvetica,sans-Serif" font-size="14.00" fill="#999999">External Resources</text>
</g>
<g id="clust2" class="cluster">
<title>cluster_headless_core</title>
<path fill="#f8f9fa" stroke="#607d8b" d="M236,-8C236,-8 544,-8 544,-8 550,-8 556,-14 556,-20 556,-20 556,-664.62 556,-664.62 556,-670.62 550,-676.62 544,-676.62 544,-676.62 236,-676.62 236,-676.62 230,-676.62 224,-670.62 224,-664.62 224,-664.62 224,-20 224,-20 224,-14 230,-8 236,-8"/>
<text xml:space="preserve" text-anchor="middle" x="390" y="-659.33" font-family="Helvetica,sans-Serif" font-size="14.00" fill="#999999">Headless Swift Application (Native Host)</text>
</g>
<g id="clust3" class="cluster">
<title>cluster_logic_stack</title>
</g>
<g id="clust4" class="cluster">
<title>cluster_web</title>
<path fill="#e8f5e9" stroke="#388e3c" d="M606,-272.75C606,-272.75 992,-272.75 992,-272.75 998,-272.75 1004,-278.75 1004,-284.75 1004,-284.75 1004,-558.38 1004,-558.38 1004,-564.38 998,-570.38 992,-570.38 992,-570.38 606,-570.38 606,-570.38 600,-570.38 594,-564.38 594,-558.38 594,-558.38 594,-284.75 594,-284.75 594,-278.75 600,-272.75 606,-272.75"/>
<text xml:space="preserve" text-anchor="middle" x="799" y="-553.08" font-family="Helvetica,sans-Serif" font-size="14.00" fill="#999999">Dashboard Backend (Apple Container)</text>
</g>
<g id="clust5" class="cluster">
<title>cluster_ui</title>
<polygon fill="none" stroke="#388e3c" stroke-dasharray="1,5" points="602,-381 602,-458 996,-458 996,-381 602,-381"/>
<text xml:space="preserve" text-anchor="middle" x="799" y="-440.7" font-family="Helvetica,sans-Serif" font-size="14.00" fill="#999999">dashboard.html (UI)</text>
</g>
<!-- OllamaAPI -->
<g id="node1" class="node">
<title>OllamaAPI</title>
<path fill="#ffffff" stroke="black" d="M203.65,-296.26C203.65,-296.26 203.65,-301.24 203.65,-301.24 203.65,-303.72 201.22,-306.72 198.79,-307.23 198.79,-307.23 158.34,-315.73 158.34,-315.73 155.91,-316.24 150.99,-316.75 148.51,-316.75 148.51,-316.75 87.49,-316.75 87.49,-316.75 85.01,-316.75 80.09,-316.24 77.66,-315.73 77.66,-315.73 37.21,-307.23 37.21,-307.23 34.78,-306.72 32.35,-303.72 32.35,-301.24 32.35,-301.24 32.35,-296.26 32.35,-296.26 32.35,-293.78 34.78,-290.78 37.21,-290.27 37.21,-290.27 77.66,-281.77 77.66,-281.77 80.09,-281.26 85.01,-280.75 87.49,-280.75 87.49,-280.75 148.51,-280.75 148.51,-280.75 150.99,-280.75 155.91,-281.26 158.34,-281.77 158.34,-281.77 198.79,-290.27 198.79,-290.27 201.22,-290.78 203.65,-293.78 203.65,-296.26"/>
<path fill="none" stroke="black" d="M207.65,-295.18C207.65,-295.18 207.65,-302.32 207.65,-302.32 207.65,-305.89 204.16,-310.19 200.67,-310.92 200.67,-310.92 160.88,-319.28 160.88,-319.28 157.38,-320.02 150.33,-320.75 146.76,-320.75 146.76,-320.75 89.24,-320.75 89.24,-320.75 85.67,-320.75 78.62,-320.02 75.12,-319.28 75.12,-319.28 35.33,-310.92 35.33,-310.92 31.84,-310.19 28.35,-305.89 28.35,-302.32 28.35,-302.32 28.35,-295.18 28.35,-295.18 28.35,-291.61 31.84,-287.31 35.33,-286.58 35.33,-286.58 75.12,-278.22 75.12,-278.22 78.62,-277.48 85.67,-276.75 89.24,-276.75 89.24,-276.75 146.76,-276.75 146.76,-276.75 150.33,-276.75 157.38,-277.48 160.88,-278.22 160.88,-278.22 200.67,-286.58 200.67,-286.58 204.16,-287.31 207.65,-291.61 207.65,-295.18"/>
<text xml:space="preserve" text-anchor="middle" x="118" y="-292.95" font-family="Helvetica,sans-Serif" font-size="14.00" fill="#111111">Ollama Local API</text>
</g>
<!-- Mic -->
<g id="node2" class="node">
<title>Mic</title>
<path fill="#ffffff" stroke="black" d="M62.51,-204.77C62.51,-204.77 119.39,-194.67 119.39,-194.67 122.7,-194.09 129.3,-194.09 132.61,-194.67 132.61,-194.67 189.49,-204.77 189.49,-204.77 192.79,-205.35 196.08,-209.29 196.07,-212.65 196.07,-212.65 196.05,-219.35 196.05,-219.35 196.04,-222.71 192.67,-226.06 189.32,-226.06 189.32,-226.06 62.68,-226.06 62.68,-226.06 59.33,-226.06 55.96,-222.71 55.95,-219.35 55.95,-219.35 55.93,-212.65 55.93,-212.65 55.92,-209.29 59.21,-205.35 62.51,-204.77"/>
<text xml:space="preserve" text-anchor="middle" x="126" y="-205.7" font-family="Helvetica,sans-Serif" font-size="14.00" fill="#111111">Microphone</text>
</g>
<!-- OllamaAPI&#45;&gt;Mic -->
<!-- RemoteControl -->
<g id="node5" class="node">
<title>RemoteControl</title>
<path fill="#bbdefb" stroke="black" stroke-width="2" d="M535.75,-645.62C535.75,-645.62 398.25,-645.62 398.25,-645.62 392.25,-645.62 386.25,-639.62 386.25,-633.62 386.25,-633.62 386.25,-619.62 386.25,-619.62 386.25,-613.62 392.25,-607.62 398.25,-607.62 398.25,-607.62 535.75,-607.62 535.75,-607.62 541.75,-607.62 547.75,-613.62 547.75,-619.62 547.75,-619.62 547.75,-633.62 547.75,-633.62 547.75,-639.62 541.75,-645.62 535.75,-645.62"/>
<text xml:space="preserve" text-anchor="middle" x="467" y="-628.33" font-family="Helvetica,sans-Serif" font-size="14.00" fill="#111111">RemoteControlManager</text>
<text xml:space="preserve" text-anchor="middle" x="467" y="-613.33" font-family="Helvetica,sans-Serif" font-size="14.00" fill="#111111">(Port 7070)</text>
</g>
<!-- OllamaAPI&#45;&gt;RemoteControl -->
<!-- Speakers -->
<g id="node3" class="node">
<title>Speakers</title>
<path fill="#ffffff" stroke="black" d="M178.08,-123.95C178.08,-123.95 132.56,-133.61 132.56,-133.61 129.28,-134.3 122.72,-134.3 119.44,-133.61 119.44,-133.61 73.92,-123.95 73.92,-123.95 70.63,-123.26 67.36,-119.21 67.37,-115.85 67.37,-115.85 67.39,-109.15 67.39,-109.15 67.4,-105.79 70.76,-102.44 74.12,-102.44 74.12,-102.44 177.88,-102.44 177.88,-102.44 181.24,-102.44 184.6,-105.79 184.61,-109.15 184.61,-109.15 184.63,-115.85 184.63,-115.85 184.64,-119.21 181.37,-123.26 178.08,-123.95"/>
<text xml:space="preserve" text-anchor="middle" x="126" y="-111.2" font-family="Helvetica,sans-Serif" font-size="14.00" fill="#111111">Speakers</text>
</g>
<!-- Mic&#45;&gt;Speakers -->
<!-- TTY -->
<g id="node4" class="node">
<title>TTY</title>
<path fill="#ffffff" stroke="black" d="M196.44,-61C196.44,-61 73.39,-61 73.39,-61 67.39,-61 57.05,-56.86 52.7,-52.73 52.7,-52.73 32.26,-33.27 32.26,-33.27 27.91,-29.14 29.56,-25 35.56,-25 35.56,-25 158.61,-25 158.61,-25 164.61,-25 174.95,-29.14 179.3,-33.27 179.3,-33.27 199.74,-52.73 199.74,-52.73 204.09,-56.86 202.44,-61 196.44,-61"/>
<text xml:space="preserve" text-anchor="middle" x="116" y="-37.2" font-family="Helvetica,sans-Serif" font-size="14.00" fill="#111111">TTY Terminal</text>
</g>
<!-- Speakers&#45;&gt;TTY -->
<!-- APP -->
<g id="node6" class="node">
<title>APP</title>
<path fill="#ffffcc" stroke="black" d="M473.38,-542.75C473.38,-545.37 446.76,-547.5 414,-547.5 381.24,-547.5 354.62,-545.37 354.62,-542.75 354.62,-542.75 354.62,-500 354.62,-500 354.62,-497.38 381.24,-495.25 414,-495.25 446.76,-495.25 473.38,-497.38 473.38,-500 473.38,-500 473.38,-542.75 473.38,-542.75"/>
<path fill="none" stroke="black" d="M473.38,-542.75C473.38,-540.13 446.76,-538 414,-538 381.24,-538 354.62,-540.13 354.62,-542.75"/>
<text xml:space="preserve" text-anchor="middle" x="414" y="-523.08" font-family="Helvetica,sans-Serif" font-size="14.00" fill="#111111">LanguageTrainer</text>
<text xml:space="preserve" text-anchor="middle" x="414" y="-508.07" font-family="Helvetica,sans-Serif" font-size="14.00" fill="#111111">(Orchestrator)</text>
</g>
<!-- RemoteControl&#45;&gt;APP -->
<!-- TTS -->
<g id="node9" class="node">
<title>TTS</title>
<path fill="#ffffff" stroke="black" d="M387.75,-229.5C387.75,-229.5 316.25,-229.5 316.25,-229.5 310.25,-229.5 304.25,-223.5 304.25,-217.5 304.25,-217.5 304.25,-205.5 304.25,-205.5 304.25,-199.5 310.25,-193.5 316.25,-193.5 316.25,-193.5 387.75,-193.5 387.75,-193.5 393.75,-193.5 399.75,-199.5 399.75,-205.5 399.75,-205.5 399.75,-217.5 399.75,-217.5 399.75,-223.5 393.75,-229.5 387.75,-229.5"/>
<text xml:space="preserve" text-anchor="middle" x="352" y="-205.7" font-family="Helvetica,sans-Serif" font-size="14.00" fill="#111111">TTSManager</text>
</g>
<!-- RemoteControl&#45;&gt;TTS -->
<g id="edge14" class="edge">
<title>RemoteControl&#45;&gt;TTS</title>
<path fill="none" stroke="#ff9800" stroke-width="1.5" d="M477.02,-595.46C501.3,-519.87 558.69,-324.68 522,-272.75 518.57,-267.89 459.3,-247.57 411.7,-231.86"/>
<polygon fill="#ff9800" stroke="#ff9800" stroke-width="1.5" points="473.75,-594.18 473.99,-604.77 480.41,-596.34 473.75,-594.18"/>
<polygon fill="#ff9800" stroke="#ff9800" stroke-width="1.5" points="412.95,-228.58 402.36,-228.78 410.77,-235.23 412.95,-228.58"/>
<text xml:space="preserve" text-anchor="middle" x="557.71" y="-404.12" font-family="Helvetica,sans-Serif" font-size="10.00" fill="#999999">Audio Status</text>
</g>
<!-- FastAPI -->
<g id="node12" class="node">
<title>FastAPI</title>
<polygon fill="#e0e0e0" stroke="black" points="986.75,-316.75 883.25,-316.75 879.25,-312.75 879.25,-280.75 982.75,-280.75 986.75,-284.75 986.75,-316.75"/>
<polyline fill="none" stroke="black" points="982.75,-312.75 879.25,-312.75"/>
<polyline fill="none" stroke="black" points="982.75,-312.75 982.75,-280.75"/>
<polyline fill="none" stroke="black" points="982.75,-312.75 986.75,-316.75"/>
<text xml:space="preserve" text-anchor="middle" x="933" y="-292.95" font-family="Helvetica,sans-Serif" font-size="14.00" fill="#111111">FastAPI Server</text>
</g>
<!-- RemoteControl&#45;&gt;FastAPI -->
<!-- STT_Proxy -->
<g id="node16" class="node">
<title>STT_Proxy</title>
<path fill="#e1f5fe" stroke="black" d="M734,-539.38C734,-539.38 616,-539.38 616,-539.38 610,-539.38 604,-533.38 604,-527.38 604,-527.38 604,-515.38 604,-515.38 604,-509.38 610,-503.38 616,-503.38 616,-503.38 734,-503.38 734,-503.38 740,-503.38 746,-509.38 746,-515.38 746,-515.38 746,-527.38 746,-527.38 746,-533.38 740,-539.38 734,-539.38"/>
<text xml:space="preserve" text-anchor="middle" x="675" y="-515.58" font-family="Helvetica,sans-Serif" font-size="14.00" fill="#111111">Async STT Streamer</text>
</g>
<!-- RemoteControl&#45;&gt;STT_Proxy -->
<g id="edge16" class="edge">
<title>RemoteControl&#45;&gt;STT_Proxy</title>
<path fill="none" stroke="#03a9f4" stroke-width="2" d="M548.13,-606.71C562.46,-602.03 576.95,-596.37 590,-589.62 610.98,-578.78 631.82,-562.41 647.61,-548.53"/>
<polygon fill="#03a9f4" stroke="#03a9f4" stroke-width="2" points="649.89,-551.19 654.97,-541.88 645.2,-545.99 649.89,-551.19"/>
<text xml:space="preserve" text-anchor="middle" x="638.95" y="-580.12" font-family="Helvetica,sans-Serif" font-size="10.00" fill="#999999">Async Stream</text>
</g>
<!-- MMController -->
<g id="node7" class="node">
<title>MMController</title>
<path fill="#ffdaff" stroke="black" d="M403.75,-426C403.75,-426 284.25,-426 284.25,-426 278.25,-426 272.25,-420 272.25,-414 272.25,-414 272.25,-402 272.25,-402 272.25,-396 278.25,-390 284.25,-390 284.25,-390 403.75,-390 403.75,-390 409.75,-390 415.75,-396 415.75,-402 415.75,-402 415.75,-414 415.75,-414 415.75,-420 409.75,-426 403.75,-426"/>
<text xml:space="preserve" text-anchor="middle" x="344" y="-402.2" font-family="Helvetica,sans-Serif" font-size="14.00" fill="#111111">MMController.shared</text>
</g>
<!-- APP&#45;&gt;MMController -->
<!-- APP&#45;&gt;TTS -->
<g id="edge20" class="edge">
<title>APP&#45;&gt;TTS</title>
<path fill="none" stroke="#ff9800" stroke-width="1.5" d="M425.2,-494.79C436.52,-464.6 449.18,-414.29 425,-381 416.55,-369.37 402.89,-382.49 394.25,-371 387.69,-362.27 394.27,-283.17 391,-272.75 387.36,-261.14 380.82,-249.62 374.12,-239.81"/>
<polygon fill="#ff9800" stroke="#ff9800" stroke-width="1.5" points="376.97,-237.77 368.26,-231.75 371.31,-241.89 376.97,-237.77"/>
<text xml:space="preserve" text-anchor="middle" x="426.12" y="-361.5" font-family="Helvetica,sans-Serif" font-size="10.00" fill="#999999">Auto Playback</text>
</g>
<!-- Validation -->
<g id="node10" class="node">
<title>Validation</title>
<path fill="#ffffff" stroke="black" d="M475,-135C475,-135 363,-135 363,-135 357,-135 351,-129 351,-123 351,-123 351,-111 351,-111 351,-105 357,-99 363,-99 363,-99 475,-99 475,-99 481,-99 487,-105 487,-111 487,-111 487,-123 487,-123 487,-129 481,-135 475,-135"/>
<text xml:space="preserve" text-anchor="middle" x="419" y="-111.2" font-family="Helvetica,sans-Serif" font-size="14.00" fill="#111111">TranslationValidator</text>
</g>
<!-- APP&#45;&gt;Validation -->
<g id="edge18" class="edge">
<title>APP&#45;&gt;Validation</title>
<path fill="none" stroke="#4caf50" stroke-width="1.5" d="M429.87,-495.02C432.93,-489.33 435.84,-483.21 438,-477.25 454.34,-432.06 453.54,-418.84 458,-371 464.01,-306.6 433.67,-293.45 424,-229.5 419.83,-201.95 418.77,-170.18 418.64,-147.61"/>
<polygon fill="#4caf50" stroke="#4caf50" stroke-width="1.5" points="422.14,-147.77 418.65,-137.76 415.14,-147.76 422.14,-147.77"/>
<text xml:space="preserve" text-anchor="middle" x="493.61" y="-294.88" font-family="Helvetica,sans-Serif" font-size="10.00" fill="#999999">Validate Answer</text>
</g>
<!-- DashboardClient -->
<g id="node11" class="node">
<title>DashboardClient</title>
<path fill="#ffffff" stroke="black" d="M477.25,-62C477.25,-62 360.75,-62 360.75,-62 354.75,-62 348.75,-56 348.75,-50 348.75,-50 348.75,-36 348.75,-36 348.75,-30 354.75,-24 360.75,-24 360.75,-24 477.25,-24 477.25,-24 483.25,-24 489.25,-30 489.25,-36 489.25,-36 489.25,-50 489.25,-50 489.25,-56 483.25,-62 477.25,-62"/>
<text xml:space="preserve" text-anchor="middle" x="419" y="-44.7" font-family="Helvetica,sans-Serif" font-size="14.00" fill="#111111">DashboardController</text>
<text xml:space="preserve" text-anchor="middle" x="419" y="-29.7" font-family="Helvetica,sans-Serif" font-size="14.00" fill="#111111">(Swift Client)</text>
</g>
<!-- APP&#45;&gt;DashboardClient -->
<g id="edge21" class="edge">
<title>APP&#45;&gt;DashboardClient</title>
<path fill="none" stroke="#888888" stroke-width="1.5" d="M376.37,-495.34C358.73,-484.71 337,-473.15 316,-466 293.45,-458.32 280.15,-474.54 263,-458 203.39,-400.51 221.79,-352.8 243,-272.75 265.76,-186.84 282.45,-164.98 342,-99 352.06,-87.85 364.75,-77.65 376.92,-69.15"/>
<polygon fill="#888888" stroke="#888888" stroke-width="1.5" points="378.7,-72.16 385.05,-63.68 374.8,-66.35 378.7,-72.16"/>
<text xml:space="preserve" text-anchor="middle" x="289.76" y="-249.25" font-family="Helvetica,sans-Serif" font-size="10.00" fill="#999999">Log Event (Ctrl&#45;G)</text>
</g>
<!-- MMController&#45;&gt;TTY -->
<g id="edge25" class="edge">
<title>MMController&#45;&gt;TTY</title>
<path fill="none" stroke="#e91e63" stroke-width="1.5" d="M272,-403.08C188.21,-397.11 56.49,-382.97 19,-351.75 0.09,-336 0,-324.36 0,-299.75 0,-299.75 0,-299.75 0,-116 0,-89.9 21.47,-72.93 45.93,-62.06"/>
<polygon fill="#e91e63" stroke="#e91e63" stroke-width="1.5" points="47.24,-65.31 55.21,-58.34 44.63,-58.82 47.24,-65.31"/>
<text xml:space="preserve" text-anchor="middle" x="16.12" y="-207.62" font-family="Helvetica,sans-Serif" font-size="10.00" fill="#999999">TTY UI</text>
</g>
<!-- STT -->
<g id="node8" class="node">
<title>STT</title>
<path fill="#ffffff" stroke="black" d="M370,-316.75C370,-316.75 264,-316.75 264,-316.75 258,-316.75 252,-310.75 252,-304.75 252,-304.75 252,-292.75 252,-292.75 252,-286.75 258,-280.75 264,-280.75 264,-280.75 370,-280.75 370,-280.75 376,-280.75 382,-286.75 382,-292.75 382,-292.75 382,-304.75 382,-304.75 382,-310.75 376,-316.75 370,-316.75"/>
<text xml:space="preserve" text-anchor="middle" x="317" y="-292.95" font-family="Helvetica,sans-Serif" font-size="14.00" fill="#111111">SpeechRecognizer</text>
</g>
<!-- MMController&#45;&gt;STT -->
<!-- MMController&#45;&gt;STT -->
<g id="edge24" class="edge">
<title>MMController&#45;&gt;STT</title>
<path fill="none" stroke="#888888" stroke-width="1.5" d="M342.75,-377.89C339.78,-362.49 335.03,-343.66 330.25,-328.34"/>
<polygon fill="#888888" stroke="#888888" stroke-width="1.5" points="339.26,-378.26 344.4,-387.53 346.16,-377.08 339.26,-378.26"/>
<polygon fill="#888888" stroke="#888888" stroke-width="1.5" points="333.64,-327.47 327.16,-319.09 327.01,-329.69 333.64,-327.47"/>
</g>
<!-- STT&#45;&gt;Mic -->
<g id="edge22" class="edge">
<title>STT&#45;&gt;Mic</title>
<path fill="none" stroke="#888888" stroke-width="1.5" stroke-dasharray="5,2" d="M251.6,-282.59C230.85,-276.55 208.18,-268.65 188.5,-258.75 175.3,-252.11 161.95,-242.69 151.01,-234.08"/>
<polygon fill="#888888" stroke="#888888" stroke-width="1.5" points="153.43,-231.54 143.46,-227.94 149.01,-236.97 153.43,-231.54"/>
<text xml:space="preserve" text-anchor="middle" x="204.25" y="-249.25" font-family="Helvetica,sans-Serif" font-size="10.00" fill="#999999">Record</text>
</g>
<!-- STT&#45;&gt;RemoteControl -->
<g id="edge15" class="edge">
<title>STT&#45;&gt;RemoteControl</title>
<path fill="none" stroke="#888888" stroke-width="1.5" d="M300.93,-317.19C287.85,-332.65 270.39,-356.52 263,-381 253.11,-413.76 252.3,-425.49 263,-458 282.42,-516.98 297.78,-531.26 346,-570.38 361.74,-583.14 380.92,-593.65 399.32,-601.95"/>
<polygon fill="#888888" stroke="#888888" stroke-width="1.5" points="397.68,-605.05 408.25,-605.8 400.45,-598.63 397.68,-605.05"/>
<text xml:space="preserve" text-anchor="middle" x="301.87" y="-467.75" font-family="Helvetica,sans-Serif" font-size="10.00" fill="#999999">Partial Results</text>
</g>
<!-- STT&#45;&gt;TTS -->
<!-- TTS&#45;&gt;Speakers -->
<g id="edge23" class="edge">
<title>TTS&#45;&gt;Speakers</title>
<path fill="none" stroke="#888888" stroke-width="1.5" stroke-dasharray="5,2" d="M309.49,-193.1C268.06,-176.14 205.58,-150.57 165.29,-134.08"/>
<polygon fill="#888888" stroke="#888888" stroke-width="1.5" points="166.73,-130.89 156.15,-130.34 164.08,-137.37 166.73,-130.89"/>
<text xml:space="preserve" text-anchor="middle" x="296.26" y="-160.38" font-family="Helvetica,sans-Serif" font-size="10.00" fill="#999999">Native Output</text>
</g>
<!-- TTS&#45;&gt;Validation -->
<!-- Validation&#45;&gt;OllamaAPI -->
<g id="edge19" class="edge">
<title>Validation&#45;&gt;OllamaAPI</title>
<path fill="none" stroke="#4caf50" stroke-width="1.5" d="M423.45,-135.46C428.56,-160.06 433.39,-204.69 409,-229.5 382.68,-256.28 277.4,-238.31 241,-247.5 240.07,-247.73 207.21,-261.16 175.69,-274.08"/>
<polygon fill="#4caf50" stroke="#4caf50" stroke-width="1.5" points="174.68,-270.71 166.75,-277.74 177.33,-277.19 174.68,-270.71"/>
<text xml:space="preserve" text-anchor="middle" x="452.38" y="-207.62" font-family="Helvetica,sans-Serif" font-size="10.00" fill="#999999">Strict Match</text>
</g>
<!-- Validation&#45;&gt;DashboardClient -->
<!-- DashboardClient&#45;&gt;FastAPI -->
<g id="edge11" class="edge">
<title>DashboardClient&#45;&gt;FastAPI</title>
<path fill="none" stroke="#e91e63" stroke-width="1.5" d="M456.3,-62.41C548.38,-107.87 786.3,-225.33 886.95,-275.01"/>
<polygon fill="#e91e63" stroke="#e91e63" stroke-width="1.5" points="885.12,-278.02 895.63,-279.3 888.22,-271.74 885.12,-278.02"/>
<text xml:space="preserve" text-anchor="middle" x="732.56" y="-166" font-family="Helvetica,sans-Serif" font-size="10.00" fill="#999999">POST /explain_request</text>
<text xml:space="preserve" text-anchor="middle" x="732.56" y="-154.75" font-family="Helvetica,sans-Serif" font-size="10.00" fill="#999999">(Training Events)</text>
</g>
<!-- FastAPI&#45;&gt;RemoteControl -->
<g id="edge13" class="edge">
<title>FastAPI&#45;&gt;RemoteControl</title>
<path fill="none" stroke="#ff9800" stroke-width="1.5" d="M980.81,-317.21C999.64,-326.72 1019.3,-340.55 1030,-359.75 1079.73,-448.99 1099.9,-515.11 1030,-589.62 998.66,-623.03 712.52,-626.84 560.68,-626.47"/>
<polygon fill="#ff9800" stroke="#ff9800" stroke-width="1.5" points="560.93,-622.97 550.92,-626.44 560.91,-629.97 560.93,-622.97"/>
<text xml:space="preserve" text-anchor="middle" x="1117.71" y="-467.75" font-family="Helvetica,sans-Serif" font-size="10.00" fill="#999999">REST: /play, /pause</text>
</g>
<!-- STT_UI -->
<g id="node13" class="node">
<title>STT_UI</title>
<polygon fill="#ffffff" stroke="black" points="714.25,-426 609.75,-426 609.75,-422 605.75,-422 605.75,-418 609.75,-418 609.75,-398 605.75,-398 605.75,-394 609.75,-394 609.75,-390 714.25,-390 714.25,-426"/>
<polyline fill="none" stroke="black" points="609.75,-422 613.75,-422 613.75,-418 609.75,-418"/>
<polyline fill="none" stroke="black" points="609.75,-398 613.75,-398 613.75,-394 609.75,-394"/>
<text xml:space="preserve" text-anchor="middle" x="662" y="-402.2" font-family="Helvetica,sans-Serif" font-size="14.00" fill="#111111">Live STT Feed</text>
</g>
<!-- TTS_UI -->
<g id="node14" class="node">
<title>TTS_UI</title>
<polygon fill="#ffffff" stroke="black" points="859.5,-426 732.5,-426 732.5,-422 728.5,-422 728.5,-418 732.5,-418 732.5,-398 728.5,-398 728.5,-394 732.5,-394 732.5,-390 859.5,-390 859.5,-426"/>
<polyline fill="none" stroke="black" points="732.5,-422 736.5,-422 736.5,-418 732.5,-418"/>
<polyline fill="none" stroke="black" points="732.5,-398 736.5,-398 736.5,-394 732.5,-394"/>
<text xml:space="preserve" text-anchor="middle" x="796" y="-402.2" font-family="Helvetica,sans-Serif" font-size="14.00" fill="#111111">TTS Control Panel</text>
</g>
<!-- TTS_UI&#45;&gt;FastAPI -->
<g id="edge12" class="edge">
<title>TTS_UI&#45;&gt;FastAPI</title>
<path fill="none" stroke="#888888" stroke-width="1.5" d="M818.32,-389.53C840.81,-371.92 875.73,-344.58 901.13,-324.7"/>
<polygon fill="#888888" stroke="#888888" stroke-width="1.5" points="903.19,-327.53 908.91,-318.61 898.87,-322.02 903.19,-327.53"/>
<text xml:space="preserve" text-anchor="middle" x="888.92" y="-361.5" font-family="Helvetica,sans-Serif" font-size="10.00" fill="#999999">Proxy Request</text>
</g>
<!-- History_UI -->
<g id="node15" class="node">
<title>History_UI</title>
<polygon fill="#ffffff" stroke="black" points="988.25,-427 877.75,-427 877.75,-423 873.75,-423 873.75,-419 877.75,-419 877.75,-397 873.75,-397 873.75,-393 877.75,-393 877.75,-389 988.25,-389 988.25,-427"/>
<polyline fill="none" stroke="black" points="877.75,-423 881.75,-423 881.75,-419 877.75,-419"/>
<polyline fill="none" stroke="black" points="877.75,-397 881.75,-397 881.75,-393 877.75,-393"/>
<text xml:space="preserve" text-anchor="middle" x="933" y="-409.7" font-family="Helvetica,sans-Serif" font-size="14.00" fill="#111111">Training History</text>
<text xml:space="preserve" text-anchor="middle" x="933" y="-394.7" font-family="Helvetica,sans-Serif" font-size="14.00" fill="#111111">(Ctrl&#45;G Cards)</text>
</g>
<!-- History_UI&#45;&gt;FastAPI -->
<!-- STT_Proxy&#45;&gt;STT_UI -->
<g id="edge17" class="edge">
<title>STT_Proxy&#45;&gt;STT_UI</title>
<path fill="none" stroke="#03a9f4" stroke-width="2" d="M672.97,-502.97C670.97,-485.89 667.89,-459.49 665.5,-439.02"/>
<polygon fill="#03a9f4" stroke="#03a9f4" stroke-width="2" points="669,-438.81 664.37,-429.29 662.05,-439.63 669,-438.81"/>
<text xml:space="preserve" text-anchor="middle" x="695.91" y="-467.75" font-family="Helvetica,sans-Serif" font-size="10.00" fill="#999999">Live Update</text>
</g>
<!-- LLM_Task -->
<g id="node17" class="node">
<title>LLM_Task</title>
<path fill="#ffffff" stroke="black" d="M909.88,-539.38C909.88,-539.38 842.12,-539.38 842.12,-539.38 836.12,-539.38 830.12,-533.38 830.12,-527.38 830.12,-527.38 830.12,-515.38 830.12,-515.38 830.12,-509.38 836.12,-503.38 842.12,-503.38 842.12,-503.38 909.88,-503.38 909.88,-503.38 915.88,-503.38 921.88,-509.38 921.88,-515.38 921.88,-515.38 921.88,-527.38 921.88,-527.38 921.88,-533.38 915.88,-539.38 909.88,-539.38"/>
<text xml:space="preserve" text-anchor="middle" x="876" y="-515.58" font-family="Helvetica,sans-Serif" font-size="14.00" fill="#111111">Ollama Task</text>
</g>
</g>
</svg>
