<?xml version="1.0" encoding="UTF-8" standalone="no"?>
<!DOCTYPE svg PUBLIC "-//W3C//DTD SVG 1.1//EN"
 "http://www.w3.org/Graphics/SVG/1.1/DTD/svg11.dtd">
<!-- Generated by graphviz version 13.0.0 (20250608.1624)
 -->
<!-- Title: G Pages: 1 -->
<svg width="973pt" height="704pt"
 viewBox="0.00 0.00 973.00 704.00" xmlns="http://www.w3.org/2000/svg" xmlns:xlink="http://www.w3.org/1999/xlink">
<g id="graph0" class="graph" transform="scale(1 1) rotate(0) translate(4 700)">
<title>G</title>
<text xml:space="preserve" text-anchor="start" x="225.25" y="-672.1" font-family="Helvetica,sans-Serif" font-weight="bold" font-size="22.00" fill="#f33333">LangQuiz: Remote&#45;Controlled Architecture (2026)</text>
<g id="clust1" class="cluster">
<title>cluster_web</title>
<path fill="#fff3e0" stroke="#ff5722" d="M742,-161.5C742,-161.5 945,-161.5 945,-161.5 951,-161.5 957,-167.5 957,-173.5 957,-173.5 957,-496 957,-496 957,-502 951,-508 945,-508 945,-508 742,-508 742,-508 736,-508 730,-502 730,-496 730,-496 730,-173.5 730,-173.5 730,-167.5 736,-161.5 742,-161.5"/>
<text xml:space="preserve" text-anchor="middle" x="843.5" y="-490.7" font-family="Helvetica,sans-Serif" font-size="14.00" fill="#999999">Web Dashboard (Python / FastAPI)</text>
</g>
<g id="clust2" class="cluster">
<title>cluster_headless_core</title>
<path fill="#f8f9fa" stroke="#607d8b" d="M20,-160.5C20,-160.5 568,-160.5 568,-160.5 574,-160.5 580,-166.5 580,-172.5 580,-172.5 580,-645.5 580,-645.5 580,-651.5 574,-657.5 568,-657.5 568,-657.5 20,-657.5 20,-657.5 14,-657.5 8,-651.5 8,-645.5 8,-645.5 8,-172.5 8,-172.5 8,-166.5 14,-160.5 20,-160.5"/>
<text xml:space="preserve" text-anchor="middle" x="294" y="-640.2" font-family="Helvetica,sans-Serif" font-size="14.00" fill="#999999">Headless Swift Application</text>
</g>
<g id="clust3" class="cluster">
<title>cluster_external</title>
<path fill="#f5f5fa" stroke="#9090c0" d="M435,-8C435,-8 756,-8 756,-8 762,-8 768,-14 768,-20 768,-20 768,-79 768,-79 768,-85 762,-91 756,-91 756,-91 435,-91 435,-91 429,-91 423,-85 423,-79 423,-79 423,-20 423,-20 423,-14 429,-8 435,-8"/>
<text xml:space="preserve" text-anchor="middle" x="595.5" y="-73.7" font-family="Helvetica,sans-Serif" font-size="14.00" fill="#999999">Hardware and AI Services</text>
</g>
<!-- DashboardUI -->
<g id="node1" class="node">
<title>DashboardUI</title>
<polygon fill="#ffffff" stroke="black" points="949.12,-477 786.88,-477 786.88,-473 782.88,-473 782.88,-469 786.88,-469 786.88,-447 782.88,-447 782.88,-443 786.88,-443 786.88,-439 949.12,-439 949.12,-477"/>
<polyline fill="none" stroke="black" points="786.88,-473 790.88,-473 790.88,-469 786.88,-469"/>
<polyline fill="none" stroke="black" points="786.88,-447 790.88,-447 790.88,-443 786.88,-443"/>
<text xml:space="preserve" text-anchor="middle" x="868" y="-459.7" font-family="Helvetica,sans-Serif" font-size="14.00" fill="#111111">dashboard.html</text>
<text xml:space="preserve" text-anchor="middle" x="868" y="-444.7" font-family="Helvetica,sans-Serif" font-size="14.00" fill="#111111">(Marked.js GFM Tables)</text>
</g>
<!-- FastAPI -->
<g id="node2" class="node">
<title>FastAPI</title>
<polygon fill="#e0e0e0" stroke="black" points="883.5,-341.75 742.5,-341.75 738.5,-337.75 738.5,-303.75 879.5,-303.75 883.5,-307.75 883.5,-341.75"/>
<polyline fill="none" stroke="black" points="879.5,-337.75 738.5,-337.75"/>
<polyline fill="none" stroke="black" points="879.5,-337.75 879.5,-303.75"/>
<polyline fill="none" stroke="black" points="879.5,-337.75 883.5,-341.75"/>
<text xml:space="preserve" text-anchor="middle" x="811" y="-324.45" font-family="Helvetica,sans-Serif" font-size="14.00" fill="#111111">FastAPI Server</text>
<text xml:space="preserve" text-anchor="middle" x="811" y="-309.45" font-family="Helvetica,sans-Serif" font-size="14.00" fill="#111111">(OpenAPI / Swagger)</text>
</g>
<!-- DashboardUI&#45;&gt;FastAPI -->
<g id="edge1" class="edge">
<title>DashboardUI&#45;&gt;FastAPI</title>
<path fill="none" stroke="#888888" stroke-width="1.5" d="M860.19,-438.75C850.78,-416.75 834.83,-379.47 823.65,-353.33"/>
<polygon fill="#888888" stroke="#888888" stroke-width="1.5" points="826.94,-352.11 819.79,-344.29 820.5,-354.86 826.94,-352.11"/>
<text xml:space="preserve" text-anchor="middle" x="868.58" y="-386.5" font-family="Helvetica,sans-Serif" font-size="10.00" fill="#999999">AJAX / SSE</text>
</g>
<!-- LLM_Task -->
<g id="node3" class="node">
<title>LLM_Task</title>
<path fill="#ffffff" stroke="black" d="M850,-205.5C850,-205.5 750,-205.5 750,-205.5 744,-205.5 738,-199.5 738,-193.5 738,-193.5 738,-181.5 738,-181.5 738,-175.5 744,-169.5 750,-169.5 750,-169.5 850,-169.5 850,-169.5 856,-169.5 862,-175.5 862,-181.5 862,-181.5 862,-193.5 862,-193.5 862,-199.5 856,-205.5 850,-205.5"/>
<text xml:space="preserve" text-anchor="middle" x="800" y="-181.7" font-family="Helvetica,sans-Serif" font-size="14.00" fill="#111111">Ollama Chat Task</text>
</g>
<!-- FastAPI&#45;&gt;LLM_Task -->
<g id="edge2" class="edge">
<title>FastAPI&#45;&gt;LLM_Task</title>
<path fill="none" stroke="#888888" stroke-width="1.5" d="M809.49,-303.5C807.67,-281.43 804.58,-243.99 802.42,-217.84"/>
<polygon fill="#888888" stroke="#888888" stroke-width="1.5" points="805.92,-217.63 801.61,-207.95 798.94,-218.2 805.92,-217.63"/>
<text xml:space="preserve" text-anchor="middle" x="843.7" y="-251.25" font-family="Helvetica,sans-Serif" font-size="10.00" fill="#999999">Background Task</text>
</g>
<!-- RemoteControl -->
<g id="node5" class="node">
<title>RemoteControl</title>
<path fill="#bbdefb" stroke="black" stroke-width="2" d="M541.75,-619.38C541.75,-619.38 404.25,-619.38 404.25,-619.38 398.25,-619.38 392.25,-613.38 392.25,-607.38 392.25,-607.38 392.25,-593.38 392.25,-593.38 392.25,-587.38 398.25,-581.38 404.25,-581.38 404.25,-581.38 541.75,-581.38 541.75,-581.38 547.75,-581.38 553.75,-587.38 553.75,-593.38 553.75,-593.38 553.75,-607.38 553.75,-607.38 553.75,-613.38 547.75,-619.38 541.75,-619.38"/>
<text xml:space="preserve" text-anchor="middle" x="473" y="-602.08" font-family="Helvetica,sans-Serif" font-size="14.00" fill="#111111">RemoteControlManager</text>
<text xml:space="preserve" text-anchor="middle" x="473" y="-587.08" font-family="Helvetica,sans-Serif" font-size="14.00" fill="#111111">(HTTP Port 7070 / SSE)</text>
</g>
<!-- FastAPI&#45;&gt;RemoteControl -->
<g id="edge7" class="edge">
<title>FastAPI&#45;&gt;RemoteControl</title>
<path fill="none" stroke="#2196f3" stroke-width="1.5" d="M745.59,-342.23C696.4,-359.44 631.1,-389.97 592.5,-439 572.93,-463.86 588.47,-479.37 575,-508 569.55,-519.58 566.85,-522 558,-531.25 543.38,-546.53 525.32,-561.45 509.61,-573.42"/>
<polygon fill="#2196f3" stroke="#2196f3" stroke-width="1.5" points="507.92,-570.32 502.01,-579.11 512.11,-575.92 507.92,-570.32"/>
<text xml:space="preserve" text-anchor="middle" x="645.75" y="-454.12" font-family="Helvetica,sans-Serif" font-size="10.00" fill="#999999">REST: /play, /pause, /stt</text>
</g>
<!-- OllamaAPI -->
<g id="node11" class="node">
<title>OllamaAPI</title>
<path fill="#ffffff" stroke="black" d="M755.65,-35.51C755.65,-35.51 755.65,-40.49 755.65,-40.49 755.65,-42.97 753.22,-45.97 750.79,-46.48 750.79,-46.48 710.34,-54.98 710.34,-54.98 707.91,-55.49 702.99,-56 700.51,-56 700.51,-56 639.49,-56 639.49,-56 637.01,-56 632.09,-55.49 629.66,-54.98 629.66,-54.98 589.21,-46.48 589.21,-46.48 586.78,-45.97 584.35,-42.97 584.35,-40.49 584.35,-40.49 584.35,-35.51 584.35,-35.51 584.35,-33.03 586.78,-30.03 589.21,-29.52 589.21,-29.52 629.66,-21.02 629.66,-21.02 632.09,-20.51 637.01,-20 639.49,-20 639.49,-20 700.51,-20 700.51,-20 702.99,-20 707.91,-20.51 710.34,-21.02 710.34,-21.02 750.79,-29.52 750.79,-29.52 753.22,-30.03 755.65,-33.03 755.65,-35.51"/>
<path fill="none" stroke="black" d="M759.65,-34.43C759.65,-34.43 759.65,-41.57 759.65,-41.57 759.65,-45.14 756.16,-49.44 752.67,-50.17 752.67,-50.17 712.88,-58.53 712.88,-58.53 709.38,-59.27 702.33,-60 698.76,-60 698.76,-60 641.24,-60 641.24,-60 637.67,-60 630.62,-59.27 627.12,-58.53 627.12,-58.53 587.33,-50.17 587.33,-50.17 583.84,-49.44 580.35,-45.14 580.35,-41.57 580.35,-41.57 580.35,-34.43 580.35,-34.43 580.35,-30.86 583.84,-26.56 587.33,-25.83 587.33,-25.83 627.12,-17.47 627.12,-17.47 630.62,-16.73 637.67,-16 641.24,-16 641.24,-16 698.76,-16 698.76,-16 702.33,-16 709.38,-16.73 712.88,-17.47 712.88,-17.47 752.67,-25.83 752.67,-25.83 756.16,-26.56 759.65,-30.86 759.65,-34.43"/>
<text xml:space="preserve" text-anchor="middle" x="670" y="-32.2" font-family="Helvetica,sans-Serif" font-size="14.00" fill="#111111">Ollama Local API</text>
</g>
<!-- LLM_Task&#45;&gt;OllamaAPI -->
<g id="edge14" class="edge">
<title>LLM_Task&#45;&gt;OllamaAPI</title>
<path fill="none" stroke="#888888" stroke-width="1.5" d="M758.29,-169.03C738.42,-158.87 715.72,-144.33 700.5,-125.5 688.09,-110.16 680.55,-89.4 676.07,-72.06"/>
<polygon fill="#888888" stroke="#888888" stroke-width="1.5" points="679.5,-71.34 673.84,-62.38 672.68,-72.91 679.5,-71.34"/>
<text xml:space="preserve" text-anchor="middle" x="743.25" y="-116" font-family="Helvetica,sans-Serif" font-size="10.00" fill="#999999">Bilingual Instruction</text>
<text xml:space="preserve" text-anchor="middle" x="743.25" y="-104.75" font-family="Helvetica,sans-Serif" font-size="10.00" fill="#999999">Sandwich</text>
</g>
<!-- APP -->
<g id="node4" class="node">
<title>APP</title>
<path fill="#ffffcc" stroke="black" stroke-width="2" d="M145.38,-621.75C145.38,-624.37 118.76,-626.5 86,-626.5 53.24,-626.5 26.62,-624.37 26.62,-621.75 26.62,-621.75 26.62,-579 26.62,-579 26.62,-576.38 53.24,-574.25 86,-574.25 118.76,-574.25 145.38,-576.38 145.38,-579 145.38,-579 145.38,-621.75 145.38,-621.75"/>
<path fill="none" stroke="black" stroke-width="2" d="M145.38,-621.75C145.38,-619.13 118.76,-617 86,-617 53.24,-617 26.62,-619.13 26.62,-621.75"/>
<text xml:space="preserve" text-anchor="middle" x="86" y="-602.08" font-family="Helvetica,sans-Serif" font-size="14.00" fill="#111111">LanguageTrainer</text>
<text xml:space="preserve" text-anchor="middle" x="86" y="-587.08" font-family="Helvetica,sans-Serif" font-size="14.00" fill="#111111">(Orchestrator)</text>
</g>
<!-- DashboardClient -->
<g id="node7" class="node">
<title>DashboardClient</title>
<path fill="#ffffff" stroke="black" d="M144.25,-477C144.25,-477 27.75,-477 27.75,-477 21.75,-477 15.75,-471 15.75,-465 15.75,-465 15.75,-451 15.75,-451 15.75,-445 21.75,-439 27.75,-439 27.75,-439 144.25,-439 144.25,-439 150.25,-439 156.25,-445 156.25,-451 156.25,-451 156.25,-465 156.25,-465 156.25,-471 150.25,-477 144.25,-477"/>
<text xml:space="preserve" text-anchor="middle" x="86" y="-459.7" font-family="Helvetica,sans-Serif" font-size="14.00" fill="#111111">DashboardController</text>
<text xml:space="preserve" text-anchor="middle" x="86" y="-444.7" font-family="Helvetica,sans-Serif" font-size="14.00" fill="#111111">(Swift Client)</text>
</g>
<!-- APP&#45;&gt;DashboardClient -->
<g id="edge12" class="edge">
<title>APP&#45;&gt;DashboardClient</title>
<path fill="none" stroke="#888888" stroke-width="1.5" d="M86,-573.3C86,-549.53 86,-514.42 86,-489.39"/>
<polygon fill="#888888" stroke="#888888" stroke-width="1.5" points="89.5,-489.6 86,-479.6 82.5,-489.6 89.5,-489.6"/>
<text xml:space="preserve" text-anchor="middle" x="125.75" y="-521.75" font-family="Helvetica,sans-Serif" font-size="10.00" fill="#999999">Log Event (Ctrl&#45;G)</text>
</g>
<!-- RemoteControl&#45;&gt;FastAPI -->
<g id="edge11" class="edge">
<title>RemoteControl&#45;&gt;FastAPI</title>
<path fill="none" stroke="#2196f3" stroke-width="1.5" d="M537.29,-580.46C595.4,-562.1 674.96,-533.35 696,-508 716,-483.9 696.32,-467.04 710.25,-439 727.4,-404.48 757.45,-372.09 780.28,-350.49"/>
<polygon fill="#2196f3" stroke="#2196f3" stroke-width="1.5" points="782.62,-353.1 787.59,-343.74 777.87,-347.95 782.62,-353.1"/>
<text xml:space="preserve" text-anchor="middle" x="746.62" y="-454.12" font-family="Helvetica,sans-Serif" font-size="10.00" fill="#999999">SSE Event Data</text>
</g>
<!-- STT -->
<g id="node8" class="node">
<title>STT</title>
<path fill="#ffffff" stroke="black" d="M560.12,-477C560.12,-477 385.88,-477 385.88,-477 379.88,-477 373.88,-471 373.88,-465 373.88,-465 373.88,-451 373.88,-451 373.88,-445 379.88,-439 385.88,-439 385.88,-439 560.12,-439 560.12,-439 566.12,-439 572.12,-445 572.12,-451 572.12,-451 572.12,-465 572.12,-465 572.12,-471 566.12,-477 560.12,-477"/>
<text xml:space="preserve" text-anchor="middle" x="473" y="-459.7" font-family="Helvetica,sans-Serif" font-size="14.00" fill="#111111">SpeechRecognizer</text>
<text xml:space="preserve" text-anchor="middle" x="473" y="-444.7" font-family="Helvetica,sans-Serif" font-size="14.00" fill="#111111">(SSE Streamer / UUID Guard)</text>
</g>
<!-- RemoteControl&#45;&gt;STT -->
<!-- RemoteControl&#45;&gt;STT -->
<g id="edge9" class="edge">
<title>RemoteControl&#45;&gt;STT</title>
<path fill="none" stroke="#888888" stroke-width="1.5" d="M426.72,-580.42C399.68,-566.27 373.22,-545.09 386.25,-520 394.03,-505.01 407.38,-492.93 421.3,-483.6"/>
<polygon fill="#888888" stroke="#888888" stroke-width="1.5" points="422.89,-486.74 429.54,-478.49 419.19,-480.79 422.89,-486.74"/>
<text xml:space="preserve" text-anchor="middle" x="425.62" y="-521.75" font-family="Helvetica,sans-Serif" font-size="10.00" fill="#999999">Start SSE Stream</text>
</g>
<!-- TTS -->
<g id="node9" class="node">
<title>TTS</title>
<path fill="#ffffff" stroke="black" d="M354.75,-477C354.75,-477 175.25,-477 175.25,-477 169.25,-477 163.25,-471 163.25,-465 163.25,-465 163.25,-451 163.25,-451 163.25,-445 169.25,-439 175.25,-439 175.25,-439 354.75,-439 354.75,-439 360.75,-439 366.75,-445 366.75,-451 366.75,-451 366.75,-465 366.75,-465 366.75,-471 360.75,-477 354.75,-477"/>
<text xml:space="preserve" text-anchor="middle" x="265" y="-459.7" font-family="Helvetica,sans-Serif" font-size="14.00" fill="#111111">TTSManager</text>
<text xml:space="preserve" text-anchor="middle" x="265" y="-444.7" font-family="Helvetica,sans-Serif" font-size="14.00" fill="#111111">(RunLoop Pump / speakAsync)</text>
</g>
<!-- RemoteControl&#45;&gt;TTS -->
<g id="edge8" class="edge">
<title>RemoteControl&#45;&gt;TTS</title>
<path fill="none" stroke="#888888" stroke-width="1.5" d="M391.42,-581.72C359.27,-571.41 323.97,-555.48 298.25,-531.25 286.16,-519.86 278.09,-503.22 272.93,-488.77"/>
<polygon fill="#888888" stroke="#888888" stroke-width="1.5" points="276.34,-487.94 269.95,-479.49 269.67,-490.08 276.34,-487.94"/>
<text xml:space="preserve" text-anchor="middle" x="327.12" y="-521.75" font-family="Helvetica,sans-Serif" font-size="10.00" fill="#999999">Trigger Voice</text>
</g>
<!-- MMController -->
<g id="node6" class="node">
<title>MMController</title>
<path fill="#ffdaff" stroke="black" d="M451,-206.5C451,-206.5 303,-206.5 303,-206.5 297,-206.5 291,-200.5 291,-194.5 291,-194.5 291,-180.5 291,-180.5 291,-174.5 297,-168.5 303,-168.5 303,-168.5 451,-168.5 451,-168.5 457,-168.5 463,-174.5 463,-180.5 463,-180.5 463,-194.5 463,-194.5 463,-200.5 457,-206.5 451,-206.5"/>
<text xml:space="preserve" text-anchor="middle" x="377" y="-189.2" font-family="Helvetica,sans-Serif" font-size="14.00" fill="#111111">MMController.shared</text>
<text xml:space="preserve" text-anchor="middle" x="377" y="-174.2" font-family="Helvetica,sans-Serif" font-size="14.00" fill="#111111">(Singleton / TTY Pop&#45;ups)</text>
</g>
<!-- IO_Hardware -->
<g id="node12" class="node">
<title>IO_Hardware</title>
<polygon fill="none" stroke="black" stroke-dasharray="5,2" points="573.38,-56 430.62,-56 430.62,-20 573.38,-20 573.38,-56"/>
<text xml:space="preserve" text-anchor="middle" x="502" y="-32.2" font-family="Helvetica,sans-Serif" font-size="14.00" fill="#111111">Mic / Speakers / TTY</text>
</g>
<!-- MMController&#45;&gt;IO_Hardware -->
<g id="edge17" class="edge">
<title>MMController&#45;&gt;IO_Hardware</title>
<path fill="none" stroke="#888888" stroke-width="1.5" d="M388.16,-168.13C399.12,-150.67 416.76,-124.03 434.75,-103 446.27,-89.53 460.3,-75.82 472.56,-64.57"/>
<polygon fill="#888888" stroke="#888888" stroke-width="1.5" points="474.76,-67.3 479.84,-58.01 470.07,-62.11 474.76,-67.3"/>
<text xml:space="preserve" text-anchor="middle" x="494.38" y="-110.38" font-family="Helvetica,sans-Serif" font-size="10.00" fill="#999999">ANSI Cursor Save/Restore</text>
</g>
<!-- DashboardClient&#45;&gt;FastAPI -->
<g id="edge13" class="edge">
<title>DashboardClient&#45;&gt;FastAPI</title>
<path fill="none" stroke="#888888" stroke-width="1.5" d="M156.48,-439.75C157.66,-439.49 158.84,-439.24 160,-439 362.2,-396.55 601.91,-356.82 726.41,-336.97"/>
<polygon fill="#888888" stroke="#888888" stroke-width="1.5" points="726.89,-340.43 736.22,-335.41 725.79,-333.52 726.89,-340.43"/>
<text xml:space="preserve" text-anchor="middle" x="478.06" y="-386.5" font-family="Helvetica,sans-Serif" font-size="10.00" fill="#999999">POST /explain_request</text>
</g>
<!-- DashboardClient&#45;&gt;MMController -->
<g id="edge16" class="edge">
<title>DashboardClient&#45;&gt;MMController</title>
<path fill="none" stroke="#888888" stroke-width="1.5" d="M99.39,-438.8C121.93,-408.81 169.71,-347.93 217.75,-303.75 255.54,-269 303.91,-235.29 337.37,-213.4"/>
<polygon fill="#888888" stroke="#888888" stroke-width="1.5" points="338.86,-216.61 345.35,-208.23 335.05,-210.73 338.86,-216.61"/>
<text xml:space="preserve" text-anchor="middle" x="256.38" y="-318.88" font-family="Helvetica,sans-Serif" font-size="10.00" fill="#999999">shortNotification()</text>
</g>
<!-- Alignment -->
<g id="node10" class="node">
<title>Alignment</title>
<path fill="#ffffff" stroke="black" d="M443.88,-341.75C443.88,-341.75 310.12,-341.75 310.12,-341.75 304.12,-341.75 298.12,-335.75 298.12,-329.75 298.12,-329.75 298.12,-315.75 298.12,-315.75 298.12,-309.75 304.12,-303.75 310.12,-303.75 310.12,-303.75 443.88,-303.75 443.88,-303.75 449.88,-303.75 455.88,-309.75 455.88,-315.75 455.88,-315.75 455.88,-329.75 455.88,-329.75 455.88,-335.75 449.88,-341.75 443.88,-341.75"/>
<text xml:space="preserve" text-anchor="middle" x="377" y="-324.45" font-family="Helvetica,sans-Serif" font-size="14.00" fill="#111111">TranslationValidator</text>
<text xml:space="preserve" text-anchor="middle" x="377" y="-309.45" font-family="Helvetica,sans-Serif" font-size="14.00" fill="#111111">(Strict Semantic Match)</text>
</g>
<!-- DashboardClient&#45;&gt;Alignment -->
<!-- STT&#45;&gt;RemoteControl -->
<g id="edge10" class="edge">
<title>STT&#45;&gt;RemoteControl</title>
<path fill="none" stroke="#888888" stroke-width="1.5" d="M473,-477.19C473,-500.21 473,-540.25 473,-568.19"/>
<polygon fill="#888888" stroke="#888888" stroke-width="1.5" points="469.5,-568.17 473,-578.17 476.5,-568.17 469.5,-568.17"/>
<text xml:space="preserve" text-anchor="middle" x="512.75" y="-521.75" font-family="Helvetica,sans-Serif" font-size="10.00" fill="#999999">Partial Transcripts</text>
</g>
<!-- TTS&#45;&gt;RemoteControl -->
<!-- Alignment&#45;&gt;MMController -->
<!-- Alignment&#45;&gt;OllamaAPI -->
<g id="edge18" class="edge">
<title>Alignment&#45;&gt;OllamaAPI</title>
<path fill="none" stroke="#888888" stroke-width="1.5" d="M395.77,-303.63C445.03,-256.1 578.35,-127.45 639.09,-68.83"/>
<polygon fill="#888888" stroke="#888888" stroke-width="1.5" points="641.45,-71.41 646.22,-61.95 636.59,-66.38 641.45,-71.41"/>
</g>
<!-- OllamaAPI&#45;&gt;LLM_Task -->
<g id="edge15" class="edge">
<title>OllamaAPI&#45;&gt;LLM_Task</title>
<path fill="none" stroke="#888888" stroke-width="1.5" d="M721.79,-57.03C743.84,-67.24 767.9,-82.2 783,-103 794.29,-118.55 798.5,-139.81 799.91,-156.99"/>
<polygon fill="#888888" stroke="#888888" stroke-width="1.5" points="796.41,-157.09 800.4,-166.9 803.4,-156.74 796.41,-157.09"/>
<text xml:space="preserve" text-anchor="middle" x="815.44" y="-110.38" font-family="Helvetica,sans-Serif" font-size="10.00" fill="#999999">Response</text>
</g>
<!-- RenderingNote -->
<g id="node13" class="node">
<title>RenderingNote</title>
<polygon fill="#fff9c4" stroke="black" points="713.75,-621.25 588.25,-621.25 588.25,-579.5 719.75,-579.5 719.75,-615.25 713.75,-621.25"/>
<polyline fill="none" stroke="black" points="713.75,-621.25 713.75,-615.25"/>
<polyline fill="none" stroke="black" points="719.75,-615.25 713.75,-615.25"/>
<text xml:space="preserve" text-anchor="middle" x="654" y="-607.75" font-family="Helvetica,sans-Serif" font-size="10.00" fill="#111111">Rendering Safety:</text>
<text xml:space="preserve" text-anchor="middle" x="654" y="-596.5" font-family="Helvetica,sans-Serif" font-size="10.00" fill="#111111">All labels scrub &#39;&amp;&#39; to &#39;and&#39;</text>
<text xml:space="preserve" text-anchor="middle" x="654" y="-585.25" font-family="Helvetica,sans-Serif" font-size="10.00" fill="#111111">[cite: 2025&#45;12&#45;23]</text>
</g>
</g>
</svg>
