<?xml version="1.0" encoding="UTF-8" standalone="no"?>
<!DOCTYPE svg PUBLIC "-//W3C//DTD SVG 1.1//EN"
 "http://www.w3.org/Graphics/SVG/1.1/DTD/svg11.dtd">
<!-- Generated by graphviz version 13.0.0 (20250608.1624)
 -->
<!-- Title: G Pages: 1 -->
<svg width="1253pt" height="615pt"
 viewBox="0.00 0.00 1253.00 615.00" xmlns="http://www.w3.org/2000/svg" xmlns:xlink="http://www.w3.org/1999/xlink">
<g id="graph0" class="graph" transform="scale(1 1) rotate(0) translate(4 611)">
<title>G</title>
<text xml:space="preserve" text-anchor="start" x="410.38" y="-583.1" font-family="Helvetica,sans-Serif" font-weight="bold" font-size="22.00" fill="#f33333">LangQuiz: Unified Headless Architecture</text>
<g id="clust1" class="cluster">
<title>cluster_user</title>
<path fill="none" stroke="#4caf50" stroke-width="3" stroke-dasharray="5,2" d="M20,-430.5C20,-430.5 823,-430.5 823,-430.5 829,-430.5 835,-436.5 835,-442.5 835,-442.5 835,-556.5 835,-556.5 835,-562.5 829,-568.5 823,-568.5 823,-568.5 20,-568.5 20,-568.5 14,-568.5 8,-562.5 8,-556.5 8,-556.5 8,-442.5 8,-442.5 8,-436.5 14,-430.5 20,-430.5"/>
<text xml:space="preserve" text-anchor="middle" x="421.5" y="-551.2" font-family="Helvetica,sans-Serif" font-size="14.00" fill="#999999">User Interaction</text>
</g>
<g id="clust2" class="cluster">
<title>cluster_state</title>
<path fill="none" stroke="magenta" stroke-width="3" stroke-dasharray="1,5" d="M563,-147C563,-147 875,-147 875,-147 881,-147 887,-153 887,-159 887,-159 887,-235 887,-235 887,-241 881,-247 875,-247 875,-247 563,-247 563,-247 557,-247 551,-241 551,-235 551,-235 551,-159 551,-159 551,-153 557,-147 563,-147"/>
<text xml:space="preserve" text-anchor="middle" x="719" y="-229.7" font-family="Helvetica,sans-Serif" font-size="14.00" fill="#999999">Input State Management</text>
</g>
<g id="clust3" class="cluster">
<title>cluster_analysis</title>
<path fill="none" stroke="#b3e5fc" stroke-width="3" d="M936,-8C936,-8 1130,-8 1130,-8 1136,-8 1142,-14 1142,-20 1142,-20 1142,-361.25 1142,-361.25 1142,-367.25 1136,-373.25 1130,-373.25 1130,-373.25 936,-373.25 936,-373.25 930,-373.25 924,-367.25 924,-361.25 924,-361.25 924,-20 924,-20 924,-14 930,-8 936,-8"/>
<text xml:space="preserve" text-anchor="middle" x="1033" y="-355.95" font-family="Helvetica,sans-Serif" font-size="14.00" fill="#999999">Linguistic Engine and Persistence</text>
</g>
<g id="clust4" class="cluster">
<title>cluster_frameworks</title>
<path fill="none" stroke="#9090c0" stroke-width="3" d="M55,-148C55,-148 531,-148 531,-148 537,-148 543,-154 543,-160 543,-160 543,-391.25 543,-391.25 543,-397.25 537,-403.25 531,-403.25 531,-403.25 55,-403.25 55,-403.25 49,-403.25 43,-397.25 43,-391.25 43,-391.25 43,-160 43,-160 43,-154 49,-148 55,-148"/>
<text xml:space="preserve" text-anchor="middle" x="293" y="-385.95" font-family="Helvetica,sans-Serif" font-size="14.00" fill="#999999">Apple Frameworks and AI</text>
</g>
<g id="clust5" class="cluster">
<title>cluster_av_internal</title>
<path fill="none" stroke="#777777" stroke-width="3" stroke-dasharray="1,5" d="M63,-274.25C63,-274.25 203,-274.25 203,-274.25 209,-274.25 215,-280.25 215,-286.25 215,-286.25 215,-360.25 215,-360.25 215,-366.25 209,-372.25 203,-372.25 203,-372.25 63,-372.25 63,-372.25 57,-372.25 51,-366.25 51,-360.25 51,-360.25 51,-286.25 51,-286.25 51,-280.25 57,-274.25 63,-274.25"/>
<text xml:space="preserve" text-anchor="middle" x="133" y="-354.95" font-family="Helvetica,sans-Serif" font-size="14.00" fill="#999999">AVFoundation Engine</text>
</g>
<!-- Keyboard -->
<g id="node1" class="node">
<title>Keyboard</title>
<path fill="#ffffff" stroke="black" d="M815.21,-514.5C815.21,-514.5 549.36,-514.5 549.36,-514.5 543.36,-514.5 533.15,-510.22 528.95,-505.93 528.95,-505.93 471.19,-447.07 471.19,-447.07 466.99,-442.78 468.79,-438.5 474.79,-438.5 474.79,-438.5 740.64,-438.5 740.64,-438.5 746.64,-438.5 756.85,-442.78 761.05,-447.07 761.05,-447.07 818.81,-505.93 818.81,-505.93 823.01,-510.22 821.21,-514.5 815.21,-514.5"/>
<text xml:space="preserve" text-anchor="middle" x="645" y="-478.2" font-family="Helvetica,sans-Serif" font-size="14.00" fill="#111111">Keyboard</text>
<text xml:space="preserve" text-anchor="middle" x="645" y="-463.2" font-family="Helvetica,sans-Serif" font-size="14.00" fill="#111111">(Nav: Ctrl&#45;B/E, Exit: Ctrl&#45;X)</text>
</g>
<!-- MMController -->
<g id="node4" class="node">
<title>MMController</title>
<path fill="#ffdaff" stroke="black" stroke-width="2" d="M691.12,-318.25C691.12,-318.25 600.88,-318.25 600.88,-318.25 594.88,-318.25 588.88,-312.25 588.88,-306.25 588.88,-306.25 588.88,-294.25 588.88,-294.25 588.88,-288.25 594.88,-282.25 600.88,-282.25 600.88,-282.25 691.12,-282.25 691.12,-282.25 697.12,-282.25 703.12,-288.25 703.12,-294.25 703.12,-294.25 703.12,-306.25 703.12,-306.25 703.12,-312.25 697.12,-318.25 691.12,-318.25"/>
<text xml:space="preserve" text-anchor="start" x="601.75" y="-299.95" font-family="Helvetica,sans-Serif" font-weight="bold" font-size="14.00" fill="#111111">MMController</text>
<text xml:space="preserve" text-anchor="start" x="596.88" y="-289.75" font-family="Helvetica,sans-Serif" font-size="10.00" fill="#111111">Headless Orchestrator</text>
</g>
<!-- Keyboard&#45;&gt;MMController -->
<g id="edge3" class="edge">
<title>Keyboard&#45;&gt;MMController</title>
<path fill="none" stroke="#4caf50" stroke-width="1.5" d="M643.02,-438.16C642.8,-432.9 642.62,-427.56 642.5,-422.5 641.76,-391.27 643.06,-355.52 644.27,-330.98"/>
<polygon fill="#4caf50" stroke="#4caf50" stroke-width="1.5" points="647.76,-331.36 644.79,-321.19 640.77,-330.99 647.76,-331.36"/>
<text xml:space="preserve" text-anchor="middle" x="674.75" y="-413" font-family="Helvetica,sans-Serif" font-size="10.00" fill="#999999">termios events</text>
</g>
<!-- Keyboard&#45;&gt;MMController -->
<!-- Microphone -->
<g id="node2" class="node">
<title>Microphone</title>
<ellipse fill="#ffffff" stroke="black" cx="90" cy="-476.5" rx="73.89" ry="26.87"/>
<text xml:space="preserve" text-anchor="middle" x="90" y="-478.2" font-family="Helvetica,sans-Serif" font-size="14.00" fill="#111111">Microphone</text>
<text xml:space="preserve" text-anchor="middle" x="90" y="-463.2" font-family="Helvetica,sans-Serif" font-size="14.00" fill="#111111">(Speech Input)</text>
</g>
<!-- InputNode -->
<g id="node14" class="node">
<title>InputNode</title>
<path fill="#ffffff" stroke="black" d="M194.62,-318.25C194.62,-318.25 71.38,-318.25 71.38,-318.25 65.38,-318.25 59.38,-312.25 59.38,-306.25 59.38,-306.25 59.38,-294.25 59.38,-294.25 59.38,-288.25 65.38,-282.25 71.38,-282.25 71.38,-282.25 194.62,-282.25 194.62,-282.25 200.62,-282.25 206.62,-288.25 206.62,-294.25 206.62,-294.25 206.62,-306.25 206.62,-306.25 206.62,-312.25 200.62,-318.25 194.62,-318.25"/>
<text xml:space="preserve" text-anchor="middle" x="133" y="-294.45" font-family="Helvetica,sans-Serif" font-size="14.00" fill="#111111">InputNode (PCM Tap)</text>
</g>
<!-- Microphone&#45;&gt;InputNode -->
<g id="edge4" class="edge">
<title>Microphone&#45;&gt;InputNode</title>
<path fill="none" stroke="#4caf50" stroke-width="1.5" d="M96.44,-449.41C104.33,-417.42 117.67,-363.37 125.87,-330.15"/>
<polygon fill="#4caf50" stroke="#4caf50" stroke-width="1.5" points="129.2,-331.27 128.19,-320.73 122.4,-329.6 129.2,-331.27"/>
</g>
<!-- Speaker -->
<g id="node3" class="node">
<title>Speaker</title>
<path fill="#ffffff" stroke="black" d="M258.71,-438.5C258.71,-438.5 367.29,-438.5 367.29,-438.5 373.29,-438.5 382.45,-443.6 385.62,-448.69 385.62,-448.69 420.17,-504.31 420.17,-504.31 423.33,-509.4 420.5,-514.5 414.5,-514.5 414.5,-514.5 211.5,-514.5 211.5,-514.5 205.5,-514.5 202.67,-509.4 205.83,-504.31 205.83,-504.31 240.38,-448.69 240.38,-448.69 243.55,-443.6 252.71,-438.5 258.71,-438.5"/>
<text xml:space="preserve" text-anchor="middle" x="313" y="-478.2" font-family="Helvetica,sans-Serif" font-size="14.00" fill="#111111">Speaker</text>
<text xml:space="preserve" text-anchor="middle" x="313" y="-463.2" font-family="Helvetica,sans-Serif" font-size="14.00" fill="#111111">(TTS Feedback)</text>
</g>
<!-- Buffer -->
<g id="node5" class="node">
<title>Buffer</title>
<path fill="#d1ffd1" stroke="black" d="M709.12,-193C709.12,-193 570.88,-193 570.88,-193 564.88,-193 558.88,-187 558.88,-181 558.88,-181 558.88,-167 558.88,-167 558.88,-161 564.88,-155 570.88,-155 570.88,-155 709.12,-155 709.12,-155 715.12,-155 721.12,-161 721.12,-167 721.12,-167 721.12,-181 721.12,-181 721.12,-187 715.12,-193 709.12,-193"/>
<text xml:space="preserve" text-anchor="middle" x="640" y="-175.7" font-family="Helvetica,sans-Serif" font-size="14.00" fill="#111111">Synchronized Buffer</text>
<text xml:space="preserve" text-anchor="middle" x="640" y="-160.7" font-family="Helvetica,sans-Serif" font-size="14.00" fill="#111111">(Mid&#45;line Cursor Editing)</text>
</g>
<!-- MMController&#45;&gt;Buffer -->
<g id="edge6" class="edge">
<title>MMController&#45;&gt;Buffer</title>
<path fill="none" stroke="#888888" stroke-width="1.5" d="M645.14,-281.45C644.18,-261.63 642.62,-229.26 641.47,-205.41"/>
<polygon fill="#888888" stroke="#888888" stroke-width="1.5" points="644.97,-205.26 640.99,-195.44 637.97,-205.6 644.97,-205.26"/>
<text xml:space="preserve" text-anchor="middle" x="677.77" y="-256.75" font-family="Helvetica,sans-Serif" font-size="10.00" fill="#999999">Manage Cursor</text>
</g>
<!-- UUIDGuard -->
<g id="node6" class="node">
<title>UUIDGuard</title>
<path fill="#ffe0b2" stroke="black" d="M867.25,-193C867.25,-193 768.75,-193 768.75,-193 762.75,-193 756.75,-187 756.75,-181 756.75,-181 756.75,-167 756.75,-167 756.75,-161 762.75,-155 768.75,-155 768.75,-155 867.25,-155 867.25,-155 873.25,-155 879.25,-161 879.25,-167 879.25,-167 879.25,-181 879.25,-181 879.25,-187 873.25,-193 867.25,-193"/>
<text xml:space="preserve" text-anchor="middle" x="818" y="-175.7" font-family="Helvetica,sans-Serif" font-size="14.00" fill="#111111">UUID Task Guard</text>
<text xml:space="preserve" text-anchor="middle" x="818" y="-160.7" font-family="Helvetica,sans-Serif" font-size="14.00" fill="#111111">(Speech Reset)</text>
</g>
<!-- MMController&#45;&gt;UUIDGuard -->
<g id="edge7" class="edge">
<title>MMController&#45;&gt;UUIDGuard</title>
<path fill="none" stroke="#888888" stroke-width="1.5" d="M703.77,-295.14C745.85,-290.84 797.85,-282.37 812,-266.25 826.34,-249.9 827.05,-224.92 824.61,-205.23"/>
<polygon fill="#888888" stroke="#888888" stroke-width="1.5" points="828.08,-204.75 823.03,-195.43 821.17,-205.86 828.08,-204.75"/>
<text xml:space="preserve" text-anchor="middle" x="850.56" y="-256.75" font-family="Helvetica,sans-Serif" font-size="10.00" fill="#999999">Rotate TaskID</text>
</g>
<!-- Normalization -->
<g id="node8" class="node">
<title>Normalization</title>
<path fill="#e1f5fe" stroke="black" d="M1102.25,-193C1102.25,-193 943.75,-193 943.75,-193 937.75,-193 931.75,-187 931.75,-181 931.75,-181 931.75,-167 931.75,-167 931.75,-161 937.75,-155 943.75,-155 943.75,-155 1102.25,-155 1102.25,-155 1108.25,-155 1114.25,-161 1114.25,-167 1114.25,-167 1114.25,-181 1114.25,-181 1114.25,-187 1108.25,-193 1102.25,-193"/>
<text xml:space="preserve" text-anchor="middle" x="1023" y="-175.7" font-family="Helvetica,sans-Serif" font-size="14.00" fill="#111111">Normalization</text>
<text xml:space="preserve" text-anchor="middle" x="1023" y="-160.7" font-family="Helvetica,sans-Serif" font-size="14.00" fill="#111111">(EsZett and Ignored Words)</text>
</g>
<!-- MMController&#45;&gt;Normalization -->
<!-- Recognition -->
<g id="node12" class="node">
<title>Recognition</title>
<path fill="#e1e1fb" stroke="black" d="M462.62,-192C462.62,-192 339.38,-192 339.38,-192 333.38,-192 327.38,-186 327.38,-180 327.38,-180 327.38,-168 327.38,-168 327.38,-162 333.38,-156 339.38,-156 339.38,-156 462.62,-156 462.62,-156 468.62,-156 474.62,-162 474.62,-168 474.62,-168 474.62,-180 474.62,-180 474.62,-186 468.62,-192 462.62,-192"/>
<text xml:space="preserve" text-anchor="middle" x="401" y="-168.2" font-family="Helvetica,sans-Serif" font-size="14.00" fill="#111111">SFSpeechRecognizer</text>
</g>
<!-- MMController&#45;&gt;Recognition -->
<g id="edge8" class="edge">
<title>MMController&#45;&gt;Recognition</title>
<path fill="none" stroke="magenta" stroke-width="1.5" d="M610.35,-281.41C590.26,-271.34 564.71,-258.5 542,-247 509.64,-230.61 473.17,-211.98 445.43,-197.78"/>
<polygon fill="magenta" stroke="magenta" stroke-width="1.5" points="447.39,-194.85 436.89,-193.41 444.2,-201.08 447.39,-194.85"/>
<text xml:space="preserve" text-anchor="middle" x="594.9" y="-256.75" font-family="Helvetica,sans-Serif" font-size="10.00" fill="#999999">Control</text>
</g>
<!-- Buffer&#45;&gt;Normalization -->
<g id="edge10" class="edge">
<title>Buffer&#45;&gt;Normalization</title>
<path fill="none" stroke="#888888" stroke-width="1.5" d="M659.18,-193.18C677.77,-210.31 707.69,-234.18 739,-244.15 805.49,-265.31 828.43,-261.57 896,-244.15 929.29,-235.56 963.19,-216.19 987.58,-199.97"/>
<polygon fill="#888888" stroke="#888888" stroke-width="1.5" points="989.26,-203.07 995.55,-194.54 985.31,-197.28 989.26,-203.07"/>
<text xml:space="preserve" text-anchor="middle" x="784" y="-256.75" font-family="Helvetica,sans-Serif" font-size="10.00" fill="#999999">Raw Phrase</text>
</g>
<!-- FileDataManager -->
<g id="node7" class="node">
<title>FileDataManager</title>
<path fill="#fff9c4" stroke="black" d="M1058.62,-319.25C1058.62,-319.25 953.38,-319.25 953.38,-319.25 947.38,-319.25 941.38,-313.25 941.38,-307.25 941.38,-307.25 941.38,-293.25 941.38,-293.25 941.38,-287.25 947.38,-281.25 953.38,-281.25 953.38,-281.25 1058.62,-281.25 1058.62,-281.25 1064.62,-281.25 1070.62,-287.25 1070.62,-293.25 1070.62,-293.25 1070.62,-307.25 1070.62,-307.25 1070.62,-313.25 1064.62,-319.25 1058.62,-319.25"/>
<text xml:space="preserve" text-anchor="middle" x="1006" y="-301.95" font-family="Helvetica,sans-Serif" font-size="14.00" fill="#111111">FileDataManager</text>
<text xml:space="preserve" text-anchor="middle" x="1006" y="-286.95" font-family="Helvetica,sans-Serif" font-size="14.00" fill="#111111">(Error Persistence)</text>
</g>
<!-- FileDataManager&#45;&gt;Normalization -->
<g id="edge13" class="edge">
<title>FileDataManager&#45;&gt;Normalization</title>
<path fill="none" stroke="#888888" stroke-width="1.5" d="M1008.51,-280.92C1011.22,-261.1 1015.59,-229.17 1018.82,-205.55"/>
<polygon fill="#888888" stroke="#888888" stroke-width="1.5" points="1022.29,-206.04 1020.17,-195.66 1015.35,-205.09 1022.29,-206.04"/>
<text xml:space="preserve" text-anchor="middle" x="1036.73" y="-256.75" font-family="Helvetica,sans-Serif" font-size="10.00" fill="#999999">Load Rules</text>
</g>
<!-- WordAlignment -->
<g id="node9" class="node">
<title>WordAlignment</title>
<path fill="#e1f5fe" stroke="black" d="M1105.75,-123C1105.75,-123 968.25,-123 968.25,-123 962.25,-123 956.25,-117 956.25,-111 956.25,-111 956.25,-97 956.25,-97 956.25,-91 962.25,-85 968.25,-85 968.25,-85 1105.75,-85 1105.75,-85 1111.75,-85 1117.75,-91 1117.75,-97 1117.75,-97 1117.75,-111 1117.75,-111 1117.75,-117 1111.75,-123 1105.75,-123"/>
<text xml:space="preserve" text-anchor="middle" x="1037" y="-105.7" font-family="Helvetica,sans-Serif" font-size="14.00" fill="#111111">Levenshtein Alignment</text>
<text xml:space="preserve" text-anchor="middle" x="1037" y="-90.7" font-family="Helvetica,sans-Serif" font-size="14.00" fill="#111111">(Homonyms and Typos)</text>
</g>
<!-- Normalization&#45;&gt;WordAlignment -->
<g id="edge1" class="edge">
<title>Normalization&#45;&gt;WordAlignment</title>
<path fill="none" stroke="#888888" stroke-width="1.5" d="M1026.75,-154.78C1027.99,-148.76 1029.41,-141.89 1030.78,-135.21"/>
<polygon fill="#888888" stroke="#888888" stroke-width="1.5" points="1034.19,-136 1032.78,-125.5 1027.34,-134.59 1034.19,-136"/>
</g>
<!-- Normalization&#45;&gt;InputNode -->
<!-- DiffEngine -->
<g id="node10" class="node">
<title>DiffEngine</title>
<path fill="#ffccbc" stroke="black" d="M1114,-54C1114,-54 1002,-54 1002,-54 996,-54 990,-48 990,-42 990,-42 990,-28 990,-28 990,-22 996,-16 1002,-16 1002,-16 1114,-16 1114,-16 1120,-16 1126,-22 1126,-28 1126,-28 1126,-42 1126,-42 1126,-48 1120,-54 1114,-54"/>
<text xml:space="preserve" text-anchor="middle" x="1058" y="-36.7" font-family="Helvetica,sans-Serif" font-size="14.00" fill="#111111">Character&#45;Level Diff</text>
<text xml:space="preserve" text-anchor="middle" x="1058" y="-21.7" font-family="Helvetica,sans-Serif" font-size="14.00" fill="#111111">(ANSI Green/Red)</text>
</g>
<!-- WordAlignment&#45;&gt;DiffEngine -->
<g id="edge2" class="edge">
<title>WordAlignment&#45;&gt;DiffEngine</title>
<path fill="none" stroke="#888888" stroke-width="1.5" d="M1042.74,-84.69C1044.59,-78.78 1046.69,-72.07 1048.73,-65.57"/>
<polygon fill="#888888" stroke="#888888" stroke-width="1.5" points="1051.94,-67.04 1051.59,-56.45 1045.26,-64.95 1051.94,-67.04"/>
</g>
<!-- APP -->
<g id="node15" class="node">
<title>APP</title>
<path fill="#ffffcc" stroke="black" d="M1000.25,-497.88C1000.25,-500.5 974.14,-502.62 942,-502.62 909.86,-502.62 883.75,-500.5 883.75,-497.88 883.75,-497.88 883.75,-455.12 883.75,-455.12 883.75,-452.5 909.86,-450.38 942,-450.38 974.14,-450.38 1000.25,-452.5 1000.25,-455.12 1000.25,-455.12 1000.25,-497.88 1000.25,-497.88"/>
<path fill="none" stroke="black" d="M1000.25,-497.88C1000.25,-495.25 974.14,-493.12 942,-493.12 909.86,-493.12 883.75,-495.25 883.75,-497.88"/>
<text xml:space="preserve" text-anchor="middle" x="942" y="-478.2" font-family="Helvetica,sans-Serif" font-size="14.00" fill="#111111">Main Application</text>
<text xml:space="preserve" text-anchor="middle" x="942" y="-463.2" font-family="Helvetica,sans-Serif" font-size="14.00" fill="#111111">(ios/cli/headless)</text>
</g>
<!-- DiffEngine&#45;&gt;APP -->
<g id="edge11" class="edge">
<title>DiffEngine&#45;&gt;APP</title>
<path fill="none" stroke="#888888" stroke-width="1.5" d="M1126.5,-46.7C1156.93,-55.75 1186,-72.4 1186,-103 1186,-301.25 1186,-301.25 1186,-301.25 1186,-387.47 1083.85,-435.07 1011.74,-457.92"/>
<polygon fill="#888888" stroke="#888888" stroke-width="1.5" points="1011.15,-454.44 1002.61,-460.72 1013.2,-461.14 1011.15,-454.44"/>
<text xml:space="preserve" text-anchor="middle" x="1215.25" y="-170.12" font-family="Helvetica,sans-Serif" font-size="10.00" fill="#999999">Visual Result</text>
</g>
<!-- TTSManager -->
<g id="node11" class="node">
<title>TTSManager</title>
<path fill="#e1e1fb" stroke="black" d="M369.12,-319.25C369.12,-319.25 254.88,-319.25 254.88,-319.25 248.88,-319.25 242.88,-313.25 242.88,-307.25 242.88,-307.25 242.88,-293.25 242.88,-293.25 242.88,-287.25 248.88,-281.25 254.88,-281.25 254.88,-281.25 369.12,-281.25 369.12,-281.25 375.12,-281.25 381.12,-287.25 381.12,-293.25 381.12,-293.25 381.12,-307.25 381.12,-307.25 381.12,-313.25 375.12,-319.25 369.12,-319.25"/>
<text xml:space="preserve" text-anchor="middle" x="312" y="-301.95" font-family="Helvetica,sans-Serif" font-size="14.00" fill="#111111">TTSManager</text>
<text xml:space="preserve" text-anchor="middle" x="312" y="-286.95" font-family="Helvetica,sans-Serif" font-size="14.00" fill="#111111">(Async and Preload)</text>
</g>
<!-- TTSManager&#45;&gt;Speaker -->
<g id="edge17" class="edge">
<title>TTSManager&#45;&gt;Speaker</title>
<path fill="none" stroke="#4caf50" stroke-width="1.5" d="M312.1,-319.36C312.25,-344.36 312.51,-390.38 312.72,-426"/>
<polygon fill="#4caf50" stroke="#4caf50" stroke-width="1.5" points="309.22,-425.87 312.77,-435.85 316.21,-425.83 309.22,-425.87"/>
</g>
<!-- Recognition&#45;&gt;Buffer -->
<g id="edge9" class="edge">
<title>Recognition&#45;&gt;Buffer</title>
<path fill="none" stroke="magenta" stroke-width="1.5" d="M474.98,-174C497.52,-174 522.59,-174 546.24,-174"/>
<polygon fill="magenta" stroke="magenta" stroke-width="1.5" points="546.19,-177.5 556.19,-174 546.19,-170.5 546.19,-177.5"/>
<text xml:space="preserve" text-anchor="middle" x="516.75" y="-178.75" font-family="Helvetica,sans-Serif" font-size="10.00" fill="#999999">Transcripts</text>
</g>
<!-- Ollama -->
<g id="node13" class="node">
<title>Ollama</title>
<path fill="#f3e5f5" stroke="black" d="M522.62,-319.25C522.62,-319.25 429.38,-319.25 429.38,-319.25 423.38,-319.25 417.38,-313.25 417.38,-307.25 417.38,-307.25 417.38,-293.25 417.38,-293.25 417.38,-287.25 423.38,-281.25 429.38,-281.25 429.38,-281.25 522.62,-281.25 522.62,-281.25 528.62,-281.25 534.62,-287.25 534.62,-293.25 534.62,-293.25 534.62,-307.25 534.62,-307.25 534.62,-313.25 528.62,-319.25 522.62,-319.25"/>
<text xml:space="preserve" text-anchor="middle" x="476" y="-301.95" font-family="Helvetica,sans-Serif" font-size="14.00" fill="#111111">Grammar Check</text>
<text xml:space="preserve" text-anchor="middle" x="476" y="-286.95" font-family="Helvetica,sans-Serif" font-size="14.00" fill="#111111">(Local AI)</text>
</g>
<!-- Ollama&#45;&gt;APP -->
<g id="edge12" class="edge">
<title>Ollama&#45;&gt;APP</title>
<path fill="none" stroke="#888888" stroke-width="1.5" d="M486.68,-319.73C501.87,-344 532.24,-385.59 571,-403.25 594.67,-414.04 779.71,-405.16 805,-411.25 821.15,-415.14 854.78,-430.87 884.68,-445.79"/>
<polygon fill="#888888" stroke="#888888" stroke-width="1.5" points="882.95,-448.83 893.45,-450.2 886.09,-442.58 882.95,-448.83"/>
<text xml:space="preserve" text-anchor="middle" x="862.85" y="-413" font-family="Helvetica,sans-Serif" font-size="10.00" fill="#999999">AI Feedback</text>
</g>
<!-- InputNode&#45;&gt;Recognition -->
<g id="edge5" class="edge">
<title>InputNode&#45;&gt;Recognition</title>
<path fill="none" stroke="blue" stroke-width="1.5" d="M170.55,-281.84C218.06,-259.82 299.98,-221.83 352.27,-197.59"/>
<polygon fill="blue" stroke="blue" stroke-width="1.5" points="353.62,-200.83 361.22,-193.44 350.67,-194.48 353.62,-200.83"/>
<text xml:space="preserve" text-anchor="middle" x="247.96" y="-256.75" font-family="Helvetica,sans-Serif" font-size="10.00" fill="#999999">installTap</text>
</g>
<!-- APP&#45;&gt;MMController -->
<g id="edge14" class="edge">
<title>APP&#45;&gt;MMController</title>
<path fill="none" stroke="#888888" stroke-width="1.5" d="M930.75,-450.02C923.97,-437.03 914.26,-421.78 902,-411.25 847.8,-364.67 770.89,-335.22 715.54,-318.64"/>
<polygon fill="#888888" stroke="#888888" stroke-width="1.5" points="716.83,-315.37 706.25,-315.93 714.87,-322.09 716.83,-315.37"/>
<text xml:space="preserve" text-anchor="middle" x="918.81" y="-413" font-family="Helvetica,sans-Serif" font-size="10.00" fill="#999999">Init</text>
</g>
<!-- APP&#45;&gt;FileDataManager -->
<g id="edge16" class="edge">
<title>APP&#45;&gt;FileDataManager</title>
<path fill="none" stroke="#888888" stroke-width="1.5" d="M951.31,-450.16C962.92,-418.55 982.74,-364.59 995.06,-331.04"/>
<polygon fill="#888888" stroke="#888888" stroke-width="1.5" points="998.29,-332.4 998.45,-321.81 991.72,-329.99 998.29,-332.4"/>
<text xml:space="preserve" text-anchor="middle" x="994.53" y="-413" font-family="Helvetica,sans-Serif" font-size="10.00" fill="#999999">Persist Errors</text>
</g>
<!-- APP&#45;&gt;TTSManager -->
<g id="edge15" class="edge">
<title>APP&#45;&gt;TTSManager</title>
<path fill="none" stroke="#888888" stroke-width="1.5" d="M897.36,-451C881.03,-443.13 862.12,-435.23 844,-430.5 800.97,-419.27 787.77,-431.68 744.25,-422.5 729.4,-419.37 726.93,-413.98 712,-411.25 677.78,-405 430.4,-418.23 399,-403.25 366.94,-387.96 342.18,-354.64 327.42,-330.23"/>
<polygon fill="#888888" stroke="#888888" stroke-width="1.5" points="330.52,-328.61 322.48,-321.71 324.46,-332.11 330.52,-328.61"/>
<text xml:space="preserve" text-anchor="middle" x="770.12" y="-413" font-family="Helvetica,sans-Serif" font-size="10.00" fill="#999999">Async Task</text>
</g>
</g>
</svg>
