<?xml version="1.0" encoding="UTF-8" standalone="no"?>
<!DOCTYPE svg PUBLIC "-//W3C//DTD SVG 1.1//EN"
 "http://www.w3.org/Graphics/SVG/1.1/DTD/svg11.dtd">
<!-- Generated by graphviz version 13.0.0 (20250608.1624)
 -->
<!-- Title: G Pages: 1 -->
<svg width="764pt" height="534pt"
 viewBox="0.00 0.00 764.00 534.00" xmlns="http://www.w3.org/2000/svg" xmlns:xlink="http://www.w3.org/1999/xlink">
<g id="graph0" class="graph" transform="scale(1 1) rotate(0) translate(4 530.25)">
<title>G</title>
<g id="clust1" class="cluster">
<title>cluster_testing</title>
<path fill="none" stroke="#ff9800" stroke-width="2" stroke-dasharray="5,2" d="M40,-443.25C40,-443.25 229,-443.25 229,-443.25 235,-443.25 241,-449.25 241,-455.25 241,-455.25 241,-506.25 241,-506.25 241,-512.25 235,-518.25 229,-518.25 229,-518.25 40,-518.25 40,-518.25 34,-518.25 28,-512.25 28,-506.25 28,-506.25 28,-455.25 28,-455.25 28,-449.25 34,-443.25 40,-443.25"/>
<text xml:space="preserve" text-anchor="middle" x="134.5" y="-500.95" font-family="Helvetica,sans-Serif" font-size="14.00" fill="Salmon">XCTest Suite (Independent Host)</text>
</g>
<g id="clust2" class="cluster">
<title>cluster_inputs</title>
<path fill="none" stroke="magenta" stroke-width="2.5" stroke-dasharray="1,5" d="M397,-330.5C397,-330.5 663,-330.5 663,-330.5 669,-330.5 675,-336.5 675,-342.5 675,-342.5 675,-402.75 675,-402.75 675,-408.75 669,-414.75 663,-414.75 663,-414.75 397,-414.75 397,-414.75 391,-414.75 385,-408.75 385,-402.75 385,-402.75 385,-342.5 385,-342.5 385,-336.5 391,-330.5 397,-330.5"/>
<text xml:space="preserve" text-anchor="middle" x="530" y="-397.45" font-family="Helvetica,sans-Serif" font-size="14.00" fill="Salmon">Input and Recognition</text>
</g>
<g id="clust3" class="cluster">
<title>cluster_analysis</title>
<path fill="none" stroke="#b3e5fc" stroke-width="2.5" d="M487,-8C487,-8 663,-8 663,-8 669,-8 675,-14 675,-20 675,-20 675,-299.5 675,-299.5 675,-305.5 669,-311.5 663,-311.5 663,-311.5 487,-311.5 487,-311.5 481,-311.5 475,-305.5 475,-299.5 475,-299.5 475,-20 475,-20 475,-14 481,-8 487,-8"/>
<text xml:space="preserve" text-anchor="middle" x="575" y="-294.2" font-family="Helvetica,sans-Serif" font-size="14.00" fill="Salmon">Internal NLP and Core Logic</text>
</g>
<g id="clust4" class="cluster">
<title>cluster_frameworks</title>
<path fill="none" stroke="#9090c0" stroke-width="2.5" d="M32,-335.13C32,-335.13 328,-335.13 328,-335.13 334,-335.13 340,-341.13 340,-347.13 340,-347.13 340,-398.13 340,-398.13 340,-404.13 334,-410.13 328,-410.13 328,-410.13 32,-410.13 32,-410.13 26,-410.13 20,-404.13 20,-398.13 20,-398.13 20,-347.13 20,-347.13 20,-341.13 26,-335.13 32,-335.13"/>
<text xml:space="preserve" text-anchor="middle" x="180" y="-392.83" font-family="Helvetica,sans-Serif" font-size="14.00" fill="Salmon">Apple Frameworks</text>
</g>
<!-- UnitTests -->
<g id="node1" class="node">
<title>UnitTests</title>
<path fill="#fff3e0" stroke="black" d="M139.75,-487.25C139.75,-487.25 56.25,-487.25 56.25,-487.25 50.25,-487.25 44.25,-481.25 44.25,-475.25 44.25,-475.25 44.25,-463.25 44.25,-463.25 44.25,-457.25 50.25,-451.25 56.25,-451.25 56.25,-451.25 139.75,-451.25 139.75,-451.25 145.75,-451.25 151.75,-457.25 151.75,-463.25 151.75,-463.25 151.75,-475.25 151.75,-475.25 151.75,-481.25 145.75,-487.25 139.75,-487.25"/>
<text xml:space="preserve" text-anchor="start" x="52.25" y="-468.95" font-family="Helvetica,sans-Serif" font-size="14.00" fill="#111111">XCTest Runner</text>
<text xml:space="preserve" text-anchor="start" x="57.5" y="-458.75" font-family="Helvetica,sans-Serif" font-size="10.00" fill="#111111">(Logic Verification)</text>
</g>
<!-- Alignment -->
<g id="node6" class="node">
<title>Alignment</title>
<path fill="#e1f5fe" stroke="black" d="M624.25,-125C624.25,-125 525.75,-125 525.75,-125 519.75,-125 513.75,-119 513.75,-113 513.75,-113 513.75,-101 513.75,-101 513.75,-95 519.75,-89 525.75,-89 525.75,-89 624.25,-89 624.25,-89 630.25,-89 636.25,-95 636.25,-101 636.25,-101 636.25,-113 636.25,-113 636.25,-119 630.25,-125 624.25,-125"/>
<text xml:space="preserve" text-anchor="start" x="521.75" y="-106.7" font-family="Helvetica,sans-Serif" font-size="14.00" fill="#111111">Alignment Engine</text>
<text xml:space="preserve" text-anchor="start" x="532.62" y="-96.5" font-family="Helvetica,sans-Serif" font-size="10.00" fill="#111111">(Levenshtein Logic)</text>
</g>
<!-- UnitTests&#45;&gt;Alignment -->
<g id="edge6" class="edge">
<title>UnitTests&#45;&gt;Alignment</title>
<path fill="none" stroke="#ff9800" stroke-width="1.5" stroke-dasharray="5,2" d="M60.2,-450.97C44.55,-442.12 27.43,-429.98 16,-414.75 1.32,-395.2 0,-386.57 0,-362.13 0,-362.13 0,-362.13 0,-179 0,-129.05 346.13,-113.87 501.29,-109.57"/>
<polygon fill="#ff9800" stroke="#ff9800" stroke-width="1.5" points="501.29,-113.08 511.2,-109.31 501.11,-106.08 501.29,-113.08"/>
<text xml:space="preserve" text-anchor="middle" x="28.12" y="-258.25" font-family="Times,serif" font-size="10.00" fill="Grey">Verifies Logic</text>
</g>
<!-- AVF -->
<g id="node8" class="node">
<title>AVF</title>
<path fill="#e1e1fb" stroke="black" d="M155.88,-379.13C155.88,-379.13 40.12,-379.13 40.12,-379.13 34.12,-379.13 28.12,-373.13 28.12,-367.13 28.12,-367.13 28.12,-355.13 28.12,-355.13 28.12,-349.13 34.12,-343.13 40.12,-343.13 40.12,-343.13 155.88,-343.13 155.88,-343.13 161.88,-343.13 167.88,-349.13 167.88,-355.13 167.88,-355.13 167.88,-367.13 167.88,-367.13 167.88,-373.13 161.88,-379.13 155.88,-379.13"/>
<text xml:space="preserve" text-anchor="start" x="36.12" y="-355.33" font-family="Helvetica,sans-Serif" font-size="14.00" fill="#111111">AVFoundation (TTS)</text>
</g>
<!-- UnitTests&#45;&gt;AVF -->
<g id="edge7" class="edge">
<title>UnitTests&#45;&gt;AVF</title>
<path fill="none" stroke="#ff9800" stroke-width="1.5" stroke-dasharray="5,2" d="M98,-451.2C98,-435.13 98,-410.71 98,-391.5"/>
<polygon fill="#ff9800" stroke="#ff9800" stroke-width="1.5" points="101.5,-391.76 98,-381.76 94.5,-391.76 101.5,-391.76"/>
<text xml:space="preserve" text-anchor="middle" x="122.75" y="-423.75" font-family="Times,serif" font-size="10.00" fill="Grey">Verifies TTS</text>
</g>
<!-- Speech -->
<g id="node9" class="node">
<title>Speech</title>
<path fill="#e1e1fb" stroke="black" d="M319.88,-379.13C319.88,-379.13 198.12,-379.13 198.12,-379.13 192.12,-379.13 186.12,-373.13 186.12,-367.13 186.12,-367.13 186.12,-355.13 186.12,-355.13 186.12,-349.13 192.12,-343.13 198.12,-343.13 198.12,-343.13 319.88,-343.13 319.88,-343.13 325.88,-343.13 331.88,-349.13 331.88,-355.13 331.88,-355.13 331.88,-367.13 331.88,-367.13 331.88,-373.13 325.88,-379.13 319.88,-379.13"/>
<text xml:space="preserve" text-anchor="start" x="194.12" y="-355.33" font-family="Helvetica,sans-Serif" font-size="14.00" fill="#111111">Speech (Recognition)</text>
</g>
<!-- UnitTests&#45;&gt;Speech -->
<g id="edge8" class="edge">
<title>UnitTests&#45;&gt;Speech</title>
<path fill="none" stroke="#ff9800" stroke-width="1.5" stroke-dasharray="5,2" d="M124.96,-450.87C133.61,-445.27 143.22,-439.02 152,-433.25 175.77,-417.65 202.4,-399.95 223.14,-386.11"/>
<polygon fill="#ff9800" stroke="#ff9800" stroke-width="1.5" points="224.85,-389.18 231.22,-380.72 220.96,-383.36 224.85,-389.18"/>
<text xml:space="preserve" text-anchor="middle" x="195.85" y="-423.75" font-family="Times,serif" font-size="10.00" fill="Grey">Verifies Recog</text>
</g>
<!-- Keyboard -->
<g id="node2" class="node">
<title>Keyboard</title>
<path fill="#d1ffd1" stroke="black" d="M655,-379.13C655,-379.13 573,-379.13 573,-379.13 567,-379.13 561,-373.13 561,-367.13 561,-367.13 561,-355.13 561,-355.13 561,-349.13 567,-343.13 573,-343.13 573,-343.13 655,-343.13 655,-343.13 661,-343.13 667,-349.13 667,-355.13 667,-355.13 667,-367.13 667,-367.13 667,-373.13 661,-379.13 655,-379.13"/>
<text xml:space="preserve" text-anchor="start" x="569" y="-360.83" font-family="Helvetica,sans-Serif" font-size="14.00" fill="#111111">Keyboard / CLI</text>
<text xml:space="preserve" text-anchor="start" x="584.75" y="-350.63" font-family="Helvetica,sans-Serif" font-size="10.00" fill="#111111">(Direct Entry)</text>
</g>
<!-- Normalization -->
<g id="node4" class="node">
<title>Normalization</title>
<path fill="#e1f5fe" stroke="black" d="M655,-280.5C655,-280.5 495,-280.5 495,-280.5 489,-280.5 483,-274.5 483,-268.5 483,-268.5 483,-256.5 483,-256.5 483,-250.5 489,-244.5 495,-244.5 495,-244.5 655,-244.5 655,-244.5 661,-244.5 667,-250.5 667,-256.5 667,-256.5 667,-268.5 667,-268.5 667,-274.5 661,-280.5 655,-280.5"/>
<text xml:space="preserve" text-anchor="start" x="491" y="-262.2" font-family="Helvetica,sans-Serif" font-size="14.00" fill="#111111">Custom NLP: Normalization</text>
<text xml:space="preserve" text-anchor="start" x="536.75" y="-252" font-family="Helvetica,sans-Serif" font-size="10.00" fill="#111111">(Lower + ß → ss)</text>
</g>
<!-- Keyboard&#45;&gt;Normalization -->
<g id="edge1" class="edge">
<title>Keyboard&#45;&gt;Normalization</title>
<path fill="none" stroke="green" stroke-width="1.5" d="M607.03,-342.85C601.35,-328.79 593.22,-308.63 586.57,-292.16"/>
<polygon fill="green" stroke="green" stroke-width="1.5" points="589.88,-291.02 582.89,-283.06 583.39,-293.64 589.88,-291.02"/>
</g>
<!-- Dictation -->
<g id="node3" class="node">
<title>Dictation</title>
<ellipse fill="#ffe4f2" stroke="black" cx="468" cy="-361.13" rx="75.48" ry="22.63"/>
<text xml:space="preserve" text-anchor="start" x="422.62" y="-360.83" font-family="Helvetica,sans-Serif" font-size="14.00" fill="#111111">Speech&#45;to&#45;Text</text>
<text xml:space="preserve" text-anchor="start" x="442.5" y="-350.63" font-family="Helvetica,sans-Serif" font-size="10.00" fill="#111111">(Live Audio)</text>
</g>
<!-- Dictation&#45;&gt;Normalization -->
<g id="edge2" class="edge">
<title>Dictation&#45;&gt;Normalization</title>
<path fill="none" stroke="green" stroke-width="1.5" d="M491.22,-339.16C507.5,-324.46 529.37,-304.71 546.68,-289.08"/>
<polygon fill="green" stroke="green" stroke-width="1.5" points="549,-291.7 554.08,-282.4 544.31,-286.5 549,-291.7"/>
</g>
<!-- Expansion -->
<g id="node5" class="node">
<title>Expansion</title>
<path fill="#e1f5fe" stroke="black" d="M644.88,-198C644.88,-198 505.12,-198 505.12,-198 499.12,-198 493.12,-192 493.12,-186 493.12,-186 493.12,-174 493.12,-174 493.12,-168 499.12,-162 505.12,-162 505.12,-162 644.88,-162 644.88,-162 650.88,-162 656.88,-168 656.88,-174 656.88,-174 656.88,-186 656.88,-186 656.88,-192 650.88,-198 644.88,-198"/>
<text xml:space="preserve" text-anchor="start" x="501.12" y="-179.7" font-family="Helvetica,sans-Serif" font-size="14.00" fill="#111111">Custom NLP: Expansion</text>
<text xml:space="preserve" text-anchor="start" x="520.62" y="-169.5" font-family="Helvetica,sans-Serif" font-size="10.00" fill="#111111">(Contractions + Anchors)</text>
</g>
<!-- Normalization&#45;&gt;Expansion -->
<g id="edge3" class="edge">
<title>Normalization&#45;&gt;Expansion</title>
<path fill="none" stroke="green" stroke-width="1.5" d="M575,-244.03C575,-234.22 575,-221.72 575,-210.44"/>
<polygon fill="green" stroke="green" stroke-width="1.5" points="578.5,-210.7 575,-200.7 571.5,-210.7 578.5,-210.7"/>
</g>
<!-- Expansion&#45;&gt;Alignment -->
<g id="edge4" class="edge">
<title>Expansion&#45;&gt;Alignment</title>
<path fill="none" stroke="green" stroke-width="1.5" d="M575,-161.81C575,-154.4 575,-145.52 575,-137.13"/>
<polygon fill="green" stroke="green" stroke-width="1.5" points="578.5,-137.3 575,-127.3 571.5,-137.3 578.5,-137.3"/>
</g>
<!-- WordStats -->
<g id="node7" class="node">
<title>WordStats</title>
<path fill="#e1f5fe" stroke="black" d="M638.75,-52C638.75,-52 543.25,-52 543.25,-52 537.25,-52 531.25,-46 531.25,-40 531.25,-40 531.25,-28 531.25,-28 531.25,-22 537.25,-16 543.25,-16 543.25,-16 638.75,-16 638.75,-16 644.75,-16 650.75,-22 650.75,-28 650.75,-28 650.75,-40 650.75,-40 650.75,-46 644.75,-52 638.75,-52"/>
<text xml:space="preserve" text-anchor="start" x="539.25" y="-28.2" font-family="Helvetica,sans-Serif" font-size="14.00" fill="#111111">Word&#45;Level Stats</text>
</g>
<!-- Alignment&#45;&gt;WordStats -->
<g id="edge5" class="edge">
<title>Alignment&#45;&gt;WordStats</title>
<path fill="none" stroke="green" stroke-width="1.5" d="M578.87,-88.81C580.56,-81.31 582.59,-72.31 584.5,-63.83"/>
<polygon fill="green" stroke="green" stroke-width="1.5" points="587.88,-64.77 586.66,-54.24 581.05,-63.23 587.88,-64.77"/>
</g>
<!-- APP -->
<g id="node10" class="node">
<title>APP</title>
<path fill="#ffffcc" stroke="black" d="M415.38,-483.98C415.38,-485.79 387.42,-487.25 353,-487.25 318.58,-487.25 290.62,-485.79 290.62,-483.98 290.62,-483.98 290.62,-454.53 290.62,-454.53 290.62,-452.72 318.58,-451.25 353,-451.25 387.42,-451.25 415.38,-452.72 415.38,-454.53 415.38,-454.53 415.38,-483.98 415.38,-483.98"/>
<path fill="none" stroke="black" d="M415.38,-483.98C415.38,-482.18 387.42,-480.71 353,-480.71 318.58,-480.71 290.62,-482.18 290.62,-483.98"/>
<text xml:space="preserve" text-anchor="start" x="298.62" y="-464.45" font-family="Helvetica,sans-Serif" font-weight="bold" font-size="14.00" fill="#111111">Main Application</text>
</g>
<!-- WordStats&#45;&gt;APP -->
<g id="edge9" class="edge">
<title>WordStats&#45;&gt;APP</title>
<path fill="none" stroke="green" stroke-width="1.5" d="M649.69,-52.44C673.28,-63.39 695,-80.42 695,-106 695,-362.13 695,-362.13 695,-362.13 695,-386.57 697.24,-398.48 679,-414.75 642.85,-447.01 512.44,-459.99 427.92,-465.09"/>
<polygon fill="green" stroke="green" stroke-width="1.5" points="427.85,-461.59 418.07,-465.66 428.25,-468.58 427.85,-461.59"/>
<text xml:space="preserve" text-anchor="middle" x="725.38" y="-217" font-family="Times,serif" font-size="10.00" fill="Grey">Render Output</text>
</g>
<!-- Speech&#45;&gt;Dictation -->
<g id="edge12" class="edge">
<title>Speech&#45;&gt;Dictation</title>
<path fill="none" stroke="green" stroke-width="1.5" d="M332.1,-361.13C347.58,-361.13 364.07,-361.13 380.03,-361.13"/>
<polygon fill="green" stroke="green" stroke-width="1.5" points="379.84,-364.63 389.84,-361.13 379.84,-357.63 379.84,-364.63"/>
<text xml:space="preserve" text-anchor="middle" x="362.2" y="-365.13" font-family="Times,serif" font-size="10.00" fill="Grey">Transcribe</text>
</g>
<!-- APP&#45;&gt;Keyboard -->
<g id="edge10" class="edge">
<title>APP&#45;&gt;Keyboard</title>
<path fill="none" stroke="green" stroke-width="1.5" d="M415.68,-458.74C456.23,-450.85 509.23,-437.2 552,-414.75 565.34,-407.75 578.34,-397.44 588.96,-387.8"/>
<polygon fill="green" stroke="green" stroke-width="1.5" points="591.12,-390.57 595.97,-381.15 586.3,-385.49 591.12,-390.57"/>
<text xml:space="preserve" text-anchor="middle" x="552.91" y="-423.75" font-family="Times,serif" font-size="10.00" fill="Grey">Read Line</text>
</g>
<!-- APP&#45;&gt;AVF -->
<g id="edge13" class="edge">
<title>APP&#45;&gt;AVF</title>
<path fill="none" stroke="green" stroke-width="1.5" d="M312.6,-451.11C288.67,-441.54 257.53,-430.11 229,-422.75 206.36,-416.92 198.8,-423.21 177,-414.75 159.69,-408.04 142.32,-397.04 128.29,-386.83"/>
<polygon fill="green" stroke="green" stroke-width="1.5" points="130.62,-384.2 120.53,-380.98 126.4,-389.79 130.62,-384.2"/>
<text xml:space="preserve" text-anchor="middle" x="276.1" y="-423.75" font-family="Times,serif" font-size="10.00" fill="Grey">Speak</text>
</g>
<!-- APP&#45;&gt;Speech -->
<g id="edge11" class="edge">
<title>APP&#45;&gt;Speech</title>
<path fill="none" stroke="green" stroke-width="1.5" d="M342.32,-450.79C336.68,-442.06 329.4,-431.52 322,-422.75 311.67,-410.52 299.16,-398.08 288.02,-387.68"/>
<polygon fill="green" stroke="green" stroke-width="1.5" points="290.47,-385.17 280.73,-381 285.74,-390.34 290.47,-385.17"/>
<text xml:space="preserve" text-anchor="middle" x="353.1" y="-423.75" font-family="Times,serif" font-size="10.00" fill="Grey">Start Recog</text>
</g>
</g>
</svg>
