<?xml version="1.0" encoding="UTF-8" standalone="no"?>
<!DOCTYPE svg PUBLIC "-//W3C//DTD SVG 1.1//EN"
 "http://www.w3.org/Graphics/SVG/1.1/DTD/svg11.dtd">
<!-- Generated by graphviz version 13.0.0 (20250608.1624)
 -->
<!-- Title: G Pages: 1 -->
<svg width="1463pt" height="699pt"
 viewBox="0.00 0.00 1463.00 699.00" xmlns="http://www.w3.org/2000/svg" xmlns:xlink="http://www.w3.org/1999/xlink">
<g id="graph0" class="graph" transform="scale(1 1) rotate(0) translate(4 695.4)">
<title>G</title>
<text xml:space="preserve" text-anchor="start" x="481.12" y="-667.5" font-family="Helvetica,sans-Serif" font-weight="bold" font-size="22.00" fill="#f33333">LangQuiz: Unified Headless Architecture (2026)</text>
<g id="clust1" class="cluster">
<title>cluster_deployment</title>
<path fill="#f8f9fa" stroke="#607d8b" stroke-width="3" d="M409,-554.25C409,-554.25 1017,-554.25 1017,-554.25 1023,-554.25 1029,-560.25 1029,-566.25 1029,-566.25 1029,-640.9 1029,-640.9 1029,-646.9 1023,-652.9 1017,-652.9 1017,-652.9 409,-652.9 409,-652.9 403,-652.9 397,-646.9 397,-640.9 397,-640.9 397,-566.25 397,-566.25 397,-560.25 403,-554.25 409,-554.25"/>
<text xml:space="preserve" text-anchor="middle" x="713" y="-635.6" font-family="Helvetica,sans-Serif" font-size="14.00" fill="#999999">Deployment and Environment</text>
</g>
<g id="clust2" class="cluster">
<title>cluster_user</title>
<path fill="#f1f8e9" stroke="#4caf50" stroke-width="3" stroke-dasharray="5,2" d="M225,-412C225,-412 1104,-412 1104,-412 1110,-412 1116,-418 1116,-424 1116,-424 1116,-515 1116,-515 1116,-521 1110,-527 1104,-527 1104,-527 225,-527 225,-527 219,-527 213,-521 213,-515 213,-515 213,-424 213,-424 213,-418 219,-412 225,-412"/>
<text xml:space="preserve" text-anchor="middle" x="664.5" y="-509.7" font-family="Helvetica,sans-Serif" font-size="14.00" fill="#999999">User Interaction</text>
</g>
<g id="clust3" class="cluster">
<title>cluster_state</title>
<path fill="#fdf0ff" stroke="magenta" stroke-width="3" stroke-dasharray="1,5" d="M262,-88.25C262,-88.25 797,-88.25 797,-88.25 803,-88.25 809,-94.25 809,-100.25 809,-100.25 809,-153.25 809,-153.25 809,-159.25 803,-165.25 797,-165.25 797,-165.25 262,-165.25 262,-165.25 256,-165.25 250,-159.25 250,-153.25 250,-153.25 250,-100.25 250,-100.25 250,-94.25 256,-88.25 262,-88.25"/>
<text xml:space="preserve" text-anchor="middle" x="529.5" y="-147.95" font-family="Helvetica,sans-Serif" font-size="14.00" fill="#999999">Input State and UI Management</text>
</g>
<g id="clust4" class="cluster">
<title>cluster_analysis</title>
<path fill="#e1f5fe" stroke="#b3e5fc" stroke-width="3" d="M20,-8C20,-8 218,-8 218,-8 224,-8 230,-14 230,-20 230,-20 230,-342.75 230,-342.75 230,-348.75 224,-354.75 218,-354.75 218,-354.75 20,-354.75 20,-354.75 14,-354.75 8,-348.75 8,-342.75 8,-342.75 8,-20 8,-20 8,-14 14,-8 20,-8"/>
<text xml:space="preserve" text-anchor="middle" x="119" y="-337.45" font-family="Helvetica,sans-Serif" font-size="14.00" fill="#999999">Linguistic Engine and NLP</text>
</g>
<g id="clust5" class="cluster">
<title>cluster_frameworks</title>
<path fill="#f5f5fa" stroke="#9090c0" stroke-width="3" d="M733,-192.5C733,-192.5 1435,-192.5 1435,-192.5 1441,-192.5 1447,-198.5 1447,-204.5 1447,-204.5 1447,-372.75 1447,-372.75 1447,-378.75 1441,-384.75 1435,-384.75 1435,-384.75 733,-384.75 733,-384.75 727,-384.75 721,-378.75 721,-372.75 721,-372.75 721,-204.5 721,-204.5 721,-198.5 727,-192.5 733,-192.5"/>
<text xml:space="preserve" text-anchor="middle" x="1084" y="-367.45" font-family="Helvetica,sans-Serif" font-size="14.00" fill="#999999">Apple Frameworks and AI</text>
</g>
<g id="clust6" class="cluster">
<title>cluster_av_internal</title>
<path fill="#ffffff" stroke="#777777" stroke-width="3" stroke-dasharray="1,5" d="M911,-200.5C911,-200.5 1071,-200.5 1071,-200.5 1077,-200.5 1083,-206.5 1083,-212.5 1083,-212.5 1083,-341.75 1083,-341.75 1083,-347.75 1077,-353.75 1071,-353.75 1071,-353.75 911,-353.75 911,-353.75 905,-353.75 899,-347.75 899,-341.75 899,-341.75 899,-212.5 899,-212.5 899,-206.5 905,-200.5 911,-200.5"/>
<text xml:space="preserve" text-anchor="middle" x="991" y="-336.45" font-family="Helvetica,sans-Serif" font-size="14.00" fill="#999999">AVFoundation Engine</text>
</g>
<!-- Launcher -->
<g id="node1" class="node">
<title>Launcher</title>
<polygon fill="#eceff1" stroke="black" points="781.12,-611.07 612.88,-611.07 612.88,-607.07 608.88,-607.07 608.88,-603.07 612.88,-603.07 612.88,-581.07 608.88,-581.07 608.88,-577.07 612.88,-577.07 612.88,-573.07 781.12,-573.07 781.12,-611.07"/>
<polyline fill="none" stroke="black" points="612.88,-607.07 616.88,-607.07 616.88,-603.07 612.88,-603.07"/>
<polyline fill="none" stroke="black" points="612.88,-581.07 616.88,-581.07 616.88,-577.07 612.88,-577.07"/>
<text xml:space="preserve" text-anchor="middle" x="697" y="-593.77" font-family="Helvetica,sans-Serif" font-size="14.00" fill="#111111">launcher.sh</text>
<text xml:space="preserve" text-anchor="middle" x="697" y="-578.77" font-family="Helvetica,sans-Serif" font-size="14.00" fill="#111111">(AppleScript TTY Spawn)</text>
</g>
<!-- Keyboard -->
<g id="node4" class="node">
<title>Keyboard</title>
<path fill="#ffffff" stroke="black" d="M649,-496C649,-496 459.84,-496 459.84,-496 453.84,-496 444.33,-491.13 440.81,-486.27 440.81,-486.27 400.02,-429.73 400.02,-429.73 396.51,-424.87 399,-420 405,-420 405,-420 594.16,-420 594.16,-420 600.16,-420 609.67,-424.87 613.19,-429.73 613.19,-429.73 653.98,-486.27 653.98,-486.27 657.49,-491.13 655,-496 649,-496"/>
<text xml:space="preserve" text-anchor="middle" x="527" y="-459.7" font-family="Helvetica,sans-Serif" font-size="14.00" fill="#111111">Keyboard</text>
<text xml:space="preserve" text-anchor="middle" x="527" y="-444.7" font-family="Helvetica,sans-Serif" font-size="14.00" fill="#111111">(Nav: Ctrl&#45;B/E/V/X)</text>
</g>
<!-- Launcher&#45;&gt;Keyboard -->
<!-- APP -->
<g id="node21" class="node">
<title>APP</title>
<path fill="#ffffcc" stroke="black" stroke-width="3" d="M1260.25,-479.38C1260.25,-482 1234.14,-484.12 1202,-484.12 1169.86,-484.12 1143.75,-482 1143.75,-479.38 1143.75,-479.38 1143.75,-436.62 1143.75,-436.62 1143.75,-434 1169.86,-431.88 1202,-431.88 1234.14,-431.88 1260.25,-434 1260.25,-436.62 1260.25,-436.62 1260.25,-479.38 1260.25,-479.38"/>
<path fill="none" stroke="black" stroke-width="3" d="M1260.25,-479.38C1260.25,-476.75 1234.14,-474.62 1202,-474.62 1169.86,-474.62 1143.75,-476.75 1143.75,-479.38"/>
<text xml:space="preserve" text-anchor="middle" x="1202" y="-459.7" font-family="Helvetica,sans-Serif" font-size="14.00" fill="#111111">Main Application</text>
<text xml:space="preserve" text-anchor="middle" x="1202" y="-444.7" font-family="Helvetica,sans-Serif" font-size="14.00" fill="#111111">(ios/cli/headless)</text>
</g>
<!-- Launcher&#45;&gt;APP -->
<g id="edge3" class="edge">
<title>Launcher&#45;&gt;APP</title>
<path fill="none" stroke="#888888" stroke-width="1.5" d="M740.72,-572.6C758.51,-565.8 779.45,-558.68 799,-554.25 883.18,-535.17 906.21,-541.88 992.25,-535 1021.71,-532.65 1097.69,-538.29 1125,-527 1142.54,-519.75 1158.81,-506.78 1171.83,-494.09"/>
<polygon fill="#888888" stroke="#888888" stroke-width="1.5" points="1174.22,-496.64 1178.71,-487.05 1169.22,-491.75 1174.22,-496.64"/>
<text xml:space="preserve" text-anchor="middle" x="1043.62" y="-536.75" font-family="Helvetica,sans-Serif" font-size="10.00" fill="#999999">APP_LAUNCH_MODE</text>
</g>
<!-- AppBundle -->
<g id="node2" class="node">
<title>AppBundle</title>
<polygon fill="#eceff1" stroke="black" points="576.62,-611.07 573.62,-615.07 552.62,-615.07 549.62,-611.07 405.38,-611.07 405.38,-573.07 576.62,-573.07 576.62,-611.07"/>
<text xml:space="preserve" text-anchor="middle" x="491" y="-593.77" font-family="Helvetica,sans-Serif" font-size="14.00" fill="#111111">LangQuiz.app</text>
<text xml:space="preserve" text-anchor="middle" x="491" y="-578.77" font-family="Helvetica,sans-Serif" font-size="14.00" fill="#111111">(Bundle&#45;based Discovery)</text>
</g>
<!-- FileDataManager -->
<g id="node12" class="node">
<title>FileDataManager</title>
<path fill="#fff9c4" stroke="black" d="M194.62,-323.75C194.62,-323.75 89.38,-323.75 89.38,-323.75 83.38,-323.75 77.38,-317.75 77.38,-311.75 77.38,-311.75 77.38,-297.75 77.38,-297.75 77.38,-291.75 83.38,-285.75 89.38,-285.75 89.38,-285.75 194.62,-285.75 194.62,-285.75 200.62,-285.75 206.62,-291.75 206.62,-297.75 206.62,-297.75 206.62,-311.75 206.62,-311.75 206.62,-317.75 200.62,-323.75 194.62,-323.75"/>
<text xml:space="preserve" text-anchor="middle" x="142" y="-306.45" font-family="Helvetica,sans-Serif" font-size="14.00" fill="#111111">FileDataManager</text>
<text xml:space="preserve" text-anchor="middle" x="142" y="-291.45" font-family="Helvetica,sans-Serif" font-size="14.00" fill="#111111">(Error Persistence)</text>
</g>
<!-- AppBundle&#45;&gt;FileDataManager -->
<g id="edge4" class="edge">
<title>AppBundle&#45;&gt;FileDataManager</title>
<path fill="none" stroke="#888888" stroke-width="1.5" d="M405.07,-589.24C303.46,-585.04 143.34,-571.36 105.75,-527 59.14,-472 98.96,-380.76 124.53,-334.52"/>
<polygon fill="#888888" stroke="#888888" stroke-width="1.5" points="127.47,-336.43 129.39,-326.01 121.39,-332.96 127.47,-336.43"/>
<text xml:space="preserve" text-anchor="middle" x="154.88" y="-454.12" font-family="Helvetica,sans-Serif" font-size="10.00" fill="#999999">Bundle Resource Path</text>
</g>
<!-- Entitlements -->
<g id="node3" class="node">
<title>Entitlements</title>
<path fill="#eceff1" stroke="black" d="M1014.29,-593.85C1014.29,-593.85 1007.56,-602.26 1007.56,-602.26 1004.19,-606.46 995.48,-611.4 990.14,-612.13 990.14,-612.13 929.68,-620.43 929.68,-620.43 924.34,-621.16 913.66,-621.16 908.32,-620.43 908.32,-620.43 847.86,-612.13 847.86,-612.13 842.52,-611.4 833.81,-606.46 830.44,-602.26 830.44,-602.26 823.71,-593.85 823.71,-593.85 820.34,-589.64 822.05,-583.62 827.12,-581.81 827.12,-581.81 863.45,-568.83 863.45,-568.83 868.52,-567.02 878.98,-565.2 884.37,-565.2 884.37,-565.2 953.63,-565.2 953.63,-565.2 959.02,-565.2 969.48,-567.02 974.55,-568.83 974.55,-568.83 1010.88,-581.81 1010.88,-581.81 1015.95,-583.62 1017.66,-589.64 1014.29,-593.85"/>
<text xml:space="preserve" text-anchor="middle" x="919" y="-593.77" font-family="Helvetica,sans-Serif" font-size="14.00" fill="#111111">Hardened Runtime</text>
<text xml:space="preserve" text-anchor="middle" x="919" y="-578.77" font-family="Helvetica,sans-Serif" font-size="14.00" fill="#111111">(Code Signing)</text>
</g>
<!-- Entitlements&#45;&gt;APP -->
<g id="edge5" class="edge">
<title>Entitlements&#45;&gt;APP</title>
<path fill="none" stroke="#888888" stroke-width="1.5" d="M1005.01,-579.3C1037.32,-572.59 1073.56,-562.2 1104,-546.25 1129.14,-533.08 1153.03,-512.06 1170.92,-493.95"/>
<polygon fill="#888888" stroke="#888888" stroke-width="1.5" points="1173.22,-496.61 1177.63,-486.98 1168.18,-491.76 1173.22,-496.61"/>
<text xml:space="preserve" text-anchor="middle" x="1161.3" y="-536.75" font-family="Helvetica,sans-Serif" font-size="10.00" fill="#999999">TCC Permissions</text>
</g>
<!-- MMController -->
<g id="node8" class="node">
<title>MMController</title>
<path fill="#ffdaff" stroke="black" stroke-width="2" d="M541.5,-322.75C541.5,-322.75 450.5,-322.75 450.5,-322.75 444.5,-322.75 438.5,-316.75 438.5,-310.75 438.5,-310.75 438.5,-298.75 438.5,-298.75 438.5,-292.75 444.5,-286.75 450.5,-286.75 450.5,-286.75 541.5,-286.75 541.5,-286.75 547.5,-286.75 553.5,-292.75 553.5,-298.75 553.5,-298.75 553.5,-310.75 553.5,-310.75 553.5,-316.75 547.5,-322.75 541.5,-322.75"/>
<text xml:space="preserve" text-anchor="start" x="451.75" y="-304.45" font-family="Helvetica,sans-Serif" font-weight="bold" font-size="14.00" fill="#111111">MMController</text>
<text xml:space="preserve" text-anchor="start" x="446.5" y="-294.25" font-family="Helvetica,sans-Serif" font-size="10.00" fill="#111111">Raw TTY Orchestrator</text>
</g>
<!-- Keyboard&#45;&gt;MMController -->
<g id="edge7" class="edge">
<title>Keyboard&#45;&gt;MMController</title>
<path fill="none" stroke="#4caf50" stroke-width="1.5" d="M480.85,-419.57C477.1,-414.72 473.86,-409.51 471.5,-404 461.91,-381.57 469.91,-354.59 479.26,-334.58"/>
<polygon fill="#4caf50" stroke="#4caf50" stroke-width="1.5" points="482.35,-336.22 483.76,-325.72 476.11,-333.05 482.35,-336.22"/>
<text xml:space="preserve" text-anchor="middle" x="503.75" y="-394.5" font-family="Helvetica,sans-Serif" font-size="10.00" fill="#999999">termios events</text>
</g>
<!-- Keyboard&#45;&gt;MMController -->
<!-- Microphone -->
<g id="node5" class="node">
<title>Microphone</title>
<ellipse fill="#ffffff" stroke="black" cx="771" cy="-458" rx="73.89" ry="26.87"/>
<text xml:space="preserve" text-anchor="middle" x="771" y="-459.7" font-family="Helvetica,sans-Serif" font-size="14.00" fill="#111111">Microphone</text>
<text xml:space="preserve" text-anchor="middle" x="771" y="-444.7" font-family="Helvetica,sans-Serif" font-size="14.00" fill="#111111">(Speech Input)</text>
</g>
<!-- InputNode -->
<g id="node19" class="node">
<title>InputNode</title>
<path fill="#f5f5f5" stroke="black" d="M1042.62,-322.75C1042.62,-322.75 919.38,-322.75 919.38,-322.75 913.38,-322.75 907.38,-316.75 907.38,-310.75 907.38,-310.75 907.38,-298.75 907.38,-298.75 907.38,-292.75 913.38,-286.75 919.38,-286.75 919.38,-286.75 1042.62,-286.75 1042.62,-286.75 1048.62,-286.75 1054.62,-292.75 1054.62,-298.75 1054.62,-298.75 1054.62,-310.75 1054.62,-310.75 1054.62,-316.75 1048.62,-322.75 1042.62,-322.75"/>
<text xml:space="preserve" text-anchor="middle" x="981" y="-298.95" font-family="Helvetica,sans-Serif" font-size="14.00" fill="#111111">InputNode (PCM Tap)</text>
</g>
<!-- Microphone&#45;&gt;InputNode -->
<g id="edge8" class="edge">
<title>Microphone&#45;&gt;InputNode</title>
<path fill="none" stroke="#4caf50" stroke-width="1.5" d="M803.35,-433.7C842.3,-405.65 907.41,-358.75 947.05,-330.2"/>
<polygon fill="#4caf50" stroke="#4caf50" stroke-width="1.5" points="948.88,-333.19 954.95,-324.51 944.79,-327.51 948.88,-333.19"/>
</g>
<!-- Speaker -->
<g id="node6" class="node">
<title>Speaker</title>
<path fill="#ffffff" stroke="black" d="M939.71,-420C939.71,-420 1048.29,-420 1048.29,-420 1054.29,-420 1063.45,-425.1 1066.62,-430.19 1066.62,-430.19 1101.17,-485.81 1101.17,-485.81 1104.33,-490.9 1101.5,-496 1095.5,-496 1095.5,-496 892.5,-496 892.5,-496 886.5,-496 883.67,-490.9 886.83,-485.81 886.83,-485.81 921.38,-430.19 921.38,-430.19 924.55,-425.1 933.71,-420 939.71,-420"/>
<text xml:space="preserve" text-anchor="middle" x="994" y="-459.7" font-family="Helvetica,sans-Serif" font-size="14.00" fill="#111111">Speaker</text>
<text xml:space="preserve" text-anchor="middle" x="994" y="-444.7" font-family="Helvetica,sans-Serif" font-size="14.00" fill="#111111">(TTS Feedback)</text>
</g>
<!-- GUIPicker -->
<g id="node7" class="node">
<title>GUIPicker</title>
<polygon fill="#ffffff" stroke="black" points="357.38,-477 220.62,-477 220.62,-473 216.62,-473 216.62,-469 220.62,-469 220.62,-447 216.62,-447 216.62,-443 220.62,-443 220.62,-439 357.38,-439 357.38,-477"/>
<polyline fill="none" stroke="black" points="220.62,-473 224.62,-473 224.62,-469 220.62,-469"/>
<polyline fill="none" stroke="black" points="220.62,-447 224.62,-447 224.62,-443 220.62,-443"/>
<text xml:space="preserve" text-anchor="middle" x="289" y="-459.7" font-family="Helvetica,sans-Serif" font-size="14.00" fill="#111111">AppKit File Picker</text>
<text xml:space="preserve" text-anchor="middle" x="289" y="-444.7" font-family="Helvetica,sans-Serif" font-size="14.00" fill="#111111">(NSAlert/TableView)</text>
</g>
<!-- GUIPicker&#45;&gt;FileDataManager -->
<g id="edge6" class="edge">
<title>GUIPicker&#45;&gt;FileDataManager</title>
<path fill="none" stroke="#888888" stroke-width="1.5" d="M248.93,-438.59C232.53,-429.73 214.19,-417.98 200.25,-404 180.41,-384.09 164.68,-356.11 154.59,-335.09"/>
<polygon fill="#888888" stroke="#888888" stroke-width="1.5" points="157.9,-333.91 150.53,-326.29 151.54,-336.84 157.9,-333.91"/>
<text xml:space="preserve" text-anchor="middle" x="236.62" y="-394.5" font-family="Helvetica,sans-Serif" font-size="10.00" fill="#999999">Selected Indices</text>
</g>
<!-- Buffer -->
<g id="node9" class="node">
<title>Buffer</title>
<path fill="#ffffff" stroke="black" d="M612.25,-134.25C612.25,-134.25 477.75,-134.25 477.75,-134.25 471.75,-134.25 465.75,-128.25 465.75,-122.25 465.75,-122.25 465.75,-108.25 465.75,-108.25 465.75,-102.25 471.75,-96.25 477.75,-96.25 477.75,-96.25 612.25,-96.25 612.25,-96.25 618.25,-96.25 624.25,-102.25 624.25,-108.25 624.25,-108.25 624.25,-122.25 624.25,-122.25 624.25,-128.25 618.25,-134.25 612.25,-134.25"/>
<text xml:space="preserve" text-anchor="middle" x="545" y="-116.95" font-family="Helvetica,sans-Serif" font-size="14.00" fill="#111111">Synchronized Buffer</text>
<text xml:space="preserve" text-anchor="middle" x="545" y="-101.95" font-family="Helvetica,sans-Serif" font-size="14.00" fill="#111111">(Cursor and Arrow Nav)</text>
</g>
<!-- MMController&#45;&gt;Buffer -->
<g id="edge11" class="edge">
<title>MMController&#45;&gt;Buffer</title>
<path fill="none" stroke="#888888" stroke-width="1.5" d="M495.6,-286.03C495.55,-263.75 497,-224.55 506.25,-192.5 511.03,-175.95 519.43,-158.75 527.19,-144.88"/>
<polygon fill="#888888" stroke="#888888" stroke-width="1.5" points="530.06,-146.91 532.06,-136.51 524.01,-143.39 530.06,-146.91"/>
<text xml:space="preserve" text-anchor="middle" x="539.62" y="-222.62" font-family="Helvetica,sans-Serif" font-size="10.00" fill="#999999">Manage Cursor</text>
</g>
<!-- ModalUI -->
<g id="node10" class="node">
<title>ModalUI</title>
<path fill="#ffffff" stroke="black" d="M789.25,-134.25C789.25,-134.25 672.75,-134.25 672.75,-134.25 666.75,-134.25 660.75,-128.25 660.75,-122.25 660.75,-122.25 660.75,-108.25 660.75,-108.25 660.75,-102.25 666.75,-96.25 672.75,-96.25 672.75,-96.25 789.25,-96.25 789.25,-96.25 795.25,-96.25 801.25,-102.25 801.25,-108.25 801.25,-108.25 801.25,-122.25 801.25,-122.25 801.25,-128.25 795.25,-134.25 789.25,-134.25"/>
<text xml:space="preserve" text-anchor="middle" x="731" y="-116.95" font-family="Helvetica,sans-Serif" font-size="14.00" fill="#111111">showModalMessage</text>
<text xml:space="preserve" text-anchor="middle" x="731" y="-101.95" font-family="Helvetica,sans-Serif" font-size="14.00" fill="#111111">(ANSI Overlays)</text>
</g>
<!-- MMController&#45;&gt;ModalUI -->
<g id="edge12" class="edge">
<title>MMController&#45;&gt;ModalUI</title>
<path fill="none" stroke="#888888" stroke-width="1.5" d="M521.96,-285.96C538.33,-274.5 559.75,-259.08 578,-244.5 605.31,-222.68 610.31,-215.07 637,-192.5 657.17,-175.44 680.2,-156.75 698.42,-142.14"/>
<polygon fill="#888888" stroke="#888888" stroke-width="1.5" points="700.6,-144.88 706.22,-135.9 696.22,-139.41 700.6,-144.88"/>
<text xml:space="preserve" text-anchor="middle" x="674.5" y="-222.62" font-family="Helvetica,sans-Serif" font-size="10.00" fill="#999999">Display Help/Diff</text>
</g>
<!-- UUIDGuard -->
<g id="node11" class="node">
<title>UUIDGuard</title>
<path fill="#ffffff" stroke="black" d="M418,-134.25C418,-134.25 270,-134.25 270,-134.25 264,-134.25 258,-128.25 258,-122.25 258,-122.25 258,-108.25 258,-108.25 258,-102.25 264,-96.25 270,-96.25 270,-96.25 418,-96.25 418,-96.25 424,-96.25 430,-102.25 430,-108.25 430,-108.25 430,-122.25 430,-122.25 430,-128.25 424,-134.25 418,-134.25"/>
<text xml:space="preserve" text-anchor="middle" x="344" y="-116.95" font-family="Helvetica,sans-Serif" font-size="14.00" fill="#111111">UUID Task Guard</text>
<text xml:space="preserve" text-anchor="middle" x="344" y="-101.95" font-family="Helvetica,sans-Serif" font-size="14.00" fill="#111111">(Speech and Clear Reset)</text>
</g>
<!-- MMController&#45;&gt;UUIDGuard -->
<g id="edge13" class="edge">
<title>MMController&#45;&gt;UUIDGuard</title>
<path fill="none" stroke="#888888" stroke-width="1.5" d="M467.69,-285.86C437.35,-265.18 390.04,-228.3 364,-184.5 357.09,-172.88 352.43,-158.71 349.37,-146.3"/>
<polygon fill="#888888" stroke="#888888" stroke-width="1.5" points="352.86,-145.87 347.29,-136.86 346.02,-147.38 352.86,-145.87"/>
<text xml:space="preserve" text-anchor="middle" x="446.1" y="-222.62" font-family="Helvetica,sans-Serif" font-size="10.00" fill="#999999">Rotate TaskID</text>
</g>
<!-- Normalization -->
<g id="node13" class="node">
<title>Normalization</title>
<path fill="#ffffff" stroke="black" d="M210.25,-244.5C210.25,-244.5 39.75,-244.5 39.75,-244.5 33.75,-244.5 27.75,-238.5 27.75,-232.5 27.75,-232.5 27.75,-220.5 27.75,-220.5 27.75,-214.5 33.75,-208.5 39.75,-208.5 39.75,-208.5 210.25,-208.5 210.25,-208.5 216.25,-208.5 222.25,-214.5 222.25,-220.5 222.25,-220.5 222.25,-232.5 222.25,-232.5 222.25,-238.5 216.25,-244.5 210.25,-244.5"/>
<text xml:space="preserve" text-anchor="middle" x="125" y="-220.7" font-family="Helvetica,sans-Serif" font-size="14.00" fill="#111111">NLP: EsZett and Contractions</text>
</g>
<!-- MMController&#45;&gt;Normalization -->
<!-- Recognition -->
<g id="node17" class="node">
<title>Recognition</title>
<path fill="#ffffff" stroke="black" d="M864.62,-244.5C864.62,-244.5 741.38,-244.5 741.38,-244.5 735.38,-244.5 729.38,-238.5 729.38,-232.5 729.38,-232.5 729.38,-220.5 729.38,-220.5 729.38,-214.5 735.38,-208.5 741.38,-208.5 741.38,-208.5 864.62,-208.5 864.62,-208.5 870.62,-208.5 876.62,-214.5 876.62,-220.5 876.62,-220.5 876.62,-232.5 876.62,-232.5 876.62,-238.5 870.62,-244.5 864.62,-244.5"/>
<text xml:space="preserve" text-anchor="middle" x="803" y="-220.7" font-family="Helvetica,sans-Serif" font-size="14.00" fill="#111111">SFSpeechRecognizer</text>
</g>
<!-- MMController&#45;&gt;Recognition -->
<g id="edge14" class="edge">
<title>MMController&#45;&gt;Recognition</title>
<path fill="none" stroke="magenta" stroke-width="1.5" d="M554.44,-291.24C581.45,-285.3 613.93,-277.94 643,-270.75 671.23,-263.77 702.1,-255.56 729.13,-248.18"/>
<polygon fill="magenta" stroke="magenta" stroke-width="1.5" points="729.95,-251.59 738.67,-245.57 728.1,-244.84 729.95,-251.59"/>
<text xml:space="preserve" text-anchor="middle" x="719.4" y="-261.25" font-family="Helvetica,sans-Serif" font-size="10.00" fill="#999999">Lifecycle Control</text>
</g>
<!-- Buffer&#45;&gt;Normalization -->
<g id="edge16" class="edge">
<title>Buffer&#45;&gt;Normalization</title>
<path fill="none" stroke="#888888" stroke-width="1.5" d="M514.6,-134.71C495.99,-145.21 471.35,-157.73 448,-165.25 426.16,-172.29 419.61,-169.32 397,-173.25 339.42,-183.25 275.21,-195.53 223.64,-205.67"/>
<polygon fill="#888888" stroke="#888888" stroke-width="1.5" points="223.19,-202.2 214.06,-207.56 224.54,-209.06 223.19,-202.2"/>
<text xml:space="preserve" text-anchor="middle" x="424" y="-175" font-family="Helvetica,sans-Serif" font-size="10.00" fill="#999999">Raw Phrase</text>
</g>
<!-- FileDataManager&#45;&gt;Normalization -->
<g id="edge19" class="edge">
<title>FileDataManager&#45;&gt;Normalization</title>
<path fill="none" stroke="#888888" stroke-width="1.5" d="M137.88,-285.29C135.97,-276.71 133.65,-266.3 131.51,-256.69"/>
<polygon fill="#888888" stroke="#888888" stroke-width="1.5" points="134.93,-255.96 129.34,-246.96 128.1,-257.48 134.93,-255.96"/>
<text xml:space="preserve" text-anchor="middle" x="172.77" y="-261.25" font-family="Helvetica,sans-Serif" font-size="10.00" fill="#999999">Load Rules/Retry</text>
</g>
<!-- WordAlignment -->
<g id="node14" class="node">
<title>WordAlignment</title>
<path fill="#ffffff" stroke="black" d="M209.5,-134.25C209.5,-134.25 28.5,-134.25 28.5,-134.25 22.5,-134.25 16.5,-128.25 16.5,-122.25 16.5,-122.25 16.5,-108.25 16.5,-108.25 16.5,-102.25 22.5,-96.25 28.5,-96.25 28.5,-96.25 209.5,-96.25 209.5,-96.25 215.5,-96.25 221.5,-102.25 221.5,-108.25 221.5,-108.25 221.5,-122.25 221.5,-122.25 221.5,-128.25 215.5,-134.25 209.5,-134.25"/>
<text xml:space="preserve" text-anchor="middle" x="119" y="-116.95" font-family="Helvetica,sans-Serif" font-size="14.00" fill="#111111">Levenshtein Alignment</text>
<text xml:space="preserve" text-anchor="middle" x="119" y="-101.95" font-family="Helvetica,sans-Serif" font-size="14.00" fill="#111111">(Fuzzy and Homonym Support)</text>
</g>
<!-- Normalization&#45;&gt;WordAlignment -->
<g id="edge1" class="edge">
<title>Normalization&#45;&gt;WordAlignment</title>
<path fill="none" stroke="#888888" stroke-width="1.5" d="M124.06,-208.43C123.16,-191.99 121.77,-166.75 120.68,-146.83"/>
<polygon fill="#888888" stroke="#888888" stroke-width="1.5" points="124.18,-146.72 120.14,-136.93 117.19,-147.1 124.18,-146.72"/>
</g>
<!-- Normalization&#45;&gt;InputNode -->
<!-- DiffEngine -->
<g id="node15" class="node">
<title>DiffEngine</title>
<path fill="#ffccbc" stroke="black" d="M193,-54C193,-54 81,-54 81,-54 75,-54 69,-48 69,-42 69,-42 69,-28 69,-28 69,-22 75,-16 81,-16 81,-16 193,-16 193,-16 199,-16 205,-22 205,-28 205,-28 205,-42 205,-42 205,-48 199,-54 193,-54"/>
<text xml:space="preserve" text-anchor="middle" x="137" y="-36.7" font-family="Helvetica,sans-Serif" font-size="14.00" fill="#111111">Character&#45;Level Diff</text>
<text xml:space="preserve" text-anchor="middle" x="137" y="-21.7" font-family="Helvetica,sans-Serif" font-size="14.00" fill="#111111">(ANSI Highlighting)</text>
</g>
<!-- WordAlignment&#45;&gt;DiffEngine -->
<g id="edge2" class="edge">
<title>WordAlignment&#45;&gt;DiffEngine</title>
<path fill="none" stroke="#888888" stroke-width="1.5" d="M123.17,-96.1C125.23,-87.18 127.76,-76.19 130.09,-66.06"/>
<polygon fill="#888888" stroke="#888888" stroke-width="1.5" points="133.45,-67.06 132.28,-56.53 126.62,-65.49 133.45,-67.06"/>
</g>
<!-- DiffEngine&#45;&gt;ModalUI -->
<g id="edge17" class="edge">
<title>DiffEngine&#45;&gt;ModalUI</title>
<path fill="none" stroke="#888888" stroke-width="1.5" d="M205.38,-39.14C303,-44.51 487.61,-57.97 642,-88.25 648.42,-89.51 655.04,-91.02 661.64,-92.68"/>
<polygon fill="#888888" stroke="#888888" stroke-width="1.5" points="660.69,-96.05 671.25,-95.21 662.47,-89.28 660.69,-96.05"/>
<text xml:space="preserve" text-anchor="middle" x="628.72" y="-70.75" font-family="Helvetica,sans-Serif" font-size="10.00" fill="#999999">Alignment Preview</text>
</g>
<!-- TTSManager -->
<g id="node16" class="node">
<title>TTSManager</title>
<path fill="#ffffff" stroke="black" d="M1239,-323.75C1239,-323.75 1103,-323.75 1103,-323.75 1097,-323.75 1091,-317.75 1091,-311.75 1091,-311.75 1091,-297.75 1091,-297.75 1091,-291.75 1097,-285.75 1103,-285.75 1103,-285.75 1239,-285.75 1239,-285.75 1245,-285.75 1251,-291.75 1251,-297.75 1251,-297.75 1251,-311.75 1251,-311.75 1251,-317.75 1245,-323.75 1239,-323.75"/>
<text xml:space="preserve" text-anchor="middle" x="1171" y="-306.45" font-family="Helvetica,sans-Serif" font-size="14.00" fill="#111111">TTSManager</text>
<text xml:space="preserve" text-anchor="middle" x="1171" y="-291.45" font-family="Helvetica,sans-Serif" font-size="14.00" fill="#111111">(Async RunLoop Pump)</text>
</g>
<!-- TTSManager&#45;&gt;Speaker -->
<g id="edge23" class="edge">
<title>TTSManager&#45;&gt;Speaker</title>
<path fill="none" stroke="#4caf50" stroke-width="1.5" d="M1152.45,-324.16C1135.73,-340.51 1110.28,-364.84 1087,-384.75 1076.32,-393.89 1064.67,-403.33 1053.34,-412.25"/>
<polygon fill="#4caf50" stroke="#4caf50" stroke-width="1.5" points="1051.44,-409.29 1045.71,-418.21 1055.75,-414.81 1051.44,-409.29"/>
</g>
<!-- Recognition&#45;&gt;Buffer -->
<g id="edge15" class="edge">
<title>Recognition&#45;&gt;Buffer</title>
<path fill="none" stroke="magenta" stroke-width="1.5" d="M752.74,-208.08C720.95,-196.7 679.18,-181.05 643,-165.25 625.41,-157.57 606.46,-148.33 589.96,-139.95"/>
<polygon fill="magenta" stroke="magenta" stroke-width="1.5" points="592.03,-137.08 581.53,-135.63 588.83,-143.31 592.03,-137.08"/>
<text xml:space="preserve" text-anchor="middle" x="710.75" y="-175" font-family="Helvetica,sans-Serif" font-size="10.00" fill="#999999">Transcripts</text>
</g>
<!-- Ollama -->
<g id="node18" class="node">
<title>Ollama</title>
<path fill="#ffffff" stroke="black" d="M1426.88,-323.75C1426.88,-323.75 1299.12,-323.75 1299.12,-323.75 1293.12,-323.75 1287.12,-317.75 1287.12,-311.75 1287.12,-311.75 1287.12,-297.75 1287.12,-297.75 1287.12,-291.75 1293.12,-285.75 1299.12,-285.75 1299.12,-285.75 1426.88,-285.75 1426.88,-285.75 1432.88,-285.75 1438.88,-291.75 1438.88,-297.75 1438.88,-297.75 1438.88,-311.75 1438.88,-311.75 1438.88,-317.75 1432.88,-323.75 1426.88,-323.75"/>
<text xml:space="preserve" text-anchor="middle" x="1363" y="-306.45" font-family="Helvetica,sans-Serif" font-size="14.00" fill="#111111">Ollama API</text>
<text xml:space="preserve" text-anchor="middle" x="1363" y="-291.45" font-family="Helvetica,sans-Serif" font-size="14.00" fill="#111111">(Grammar Pre&#45;Check)</text>
</g>
<!-- Ollama&#45;&gt;APP -->
<g id="edge18" class="edge">
<title>Ollama&#45;&gt;APP</title>
<path fill="none" stroke="#888888" stroke-width="1.5" d="M1354.17,-323.93C1343.13,-345.2 1322.55,-380.48 1297,-404 1287.94,-412.34 1277.34,-419.86 1266.57,-426.45"/>
<polygon fill="#888888" stroke="#888888" stroke-width="1.5" points="1265.07,-423.28 1258.19,-431.34 1268.59,-429.32 1265.07,-423.28"/>
<text xml:space="preserve" text-anchor="middle" x="1355.19" y="-394.5" font-family="Helvetica,sans-Serif" font-size="10.00" fill="#999999">Pre&#45;Session Validation</text>
</g>
<!-- InputNode&#45;&gt;Recognition -->
<g id="edge9" class="edge">
<title>InputNode&#45;&gt;Recognition</title>
<path fill="none" stroke="blue" stroke-width="1.5" d="M940.16,-286.26C914.84,-275.41 882.06,-261.37 854.9,-249.73"/>
<polygon fill="blue" stroke="blue" stroke-width="1.5" points="856.3,-246.53 845.73,-245.81 853.55,-252.96 856.3,-246.53"/>
<text xml:space="preserve" text-anchor="middle" x="923.28" y="-261.25" font-family="Helvetica,sans-Serif" font-size="10.00" fill="#999999">installTap</text>
</g>
<!-- Visualization -->
<g id="node20" class="node">
<title>Visualization</title>
<polygon fill="#ffffff" stroke="black" points="1069.12,-244.5 912.88,-244.5 912.88,-208.5 1075.12,-208.5 1075.12,-238.5 1069.12,-244.5"/>
<polyline fill="none" stroke="black" points="1069.12,-244.5 1069.12,-238.5"/>
<polyline fill="none" stroke="black" points="1075.12,-238.5 1069.12,-238.5"/>
<text xml:space="preserve" text-anchor="middle" x="994" y="-220.7" font-family="Helvetica,sans-Serif" font-size="14.00" fill="#111111">Python Waveform Script</text>
</g>
<!-- InputNode&#45;&gt;Visualization -->
<g id="edge10" class="edge">
<title>InputNode&#45;&gt;Visualization</title>
<path fill="none" stroke="#888888" stroke-width="1.5" stroke-dasharray="1,5" d="M983.95,-286.45C985.44,-277.74 987.28,-266.93 988.98,-256.96"/>
<polygon fill="#888888" stroke="#888888" stroke-width="1.5" points="992.4,-257.68 990.64,-247.24 985.5,-256.51 992.4,-257.68"/>
</g>
<!-- APP&#45;&gt;MMController -->
<g id="edge20" class="edge">
<title>APP&#45;&gt;MMController</title>
<path fill="none" stroke="#888888" stroke-width="1.5" d="M1164.71,-431.05C1152.56,-423.74 1138.66,-416.56 1125,-412 1025.27,-378.71 993.86,-401.15 890,-384.75 775.95,-366.74 644.69,-338.99 566.14,-321.63"/>
<polygon fill="#888888" stroke="#888888" stroke-width="1.5" points="567.21,-318.28 556.69,-319.54 565.69,-325.12 567.21,-318.28"/>
<text xml:space="preserve" text-anchor="middle" x="1103.74" y="-394.5" font-family="Helvetica,sans-Serif" font-size="10.00" fill="#999999">Init</text>
</g>
<!-- APP&#45;&gt;FileDataManager -->
<g id="edge22" class="edge">
<title>APP&#45;&gt;FileDataManager</title>
<path fill="none" stroke="#888888" stroke-width="1.5" d="M1166.15,-430.88C1153.74,-423.28 1139.33,-415.96 1125,-412 1086.13,-401.24 438.62,-411.54 399,-404 322.44,-389.43 239.07,-353.52 188.68,-329.39"/>
<polygon fill="#888888" stroke="#888888" stroke-width="1.5" points="190.39,-326.34 179.87,-325.13 187.34,-332.64 190.39,-326.34"/>
<text xml:space="preserve" text-anchor="middle" x="429" y="-394.5" font-family="Helvetica,sans-Serif" font-size="10.00" fill="#999999">Persist Errors</text>
</g>
<!-- APP&#45;&gt;TTSManager -->
<g id="edge21" class="edge">
<title>APP&#45;&gt;TTSManager</title>
<path fill="none" stroke="#888888" stroke-width="1.5" d="M1196.6,-430.65C1191.18,-404.23 1182.86,-363.59 1177.18,-335.9"/>
<polygon fill="#888888" stroke="#888888" stroke-width="1.5" points="1180.67,-335.5 1175.23,-326.41 1173.81,-336.91 1180.67,-335.5"/>
<text xml:space="preserve" text-anchor="middle" x="1239.46" y="-394.5" font-family="Helvetica,sans-Serif" font-size="10.00" fill="#999999">Async Task and Drain</text>
</g>
</g>
</svg>
