<?xml version="1.0" encoding="UTF-8" standalone="no"?>
<!DOCTYPE svg PUBLIC "-//W3C//DTD SVG 1.1//EN"
 "http://www.w3.org/Graphics/SVG/1.1/DTD/svg11.dtd">
<!-- Generated by graphviz version 13.0.0 (20250608.1624)
 -->
<!-- Title: G Pages: 1 -->
<svg width="959pt" height="613pt"
 viewBox="0.00 0.00 959.00 613.00" xmlns="http://www.w3.org/2000/svg" xmlns:xlink="http://www.w3.org/1999/xlink">
<g id="graph0" class="graph" transform="scale(1 1) rotate(0) translate(4 608.75)">
<title>G</title>
<g id="clust1" class="cluster">
<title>cluster_testing</title>
<path fill="none" stroke="#ff9800" stroke-width="2" stroke-dasharray="5,2" d="M138.07,-498.75C138.07,-498.75 327.07,-498.75 327.07,-498.75 333.07,-498.75 339.07,-504.75 339.07,-510.75 339.07,-510.75 339.07,-584.75 339.07,-584.75 339.07,-590.75 333.07,-596.75 327.07,-596.75 327.07,-596.75 138.07,-596.75 138.07,-596.75 132.07,-596.75 126.07,-590.75 126.07,-584.75 126.07,-584.75 126.07,-510.75 126.07,-510.75 126.07,-504.75 132.07,-498.75 138.07,-498.75"/>
<text xml:space="preserve" text-anchor="middle" x="232.57" y="-579.45" font-family="Helvetica,sans-Serif" font-size="14.00" fill="Salmon">XCTest Suite (Independent Host)</text>
</g>
<g id="clust2" class="cluster">
<title>cluster_inputs</title>
<path fill="none" stroke="magenta" stroke-width="2.5" stroke-dasharray="1,5" d="M592.07,-363C592.07,-363 858.07,-363 858.07,-363 864.07,-363 870.07,-369 870.07,-375 870.07,-375 870.07,-458.25 870.07,-458.25 870.07,-464.25 864.07,-470.25 858.07,-470.25 858.07,-470.25 592.07,-470.25 592.07,-470.25 586.07,-470.25 580.07,-464.25 580.07,-458.25 580.07,-458.25 580.07,-375 580.07,-375 580.07,-369 586.07,-363 592.07,-363"/>
<text xml:space="preserve" text-anchor="middle" x="725.07" y="-452.95" font-family="Helvetica,sans-Serif" font-size="14.00" fill="Salmon">Input &amp; Recognition</text>
</g>
<g id="clust3" class="cluster">
<title>cluster_analysis</title>
<path fill="none" stroke="#b3e5fc" stroke-width="2.5" d="M24.07,-8C24.07,-8 200.07,-8 200.07,-8 206.07,-8 212.07,-14 212.07,-20 212.07,-20 212.07,-322.5 212.07,-322.5 212.07,-328.5 206.07,-334.5 200.07,-334.5 200.07,-334.5 24.07,-334.5 24.07,-334.5 18.07,-334.5 12.07,-328.5 12.07,-322.5 12.07,-322.5 12.07,-20 12.07,-20 12.07,-14 18.07,-8 24.07,-8"/>
<text xml:space="preserve" text-anchor="middle" x="112.07" y="-317.2" font-family="Helvetica,sans-Serif" font-size="14.00" fill="Salmon">Internal NLP &amp; Core Logic</text>
</g>
<g id="clust4" class="cluster">
<title>cluster_frameworks</title>
<path fill="none" stroke="#9090c0" stroke-width="2.5" d="M264.07,-367.63C264.07,-367.63 560.07,-367.63 560.07,-367.63 566.07,-367.63 572.07,-373.63 572.07,-379.63 572.07,-379.63 572.07,-453.63 572.07,-453.63 572.07,-459.63 566.07,-465.63 560.07,-465.63 560.07,-465.63 264.07,-465.63 264.07,-465.63 258.07,-465.63 252.07,-459.63 252.07,-453.63 252.07,-453.63 252.07,-379.63 252.07,-379.63 252.07,-373.63 258.07,-367.63 264.07,-367.63"/>
<text xml:space="preserve" text-anchor="middle" x="412.07" y="-448.33" font-family="Helvetica,sans-Serif" font-size="14.00" fill="Salmon">Apple Frameworks</text>
</g>
<!-- UnitTests -->
<g id="node1" class="node">
<title>UnitTests</title>
<path fill="#fff3e0" stroke="black" d="M273.82,-542.75C273.82,-542.75 190.32,-542.75 190.32,-542.75 184.32,-542.75 178.32,-536.75 178.32,-530.75 178.32,-530.75 178.32,-518.75 178.32,-518.75 178.32,-512.75 184.32,-506.75 190.32,-506.75 190.32,-506.75 273.82,-506.75 273.82,-506.75 279.82,-506.75 285.82,-512.75 285.82,-518.75 285.82,-518.75 285.82,-530.75 285.82,-530.75 285.82,-536.75 279.82,-542.75 273.82,-542.75"/>
<text xml:space="preserve" text-anchor="start" x="186.32" y="-524.45" font-family="Helvetica,sans-Serif" font-size="14.00" fill="#111111">XCTest Runner</text>
<text xml:space="preserve" text-anchor="start" x="191.57" y="-514.25" font-family="Helvetica,sans-Serif" font-size="10.00" fill="#111111">(Logic Verification)</text>
</g>
<!-- Normalization -->
<g id="node4" class="node">
<title>Normalization</title>
<path fill="#e1f5fe" stroke="black" d="M192.07,-280.5C192.07,-280.5 32.07,-280.5 32.07,-280.5 26.07,-280.5 20.07,-274.5 20.07,-268.5 20.07,-268.5 20.07,-256.5 20.07,-256.5 20.07,-250.5 26.07,-244.5 32.07,-244.5 32.07,-244.5 192.07,-244.5 192.07,-244.5 198.07,-244.5 204.07,-250.5 204.07,-256.5 204.07,-256.5 204.07,-268.5 204.07,-268.5 204.07,-274.5 198.07,-280.5 192.07,-280.5"/>
<text xml:space="preserve" text-anchor="start" x="28.07" y="-262.2" font-family="Helvetica,sans-Serif" font-size="14.00" fill="#111111">Custom NLP: Normalization</text>
<text xml:space="preserve" text-anchor="start" x="92.94" y="-252" font-family="Helvetica,sans-Serif" font-size="10.00" fill="#111111">(ß → ss)</text>
</g>
<!-- UnitTests&#45;&gt;Normalization -->
<g id="edge6" class="edge">
<title>UnitTests&#45;&gt;Normalization</title>
<path fill="none" stroke="#ff9800" stroke-width="1.5" stroke-dasharray="5,2" d="M177.97,-508.74C158.57,-500.57 138.54,-488.31 126.57,-470.25 90.69,-416.18 98.17,-335.69 105.72,-292.83"/>
<polygon fill="#ff9800" stroke="#ff9800" stroke-width="1.5" points="109.15,-293.52 107.59,-283.04 102.27,-292.21 109.15,-293.52"/>
<text xml:space="preserve" text-anchor="middle" x="172.32" y="-389.38" font-family="Times,serif" font-size="10.00" fill="Grey">Verifies Normalization</text>
</g>
<!-- Expansion -->
<g id="node5" class="node">
<title>Expansion</title>
<path fill="#e1f5fe" stroke="black" d="M181.94,-198C181.94,-198 42.19,-198 42.19,-198 36.19,-198 30.19,-192 30.19,-186 30.19,-186 30.19,-174 30.19,-174 30.19,-168 36.19,-162 42.19,-162 42.19,-162 181.94,-162 181.94,-162 187.94,-162 193.94,-168 193.94,-174 193.94,-174 193.94,-186 193.94,-186 193.94,-192 187.94,-198 181.94,-198"/>
<text xml:space="preserve" text-anchor="start" x="38.19" y="-174.2" font-family="Helvetica,sans-Serif" font-size="14.00" fill="#111111">Custom NLP: Expansion</text>
</g>
<!-- UnitTests&#45;&gt;Expansion -->
<g id="edge7" class="edge">
<title>UnitTests&#45;&gt;Expansion</title>
<path fill="none" stroke="#ff9800" stroke-width="1.5" stroke-dasharray="5,2" d="M177.86,-512.63C150.36,-504.69 118,-491.52 95.07,-470.25 43.04,-422.01 25.84,-403.9 11.07,-334.5 2.74,-295.38 -8.28,-279.51 11.07,-244.5 20.65,-227.16 37.17,-213.91 54.1,-204.12"/>
<polygon fill="#ff9800" stroke="#ff9800" stroke-width="1.5" points="55.49,-207.35 62.65,-199.54 52.18,-201.18 55.49,-207.35"/>
<text xml:space="preserve" text-anchor="middle" x="53.12" y="-343.5" font-family="Times,serif" font-size="10.00" fill="Grey">Verifies Expansion</text>
</g>
<!-- Alignment -->
<g id="node6" class="node">
<title>Alignment</title>
<path fill="#e1f5fe" stroke="black" d="M192.32,-125C192.32,-125 93.82,-125 93.82,-125 87.82,-125 81.82,-119 81.82,-113 81.82,-113 81.82,-101 81.82,-101 81.82,-95 87.82,-89 93.82,-89 93.82,-89 192.32,-89 192.32,-89 198.32,-89 204.32,-95 204.32,-101 204.32,-101 204.32,-113 204.32,-113 204.32,-119 198.32,-125 192.32,-125"/>
<text xml:space="preserve" text-anchor="start" x="89.82" y="-106.7" font-family="Helvetica,sans-Serif" font-size="14.00" fill="#111111">Alignment Engine</text>
<text xml:space="preserve" text-anchor="start" x="100.69" y="-96.5" font-family="Helvetica,sans-Serif" font-size="10.00" fill="#111111">(Levenshtein Logic)</text>
</g>
<!-- UnitTests&#45;&gt;Alignment -->
<g id="edge8" class="edge">
<title>UnitTests&#45;&gt;Alignment</title>
<path fill="none" stroke="#ff9800" stroke-width="1.5" stroke-dasharray="5,2" d="M235.19,-506.26C244.03,-451.63 264.81,-280.8 203.07,-162 197.35,-151 188.41,-141.15 179.17,-132.97"/>
<polygon fill="#ff9800" stroke="#ff9800" stroke-width="1.5" points="181.63,-130.46 171.68,-126.81 177.18,-135.86 181.63,-130.46"/>
<text xml:space="preserve" text-anchor="middle" x="282.55" y="-258.25" font-family="Times,serif" font-size="10.00" fill="Grey">Verifies Alignment</text>
</g>
<!-- AVF -->
<g id="node8" class="node">
<title>AVF</title>
<path fill="#e1e1fb" stroke="black" d="M387.94,-411.63C387.94,-411.63 272.19,-411.63 272.19,-411.63 266.19,-411.63 260.19,-405.63 260.19,-399.63 260.19,-399.63 260.19,-387.63 260.19,-387.63 260.19,-381.63 266.19,-375.63 272.19,-375.63 272.19,-375.63 387.94,-375.63 387.94,-375.63 393.94,-375.63 399.94,-381.63 399.94,-387.63 399.94,-387.63 399.94,-399.63 399.94,-399.63 399.94,-405.63 393.94,-411.63 387.94,-411.63"/>
<text xml:space="preserve" text-anchor="start" x="268.19" y="-387.83" font-family="Helvetica,sans-Serif" font-size="14.00" fill="#111111">AVFoundation (TTS)</text>
</g>
<!-- UnitTests&#45;&gt;AVF -->
<g id="edge9" class="edge">
<title>UnitTests&#45;&gt;AVF</title>
<path fill="none" stroke="#ff9800" stroke-width="1.5" stroke-dasharray="5,2" d="M245.28,-506.34C261.89,-484.46 290.54,-446.7 309.89,-421.21"/>
<polygon fill="#ff9800" stroke="#ff9800" stroke-width="1.5" points="312.43,-423.66 315.69,-413.57 306.85,-419.42 312.43,-423.66"/>
<text xml:space="preserve" text-anchor="middle" x="291.31" y="-479.25" font-family="Times,serif" font-size="10.00" fill="Grey">Verifies TTS</text>
</g>
<!-- Speech -->
<g id="node9" class="node">
<title>Speech</title>
<path fill="#e1e1fb" stroke="black" d="M551.94,-411.63C551.94,-411.63 430.19,-411.63 430.19,-411.63 424.19,-411.63 418.19,-405.63 418.19,-399.63 418.19,-399.63 418.19,-387.63 418.19,-387.63 418.19,-381.63 424.19,-375.63 430.19,-375.63 430.19,-375.63 551.94,-375.63 551.94,-375.63 557.94,-375.63 563.94,-381.63 563.94,-387.63 563.94,-387.63 563.94,-399.63 563.94,-399.63 563.94,-405.63 557.94,-411.63 551.94,-411.63"/>
<text xml:space="preserve" text-anchor="start" x="426.19" y="-387.83" font-family="Helvetica,sans-Serif" font-size="14.00" fill="#111111">Speech (Recognition)</text>
</g>
<!-- UnitTests&#45;&gt;Speech -->
<g id="edge10" class="edge">
<title>UnitTests&#45;&gt;Speech</title>
<path fill="none" stroke="#ff9800" stroke-width="1.5" stroke-dasharray="5,2" d="M283.21,-506.31C310.22,-497.39 344.02,-486.66 374.57,-478.25 389.74,-474.08 395.15,-477.61 409.07,-470.25 432.32,-457.96 453.99,-437.42 469.2,-420.84"/>
<polygon fill="#ff9800" stroke="#ff9800" stroke-width="1.5" points="471.42,-423.61 475.45,-413.82 466.19,-418.96 471.42,-423.61"/>
<text xml:space="preserve" text-anchor="middle" x="403.82" y="-479.25" font-family="Times,serif" font-size="10.00" fill="Grey">Verifies Recog</text>
</g>
<!-- Keyboard -->
<g id="node2" class="node">
<title>Keyboard</title>
<path fill="#d1ffd1" stroke="black" d="M682.07,-411.63C682.07,-411.63 600.07,-411.63 600.07,-411.63 594.07,-411.63 588.07,-405.63 588.07,-399.63 588.07,-399.63 588.07,-387.63 588.07,-387.63 588.07,-381.63 594.07,-375.63 600.07,-375.63 600.07,-375.63 682.07,-375.63 682.07,-375.63 688.07,-375.63 694.07,-381.63 694.07,-387.63 694.07,-387.63 694.07,-399.63 694.07,-399.63 694.07,-405.63 688.07,-411.63 682.07,-411.63"/>
<text xml:space="preserve" text-anchor="start" x="596.07" y="-393.33" font-family="Helvetica,sans-Serif" font-size="14.00" fill="#111111">Keyboard / CLI</text>
<text xml:space="preserve" text-anchor="start" x="611.82" y="-383.13" font-family="Helvetica,sans-Serif" font-size="10.00" fill="#111111">(Direct Entry)</text>
</g>
<!-- Keyboard&#45;&gt;Normalization -->
<g id="edge1" class="edge">
<title>Keyboard&#45;&gt;Normalization</title>
<path fill="none" stroke="green" stroke-width="1.5" d="M608.81,-375.25C598.61,-370.49 587.11,-365.86 576.07,-363 421.55,-322.96 368.82,-386.95 218.07,-334.5 189.12,-324.43 160.5,-304.51 140.31,-288.32"/>
<polygon fill="green" stroke="green" stroke-width="1.5" points="142.8,-285.84 132.86,-282.18 138.35,-291.24 142.8,-285.84"/>
</g>
<!-- Dictation -->
<g id="node3" class="node">
<title>Dictation</title>
<ellipse fill="#ffe4f2" stroke="black" cx="787.07" cy="-393.63" rx="75.48" ry="22.63"/>
<text xml:space="preserve" text-anchor="start" x="741.69" y="-393.33" font-family="Helvetica,sans-Serif" font-size="14.00" fill="#111111">Speech&#45;to&#45;Text</text>
<text xml:space="preserve" text-anchor="start" x="761.57" y="-383.13" font-family="Helvetica,sans-Serif" font-size="10.00" fill="#111111">(Live Audio)</text>
</g>
<!-- Dictation&#45;&gt;Normalization -->
<g id="edge2" class="edge">
<title>Dictation&#45;&gt;Normalization</title>
<path fill="none" stroke="green" stroke-width="1.5" d="M743.67,-374.8C730.81,-370.2 716.55,-365.78 703.07,-363 570,-335.6 533.72,-350.07 398.07,-342.5 358.09,-340.27 256.11,-346.99 218.07,-334.5 188.95,-324.94 160.34,-304.97 140.2,-288.64"/>
<polygon fill="green" stroke="green" stroke-width="1.5" points="142.69,-286.16 132.77,-282.43 138.2,-291.53 142.69,-286.16"/>
</g>
<!-- Normalization&#45;&gt;Expansion -->
<g id="edge3" class="edge">
<title>Normalization&#45;&gt;Expansion</title>
<path fill="none" stroke="green" stroke-width="1.5" d="M112.07,-244.03C112.07,-234.22 112.07,-221.72 112.07,-210.44"/>
<polygon fill="green" stroke="green" stroke-width="1.5" points="115.57,-210.7 112.07,-200.7 108.57,-210.7 115.57,-210.7"/>
</g>
<!-- Expansion&#45;&gt;Alignment -->
<g id="edge4" class="edge">
<title>Expansion&#45;&gt;Alignment</title>
<path fill="none" stroke="green" stroke-width="1.5" d="M119.57,-161.81C122.92,-154.14 126.96,-144.89 130.73,-136.24"/>
<polygon fill="green" stroke="green" stroke-width="1.5" points="133.93,-137.67 134.72,-127.11 127.51,-134.87 133.93,-137.67"/>
</g>
<!-- WordStats -->
<g id="node7" class="node">
<title>WordStats</title>
<path fill="#e1f5fe" stroke="black" d="M191.82,-52C191.82,-52 96.32,-52 96.32,-52 90.32,-52 84.32,-46 84.32,-40 84.32,-40 84.32,-28 84.32,-28 84.32,-22 90.32,-16 96.32,-16 96.32,-16 191.82,-16 191.82,-16 197.82,-16 203.82,-22 203.82,-28 203.82,-28 203.82,-40 203.82,-40 203.82,-46 197.82,-52 191.82,-52"/>
<text xml:space="preserve" text-anchor="start" x="92.32" y="-28.2" font-family="Helvetica,sans-Serif" font-size="14.00" fill="#111111">Word&#45;Level Stats</text>
</g>
<!-- Alignment&#45;&gt;WordStats -->
<g id="edge5" class="edge">
<title>Alignment&#45;&gt;WordStats</title>
<path fill="none" stroke="green" stroke-width="1.5" d="M143.31,-88.81C143.41,-81.4 143.54,-72.52 143.66,-64.13"/>
<polygon fill="green" stroke="green" stroke-width="1.5" points="147.15,-64.35 143.79,-54.3 140.15,-64.25 147.15,-64.35"/>
</g>
<!-- APP -->
<g id="node10" class="node">
<title>APP</title>
<path fill="#ffffcc" stroke="black" d="M650.44,-539.48C650.44,-541.29 622.48,-542.75 588.07,-542.75 553.65,-542.75 525.69,-541.29 525.69,-539.48 525.69,-539.48 525.69,-510.03 525.69,-510.03 525.69,-508.22 553.65,-506.75 588.07,-506.75 622.48,-506.75 650.44,-508.22 650.44,-510.03 650.44,-510.03 650.44,-539.48 650.44,-539.48"/>
<path fill="none" stroke="black" d="M650.44,-539.48C650.44,-537.68 622.48,-536.21 588.07,-536.21 553.65,-536.21 525.69,-537.68 525.69,-539.48"/>
<text xml:space="preserve" text-anchor="start" x="533.69" y="-519.95" font-family="Helvetica,sans-Serif" font-weight="bold" font-size="14.00" fill="#111111">Main Application</text>
</g>
<!-- WordStats&#45;&gt;APP -->
<g id="edge11" class="edge">
<title>WordStats&#45;&gt;APP</title>
<path fill="none" stroke="green" stroke-width="1.5" d="M204.17,-34.45C381.48,-33.63 890.07,-37.25 890.07,-106 890.07,-394.63 890.07,-394.63 890.07,-394.63 890.07,-428.98 898.64,-446.25 874.07,-470.25 844.71,-498.92 737.44,-512.75 662.96,-519.03"/>
<polygon fill="green" stroke="green" stroke-width="1.5" points="662.8,-515.53 653.11,-519.83 663.36,-522.51 662.8,-515.53"/>
<text xml:space="preserve" text-anchor="middle" x="920.44" y="-217" font-family="Times,serif" font-size="10.00" fill="Grey">Render Output</text>
</g>
<!-- Speech&#45;&gt;Dictation -->
<g id="edge14" class="edge">
<title>Speech&#45;&gt;Dictation</title>
<path fill="none" stroke="green" stroke-width="1.5" d="M505.68,-412.03C521.03,-429.75 546.95,-455.38 576.07,-466.11 629.03,-485.62 650.16,-485.78 703.07,-466.11 725.55,-457.75 746.04,-440.36 761.16,-424.72"/>
<polygon fill="green" stroke="green" stroke-width="1.5" points="763.65,-427.18 767.87,-417.46 758.51,-422.42 763.65,-427.18"/>
<text xml:space="preserve" text-anchor="middle" x="603.07" y="-479.25" font-family="Times,serif" font-size="10.00" fill="Grey">Transcribe</text>
</g>
<!-- APP&#45;&gt;Keyboard -->
<g id="edge12" class="edge">
<title>APP&#45;&gt;Keyboard</title>
<path fill="none" stroke="green" stroke-width="1.5" d="M610.99,-506.46C616.38,-501.33 621.56,-495.31 625.07,-488.75 635.72,-468.82 639.56,-443.42 640.83,-424.03"/>
<polygon fill="green" stroke="green" stroke-width="1.5" points="644.32,-424.4 641.24,-414.26 637.32,-424.11 644.32,-424.4"/>
<text xml:space="preserve" text-anchor="middle" x="650.42" y="-479.25" font-family="Times,serif" font-size="10.00" fill="Grey">Read Line</text>
</g>
<!-- APP&#45;&gt;AVF -->
<g id="edge15" class="edge">
<title>APP&#45;&gt;AVF</title>
<path fill="none" stroke="green" stroke-width="1.5" d="M528.72,-506.37C477.67,-491.36 411.8,-471.85 409.07,-470.25 387.12,-457.48 366.54,-437.41 351.89,-421.16"/>
<polygon fill="green" stroke="green" stroke-width="1.5" points="354.69,-419.05 345.48,-413.82 349.42,-423.65 354.69,-419.05"/>
<text xml:space="preserve" text-anchor="middle" x="481.3" y="-479.25" font-family="Times,serif" font-size="10.00" fill="Grey">Speak</text>
</g>
<!-- APP&#45;&gt;Speech -->
<g id="edge13" class="edge">
<title>APP&#45;&gt;Speech</title>
<path fill="none" stroke="green" stroke-width="1.5" d="M551.82,-506.32C544.18,-501.43 536.67,-495.55 530.82,-488.75 514.62,-469.94 504.25,-443.57 498.18,-423.52"/>
<polygon fill="green" stroke="green" stroke-width="1.5" points="501.63,-422.85 495.55,-414.17 494.89,-424.74 501.63,-422.85"/>
<text xml:space="preserve" text-anchor="middle" x="554.44" y="-479.25" font-family="Times,serif" font-size="10.00" fill="Grey">Start Recog</text>
</g>
</g>
</svg>
