<?xml version="1.0" encoding="UTF-8" standalone="no"?>
<!DOCTYPE svg PUBLIC "-//W3C//DTD SVG 1.1//EN"
 "http://www.w3.org/Graphics/SVG/1.1/DTD/svg11.dtd">
<!-- Generated by graphviz version 13.0.0 (20250608.1624)
 -->
<!-- Title: G Pages: 1 -->
<svg width="1064pt" height="523pt"
 viewBox="0.00 0.00 1064.00 523.00" xmlns="http://www.w3.org/2000/svg" xmlns:xlink="http://www.w3.org/1999/xlink">
<g id="graph0" class="graph" transform="scale(1 1) rotate(0) translate(4 518.66)">
<title>G</title>
<text xml:space="preserve" text-anchor="start" x="248.19" y="-490.76" font-family="Helvetica,sans-Serif" font-weight="bold" font-size="22.00" fill="#f33333">LangQuiz: Unified Command and Control Loop (2026)</text>
<g id="clust1" class="cluster">
<title>cluster_web</title>
<path fill="#fff3e0" stroke="#ff5722" stroke-width="3" d="M20,-158.79C20,-158.79 225,-158.79 225,-158.79 231,-158.79 237,-164.79 237,-170.79 237,-170.79 237,-310.91 237,-310.91 237,-316.91 231,-322.91 225,-322.91 225,-322.91 20,-322.91 20,-322.91 14,-322.91 8,-316.91 8,-310.91 8,-310.91 8,-170.79 8,-170.79 8,-164.79 14,-158.79 20,-158.79"/>
<text xml:space="preserve" text-anchor="middle" x="122.5" y="-305.61" font-family="Helvetica,sans-Serif" font-size="14.00" fill="#999999">Visualization Tier (Web Dashboard)</text>
</g>
<g id="clust2" class="cluster">
<title>cluster_headless</title>
<path fill="#f8f9fa" stroke="#607d8b" stroke-width="3" d="M340,-151.67C340,-151.67 657,-151.67 657,-151.67 663,-151.67 669,-157.67 669,-163.67 669,-163.67 669,-464.16 669,-464.16 669,-470.16 663,-476.16 657,-476.16 657,-476.16 340,-476.16 340,-476.16 334,-476.16 328,-470.16 328,-464.16 328,-464.16 328,-163.67 328,-163.67 328,-157.67 334,-151.67 340,-151.67"/>
<text xml:space="preserve" text-anchor="middle" x="498.5" y="-458.86" font-family="Helvetica,sans-Serif" font-size="14.00" fill="#999999">macOS Headless Core (Command Center)</text>
</g>
<g id="clust3" class="cluster">
<title>cluster_input_state</title>
<polygon fill="none" stroke="#999999" stroke-width="3" stroke-dasharray="1,5" points="336,-368.16 336,-445.16 661,-445.16 661,-368.16 336,-368.16"/>
<text xml:space="preserve" text-anchor="middle" x="498.5" y="-427.86" font-family="Helvetica,sans-Serif" font-size="14.00" fill="#999999">Input Management</text>
</g>
<g id="clust4" class="cluster">
<title>cluster_frameworks</title>
<path fill="#f5f5fa" stroke="#9090c0" stroke-width="3" d="M119,-8C119,-8 717,-8 717,-8 723,-8 729,-14 729,-20 729,-20 729,-101.17 729,-101.17 729,-107.17 723,-113.17 717,-113.17 717,-113.17 119,-113.17 119,-113.17 113,-113.17 107,-107.17 107,-101.17 107,-101.17 107,-20 107,-20 107,-14 113,-8 119,-8"/>
<text xml:space="preserve" text-anchor="middle" x="418" y="-95.87" font-family="Helvetica,sans-Serif" font-size="14.00" fill="#999999">Local AI and Systems</text>
</g>
<!-- Browser -->
<g id="node1" class="node">
<title>Browser</title>
<polygon fill="#ffffff" stroke="black" points="186.5,-291.91 89.5,-291.91 89.5,-287.91 85.5,-287.91 85.5,-283.91 89.5,-283.91 89.5,-261.91 85.5,-261.91 85.5,-257.91 89.5,-257.91 89.5,-253.91 186.5,-253.91 186.5,-291.91"/>
<polyline fill="none" stroke="black" points="89.5,-287.91 93.5,-287.91 93.5,-283.91 89.5,-283.91"/>
<polyline fill="none" stroke="black" points="89.5,-261.91 93.5,-261.91 93.5,-257.91 89.5,-257.91"/>
<text xml:space="preserve" text-anchor="middle" x="138" y="-274.61" font-family="Helvetica,sans-Serif" font-size="14.00" fill="#111111">Web Browser</text>
<text xml:space="preserve" text-anchor="middle" x="138" y="-259.61" font-family="Helvetica,sans-Serif" font-size="14.00" fill="#111111">(Dashboard)</text>
</g>
<!-- DisplayLogic -->
<g id="node2" class="node">
<title>DisplayLogic</title>
<path fill="#ffffff" stroke="black" d="M211,-204.79C211,-204.79 69,-204.79 69,-204.79 63,-204.79 57,-198.79 57,-192.79 57,-192.79 57,-178.79 57,-178.79 57,-172.79 63,-166.79 69,-166.79 69,-166.79 211,-166.79 211,-166.79 217,-166.79 223,-172.79 223,-178.79 223,-178.79 223,-192.79 223,-192.79 223,-198.79 217,-204.79 211,-204.79"/>
<text xml:space="preserve" text-anchor="middle" x="140" y="-187.49" font-family="Helvetica,sans-Serif" font-size="14.00" fill="#111111">Display Controller</text>
<text xml:space="preserve" text-anchor="middle" x="140" y="-172.49" font-family="Helvetica,sans-Serif" font-size="14.00" fill="#111111">(Live Stats / Model Logs)</text>
</g>
<!-- Browser&#45;&gt;DisplayLogic -->
<g id="edge1" class="edge">
<title>Browser&#45;&gt;DisplayLogic</title>
<path fill="none" stroke="#888888" stroke-width="1.5" d="M138.71,-241.51C138.9,-233.65 139.1,-225.18 139.28,-217.31"/>
<polygon fill="#888888" stroke="#888888" stroke-width="1.5" points="135.22,-241.09 138.49,-251.17 142.22,-241.26 135.22,-241.09"/>
<polygon fill="#888888" stroke="#888888" stroke-width="1.5" points="142.78,-217.58 139.51,-207.5 135.78,-217.41 142.78,-217.58"/>
<text xml:space="preserve" text-anchor="middle" x="184.38" y="-229.41" font-family="Helvetica,sans-Serif" font-size="10.00" fill="#999999">WebSockets / HTTP</text>
</g>
<!-- APP -->
<g id="node3" class="node">
<title>APP</title>
<path fill="#ffffcc" stroke="black" stroke-width="3" d="M638.5,-207.17C638.5,-209.79 610.04,-211.92 575,-211.92 539.96,-211.92 511.5,-209.79 511.5,-207.17 511.5,-207.17 511.5,-164.42 511.5,-164.42 511.5,-161.8 539.96,-159.67 575,-159.67 610.04,-159.67 638.5,-161.8 638.5,-164.42 638.5,-164.42 638.5,-207.17 638.5,-207.17"/>
<path fill="none" stroke="black" stroke-width="3" d="M638.5,-207.17C638.5,-204.55 610.04,-202.42 575,-202.42 539.96,-202.42 511.5,-204.55 511.5,-207.17"/>
<text xml:space="preserve" text-anchor="middle" x="575" y="-187.49" font-family="Helvetica,sans-Serif" font-size="14.00" fill="#111111">Main Application</text>
<text xml:space="preserve" text-anchor="middle" x="575" y="-172.49" font-family="Helvetica,sans-Serif" font-size="14.00" fill="#111111">(Headless Engine)</text>
</g>
<!-- DisplayLogic&#45;&gt;APP -->
<!-- Ollama -->
<g id="node8" class="node">
<title>Ollama</title>
<path fill="#ffffff" stroke="black" stroke-width="2.5" d="M335.11,-45.07C335.11,-45.07 335.11,-53.1 335.11,-53.1 335.11,-57.12 331.23,-62.17 327.35,-63.22 327.35,-63.22 279.54,-76.08 279.54,-76.08 275.66,-77.12 267.76,-78.17 263.75,-78.17 263.75,-78.17 190.25,-78.17 190.25,-78.17 186.24,-78.17 178.34,-77.12 174.46,-76.08 174.46,-76.08 126.65,-63.22 126.65,-63.22 122.77,-62.17 118.89,-57.12 118.89,-53.1 118.89,-53.1 118.89,-45.07 118.89,-45.07 118.89,-41.05 122.77,-35.99 126.65,-34.95 126.65,-34.95 174.46,-22.09 174.46,-22.09 178.34,-21.04 186.24,-20 190.25,-20 190.25,-20 263.75,-20 263.75,-20 267.76,-20 275.66,-21.04 279.54,-22.09 279.54,-22.09 327.35,-34.95 327.35,-34.95 331.23,-35.99 335.11,-41.05 335.11,-45.07"/>
<path fill="none" stroke="black" stroke-width="2.5" d="M339.11,-44.05C339.11,-44.05 339.11,-54.12 339.11,-54.12 339.11,-59.16 334.24,-65.51 329.38,-66.81 329.38,-66.81 282.04,-79.55 282.04,-79.55 277.17,-80.86 267.27,-82.17 262.23,-82.17 262.23,-82.17 191.77,-82.17 191.77,-82.17 186.73,-82.17 176.83,-80.86 171.96,-79.55 171.96,-79.55 124.62,-66.81 124.62,-66.81 119.76,-65.51 114.89,-59.16 114.89,-54.12 114.89,-54.12 114.89,-44.05 114.89,-44.05 114.89,-39.01 119.76,-32.66 124.62,-31.35 124.62,-31.35 171.96,-18.62 171.96,-18.62 176.83,-17.31 186.73,-16 191.77,-16 191.77,-16 262.23,-16 262.23,-16 267.27,-16 277.17,-17.31 282.04,-18.62 282.04,-18.62 329.38,-31.35 329.38,-31.35 334.24,-32.66 339.11,-39.01 339.11,-44.05"/>
<text xml:space="preserve" text-anchor="middle" x="227" y="-50.78" font-family="Helvetica,sans-Serif" font-size="14.00" fill="#111111">Ollama API</text>
<text xml:space="preserve" text-anchor="middle" x="227" y="-35.78" font-family="Helvetica,sans-Serif" font-size="14.00" fill="#111111">(gemma3:4b Server)</text>
</g>
<!-- DisplayLogic&#45;&gt;Ollama -->
<g id="edge10" class="edge">
<title>DisplayLogic&#45;&gt;Ollama</title>
<path fill="none" stroke="#2563eb" stroke-width="1.5" stroke-dasharray="5,2" d="M143.2,-166.32C146.05,-153.1 151.06,-135.23 159.25,-121.17 165.24,-110.89 172.99,-100.94 181.1,-91.9"/>
<polygon fill="#2563eb" stroke="#2563eb" stroke-width="1.5" points="183.44,-94.52 187.73,-84.83 178.34,-89.73 183.44,-94.52"/>
<text xml:space="preserve" text-anchor="middle" x="207.62" y="-134.17" font-family="Helvetica,sans-Serif" font-size="10.00" fill="#999999">Direct Model Config</text>
<text xml:space="preserve" text-anchor="middle" x="207.62" y="-122.92" font-family="Helvetica,sans-Serif" font-size="10.00" fill="#999999">(Prompt Management)</text>
</g>
<!-- APP&#45;&gt;DisplayLogic -->
<g id="edge9" class="edge">
<title>APP&#45;&gt;DisplayLogic</title>
<path fill="none" stroke="#ff5722" stroke-width="2" d="M510.33,-185.79C437.83,-185.79 319.52,-185.79 236.16,-185.79"/>
<polygon fill="#ff5722" stroke="#ff5722" stroke-width="2" points="236.38,-182.29 226.38,-185.79 236.38,-189.29 236.38,-182.29"/>
<text xml:space="preserve" text-anchor="middle" x="367.25" y="-201.79" font-family="Helvetica,sans-Serif" font-size="10.00" fill="#999999">Push State</text>
<text xml:space="preserve" text-anchor="middle" x="367.25" y="-190.54" font-family="Helvetica,sans-Serif" font-size="10.00" fill="#999999">(Progress / Stats)</text>
</g>
<!-- APP&#45;&gt;Ollama -->
<g id="edge11" class="edge">
<title>APP&#45;&gt;Ollama</title>
<path fill="none" stroke="#2563eb" stroke-width="2" d="M510.14,-165.26C467.34,-151.84 410.27,-132.93 361,-113.17 340.15,-104.81 317.93,-94.8 297.7,-85.26"/>
<polygon fill="#2563eb" stroke="#2563eb" stroke-width="2" points="299.31,-82.15 288.77,-81.01 296.3,-88.47 299.31,-82.15"/>
<text xml:space="preserve" text-anchor="middle" x="488.6" y="-134.17" font-family="Helvetica,sans-Serif" font-size="10.00" fill="#999999">Grammar Validation</text>
<text xml:space="preserve" text-anchor="middle" x="488.6" y="-122.92" font-family="Helvetica,sans-Serif" font-size="10.00" fill="#999999">(Async URLSession)</text>
</g>
<!-- TTSManager -->
<g id="node9" class="node">
<title>TTSManager</title>
<path fill="#ffffff" stroke="black" d="M709.38,-68.08C709.38,-68.08 584.62,-68.08 584.62,-68.08 578.62,-68.08 572.62,-62.08 572.62,-56.08 572.62,-56.08 572.62,-42.08 572.62,-42.08 572.62,-36.08 578.62,-30.08 584.62,-30.08 584.62,-30.08 709.38,-30.08 709.38,-30.08 715.38,-30.08 721.38,-36.08 721.38,-42.08 721.38,-42.08 721.38,-56.08 721.38,-56.08 721.38,-62.08 715.38,-68.08 709.38,-68.08"/>
<text xml:space="preserve" text-anchor="middle" x="647" y="-50.78" font-family="Helvetica,sans-Serif" font-size="14.00" fill="#111111">TTSManager</text>
<text xml:space="preserve" text-anchor="middle" x="647" y="-35.78" font-family="Helvetica,sans-Serif" font-size="14.00" fill="#111111">(macOS Voice Pump)</text>
</g>
<!-- APP&#45;&gt;TTSManager -->
<g id="edge8" class="edge">
<title>APP&#45;&gt;TTSManager</title>
<path fill="none" stroke="#888888" stroke-width="1.5" d="M598.91,-158.23C602.54,-153.55 606.06,-148.6 609,-143.67 621.02,-123.54 630.85,-98.9 637.5,-79.97"/>
<polygon fill="#888888" stroke="#888888" stroke-width="1.5" points="640.78,-81.19 640.67,-70.6 634.15,-78.95 640.78,-81.19"/>
<text xml:space="preserve" text-anchor="middle" x="668.23" y="-128.54" font-family="Helvetica,sans-Serif" font-size="10.00" fill="#999999">Speak Phrase (Ctrl&#45;T)</text>
</g>
<!-- MMController -->
<g id="node4" class="node">
<title>MMController</title>
<path fill="#ffdaff" stroke="black" d="M641,-291.91C641,-291.91 535,-291.91 535,-291.91 529,-291.91 523,-285.91 523,-279.91 523,-279.91 523,-265.91 523,-265.91 523,-259.91 529,-253.91 535,-253.91 535,-253.91 641,-253.91 641,-253.91 647,-253.91 653,-259.91 653,-265.91 653,-265.91 653,-279.91 653,-279.91 653,-285.91 647,-291.91 641,-291.91"/>
<text xml:space="preserve" text-anchor="middle" x="588" y="-274.61" font-family="Helvetica,sans-Serif" font-size="14.00" fill="#111111">MMController</text>
<text xml:space="preserve" text-anchor="middle" x="588" y="-259.61" font-family="Helvetica,sans-Serif" font-size="14.00" fill="#111111">(TTY Orchestrator)</text>
</g>
<!-- MMController&#45;&gt;APP -->
<g id="edge7" class="edge">
<title>MMController&#45;&gt;APP</title>
<path fill="none" stroke="#888888" stroke-width="1.5" d="M585.18,-253.44C583.92,-245.19 582.38,-235.14 580.89,-225.37"/>
<polygon fill="#888888" stroke="#888888" stroke-width="1.5" points="584.36,-224.9 579.39,-215.55 577.44,-225.96 584.36,-224.9"/>
<text xml:space="preserve" text-anchor="middle" x="619.04" y="-229.41" font-family="Helvetica,sans-Serif" font-size="10.00" fill="#999999">Finalized Phrase</text>
</g>
<!-- Buffer -->
<g id="node5" class="node">
<title>Buffer</title>
<path fill="#ffffff" stroke="black" d="M641.12,-414.16C641.12,-414.16 520.88,-414.16 520.88,-414.16 514.88,-414.16 508.88,-408.16 508.88,-402.16 508.88,-402.16 508.88,-388.16 508.88,-388.16 508.88,-382.16 514.88,-376.16 520.88,-376.16 520.88,-376.16 641.12,-376.16 641.12,-376.16 647.12,-376.16 653.12,-382.16 653.12,-388.16 653.12,-388.16 653.12,-402.16 653.12,-402.16 653.12,-408.16 647.12,-414.16 641.12,-414.16"/>
<text xml:space="preserve" text-anchor="middle" x="581" y="-396.86" font-family="Helvetica,sans-Serif" font-size="14.00" fill="#111111">Synchronized Buffer</text>
<text xml:space="preserve" text-anchor="middle" x="581" y="-381.86" font-family="Helvetica,sans-Serif" font-size="14.00" fill="#111111">(Keyboard + Speech)</text>
</g>
<!-- Buffer&#45;&gt;MMController -->
<g id="edge6" class="edge">
<title>Buffer&#45;&gt;MMController</title>
<path fill="none" stroke="#888888" stroke-width="1.5" d="M582.06,-375.9C583.17,-356.92 584.92,-326.89 586.23,-304.32"/>
<polygon fill="#888888" stroke="#888888" stroke-width="1.5" points="589.71,-304.8 586.79,-294.61 582.72,-304.39 589.71,-304.8"/>
<text xml:space="preserve" text-anchor="middle" x="640.75" y="-332.66" font-family="Helvetica,sans-Serif" font-size="10.00" fill="#999999">Merged Character Stream</text>
</g>
<!-- UUIDGuard -->
<g id="node6" class="node">
<title>UUIDGuard</title>
<path fill="#ffffff" stroke="black" d="M454.25,-414.16C454.25,-414.16 355.75,-414.16 355.75,-414.16 349.75,-414.16 343.75,-408.16 343.75,-402.16 343.75,-402.16 343.75,-388.16 343.75,-388.16 343.75,-382.16 349.75,-376.16 355.75,-376.16 355.75,-376.16 454.25,-376.16 454.25,-376.16 460.25,-376.16 466.25,-382.16 466.25,-388.16 466.25,-388.16 466.25,-402.16 466.25,-402.16 466.25,-408.16 460.25,-414.16 454.25,-414.16"/>
<text xml:space="preserve" text-anchor="middle" x="405" y="-396.86" font-family="Helvetica,sans-Serif" font-size="14.00" fill="#111111">UUID Task Guard</text>
<text xml:space="preserve" text-anchor="middle" x="405" y="-381.86" font-family="Helvetica,sans-Serif" font-size="14.00" fill="#111111">(Speech Reset)</text>
</g>
<!-- SpeechEngine -->
<g id="node7" class="node">
<title>SpeechEngine</title>
<path fill="#ffffff" stroke="black" d="M517.62,-68.08C517.62,-68.08 394.38,-68.08 394.38,-68.08 388.38,-68.08 382.38,-62.08 382.38,-56.08 382.38,-56.08 382.38,-42.08 382.38,-42.08 382.38,-36.08 388.38,-30.08 394.38,-30.08 394.38,-30.08 517.62,-30.08 517.62,-30.08 523.62,-30.08 529.62,-36.08 529.62,-42.08 529.62,-42.08 529.62,-56.08 529.62,-56.08 529.62,-62.08 523.62,-68.08 517.62,-68.08"/>
<text xml:space="preserve" text-anchor="middle" x="456" y="-50.78" font-family="Helvetica,sans-Serif" font-size="14.00" fill="#111111">SFSpeechRecognizer</text>
<text xml:space="preserve" text-anchor="middle" x="456" y="-35.78" font-family="Helvetica,sans-Serif" font-size="14.00" fill="#111111">(Dictation Engine)</text>
</g>
<!-- UUIDGuard&#45;&gt;SpeechEngine -->
<g id="edge4" class="edge">
<title>UUIDGuard&#45;&gt;SpeechEngine</title>
<path fill="none" stroke="#888888" stroke-width="1.5" stroke-dasharray="5,2" d="M374.45,-375.86C330.71,-347.09 258.08,-288.28 282.75,-227.66 309.83,-161.14 375.14,-105.93 417.38,-75.53"/>
<polygon fill="#888888" stroke="#888888" stroke-width="1.5" points="419.31,-78.45 425.47,-69.83 415.28,-72.73 419.31,-78.45"/>
<text xml:space="preserve" text-anchor="middle" x="337.88" y="-229.41" font-family="Helvetica,sans-Serif" font-size="10.00" fill="#999999">Clear Buffer / New UUID</text>
</g>
<!-- SpeechEngine&#45;&gt;Buffer -->
<g id="edge3" class="edge">
<title>SpeechEngine&#45;&gt;Buffer</title>
<path fill="none" stroke="#4caf50" stroke-width="1.5" d="M450.42,-68.42C436.34,-118.7 405.07,-260.44 472,-342.16 479.18,-350.93 499.75,-361.58 521.11,-370.94"/>
<polygon fill="#4caf50" stroke="#4caf50" stroke-width="1.5" points="519.63,-374.11 530.2,-374.81 522.37,-367.67 519.63,-374.11"/>
<text xml:space="preserve" text-anchor="middle" x="479.4" y="-229.41" font-family="Helvetica,sans-Serif" font-size="10.00" fill="#999999">Real&#45;time Transcripts</text>
</g>
<!-- Keyboard -->
<g id="node10" class="node">
<title>Keyboard</title>
<path fill="#f1f8e9" stroke="black" d="M1043.88,-433.16C1043.88,-433.16 781.73,-433.16 781.73,-433.16 775.73,-433.16 765.56,-428.85 761.38,-424.54 761.38,-424.54 704.47,-365.78 704.47,-365.78 700.3,-361.47 702.12,-357.16 708.12,-357.16 708.12,-357.16 970.27,-357.16 970.27,-357.16 976.27,-357.16 986.44,-361.47 990.62,-365.78 990.62,-365.78 1047.53,-424.54 1047.53,-424.54 1051.7,-428.85 1049.88,-433.16 1043.88,-433.16"/>
<text xml:space="preserve" text-anchor="middle" x="876" y="-396.86" font-family="Helvetica,sans-Serif" font-size="14.00" fill="#111111">Keyboard</text>
<text xml:space="preserve" text-anchor="middle" x="876" y="-381.86" font-family="Helvetica,sans-Serif" font-size="14.00" fill="#111111">(Nav: Ctrl&#45;B/E, Diff: Ctrl&#45;V)</text>
</g>
<!-- Keyboard&#45;&gt;MMController -->
<g id="edge5" class="edge">
<title>Keyboard&#45;&gt;MMController</title>
<path fill="none" stroke="#4caf50" stroke-width="1.5" d="M786.45,-356.77C739.61,-337.22 683.76,-313.9 643.26,-296.98"/>
<polygon fill="#4caf50" stroke="#4caf50" stroke-width="1.5" points="644.67,-293.78 634.09,-293.16 641.97,-300.24 644.67,-293.78"/>
</g>
<!-- Microphone -->
<g id="node11" class="node">
<title>Microphone</title>
<ellipse fill="#f1f8e9" stroke="black" cx="802" cy="-185.79" rx="120.56" ry="26.87"/>
<text xml:space="preserve" text-anchor="middle" x="802" y="-187.49" font-family="Helvetica,sans-Serif" font-size="14.00" fill="#111111">Microphone</text>
<text xml:space="preserve" text-anchor="middle" x="802" y="-172.49" font-family="Helvetica,sans-Serif" font-size="14.00" fill="#111111">(AVFoundation PCM Tap)</text>
</g>
<!-- Microphone&#45;&gt;SpeechEngine -->
<g id="edge2" class="edge">
<title>Microphone&#45;&gt;SpeechEngine</title>
<path fill="none" stroke="#4caf50" stroke-width="1.5" d="M779.39,-158.97C765.52,-145.07 746.52,-129.16 726,-121.17 689.72,-107.04 588,-125.26 551,-113.17 527.02,-105.33 503.38,-89.67 485.68,-75.91"/>
<polygon fill="#4caf50" stroke="#4caf50" stroke-width="1.5" points="488.25,-73.49 478.26,-69.95 483.87,-78.94 488.25,-73.49"/>
<text xml:space="preserve" text-anchor="middle" x="787.34" y="-128.54" font-family="Helvetica,sans-Serif" font-size="10.00" fill="#999999">PCM Audio</text>
</g>
</g>
</svg>
