<?xml version="1.0" encoding="UTF-8" standalone="no"?>
<!DOCTYPE svg PUBLIC "-//W3C//DTD SVG 1.1//EN"
 "http://www.w3.org/Graphics/SVG/1.1/DTD/svg11.dtd">
<!-- Generated by graphviz version 13.0.0 (20250608.1624)
 -->
<!-- Title: G Pages: 1 -->
<svg width="1394pt" height="764pt"
 viewBox="0.00 0.00 1394.00 764.00" xmlns="http://www.w3.org/2000/svg" xmlns:xlink="http://www.w3.org/1999/xlink">
<g id="graph0" class="graph" transform="scale(1 1) rotate(0) translate(4 759.9)">
<title>G</title>
<text xml:space="preserve" text-anchor="start" x="481.12" y="-732" font-family="Helvetica,sans-Serif" font-weight="bold" font-size="22.00" fill="#f33333">LangQuiz: Unified Headless Architecture</text>
<g id="clust1" class="cluster">
<title>cluster_deployment</title>
<path fill="#f8f9fa" stroke="#607d8b" stroke-width="3" d="M20,-595.75C20,-595.75 628,-595.75 628,-595.75 634,-595.75 640,-601.75 640,-607.75 640,-607.75 640,-705.4 640,-705.4 640,-711.4 634,-717.4 628,-717.4 628,-717.4 20,-717.4 20,-717.4 14,-717.4 8,-711.4 8,-705.4 8,-705.4 8,-607.75 8,-607.75 8,-601.75 14,-595.75 20,-595.75"/>
<text xml:space="preserve" text-anchor="middle" x="324" y="-700.1" font-family="Helvetica,sans-Serif" font-size="14.00" fill="#999999">Deployment and Environment</text>
</g>
<g id="clust2" class="cluster">
<title>cluster_user</title>
<path fill="#f1f8e9" stroke="#4caf50" stroke-width="3" stroke-dasharray="5,2" d="M548,-430.5C548,-430.5 1366,-430.5 1366,-430.5 1372,-430.5 1378,-436.5 1378,-442.5 1378,-442.5 1378,-556.5 1378,-556.5 1378,-562.5 1372,-568.5 1366,-568.5 1366,-568.5 548,-568.5 548,-568.5 542,-568.5 536,-562.5 536,-556.5 536,-556.5 536,-442.5 536,-442.5 536,-436.5 542,-430.5 548,-430.5"/>
<text xml:space="preserve" text-anchor="middle" x="957" y="-551.2" font-family="Helvetica,sans-Serif" font-size="14.00" fill="#999999">User Interaction</text>
</g>
<g id="clust3" class="cluster">
<title>cluster_state</title>
<path fill="#fdf0ff" stroke="magenta" stroke-width="3" stroke-dasharray="1,5" d="M450,-147C450,-147 808,-147 808,-147 814,-147 820,-153 820,-159 820,-159 820,-235 820,-235 820,-241 814,-247 808,-247 808,-247 450,-247 450,-247 444,-247 438,-241 438,-235 438,-235 438,-159 438,-159 438,-153 444,-147 450,-147"/>
<text xml:space="preserve" text-anchor="middle" x="629" y="-229.7" font-family="Helvetica,sans-Serif" font-size="14.00" fill="#999999">Input State Management</text>
</g>
<g id="clust4" class="cluster">
<title>cluster_analysis</title>
<path fill="#e1f5fe" stroke="#b3e5fc" stroke-width="3" d="M215,-8C215,-8 409,-8 409,-8 415,-8 421,-14 421,-20 421,-20 421,-361.25 421,-361.25 421,-367.25 415,-373.25 409,-373.25 409,-373.25 215,-373.25 215,-373.25 209,-373.25 203,-367.25 203,-361.25 203,-361.25 203,-20 203,-20 203,-14 209,-8 215,-8"/>
<text xml:space="preserve" text-anchor="middle" x="312" y="-355.95" font-family="Helvetica,sans-Serif" font-size="14.00" fill="#999999">Linguistic Engine and Persistence</text>
</g>
<g id="clust5" class="cluster">
<title>cluster_frameworks</title>
<path fill="#f5f5fa" stroke="#9090c0" stroke-width="3" d="M840,-148C840,-148 1364,-148 1364,-148 1370,-148 1376,-154 1376,-160 1376,-160 1376,-391.25 1376,-391.25 1376,-397.25 1370,-403.25 1364,-403.25 1364,-403.25 840,-403.25 840,-403.25 834,-403.25 828,-397.25 828,-391.25 828,-391.25 828,-160 828,-160 828,-154 834,-148 840,-148"/>
<text xml:space="preserve" text-anchor="middle" x="1102" y="-385.95" font-family="Helvetica,sans-Serif" font-size="14.00" fill="#999999">Apple Frameworks and AI</text>
</g>
<g id="clust6" class="cluster">
<title>cluster_av_internal</title>
<path fill="#ffffff" stroke="#777777" stroke-width="3" stroke-dasharray="1,5" d="M1216,-274.25C1216,-274.25 1356,-274.25 1356,-274.25 1362,-274.25 1368,-280.25 1368,-286.25 1368,-286.25 1368,-360.25 1368,-360.25 1368,-366.25 1362,-372.25 1356,-372.25 1356,-372.25 1216,-372.25 1216,-372.25 1210,-372.25 1204,-366.25 1204,-360.25 1204,-360.25 1204,-286.25 1204,-286.25 1204,-280.25 1210,-274.25 1216,-274.25"/>
<text xml:space="preserve" text-anchor="middle" x="1286" y="-354.95" font-family="Helvetica,sans-Serif" font-size="14.00" fill="#999999">AVFoundation Engine</text>
</g>
<!-- Launcher -->
<g id="node1" class="node">
<title>Launcher</title>
<polygon fill="#eceff1" stroke="black" points="632.12,-652.57 463.88,-652.57 463.88,-648.57 459.88,-648.57 459.88,-644.57 463.88,-644.57 463.88,-622.57 459.88,-622.57 459.88,-618.57 463.88,-618.57 463.88,-614.57 632.12,-614.57 632.12,-652.57"/>
<polyline fill="none" stroke="black" points="463.88,-648.57 467.88,-648.57 467.88,-644.57 463.88,-644.57"/>
<polyline fill="none" stroke="black" points="463.88,-622.57 467.88,-622.57 467.88,-618.57 463.88,-618.57"/>
<text xml:space="preserve" text-anchor="middle" x="548" y="-635.27" font-family="Helvetica,sans-Serif" font-size="14.00" fill="#111111">launcher.sh</text>
<text xml:space="preserve" text-anchor="middle" x="548" y="-620.27" font-family="Helvetica,sans-Serif" font-size="14.00" fill="#111111">(AppleScript TTY Spawn)</text>
</g>
<!-- Keyboard -->
<g id="node4" class="node">
<title>Keyboard</title>
<path fill="#ffffff" stroke="black" d="M911.99,-514.5C911.99,-514.5 633.76,-514.5 633.76,-514.5 627.76,-514.5 617.47,-510.31 613.18,-506.11 613.18,-506.11 552.6,-446.89 552.6,-446.89 548.31,-442.69 550.01,-438.5 556.01,-438.5 556.01,-438.5 834.24,-438.5 834.24,-438.5 840.24,-438.5 850.53,-442.69 854.82,-446.89 854.82,-446.89 915.4,-506.11 915.4,-506.11 919.69,-510.31 917.99,-514.5 911.99,-514.5"/>
<text xml:space="preserve" text-anchor="middle" x="734" y="-478.2" font-family="Helvetica,sans-Serif" font-size="14.00" fill="#111111">Keyboard</text>
<text xml:space="preserve" text-anchor="middle" x="734" y="-463.2" font-family="Helvetica,sans-Serif" font-size="14.00" fill="#111111">(Jump: Ctrl&#45;B/E, Diff: Ctrl&#45;V)</text>
</g>
<!-- Launcher&#45;&gt;Keyboard -->
<!-- APP -->
<g id="node18" class="node">
<title>APP</title>
<path fill="#ffffcc" stroke="black" stroke-width="3" d="M508.25,-497.88C508.25,-500.5 482.14,-502.62 450,-502.62 417.86,-502.62 391.75,-500.5 391.75,-497.88 391.75,-497.88 391.75,-455.12 391.75,-455.12 391.75,-452.5 417.86,-450.38 450,-450.38 482.14,-450.38 508.25,-452.5 508.25,-455.12 508.25,-455.12 508.25,-497.88 508.25,-497.88"/>
<path fill="none" stroke="black" stroke-width="3" d="M508.25,-497.88C508.25,-495.25 482.14,-493.12 450,-493.12 417.86,-493.12 391.75,-495.25 391.75,-497.88"/>
<text xml:space="preserve" text-anchor="middle" x="450" y="-478.2" font-family="Helvetica,sans-Serif" font-size="14.00" fill="#111111">Main Application</text>
<text xml:space="preserve" text-anchor="middle" x="450" y="-463.2" font-family="Helvetica,sans-Serif" font-size="14.00" fill="#111111">(ios/cli/headless)</text>
</g>
<!-- Launcher&#45;&gt;APP -->
<g id="edge3" class="edge">
<title>Launcher&#45;&gt;APP</title>
<path fill="none" stroke="#888888" stroke-width="1.5" d="M536.37,-614.18C520.84,-589.6 492.97,-545.5 473.09,-514.04"/>
<polygon fill="#888888" stroke="#888888" stroke-width="1.5" points="476.2,-512.4 467.9,-505.82 470.28,-516.14 476.2,-512.4"/>
<text xml:space="preserve" text-anchor="middle" x="570.42" y="-578.25" font-family="Helvetica,sans-Serif" font-size="10.00" fill="#999999">APP_LAUNCH_MODE</text>
</g>
<!-- AppBundle -->
<g id="node2" class="node">
<title>AppBundle</title>
<polygon fill="#eceff1" stroke="black" points="187.62,-652.57 184.62,-656.57 163.62,-656.57 160.62,-652.57 16.38,-652.57 16.38,-614.57 187.62,-614.57 187.62,-652.57"/>
<text xml:space="preserve" text-anchor="middle" x="102" y="-635.27" font-family="Helvetica,sans-Serif" font-size="14.00" fill="#111111">LangQuiz.app</text>
<text xml:space="preserve" text-anchor="middle" x="102" y="-620.27" font-family="Helvetica,sans-Serif" font-size="14.00" fill="#111111">(Bundle&#45;based Discovery)</text>
</g>
<!-- FileDataManager -->
<g id="node10" class="node">
<title>FileDataManager</title>
<path fill="#fff9c4" stroke="black" d="M371.62,-319.25C371.62,-319.25 266.38,-319.25 266.38,-319.25 260.38,-319.25 254.38,-313.25 254.38,-307.25 254.38,-307.25 254.38,-293.25 254.38,-293.25 254.38,-287.25 260.38,-281.25 266.38,-281.25 266.38,-281.25 371.62,-281.25 371.62,-281.25 377.62,-281.25 383.62,-287.25 383.62,-293.25 383.62,-293.25 383.62,-307.25 383.62,-307.25 383.62,-313.25 377.62,-319.25 371.62,-319.25"/>
<text xml:space="preserve" text-anchor="middle" x="319" y="-301.95" font-family="Helvetica,sans-Serif" font-size="14.00" fill="#111111">FileDataManager</text>
<text xml:space="preserve" text-anchor="middle" x="319" y="-286.95" font-family="Helvetica,sans-Serif" font-size="14.00" fill="#111111">(Error Persistence)</text>
</g>
<!-- AppBundle&#45;&gt;FileDataManager -->
<g id="edge4" class="edge">
<title>AppBundle&#45;&gt;FileDataManager</title>
<path fill="none" stroke="#888888" stroke-width="1.5" d="M113.98,-614.29C149.91,-559.42 257.03,-395.87 300.43,-329.61"/>
<polygon fill="#888888" stroke="#888888" stroke-width="1.5" points="303.27,-331.66 305.82,-321.38 297.41,-327.83 303.27,-331.66"/>
<text xml:space="preserve" text-anchor="middle" x="270.7" y="-472.62" font-family="Helvetica,sans-Serif" font-size="10.00" fill="#999999">Bundle.main Path</text>
</g>
<!-- Entitlements -->
<g id="node3" class="node">
<title>Entitlements</title>
<path fill="#eceff1" stroke="black" d="M421.29,-635.35C421.29,-635.35 414.56,-643.76 414.56,-643.76 411.19,-647.96 402.48,-652.9 397.14,-653.63 397.14,-653.63 336.68,-661.93 336.68,-661.93 331.34,-662.66 320.66,-662.66 315.32,-661.93 315.32,-661.93 254.86,-653.63 254.86,-653.63 249.52,-652.9 240.81,-647.96 237.44,-643.76 237.44,-643.76 230.71,-635.35 230.71,-635.35 227.34,-631.14 229.05,-625.12 234.12,-623.31 234.12,-623.31 270.45,-610.33 270.45,-610.33 275.52,-608.52 285.98,-606.7 291.37,-606.7 291.37,-606.7 360.63,-606.7 360.63,-606.7 366.02,-606.7 376.48,-608.52 381.55,-610.33 381.55,-610.33 417.88,-623.31 417.88,-623.31 422.95,-625.12 424.66,-631.14 421.29,-635.35"/>
<text xml:space="preserve" text-anchor="middle" x="326" y="-635.27" font-family="Helvetica,sans-Serif" font-size="14.00" fill="#111111">Hardened Runtime</text>
<text xml:space="preserve" text-anchor="middle" x="326" y="-620.27" font-family="Helvetica,sans-Serif" font-size="14.00" fill="#111111">(Code Signing)</text>
</g>
<!-- Entitlements&#45;&gt;APP -->
<g id="edge5" class="edge">
<title>Entitlements&#45;&gt;APP</title>
<path fill="none" stroke="#888888" stroke-width="1.5" d="M347.03,-606.27C367.43,-580.76 398.54,-541.86 421.22,-513.49"/>
<polygon fill="#888888" stroke="#888888" stroke-width="1.5" points="423.93,-515.7 427.44,-505.71 418.47,-511.33 423.93,-515.7"/>
<text xml:space="preserve" text-anchor="middle" x="408.65" y="-578.25" font-family="Helvetica,sans-Serif" font-size="10.00" fill="#999999">TCC Permissions</text>
</g>
<!-- MMController -->
<g id="node7" class="node">
<title>MMController</title>
<path fill="#ffdaff" stroke="black" stroke-width="2" d="M540.5,-318.25C540.5,-318.25 449.5,-318.25 449.5,-318.25 443.5,-318.25 437.5,-312.25 437.5,-306.25 437.5,-306.25 437.5,-294.25 437.5,-294.25 437.5,-288.25 443.5,-282.25 449.5,-282.25 449.5,-282.25 540.5,-282.25 540.5,-282.25 546.5,-282.25 552.5,-288.25 552.5,-294.25 552.5,-294.25 552.5,-306.25 552.5,-306.25 552.5,-312.25 546.5,-318.25 540.5,-318.25"/>
<text xml:space="preserve" text-anchor="start" x="450.75" y="-299.95" font-family="Helvetica,sans-Serif" font-weight="bold" font-size="14.00" fill="#111111">MMController</text>
<text xml:space="preserve" text-anchor="start" x="445.5" y="-289.75" font-family="Helvetica,sans-Serif" font-size="10.00" fill="#111111">Raw TTY Orchestrator</text>
</g>
<!-- Keyboard&#45;&gt;MMController -->
<g id="edge6" class="edge">
<title>Keyboard&#45;&gt;MMController</title>
<path fill="none" stroke="#4caf50" stroke-width="1.5" d="M728.49,-438.28C725.68,-428.69 721.42,-418.92 715,-411.25 676.28,-365.04 613.36,-336.34 564.7,-319.89"/>
<polygon fill="#4caf50" stroke="#4caf50" stroke-width="1.5" points="566.05,-316.65 555.45,-316.88 563.88,-323.31 566.05,-316.65"/>
<text xml:space="preserve" text-anchor="middle" x="754.2" y="-413" font-family="Helvetica,sans-Serif" font-size="10.00" fill="#999999">termios events</text>
</g>
<!-- Keyboard&#45;&gt;MMController -->
<!-- Microphone -->
<g id="node5" class="node">
<title>Microphone</title>
<ellipse fill="#ffffff" stroke="black" cx="1296" cy="-476.5" rx="73.89" ry="26.87"/>
<text xml:space="preserve" text-anchor="middle" x="1296" y="-478.2" font-family="Helvetica,sans-Serif" font-size="14.00" fill="#111111">Microphone</text>
<text xml:space="preserve" text-anchor="middle" x="1296" y="-463.2" font-family="Helvetica,sans-Serif" font-size="14.00" fill="#111111">(Speech Input)</text>
</g>
<!-- InputNode -->
<g id="node17" class="node">
<title>InputNode</title>
<path fill="#f5f5f5" stroke="black" d="M1347.62,-318.25C1347.62,-318.25 1224.38,-318.25 1224.38,-318.25 1218.38,-318.25 1212.38,-312.25 1212.38,-306.25 1212.38,-306.25 1212.38,-294.25 1212.38,-294.25 1212.38,-288.25 1218.38,-282.25 1224.38,-282.25 1224.38,-282.25 1347.62,-282.25 1347.62,-282.25 1353.62,-282.25 1359.62,-288.25 1359.62,-294.25 1359.62,-294.25 1359.62,-306.25 1359.62,-306.25 1359.62,-312.25 1353.62,-318.25 1347.62,-318.25"/>
<text xml:space="preserve" text-anchor="middle" x="1286" y="-294.45" font-family="Helvetica,sans-Serif" font-size="14.00" fill="#111111">InputNode (PCM Tap)</text>
</g>
<!-- Microphone&#45;&gt;InputNode -->
<g id="edge7" class="edge">
<title>Microphone&#45;&gt;InputNode</title>
<path fill="none" stroke="#4caf50" stroke-width="1.5" d="M1294.5,-449.41C1292.68,-417.56 1289.59,-363.84 1287.68,-330.59"/>
<polygon fill="#4caf50" stroke="#4caf50" stroke-width="1.5" points="1291.19,-330.57 1287.12,-320.79 1284.2,-330.97 1291.19,-330.57"/>
</g>
<!-- Speaker -->
<g id="node6" class="node">
<title>Speaker</title>
<path fill="#ffffff" stroke="black" d="M1018.71,-438.5C1018.71,-438.5 1127.29,-438.5 1127.29,-438.5 1133.29,-438.5 1142.45,-443.6 1145.62,-448.69 1145.62,-448.69 1180.17,-504.31 1180.17,-504.31 1183.33,-509.4 1180.5,-514.5 1174.5,-514.5 1174.5,-514.5 971.5,-514.5 971.5,-514.5 965.5,-514.5 962.67,-509.4 965.83,-504.31 965.83,-504.31 1000.38,-448.69 1000.38,-448.69 1003.55,-443.6 1012.71,-438.5 1018.71,-438.5"/>
<text xml:space="preserve" text-anchor="middle" x="1073" y="-478.2" font-family="Helvetica,sans-Serif" font-size="14.00" fill="#111111">Speaker</text>
<text xml:space="preserve" text-anchor="middle" x="1073" y="-463.2" font-family="Helvetica,sans-Serif" font-size="14.00" fill="#111111">(TTS Feedback)</text>
</g>
<!-- Buffer -->
<g id="node8" class="node">
<title>Buffer</title>
<path fill="#ffffff" stroke="black" d="M800.25,-193C800.25,-193 665.75,-193 665.75,-193 659.75,-193 653.75,-187 653.75,-181 653.75,-181 653.75,-167 653.75,-167 653.75,-161 659.75,-155 665.75,-155 665.75,-155 800.25,-155 800.25,-155 806.25,-155 812.25,-161 812.25,-167 812.25,-167 812.25,-181 812.25,-181 812.25,-187 806.25,-193 800.25,-193"/>
<text xml:space="preserve" text-anchor="middle" x="733" y="-175.7" font-family="Helvetica,sans-Serif" font-size="14.00" fill="#111111">Synchronized Buffer</text>
<text xml:space="preserve" text-anchor="middle" x="733" y="-160.7" font-family="Helvetica,sans-Serif" font-size="14.00" fill="#111111">(Cursor and Arrow Nav)</text>
</g>
<!-- MMController&#45;&gt;Buffer -->
<g id="edge9" class="edge">
<title>MMController&#45;&gt;Buffer</title>
<path fill="none" stroke="#888888" stroke-width="1.5" d="M553.3,-290.75C577.06,-285.76 604.24,-278.04 627,-266.25 658.41,-249.98 688.4,-222.68 708.41,-202.17"/>
<polygon fill="#888888" stroke="#888888" stroke-width="1.5" points="710.95,-204.58 715.31,-194.93 705.88,-199.75 710.95,-204.58"/>
<text xml:space="preserve" text-anchor="middle" x="676.76" y="-256.75" font-family="Helvetica,sans-Serif" font-size="10.00" fill="#999999">Manage Cursor</text>
</g>
<!-- UUIDGuard -->
<g id="node9" class="node">
<title>UUIDGuard</title>
<path fill="#ffffff" stroke="black" d="M606,-193C606,-193 458,-193 458,-193 452,-193 446,-187 446,-181 446,-181 446,-167 446,-167 446,-161 452,-155 458,-155 458,-155 606,-155 606,-155 612,-155 618,-161 618,-167 618,-167 618,-181 618,-181 618,-187 612,-193 606,-193"/>
<text xml:space="preserve" text-anchor="middle" x="532" y="-175.7" font-family="Helvetica,sans-Serif" font-size="14.00" fill="#111111">UUID Task Guard</text>
<text xml:space="preserve" text-anchor="middle" x="532" y="-160.7" font-family="Helvetica,sans-Serif" font-size="14.00" fill="#111111">(Speech and Clear Reset)</text>
</g>
<!-- MMController&#45;&gt;UUIDGuard -->
<g id="edge10" class="edge">
<title>MMController&#45;&gt;UUIDGuard</title>
<path fill="none" stroke="#888888" stroke-width="1.5" d="M490.93,-281.4C489.72,-273.26 489.2,-263.55 491.25,-255 495.57,-237 504.65,-218.49 513.14,-203.81"/>
<polygon fill="#888888" stroke="#888888" stroke-width="1.5" points="516.08,-205.72 518.26,-195.35 510.09,-202.1 516.08,-205.72"/>
<text xml:space="preserve" text-anchor="middle" x="523.12" y="-256.75" font-family="Helvetica,sans-Serif" font-size="10.00" fill="#999999">Rotate TaskID</text>
</g>
<!-- Normalization -->
<g id="node11" class="node">
<title>Normalization</title>
<path fill="#ffffff" stroke="black" d="M398.25,-193C398.25,-193 239.75,-193 239.75,-193 233.75,-193 227.75,-187 227.75,-181 227.75,-181 227.75,-167 227.75,-167 227.75,-161 233.75,-155 239.75,-155 239.75,-155 398.25,-155 398.25,-155 404.25,-155 410.25,-161 410.25,-167 410.25,-167 410.25,-181 410.25,-181 410.25,-187 404.25,-193 398.25,-193"/>
<text xml:space="preserve" text-anchor="middle" x="319" y="-175.7" font-family="Helvetica,sans-Serif" font-size="14.00" fill="#111111">Normalization</text>
<text xml:space="preserve" text-anchor="middle" x="319" y="-160.7" font-family="Helvetica,sans-Serif" font-size="14.00" fill="#111111">(EsZett and Ignored Words)</text>
</g>
<!-- MMController&#45;&gt;Normalization -->
<!-- Recognition -->
<g id="node15" class="node">
<title>Recognition</title>
<path fill="#ffffff" stroke="black" d="M1031.62,-192C1031.62,-192 908.38,-192 908.38,-192 902.38,-192 896.38,-186 896.38,-180 896.38,-180 896.38,-168 896.38,-168 896.38,-162 902.38,-156 908.38,-156 908.38,-156 1031.62,-156 1031.62,-156 1037.62,-156 1043.62,-162 1043.62,-168 1043.62,-168 1043.62,-180 1043.62,-180 1043.62,-186 1037.62,-192 1031.62,-192"/>
<text xml:space="preserve" text-anchor="middle" x="970" y="-168.2" font-family="Helvetica,sans-Serif" font-size="14.00" fill="#111111">SFSpeechRecognizer</text>
</g>
<!-- MMController&#45;&gt;Recognition -->
<g id="edge11" class="edge">
<title>MMController&#45;&gt;Recognition</title>
<path fill="none" stroke="magenta" stroke-width="1.5" d="M553.42,-296.03C621.21,-290.96 735.63,-278.22 829,-247 865.47,-234.8 904.2,-214.43 931.82,-198.46"/>
<polygon fill="magenta" stroke="magenta" stroke-width="1.5" points="933.39,-201.6 940.24,-193.51 929.85,-195.56 933.39,-201.6"/>
<text xml:space="preserve" text-anchor="middle" x="839.62" y="-256.75" font-family="Helvetica,sans-Serif" font-size="10.00" fill="#999999">Lifecycle Control</text>
</g>
<!-- Buffer&#45;&gt;Normalization -->
<g id="edge13" class="edge">
<title>Buffer&#45;&gt;Normalization</title>
<path fill="none" stroke="#888888" stroke-width="1.5" d="M714.28,-193.18C696.12,-210.3 666.84,-234.16 636,-244.15 548.47,-272.48 517.32,-269.91 429,-244.15 399.85,-235.64 371.06,-216.81 350.25,-200.8"/>
<polygon fill="#888888" stroke="#888888" stroke-width="1.5" points="352.5,-198.11 342.49,-194.63 348.15,-203.59 352.5,-198.11"/>
<text xml:space="preserve" text-anchor="middle" x="591" y="-256.75" font-family="Helvetica,sans-Serif" font-size="10.00" fill="#999999">Raw Phrase</text>
</g>
<!-- FileDataManager&#45;&gt;Normalization -->
<g id="edge16" class="edge">
<title>FileDataManager&#45;&gt;Normalization</title>
<path fill="none" stroke="#888888" stroke-width="1.5" d="M319,-280.92C319,-261.1 319,-229.17 319,-205.55"/>
<polygon fill="#888888" stroke="#888888" stroke-width="1.5" points="322.5,-205.68 319,-195.68 315.5,-205.68 322.5,-205.68"/>
<text xml:space="preserve" text-anchor="middle" x="357.25" y="-256.75" font-family="Helvetica,sans-Serif" font-size="10.00" fill="#999999">Load Rules/Retry</text>
</g>
<!-- WordAlignment -->
<g id="node12" class="node">
<title>WordAlignment</title>
<path fill="#ffffff" stroke="black" d="M399.5,-123C399.5,-123 224.5,-123 224.5,-123 218.5,-123 212.5,-117 212.5,-111 212.5,-111 212.5,-97 212.5,-97 212.5,-91 218.5,-85 224.5,-85 224.5,-85 399.5,-85 399.5,-85 405.5,-85 411.5,-91 411.5,-97 411.5,-97 411.5,-111 411.5,-111 411.5,-117 405.5,-123 399.5,-123"/>
<text xml:space="preserve" text-anchor="middle" x="312" y="-105.7" font-family="Helvetica,sans-Serif" font-size="14.00" fill="#111111">Levenshtein Alignment</text>
<text xml:space="preserve" text-anchor="middle" x="312" y="-90.7" font-family="Helvetica,sans-Serif" font-size="14.00" fill="#111111">(Typo and Homonym Support)</text>
</g>
<!-- Normalization&#45;&gt;WordAlignment -->
<g id="edge1" class="edge">
<title>Normalization&#45;&gt;WordAlignment</title>
<path fill="none" stroke="#888888" stroke-width="1.5" d="M317.12,-154.78C316.51,-148.83 315.81,-142.06 315.14,-135.47"/>
<polygon fill="#888888" stroke="#888888" stroke-width="1.5" points="318.62,-135.12 314.11,-125.53 311.66,-135.84 318.62,-135.12"/>
</g>
<!-- Normalization&#45;&gt;InputNode -->
<!-- DiffEngine -->
<g id="node13" class="node">
<title>DiffEngine</title>
<path fill="#ffccbc" stroke="black" d="M366.5,-54C366.5,-54 233.5,-54 233.5,-54 227.5,-54 221.5,-48 221.5,-42 221.5,-42 221.5,-28 221.5,-28 221.5,-22 227.5,-16 233.5,-16 233.5,-16 366.5,-16 366.5,-16 372.5,-16 378.5,-22 378.5,-28 378.5,-28 378.5,-42 378.5,-42 378.5,-48 372.5,-54 366.5,-54"/>
<text xml:space="preserve" text-anchor="middle" x="300" y="-36.7" font-family="Helvetica,sans-Serif" font-size="14.00" fill="#111111">Character&#45;Level Diff</text>
<text xml:space="preserve" text-anchor="middle" x="300" y="-21.7" font-family="Helvetica,sans-Serif" font-size="14.00" fill="#111111">(ANSI Visual Compare)</text>
</g>
<!-- WordAlignment&#45;&gt;DiffEngine -->
<g id="edge2" class="edge">
<title>WordAlignment&#45;&gt;DiffEngine</title>
<path fill="none" stroke="#888888" stroke-width="1.5" d="M308.72,-84.69C307.69,-78.93 306.52,-72.41 305.38,-66.06"/>
<polygon fill="#888888" stroke="#888888" stroke-width="1.5" points="308.88,-65.75 303.68,-56.52 301.99,-66.98 308.88,-65.75"/>
</g>
<!-- DiffEngine&#45;&gt;APP -->
<g id="edge14" class="edge">
<title>DiffEngine&#45;&gt;APP</title>
<path fill="none" stroke="#888888" stroke-width="1.5" d="M221.39,-38.76C178.08,-44.99 133,-61.45 133,-103 133,-301.25 133,-301.25 133,-301.25 133,-401.55 222.94,-398.5 318,-430.5 337.85,-437.18 359.36,-444.49 379.14,-451.23"/>
<polygon fill="#888888" stroke="#888888" stroke-width="1.5" points="377.82,-454.48 388.42,-454.4 380.08,-447.85 377.82,-454.48"/>
<text xml:space="preserve" text-anchor="middle" x="162.25" y="-170.12" font-family="Helvetica,sans-Serif" font-size="10.00" fill="#999999">Visual Result</text>
</g>
<!-- TTSManager -->
<g id="node14" class="node">
<title>TTSManager</title>
<path fill="#ffffff" stroke="black" d="M1164.12,-319.25C1164.12,-319.25 1001.88,-319.25 1001.88,-319.25 995.88,-319.25 989.88,-313.25 989.88,-307.25 989.88,-307.25 989.88,-293.25 989.88,-293.25 989.88,-287.25 995.88,-281.25 1001.88,-281.25 1001.88,-281.25 1164.12,-281.25 1164.12,-281.25 1170.12,-281.25 1176.12,-287.25 1176.12,-293.25 1176.12,-293.25 1176.12,-307.25 1176.12,-307.25 1176.12,-313.25 1170.12,-319.25 1164.12,-319.25"/>
<text xml:space="preserve" text-anchor="middle" x="1083" y="-301.95" font-family="Helvetica,sans-Serif" font-size="14.00" fill="#111111">TTSManager</text>
<text xml:space="preserve" text-anchor="middle" x="1083" y="-286.95" font-family="Helvetica,sans-Serif" font-size="14.00" fill="#111111">(Async and RunLoop Pump)</text>
</g>
<!-- TTSManager&#45;&gt;Speaker -->
<g id="edge20" class="edge">
<title>TTSManager&#45;&gt;Speaker</title>
<path fill="none" stroke="#4caf50" stroke-width="1.5" d="M1081.96,-319.36C1080.53,-344.36 1077.89,-390.38 1075.84,-426"/>
<polygon fill="#4caf50" stroke="#4caf50" stroke-width="1.5" points="1072.35,-425.67 1075.28,-435.85 1079.34,-426.07 1072.35,-425.67"/>
</g>
<!-- Recognition&#45;&gt;Buffer -->
<g id="edge12" class="edge">
<title>Recognition&#45;&gt;Buffer</title>
<path fill="none" stroke="magenta" stroke-width="1.5" d="M896.23,-174C873.62,-174 848.46,-174 824.79,-174"/>
<polygon fill="magenta" stroke="magenta" stroke-width="1.5" points="824.85,-170.5 814.85,-174 824.85,-177.5 824.85,-170.5"/>
<text xml:space="preserve" text-anchor="middle" x="854.31" y="-178.75" font-family="Helvetica,sans-Serif" font-size="10.00" fill="#999999">Transcripts</text>
</g>
<!-- Ollama -->
<g id="node16" class="node">
<title>Ollama</title>
<path fill="#ffffff" stroke="black" d="M941.62,-319.25C941.62,-319.25 848.38,-319.25 848.38,-319.25 842.38,-319.25 836.38,-313.25 836.38,-307.25 836.38,-307.25 836.38,-293.25 836.38,-293.25 836.38,-287.25 842.38,-281.25 848.38,-281.25 848.38,-281.25 941.62,-281.25 941.62,-281.25 947.62,-281.25 953.62,-287.25 953.62,-293.25 953.62,-293.25 953.62,-307.25 953.62,-307.25 953.62,-313.25 947.62,-319.25 941.62,-319.25"/>
<text xml:space="preserve" text-anchor="middle" x="895" y="-301.95" font-family="Helvetica,sans-Serif" font-size="14.00" fill="#111111">Grammar Check</text>
<text xml:space="preserve" text-anchor="middle" x="895" y="-286.95" font-family="Helvetica,sans-Serif" font-size="14.00" fill="#111111">(Local API)</text>
</g>
<!-- Ollama&#45;&gt;APP -->
<g id="edge15" class="edge">
<title>Ollama&#45;&gt;APP</title>
<path fill="none" stroke="#888888" stroke-width="1.5" d="M835.89,-319.73C738.48,-350.23 554.21,-408.05 547.5,-411.25 529.31,-419.91 510.55,-431.53 494.41,-442.51"/>
<polygon fill="#888888" stroke="#888888" stroke-width="1.5" points="492.81,-439.36 486.59,-447.93 496.8,-445.11 492.81,-439.36"/>
<text xml:space="preserve" text-anchor="middle" x="575.25" y="-413" font-family="Helvetica,sans-Serif" font-size="10.00" fill="#999999">AI Feedback</text>
</g>
<!-- InputNode&#45;&gt;Recognition -->
<g id="edge8" class="edge">
<title>InputNode&#45;&gt;Recognition</title>
<path fill="none" stroke="blue" stroke-width="1.5" d="M1241.73,-281.84C1185.12,-259.59 1087.08,-221.04 1025.53,-196.83"/>
<polygon fill="blue" stroke="blue" stroke-width="1.5" points="1027.18,-193.72 1016.59,-193.32 1024.62,-200.24 1027.18,-193.72"/>
<text xml:space="preserve" text-anchor="middle" x="1221.88" y="-256.75" font-family="Helvetica,sans-Serif" font-size="10.00" fill="#999999">installTap</text>
</g>
<!-- APP&#45;&gt;MMController -->
<g id="edge17" class="edge">
<title>APP&#45;&gt;MMController</title>
<path fill="none" stroke="#888888" stroke-width="1.5" d="M449.7,-449.08C449.62,-440.59 449.54,-431.15 449.5,-422.5 449.48,-417.5 448.53,-416.15 449.5,-411.25 455.23,-382.38 468.67,-351.59 479.46,-329.95"/>
<polygon fill="#888888" stroke="#888888" stroke-width="1.5" points="482.47,-331.75 483.93,-321.26 476.25,-328.55 482.47,-331.75"/>
<text xml:space="preserve" text-anchor="middle" x="456.25" y="-413" font-family="Helvetica,sans-Serif" font-size="10.00" fill="#999999">Init</text>
</g>
<!-- APP&#45;&gt;FileDataManager -->
<g id="edge19" class="edge">
<title>APP&#45;&gt;FileDataManager</title>
<path fill="none" stroke="#888888" stroke-width="1.5" d="M409.49,-449.75C399.04,-441.86 388.39,-432.57 380,-422.5 356.96,-394.83 339.69,-357 329.51,-330.99"/>
<polygon fill="#888888" stroke="#888888" stroke-width="1.5" points="332.83,-329.85 326.02,-321.73 326.28,-332.32 332.83,-329.85"/>
<text xml:space="preserve" text-anchor="middle" x="410" y="-413" font-family="Helvetica,sans-Serif" font-size="10.00" fill="#999999">Persist Errors</text>
</g>
<!-- APP&#45;&gt;TTSManager -->
<g id="edge18" class="edge">
<title>APP&#45;&gt;TTSManager</title>
<path fill="none" stroke="#888888" stroke-width="1.5" d="M487.24,-449.41C499.4,-442.1 513.3,-434.94 527,-430.5 561.41,-419.34 572.68,-430.33 608,-422.5 622.72,-419.24 625.17,-413.96 640,-411.25 676.3,-404.6 937.78,-417.06 972,-403.25 1009.75,-388.01 1042.61,-353.63 1062.58,-328.99"/>
<polygon fill="#888888" stroke="#888888" stroke-width="1.5" points="1065.26,-331.25 1068.68,-321.23 1059.75,-326.93 1065.26,-331.25"/>
<text xml:space="preserve" text-anchor="middle" x="673" y="-413" font-family="Helvetica,sans-Serif" font-size="10.00" fill="#999999">Task and Drain</text>
</g>
</g>
</svg>
