<?xml version="1.0" encoding="UTF-8" standalone="no"?>
<!DOCTYPE svg PUBLIC "-//W3C//DTD SVG 1.1//EN"
 "http://www.w3.org/Graphics/SVG/1.1/DTD/svg11.dtd">
<!-- Generated by graphviz version 13.0.0 (20250608.1624)
 -->
<!-- Title: G Pages: 1 -->
<svg width="963pt" height="543pt"
 viewBox="0.00 0.00 963.00 543.00" xmlns="http://www.w3.org/2000/svg" xmlns:xlink="http://www.w3.org/1999/xlink">
<g id="graph0" class="graph" transform="scale(1 1) rotate(0) translate(4 538.66)">
<title>G</title>
<text xml:space="preserve" text-anchor="start" x="245.38" y="-510.76" font-family="Helvetica,sans-Serif" font-weight="bold" font-size="22.00" fill="#f33333">LangQuiz: Bidirectional Orchestration (2026)</text>
<g id="clust1" class="cluster">
<title>cluster_viewer</title>
<path fill="#f1f8e9" stroke="#388e3c" stroke-width="3" d="M20,-268.34C20,-268.34 252,-268.34 252,-268.34 258,-268.34 264,-274.34 264,-280.34 264,-280.34 264,-354.34 264,-354.34 264,-360.34 258,-366.34 252,-366.34 252,-366.34 20,-366.34 20,-366.34 14,-366.34 8,-360.34 8,-354.34 8,-354.34 8,-280.34 8,-280.34 8,-274.34 14,-268.34 20,-268.34"/>
<text xml:space="preserve" text-anchor="middle" x="136" y="-349.04" font-family="Helvetica,sans-Serif" font-size="14.00">Optional UI Extension (Apple Container)</text>
</g>
<g id="clust2" class="cluster">
<title>cluster_headless_core</title>
<path fill="#eceff1" stroke="#455a64" stroke-width="2" d="M318,-97.09C318,-97.09 721,-97.09 721,-97.09 727,-97.09 733,-103.09 733,-109.09 733,-109.09 733,-388.31 733,-388.31 733,-394.31 727,-400.31 721,-400.31 721,-400.31 318,-400.31 318,-400.31 312,-400.31 306,-394.31 306,-388.31 306,-388.31 306,-109.09 306,-109.09 306,-103.09 312,-97.09 318,-97.09"/>
<text xml:space="preserve" text-anchor="middle" x="519.5" y="-383.01" font-family="Helvetica,sans-Serif" font-size="14.00">Swift Native Engine (Headless Master)</text>
</g>
<g id="clust3" class="cluster">
<title>cluster_trainer</title>
<polygon fill="#e1f152" stroke="#fff9c4" stroke-width="2" points="348,-265.37 348,-369.31 725,-369.31 725,-265.37 348,-265.37"/>
<text xml:space="preserve" text-anchor="middle" x="536.5" y="-352.01" font-family="Helvetica,sans-Serif" font-size="14.00">Trainer (Domain &amp; Ownership)</text>
</g>
<g id="clust4" class="cluster">
<title>cluster_mm_controller</title>
<polygon fill="none" stroke="#607d8b" stroke-width="2" stroke-dasharray="5,2" points="487,-105.09 487,-228.09 725,-228.09 725,-105.09 487,-105.09"/>
<text xml:space="preserve" text-anchor="middle" x="606" y="-210.79" font-family="Helvetica,sans-Serif" font-size="14.00">MMController (Blocking I/O Gate)</text>
</g>
<g id="clust5" class="cluster">
<title>cluster_remote</title>
<polygon fill="none" stroke="#1976d2" stroke-width="2" stroke-dasharray="1,5" points="314,-117.59 314,-215.59 475,-215.59 475,-117.59 314,-117.59"/>
<text xml:space="preserve" text-anchor="middle" x="394.5" y="-198.29" font-family="Helvetica,sans-Serif" font-size="14.00">RemoteControlManager</text>
</g>
<g id="clust6" class="cluster">
<title>cluster_hardware</title>
<polygon fill="#f4f8ff" stroke="#444444" stroke-dasharray="5,2" points="779,-8 779,-378.84 947,-378.84 947,-8 779,-8"/>
<text xml:space="preserve" text-anchor="middle" x="863" y="-361.54" font-family="Helvetica,sans-Serif" font-size="14.00">Hardware Layer</text>
</g>
<!-- OllamaAPI -->
<g id="node1" class="node">
<title>OllamaAPI</title>
<path fill="#fff3e0" stroke="black" d="M225.46,-30.78C225.46,-30.78 225.46,-37.22 225.46,-37.22 225.46,-40.45 222.46,-44.83 219.45,-45.99 219.45,-45.99 196.06,-55.02 196.06,-55.02 193.05,-56.18 186.82,-57.34 183.6,-57.34 183.6,-57.34 146.4,-57.34 146.4,-57.34 143.18,-57.34 136.95,-56.18 133.94,-55.02 133.94,-55.02 110.55,-45.99 110.55,-45.99 107.54,-44.83 104.54,-40.45 104.54,-37.22 104.54,-37.22 104.54,-30.78 104.54,-30.78 104.54,-27.55 107.54,-23.17 110.55,-22.01 110.55,-22.01 133.94,-12.98 133.94,-12.98 136.95,-11.82 143.18,-10.66 146.4,-10.66 146.4,-10.66 183.6,-10.66 183.6,-10.66 186.82,-10.66 193.05,-11.82 196.06,-12.98 196.06,-12.98 219.45,-22.01 219.45,-22.01 222.46,-23.17 225.46,-27.55 225.46,-30.78"/>
<path fill="none" stroke="black" d="M229.46,-29.86C229.46,-29.86 229.46,-38.14 229.46,-38.14 229.46,-42.28 225.6,-47.9 221.74,-49.39 221.74,-49.39 198.51,-58.36 198.51,-58.36 194.65,-59.85 186.65,-61.34 182.52,-61.34 182.52,-61.34 147.48,-61.34 147.48,-61.34 143.35,-61.34 135.35,-59.85 131.49,-58.36 131.49,-58.36 108.26,-49.39 108.26,-49.39 104.4,-47.9 100.54,-42.28 100.54,-38.14 100.54,-38.14 100.54,-29.86 100.54,-29.86 100.54,-25.72 104.4,-20.1 108.26,-18.61 108.26,-18.61 131.49,-9.64 131.49,-9.64 135.35,-8.15 143.35,-6.66 147.48,-6.66 147.48,-6.66 182.52,-6.66 182.52,-6.66 186.65,-6.66 194.65,-8.15 198.51,-9.64 198.51,-9.64 221.74,-18.61 221.74,-18.61 225.6,-20.1 229.46,-25.72 229.46,-29.86"/>
<text xml:space="preserve" text-anchor="middle" x="165" y="-35.75" font-family="Helvetica,sans-Serif" font-size="10.00" fill="#111111">Ollama.app</text>
<text xml:space="preserve" text-anchor="middle" x="165" y="-24.5" font-family="Helvetica,sans-Serif" font-size="10.00" fill="#111111">(Host Service)</text>
</g>
<!-- WebBrowser -->
<g id="node2" class="node">
<title>WebBrowser</title>
<polygon fill="#ffffff" stroke="black" points="230.75,-161.59 99.25,-161.59 99.25,-157.59 95.25,-157.59 95.25,-153.59 99.25,-153.59 99.25,-133.59 95.25,-133.59 95.25,-129.59 99.25,-129.59 99.25,-125.59 230.75,-125.59 230.75,-161.59"/>
<polyline fill="none" stroke="black" points="99.25,-157.59 103.25,-157.59 103.25,-153.59 99.25,-153.59"/>
<polyline fill="none" stroke="black" points="99.25,-133.59 103.25,-133.59 103.25,-129.59 99.25,-129.59"/>
<text xml:space="preserve" text-anchor="middle" x="165" y="-145.34" font-family="Helvetica,sans-Serif" font-size="10.00" fill="#111111">Web Browser</text>
<text xml:space="preserve" text-anchor="middle" x="165" y="-134.09" font-family="Helvetica,sans-Serif" font-size="10.00" fill="#111111">(Interactive Dashboard UI)</text>
</g>
<!-- WebBrowser&#45;&gt;OllamaAPI -->
<g id="edge9" class="edge">
<title>WebBrowser&#45;&gt;OllamaAPI</title>
<path fill="none" stroke="#888888" stroke-width="1.2" d="M165,-113.77C165,-101.33 165,-86.59 165,-73.25"/>
<polygon fill="#888888" stroke="#888888" stroke-width="1.2" points="161.5,-113.49 165,-123.49 168.5,-113.49 161.5,-113.49"/>
<polygon fill="#888888" stroke="#888888" stroke-width="1.2" points="168.5,-73.31 165,-63.31 161.5,-73.31 168.5,-73.31"/>
<text xml:space="preserve" text-anchor="middle" x="199.5" y="-80.54" font-family="Helvetica,sans-Serif" font-size="9.00" fill="#999999">Query/Response</text>
</g>
<!-- FastAPI -->
<g id="node3" class="node">
<title>FastAPI</title>
<polygon fill="#e1f5fe" stroke="black" points="239,-312.34 137,-312.34 133,-308.34 133,-276.34 235,-276.34 239,-280.34 239,-312.34"/>
<polyline fill="none" stroke="black" points="235,-308.34 133,-308.34"/>
<polyline fill="none" stroke="black" points="235,-308.34 235,-276.34"/>
<polyline fill="none" stroke="black" points="235,-308.34 239,-312.34"/>
<text xml:space="preserve" text-anchor="middle" x="186" y="-296.09" font-family="Helvetica,sans-Serif" font-size="10.00" fill="#111111">FastAPI Gateway</text>
<text xml:space="preserve" text-anchor="middle" x="186" y="-284.84" font-family="Helvetica,sans-Serif" font-size="10.00" fill="#111111">(Bidirectional Bridge)</text>
</g>
<!-- FastAPI&#45;&gt;WebBrowser -->
<g id="edge10" class="edge">
<title>FastAPI&#45;&gt;WebBrowser</title>
<path fill="none" stroke="#2196f3" stroke-width="1.2" d="M168.94,-266C165.76,-259.61 162.92,-252.67 161.25,-245.84 155.4,-221.96 157.06,-193.97 159.77,-173.48"/>
<polygon fill="#2196f3" stroke="#2196f3" stroke-width="1.2" points="165.72,-267.41 173.58,-274.51 171.87,-264.06 165.72,-267.41"/>
<polygon fill="#2196f3" stroke="#2196f3" stroke-width="1.2" points="163.18,-174.29 161.21,-163.88 156.26,-173.25 163.18,-174.29"/>
<text xml:space="preserve" text-anchor="middle" x="202.12" y="-237.29" font-family="Helvetica,sans-Serif" font-size="9.00" fill="#999999">WS / SSE / Proxying</text>
</g>
<!-- RemoteControl -->
<g id="node8" class="node">
<title>RemoteControl</title>
<path fill="#bbdefb" stroke="black" d="M391.62,-161.59C391.62,-161.59 334.38,-161.59 334.38,-161.59 328.38,-161.59 322.38,-155.59 322.38,-149.59 322.38,-149.59 322.38,-137.59 322.38,-137.59 322.38,-131.59 328.38,-125.59 334.38,-125.59 334.38,-125.59 391.62,-125.59 391.62,-125.59 397.62,-125.59 403.62,-131.59 403.62,-137.59 403.62,-137.59 403.62,-149.59 403.62,-149.59 403.62,-155.59 397.62,-161.59 391.62,-161.59"/>
<text xml:space="preserve" text-anchor="middle" x="363" y="-139.72" font-family="Helvetica,sans-Serif" font-size="10.00" fill="#111111">Remote Bridge</text>
</g>
<!-- FastAPI&#45;&gt;RemoteControl -->
<g id="edge11" class="edge">
<title>FastAPI&#45;&gt;RemoteControl</title>
<path fill="none" stroke="#888888" stroke-width="1.5" d="M219.04,-268.69C228.5,-261.46 238.75,-253.45 248,-245.84 278.53,-220.76 312.34,-190.7 335.36,-169.88"/>
<polygon fill="#888888" stroke="#888888" stroke-width="1.5" points="217.21,-265.69 211.36,-274.52 221.44,-271.26 217.21,-265.69"/>
<polygon fill="#888888" stroke="#888888" stroke-width="1.5" points="337.48,-172.68 342.54,-163.36 332.78,-167.49 337.48,-172.68"/>
<text xml:space="preserve" text-anchor="middle" x="276.31" y="-237.29" font-family="Helvetica,sans-Serif" font-size="9.00" fill="#999999">IPC Sync</text>
</g>
<!-- APP -->
<g id="node4" class="node">
<title>APP</title>
<path fill="#ffffcc" stroke="black" d="M444,-311.5C444,-313.6 424.28,-315.31 400,-315.31 375.72,-315.31 356,-313.6 356,-311.5 356,-311.5 356,-277.19 356,-277.19 356,-275.08 375.72,-273.37 400,-273.37 424.28,-273.37 444,-275.08 444,-277.19 444,-277.19 444,-311.5 444,-311.5"/>
<path fill="none" stroke="black" d="M444,-311.5C444,-309.4 424.28,-307.69 400,-307.69 375.72,-307.69 356,-309.4 356,-311.5"/>
<text xml:space="preserve" text-anchor="middle" x="400" y="-296.09" font-family="Helvetica,sans-Serif" font-size="10.00" fill="#111111">LanguageTrainer</text>
<text xml:space="preserve" text-anchor="middle" x="400" y="-284.84" font-family="Helvetica,sans-Serif" font-size="10.00" fill="#111111">(Strategy Logic)</text>
</g>
<!-- InputMerge -->
<g id="node7" class="node">
<title>InputMerge</title>
<path fill="#ffffff" stroke="black" d="M537.93,-113.09C537.93,-113.09 600.07,-113.09 600.07,-113.09 606.07,-113.09 614.77,-118.45 617.46,-123.81 617.46,-123.81 637.36,-163.37 637.36,-163.37 640.05,-168.73 636.75,-174.09 630.75,-174.09 630.75,-174.09 507.25,-174.09 507.25,-174.09 501.25,-174.09 497.95,-168.73 500.64,-163.37 500.64,-163.37 520.54,-123.81 520.54,-123.81 523.23,-118.45 531.93,-113.09 537.93,-113.09"/>
<text xml:space="preserve" text-anchor="middle" x="569" y="-145.34" font-family="Helvetica,sans-Serif" font-size="10.00" fill="#111111">Input Merger</text>
<text xml:space="preserve" text-anchor="middle" x="569" y="-134.09" font-family="Helvetica,sans-Serif" font-size="10.00" fill="#111111">(Buffer Sync)</text>
</g>
<!-- APP&#45;&gt;InputMerge -->
<g id="edge2" class="edge">
<title>APP&#45;&gt;InputMerge</title>
<path fill="none" stroke="#b71c1c" stroke-width="2" d="M410.75,-273.07C418.47,-260.48 430.06,-245.05 444.5,-236.09 459.72,-226.66 468.18,-236.49 484,-228.09 504.27,-217.33 522.94,-200.21 537.59,-184.26"/>
<polygon fill="#b71c1c" stroke="#b71c1c" stroke-width="2" points="540.16,-186.63 544.16,-176.82 534.92,-182 540.16,-186.63"/>
<text xml:space="preserve" text-anchor="middle" x="454.25" y="-237.29" font-family="Helvetica,sans-Serif" font-size="9.00" fill="#999999">run()</text>
</g>
<!-- APP&#45;&gt;RemoteControl -->
<g id="edge3" class="edge">
<title>APP&#45;&gt;RemoteControl</title>
<path fill="none" stroke="#2196f3" stroke-width="1.2" d="M379.17,-272.96C372.6,-265.16 366.17,-255.75 362.75,-245.84 354.68,-222.48 355.55,-194.24 357.98,-173.52"/>
<polygon fill="#2196f3" stroke="#2196f3" stroke-width="1.2" points="361.42,-174.18 359.32,-163.8 354.48,-173.22 361.42,-174.18"/>
<text xml:space="preserve" text-anchor="middle" x="384.88" y="-237.29" font-family="Helvetica,sans-Serif" font-size="9.00" fill="#999999">Push State</text>
</g>
<!-- TTY -->
<g id="node9" class="node">
<title>TTY</title>
<path fill="#ffffff" stroke="black" d="M927.46,-324.84C927.46,-324.84 829.83,-324.84 829.83,-324.84 823.83,-324.84 815.09,-319.51 812.35,-314.17 812.35,-314.17 792.02,-274.52 792.02,-274.52 789.28,-269.18 792.54,-263.84 798.54,-263.84 798.54,-263.84 896.17,-263.84 896.17,-263.84 902.17,-263.84 910.91,-269.18 913.65,-274.52 913.65,-274.52 933.98,-314.17 933.98,-314.17 936.72,-319.51 933.46,-324.84 927.46,-324.84"/>
<text xml:space="preserve" text-anchor="middle" x="863" y="-296.09" font-family="Helvetica,sans-Serif" font-size="10.00" fill="#111111">TTY Terminal</text>
<text xml:space="preserve" text-anchor="middle" x="863" y="-284.84" font-family="Helvetica,sans-Serif" font-size="10.00" fill="#111111">(Primary UI)</text>
</g>
<!-- APP&#45;&gt;TTY -->
<g id="edge12" class="edge">
<title>APP&#45;&gt;TTY</title>
<path fill="none" stroke="#e65100" stroke-width="1.2" d="M407.51,-315.55C416.59,-337.62 434.23,-370.96 462,-385.68 515.41,-413.97 676.4,-404 734,-385.68 767.04,-375.16 798.89,-352.78 822.68,-332.8"/>
<polygon fill="#e65100" stroke="#e65100" stroke-width="1.2" points="824.72,-335.66 830.01,-326.48 820.15,-330.36 824.72,-335.66"/>
<text xml:space="preserve" text-anchor="middle" x="615" y="-409.51" font-family="Helvetica,sans-Serif" font-size="9.00" fill="#999999">Ansi Text</text>
</g>
<!-- MasterTTS -->
<g id="node5" class="node">
<title>MasterTTS</title>
<path fill="#e1f5fe" stroke="black" d="M705.38,-312.34C705.38,-312.34 628.62,-312.34 628.62,-312.34 622.62,-312.34 616.62,-306.34 616.62,-300.34 616.62,-300.34 616.62,-288.34 616.62,-288.34 616.62,-282.34 622.62,-276.34 628.62,-276.34 628.62,-276.34 705.38,-276.34 705.38,-276.34 711.38,-276.34 717.38,-282.34 717.38,-288.34 717.38,-288.34 717.38,-300.34 717.38,-300.34 717.38,-306.34 711.38,-312.34 705.38,-312.34"/>
<text xml:space="preserve" text-anchor="middle" x="667" y="-290.47" font-family="Helvetica,sans-Serif" font-size="10.00" fill="#111111">Master TTS Engine</text>
</g>
<!-- Speakers -->
<g id="node10" class="node">
<title>Speakers</title>
<path fill="#ffebee" stroke="black" d="M932.44,-151.07C932.44,-151.07 903.43,-159.68 903.43,-159.68 900.22,-160.64 893.78,-160.64 890.57,-159.68 890.57,-159.68 861.56,-151.07 861.56,-151.07 858.34,-150.11 855.14,-145.8 855.14,-142.45 855.14,-142.45 855.15,-135.74 855.15,-135.74 855.16,-132.39 858.52,-129.03 861.88,-129.03 861.88,-129.03 932.12,-129.03 932.12,-129.03 935.48,-129.03 938.84,-132.39 938.85,-135.74 938.85,-135.74 938.86,-142.45 938.86,-142.45 938.86,-145.8 935.66,-150.11 932.44,-151.07"/>
<text xml:space="preserve" text-anchor="middle" x="897" y="-139.72" font-family="Helvetica,sans-Serif" font-size="10.00" fill="#111111">Speakers</text>
</g>
<!-- MasterTTS&#45;&gt;Speakers -->
<g id="edge14" class="edge">
<title>MasterTTS&#45;&gt;Speakers</title>
<path fill="none" stroke="#888888" stroke-width="1.2" d="M704.74,-275.9C731.39,-263.92 768.13,-248.07 801.25,-236.09 812.92,-231.88 817.66,-234.95 828,-228.09 850.77,-213 869.92,-188.14 882.23,-169.46"/>
<polygon fill="#888888" stroke="#888888" stroke-width="1.2" points="885.13,-171.42 887.52,-161.1 879.22,-167.68 885.13,-171.42"/>
<text xml:space="preserve" text-anchor="middle" x="819.62" y="-237.29" font-family="Helvetica,sans-Serif" font-size="9.00" fill="#999999">PCM Out</text>
</g>
<!-- MasterSTT -->
<g id="node6" class="node">
<title>MasterSTT</title>
<path fill="#e1f5fe" stroke="black" d="M568.38,-312.34C568.38,-312.34 491.62,-312.34 491.62,-312.34 485.62,-312.34 479.62,-306.34 479.62,-300.34 479.62,-300.34 479.62,-288.34 479.62,-288.34 479.62,-282.34 485.62,-276.34 491.62,-276.34 491.62,-276.34 568.38,-276.34 568.38,-276.34 574.38,-276.34 580.38,-282.34 580.38,-288.34 580.38,-288.34 580.38,-300.34 580.38,-300.34 580.38,-306.34 574.38,-312.34 568.38,-312.34"/>
<text xml:space="preserve" text-anchor="middle" x="530" y="-290.47" font-family="Helvetica,sans-Serif" font-size="10.00" fill="#111111">Master STT Engine</text>
</g>
<!-- MasterSTT&#45;&gt;TTY -->
<!-- InputMerge&#45;&gt;InputMerge -->
<g id="edge1" class="edge">
<title>InputMerge&#45;&gt;InputMerge</title>
<path fill="none" stroke="#7b1fa2" stroke-width="1.2" d="M633.53,-154.69C658.25,-155.15 678.75,-151.45 678.75,-143.59 678.75,-135.77 658.45,-132.07 633.89,-132.49"/>
<polygon fill="#7b1fa2" stroke="#7b1fa2" stroke-width="1.2" points="634.02,-128.98 624.17,-132.9 634.31,-135.98 634.02,-128.98"/>
<text xml:space="preserve" text-anchor="middle" x="706.88" y="-139.92" font-family="Helvetica,sans-Serif" font-size="9.00" fill="#999999">Handle Ctrl&#45;G</text>
</g>
<!-- InputMerge&#45;&gt;RemoteControl -->
<g id="edge4" class="edge">
<title>InputMerge&#45;&gt;RemoteControl</title>
<path fill="none" stroke="#7b1fa2" stroke-width="1.5" d="M510.05,-143.59C480.27,-143.59 444.43,-143.59 415.59,-143.59"/>
<polygon fill="#7b1fa2" stroke="#7b1fa2" stroke-width="1.5" points="415.97,-140.09 405.97,-143.59 415.97,-147.09 415.97,-140.09"/>
<text xml:space="preserve" text-anchor="middle" x="449.44" y="-147.79" font-family="Helvetica,sans-Serif" font-size="9.00" fill="#999999">Ctrl&#45;G Trigger</text>
</g>
<!-- RemoteControl&#45;&gt;MasterTTS -->
<g id="edge5" class="edge">
<title>RemoteControl&#45;&gt;MasterTTS</title>
<path fill="none" stroke="#1976d2" stroke-width="1.2" stroke-dasharray="5,2" d="M388.89,-169.96C410.7,-189.6 443.76,-215.5 478,-228.09 521.51,-244.09 538.21,-220.86 582,-236.09 602.6,-243.26 622.95,-256.68 638.58,-268.74"/>
<polygon fill="#1976d2" stroke="#1976d2" stroke-width="1.2" points="391.31,-167.43 381.59,-163.22 386.56,-172.57 391.31,-167.43"/>
<polygon fill="#1976d2" stroke="#1976d2" stroke-width="1.2" points="636.24,-271.35 646.24,-274.86 640.61,-265.88 636.24,-271.35"/>
<text xml:space="preserve" text-anchor="middle" x="640.28" y="-237.29" font-family="Helvetica,sans-Serif" font-size="9.00" fill="#999999">Speech Req/Done</text>
</g>
<!-- RemoteControl&#45;&gt;MasterSTT -->
<g id="edge6" class="edge">
<title>RemoteControl&#45;&gt;MasterSTT</title>
<path fill="none" stroke="#1976d2" stroke-width="1.2" stroke-dasharray="5,2" d="M394.06,-169.14C416.46,-187.15 447.17,-212.48 473,-236.09 483.89,-246.05 495.45,-257.49 505.3,-267.51"/>
<polygon fill="#1976d2" stroke="#1976d2" stroke-width="1.2" points="396.42,-166.54 386.43,-163.03 392.05,-172.01 396.42,-166.54"/>
<polygon fill="#1976d2" stroke="#1976d2" stroke-width="1.2" points="502.7,-269.86 512.18,-274.58 507.71,-264.98 502.7,-269.86"/>
<text xml:space="preserve" text-anchor="middle" x="528.03" y="-237.29" font-family="Helvetica,sans-Serif" font-size="9.00" fill="#999999">Audio Session/Tokens</text>
</g>
<!-- Mic -->
<g id="node11" class="node">
<title>Mic</title>
<path fill="#ffebee" stroke="black" d="M793.04,-26.77C793.04,-26.77 828.5,-17.67 828.5,-17.67 831.75,-16.83 838.25,-16.83 841.5,-17.67 841.5,-17.67 876.96,-26.77 876.96,-26.77 880.2,-27.6 883.45,-31.79 883.44,-35.15 883.44,-35.15 883.42,-41.85 883.42,-41.85 883.42,-45.21 880.05,-48.56 876.7,-48.56 876.7,-48.56 793.3,-48.56 793.3,-48.56 789.95,-48.56 786.58,-45.21 786.58,-41.85 786.58,-41.85 786.56,-35.15 786.56,-35.15 786.55,-31.79 789.8,-27.6 793.04,-26.77"/>
<text xml:space="preserve" text-anchor="middle" x="835" y="-30.12" font-family="Helvetica,sans-Serif" font-size="10.00" fill="#111111">Microphone</text>
</g>
<!-- RemoteControl&#45;&gt;Mic -->
<!-- TTY&#45;&gt;InputMerge -->
<g id="edge13" class="edge">
<title>TTY&#45;&gt;InputMerge</title>
<path fill="none" stroke="#2e7d32" stroke-width="1.2" d="M859.12,-263.37C856.29,-253.23 851.4,-242.78 843,-236.09 830.23,-225.93 785.81,-232.15 770,-228.09 724.84,-216.49 676.51,-196.67 638.57,-179.26"/>
<polygon fill="#2e7d32" stroke="#2e7d32" stroke-width="1.2" points="640.34,-176.22 629.8,-175.18 637.39,-182.57 640.34,-176.22"/>
<text xml:space="preserve" text-anchor="middle" x="873.27" y="-237.29" font-family="Helvetica,sans-Serif" font-size="9.00" fill="#999999">Keyb Input</text>
</g>
<!-- TTY&#45;&gt;Speakers -->
<!-- Speakers&#45;&gt;Mic -->
<!-- Mic&#45;&gt;MasterSTT -->
<g id="edge15" class="edge">
<title>Mic&#45;&gt;MasterSTT</title>
<path fill="none" stroke="#888888" stroke-width="1.2" d="M828.4,-48.97C808.42,-91.1 749.01,-214.8 734,-228.09 687.54,-269.25 658.24,-245.33 599,-263.84 592.06,-266.01 584.87,-268.63 577.87,-271.41"/>
<polygon fill="#888888" stroke="#888888" stroke-width="1.2" points="576.67,-268.12 568.76,-275.17 579.34,-274.59 576.67,-268.12"/>
<text xml:space="preserve" text-anchor="middle" x="819.67" y="-139.92" font-family="Helvetica,sans-Serif" font-size="9.00" fill="#999999">PCM In</text>
</g>
</g>
</svg>
