<?xml version="1.0" encoding="UTF-8" standalone="no"?>
<!DOCTYPE svg PUBLIC "-//W3C//DTD SVG 1.1//EN"
 "http://www.w3.org/Graphics/SVG/1.1/DTD/svg11.dtd">
<!-- Generated by graphviz version 13.0.0 (20250608.1624)
 -->
<!-- Title: G Pages: 1 -->
<svg width="1279pt" height="573pt"
 viewBox="0.00 0.00 1279.00 573.00" xmlns="http://www.w3.org/2000/svg" xmlns:xlink="http://www.w3.org/1999/xlink">
<g id="graph0" class="graph" transform="scale(1 1) rotate(0) translate(4 569.25)">
<title>G</title>
<text xml:space="preserve" text-anchor="start" x="413.5" y="-541.35" font-family="Helvetica,sans-Serif" font-weight="bold" font-size="22.00" fill="#f33333">LangQuiz: Unified Multimodal Architecture</text>
<g id="clust1" class="cluster">
<title>cluster_user</title>
<path fill="none" stroke="#4caf50" stroke-width="3" stroke-dasharray="5,2" d="M267,-262.5C267,-262.5 889,-262.5 889,-262.5 895,-262.5 901,-268.5 901,-274.5 901,-274.5 901,-388.5 901,-388.5 901,-394.5 895,-400.5 889,-400.5 889,-400.5 267,-400.5 267,-400.5 261,-400.5 255,-394.5 255,-388.5 255,-388.5 255,-274.5 255,-274.5 255,-268.5 261,-262.5 267,-262.5"/>
<text xml:space="preserve" text-anchor="middle" x="578" y="-383.2" font-family="Helvetica,sans-Serif" font-size="14.00" fill="#999999">User Interaction</text>
</g>
<g id="clust2" class="cluster">
<title>cluster_internal_state</title>
<path fill="none" stroke="magenta" stroke-dasharray="1,5" d="M365,-8C365,-8 674,-8 674,-8 680,-8 686,-14 686,-20 686,-20 686,-96 686,-96 686,-102 680,-108 674,-108 674,-108 365,-108 365,-108 359,-108 353,-102 353,-96 353,-96 353,-20 353,-20 353,-14 359,-8 365,-8"/>
<text xml:space="preserve" text-anchor="middle" x="519.5" y="-90.7" font-family="Helvetica,sans-Serif" font-size="14.00" fill="#999999">Input State Management</text>
</g>
<g id="clust3" class="cluster">
<title>cluster_analysis</title>
<path fill="none" stroke="#b3e5fc" stroke-width="3" d="M1085,-8C1085,-8 1251,-8 1251,-8 1257,-8 1263,-14 1263,-20 1263,-20 1263,-514.75 1263,-514.75 1263,-520.75 1257,-526.75 1251,-526.75 1251,-526.75 1085,-526.75 1085,-526.75 1079,-526.75 1073,-520.75 1073,-514.75 1073,-514.75 1073,-20 1073,-20 1073,-14 1079,-8 1085,-8"/>
<text xml:space="preserve" text-anchor="middle" x="1168" y="-509.45" font-family="Helvetica,sans-Serif" font-size="14.00" fill="#999999">Internal NLP Engine</text>
</g>
<g id="clust4" class="cluster">
<title>cluster_frameworks</title>
<path fill="none" stroke="#9090c0" stroke-width="3" d="M20,-9C20,-9 235,-9 235,-9 241,-9 247,-15 247,-21 247,-21 247,-368.5 247,-368.5 247,-374.5 241,-380.5 235,-380.5 235,-380.5 20,-380.5 20,-380.5 14,-380.5 8,-374.5 8,-368.5 8,-368.5 8,-21 8,-21 8,-15 14,-9 20,-9"/>
<text xml:space="preserve" text-anchor="middle" x="127.5" y="-363.2" font-family="Helvetica,sans-Serif" font-size="14.00" fill="#999999">Apple Frameworks and Audio Engine</text>
</g>
<g id="clust5" class="cluster">
<title>cluster_av_internal</title>
<polygon fill="none" stroke="#777777" stroke-width="3" stroke-dasharray="1,5" points="22,-135.25 22,-235.25 239,-235.25 239,-135.25 22,-135.25"/>
<text xml:space="preserve" text-anchor="middle" x="130.5" y="-217.95" font-family="Helvetica,sans-Serif" font-size="14.00" fill="#999999">AVFoundation Engine</text>
</g>
<!-- Keyboard -->
<g id="node1" class="node">
<title>Keyboard</title>
<path fill="#ffffff" stroke="black" d="M880.79,-346.5C880.79,-346.5 746.05,-346.5 746.05,-346.5 740.05,-346.5 731.21,-341.21 728.37,-335.93 728.37,-335.93 698.89,-281.07 698.89,-281.07 696.05,-275.79 699.21,-270.5 705.21,-270.5 705.21,-270.5 839.95,-270.5 839.95,-270.5 845.95,-270.5 854.79,-275.79 857.63,-281.07 857.63,-281.07 887.11,-335.93 887.11,-335.93 889.95,-341.21 886.79,-346.5 880.79,-346.5"/>
<text xml:space="preserve" text-anchor="middle" x="793" y="-310.2" font-family="Helvetica,sans-Serif" font-size="14.00" fill="#111111">Keyboard</text>
<text xml:space="preserve" text-anchor="middle" x="793" y="-295.2" font-family="Helvetica,sans-Serif" font-size="14.00" fill="#111111">(Typed Input)</text>
</g>
<!-- MMController -->
<g id="node4" class="node">
<title>MMController</title>
<path fill="#ffdaff" stroke="black" stroke-width="2" d="M639.25,-180.25C639.25,-180.25 558.75,-180.25 558.75,-180.25 552.75,-180.25 546.75,-174.25 546.75,-168.25 546.75,-168.25 546.75,-156.25 546.75,-156.25 546.75,-150.25 552.75,-144.25 558.75,-144.25 558.75,-144.25 639.25,-144.25 639.25,-144.25 645.25,-144.25 651.25,-150.25 651.25,-156.25 651.25,-156.25 651.25,-168.25 651.25,-168.25 651.25,-174.25 645.25,-180.25 639.25,-180.25"/>
<text xml:space="preserve" text-anchor="start" x="554.75" y="-161.95" font-family="Helvetica,sans-Serif" font-weight="bold" font-size="14.00" fill="#111111">MMController</text>
<text xml:space="preserve" text-anchor="start" x="572" y="-151.75" font-family="Helvetica,sans-Serif" font-size="10.00" fill="#111111">Orchestrator</text>
</g>
<!-- Keyboard&#45;&gt;MMController -->
<g id="edge5" class="edge">
<title>Keyboard&#45;&gt;MMController</title>
<path fill="none" stroke="#4caf50" stroke-width="1.5" d="M701.96,-270.02C692.95,-267.15 683.86,-264.57 675,-262.5 656.63,-258.21 603.19,-268.45 590.5,-254.5 575.53,-238.05 579.45,-212.36 586.08,-192.42"/>
<polygon fill="#4caf50" stroke="#4caf50" stroke-width="1.5" points="589.27,-193.89 589.5,-183.3 582.71,-191.43 589.27,-193.89"/>
<text xml:space="preserve" text-anchor="middle" x="622.75" y="-245" font-family="Helvetica,sans-Serif" font-size="10.00" fill="#999999">termios events</text>
</g>
<!-- Keyboard&#45;&gt;MMController -->
<!-- Microphone -->
<g id="node2" class="node">
<title>Microphone</title>
<ellipse fill="#ffffff" stroke="black" cx="592" cy="-308.5" rx="65.41" ry="26.87"/>
<text xml:space="preserve" text-anchor="middle" x="592" y="-310.2" font-family="Helvetica,sans-Serif" font-size="14.00" fill="#111111">Microphone</text>
<text xml:space="preserve" text-anchor="middle" x="592" y="-295.2" font-family="Helvetica,sans-Serif" font-size="14.00" fill="#111111">(Voice Input)</text>
</g>
<!-- InputNode -->
<g id="node13" class="node">
<title>InputNode</title>
<path fill="#ffffff" stroke="black" d="M218.62,-181.25C218.62,-181.25 161.38,-181.25 161.38,-181.25 155.38,-181.25 149.38,-175.25 149.38,-169.25 149.38,-169.25 149.38,-155.25 149.38,-155.25 149.38,-149.25 155.38,-143.25 161.38,-143.25 161.38,-143.25 218.62,-143.25 218.62,-143.25 224.62,-143.25 230.62,-149.25 230.62,-155.25 230.62,-155.25 230.62,-169.25 230.62,-169.25 230.62,-175.25 224.62,-181.25 218.62,-181.25"/>
<text xml:space="preserve" text-anchor="middle" x="190" y="-163.95" font-family="Helvetica,sans-Serif" font-size="14.00" fill="#111111">InputNode</text>
<text xml:space="preserve" text-anchor="middle" x="190" y="-148.95" font-family="Helvetica,sans-Serif" font-size="14.00" fill="#111111">(PCM Tap)</text>
</g>
<!-- Microphone&#45;&gt;InputNode -->
<g id="edge6" class="edge">
<title>Microphone&#45;&gt;InputNode</title>
<path fill="none" stroke="#4caf50" stroke-width="1.5" d="M558.26,-285.1C543.7,-276.54 526.12,-267.62 509,-262.5 468.83,-250.48 455.78,-264.27 415,-254.5 350.76,-239.11 280.85,-208.37 236.29,-186.83"/>
<polygon fill="#4caf50" stroke="#4caf50" stroke-width="1.5" points="238.08,-183.82 227.56,-182.57 235.01,-190.11 238.08,-183.82"/>
</g>
<!-- Speaker -->
<g id="node3" class="node">
<title>Speaker</title>
<path fill="#ffffff" stroke="black" d="M322.71,-270.5C322.71,-270.5 431.29,-270.5 431.29,-270.5 437.29,-270.5 446.45,-275.6 449.62,-280.69 449.62,-280.69 484.17,-336.31 484.17,-336.31 487.33,-341.4 484.5,-346.5 478.5,-346.5 478.5,-346.5 275.5,-346.5 275.5,-346.5 269.5,-346.5 266.67,-341.4 269.83,-336.31 269.83,-336.31 304.38,-280.69 304.38,-280.69 307.55,-275.6 316.71,-270.5 322.71,-270.5"/>
<text xml:space="preserve" text-anchor="middle" x="377" y="-310.2" font-family="Helvetica,sans-Serif" font-size="14.00" fill="#111111">Speaker</text>
<text xml:space="preserve" text-anchor="middle" x="377" y="-295.2" font-family="Helvetica,sans-Serif" font-size="14.00" fill="#111111">(TTS Feedback)</text>
</g>
<!-- Buffer -->
<g id="node5" class="node">
<title>Buffer</title>
<path fill="#d1ffd1" stroke="black" d="M666.25,-54C666.25,-54 531.75,-54 531.75,-54 525.75,-54 519.75,-48 519.75,-42 519.75,-42 519.75,-28 519.75,-28 519.75,-22 525.75,-16 531.75,-16 531.75,-16 666.25,-16 666.25,-16 672.25,-16 678.25,-22 678.25,-28 678.25,-28 678.25,-42 678.25,-42 678.25,-48 672.25,-54 666.25,-54"/>
<text xml:space="preserve" text-anchor="middle" x="599" y="-36.7" font-family="Helvetica,sans-Serif" font-size="14.00" fill="#111111">Synchronized Buffer</text>
<text xml:space="preserve" text-anchor="middle" x="599" y="-21.7" font-family="Helvetica,sans-Serif" font-size="14.00" fill="#111111">(Keyboard and Speech)</text>
</g>
<!-- MMController&#45;&gt;Buffer -->
<g id="edge7" class="edge">
<title>MMController&#45;&gt;Buffer</title>
<path fill="none" stroke="#888888" stroke-width="1.5" d="M599,-131.04C599,-111.5 599,-86.15 599,-66.54"/>
<polygon fill="#888888" stroke="#888888" stroke-width="1.5" points="595.5,-131.03 599,-141.03 602.5,-131.03 595.5,-131.03"/>
<polygon fill="#888888" stroke="#888888" stroke-width="1.5" points="602.5,-66.59 599,-56.59 595.5,-66.59 602.5,-66.59"/>
<text xml:space="preserve" text-anchor="middle" x="627.12" y="-117.75" font-family="Helvetica,sans-Serif" font-size="10.00" fill="#999999">Manage Text</text>
</g>
<!-- UUIDGuard -->
<g id="node6" class="node">
<title>UUIDGuard</title>
<path fill="#ffe0b2" stroke="black" d="M471.25,-54C471.25,-54 372.75,-54 372.75,-54 366.75,-54 360.75,-48 360.75,-42 360.75,-42 360.75,-28 360.75,-28 360.75,-22 366.75,-16 372.75,-16 372.75,-16 471.25,-16 471.25,-16 477.25,-16 483.25,-22 483.25,-28 483.25,-28 483.25,-42 483.25,-42 483.25,-48 477.25,-54 471.25,-54"/>
<text xml:space="preserve" text-anchor="middle" x="422" y="-36.7" font-family="Helvetica,sans-Serif" font-size="14.00" fill="#111111">UUID Task Guard</text>
<text xml:space="preserve" text-anchor="middle" x="422" y="-21.7" font-family="Helvetica,sans-Serif" font-size="14.00" fill="#111111">(Speech Reset)</text>
</g>
<!-- MMController&#45;&gt;UUIDGuard -->
<g id="edge8" class="edge">
<title>MMController&#45;&gt;UUIDGuard</title>
<path fill="none" stroke="#888888" stroke-width="1.5" d="M545.88,-161.48C482.74,-160.5 382.92,-154.51 359.25,-127.25 341.38,-106.67 362.54,-80.9 384.99,-62"/>
<polygon fill="#888888" stroke="#888888" stroke-width="1.5" points="387.16,-64.75 392.8,-55.78 382.8,-59.27 387.16,-64.75"/>
<text xml:space="preserve" text-anchor="middle" x="392.62" y="-117.75" font-family="Helvetica,sans-Serif" font-size="10.00" fill="#999999">Rotate Task ID</text>
</g>
<!-- Normalization -->
<g id="node8" class="node">
<title>Normalization</title>
<path fill="#e1f5fe" stroke="black" d="M1205,-327.5C1205,-327.5 1093,-327.5 1093,-327.5 1087,-327.5 1081,-321.5 1081,-315.5 1081,-315.5 1081,-301.5 1081,-301.5 1081,-295.5 1087,-289.5 1093,-289.5 1093,-289.5 1205,-289.5 1205,-289.5 1211,-289.5 1217,-295.5 1217,-301.5 1217,-301.5 1217,-315.5 1217,-315.5 1217,-321.5 1211,-327.5 1205,-327.5"/>
<text xml:space="preserve" text-anchor="middle" x="1149" y="-310.2" font-family="Helvetica,sans-Serif" font-size="14.00" fill="#111111">Normalization</text>
<text xml:space="preserve" text-anchor="middle" x="1149" y="-295.2" font-family="Helvetica,sans-Serif" font-size="14.00" fill="#111111">(EsZett / Scrubbing)</text>
</g>
<!-- MMController&#45;&gt;Normalization -->
<!-- Recognition -->
<g id="node12" class="node">
<title>Recognition</title>
<path fill="#e1e1fb" stroke="black" d="M226.62,-53C226.62,-53 103.38,-53 103.38,-53 97.38,-53 91.38,-47 91.38,-41 91.38,-41 91.38,-29 91.38,-29 91.38,-23 97.38,-17 103.38,-17 103.38,-17 226.62,-17 226.62,-17 232.62,-17 238.62,-23 238.62,-29 238.62,-29 238.62,-41 238.62,-41 238.62,-47 232.62,-53 226.62,-53"/>
<text xml:space="preserve" text-anchor="middle" x="165" y="-29.2" font-family="Helvetica,sans-Serif" font-size="14.00" fill="#111111">SFSpeechRecognizer</text>
</g>
<!-- MMController&#45;&gt;Recognition -->
<g id="edge9" class="edge">
<title>MMController&#45;&gt;Recognition</title>
<path fill="none" stroke="magenta" stroke-width="1.5" d="M546.02,-159.57C466.26,-156.4 319.55,-147.9 271.5,-127.25 237.79,-112.76 206.86,-83.71 187.12,-62.26"/>
<polygon fill="magenta" stroke="magenta" stroke-width="1.5" points="189.91,-60.13 180.63,-55 184.69,-64.79 189.91,-60.13"/>
<text xml:space="preserve" text-anchor="middle" x="308.25" y="-117.75" font-family="Helvetica,sans-Serif" font-size="10.00" fill="#999999">Lifecycle Control</text>
</g>
<!-- Buffer&#45;&gt;Normalization -->
<g id="edge12" class="edge">
<title>Buffer&#45;&gt;Normalization</title>
<path fill="none" stroke="#888888" stroke-width="1.5" d="M622.08,-54.46C672.93,-94.13 799.79,-187.78 921.5,-235.25 981.17,-258.52 1002.54,-241.37 1063,-262.5 1078.59,-267.95 1094.85,-275.82 1108.98,-283.46"/>
<polygon fill="#888888" stroke="#888888" stroke-width="1.5" points="1106.9,-286.31 1117.34,-288.11 1110.3,-280.19 1106.9,-286.31"/>
<text xml:space="preserve" text-anchor="middle" x="959.75" y="-158.38" font-family="Helvetica,sans-Serif" font-size="10.00" fill="#999999">Raw Text Stream</text>
</g>
<!-- Config -->
<g id="node7" class="node">
<title>Config</title>
<polygon fill="#fff9c4" stroke="black" points="1226.62,-472.75 1109.38,-472.75 1109.38,-434.75 1232.62,-434.75 1232.62,-466.75 1226.62,-472.75"/>
<polyline fill="none" stroke="black" points="1226.62,-472.75 1226.62,-466.75"/>
<polyline fill="none" stroke="black" points="1232.62,-466.75 1226.62,-466.75"/>
<text xml:space="preserve" text-anchor="middle" x="1171" y="-455.45" font-family="Helvetica,sans-Serif" font-size="14.00" fill="#111111">de.json</text>
<text xml:space="preserve" text-anchor="middle" x="1171" y="-440.45" font-family="Helvetica,sans-Serif" font-size="14.00" fill="#111111">(Language Rules)</text>
</g>
<!-- Config&#45;&gt;Normalization -->
<g id="edge1" class="edge">
<title>Config&#45;&gt;Normalization</title>
<path fill="none" stroke="#888888" stroke-width="1.5" d="M1168.17,-434.32C1164.51,-410.46 1158.07,-368.58 1153.68,-339.96"/>
<polygon fill="#888888" stroke="#888888" stroke-width="1.5" points="1157.14,-339.46 1152.16,-330.11 1150.22,-340.52 1157.14,-339.46"/>
</g>
<!-- Alignment -->
<g id="node9" class="node">
<title>Alignment</title>
<path fill="#e1f5fe" stroke="black" d="M1233.25,-181.25C1233.25,-181.25 1140.75,-181.25 1140.75,-181.25 1134.75,-181.25 1128.75,-175.25 1128.75,-169.25 1128.75,-169.25 1128.75,-155.25 1128.75,-155.25 1128.75,-149.25 1134.75,-143.25 1140.75,-143.25 1140.75,-143.25 1233.25,-143.25 1233.25,-143.25 1239.25,-143.25 1245.25,-149.25 1245.25,-155.25 1245.25,-155.25 1245.25,-169.25 1245.25,-169.25 1245.25,-175.25 1239.25,-181.25 1233.25,-181.25"/>
<text xml:space="preserve" text-anchor="middle" x="1187" y="-163.95" font-family="Helvetica,sans-Serif" font-size="14.00" fill="#111111">Fuzzy Alignment</text>
<text xml:space="preserve" text-anchor="middle" x="1187" y="-148.95" font-family="Helvetica,sans-Serif" font-size="14.00" fill="#111111">(Levenshtein)</text>
</g>
<!-- Config&#45;&gt;Alignment -->
<g id="edge2" class="edge">
<title>Config&#45;&gt;Alignment</title>
<path fill="none" stroke="#888888" stroke-width="1.5" d="M1204.12,-434.35C1216.16,-425.77 1228.42,-414.37 1235,-400.5 1261.29,-345.09 1248.7,-322.28 1235,-262.5 1229.25,-237.39 1216.28,-211.25 1205.27,-192.1"/>
<polygon fill="#888888" stroke="#888888" stroke-width="1.5" points="1208.36,-190.46 1200.24,-183.65 1202.34,-194.04 1208.36,-190.46"/>
</g>
<!-- Normalization&#45;&gt;Alignment -->
<g id="edge3" class="edge">
<title>Normalization&#45;&gt;Alignment</title>
<path fill="none" stroke="#888888" stroke-width="1.5" d="M1165.75,-289.38C1173.5,-279.77 1181.89,-267.32 1186,-254.5 1192.27,-234.95 1192.45,-211.82 1191.09,-193.74"/>
<polygon fill="#888888" stroke="#888888" stroke-width="1.5" points="1194.58,-193.46 1190.13,-183.85 1187.62,-194.14 1194.58,-193.46"/>
</g>
<!-- Normalization&#45;&gt;InputNode -->
<!-- Ollama -->
<g id="node10" class="node">
<title>Ollama</title>
<path fill="#ffccbc" stroke="black" d="M1232.25,-54C1232.25,-54 1103.75,-54 1103.75,-54 1097.75,-54 1091.75,-48 1091.75,-42 1091.75,-42 1091.75,-28 1091.75,-28 1091.75,-22 1097.75,-16 1103.75,-16 1103.75,-16 1232.25,-16 1232.25,-16 1238.25,-16 1244.25,-22 1244.25,-28 1244.25,-28 1244.25,-42 1244.25,-42 1244.25,-48 1238.25,-54 1232.25,-54"/>
<text xml:space="preserve" text-anchor="middle" x="1168" y="-36.7" font-family="Helvetica,sans-Serif" font-size="14.00" fill="#111111">Grammar Check</text>
<text xml:space="preserve" text-anchor="middle" x="1168" y="-21.7" font-family="Helvetica,sans-Serif" font-size="14.00" fill="#111111">(Experimental Ollama)</text>
</g>
<!-- Alignment&#45;&gt;Ollama -->
<g id="edge4" class="edge">
<title>Alignment&#45;&gt;Ollama</title>
<path fill="none" stroke="#888888" stroke-width="1.5" d="M1184.2,-142.77C1181.13,-122.58 1176.18,-89.94 1172.56,-66.06"/>
<polygon fill="#888888" stroke="#888888" stroke-width="1.5" points="1176.05,-65.76 1171.09,-56.39 1169.13,-66.81 1176.05,-65.76"/>
</g>
<!-- APP -->
<g id="node15" class="node">
<title>APP</title>
<path fill="#ffffcc" stroke="black" d="M1044.88,-323.23C1044.88,-325.03 1018.93,-326.5 987,-326.5 955.07,-326.5 929.12,-325.03 929.12,-323.23 929.12,-323.23 929.12,-293.77 929.12,-293.77 929.12,-291.97 955.07,-290.5 987,-290.5 1018.93,-290.5 1044.88,-291.97 1044.88,-293.77 1044.88,-293.77 1044.88,-323.23 1044.88,-323.23"/>
<path fill="none" stroke="black" d="M1044.88,-323.23C1044.88,-321.42 1018.93,-319.95 987,-319.95 955.07,-319.95 929.12,-321.42 929.12,-323.23"/>
<text xml:space="preserve" text-anchor="middle" x="987" y="-302.7" font-family="Helvetica,sans-Serif" font-size="14.00" fill="#111111">Main Application</text>
</g>
<!-- Alignment&#45;&gt;APP -->
<g id="edge13" class="edge">
<title>Alignment&#45;&gt;APP</title>
<path fill="none" stroke="#888888" stroke-width="1.5" d="M1165.58,-181.7C1147.88,-196.67 1121.86,-218.05 1098,-235.25 1092.65,-239.11 1091.04,-239.67 1085.5,-243.25 1064.9,-256.56 1041.95,-271.52 1023.39,-283.65"/>
<polygon fill="#888888" stroke="#888888" stroke-width="1.5" points="1021.65,-280.61 1015.2,-289.01 1025.48,-286.47 1021.65,-280.61"/>
<text xml:space="preserve" text-anchor="middle" x="1131.25" y="-245" font-family="Helvetica,sans-Serif" font-size="10.00" fill="#999999">MatchKind and Stats</text>
</g>
<!-- Ollama&#45;&gt;APP -->
<g id="edge14" class="edge">
<title>Ollama&#45;&gt;APP</title>
<path fill="none" stroke="#888888" stroke-width="1.5" d="M1140.62,-54.39C1115.54,-72.43 1078.88,-102.02 1055.5,-135.25 1023.69,-180.45 1003.73,-242.53 994.04,-278.5"/>
<polygon fill="#888888" stroke="#888888" stroke-width="1.5" points="990.73,-277.3 991.61,-287.86 997.51,-279.06 990.73,-277.3"/>
<text xml:space="preserve" text-anchor="middle" x="1083.25" y="-158.38" font-family="Helvetica,sans-Serif" font-size="10.00" fill="#999999">AI Feedback</text>
</g>
<!-- TTSManager -->
<g id="node11" class="node">
<title>TTSManager</title>
<path fill="#e1e1fb" stroke="black" d="M215.75,-326.5C215.75,-326.5 144.25,-326.5 144.25,-326.5 138.25,-326.5 132.25,-320.5 132.25,-314.5 132.25,-314.5 132.25,-302.5 132.25,-302.5 132.25,-296.5 138.25,-290.5 144.25,-290.5 144.25,-290.5 215.75,-290.5 215.75,-290.5 221.75,-290.5 227.75,-296.5 227.75,-302.5 227.75,-302.5 227.75,-314.5 227.75,-314.5 227.75,-320.5 221.75,-326.5 215.75,-326.5"/>
<text xml:space="preserve" text-anchor="middle" x="180" y="-302.7" font-family="Helvetica,sans-Serif" font-size="14.00" fill="#111111">TTSManager</text>
</g>
<!-- Mixer -->
<g id="node14" class="node">
<title>Mixer</title>
<path fill="#ffffff" stroke="black" d="M101.75,-180.25C101.75,-180.25 42.25,-180.25 42.25,-180.25 36.25,-180.25 30.25,-174.25 30.25,-168.25 30.25,-168.25 30.25,-156.25 30.25,-156.25 30.25,-150.25 36.25,-144.25 42.25,-144.25 42.25,-144.25 101.75,-144.25 101.75,-144.25 107.75,-144.25 113.75,-150.25 113.75,-156.25 113.75,-156.25 113.75,-168.25 113.75,-168.25 113.75,-174.25 107.75,-180.25 101.75,-180.25"/>
<text xml:space="preserve" text-anchor="middle" x="72" y="-156.45" font-family="Helvetica,sans-Serif" font-size="14.00" fill="#111111">Main Mixer</text>
</g>
<!-- TTSManager&#45;&gt;Mixer -->
<g id="edge16" class="edge">
<title>TTSManager&#45;&gt;Mixer</title>
<path fill="none" stroke="#4caf50" stroke-width="1.5" d="M166.97,-290.1C148.4,-265.3 114.15,-219.55 92.26,-190.31"/>
<polygon fill="#4caf50" stroke="#4caf50" stroke-width="1.5" points="95.23,-188.44 86.43,-182.53 89.63,-192.63 95.23,-188.44"/>
</g>
<!-- Recognition&#45;&gt;Buffer -->
<g id="edge11" class="edge">
<title>Recognition&#45;&gt;Buffer</title>
<path fill="none" stroke="magenta" stroke-width="1.5" d="M198.99,-53.48C260.33,-84.35 393.2,-139.75 501,-105.15 527.46,-96.65 552.85,-78.08 571.15,-62.18"/>
<polygon fill="magenta" stroke="magenta" stroke-width="1.5" points="573.27,-64.99 578.36,-55.7 568.59,-59.79 573.27,-64.99"/>
<text xml:space="preserve" text-anchor="middle" x="459" y="-117.75" font-family="Helvetica,sans-Serif" font-size="10.00" fill="#999999">Transcripts</text>
</g>
<!-- InputNode&#45;&gt;Recognition -->
<g id="edge10" class="edge">
<title>InputNode&#45;&gt;Recognition</title>
<path fill="none" stroke="blue" stroke-width="1.5" d="M170.97,-142.96C167.2,-138.24 163.78,-132.88 161.75,-127.25 154.61,-107.48 155.74,-83.71 158.49,-65.38"/>
<polygon fill="blue" stroke="blue" stroke-width="1.5" points="161.91,-66.11 160.22,-55.65 155.02,-64.88 161.91,-66.11"/>
<text xml:space="preserve" text-anchor="middle" x="182.38" y="-117.75" font-family="Helvetica,sans-Serif" font-size="10.00" fill="#999999">installTap</text>
</g>
<!-- Mixer&#45;&gt;Speaker -->
<g id="edge17" class="edge">
<title>Mixer&#45;&gt;Speaker</title>
<path fill="none" stroke="#4caf50" stroke-width="1.5" d="M80.86,-180.58C90.63,-197.68 108.05,-223 131,-235.25 163.7,-252.7 177.97,-234.59 214,-243.25 241.44,-249.84 270.4,-260.09 296.17,-270.49"/>
<polygon fill="#4caf50" stroke="#4caf50" stroke-width="1.5" points="294.71,-273.67 305.29,-274.24 297.37,-267.2 294.71,-273.67"/>
</g>
<!-- APP&#45;&gt;MMController -->
<g id="edge18" class="edge">
<title>APP&#45;&gt;MMController</title>
<path fill="none" stroke="#888888" stroke-width="1.5" d="M964.1,-290.14C949.46,-280.08 929.6,-268.3 910,-262.5 873.47,-251.69 775,-266.21 738.75,-254.5 696.27,-240.77 654.3,-210.51 627.61,-188.6"/>
<polygon fill="#888888" stroke="#888888" stroke-width="1.5" points="630.15,-186.16 620.24,-182.41 625.65,-191.52 630.15,-186.16"/>
<text xml:space="preserve" text-anchor="middle" x="775.88" y="-245" font-family="Helvetica,sans-Serif" font-size="10.00" fill="#999999">Initialize Session</text>
</g>
<!-- APP&#45;&gt;TTSManager -->
<g id="edge15" class="edge">
<title>APP&#45;&gt;TTSManager</title>
<path fill="none" stroke="#888888" stroke-width="1.5" d="M977.08,-326.75C964.57,-347.62 940.92,-380.66 910,-394.48 842.64,-424.58 312.17,-427.1 246,-394.48 222.04,-382.67 204.36,-357.52 193.36,-337.46"/>
<polygon fill="#888888" stroke="#888888" stroke-width="1.5" points="196.53,-335.97 188.84,-328.69 190.31,-339.18 196.53,-335.97"/>
<text xml:space="preserve" text-anchor="middle" x="578" y="-410.25" font-family="Helvetica,sans-Serif" font-size="10.00" fill="#999999">Trigger Speech</text>
</g>
</g>
</svg>
