<?xml version="1.0" encoding="UTF-8" standalone="no"?>
<!DOCTYPE svg PUBLIC "-//W3C//DTD SVG 1.1//EN"
 "http://www.w3.org/Graphics/SVG/1.1/DTD/svg11.dtd">
<!-- Generated by graphviz version 3.0.0 (20220226.1711)
 -->
<!-- Title: G Pages: 1 -->
<svg width="872pt" height="787pt"
 viewBox="0.00 0.00 872.00 787.00" xmlns="http://www.w3.org/2000/svg" xmlns:xlink="http://www.w3.org/1999/xlink">
<g id="graph0" class="graph" transform="scale(1 1) rotate(0) translate(4 783)">
<title>G</title>
<g id="clust1" class="cluster">
<title>cluster_platforms</title>
<path fill="transparent" stroke="#99ccee" stroke-width="3.5" d="M184,-433C184,-433 400,-433 400,-433 406,-433 412,-439 412,-445 412,-445 412,-526 412,-526 412,-532 406,-538 400,-538 400,-538 184,-538 184,-538 178,-538 172,-532 172,-526 172,-526 172,-445 172,-445 172,-439 178,-433 184,-433"/>
<text text-anchor="middle" x="292" y="-522.8" font-family="Helvetica,sans-Serif" font-size="14.00">Target Platforms</text>
</g>
<g id="clust2" class="cluster">
<title>cluster_products</title>
<path fill="transparent" stroke="#ffdd99" stroke-width="3.5" d="M20,-8C20,-8 585,-8 585,-8 591,-8 597,-14 597,-20 597,-20 597,-377 597,-377 597,-383 591,-389 585,-389 585,-389 20,-389 20,-389 14,-389 8,-383 8,-377 8,-377 8,-20 8,-20 8,-14 14,-8 20,-8"/>
<text text-anchor="middle" x="302.5" y="-373.8" font-family="Helvetica,sans-Serif" font-size="14.00">Product Types</text>
</g>
<!-- Swift -->
<g id="node1" class="node">
<title>Swift</title>
<path fill="#c2f0c2" stroke="black" d="M525,-779C525,-779 495,-779 495,-779 489,-779 483,-773 483,-767 483,-767 483,-748 483,-748 483,-742 489,-736 495,-736 495,-736 525,-736 525,-736 531,-736 537,-742 537,-748 537,-748 537,-767 537,-767 537,-773 531,-779 525,-779"/>
<text text-anchor="start" x="493" y="-754.8" font-family="Helvetica,sans-Serif" font-weight="bold" font-size="14.00" fill="Green">Swift</text>
</g>
<!-- Xcode -->
<g id="node2" class="node">
<title>Xcode</title>
<path fill="#c2f0c2" stroke="black" d="M393.5,-648C393.5,-648 334.5,-648 334.5,-648 328.5,-648 322.5,-642 322.5,-636 322.5,-636 322.5,-617 322.5,-617 322.5,-611 328.5,-605 334.5,-605 334.5,-605 393.5,-605 393.5,-605 399.5,-605 405.5,-611 405.5,-617 405.5,-617 405.5,-636 405.5,-636 405.5,-642 399.5,-648 393.5,-648"/>
<text text-anchor="start" x="330.5" y="-623.8" font-family="Helvetica,sans-Serif" font-weight="bold" font-size="14.00" fill="Green">Xcode IDE</text>
</g>
<!-- Swift&#45;&gt;Xcode -->
<g id="edge1" class="edge">
<title>Swift&#45;&gt;Xcode</title>
<path fill="none" stroke="Green" d="M486.54,-735.77C461.75,-713.86 422.51,-679.19 395.13,-655.01"/>
<polygon fill="Green" stroke="Green" points="397.21,-652.17 387.4,-648.17 392.58,-657.42 397.21,-652.17"/>
<text text-anchor="start" x="461" y="-695.8" font-family="Times,serif" font-size="14.00" fill="Green">Develops and</text>
<text text-anchor="start" x="450" y="-680.8" font-family="Times,serif" font-size="14.00" fill="Green">Manages Projects</text>
</g>
<!-- SPM -->
<g id="node3" class="node">
<title>SPM</title>
<path fill="#c2f0c2" stroke="black" d="M804.5,-335C804.5,-335 617.5,-335 617.5,-335 611.5,-335 605.5,-329 605.5,-323 605.5,-323 605.5,-304 605.5,-304 605.5,-298 611.5,-292 617.5,-292 617.5,-292 804.5,-292 804.5,-292 810.5,-292 816.5,-298 816.5,-304 816.5,-304 816.5,-323 816.5,-323 816.5,-329 810.5,-335 804.5,-335"/>
<text text-anchor="start" x="613.5" y="-310.8" font-family="Helvetica,sans-Serif" font-weight="bold" font-size="14.00" fill="Green">Swift Package Manager (SPM)</text>
</g>
<!-- Swift&#45;&gt;SPM -->
<g id="edge2" class="edge">
<title>Swift&#45;&gt;SPM</title>
<path fill="none" stroke="Green" d="M529.48,-735.88C536.85,-727.38 544.92,-717.15 551,-707 626.5,-580.88 681.59,-412.62 702.15,-344.76"/>
<polygon fill="Green" stroke="Green" points="705.52,-345.71 705.05,-335.12 698.82,-343.69 705.52,-345.71"/>
<text text-anchor="start" x="664.5" y="-564.8" font-family="Times,serif" font-size="14.00" fill="Green">Uses for</text>
<text text-anchor="start" x="629" y="-549.8" font-family="Times,serif" font-size="14.00" fill="Green">Dependency &amp; Build</text>
</g>
<!-- ios -->
<g id="node4" class="node">
<title>ios</title>
<path fill="#cceeff" stroke="black" d="M305.54,-459.53C305.54,-459.53 305.54,-465.47 305.54,-465.47 305.54,-468.44 302.74,-472.37 299.93,-473.34 299.93,-473.34 274.52,-482.07 274.52,-482.07 271.71,-483.03 265.94,-484 262.97,-484 262.97,-484 223.03,-484 223.03,-484 220.06,-484 214.29,-483.03 211.48,-482.07 211.48,-482.07 186.07,-473.34 186.07,-473.34 183.26,-472.37 180.46,-468.44 180.46,-465.47 180.46,-465.47 180.46,-459.53 180.46,-459.53 180.46,-456.56 183.26,-452.63 186.07,-451.66 186.07,-451.66 211.48,-442.93 211.48,-442.93 214.29,-441.97 220.06,-441 223.03,-441 223.03,-441 262.97,-441 262.97,-441 265.94,-441 271.71,-441.97 274.52,-442.93 274.52,-442.93 299.93,-451.66 299.93,-451.66 302.74,-452.63 305.54,-456.56 305.54,-459.53"/>
<text text-anchor="start" x="202" y="-458.8" font-family="Helvetica,sans-Serif" font-size="14.00" fill="Green">iOS / iPadOS</text>
</g>
<!-- Xcode&#45;&gt;ios -->
<g id="edge3" class="edge">
<title>Xcode&#45;&gt;ios</title>
<path fill="none" stroke="#007aff" d="M322.42,-610.65C305.54,-602.73 287.19,-591.38 275,-576 256.43,-552.57 248.64,-518.89 245.37,-494.49"/>
<polygon fill="#007aff" stroke="#007aff" points="248.82,-493.86 244.19,-484.33 241.86,-494.67 248.82,-493.86"/>
<text text-anchor="start" x="275" y="-557.3" font-family="Times,serif" font-size="14.00" fill="Green">Builds/Deploys</text>
</g>
<!-- macosx -->
<g id="node5" class="node">
<title>macosx</title>
<path fill="#cceeff" stroke="black" d="M404.21,-459.53C404.21,-459.53 404.21,-465.47 404.21,-465.47 404.21,-468.44 401.59,-472.81 398.97,-474.21 398.97,-474.21 385.89,-481.2 385.89,-481.2 383.27,-482.6 377.69,-484 374.72,-484 374.72,-484 353.28,-484 353.28,-484 350.31,-484 344.73,-482.6 342.11,-481.2 342.11,-481.2 329.03,-474.21 329.03,-474.21 326.41,-472.81 323.79,-468.44 323.79,-465.47 323.79,-465.47 323.79,-459.53 323.79,-459.53 323.79,-456.56 326.41,-452.19 329.03,-450.79 329.03,-450.79 342.11,-443.8 342.11,-443.8 344.73,-442.4 350.31,-441 353.28,-441 353.28,-441 374.72,-441 374.72,-441 377.69,-441 383.27,-442.4 385.89,-443.8 385.89,-443.8 398.97,-450.79 398.97,-450.79 401.59,-452.19 404.21,-456.56 404.21,-459.53"/>
<text text-anchor="start" x="340.5" y="-458.8" font-family="Helvetica,sans-Serif" font-size="14.00" fill="Green">macOS</text>
</g>
<!-- Xcode&#45;&gt;macosx -->
<g id="edge4" class="edge">
<title>Xcode&#45;&gt;macosx</title>
<path fill="none" stroke="#007aff" d="M364,-604.98C364,-577.06 364,-526.87 364,-494.39"/>
<polygon fill="#007aff" stroke="#007aff" points="367.5,-494.11 364,-484.11 360.5,-494.11 367.5,-494.11"/>
<text text-anchor="start" x="364" y="-557.3" font-family="Times,serif" font-size="14.00" fill="Green">Builds/Deploys</text>
</g>
<!-- SPMCLI -->
<g id="node11" class="node">
<title>SPMCLI</title>
<path fill="#f0f0f0" stroke="black" d="M369.5,-335C369.5,-335 314.5,-335 314.5,-335 308.5,-335 302.5,-329 302.5,-323 302.5,-323 302.5,-304 302.5,-304 302.5,-298 308.5,-292 314.5,-292 314.5,-292 369.5,-292 369.5,-292 375.5,-292 381.5,-298 381.5,-304 381.5,-304 381.5,-323 381.5,-323 381.5,-329 375.5,-335 369.5,-335"/>
<text text-anchor="start" x="310.5" y="-309.8" font-family="Helvetica,sans-Serif" font-size="14.00" fill="Green">CLI Target</text>
</g>
<!-- SPM&#45;&gt;SPMCLI -->
<g id="edge7" class="edge">
<title>SPM&#45;&gt;SPMCLI</title>
<path fill="none" stroke="Green" d="M687.88,-335.31C667.01,-353.38 634.52,-377.72 601,-388 556.39,-401.69 432.08,-410.15 391,-388 373.8,-378.73 361.65,-360.48 353.75,-344.37"/>
<polygon fill="Green" stroke="Green" points="356.91,-342.87 349.58,-335.22 350.54,-345.77 356.91,-342.87"/>
<text text-anchor="start" x="490.5" y="-400.8" font-family="Times,serif" font-size="14.00" fill="Green">Defines Tool</text>
</g>
<!-- SPMLIB -->
<g id="node12" class="node">
<title>SPMLIB</title>
<path fill="#f0f0f0" stroke="black" d="M557,-219C557,-219 467,-219 467,-219 461,-219 455,-213 455,-207 455,-207 455,-188 455,-188 455,-182 461,-176 467,-176 467,-176 557,-176 557,-176 563,-176 569,-182 569,-188 569,-188 569,-207 569,-207 569,-213 563,-219 557,-219"/>
<text text-anchor="start" x="463" y="-193.8" font-family="Helvetica,sans-Serif" font-size="14.00" fill="Green">Package Library</text>
</g>
<!-- SPM&#45;&gt;SPMLIB -->
<g id="edge6" class="edge">
<title>SPM&#45;&gt;SPMLIB</title>
<path fill="none" stroke="Green" d="M666.6,-291.92C649.04,-283.42 628.83,-273.18 611,-263 600.4,-256.95 598.22,-254.66 588,-248 576.44,-240.46 563.88,-232.28 552.37,-224.79"/>
<polygon fill="Green" stroke="Green" points="554.09,-221.73 543.8,-219.21 550.27,-227.6 554.09,-221.73"/>
<text text-anchor="start" x="611" y="-251.8" font-family="Times,serif" font-size="14.00" fill="Green">Defines Library</text>
</g>
<!-- SPMAPP -->
<g id="node13" class="node">
<title>SPMAPP</title>
<path fill="#f0f0f0" stroke="black" d="M272,-335C272,-335 156,-335 156,-335 150,-335 144,-329 144,-323 144,-323 144,-304 144,-304 144,-298 150,-292 156,-292 156,-292 272,-292 272,-292 278,-292 284,-298 284,-304 284,-304 284,-323 284,-323 284,-329 278,-335 272,-335"/>
<text text-anchor="start" x="152" y="-309.8" font-family="Helvetica,sans-Serif" font-size="14.00" fill="Green">Package Executable</text>
</g>
<!-- SPM&#45;&gt;SPMAPP -->
<g id="edge5" class="edge">
<title>SPM&#45;&gt;SPMAPP</title>
<path fill="none" stroke="Green" d="M687.88,-335.31C667.01,-353.38 634.52,-377.72 601,-388 535.78,-408.01 357.48,-412.98 294,-388 270.93,-378.92 250.58,-359.71 236.17,-343.07"/>
<polygon fill="Green" stroke="Green" points="238.68,-340.61 229.59,-335.17 233.3,-345.09 238.68,-340.61"/>
<text text-anchor="start" x="379" y="-400.8" font-family="Times,serif" font-size="14.00" fill="Green">Defines Executable</text>
</g>
<!-- APP -->
<g id="node6" class="node">
<title>APP</title>
<path fill="#ffffcc" stroke="black" d="M161,-215.09C161,-217.25 140.83,-219 116,-219 91.17,-219 71,-217.25 71,-215.09 71,-215.09 71,-179.91 71,-179.91 71,-177.75 91.17,-176 116,-176 140.83,-176 161,-177.75 161,-179.91 161,-179.91 161,-215.09 161,-215.09"/>
<path fill="none" stroke="black" d="M161,-215.09C161,-212.93 140.83,-211.18 116,-211.18 91.17,-211.18 71,-212.93 71,-215.09"/>
<text text-anchor="start" x="79" y="-194.8" font-family="Helvetica,sans-Serif" font-weight="bold" font-size="14.00" fill="Green">Application</text>
</g>
<!-- ios&#45;&gt;APP -->
<g id="edge13" class="edge">
<title>ios&#45;&gt;APP</title>
<path fill="none" stroke="Grey" d="M180.42,-455.78C151.58,-449.66 119.85,-437.19 102,-412 63.06,-357.06 86.29,-272.86 103.17,-228.4"/>
<polygon fill="Grey" stroke="Grey" points="106.45,-229.61 106.86,-219.02 99.94,-227.05 106.45,-229.61"/>
</g>
<!-- macosx&#45;&gt;APP -->
<g id="edge14" class="edge">
<title>macosx&#45;&gt;APP</title>
<path fill="none" stroke="Grey" d="M339.27,-445.27C331.71,-440.82 323.21,-436.31 315,-433 238.62,-402.2 189.01,-451.17 135,-389 96.5,-344.68 102.08,-270.84 109.24,-229.3"/>
<polygon fill="Grey" stroke="Grey" points="112.73,-229.7 111.12,-219.23 105.85,-228.42 112.73,-229.7"/>
</g>
<!-- CLI -->
<g id="node7" class="node">
<title>CLI</title>
<path fill="#ffffcc" stroke="black" d="M416,-215.09C416,-217.25 382.83,-219 342,-219 301.17,-219 268,-217.25 268,-215.09 268,-215.09 268,-179.91 268,-179.91 268,-177.75 301.17,-176 342,-176 382.83,-176 416,-177.75 416,-179.91 416,-179.91 416,-215.09 416,-215.09"/>
<path fill="none" stroke="black" d="M416,-215.09C416,-212.93 382.83,-211.18 342,-211.18 301.17,-211.18 268,-212.93 268,-215.09"/>
<text text-anchor="start" x="276" y="-194.8" font-family="Helvetica,sans-Serif" font-weight="bold" font-size="14.00" fill="Green">Command Line Tool</text>
</g>
<!-- macosx&#45;&gt;CLI -->
<g id="edge16" class="edge">
<title>macosx&#45;&gt;CLI</title>
<path fill="none" stroke="Grey" d="M404.5,-457.25C456.88,-450.82 543.71,-436.68 563,-412 567.11,-406.75 563.16,-403.66 563,-397 561.89,-350.29 584.57,-330.43 558,-292 540.76,-267.06 470.91,-239.61 415.25,-220.95"/>
<polygon fill="Grey" stroke="Grey" points="416.33,-217.62 405.74,-217.8 414.13,-224.26 416.33,-217.62"/>
</g>
<!-- Headless -->
<g id="node9" class="node">
<title>Headless</title>
<path fill="#ffffcc" stroke="black" d="M548.5,-331.09C548.5,-333.25 515.11,-335 474,-335 432.89,-335 399.5,-333.25 399.5,-331.09 399.5,-331.09 399.5,-295.91 399.5,-295.91 399.5,-293.75 432.89,-292 474,-292 515.11,-292 548.5,-293.75 548.5,-295.91 548.5,-295.91 548.5,-331.09 548.5,-331.09"/>
<path fill="none" stroke="black" d="M548.5,-331.09C548.5,-328.93 515.11,-327.18 474,-327.18 432.89,-327.18 399.5,-328.93 399.5,-331.09"/>
<text text-anchor="start" x="407.5" y="-309.8" font-family="Helvetica,sans-Serif" font-size="14.00" fill="Green">Headless Service/App</text>
</g>
<!-- macosx&#45;&gt;Headless -->
<g id="edge15" class="edge">
<title>macosx&#45;&gt;Headless</title>
<path fill="none" stroke="Grey" d="M364.38,-440.95C365.55,-427.38 368.92,-409.81 378,-397 381.92,-391.46 385.56,-393.06 391,-389 410.2,-374.66 430.23,-356.78 445.8,-342.12"/>
<polygon fill="Grey" stroke="Grey" points="448.23,-344.65 453.07,-335.22 443.41,-339.57 448.23,-344.65"/>
</g>
<!-- LIB -->
<g id="node8" class="node">
<title>LIB</title>
<path fill="#ffffcc" stroke="black" d="M301,-69.59C301,-71.75 272.76,-73.5 238,-73.5 203.24,-73.5 175,-71.75 175,-69.59 175,-69.59 175,-34.41 175,-34.41 175,-32.25 203.24,-30.5 238,-30.5 272.76,-30.5 301,-32.25 301,-34.41 301,-34.41 301,-69.59 301,-69.59"/>
<path fill="none" stroke="black" d="M301,-69.59C301,-67.43 272.76,-65.68 238,-65.68 203.24,-65.68 175,-67.43 175,-69.59"/>
<text text-anchor="start" x="183" y="-49.3" font-family="Helvetica,sans-Serif" font-weight="bold" font-size="14.00" fill="Green">Reusable Library</text>
</g>
<!-- APP&#45;&gt;LIB -->
<g id="edge17" class="edge">
<title>APP&#45;&gt;LIB</title>
<path fill="none" stroke="#888888" stroke-dasharray="5,2" d="M70.98,-179.54C56.9,-171.86 42.98,-161.23 35,-147 28.48,-135.37 27.12,-127.75 35,-117 64.56,-76.69 119.56,-61.11 164.86,-55.38"/>
<polygon fill="#888888" stroke="#888888" points="165.41,-58.84 174.96,-54.24 164.63,-51.88 165.41,-58.84"/>
<text text-anchor="start" x="71" y="-135.8" font-family="Times,serif" font-size="14.00" fill="Green">Links to</text>
<text text-anchor="start" x="35" y="-120.8" font-family="Times,serif" font-size="14.00" fill="Green">(Source Dependency)</text>
</g>
<!-- XCFW -->
<g id="node10" class="node">
<title>XCFW</title>
<path fill="#ffcc66" stroke="black" d="M442.41,-84.91C442.41,-84.91 330.59,-55.09 330.59,-55.09 324.8,-53.55 324.8,-50.45 330.59,-48.91 330.59,-48.91 442.41,-19.09 442.41,-19.09 448.2,-17.55 459.8,-17.55 465.59,-19.09 465.59,-19.09 577.41,-48.91 577.41,-48.91 583.2,-50.45 583.2,-53.55 577.41,-55.09 577.41,-55.09 465.59,-84.91 465.59,-84.91 459.8,-86.45 448.2,-86.45 442.41,-84.91"/>
<text text-anchor="start" x="407.5" y="-55.8" font-family="Helvetica,sans-Serif" font-weight="bold" font-size="14.00" fill="Green">XCFramework</text>
<text text-anchor="start" x="394.5" y="-41.8" font-family="Helvetica,sans-Serif" font-size="14.00" fill="Green">(Binary Distribution)</text>
</g>
<!-- APP&#45;&gt;XCFW -->
<g id="edge11" class="edge">
<title>APP&#45;&gt;XCFW</title>
<path fill="none" stroke="#888888" stroke-dasharray="5,2" d="M132.21,-175.56C138.81,-166.84 146.43,-156.54 153,-147 161.95,-134 159.03,-126 172,-117 223.49,-81.27 248.88,-101.85 310,-88 331.44,-83.14 354.62,-77.63 375.98,-72.43"/>
<polygon fill="#888888" stroke="#888888" points="377.09,-75.77 385.98,-70 375.43,-68.97 377.09,-75.77"/>
<text text-anchor="start" x="212.5" y="-135.8" font-family="Times,serif" font-size="14.00" fill="Green">Links to</text>
<text text-anchor="start" x="172" y="-120.8" font-family="Times,serif" font-size="14.00" fill="Green">(External Dependency)</text>
</g>
<!-- CLI&#45;&gt;LIB -->
<g id="edge18" class="edge">
<title>CLI&#45;&gt;LIB</title>
<path fill="none" stroke="#888888" stroke-dasharray="5,2" d="M334.14,-175.85C327.26,-159.14 316.31,-135.46 303,-117 293.59,-103.95 281.42,-91.18 270.16,-80.53"/>
<polygon fill="#888888" stroke="#888888" points="272.27,-77.72 262.55,-73.51 267.53,-82.86 272.27,-77.72"/>
<text text-anchor="start" x="356" y="-135.8" font-family="Times,serif" font-size="14.00" fill="Green">Links to</text>
<text text-anchor="start" x="320" y="-120.8" font-family="Times,serif" font-size="14.00" fill="Green">(Source Dependency)</text>
</g>
<!-- LIB&#45;&gt;SPM -->
<g id="edge19" class="edge">
<title>LIB&#45;&gt;SPM</title>
<path fill="none" stroke="#888888" stroke-dasharray="5,2" d="M274,-73.62C285.2,-79.18 297.82,-84.59 310,-88 376.2,-106.55 559.79,-80.42 618,-117 675.75,-153.29 698.35,-236.35 706.62,-281.65"/>
<polygon fill="#888888" stroke="#888888" points="703.22,-282.5 708.35,-291.78 710.12,-281.33 703.22,-282.5"/>
<text text-anchor="start" x="689" y="-193.8" font-family="Times,serif" font-size="14.00" fill="Green">Managed by</text>
</g>
<!-- XCFW&#45;&gt;SPM -->
<g id="edge12" class="edge">
<title>XCFW&#45;&gt;SPM</title>
<path fill="none" stroke="Green" d="M549.92,-62.55C604,-71.05 671.27,-87.04 725,-117 757.39,-135.06 769.81,-141.74 784,-176 800.17,-215.03 768.95,-257.61 742.44,-284.65"/>
<polygon fill="Green" stroke="Green" points="739.8,-282.34 735.13,-291.85 744.71,-287.32 739.8,-282.34"/>
<text text-anchor="start" x="789" y="-201.3" font-family="Times,serif" font-size="14.00" fill="Green">Consumed as</text>
<text text-anchor="start" x="788" y="-186.3" font-family="Times,serif" font-size="14.00" fill="Green">Binary Target</text>
</g>
<!-- SPMCLI&#45;&gt;CLI -->
<g id="edge9" class="edge">
<title>SPMCLI&#45;&gt;CLI</title>
<path fill="none" stroke="#ff9500" d="M342,-291.86C342,-274.45 342,-249.29 342,-229.47"/>
<polygon fill="#ff9500" stroke="#ff9500" points="345.5,-229.38 342,-219.38 338.5,-229.38 345.5,-229.38"/>
<text text-anchor="start" x="342" y="-251.8" font-family="Times,serif" font-size="14.00" fill="Green">Produces</text>
</g>
<!-- SPMLIB&#45;&gt;XCFW -->
<g id="edge10" class="edge">
<title>SPMLIB&#45;&gt;XCFW</title>
<path fill="none" stroke="#ff9500" d="M503.69,-175.94C495.1,-154.68 481.45,-120.91 470.63,-94.14"/>
<polygon fill="#ff9500" stroke="#ff9500" points="473.78,-92.59 466.78,-84.63 467.29,-95.21 473.78,-92.59"/>
<text text-anchor="start" x="491" y="-135.8" font-family="Times,serif" font-size="14.00" fill="Green">Builds Multi&#45;Platform</text>
<text text-anchor="start" x="511.5" y="-120.8" font-family="Times,serif" font-size="14.00" fill="Green">Binary Artifact</text>
</g>
<!-- SPMAPP&#45;&gt;APP -->
<g id="edge8" class="edge">
<title>SPMAPP&#45;&gt;APP</title>
<path fill="none" stroke="#ff9500" d="M196.25,-291.86C180.67,-273.73 157.85,-247.18 140.53,-227.03"/>
<polygon fill="#ff9500" stroke="#ff9500" points="143.12,-224.68 133.95,-219.38 137.81,-229.24 143.12,-224.68"/>
<text text-anchor="start" x="170" y="-251.8" font-family="Times,serif" font-size="14.00" fill="Green">Produces</text>
</g>
</g>
</svg>
