<?xml version="1.0" encoding="UTF-8" standalone="no"?>
<!DOCTYPE svg PUBLIC "-//W3C//DTD SVG 1.1//EN"
 "http://www.w3.org/Graphics/SVG/1.1/DTD/svg11.dtd">
<!-- Generated by graphviz version 13.0.0 (20250608.1624)
 -->
<!-- Title: G Pages: 1 -->
<svg width="1599pt" height="1354pt"
 viewBox="0.00 0.00 1599.00 1354.00" xmlns="http://www.w3.org/2000/svg" xmlns:xlink="http://www.w3.org/1999/xlink">
<g id="graph0" class="graph" transform="scale(1 1) rotate(0) translate(4 1350)">
<title>G</title>
<polygon fill="LightGrey" stroke="none" points="-4,4 -4,-1350 1595.25,-1350 1595.25,4 -4,4"/>
<!-- Swift -->
<g id="node1" class="node">
<title>Swift</title>
<path fill="#c2f0c2" stroke="black" d="M295,-881C295,-881 12,-881 12,-881 6,-881 0,-875 0,-869 0,-869 0,-821 0,-821 0,-815 6,-809 12,-809 12,-809 295,-809 295,-809 301,-809 307,-815 307,-821 307,-821 307,-869 307,-869 307,-875 301,-881 295,-881"/>
<text xml:space="preserve" text-anchor="start" x="8" y="-830.38" font-family="Helvetica,sans-Serif" font-weight="bold" font-size="35.00">My Swift Projects</text>
</g>
<!-- SPM -->
<g id="node2" class="node">
<title>SPM</title>
<path fill="#c2f0c2" stroke="black" d="M860.75,-1198C860.75,-1198 632.75,-1198 632.75,-1198 626.75,-1198 620.75,-1192 620.75,-1186 620.75,-1186 620.75,-1138 620.75,-1138 620.75,-1132 626.75,-1126 632.75,-1126 632.75,-1126 860.75,-1126 860.75,-1126 866.75,-1126 872.75,-1132 872.75,-1138 872.75,-1138 872.75,-1186 872.75,-1186 872.75,-1192 866.75,-1198 860.75,-1198"/>
<text xml:space="preserve" text-anchor="start" x="708.88" y="-1147.38" font-family="Helvetica,sans-Serif" font-weight="bold" font-size="35.00">SPM</text>
</g>
<!-- Swift&#45;&gt;SPM -->
<g id="edge1" class="edge">
<title>Swift&#45;&gt;SPM</title>
<path fill="none" stroke="Green" stroke-width="3.5" d="M222.32,-881.36C331.85,-940.09 547.23,-1055.56 664.68,-1118.53"/>
<polygon fill="Green" stroke="Green" stroke-width="3.5" points="662.67,-1121.43 673.14,-1123.07 665.98,-1115.26 662.67,-1121.43"/>
<text xml:space="preserve" text-anchor="start" x="413.25" y="-1108.48" font-family="Times,serif" font-size="30.00">Uses for</text>
<text xml:space="preserve" text-anchor="start" x="336" y="-1078.48" font-family="Times,serif" font-size="30.00">Dependency &amp; Build</text>
</g>
<!-- Xcode -->
<g id="node3" class="node">
<title>Xcode</title>
<path fill="#c2f0c2" stroke="black" d="M860.75,-612C860.75,-612 632.75,-612 632.75,-612 626.75,-612 620.75,-606 620.75,-600 620.75,-600 620.75,-552 620.75,-552 620.75,-546 626.75,-540 632.75,-540 632.75,-540 860.75,-540 860.75,-540 866.75,-540 872.75,-546 872.75,-552 872.75,-552 872.75,-600 872.75,-600 872.75,-606 866.75,-612 860.75,-612"/>
<text xml:space="preserve" text-anchor="start" x="693.88" y="-561.38" font-family="Helvetica,sans-Serif" font-weight="bold" font-size="35.00">Xcode</text>
</g>
<!-- Swift&#45;&gt;Xcode -->
<g id="edge2" class="edge">
<title>Swift&#45;&gt;Xcode</title>
<path fill="none" stroke="Green" stroke-width="3.5" d="M234.55,-808.58C343.23,-759.14 537.09,-670.93 652.3,-618.52"/>
<polygon fill="Green" stroke="Green" stroke-width="3.5" points="653.48,-621.83 661.13,-614.5 650.58,-615.45 653.48,-621.83"/>
<text xml:space="preserve" text-anchor="start" x="381.38" y="-789.49" font-family="Times,serif" font-size="30.00">Develops and</text>
<text xml:space="preserve" text-anchor="start" x="357" y="-759.49" font-family="Times,serif" font-size="30.00">Manages Projects</text>
</g>
<!-- geo_coord_classifier_Swift_ONNX_CoreML -->
<g id="node4" class="node">
<title>geo_coord_classifier_Swift_ONNX_CoreML</title>
<path fill="#f0f0f0" stroke="black" d="M1579.25,-1338C1579.25,-1338 943.75,-1338 943.75,-1338 937.75,-1338 931.75,-1332 931.75,-1326 931.75,-1326 931.75,-1278 931.75,-1278 931.75,-1272 937.75,-1266 943.75,-1266 943.75,-1266 1579.25,-1266 1579.25,-1266 1585.25,-1266 1591.25,-1272 1591.25,-1278 1591.25,-1278 1591.25,-1326 1591.25,-1326 1591.25,-1332 1585.25,-1338 1579.25,-1338"/>
<text xml:space="preserve" text-anchor="middle" x="1261.5" y="-1286.38" font-family="Helvetica,sans-Serif" font-size="35.00">geo&#45;coord&#45;classifier&#45;Swift&#45;ONNX&#45;CoreML</text>
</g>
<!-- SPM&#45;&gt;geo_coord_classifier_Swift_ONNX_CoreML -->
<g id="edge5" class="edge">
<title>SPM&#45;&gt;geo_coord_classifier_Swift_ONNX_CoreML</title>
<path fill="none" stroke="Green" stroke-width="3.5" d="M805.62,-1198.38C840.8,-1218.82 887.36,-1242.96 931.75,-1257 936.71,-1258.57 941.72,-1260.08 946.79,-1261.54"/>
<polygon fill="Green" stroke="Green" stroke-width="3.5" points="945.5,-1264.82 956.07,-1264.11 947.36,-1258.07 945.5,-1264.82"/>
</g>
<!-- classifier -->
<g id="node6" class="node">
<title>classifier</title>
<path fill="#f0f0f0" stroke="black" d="M1426.62,-1248.25C1426.62,-1248.25 1096.38,-1248.25 1096.38,-1248.25 1090.38,-1248.25 1084.38,-1242.25 1084.38,-1236.25 1084.38,-1236.25 1084.38,-1181.75 1084.38,-1181.75 1084.38,-1175.75 1090.38,-1169.75 1096.38,-1169.75 1096.38,-1169.75 1426.62,-1169.75 1426.62,-1169.75 1432.62,-1169.75 1438.62,-1175.75 1438.62,-1181.75 1438.62,-1181.75 1438.62,-1236.25 1438.62,-1236.25 1438.62,-1242.25 1432.62,-1248.25 1426.62,-1248.25"/>
<text xml:space="preserve" text-anchor="start" x="1194" y="-1211" font-family="Helvetica,sans-Serif" font-size="35.00">classifier</text>
<text xml:space="preserve" text-anchor="start" x="1092.38" y="-1175.75" font-family="Helvetica,sans-Serif" font-size="35.00">(C++ ONNX wrapper)</text>
</g>
<!-- SPM&#45;&gt;classifier -->
<g id="edge3" class="edge">
<title>SPM&#45;&gt;classifier</title>
<path fill="none" stroke="Green" stroke-width="3.5" d="M873.18,-1173.5C932.04,-1178.89 1003.5,-1185.44 1068.92,-1191.44"/>
<polygon fill="Green" stroke="Green" stroke-width="3.5" points="1068.54,-1194.92 1078.82,-1192.35 1069.18,-1187.95 1068.54,-1194.92"/>
</g>
<!-- cpp&#45;helloworld&#45;swift -->
<g id="node7" class="node">
<title>cpp&#45;helloworld&#45;swift</title>
<path fill="#f0f0f0" stroke="black" d="M1411.25,-1152C1411.25,-1152 1111.75,-1152 1111.75,-1152 1105.75,-1152 1099.75,-1146 1099.75,-1140 1099.75,-1140 1099.75,-1092 1099.75,-1092 1099.75,-1086 1105.75,-1080 1111.75,-1080 1111.75,-1080 1411.25,-1080 1411.25,-1080 1417.25,-1080 1423.25,-1086 1423.25,-1092 1423.25,-1092 1423.25,-1140 1423.25,-1140 1423.25,-1146 1417.25,-1152 1411.25,-1152"/>
<text xml:space="preserve" text-anchor="middle" x="1261.5" y="-1100.38" font-family="Helvetica,sans-Serif" font-size="35.00">cpp&#45;helloworld&#45;swift</text>
</g>
<!-- SPM&#45;&gt;cpp&#45;helloworld&#45;swift -->
<g id="edge4" class="edge">
<title>SPM&#45;&gt;cpp&#45;helloworld&#45;swift</title>
<path fill="none" stroke="Green" stroke-width="3.5" d="M873.18,-1150.75C936.71,-1145.05 1014.91,-1138.03 1084.36,-1131.8"/>
<polygon fill="Green" stroke="Green" stroke-width="3.5" points="1084.58,-1135.3 1094.22,-1130.92 1083.95,-1128.32 1084.58,-1135.3"/>
</g>
<!-- Geo_Coord_Classifier -->
<g id="node5" class="node">
<title>Geo_Coord_Classifier</title>
<path fill="#f0f0f0" stroke="black" d="M1410.12,-1062C1410.12,-1062 1112.88,-1062 1112.88,-1062 1106.88,-1062 1100.88,-1056 1100.88,-1050 1100.88,-1050 1100.88,-1002 1100.88,-1002 1100.88,-996 1106.88,-990 1112.88,-990 1112.88,-990 1410.12,-990 1410.12,-990 1416.12,-990 1422.12,-996 1422.12,-1002 1422.12,-1002 1422.12,-1050 1422.12,-1050 1422.12,-1056 1416.12,-1062 1410.12,-1062"/>
<text xml:space="preserve" text-anchor="middle" x="1261.5" y="-1010.38" font-family="Helvetica,sans-Serif" font-size="35.00">geo&#45;coord&#45;classifier</text>
</g>
<!-- Xcode&#45;&gt;Geo_Coord_Classifier -->
<g id="edge9" class="edge">
<title>Xcode&#45;&gt;Geo_Coord_Classifier</title>
<path fill="none" stroke="Green" stroke-width="3.5" d="M752.53,-612.42C765.25,-693.44 807.88,-888.73 931.75,-981 975.46,-1013.56 1031.76,-1028.19 1085.37,-1033.71"/>
<polygon fill="Green" stroke="Green" stroke-width="3.5" points="1084.87,-1037.18 1095.14,-1034.57 1085.48,-1030.21 1084.87,-1037.18"/>
</g>
<!-- ADRPositionChecker -->
<g id="node8" class="node">
<title>ADRPositionChecker</title>
<path fill="#f0f0f0" stroke="black" d="M1421.75,-972C1421.75,-972 1101.25,-972 1101.25,-972 1095.25,-972 1089.25,-966 1089.25,-960 1089.25,-960 1089.25,-912 1089.25,-912 1089.25,-906 1095.25,-900 1101.25,-900 1101.25,-900 1421.75,-900 1421.75,-900 1427.75,-900 1433.75,-906 1433.75,-912 1433.75,-912 1433.75,-960 1433.75,-960 1433.75,-966 1427.75,-972 1421.75,-972"/>
<text xml:space="preserve" text-anchor="middle" x="1261.5" y="-920.38" font-family="Helvetica,sans-Serif" font-size="35.00">ADRPositionChecker</text>
</g>
<!-- Xcode&#45;&gt;ADRPositionChecker -->
<g id="edge6" class="edge">
<title>Xcode&#45;&gt;ADRPositionChecker</title>
<path fill="none" stroke="Green" stroke-width="3.5" d="M757.46,-612.29C777.56,-679.66 830.51,-823.35 931.75,-891 973.29,-918.76 1024.42,-932.88 1073.87,-939.4"/>
<polygon fill="Green" stroke="Green" stroke-width="3.5" points="1073.2,-942.85 1083.54,-940.54 1074.02,-935.9 1073.2,-942.85"/>
</g>
<!-- AudioRecorder -->
<g id="node9" class="node">
<title>AudioRecorder</title>
<path fill="#f0f0f0" stroke="black" d="M1375.5,-882C1375.5,-882 1147.5,-882 1147.5,-882 1141.5,-882 1135.5,-876 1135.5,-870 1135.5,-870 1135.5,-822 1135.5,-822 1135.5,-816 1141.5,-810 1147.5,-810 1147.5,-810 1375.5,-810 1375.5,-810 1381.5,-810 1387.5,-816 1387.5,-822 1387.5,-822 1387.5,-870 1387.5,-870 1387.5,-876 1381.5,-882 1375.5,-882"/>
<text xml:space="preserve" text-anchor="middle" x="1261.5" y="-830.38" font-family="Helvetica,sans-Serif" font-size="35.00">AudioRecorder</text>
</g>
<!-- Xcode&#45;&gt;AudioRecorder -->
<g id="edge7" class="edge">
<title>Xcode&#45;&gt;AudioRecorder</title>
<path fill="none" stroke="Green" stroke-width="3.5" d="M766.05,-612.41C794.06,-663.92 852.73,-756.73 931.75,-801 988.51,-832.8 1059.17,-845.3 1120.42,-849.34"/>
<polygon fill="Green" stroke="Green" stroke-width="3.5" points="1119.9,-852.82 1130.08,-849.88 1120.29,-845.83 1119.9,-852.82"/>
</g>
<!-- ConnectivitySignalLevelViewer -->
<g id="node10" class="node">
<title>ConnectivitySignalLevelViewer</title>
<path fill="#f0f0f0" stroke="black" d="M1496,-792C1496,-792 1027,-792 1027,-792 1021,-792 1015,-786 1015,-780 1015,-780 1015,-732 1015,-732 1015,-726 1021,-720 1027,-720 1027,-720 1496,-720 1496,-720 1502,-720 1508,-726 1508,-732 1508,-732 1508,-780 1508,-780 1508,-786 1502,-792 1496,-792"/>
<text xml:space="preserve" text-anchor="middle" x="1261.5" y="-740.38" font-family="Helvetica,sans-Serif" font-size="35.00">ConnectivitySignalLevelViewer</text>
</g>
<!-- Xcode&#45;&gt;ConnectivitySignalLevelViewer -->
<g id="edge8" class="edge">
<title>Xcode&#45;&gt;ConnectivitySignalLevelViewer</title>
<path fill="none" stroke="Green" stroke-width="3.5" d="M785.17,-612.32C820.09,-643.91 875.19,-688.11 931.75,-711 953.42,-719.77 976.48,-726.89 999.94,-732.66"/>
<polygon fill="Green" stroke="Green" stroke-width="3.5" points="998.9,-736.01 1009.44,-734.88 1000.5,-729.2 998.9,-736.01"/>
</g>
<!-- GNSS -->
<g id="node11" class="node">
<title>GNSS</title>
<path fill="#f0f0f0" stroke="black" d="M1375.5,-702C1375.5,-702 1147.5,-702 1147.5,-702 1141.5,-702 1135.5,-696 1135.5,-690 1135.5,-690 1135.5,-642 1135.5,-642 1135.5,-636 1141.5,-630 1147.5,-630 1147.5,-630 1375.5,-630 1375.5,-630 1381.5,-630 1387.5,-636 1387.5,-642 1387.5,-642 1387.5,-690 1387.5,-690 1387.5,-696 1381.5,-702 1375.5,-702"/>
<text xml:space="preserve" text-anchor="middle" x="1261.5" y="-650.38" font-family="Helvetica,sans-Serif" font-size="35.00">GNSS</text>
</g>
<!-- Xcode&#45;&gt;GNSS -->
<g id="edge10" class="edge">
<title>Xcode&#45;&gt;GNSS</title>
<path fill="none" stroke="Green" stroke-width="3.5" d="M873.07,-608.49C892.64,-613.03 912.69,-617.37 931.75,-621 993.18,-632.68 1061.62,-642.55 1120.09,-650.04"/>
<polygon fill="Green" stroke="Green" stroke-width="3.5" points="1119.5,-653.49 1129.86,-651.28 1120.38,-646.55 1119.5,-653.49"/>
</g>
<!-- LangQuiz -->
<g id="node12" class="node">
<title>LangQuiz</title>
<path fill="#f0f0f0" stroke="black" d="M1375.5,-612C1375.5,-612 1147.5,-612 1147.5,-612 1141.5,-612 1135.5,-606 1135.5,-600 1135.5,-600 1135.5,-552 1135.5,-552 1135.5,-546 1141.5,-540 1147.5,-540 1147.5,-540 1375.5,-540 1375.5,-540 1381.5,-540 1387.5,-546 1387.5,-552 1387.5,-552 1387.5,-600 1387.5,-600 1387.5,-606 1381.5,-612 1375.5,-612"/>
<text xml:space="preserve" text-anchor="middle" x="1261.5" y="-560.38" font-family="Helvetica,sans-Serif" font-size="35.00">LangQuiz</text>
</g>
<!-- Xcode&#45;&gt;LangQuiz -->
<g id="edge11" class="edge">
<title>Xcode&#45;&gt;LangQuiz</title>
<path fill="none" stroke="Green" stroke-width="3.5" d="M873.18,-576C947.81,-576 1042.68,-576 1119.84,-576"/>
<polygon fill="Green" stroke="Green" stroke-width="3.5" points="1119.73,-579.5 1129.73,-576 1119.73,-572.5 1119.73,-579.5"/>
</g>
<!-- Map -->
<g id="node13" class="node">
<title>Map</title>
<path fill="#f0f0f0" stroke="black" d="M1375.5,-522C1375.5,-522 1147.5,-522 1147.5,-522 1141.5,-522 1135.5,-516 1135.5,-510 1135.5,-510 1135.5,-462 1135.5,-462 1135.5,-456 1141.5,-450 1147.5,-450 1147.5,-450 1375.5,-450 1375.5,-450 1381.5,-450 1387.5,-456 1387.5,-462 1387.5,-462 1387.5,-510 1387.5,-510 1387.5,-516 1381.5,-522 1375.5,-522"/>
<text xml:space="preserve" text-anchor="middle" x="1261.5" y="-470.38" font-family="Helvetica,sans-Serif" font-size="35.00">Map</text>
</g>
<!-- Xcode&#45;&gt;Map -->
<g id="edge12" class="edge">
<title>Xcode&#45;&gt;Map</title>
<path fill="none" stroke="Green" stroke-width="3.5" d="M873.07,-543.51C892.64,-538.97 912.69,-534.63 931.75,-531 993.18,-519.32 1061.62,-509.45 1120.09,-501.96"/>
<polygon fill="Green" stroke="Green" stroke-width="3.5" points="1120.38,-505.45 1129.86,-500.72 1119.5,-498.51 1120.38,-505.45"/>
</g>
<!-- Photo -->
<g id="node14" class="node">
<title>Photo</title>
<path fill="#f0f0f0" stroke="black" d="M1375.5,-432C1375.5,-432 1147.5,-432 1147.5,-432 1141.5,-432 1135.5,-426 1135.5,-420 1135.5,-420 1135.5,-372 1135.5,-372 1135.5,-366 1141.5,-360 1147.5,-360 1147.5,-360 1375.5,-360 1375.5,-360 1381.5,-360 1387.5,-366 1387.5,-372 1387.5,-372 1387.5,-420 1387.5,-420 1387.5,-426 1381.5,-432 1375.5,-432"/>
<text xml:space="preserve" text-anchor="middle" x="1261.5" y="-380.38" font-family="Helvetica,sans-Serif" font-size="35.00">Photo</text>
</g>
<!-- Xcode&#45;&gt;Photo -->
<g id="edge13" class="edge">
<title>Xcode&#45;&gt;Photo</title>
<path fill="none" stroke="Green" stroke-width="3.5" d="M785.17,-539.68C820.09,-508.09 875.19,-463.89 931.75,-441 990.95,-417.05 1060.52,-405.4 1120.39,-399.89"/>
<polygon fill="Green" stroke="Green" stroke-width="3.5" points="1120.44,-403.4 1130.11,-399.07 1119.85,-396.43 1120.44,-403.4"/>
</g>
<!-- SentimentAnalysis -->
<g id="node15" class="node">
<title>SentimentAnalysis</title>
<path fill="#f0f0f0" stroke="black" d="M1400.75,-342C1400.75,-342 1122.25,-342 1122.25,-342 1116.25,-342 1110.25,-336 1110.25,-330 1110.25,-330 1110.25,-282 1110.25,-282 1110.25,-276 1116.25,-270 1122.25,-270 1122.25,-270 1400.75,-270 1400.75,-270 1406.75,-270 1412.75,-276 1412.75,-282 1412.75,-282 1412.75,-330 1412.75,-330 1412.75,-336 1406.75,-342 1400.75,-342"/>
<text xml:space="preserve" text-anchor="middle" x="1261.5" y="-290.38" font-family="Helvetica,sans-Serif" font-size="35.00">SentimentAnalysis</text>
</g>
<!-- Xcode&#45;&gt;SentimentAnalysis -->
<g id="edge14" class="edge">
<title>Xcode&#45;&gt;SentimentAnalysis</title>
<path fill="none" stroke="Green" stroke-width="3.5" d="M766.05,-539.59C794.06,-488.08 852.73,-395.27 931.75,-351 980.78,-323.53 1040.18,-310.46 1094.93,-304.81"/>
<polygon fill="Green" stroke="Green" stroke-width="3.5" points="1094.95,-308.32 1104.59,-303.92 1094.31,-301.35 1094.95,-308.32"/>
</g>
<!-- SpeechToText -->
<g id="node16" class="node">
<title>SpeechToText</title>
<path fill="#f0f0f0" stroke="black" d="M1375.5,-252C1375.5,-252 1147.5,-252 1147.5,-252 1141.5,-252 1135.5,-246 1135.5,-240 1135.5,-240 1135.5,-192 1135.5,-192 1135.5,-186 1141.5,-180 1147.5,-180 1147.5,-180 1375.5,-180 1375.5,-180 1381.5,-180 1387.5,-186 1387.5,-192 1387.5,-192 1387.5,-240 1387.5,-240 1387.5,-246 1381.5,-252 1375.5,-252"/>
<text xml:space="preserve" text-anchor="middle" x="1261.5" y="-200.38" font-family="Helvetica,sans-Serif" font-size="35.00">SpeechToText</text>
</g>
<!-- Xcode&#45;&gt;SpeechToText -->
<g id="edge15" class="edge">
<title>Xcode&#45;&gt;SpeechToText</title>
<path fill="none" stroke="Green" stroke-width="3.5" d="M757.46,-539.71C777.56,-472.34 830.51,-328.65 931.75,-261 986.51,-224.41 1057.92,-211.53 1120.19,-208.47"/>
<polygon fill="Green" stroke="Green" stroke-width="3.5" points="1120.24,-211.97 1130.1,-208.1 1119.98,-204.98 1120.24,-211.97"/>
</g>
<!-- TextToSpeech -->
<g id="node17" class="node">
<title>TextToSpeech</title>
<path fill="#f0f0f0" stroke="black" d="M1375.5,-162C1375.5,-162 1147.5,-162 1147.5,-162 1141.5,-162 1135.5,-156 1135.5,-150 1135.5,-150 1135.5,-102 1135.5,-102 1135.5,-96 1141.5,-90 1147.5,-90 1147.5,-90 1375.5,-90 1375.5,-90 1381.5,-90 1387.5,-96 1387.5,-102 1387.5,-102 1387.5,-150 1387.5,-150 1387.5,-156 1381.5,-162 1375.5,-162"/>
<text xml:space="preserve" text-anchor="middle" x="1261.5" y="-110.38" font-family="Helvetica,sans-Serif" font-size="35.00">TextToSpeech</text>
</g>
<!-- Xcode&#45;&gt;TextToSpeech -->
<g id="edge16" class="edge">
<title>Xcode&#45;&gt;TextToSpeech</title>
<path fill="none" stroke="Green" stroke-width="3.5" d="M752.53,-539.58C765.25,-458.56 807.88,-263.27 931.75,-171 985.11,-131.26 1057.23,-118.22 1120.33,-115.87"/>
<polygon fill="Green" stroke="Green" stroke-width="3.5" points="1120.11,-119.38 1130.02,-115.63 1119.94,-112.38 1120.11,-119.38"/>
</g>
<!-- Video -->
<g id="node18" class="node">
<title>Video</title>
<path fill="#f0f0f0" stroke="black" d="M1375.5,-72C1375.5,-72 1147.5,-72 1147.5,-72 1141.5,-72 1135.5,-66 1135.5,-60 1135.5,-60 1135.5,-12 1135.5,-12 1135.5,-6 1141.5,0 1147.5,0 1147.5,0 1375.5,0 1375.5,0 1381.5,0 1387.5,-6 1387.5,-12 1387.5,-12 1387.5,-60 1387.5,-60 1387.5,-66 1381.5,-72 1375.5,-72"/>
<text xml:space="preserve" text-anchor="middle" x="1261.5" y="-20.38" font-family="Helvetica,sans-Serif" font-size="35.00">Video</text>
</g>
<!-- Xcode&#45;&gt;Video -->
<g id="edge17" class="edge">
<title>Xcode&#45;&gt;Video</title>
<path fill="none" stroke="Green" stroke-width="3.5" d="M749.24,-539.57C755.17,-446.45 784.71,-198.8 931.75,-81 983.98,-39.15 1056.52,-26.02 1120.17,-24.16"/>
<polygon fill="Green" stroke="Green" stroke-width="3.5" points="1120.05,-27.66 1130,-24 1119.94,-20.66 1120.05,-27.66"/>
</g>
</g>
</svg>
