<svg xmlns="http://www.w3.org/2000/svg" xmlns:xlink="http://www.w3.org/1999/xlink" contentStyleType="text/css" data-diagram-type="DESCRIPTION" height="632px" preserveAspectRatio="none" style="width:1368px;height:632px;background:#FCFBF9;" version="1.1" viewBox="0 0 1368 632" width="1368px" zoomAndPan="magnify"><defs/><g><rect fill="#FCFBF9" height="632" style="stroke:none;stroke-width:1;" width="1368" x="0" y="0"/><!--cluster Remote Access Layer--><g class="cluster" data-entity="Remote Access Layer" data-source-line="42" data-uid="ent0003" id="cluster_Remote Access Layer"><rect fill="#E8EAF6" height="138" rx="5" ry="5" style="stroke:#3F51B5;stroke-width:1;" width="161" x="67.58" y="458"/><text fill="#000000" font-family="Helvetica" font-size="14" font-style="italic" lengthAdjust="spacing" textLength="59.1445" x="118.5077" y="470.7803">&#171;remote&#187;</text><text fill="#000000" font-family="Helvetica" font-size="14" font-weight="bold" lengthAdjust="spacing" textLength="145.5234" x="75.3183" y="484.7803">Remote Access Layer</text></g><!--cluster macOS Native Host--><g class="cluster" data-entity="macOS Native Host" data-source-line="49" data-uid="ent0006" id="cluster_macOS Native Host"><rect fill="#F2F2F2" height="619.5" rx="5" ry="5" style="stroke:#444444;stroke-width:1;" width="1110" x="252.58" y="7"/><text fill="#000000" font-family="Helvetica" font-size="14" font-style="italic" lengthAdjust="spacing" textLength="42.0342" x="786.5629" y="19.7803">&#171;host&#187;</text><text fill="#000000" font-family="Helvetica" font-size="14" font-weight="bold" lengthAdjust="spacing" textLength="129.1582" x="743.0009" y="33.7803">macOS Native Host</text></g><!--cluster Project B: LangQuiz Core (Swift)--><g class="cluster" data-entity="Project B. LangQuiz Core .Swift." data-source-line="51" data-uid="ent0007" id="cluster_Project B. LangQuiz Core .Swift."><rect fill="#E1F5FE" height="349" rx="5" ry="5" style="stroke:#1976D2;stroke-width:1;" width="234" x="276.58" y="62"/><text fill="#000000" font-family="Helvetica" font-size="14" font-style="italic" lengthAdjust="spacing" textLength="66.9307" x="360.1147" y="74.7803">&#171;projectB&#187;</text><text fill="#000000" font-family="Helvetica" font-size="14" font-weight="bold" lengthAdjust="spacing" textLength="216.2275" x="285.4662" y="88.7803">Project B: LangQuiz Core (Swift)</text></g><!--cluster Native AI Engines--><g class="cluster" data-entity="Native AI Engines" data-source-line="56" data-uid="ent0010" id="cluster_Native AI Engines"><rect fill="none" height="152" rx="5" ry="5" style="stroke:#181818;stroke-width:1;" width="331" x="534.58" y="252"/><text fill="#000000" font-family="Helvetica" font-size="14" font-style="italic" lengthAdjust="spacing" textLength="64.6133" x="667.7734" y="264.7803">&#171;engines&#187;</text><text fill="#000000" font-family="Helvetica" font-size="14" font-weight="bold" lengthAdjust="spacing" textLength="118.2549" x="640.9526" y="278.7803">Native AI Engines</text></g><!--cluster Apple Container (Project A)--><g class="cluster" data-entity="Apple Container .Project A." data-source-line="64" data-uid="ent0015" id="cluster_Apple Container .Project A."><rect fill="#ECEFF1" height="343.5" rx="5" ry="5" style="stroke:#455A64;stroke-width:1;" width="449" x="889.58" y="259"/><text fill="#000000" font-family="Helvetica" font-size="14" font-style="italic" lengthAdjust="spacing" textLength="73.165" x="1077.4975" y="271.7803">&#171;container&#187;</text><text fill="#000000" font-family="Helvetica" font-size="14" font-weight="bold" lengthAdjust="spacing" textLength="182.793" x="1022.6835" y="285.7803">Apple Container (Project A)</text></g><!--entity RemoteClient--><g class="entity" data-entity="RemoteClient" data-source-line="43" data-uid="ent0004" id="entity_RemoteClient"><polygon fill="#FFFFFF" points="88.57,546,98.57,536,212.5905,536,212.5905,570,202.5905,580,88.57,580,88.57,546" style="stroke:#666666;stroke-width:0.5;"/><line style="stroke:#666666;stroke-width:0.5;" x1="202.5905" x2="212.5905" y1="546" y2="536"/><line style="stroke:#666666;stroke-width:0.5;" x1="88.57" x2="202.5905" y1="546" y2="546"/><line style="stroke:#666666;stroke-width:0.5;" x1="202.5905" x2="202.5905" y1="546" y2="580"/><text fill="#000000" font-family="Helvetica" font-size="14" lengthAdjust="spacing" textLength="84.0205" x="103.57" y="566.7803">Web Browser</text></g><!--entity Pipeline--><g class="entity" data-entity="Pipeline" data-source-line="61" data-uid="ent0013" id="entity_Pipeline"><polygon fill="#FFE0B2" points="988.6,143,998.6,133,1172.558,133,1172.558,181,1162.558,191,988.6,191,988.6,143" style="stroke:#666666;stroke-width:0.5;"/><line style="stroke:#666666;stroke-width:0.5;" x1="1162.558" x2="1172.558" y1="143" y2="133"/><line style="stroke:#666666;stroke-width:0.5;" x1="988.6" x2="1162.558" y1="143" y2="143"/><line style="stroke:#666666;stroke-width:0.5;" x1="1162.558" x2="1162.558" y1="143" y2="191"/><text fill="#000000" font-family="Helvetica" font-size="14" lengthAdjust="spacing" textLength="143.958" x="1003.6" y="163.7803">Native Pipeline Service</text><text fill="#000000" font-family="Helvetica" font-size="14" lengthAdjust="spacing" textLength="140.834" x="1003.6" y="177.7803">(Media Preprocessing)</text></g><!--entity HW--><g class="entity" data-entity="HW" data-source-line="62" data-uid="ent0014" id="entity_HW"><polygon fill="#EEEEEE" points="542.57,532,552.57,522,708.5905,522,708.5905,584,698.5905,594,542.57,594,542.57,532" style="stroke:#666666;stroke-width:0.5;"/><line style="stroke:#666666;stroke-width:0.5;" x1="698.5905" x2="708.5905" y1="532" y2="522"/><line style="stroke:#666666;stroke-width:0.5;" x1="542.57" x2="698.5905" y1="532" y2="532"/><line style="stroke:#666666;stroke-width:0.5;" x1="698.5905" x2="698.5905" y1="532" y2="594"/><text fill="#000000" font-family="Helvetica" font-size="14" font-style="italic" lengthAdjust="spacing" textLength="53.7168" x="593.7219" y="552.7803">&#171;box3d&#187;</text><text fill="#000000" font-family="Helvetica" font-size="14" lengthAdjust="spacing" textLength="108.1514" x="557.57" y="566.7803">Apple Silicon HW</text><text fill="#000000" font-family="Helvetica" font-size="14" lengthAdjust="spacing" textLength="126.0205" x="557.57" y="580.7803">(Metal / GPU / ANE)</text></g><!--entity ConvMgr--><g class="entity" data-entity="ConvMgr" data-source-line="52" data-uid="ent0008" id="entity_ConvMgr"><polygon fill="#FFF9C4" points="307.22,150,317.22,140,491.9368,140,491.9368,174,481.9368,184,307.22,184,307.22,150" style="stroke:#666666;stroke-width:0.5;"/><line style="stroke:#666666;stroke-width:0.5;" x1="481.9368" x2="491.9368" y1="150" y2="140"/><line style="stroke:#666666;stroke-width:0.5;" x1="307.22" x2="481.9368" y1="150" y2="150"/><line style="stroke:#666666;stroke-width:0.5;" x1="481.9368" x2="481.9368" y1="150" y2="184"/><text fill="#000000" font-family="Helvetica" font-size="14" lengthAdjust="spacing" textLength="144.7168" x="322.22" y="170.7803">Swift Conversation Mgr</text></g><!--entity NativeAudio--><g class="entity" data-entity="NativeAudio" data-source-line="53" data-uid="ent0009" id="entity_NativeAudio"><polygon fill="#E1F5FE" points="293.04,333,303.04,323,494.1152,323,494.1152,385,484.1152,395,293.04,395,293.04,333" style="stroke:#666666;stroke-width:0.5;"/><line style="stroke:#666666;stroke-width:0.5;" x1="484.1152" x2="494.1152" y1="333" y2="323"/><line style="stroke:#666666;stroke-width:0.5;" x1="293.04" x2="484.1152" y1="333" y2="333"/><line style="stroke:#666666;stroke-width:0.5;" x1="484.1152" x2="484.1152" y1="333" y2="395"/><text fill="#000000" font-family="Helvetica" font-size="14" font-style="italic" lengthAdjust="spacing" textLength="100.3926" x="338.3813" y="353.7803">&#171;parallelogram&#187;</text><text fill="#000000" font-family="Helvetica" font-size="14" lengthAdjust="spacing" textLength="161.0752" x="308.04" y="367.7803">Apple Speech Framework</text><text fill="#000000" font-family="Helvetica" font-size="14" lengthAdjust="spacing" textLength="101.9033" x="308.04" y="381.7803">(TTS / Dictation)</text></g><!--entity Ollama--><g class="entity" data-entity="Ollama" data-source-line="57" data-uid="ent0011" id="entity_Ollama"><polygon fill="#FFF3E0" points="550.86,340,560.86,330,700.2936,330,700.2936,378,690.2936,388,550.86,388,550.86,340" style="stroke:#666666;stroke-width:0.5;"/><line style="stroke:#666666;stroke-width:0.5;" x1="690.2936" x2="700.2936" y1="340" y2="330"/><line style="stroke:#666666;stroke-width:0.5;" x1="550.86" x2="690.2936" y1="340" y2="340"/><line style="stroke:#666666;stroke-width:0.5;" x1="690.2936" x2="690.2936" y1="340" y2="388"/><text fill="#000000" font-family="Helvetica" font-size="14" font-style="italic" lengthAdjust="spacing" textLength="107.4336" x="566.86" y="360.7803">&#171;doubleoctagon&#187;</text><text fill="#000000" font-family="Helvetica" font-size="14" lengthAdjust="spacing" textLength="70.7998" x="585.1769" y="374.7803">Ollama API</text></g><!--entity Whisper--><g class="entity" data-entity="Whisper" data-source-line="58" data-uid="ent0012" id="entity_Whisper"><polygon fill="#F3E5F5" points="735.22,347,745.22,337,849.9231,337,849.9231,371,839.9231,381,735.22,381,735.22,347" style="stroke:#666666;stroke-width:0.5;"/><line style="stroke:#666666;stroke-width:0.5;" x1="839.9231" x2="849.9231" y1="347" y2="337"/><line style="stroke:#666666;stroke-width:0.5;" x1="735.22" x2="839.9231" y1="347" y2="347"/><line style="stroke:#666666;stroke-width:0.5;" x1="839.9231" x2="839.9231" y1="347" y2="381"/><text fill="#000000" font-family="Helvetica" font-size="14" lengthAdjust="spacing" textLength="74.7031" x="750.22" y="367.7803">whisper.cpp</text></g><!--entity FastAPI--><g class="entity" data-entity="FastAPI" data-source-line="65" data-uid="ent0016" id="entity_FastAPI"><polygon fill="#E0F2F1" points="905.78,546,915.78,536,1073.3728,536,1073.3728,570,1063.3728,580,905.78,580,905.78,546" style="stroke:#666666;stroke-width:0.5;"/><line style="stroke:#666666;stroke-width:0.5;" x1="1063.3728" x2="1073.3728" y1="546" y2="536"/><line style="stroke:#666666;stroke-width:0.5;" x1="905.78" x2="1063.3728" y1="546" y2="546"/><line style="stroke:#666666;stroke-width:0.5;" x1="1063.3728" x2="1063.3728" y1="546" y2="580"/><text fill="#000000" font-family="Helvetica" font-size="14" lengthAdjust="spacing" textLength="127.5928" x="920.78" y="566.7803">FastAPI Web Server</text></g><!--entity Spacy--><g class="entity" data-entity="Spacy" data-source-line="66" data-uid="ent0017" id="entity_Spacy"><polygon fill="#E8F5E9" points="910.83,347,920.83,337,1068.3193,337,1068.3193,371,1058.3193,381,910.83,381,910.83,347" style="stroke:#666666;stroke-width:0.5;"/><line style="stroke:#666666;stroke-width:0.5;" x1="1058.3193" x2="1068.3193" y1="347" y2="337"/><line style="stroke:#666666;stroke-width:0.5;" x1="910.83" x2="1058.3193" y1="347" y2="347"/><line style="stroke:#666666;stroke-width:0.5;" x1="1058.3193" x2="1058.3193" y1="347" y2="381"/><text fill="#000000" font-family="Helvetica" font-size="14" lengthAdjust="spacing" textLength="117.4893" x="925.83" y="367.7803">spaCy NLP Library</text></g><!--entity Assets--><g class="entity" data-entity="Assets" data-source-line="67" data-uid="ent0018" id="entity_Assets"><path d="M1182.26,539.5 C1182.26,529.5 1252.5803,529.5 1252.5803,529.5 C1252.5803,529.5 1322.9006,529.5 1322.9006,539.5 L1322.9006,576.5 C1322.9006,586.5 1252.5803,586.5 1252.5803,586.5 C1252.5803,586.5 1182.26,586.5 1182.26,576.5 L1182.26,539.5" fill="#FFFFFF" style="stroke:#181818;stroke-width:0.5;"/><path d="M1182.26,539.5 C1182.26,549.5 1252.5803,549.5 1252.5803,549.5 C1252.5803,549.5 1322.9006,549.5 1322.9006,539.5" fill="none" style="stroke:#181818;stroke-width:0.5;"/><text fill="#000000" font-family="Helvetica" font-size="14" lengthAdjust="spacing" textLength="120.6406" x="1192.26" y="564.2803">Video and Subtitles</text><text fill="#000000" font-family="Helvetica" font-size="14" lengthAdjust="spacing" textLength="66.9238" x="1192.26" y="578.2803">Data Store</text></g><!--entity AudioIO--><g class="entity" data-entity="AudioIO" data-source-line="40" data-uid="ent0002" id="entity_AudioIO"><polygon fill="#F5F5F5" points="16,333,26,323,199.1514,323,199.1514,385,189.1514,395,16,395,16,333" style="stroke:#666666;stroke-width:0.5;"/><line style="stroke:#666666;stroke-width:0.5;" x1="189.1514" x2="199.1514" y1="333" y2="323"/><line style="stroke:#666666;stroke-width:0.5;" x1="16" x2="189.1514" y1="333" y2="333"/><line style="stroke:#666666;stroke-width:0.5;" x1="189.1514" x2="189.1514" y1="333" y2="395"/><text fill="#000000" font-family="Helvetica" font-size="14" font-style="italic" lengthAdjust="spacing" textLength="53.7168" x="75.7173" y="353.7803">&#171;box3d&#187;</text><text fill="#000000" font-family="Helvetica" font-size="14" lengthAdjust="spacing" textLength="143.1514" x="31" y="367.7803">System Mic / Speakers</text><text fill="#000000" font-family="Helvetica" font-size="14" lengthAdjust="spacing" textLength="102.6895" x="31" y="381.7803">(Host Hardware)</text></g><!--link AudioIO to RemoteClient--><!--link AudioIO to NativeAudio--><g class="link" data-entity-1="AudioIO" data-entity-2="NativeAudio" data-source-line="73" data-uid="lnk19" id="link_AudioIO_NativeAudio"><path d="M199.63,375.04 C206.2,375.82 212.74,376.49 219.09,377 C242.92,378.91 262.5658,378.5157 286.6458,376.2757" fill="none" id="AudioIO-to-NativeAudio" style="stroke:#444444;stroke-width:1;"/><polygon fill="#444444" points="292.62,375.72,283.2882,372.5708,287.6415,376.1831,284.0292,380.5364,292.62,375.72" style="stroke:#444444;stroke-width:1;"/><text fill="#222222" font-family="Helvetica" font-size="13" lengthAdjust="spacing" textLength="52.7427" x="220.09" y="373.0103">Mic Input</text></g><!--reverse link AudioIO to NativeAudio--><g class="link" data-entity-1="AudioIO" data-entity-2="NativeAudio" data-source-line="74" data-uid="lnk21" id="link_AudioIO_NativeAudio"><path d="M205.64,359 C235.36,359 262.46,359 292.77,359" fill="none" id="AudioIO-backto-NativeAudio" style="stroke:#444444;stroke-width:1;"/><polygon fill="#444444" points="199.64,359,208.64,363,204.64,359,208.64,355,199.64,359" style="stroke:#444444;stroke-width:1;"/><text fill="#222222" font-family="Helvetica" font-size="13" lengthAdjust="spacing" textLength="57.8145" x="217.59" y="352.0103">Audio Out</text></g><!--link RemoteClient to FastAPI--><g class="link" data-entity-1="RemoteClient" data-entity-2="FastAPI" data-source-line="76" data-uid="lnk22" id="link_RemoteClient_FastAPI"><path d="M164.19,535.62 C181.22,510.05 212.99,469.59 252.58,452.83 C318.98,424.73 836.24,422.31 901.58,452.83 C938.03,469.86 961.8234,504.9745 975.7434,530.4545" fill="none" id="RemoteClient-to-FastAPI" style="stroke:#444444;stroke-width:1;"/><polygon fill="#444444" points="978.62,535.72,977.8154,525.9041,976.2228,531.3321,970.7948,529.7395,978.62,535.72" style="stroke:#444444;stroke-width:1;"/><text fill="#222222" font-family="Helvetica" font-size="13" lengthAdjust="spacing" textLength="80.9263" x="504.58" y="438.0103">Web Interface</text></g><!--link Pipeline to Whisper--><g class="link" data-entity-1="Pipeline" data-entity-2="Whisper" data-source-line="78" data-uid="lnk23" id="link_Pipeline_Whisper"><path d="M989.98,191.49 C956.59,204.47 919.62,221.93 889.58,244 C853.97,270.15 826.2306,306.8627 809.3606,331.9227" fill="none" id="Pipeline-to-Whisper" style="stroke:#444444;stroke-width:1;"/><polygon fill="#444444" points="806.01,336.9,814.3541,331.6678,808.8022,332.7523,807.7178,327.2003,806.01,336.9" style="stroke:#444444;stroke-width:1;"/><text fill="#222222" font-family="Helvetica" font-size="13" lengthAdjust="spacing" textLength="111.998" x="923.84" y="232.0103">Audio Transcription</text></g><!--link Pipeline to Assets--><g class="link" data-entity-1="Pipeline" data-entity-2="Assets" data-source-line="79" data-uid="lnk24" id="link_Pipeline_Assets"><path d="M1092.95,191.34 C1124.72,264.12 1206.5094,451.4812 1238.0294,523.6812" fill="none" id="Pipeline-to-Assets" style="stroke:#444444;stroke-width:1;"/><polygon fill="#444444" points="1240.43,529.18,1240.495,519.3314,1238.4295,524.5976,1233.1632,522.5322,1240.43,529.18" style="stroke:#444444;stroke-width:1;"/><text fill="#222222" font-family="Helvetica" font-size="13" lengthAdjust="spacing" textLength="72.9536" x="1193.03" y="362.5103">Write Assets</text></g><!--link ConvMgr to NativeAudio--><g class="link" data-entity-1="ConvMgr" data-entity-2="NativeAudio" data-source-line="81" data-uid="lnk25" id="link_ConvMgr_NativeAudio"><path d="M398.92,184.24 C397.9,217.5 396.0956,276.2629 394.8456,316.6429" fill="none" id="ConvMgr-to-NativeAudio" style="stroke:#444444;stroke-width:1;"/><polygon fill="#444444" points="394.66,322.64,398.9366,313.7681,394.8147,317.6424,390.9404,313.5205,394.66,322.64" style="stroke:#444444;stroke-width:1;"/><text fill="#222222" font-family="Helvetica" font-size="13" lengthAdjust="spacing" textLength="41.9072" x="398.63" y="232.0103">Control</text></g><!--link ConvMgr to Ollama--><g class="link" data-entity-1="ConvMgr" data-entity-2="Ollama" data-source-line="82" data-uid="lnk26" id="link_ConvMgr_Ollama"><path d="M424.42,184.21 C443.05,199.58 469.54,220.33 494.58,236 C501.31,240.22 504.12,239.37 510.58,244 C545.52,269.07 575.8049,300.4057 597.7049,325.1657" fill="none" id="ConvMgr-to-Ollama" style="stroke:#444444;stroke-width:1;"/><polygon fill="#444444" points="601.68,329.66,598.7135,320.2685,598.3674,325.9148,592.7211,325.5687,601.68,329.66" style="stroke:#444444;stroke-width:1;"/><text fill="#222222" font-family="Helvetica" font-size="13" lengthAdjust="spacing" textLength="66.4727" x="495.58" y="232.0103">Chat Query</text></g><!--link FastAPI to Assets--><g class="link" data-entity-1="FastAPI" data-entity-2="Assets" data-source-line="84" data-uid="lnk27" id="link_FastAPI_Assets"><path d="M1073.51,558 C1108.39,558 1142.43,558 1175.78,558" fill="none" id="FastAPI-to-Assets" style="stroke:#444444;stroke-width:1;"/><polygon fill="#444444" points="1181.78,558,1172.78,554,1176.78,558,1172.78,562,1181.78,558" style="stroke:#444444;stroke-width:1;"/><text fill="#222222" font-family="Helvetica" font-size="13" lengthAdjust="spacing" textLength="72.96" x="1091.81" y="551.0103">Stream Files</text></g><!--reverse link Spacy to FastAPI--><g class="link" data-entity-1="Spacy" data-entity-2="FastAPI" data-source-line="85" data-uid="lnk29" id="link_Spacy_FastAPI"><path d="M989.58,387.46 C989.58,425.35 989.58,497.69 989.58,535.57" fill="none" id="Spacy-backto-FastAPI" style="stroke:#444444;stroke-width:1;"/><polygon fill="#444444" points="989.58,381.46,985.58,390.46,989.58,386.46,993.58,390.46,989.58,381.46" style="stroke:#444444;stroke-width:1;"/><text fill="#222222" font-family="Helvetica" font-size="13" lengthAdjust="spacing" textLength="92.46" x="990.58" y="438.0103">Grammar Parse</text></g><!--reverse link Ollama to FastAPI--><g class="link" data-entity-1="Ollama" data-entity-2="FastAPI" data-source-line="86" data-uid="lnk31" id="link_Ollama_FastAPI"><path d="M667.1528,391.7557 C683.3128,402.9457 698.11,411.48 717.58,419 C736.92,426.47 883.63,439.61 901.58,450 C936.96,470.48 964.16,510.95 978.44,535.82" fill="none" id="Ollama-backto-FastAPI" style="stroke:#444444;stroke-width:1;"/><polygon fill="#444444" points="662.22,388.34,667.3421,396.7522,666.3307,391.1864,671.8964,390.1751,662.22,388.34" style="stroke:#444444;stroke-width:1;"/><text fill="#222222" font-family="Helvetica" font-size="13" lengthAdjust="spacing" textLength="100.4009" x="866.97" y="438.0103">Grammar Prompt</text></g><!--link NativeAudio to HW--><g class="link" data-entity-1="NativeAudio" data-entity-2="HW" data-source-line="88" data-uid="lnk32" id="link_NativeAudio_HW"><path d="M435.32,395.45 C477.33,431.12 537.1765,481.9364 579.2065,517.6264" fill="none" id="NativeAudio-to-HW" style="stroke:#444444;stroke-width:1;"/><polygon fill="#444444" points="583.78,521.51,579.5088,512.6355,579.9687,518.2736,574.3306,518.7336,583.78,521.51" style="stroke:#444444;stroke-width:1;"/></g><!--link Whisper to HW--><g class="link" data-entity-1="Whisper" data-entity-2="HW" data-source-line="89" data-uid="lnk33" id="link_Whisper_HW"><path d="M794.46,381.34 C794.99,398.81 793.38,423.56 782.58,442 C762.85,475.67 734.0751,499.2338 702.8251,518.3938" fill="none" id="Whisper-to-HW" style="stroke:#444444;stroke-width:1;"/><polygon fill="#444444" points="697.71,521.53,707.4735,520.2358,701.9726,518.9165,703.2919,513.4157,697.71,521.53" style="stroke:#444444;stroke-width:1;"/></g><!--link Ollama to HW--><g class="link" data-entity-1="Ollama" data-entity-2="HW" data-source-line="90" data-uid="lnk34" id="link_Ollama_HW"><path d="M625.58,388.23 C625.58,423.44 625.58,477.66 625.58,515.84" fill="none" id="Ollama-to-HW" style="stroke:#444444;stroke-width:1;"/><polygon fill="#444444" points="625.58,521.84,629.58,512.84,625.58,516.84,621.58,512.84,625.58,521.84" style="stroke:#444444;stroke-width:1;"/></g><!--SRC=[TLRDRkCs4BxhAMRZGvA3s_ot2O80iYF5tjgMr_8cADeYe2N6PYoJ0aKfwopo27s0eYSVUoXww2DayruTKZ-HuvG638cS-MRccnzg6wwNCK_Lyz-GpQFdLVYyulZy64fnBxBdlsO2vi__XYc40XPKaP0eyA-lh0-n9DC5WIIRzlDj0dSaIgXbROFBlcYG2P4PWLWyaX3VOYdWaTopbvNwzgS-_lOxKpJY8b4CifSL3MOeayrV_h6IEUCnaMI14C5yAaNAmq14GaB3RRijzxGcaSn8A1uOdnRcNq-CMbj8JYNixzKEBkaTIIFb2gu6P46XGwECAXOGxJiUCiu2ghsdcV4wOdo-10BpY2HABgqFePQXqEiEdDksr_D6q3WogpfgzpxxOsTqs_7yCJfze7yRXyEHz_6s1GrdtprsdOtZjZSOssW2qPssuxhx6n8Zf- -D7Jp-qR7T4wiUEmqKuTE8mbSBSBKg7jkQn_Fp6T9-SR7cPoueP4Zbkj1hdEzZ8KVtQAzLmyj3sqIiYJRsJtyukJnu7pB0t10CLTOmApusOUlYZQFZO_law7rSIHT2qHfeJk4cOYNOE7IFzrl7rbETNYx2_s4MastMMqHed9XbzdNb5RjxPcdqRHXWUP6Cyg9PNbOiDdKNYvWbysNDlYsbUCWHQibvSrwpSc2Mjj5iDk6oQr-DxBv-jYmJofQ_J1HTG9y5y3tuCILpAfDV-Ku7Am0wH8OFs0sxMq0IiDEGYQu7v-SJyUKmr1HX-UBFibwhRcja-0Cx26YIG8yigTo26gqvURdn6pg15ZgSQ1cqaEks8qQvglWq35rJgTZyUHLfZj8a5Yz_L2ChYsWchDAxvYyp5eQK_uR3WJVN8DVyN930yv5vnJ8S11YjzhAe-w-MSR8cFSpB5rfd61AVVahP8-24eR3ZFx0xjQkLQoMU1_aQg1521PuXksXISEXFyvZr9ZwRS4_RHsyKxJX6yvWNFIHTp31z47AE-HcFVKpO9KCFDLoUeJmQmuJs1oiYYcWafgYdirMC6ut-j15XmOJT1OTFiQCI7HBD7z-9o8iYWhU0FUmQoyNh-Naeqab41S9E1JSbuhg7pjuRxOSPIs8glmlYsAZVvEyeVUZeWggvc2iKtWrPJ2Cz27qgCvpLI4IVXep0K5AaNvSSNWWv6PKikk3ijGwi3LPPn71-GEV6m2WI8QDNmy_uRm-S7AHpKoztnwmDwdAuTZcAOAUi5jlKHNr6lQNHnSv73a5tWewfQ8Hok-7iuGMo_qOfYKbx2OFU47fi8ebS6Xq_9i5INmdkiNDQQUZxUK8IrBfc8HL0U0X-Eb5CHHJx_59Vtxx2IivRF4ceIjP6sLFUW7fyZBsVVeOTj-VT-Blv3AcQJhBfJ3KlrYhmp4oLBezJPTNtcn6zqxAbybd-11xAMMiZe88j-JWpH7MvelAE1FZ9KIMvQThzegga4dGi2Ky2oMBT9JNn4hc8684bqsFBl5fMsPKbx7fSEjLIHAzI9LhH1YWnmy-bJod5ZmQhT7xJfgyanQ7jCip5grWQeqoUpJEumjvT40b38l4RPrscibO9IR68aSGrjei8EZTMoKrjgu2exVm7]--></g></svg>