<svg xmlns="http://www.w3.org/2000/svg" xmlns:xlink="http://www.w3.org/1999/xlink" contentStyleType="text/css" data-diagram-type="DESCRIPTION" height="779px" preserveAspectRatio="none" style="width:1427px;height:779px;background:#FCFBF9;" version="1.1" viewBox="0 0 1427 779" width="1427px" zoomAndPan="magnify"><defs/><g><rect fill="#FCFBF9" height="779" style="stroke:none;stroke-width:1;" width="1427" x="0" y="0"/><!--cluster Remote Access Layer (Client Machine)--><g class="cluster" data-entity="Remote Access Layer .Client Machine." data-source-line="40" data-uid="ent0002" id="cluster_Remote Access Layer .Client Machine."><rect fill="#E8EAF6" height="736" rx="5" ry="5" style="stroke:#3F51B5;stroke-width:1;" width="280" x="7" y="7"/><text fill="#000000" font-family="Helvetica" font-size="14" font-style="italic" lengthAdjust="spacing" textLength="59.1445" x="117.4277" y="19.7803">&#171;remote&#187;</text><text fill="#000000" font-family="Helvetica" font-size="14" font-weight="bold" lengthAdjust="spacing" textLength="257.5303" x="18.2349" y="33.7803">Remote Access Layer (Client Machine)</text></g><!--cluster macOS Native Host--><g class="cluster" data-entity="macOS Native Host" data-source-line="52" data-uid="ent0010" id="cluster_macOS Native Host"><rect fill="#F2F2F2" height="569.5" rx="5" ry="5" style="stroke:#444444;stroke-width:1;" width="1110" x="311" y="204"/><text fill="#000000" font-family="Helvetica" font-size="14" font-style="italic" lengthAdjust="spacing" textLength="42.0342" x="844.9829" y="216.7803">&#171;host&#187;</text><text fill="#000000" font-family="Helvetica" font-size="14" font-weight="bold" lengthAdjust="spacing" textLength="129.1582" x="801.4209" y="230.7803">macOS Native Host</text></g><!--cluster Project B: LangQuiz Core (Swift)--><g class="cluster" data-entity="Project B. LangQuiz Core .Swift." data-source-line="54" data-uid="ent0011" id="cluster_Project B. LangQuiz Core .Swift."><rect fill="#E1F5FE" height="349" rx="5" ry="5" style="stroke:#1976D2;stroke-width:1;" width="234" x="1163" y="259"/><text fill="#000000" font-family="Helvetica" font-size="14" font-style="italic" lengthAdjust="spacing" textLength="66.9307" x="1246.5347" y="271.7803">&#171;projectB&#187;</text><text fill="#000000" font-family="Helvetica" font-size="14" font-weight="bold" lengthAdjust="spacing" textLength="216.2275" x="1171.8862" y="285.7803">Project B: LangQuiz Core (Swift)</text></g><!--cluster Native AI Engines--><g class="cluster" data-entity="Native AI Engines" data-source-line="63" data-uid="ent0016" id="cluster_Native AI Engines"><rect fill="none" height="152" rx="5" ry="5" style="stroke:#181818;stroke-width:1;" width="331" x="808" y="449"/><text fill="#000000" font-family="Helvetica" font-size="14" font-style="italic" lengthAdjust="spacing" textLength="64.6133" x="941.1934" y="461.7803">&#171;engines&#187;</text><text fill="#000000" font-family="Helvetica" font-size="14" font-weight="bold" lengthAdjust="spacing" textLength="118.2549" x="914.3726" y="475.7803">Native AI Engines</text></g><!--cluster Apple Container (Project A)--><g class="cluster" data-entity="Apple Container .Project A." data-source-line="71" data-uid="ent0021" id="cluster_Apple Container .Project A."><rect fill="#ECEFF1" height="293.5" rx="5" ry="5" style="stroke:#455A64;stroke-width:1;" width="449" x="335" y="456"/><text fill="#000000" font-family="Helvetica" font-size="14" font-style="italic" lengthAdjust="spacing" textLength="73.165" x="522.9175" y="468.7803">&#171;container&#187;</text><text fill="#000000" font-family="Helvetica" font-size="14" font-weight="bold" lengthAdjust="spacing" textLength="182.793" x="468.1035" y="482.7803">Apple Container (Project A)</text></g><!--entity ClientHW--><g class="entity" data-entity="ClientHW" data-source-line="41" data-uid="ent0003" id="entity_ClientHW"><polygon fill="#F5F5F5" points="60.08,95,70.08,85,233.914,85,233.914,133,223.914,143,60.08,143,60.08,95" style="stroke:#666666;stroke-width:0.5;"/><line style="stroke:#666666;stroke-width:0.5;" x1="223.914" x2="233.914" y1="95" y2="85"/><line style="stroke:#666666;stroke-width:0.5;" x1="60.08" x2="223.914" y1="95" y2="95"/><line style="stroke:#666666;stroke-width:0.5;" x1="223.914" x2="223.914" y1="95" y2="143"/><text fill="#000000" font-family="Helvetica" font-size="14" font-style="italic" lengthAdjust="spacing" textLength="53.7168" x="115.1386" y="115.7803">&#171;box3d&#187;</text><text fill="#000000" font-family="Helvetica" font-size="14" lengthAdjust="spacing" textLength="129.9443" x="75.08" y="129.7803">Local Mic / Speakers</text></g><!--entity ClientSpeech--><g class="entity" data-entity="ClientSpeech" data-source-line="42" data-uid="ent0004" id="entity_ClientSpeech"><polygon fill="#E1F5FE" points="23.12,340,33.12,330,270.8778,330,270.8778,378,260.8778,388,23.12,388,23.12,340" style="stroke:#666666;stroke-width:0.5;"/><line style="stroke:#666666;stroke-width:0.5;" x1="260.8778" x2="270.8778" y1="340" y2="330"/><line style="stroke:#666666;stroke-width:0.5;" x1="23.12" x2="260.8778" y1="340" y2="340"/><line style="stroke:#666666;stroke-width:0.5;" x1="260.8778" x2="260.8778" y1="340" y2="388"/><text fill="#000000" font-family="Helvetica" font-size="14" font-style="italic" lengthAdjust="spacing" textLength="100.3926" x="91.8026" y="360.7803">&#171;parallelogram&#187;</text><text fill="#000000" font-family="Helvetica" font-size="14" lengthAdjust="spacing" textLength="207.7578" x="38.12" y="374.7803">Apple Speech Framework (Local)</text></g><!--entity ClientAgent--><g class="entity" data-entity="ClientAgent" data-source-line="43" data-uid="ent0005" id="entity_ClientAgent"><polygon fill="#FFF9C4" points="76.75,544,86.75,534,227.2598,534,227.2598,568,217.2598,578,76.75,578,76.75,544" style="stroke:#666666;stroke-width:0.5;"/><line style="stroke:#666666;stroke-width:0.5;" x1="217.2598" x2="227.2598" y1="544" y2="534"/><line style="stroke:#666666;stroke-width:0.5;" x1="76.75" x2="217.2598" y1="544" y2="544"/><line style="stroke:#666666;stroke-width:0.5;" x1="217.2598" x2="217.2598" y1="544" y2="578"/><text fill="#000000" font-family="Helvetica" font-size="14" lengthAdjust="spacing" textLength="110.5098" x="91.75" y="564.7803">Swift Audio Agent</text></g><!--entity RemoteClient--><g class="entity" data-entity="RemoteClient" data-source-line="44" data-uid="ent0006" id="entity_RemoteClient"><polygon fill="#FFFFFF" points="48.98,693,58.98,683,271.0279,683,271.0279,717,261.0279,727,48.98,727,48.98,693" style="stroke:#666666;stroke-width:0.5;"/><line style="stroke:#666666;stroke-width:0.5;" x1="261.0279" x2="271.0279" y1="693" y2="683"/><line style="stroke:#666666;stroke-width:0.5;" x1="48.98" x2="261.0279" y1="693" y2="693"/><line style="stroke:#666666;stroke-width:0.5;" x1="261.0279" x2="261.0279" y1="693" y2="727"/><text fill="#000000" font-family="Helvetica" font-size="14" lengthAdjust="spacing" textLength="182.0479" x="63.98" y="713.7803">Web Browser (RemoteClient)</text></g><!--entity HostAudioIO--><g class="entity" data-entity="HostAudioIO" data-source-line="60" data-uid="ent0014" id="entity_HostAudioIO"><polygon fill="#F5F5F5" points="1197.37,679,1207.37,669,1362.6317,669,1362.6317,731,1352.6317,741,1197.37,741,1197.37,679" style="stroke:#666666;stroke-width:0.5;"/><line style="stroke:#666666;stroke-width:0.5;" x1="1352.6317" x2="1362.6317" y1="679" y2="669"/><line style="stroke:#666666;stroke-width:0.5;" x1="1197.37" x2="1352.6317" y1="679" y2="679"/><line style="stroke:#666666;stroke-width:0.5;" x1="1352.6317" x2="1352.6317" y1="679" y2="741"/><text fill="#000000" font-family="Helvetica" font-size="14" font-style="italic" lengthAdjust="spacing" textLength="53.7168" x="1248.1425" y="699.7803">&#171;box3d&#187;</text><text fill="#000000" font-family="Helvetica" font-size="14" lengthAdjust="spacing" textLength="125.2617" x="1212.37" y="713.7803">Host Mic / Speakers</text><text fill="#000000" font-family="Helvetica" font-size="14" lengthAdjust="spacing" textLength="95.6963" x="1212.37" y="727.7803">(System Audio)</text></g><!--entity Pipeline--><g class="entity" data-entity="Pipeline" data-source-line="68" data-uid="ent0019" id="entity_Pipeline"><polygon fill="#FFE0B2" points="487.02,340,497.02,330,670.978,330,670.978,378,660.978,388,487.02,388,487.02,340" style="stroke:#666666;stroke-width:0.5;"/><line style="stroke:#666666;stroke-width:0.5;" x1="660.978" x2="670.978" y1="340" y2="330"/><line style="stroke:#666666;stroke-width:0.5;" x1="487.02" x2="660.978" y1="340" y2="340"/><line style="stroke:#666666;stroke-width:0.5;" x1="660.978" x2="660.978" y1="340" y2="388"/><text fill="#000000" font-family="Helvetica" font-size="14" lengthAdjust="spacing" textLength="143.958" x="502.02" y="360.7803">Native Pipeline Service</text><text fill="#000000" font-family="Helvetica" font-size="14" lengthAdjust="spacing" textLength="140.834" x="502.02" y="374.7803">(Media Preprocessing)</text></g><!--entity HW--><g class="entity" data-entity="HW" data-source-line="69" data-uid="ent0020" id="entity_HW"><polygon fill="#EEEEEE" points="964.99,679,974.99,669,1131.0105,669,1131.0105,731,1121.0105,741,964.99,741,964.99,679" style="stroke:#666666;stroke-width:0.5;"/><line style="stroke:#666666;stroke-width:0.5;" x1="1121.0105" x2="1131.0105" y1="679" y2="669"/><line style="stroke:#666666;stroke-width:0.5;" x1="964.99" x2="1121.0105" y1="679" y2="679"/><line style="stroke:#666666;stroke-width:0.5;" x1="1121.0105" x2="1121.0105" y1="679" y2="741"/><text fill="#000000" font-family="Helvetica" font-size="14" font-style="italic" lengthAdjust="spacing" textLength="53.7168" x="1016.1419" y="699.7803">&#171;box3d&#187;</text><text fill="#000000" font-family="Helvetica" font-size="14" lengthAdjust="spacing" textLength="108.1514" x="979.99" y="713.7803">Apple Silicon HW</text><text fill="#000000" font-family="Helvetica" font-size="14" lengthAdjust="spacing" textLength="126.0205" x="979.99" y="727.7803">(Metal / GPU / ANE)</text></g><!--entity ConvMgr--><g class="entity" data-entity="ConvMgr" data-source-line="55" data-uid="ent0012" id="entity_ConvMgr"><polygon fill="#FFF9C4" points="1182.64,347,1192.64,337,1367.3568,337,1367.3568,371,1357.3568,381,1182.64,381,1182.64,347" style="stroke:#666666;stroke-width:0.5;"/><line style="stroke:#666666;stroke-width:0.5;" x1="1357.3568" x2="1367.3568" y1="347" y2="337"/><line style="stroke:#666666;stroke-width:0.5;" x1="1182.64" x2="1357.3568" y1="347" y2="347"/><line style="stroke:#666666;stroke-width:0.5;" x1="1357.3568" x2="1357.3568" y1="347" y2="381"/><text fill="#000000" font-family="Helvetica" font-size="14" lengthAdjust="spacing" textLength="144.7168" x="1197.64" y="367.7803">Swift Conversation Mgr</text></g><!--entity NativeAudio--><g class="entity" data-entity="NativeAudio" data-source-line="56" data-uid="ent0013" id="entity_NativeAudio"><polygon fill="#E1F5FE" points="1179.46,530,1189.46,520,1380.5352,520,1380.5352,582,1370.5352,592,1179.46,592,1179.46,530" style="stroke:#666666;stroke-width:0.5;"/><line style="stroke:#666666;stroke-width:0.5;" x1="1370.5352" x2="1380.5352" y1="530" y2="520"/><line style="stroke:#666666;stroke-width:0.5;" x1="1179.46" x2="1370.5352" y1="530" y2="530"/><line style="stroke:#666666;stroke-width:0.5;" x1="1370.5352" x2="1370.5352" y1="530" y2="592"/><text fill="#000000" font-family="Helvetica" font-size="14" font-style="italic" lengthAdjust="spacing" textLength="100.3926" x="1224.8013" y="550.7803">&#171;parallelogram&#187;</text><text fill="#000000" font-family="Helvetica" font-size="14" lengthAdjust="spacing" textLength="161.0752" x="1194.46" y="564.7803">Apple Speech Framework</text><text fill="#000000" font-family="Helvetica" font-size="14" lengthAdjust="spacing" textLength="101.9033" x="1194.46" y="578.7803">(TTS / Dictation)</text></g><!--entity Ollama--><g class="entity" data-entity="Ollama" data-source-line="64" data-uid="ent0017" id="entity_Ollama"><polygon fill="#FFF3E0" points="973.28,537,983.28,527,1122.7136,527,1122.7136,575,1112.7136,585,973.28,585,973.28,537" style="stroke:#666666;stroke-width:0.5;"/><line style="stroke:#666666;stroke-width:0.5;" x1="1112.7136" x2="1122.7136" y1="537" y2="527"/><line style="stroke:#666666;stroke-width:0.5;" x1="973.28" x2="1112.7136" y1="537" y2="537"/><line style="stroke:#666666;stroke-width:0.5;" x1="1112.7136" x2="1112.7136" y1="537" y2="585"/><text fill="#000000" font-family="Helvetica" font-size="14" font-style="italic" lengthAdjust="spacing" textLength="107.4336" x="989.28" y="557.7803">&#171;doubleoctagon&#187;</text><text fill="#000000" font-family="Helvetica" font-size="14" lengthAdjust="spacing" textLength="70.7998" x="1007.5969" y="571.7803">Ollama API</text></g><!--entity Whisper--><g class="entity" data-entity="Whisper" data-source-line="65" data-uid="ent0018" id="entity_Whisper"><polygon fill="#F3E5F5" points="823.65,544,833.65,534,938.3531,534,938.3531,568,928.3531,578,823.65,578,823.65,544" style="stroke:#666666;stroke-width:0.5;"/><line style="stroke:#666666;stroke-width:0.5;" x1="928.3531" x2="938.3531" y1="544" y2="534"/><line style="stroke:#666666;stroke-width:0.5;" x1="823.65" x2="928.3531" y1="544" y2="544"/><line style="stroke:#666666;stroke-width:0.5;" x1="928.3531" x2="928.3531" y1="544" y2="578"/><text fill="#000000" font-family="Helvetica" font-size="14" lengthAdjust="spacing" textLength="74.7031" x="838.65" y="564.7803">whisper.cpp</text></g><!--entity FastAPI--><g class="entity" data-entity="FastAPI" data-source-line="72" data-uid="ent0022" id="entity_FastAPI"><polygon fill="#E0F2F1" points="600.2,693,610.2,683,767.7928,683,767.7928,717,757.7928,727,600.2,727,600.2,693" style="stroke:#666666;stroke-width:0.5;"/><line style="stroke:#666666;stroke-width:0.5;" x1="757.7928" x2="767.7928" y1="693" y2="683"/><line style="stroke:#666666;stroke-width:0.5;" x1="600.2" x2="757.7928" y1="693" y2="693"/><line style="stroke:#666666;stroke-width:0.5;" x1="757.7928" x2="757.7928" y1="693" y2="727"/><text fill="#000000" font-family="Helvetica" font-size="14" lengthAdjust="spacing" textLength="127.5928" x="615.2" y="713.7803">FastAPI Web Server</text></g><!--entity Spacy--><g class="entity" data-entity="Spacy" data-source-line="73" data-uid="ent0023" id="entity_Spacy"><polygon fill="#E8F5E9" points="595.26,544,605.26,534,752.7493,534,752.7493,568,742.7493,578,595.26,578,595.26,544" style="stroke:#666666;stroke-width:0.5;"/><line style="stroke:#666666;stroke-width:0.5;" x1="742.7493" x2="752.7493" y1="544" y2="534"/><line style="stroke:#666666;stroke-width:0.5;" x1="595.26" x2="742.7493" y1="544" y2="544"/><line style="stroke:#666666;stroke-width:0.5;" x1="742.7493" x2="742.7493" y1="544" y2="578"/><text fill="#000000" font-family="Helvetica" font-size="14" lengthAdjust="spacing" textLength="117.4893" x="610.26" y="564.7803">spaCy NLP Library</text></g><!--entity Assets--><g class="entity" data-entity="Assets" data-source-line="74" data-uid="ent0024" id="entity_Assets"><path d="M350.68,686.5 C350.68,676.5 421.0003,676.5 421.0003,676.5 C421.0003,676.5 491.3206,676.5 491.3206,686.5 L491.3206,723.5 C491.3206,733.5 421.0003,733.5 421.0003,733.5 C421.0003,733.5 350.68,733.5 350.68,723.5 L350.68,686.5" fill="#FFFFFF" style="stroke:#181818;stroke-width:0.5;"/><path d="M350.68,686.5 C350.68,696.5 421.0003,696.5 421.0003,696.5 C421.0003,696.5 491.3206,696.5 491.3206,686.5" fill="none" style="stroke:#181818;stroke-width:0.5;"/><text fill="#000000" font-family="Helvetica" font-size="14" lengthAdjust="spacing" textLength="120.6406" x="360.68" y="711.2803">Video and Subtitles</text><text fill="#000000" font-family="Helvetica" font-size="14" lengthAdjust="spacing" textLength="66.9238" x="360.68" y="725.2803">Data Store</text></g><!--link ClientHW to ClientSpeech--><g class="link" data-entity-1="ClientHW" data-entity-2="ClientSpeech" data-source-line="46" data-uid="lnk7" id="link_ClientHW_ClientSpeech"><path d="M147,143.35 C147,190.17 147,277.13 147,323.83" fill="none" id="ClientHW-to-ClientSpeech" style="stroke:#444444;stroke-width:1;"/><polygon fill="#444444" points="147,329.83,151,320.83,147,324.83,143,320.83,147,329.83" style="stroke:#444444;stroke-width:1;"/><text fill="#222222" font-family="Helvetica" font-size="13" lengthAdjust="spacing" textLength="54.1963" x="148" y="184.0103">Audio I/O</text></g><!--link ClientSpeech to ClientAgent--><g class="link" data-entity-1="ClientSpeech" data-entity-2="ClientAgent" data-source-line="47" data-uid="lnk8" id="link_ClientSpeech_ClientAgent"><path d="M147.73,388.35 C148.74,427.75 150.3856,492.192 151.2956,527.532" fill="none" id="ClientSpeech-to-ClientAgent" style="stroke:#444444;stroke-width:1;"/><polygon fill="#444444" points="151.45,533.53,155.217,524.43,151.3213,528.5317,147.2197,524.6359,151.45,533.53" style="stroke:#444444;stroke-width:1;"/><text fill="#222222" font-family="Helvetica" font-size="13" lengthAdjust="spacing" textLength="41.9072" x="149.76" y="429.0103">Control</text></g><!--link ClientAgent to RemoteClient--><g class="link" data-entity-1="ClientAgent" data-entity-2="RemoteClient" data-source-line="48" data-uid="lnk9" id="link_ClientAgent_RemoteClient"><path d="M153.16,578.38 C154.68,606.25 156.9934,648.7289 158.5134,676.6089" fill="none" id="ClientAgent-to-RemoteClient" style="stroke:#444444;stroke-width:1;"/><polygon fill="#444444" points="158.84,682.6,162.3441,673.3956,158.5678,677.6074,154.356,673.8311,158.84,682.6" style="stroke:#444444;stroke-width:1;"/><text fill="#222222" font-family="Helvetica" font-size="13" lengthAdjust="spacing" textLength="56.3608" x="157.24" y="635.0103">JS Bridge</text></g><!--link NativeAudio to HostAudioIO--><g class="link" data-entity-1="NativeAudio" data-entity-2="HostAudioIO" data-source-line="61" data-uid="lnk15" id="link_NativeAudio_HostAudioIO"><path d="M1280,592.21 C1280,615.31 1280,639.42 1280,662.57" fill="none" id="NativeAudio-to-HostAudioIO" style="stroke:#444444;stroke-width:1;"/><polygon fill="#444444" points="1280,668.57,1284,659.57,1280,663.57,1276,659.57,1280,668.57" style="stroke:#444444;stroke-width:1;"/><text fill="#222222" font-family="Helvetica" font-size="13" lengthAdjust="spacing" textLength="54.1963" x="1281" y="635.0103">Audio I/O</text></g><!--link RemoteClient to FastAPI--><g class="link" data-entity-1="RemoteClient" data-entity-2="FastAPI" data-source-line="81" data-uid="lnk25" id="link_RemoteClient_FastAPI"><path d="M235.71,682.54 C336.6,654.09 509.56,610.86 571,629.5 C605.09,639.84 633.7098,660.3624 655.1998,678.6424" fill="none" id="RemoteClient-to-FastAPI" style="stroke:#444444;stroke-width:1;"/><polygon fill="#444444" points="659.77,682.53,655.5064,673.6519,655.9615,679.2904,650.323,679.7455,659.77,682.53" style="stroke:#444444;stroke-width:1;"/><text fill="#222222" font-family="Helvetica" font-size="13" lengthAdjust="spacing" textLength="80.9263" x="490" y="635.0103">Web Interface</text></g><!--link Pipeline to Whisper--><g class="link" data-entity-1="Pipeline" data-entity-2="Whisper" data-source-line="84" data-uid="lnk26" id="link_Pipeline_Whisper"><path d="M671.37,385.71 C708.46,398.69 750.31,416.9 784,441 C819.93,466.71 847.5868,503.5443 864.3568,528.7543" fill="none" id="Pipeline-to-Whisper" style="stroke:#444444;stroke-width:1;"/><polygon fill="#444444" points="867.68,533.75,866.0257,524.0411,864.9107,529.587,859.3648,528.472,867.68,533.75" style="stroke:#444444;stroke-width:1;"/><text fill="#222222" font-family="Helvetica" font-size="13" lengthAdjust="spacing" textLength="111.998" x="770.2" y="429.0103">Audio Transcription</text></g><!--link Pipeline to Assets--><g class="link" data-entity-1="Pipeline" data-entity-2="Assets" data-source-line="85" data-uid="lnk27" id="link_Pipeline_Assets"><path d="M547.02,388.19 C532.18,402.71 515.36,421.45 504,441 C458.3,519.66 435.8013,620.5282 426.6713,670.3582" fill="none" id="Pipeline-to-Assets" style="stroke:#444444;stroke-width:1;"/><polygon fill="#444444" points="425.59,676.26,431.1465,668.1283,426.4911,671.3419,423.2775,666.6865,425.59,676.26" style="stroke:#444444;stroke-width:1;"/><text fill="#222222" font-family="Helvetica" font-size="13" lengthAdjust="spacing" textLength="72.9536" x="505" y="559.5103">Write Assets</text></g><!--link ConvMgr to NativeAudio--><g class="link" data-entity-1="ConvMgr" data-entity-2="NativeAudio" data-source-line="87" data-uid="lnk28" id="link_ConvMgr_NativeAudio"><path d="M1275.54,381.24 C1276.4,414.5 1277.907,473.262 1278.937,513.642" fill="none" id="ConvMgr-to-NativeAudio" style="stroke:#444444;stroke-width:1;"/><polygon fill="#444444" points="1279.09,519.64,1282.8592,510.5409,1278.9625,514.6416,1274.8618,510.7449,1279.09,519.64" style="stroke:#444444;stroke-width:1;"/><text fill="#222222" font-family="Helvetica" font-size="13" lengthAdjust="spacing" textLength="41.9072" x="1277.76" y="429.0103">Control</text></g><!--link ConvMgr to Ollama--><g class="link" data-entity-1="ConvMgr" data-entity-2="Ollama" data-source-line="88" data-uid="lnk29" id="link_ConvMgr_Ollama"><path d="M1242.63,381.43 C1219.71,397.08 1188.62,419.27 1163,441 C1130.84,468.28 1101.0179,498.3757 1078.4079,522.2257" fill="none" id="ConvMgr-to-Ollama" style="stroke:#444444;stroke-width:1;"/><polygon fill="#444444" points="1074.28,526.58,1083.3748,522.8005,1077.7199,522.9514,1077.569,517.2966,1074.28,526.58" style="stroke:#444444;stroke-width:1;"/><text fill="#222222" font-family="Helvetica" font-size="13" lengthAdjust="spacing" textLength="66.4727" x="1190.59" y="429.0103">Chat Query</text></g><!--link FastAPI to Assets--><g class="link" data-entity-1="FastAPI" data-entity-2="Assets" data-source-line="90" data-uid="lnk30" id="link_FastAPI_Assets"><path d="M599.75,705 C564.84,705 530.8,705 497.48,705" fill="none" id="FastAPI-to-Assets" style="stroke:#444444;stroke-width:1;"/><polygon fill="#444444" points="491.48,705,500.48,709,496.48,705,500.48,701,491.48,705" style="stroke:#444444;stroke-width:1;"/><text fill="#222222" font-family="Helvetica" font-size="13" lengthAdjust="spacing" textLength="72.96" x="509.76" y="698.0103">Stream Files</text></g><!--reverse link Spacy to FastAPI--><g class="link" data-entity-1="Spacy" data-entity-2="FastAPI" data-source-line="91" data-uid="lnk32" id="link_Spacy_FastAPI"><path d="M628.6572,581.6175 C611.8972,592.7875 599.23,604.84 590,624 C587.11,630.01 586.9,633.1 590,639 C599.86,657.8 617.9,672.24 635.56,682.68" fill="none" id="Spacy-backto-FastAPI" style="stroke:#444444;stroke-width:1;"/><polygon fill="#444444" points="633.65,578.29,623.9425,579.9528,629.4894,581.0629,628.3792,586.6098,633.65,578.29" style="stroke:#444444;stroke-width:1;"/><text fill="#222222" font-family="Helvetica" font-size="13" lengthAdjust="spacing" textLength="92.46" x="591" y="635.0103">Grammar Parse</text></g><!--reverse link Ollama to FastAPI--><g class="link" data-entity-1="Ollama" data-entity-2="FastAPI" data-source-line="92" data-uid="lnk34" id="link_Ollama_FastAPI"><path d="M1008.1217,588.8392 C991.7817,600.4692 976.36,609.27 956,616 C906.51,632.36 889.2,609.98 839,624 C793.65,636.67 746.2,663.46 715.94,682.55" fill="none" id="Ollama-backto-FastAPI" style="stroke:#444444;stroke-width:1;"/><polygon fill="#444444" points="1013.01,585.36,1003.3581,587.32,1008.9365,588.2593,1007.9971,593.8377,1013.01,585.36" style="stroke:#444444;stroke-width:1;"/><text fill="#222222" font-family="Helvetica" font-size="13" lengthAdjust="spacing" textLength="100.4009" x="840" y="635.0103">Grammar Prompt</text></g><!--link NativeAudio to HW--><g class="link" data-entity-1="NativeAudio" data-entity-2="HW" data-source-line="94" data-uid="lnk35" id="link_NativeAudio_HW"><path d="M1224.13,592.4 C1187.67,615.51 1145.298,642.3482 1108.848,665.4482" fill="none" id="NativeAudio-to-HW" style="stroke:#444444;stroke-width:1;"/><polygon fill="#444444" points="1103.78,668.66,1113.5232,667.2209,1108.0033,665.9835,1109.2408,660.4637,1103.78,668.66" style="stroke:#444444;stroke-width:1;"/></g><!--link Whisper to HW--><g class="link" data-entity-1="Whisper" data-entity-2="HW" data-source-line="95" data-uid="lnk36" id="link_Whisper_HW"><path d="M877.74,578.35 C876.2,596.29 877,621.72 890,639 C908.1,663.06 931.005,676.3121 958.915,685.8921" fill="none" id="Whisper-to-HW" style="stroke:#444444;stroke-width:1;"/><polygon fill="#444444" points="964.59,687.84,957.3761,681.1348,959.8608,686.2167,954.7789,688.7015,964.59,687.84" style="stroke:#444444;stroke-width:1;"/></g><!--link Ollama to HW--><g class="link" data-entity-1="Ollama" data-entity-2="HW" data-source-line="96" data-uid="lnk37" id="link_Ollama_HW"><path d="M1048,585.34 C1048,609.12 1048,637.19 1048,662.73" fill="none" id="Ollama-to-HW" style="stroke:#444444;stroke-width:1;"/><polygon fill="#444444" points="1048,668.73,1052,659.73,1048,663.73,1044,659.73,1048,668.73" style="stroke:#444444;stroke-width:1;"/></g><!--SRC=[XLRHKkCs57ttLzmb3uI750A45ePXnZ4sP3U9it4MfZETOHHRE6eSooCxeM67B-dJVi1-Gfze_wjNacsKX6qLXh6bUu_kFVVeoXyoGU85WNmL3sX18b8GU2H9JYrh7-wUPmcDh7pEqem8ie0f2UUnuCiq2dd21JGyn-jwvuP5FYCHVs9fNAAyhIWtXukK2cWV6GlNz94iayBZQJ4a2mgtD5dHWeL4Xe2BB6KXnQq5NLaV8lbEeTyRkW-Et_V7q3XLervo-b-2YJj-kFM32GPuB7yxYwEn__6X2mstxNKyTsVPyOSJ6xT0TDTnFQ-zOp5s1_x4nULVNDixiymyQLYGD4ueVBK0HxVcp96SNLxEU5vSNMt4gGsvYAZOD7hBytsiJF3VSR-kWQTJsqKqJ1ljyv_Fhe_VXmon3WHJ5GPcpSSkh6dUEErqxBFJzt45NV226g2Qmbt4sh1nudNQtOxrOjARykW7p6AnrTX6XCQP6cfUggoSFL93ek_3aEG5MT7qzJiWJ_3FDvRDryQkjX3yIViP9TbQDx2FrP38hLOBhdlspTWUo6SvLMh7wVVSuGG6jdEBaD22EoeADd_zbiWmC9vmRhs9QM-iQ04x36cUGv-iyHmrdOJHj8012MTOWuCzCEZJ92c-zley90aCM0Y746IKpAd8OGz83XhXzXuzf_oFaqZoZcS2VuQxdMKO0ZhIS0OU9aoVk9X3Ky4U63Yb2QeDQKaIcl0OhILcUTBUC8CdzbY0lOmO1pj6NmD6lQjwdZkdXiyzdK8NcSvbxfeGxQ1ZC6TgDIZtEiiMTgUqTRKPxaKPHk_GDwpBnKqF7Ta5E5XhmHF3NAzKrXkXNC370EDcKKort1Oaz0COsfFUdGkgKJK3TtpdZW_CYfTMf60hx8hO46HvoyRmLUTbM8_q-ORk1OeZZJylsJD6AIX2IwQLDemUeDMnNGvCQuNIm2rv2eDOw9hW93vlrEF_jF5RsfnC0bJRDSC89PmkaSv6q_tVAddH6Uv3drTdOaP4z8Jt04WIM45nt-NYzNjU_Frd-leNP3o2cWL3DPAwBUrZUC4wB-X2Lrx79ktKQy__mMamewygRNgPGjgkJrb7kmTk6kDXpML1g7vyfnv-aX2yb-rHJyLMlbvUHdmvJIX7s9YdAZpFEt6FjhoVPYpFgFWfp3BbVg_VqVh4hP8f2TOEPNGZbj54tdC15IkyTf6d0OqOGLufYaUs7hpRDLsrBORW7dMFT_i5InXU3t1xhs0Ax427S3FwWl_jeLjolj5uN3LsgDDmJdNJGBEgigrKRLv1spHwsDYHGv2TG-P4jQIhwOPxXDy7xIsdF2FE6eRz4VJPL12nLZv1HiArlF6zZdjUUyWlfYd9qUkEHPG3IIC8bbEKPq9HPjVoWoeey1mg33lFQP5lt5GlkYN8UsBYV_eLcbxVlmyEgii2KyqmMId_kUec-Ar6yK-cGXVMHfzf2HRF2jHabTw5ohkN5bGyab1_qv7dwHfIKa8ihRgCbQ0hhLHYdWYIvg5WcJp5XdcrMPaJxYMOlA3KgsLLNQE2DS_EM_-ihIgqKkXeCIC5V5vIiRQiAf_TFOD2KBn_FOPilvajCxJHzRg06-mj2o9WH0H-a6xQrBlLHe8liiAotZtfzrR5ZJ5LGXWp_m80]--></g></svg>