<?xml version="1.0" encoding="UTF-8" standalone="no"?>
<!DOCTYPE svg PUBLIC "-//W3C//DTD SVG 1.1//EN"
 "http://www.w3.org/Graphics/SVG/1.1/DTD/svg11.dtd">
<!-- Generated by graphviz version 13.0.0 (20250608.1624)
 -->
<!-- Title: G Pages: 1 -->
<svg width="620pt" height="529pt"
 viewBox="0.00 0.00 620.00 529.00" xmlns="http://www.w3.org/2000/svg" xmlns:xlink="http://www.w3.org/1999/xlink">
<g id="graph0" class="graph" transform="scale(1 1) rotate(0) translate(4 525.16)">
<title>G</title>
<text xml:space="preserve" text-anchor="start" x="53.47" y="-497.26" font-family="Helvetica,sans-Serif" font-weight="bold" font-size="22.00" fill="#f33333">OmniLingua: Unified Learning Ecosystem (2026)</text>
<g id="clust1" class="cluster">
<title>cluster_shared</title>
<path fill="#f1f8e9" stroke="#388e3c" stroke-width="2" d="M46.69,-207.16C46.69,-207.16 304.69,-207.16 304.69,-207.16 310.69,-207.16 316.69,-213.16 316.69,-219.16 316.69,-219.16 316.69,-270.16 316.69,-270.16 316.69,-276.16 310.69,-282.16 304.69,-282.16 304.69,-282.16 46.69,-282.16 46.69,-282.16 40.69,-282.16 34.69,-276.16 34.69,-270.16 34.69,-270.16 34.69,-219.16 34.69,-219.16 34.69,-213.16 40.69,-207.16 46.69,-207.16"/>
<text xml:space="preserve" text-anchor="middle" x="175.69" y="-264.86" font-family="Helvetica,sans-Serif" font-size="14.00">Shared User Interface &amp; OS Services</text>
</g>
<g id="clust2" class="cluster">
<title>cluster_automation</title>
<path fill="#fff9c4" stroke="#fbc02d" stroke-width="2" d="M432.69,-407.66C432.69,-407.66 591.69,-407.66 591.69,-407.66 597.69,-407.66 603.69,-413.66 603.69,-419.66 603.69,-419.66 603.69,-470.66 603.69,-470.66 603.69,-476.66 597.69,-482.66 591.69,-482.66 591.69,-482.66 432.69,-482.66 432.69,-482.66 426.69,-482.66 420.69,-476.66 420.69,-470.66 420.69,-470.66 420.69,-419.66 420.69,-419.66 420.69,-413.66 426.69,-407.66 432.69,-407.66"/>
<text xml:space="preserve" text-anchor="middle" x="512.19" y="-465.36" font-family="Helvetica,sans-Serif" font-size="14.00">Automation &amp; Orchestration</text>
</g>
<g id="clust3" class="cluster">
<title>cluster_media</title>
<path fill="#eceff1" stroke="#455a64" stroke-width="2" d="M371.69,-103.44C371.69,-103.44 570.69,-103.44 570.69,-103.44 576.69,-103.44 582.69,-109.44 582.69,-115.44 582.69,-115.44 582.69,-369.91 582.69,-369.91 582.69,-375.91 576.69,-381.91 570.69,-381.91 570.69,-381.91 371.69,-381.91 371.69,-381.91 365.69,-381.91 359.69,-375.91 359.69,-369.91 359.69,-369.91 359.69,-115.44 359.69,-115.44 359.69,-109.44 365.69,-103.44 371.69,-103.44"/>
<text xml:space="preserve" text-anchor="middle" x="471.19" y="-364.61" font-family="Helvetica,sans-Serif" font-size="14.00">Project A: Media &amp; Subtitle Engine</text>
</g>
<g id="clust4" class="cluster">
<title>cluster_langquiz</title>
<path fill="#f4f8ff" stroke="#1976d2" stroke-width="2" d="M25.69,-8C25.69,-8 331.69,-8 331.69,-8 337.69,-8 343.69,-14 343.69,-20 343.69,-20 343.69,-169.41 343.69,-169.41 343.69,-175.41 337.69,-181.41 331.69,-181.41 331.69,-181.41 25.69,-181.41 25.69,-181.41 19.69,-181.41 13.69,-175.41 13.69,-169.41 13.69,-169.41 13.69,-20 13.69,-20 13.69,-14 19.69,-8 25.69,-8"/>
<text xml:space="preserve" text-anchor="middle" x="178.69" y="-164.11" font-family="Helvetica,sans-Serif" font-size="14.00">Project B: LangQuiz Core</text>
</g>
<!-- Dashboard -->
<g id="node1" class="node">
<title>Dashboard</title>
<path fill="#ffffff" stroke="#888888" stroke-width="1.5" d="M296.44,-251.16C296.44,-251.16 200.94,-251.16 200.94,-251.16 194.94,-251.16 188.94,-245.16 188.94,-239.16 188.94,-239.16 188.94,-227.16 188.94,-227.16 188.94,-221.16 194.94,-215.16 200.94,-215.16 200.94,-215.16 296.44,-215.16 296.44,-215.16 302.44,-215.16 308.44,-221.16 308.44,-227.16 308.44,-227.16 308.44,-239.16 308.44,-239.16 308.44,-245.16 302.44,-251.16 296.44,-251.16"/>
<text xml:space="preserve" text-anchor="middle" x="248.69" y="-234.91" font-family="Helvetica,sans-Serif" font-size="10.00" fill="#000000">Unified Web Dashboard</text>
<text xml:space="preserve" text-anchor="middle" x="248.69" y="-223.66" font-family="Helvetica,sans-Serif" font-size="10.00" fill="#000000">(HTML/JS UI)</text>
</g>
<!-- MediaLib -->
<g id="node6" class="node">
<title>MediaLib</title>
<path fill="#ffffff" stroke="#888888" stroke-width="1.5" d="M459.32,-149.56C459.32,-151.67 441.11,-153.37 418.69,-153.37 396.27,-153.37 378.07,-151.67 378.07,-149.56 378.07,-149.56 378.07,-115.25 378.07,-115.25 378.07,-113.15 396.27,-111.44 418.69,-111.44 441.11,-111.44 459.32,-113.15 459.32,-115.25 459.32,-115.25 459.32,-149.56 459.32,-149.56"/>
<path fill="none" stroke="#888888" stroke-width="1.5" d="M459.32,-149.56C459.32,-147.46 441.11,-145.75 418.69,-145.75 396.27,-145.75 378.07,-147.46 378.07,-149.56"/>
<text xml:space="preserve" text-anchor="middle" x="418.69" y="-134.16" font-family="Helvetica,sans-Serif" font-size="10.00" fill="#000000">Media Library</text>
<text xml:space="preserve" text-anchor="middle" x="418.69" y="-122.91" font-family="Helvetica,sans-Serif" font-size="10.00" fill="#000000">(MP4 / Assets)</text>
</g>
<!-- Dashboard&#45;&gt;MediaLib -->
<g id="edge7" class="edge">
<title>Dashboard&#45;&gt;MediaLib</title>
<path fill="none" stroke="#999999" stroke-width="1.2" d="M299.5,-209.55C316.73,-201.31 335.87,-191.52 352.69,-181.41 363.07,-175.16 373.88,-167.74 383.67,-160.61"/>
<polygon fill="#999999" stroke="#999999" stroke-width="1.2" points="298.26,-206.26 290.7,-213.69 301.24,-212.6 298.26,-206.26"/>
<polygon fill="#999999" stroke="#999999" stroke-width="1.2" points="385.67,-163.49 391.62,-154.73 381.5,-157.87 385.67,-163.49"/>
<text xml:space="preserve" text-anchor="middle" x="372.27" y="-190.61" font-family="Helvetica,sans-Serif" font-size="9.00" fill="#000000"> Playback Control</text>
</g>
<!-- ConversationManager -->
<g id="node7" class="node">
<title>ConversationManager</title>
<path fill="#e1f152" stroke="#888888" stroke-width="1.5" d="M157.07,-150.41C157.07,-150.41 62.32,-150.41 62.32,-150.41 56.32,-150.41 50.32,-144.41 50.32,-138.41 50.32,-138.41 50.32,-126.41 50.32,-126.41 50.32,-120.41 56.32,-114.41 62.32,-114.41 62.32,-114.41 157.07,-114.41 157.07,-114.41 163.07,-114.41 169.07,-120.41 169.07,-126.41 169.07,-126.41 169.07,-138.41 169.07,-138.41 169.07,-144.41 163.07,-150.41 157.07,-150.41"/>
<text xml:space="preserve" text-anchor="middle" x="109.69" y="-134.16" font-family="Helvetica,sans-Serif" font-size="10.00" fill="#000000">Swift Conversation Mgr</text>
<text xml:space="preserve" text-anchor="middle" x="109.69" y="-122.91" font-family="Helvetica,sans-Serif" font-size="10.00" fill="#000000">(State Machine)</text>
</g>
<!-- Dashboard&#45;&gt;ConversationManager -->
<g id="edge8" class="edge">
<title>Dashboard&#45;&gt;ConversationManager</title>
<path fill="none" stroke="#999999" stroke-width="1.2" d="M220.76,-207.04C213.72,-201.05 206.06,-194.83 198.69,-189.41 183.25,-178.04 165.51,-166.58 149.94,-157.01"/>
<polygon fill="#999999" stroke="#999999" stroke-width="1.2" points="218.06,-209.33 227.91,-213.22 222.64,-204.03 218.06,-209.33"/>
<polygon fill="#999999" stroke="#999999" stroke-width="1.2" points="151.99,-154.16 141.63,-151.96 148.36,-160.14 151.99,-154.16"/>
<text xml:space="preserve" text-anchor="middle" x="244.6" y="-190.61" font-family="Helvetica,sans-Serif" font-size="9.00" fill="#000000"> Chat Stream / UI</text>
</g>
<!-- AudioEngine -->
<g id="node2" class="node">
<title>AudioEngine</title>
<polygon fill="#ffebee" stroke="#888888" stroke-width="1.5" points="152.57,-251.16 46.82,-251.16 42.82,-247.16 42.82,-215.16 148.57,-215.16 152.57,-219.16 152.57,-251.16"/>
<polyline fill="none" stroke="#888888" stroke-width="1.5" points="148.57,-247.16 42.82,-247.16"/>
<polyline fill="none" stroke="#888888" stroke-width="1.5" points="148.57,-247.16 148.57,-215.16"/>
<polyline fill="none" stroke="#888888" stroke-width="1.5" points="148.57,-247.16 152.57,-251.16"/>
<text xml:space="preserve" text-anchor="middle" x="97.69" y="-234.91" font-family="Helvetica,sans-Serif" font-size="10.00" fill="#000000">Native Audio Engine</text>
<text xml:space="preserve" text-anchor="middle" x="97.69" y="-223.66" font-family="Helvetica,sans-Serif" font-size="10.00" fill="#000000">(TTS / STT Services)</text>
</g>
<!-- AudioEngine&#45;&gt;ConversationManager -->
<g id="edge9" class="edge">
<title>AudioEngine&#45;&gt;ConversationManager</title>
<path fill="none" stroke="#2e7d32" stroke-width="2" d="M99.84,-214.5C101.56,-200.32 104.02,-180.08 106.05,-163.37"/>
<polygon fill="#2e7d32" stroke="#2e7d32" stroke-width="2" points="109.47,-164.26 107.2,-153.91 102.52,-163.42 109.47,-164.26"/>
<text xml:space="preserve" text-anchor="middle" x="147.62" y="-190.61" font-family="Helvetica,sans-Serif" font-size="9.00" fill="#000000"> 1. User Speech (STT)</text>
</g>
<!-- Makefile -->
<g id="node3" class="node">
<title>Makefile</title>
<polygon fill="#fbc02d" stroke="#888888" stroke-width="1.5" points="563.19,-451.66 454.19,-451.66 454.19,-415.66 569.19,-415.66 569.19,-445.66 563.19,-451.66"/>
<polyline fill="none" stroke="#888888" stroke-width="1.5" points="563.19,-451.66 563.19,-445.66"/>
<polyline fill="none" stroke="#888888" stroke-width="1.5" points="569.19,-445.66 563.19,-445.66"/>
<text xml:space="preserve" text-anchor="middle" x="511.69" y="-435.41" font-family="Helvetica,sans-Serif" font-size="10.00" fill="#000000">GNU Makefile</text>
<text xml:space="preserve" text-anchor="middle" x="511.69" y="-424.16" font-family="Helvetica,sans-Serif" font-size="10.00" fill="#000000">(.ONESHELL Pipeline)</text>
</g>
<!-- PythonWorker -->
<g id="node4" class="node">
<title>PythonWorker</title>
<path fill="#ffffff" stroke="#888888" stroke-width="1.5" d="M465.19,-350.91C465.19,-350.91 386.19,-350.91 386.19,-350.91 380.19,-350.91 374.19,-344.91 374.19,-338.91 374.19,-338.91 374.19,-326.91 374.19,-326.91 374.19,-320.91 380.19,-314.91 386.19,-314.91 386.19,-314.91 465.19,-314.91 465.19,-314.91 471.19,-314.91 477.19,-320.91 477.19,-326.91 477.19,-326.91 477.19,-338.91 477.19,-338.91 477.19,-344.91 471.19,-350.91 465.19,-350.91"/>
<text xml:space="preserve" text-anchor="middle" x="425.69" y="-334.66" font-family="Helvetica,sans-Serif" font-size="10.00" fill="#000000">Python Worker</text>
<text xml:space="preserve" text-anchor="middle" x="425.69" y="-323.41" font-family="Helvetica,sans-Serif" font-size="10.00" fill="#000000">(Whisper / FFmpeg)</text>
</g>
<!-- Makefile&#45;&gt;PythonWorker -->
<g id="edge5" class="edge">
<title>Makefile&#45;&gt;PythonWorker</title>
<path fill="none" stroke="#999999" stroke-width="1.2" d="M468.53,-414.91C461.67,-410.67 455.13,-405.61 449.94,-399.66 440.92,-389.3 435.14,-375.29 431.49,-362.86"/>
<polygon fill="#999999" stroke="#999999" stroke-width="1.2" points="434.93,-362.18 429.07,-353.36 428.15,-363.91 434.93,-362.18"/>
<text xml:space="preserve" text-anchor="middle" x="477.32" y="-391.11" font-family="Helvetica,sans-Serif" font-size="9.00" fill="#000000"> Trigger Build</text>
</g>
<!-- Makefile&#45;&gt;MediaLib -->
<g id="edge6" class="edge">
<title>Makefile&#45;&gt;MediaLib</title>
<path fill="none" stroke="#999999" stroke-width="1.2" d="M514.55,-415.19C520.14,-375.84 529.25,-278.12 495.69,-207.16 487.11,-189 471.97,-172.99 457.38,-160.57"/>
<polygon fill="#999999" stroke="#999999" stroke-width="1.2" points="459.81,-158.03 449.83,-154.45 455.4,-163.47 459.81,-158.03"/>
<text xml:space="preserve" text-anchor="middle" x="550.18" y="-291.36" font-family="Helvetica,sans-Serif" font-size="9.00" fill="#000000"> Gen Index.html</text>
</g>
<!-- SubEngine -->
<g id="node5" class="node">
<title>SubEngine</title>
<path fill="#e1f5fe" stroke="#888888" stroke-width="1.5" d="M465.69,-251.16C465.69,-251.16 383.69,-251.16 383.69,-251.16 377.69,-251.16 371.69,-245.16 371.69,-239.16 371.69,-239.16 371.69,-227.16 371.69,-227.16 371.69,-221.16 377.69,-215.16 383.69,-215.16 383.69,-215.16 465.69,-215.16 465.69,-215.16 471.69,-215.16 477.69,-221.16 477.69,-227.16 477.69,-227.16 477.69,-239.16 477.69,-239.16 477.69,-245.16 471.69,-251.16 465.69,-251.16"/>
<text xml:space="preserve" text-anchor="middle" x="424.69" y="-234.91" font-family="Helvetica,sans-Serif" font-size="10.00" fill="#000000">Subtitles Engine</text>
<text xml:space="preserve" text-anchor="middle" x="424.69" y="-223.66" font-family="Helvetica,sans-Serif" font-size="10.00" fill="#000000">(Bilingual VTT Sync)</text>
</g>
<!-- PythonWorker&#45;&gt;SubEngine -->
<g id="edge1" class="edge">
<title>PythonWorker&#45;&gt;SubEngine</title>
<path fill="none" stroke="#607d8b" stroke-width="1.2" d="M425.51,-314.43C425.37,-300.2 425.16,-279.82 424.99,-263.15"/>
<polygon fill="#607d8b" stroke="#607d8b" stroke-width="1.2" points="428.49,-263.59 424.89,-253.63 421.49,-263.66 428.49,-263.59"/>
</g>
<!-- SubEngine&#45;&gt;MediaLib -->
<g id="edge2" class="edge">
<title>SubEngine&#45;&gt;MediaLib</title>
<path fill="none" stroke="#607d8b" stroke-width="1.2" d="M423.62,-214.5C422.8,-200.97 421.64,-181.94 420.65,-165.71"/>
<polygon fill="#607d8b" stroke="#607d8b" stroke-width="1.2" points="424.15,-165.56 420.05,-155.79 417.16,-165.99 424.15,-165.56"/>
</g>
<!-- QuizDB -->
<g id="node9" class="node">
<title>QuizDB</title>
<path fill="#ffffcc" stroke="#888888" stroke-width="1.5" d="M335.44,-60.5C335.44,-62.6 312.69,-64.31 284.69,-64.31 256.69,-64.31 233.94,-62.6 233.94,-60.5 233.94,-60.5 233.94,-26.19 233.94,-26.19 233.94,-24.08 256.69,-22.37 284.69,-22.37 312.69,-22.37 335.44,-24.08 335.44,-26.19 335.44,-26.19 335.44,-60.5 335.44,-60.5"/>
<path fill="none" stroke="#888888" stroke-width="1.5" d="M335.44,-60.5C335.44,-58.4 312.69,-56.69 284.69,-56.69 256.69,-56.69 233.94,-58.4 233.94,-60.5"/>
<text xml:space="preserve" text-anchor="middle" x="284.69" y="-45.09" font-family="Helvetica,sans-Serif" font-size="10.00" fill="#000000">Learning DB</text>
<text xml:space="preserve" text-anchor="middle" x="284.69" y="-33.84" font-family="Helvetica,sans-Serif" font-size="10.00" fill="#000000">(History / Progress)</text>
</g>
<!-- MediaLib&#45;&gt;QuizDB -->
<!-- ConversationManager&#45;&gt;AudioEngine -->
<g id="edge10" class="edge">
<title>ConversationManager&#45;&gt;AudioEngine</title>
<path fill="none" stroke="#b71c1c" stroke-width="2" d="M50.29,-151.08C32.04,-159.6 14,-171.91 3.44,-189.41 -6.61,-206.07 8.72,-216.29 29.76,-222.53"/>
<polygon fill="#b71c1c" stroke="#b71c1c" stroke-width="2" points="28.79,-225.9 39.34,-224.94 30.5,-219.11 28.79,-225.9"/>
<text xml:space="preserve" text-anchor="middle" x="48.07" y="-190.61" font-family="Helvetica,sans-Serif" font-size="9.00" fill="#000000"> 5. AI Response (TTS)</text>
</g>
<!-- OllamaBridge -->
<g id="node8" class="node">
<title>OllamaBridge</title>
<path fill="#fff3e0" stroke="#888888" stroke-width="1.5" d="M193.69,-40.12C193.69,-40.12 193.69,-46.57 193.69,-46.57 193.69,-49.79 190.58,-53.88 187.48,-54.74 187.48,-54.74 150.7,-64.96 150.7,-64.96 147.59,-65.82 141.26,-66.69 138.04,-66.69 138.04,-66.69 81.34,-66.69 81.34,-66.69 78.12,-66.69 71.79,-65.82 68.69,-64.96 68.69,-64.96 31.9,-54.74 31.9,-54.74 28.8,-53.88 25.69,-49.79 25.69,-46.57 25.69,-46.57 25.69,-40.12 25.69,-40.12 25.69,-36.9 28.8,-32.81 31.9,-31.95 31.9,-31.95 68.69,-21.73 68.69,-21.73 71.79,-20.86 78.12,-20 81.34,-20 81.34,-20 138.04,-20 138.04,-20 141.26,-20 147.59,-20.86 150.7,-21.73 150.7,-21.73 187.48,-31.95 187.48,-31.95 190.58,-32.81 193.69,-36.9 193.69,-40.12"/>
<path fill="none" stroke="#888888" stroke-width="1.5" d="M197.69,-39.11C197.69,-39.11 197.69,-47.58 197.69,-47.58 197.69,-51.82 193.61,-57.19 189.53,-58.32 189.53,-58.32 153.19,-68.42 153.19,-68.42 149.11,-69.55 140.79,-70.69 136.56,-70.69 136.56,-70.69 82.82,-70.69 82.82,-70.69 78.59,-70.69 70.27,-69.55 66.19,-68.42 66.19,-68.42 29.86,-58.32 29.86,-58.32 25.77,-57.19 21.69,-51.82 21.69,-47.58 21.69,-47.58 21.69,-39.11 21.69,-39.11 21.69,-34.87 25.77,-29.5 29.86,-28.37 29.86,-28.37 66.19,-18.27 66.19,-18.27 70.27,-17.13 78.59,-16 82.82,-16 82.82,-16 136.56,-16 136.56,-16 140.79,-16 149.11,-17.13 153.19,-18.27 153.19,-18.27 189.53,-28.37 189.53,-28.37 193.61,-29.5 197.69,-34.87 197.69,-39.11"/>
<text xml:space="preserve" text-anchor="middle" x="109.69" y="-45.09" font-family="Helvetica,sans-Serif" font-size="10.00" fill="#000000">Ollama API Bridge</text>
<text xml:space="preserve" text-anchor="middle" x="109.69" y="-33.84" font-family="Helvetica,sans-Serif" font-size="10.00" fill="#000000">(Grammar &amp; Context)</text>
</g>
<!-- ConversationManager&#45;&gt;OllamaBridge -->
<g id="edge3" class="edge">
<title>ConversationManager&#45;&gt;OllamaBridge</title>
<path fill="none" stroke="#999999" stroke-width="1.2" d="M109.69,-102.28C109.69,-96.01 109.69,-89.28 109.69,-82.72"/>
<polygon fill="#999999" stroke="#999999" stroke-width="1.2" points="106.19,-101.97 109.69,-111.97 113.19,-101.97 106.19,-101.97"/>
<polygon fill="#999999" stroke="#999999" stroke-width="1.2" points="113.19,-83.02 109.69,-73.02 106.19,-83.02 113.19,-83.02"/>
<text xml:space="preserve" text-anchor="middle" x="149.82" y="-86.89" font-family="Helvetica,sans-Serif" font-size="9.00" fill="#000000"> Prompt / Response</text>
</g>
<!-- ConversationManager&#45;&gt;QuizDB -->
<g id="edge4" class="edge">
<title>ConversationManager&#45;&gt;QuizDB</title>
<path fill="none" stroke="#999999" stroke-width="1.2" d="M157.39,-113.68C170.93,-108.23 185.55,-101.95 198.69,-95.44 213.59,-88.05 229.38,-79.04 243.3,-70.66"/>
<polygon fill="#999999" stroke="#999999" stroke-width="1.2" points="244.81,-73.84 251.52,-65.64 241.16,-67.86 244.81,-73.84"/>
<text xml:space="preserve" text-anchor="middle" x="238.53" y="-86.89" font-family="Helvetica,sans-Serif" font-size="9.00" fill="#000000"> Sync State</text>
</g>
</g>
</svg>
