<svg xmlns="http://www.w3.org/2000/svg" xmlns:xlink="http://www.w3.org/1999/xlink" contentStyleType="text/css" data-diagram-type="DESCRIPTION" height="847px" preserveAspectRatio="none" style="width:1734px;height:847px;" version="1.1" viewBox="0 0 1734 847" width="1734px" zoomAndPan="magnify"><defs/><g><!--cluster Remote Client Machine--><g class="cluster" data-entity="Remote Client Machine" data-source-line="46" data-uid="ent0002" id="cluster_Remote Client Machine"><rect fill="#D1DBE0" height="586" rx="15" ry="15" style="stroke:#3F51B5;stroke-width:1;" width="331" x="1343" y="7"/><text fill="#000000" font-family="Helvetica" font-size="14" font-weight="bold" lengthAdjust="spacing" textLength="154.0273" x="1431.4863" y="19.7803">Remote Client Machine</text></g><!--cluster Project B (Remote Core)--><g class="cluster" data-entity="Project B .Remote Core." data-source-line="49" data-uid="ent0004" id="cluster_Project B .Remote Core."><rect fill="#E1F5FE" height="268" rx="15" ry="15" style="stroke:#1976D2;stroke-width:1;" width="280" x="1368" y="165"/><text fill="#000000" font-family="Helvetica" font-size="14" font-weight="bold" lengthAdjust="spacing" textLength="161.8066" x="1427.0967" y="177.7803">Project B (Remote Core)</text></g><!--cluster macOS Native Host--><g class="cluster" data-entity="macOS Native Host" data-source-line="63" data-uid="ent0013" id="cluster_macOS Native Host"><rect fill="#EDEDED" height="834" rx="15" ry="15" style="stroke:#444444;stroke-width:1;" width="1278" x="7" y="7"/><text fill="#000000" font-family="Helvetica" font-size="14" font-weight="bold" lengthAdjust="spacing" textLength="129.1582" x="581.4209" y="19.7803">macOS Native Host</text></g><!--cluster German-API Stack (Docker)--><g class="cluster" data-entity="German-API Stack .Docker." data-source-line="68" data-uid="ent0015" id="cluster_German-API Stack .Docker."><rect fill="#CBDDC7" height="428" rx="15" ry="15" style="stroke:#181818;stroke-width:1;" width="387" x="874" y="165"/><text fill="#000000" font-family="Helvetica" font-size="14" font-weight="bold" lengthAdjust="spacing" textLength="182.8408" x="976.0796" y="177.7803">German-API Stack (Docker)</text></g><!--cluster Omninode (macOS Service)--><g class="cluster" data-entity="Omninode .macOS Service." data-source-line="78" data-uid="ent0021" id="cluster_Omninode .macOS Service."><rect fill="#E1F5FE" height="110" rx="15" ry="15" style="stroke:#1976D2;stroke-width:1;" width="293" x="373" y="323"/><text fill="#000000" font-family="Helvetica" font-size="14" font-weight="bold" lengthAdjust="spacing" textLength="184.3926" x="427.3037" y="335.7803">Omninode (macOS Service)</text></g><!--cluster Project B (Server Core)--><g class="cluster" data-entity="Project B .Server Core." data-source-line="84" data-uid="ent0024" id="cluster_Project B .Server Core."><rect fill="#E1F5FE" height="234" rx="15" ry="15" style="stroke:#1976D2;stroke-width:1;" width="234" x="234" y="483"/><text fill="#000000" font-family="Helvetica" font-size="14" font-weight="bold" lengthAdjust="spacing" textLength="154.0547" x="273.9727" y="495.7803">Project B (Server Core)</text></g><!--entity RemoteClient--><g class="entity" data-entity="RemoteClient" data-source-line="47" data-uid="ent0003" id="entity_RemoteClient"><polygon fill="#FFFFFF" points="1358.87,67,1368.87,57,1545.1249,57,1545.1249,91,1535.1249,101,1358.87,101,1358.87,67" style="stroke:#666666;stroke-width:0.5;"/><line style="stroke:#666666;stroke-width:0.5;" x1="1535.1249" x2="1545.1249" y1="67" y2="57"/><line style="stroke:#666666;stroke-width:0.5;" x1="1358.87" x2="1535.1249" y1="67" y2="67"/><line style="stroke:#666666;stroke-width:0.5;" x1="1535.1249" x2="1535.1249" y1="67" y2="101"/><text fill="#000000" font-family="Helvetica" font-size="14" lengthAdjust="spacing" textLength="146.2549" x="1373.87" y="87.7803">Web Browser (Remote)</text></g><!--entity ClientHW--><g class="entity" data-entity="ClientHW" data-source-line="54" data-uid="ent0007" id="entity_ClientHW"><polygon fill="#F5F5F5" points="1423.03,543,1433.03,533,1592.9743,533,1592.9743,567,1582.9743,577,1423.03,577,1423.03,543" style="stroke:#666666;stroke-width:0.5;"/><line style="stroke:#666666;stroke-width:0.5;" x1="1582.9743" x2="1592.9743" y1="543" y2="533"/><line style="stroke:#666666;stroke-width:0.5;" x1="1423.03" x2="1582.9743" y1="543" y2="543"/><line style="stroke:#666666;stroke-width:0.5;" x1="1582.9743" x2="1582.9743" y1="543" y2="577"/><text fill="#000000" font-family="Helvetica" font-size="14" lengthAdjust="spacing" textLength="129.9443" x="1438.03" y="563.7803">Local Mic / Speakers</text></g><!--entity ClientConvMgr--><g class="entity" data-entity="ClientConvMgr" data-source-line="50" data-uid="ent0005" id="entity_ClientConvMgr"><polygon fill="#FFF9C4" points="1411.54,225,1421.54,215,1546.4502,215,1546.4502,249,1536.4502,259,1411.54,259,1411.54,225" style="stroke:#666666;stroke-width:0.5;"/><line style="stroke:#666666;stroke-width:0.5;" x1="1536.4502" x2="1546.4502" y1="225" y2="215"/><line style="stroke:#666666;stroke-width:0.5;" x1="1411.54" x2="1536.4502" y1="225" y2="225"/><line style="stroke:#666666;stroke-width:0.5;" x1="1536.4502" x2="1536.4502" y1="225" y2="259"/><text fill="#000000" font-family="Helvetica" font-size="14" lengthAdjust="spacing" textLength="94.9102" x="1426.54" y="245.7803">Swift Conv Mgr</text></g><!--entity ClientSpeech--><g class="entity" data-entity="ClientSpeech" data-source-line="51" data-uid="ent0006" id="entity_ClientSpeech"><polygon fill="#E1F5FE" points="1384.12,383,1394.12,373,1631.8778,373,1631.8778,407,1621.8778,417,1384.12,417,1384.12,383" style="stroke:#666666;stroke-width:0.5;"/><line style="stroke:#666666;stroke-width:0.5;" x1="1621.8778" x2="1631.8778" y1="383" y2="373"/><line style="stroke:#666666;stroke-width:0.5;" x1="1384.12" x2="1621.8778" y1="383" y2="383"/><line style="stroke:#666666;stroke-width:0.5;" x1="1621.8778" x2="1621.8778" y1="383" y2="417"/><text fill="#000000" font-family="Helvetica" font-size="14" lengthAdjust="spacing" textLength="207.7578" x="1399.12" y="403.7803">Apple Speech Framework (Local)</text></g><!--entity LocalBrowser--><g class="entity" data-entity="LocalBrowser" data-source-line="65" data-uid="ent0014" id="entity_LocalBrowser"><polygon fill="#E1F5FE" points="219.31,67,229.31,57,422.6889,57,422.6889,91,412.6889,101,219.31,101,219.31,67" style="stroke:#666666;stroke-width:0.5;"/><line style="stroke:#666666;stroke-width:0.5;" x1="412.6889" x2="422.6889" y1="67" y2="57"/><line style="stroke:#666666;stroke-width:0.5;" x1="219.31" x2="412.6889" y1="67" y2="67"/><line style="stroke:#666666;stroke-width:0.5;" x1="412.6889" x2="412.6889" y1="67" y2="101"/><text fill="#000000" font-family="Helvetica" font-size="14" lengthAdjust="spacing" textLength="163.3789" x="234.31" y="87.7803">Web Browser (Local Host)</text></g><!--entity HostAudioIO--><g class="entity" data-entity="HostAudioIO" data-source-line="89" data-uid="ent0027" id="entity_HostAudioIO"><polygon fill="#F5F5F5" points="242.37,791,252.37,781,407.6317,781,407.6317,815,397.6317,825,242.37,825,242.37,791" style="stroke:#666666;stroke-width:0.5;"/><line style="stroke:#666666;stroke-width:0.5;" x1="397.6317" x2="407.6317" y1="791" y2="781"/><line style="stroke:#666666;stroke-width:0.5;" x1="242.37" x2="397.6317" y1="791" y2="791"/><line style="stroke:#666666;stroke-width:0.5;" x1="397.6317" x2="397.6317" y1="791" y2="825"/><text fill="#000000" font-family="Helvetica" font-size="14" lengthAdjust="spacing" textLength="125.2617" x="257.37" y="811.7803">Host Mic / Speakers</text></g><!--entity HW--><g class="entity" data-entity="HW" data-source-line="90" data-uid="ent0028" id="entity_HW"><polygon fill="#EEEEEE" points="443.92,791,453.92,781,592.0714,781,592.0714,815,582.0714,825,443.92,825,443.92,791" style="stroke:#666666;stroke-width:0.5;"/><line style="stroke:#666666;stroke-width:0.5;" x1="582.0714" x2="592.0714" y1="791" y2="781"/><line style="stroke:#666666;stroke-width:0.5;" x1="443.92" x2="582.0714" y1="791" y2="791"/><line style="stroke:#666666;stroke-width:0.5;" x1="582.0714" x2="582.0714" y1="791" y2="825"/><text fill="#000000" font-family="Helvetica" font-size="14" lengthAdjust="spacing" textLength="108.1514" x="458.92" y="811.7803">Apple Silicon HW</text></g><!--entity Nginx--><g class="entity" data-entity="Nginx" data-source-line="69" data-uid="ent0016" id="entity_Nginx"><polygon fill="#FFF176" points="889.53,225,899.53,215,1024.4607,215,1024.4607,249,1014.4607,259,889.53,259,889.53,225" style="stroke:#666666;stroke-width:0.5;"/><line style="stroke:#666666;stroke-width:0.5;" x1="1014.4607" x2="1024.4607" y1="225" y2="215"/><line style="stroke:#666666;stroke-width:0.5;" x1="889.53" x2="1014.4607" y1="225" y2="225"/><line style="stroke:#666666;stroke-width:0.5;" x1="1014.4607" x2="1014.4607" y1="225" y2="259"/><text fill="#000000" font-family="Helvetica" font-size="14" lengthAdjust="spacing" textLength="94.9307" x="904.53" y="245.7803">Nginx Gateway</text></g><!--entity GermanAPI--><g class="entity" data-entity="GermanAPI" data-source-line="70" data-uid="ent0017" id="entity_GermanAPI"><polygon fill="#E0F2F1" points="889.6,383,899.6,373,1070.4066,373,1070.4066,407,1060.4066,417,889.6,417,889.6,383" style="stroke:#666666;stroke-width:0.5;"/><line style="stroke:#666666;stroke-width:0.5;" x1="1060.4066" x2="1070.4066" y1="383" y2="373"/><line style="stroke:#666666;stroke-width:0.5;" x1="889.6" x2="1060.4066" y1="383" y2="383"/><line style="stroke:#666666;stroke-width:0.5;" x1="1060.4066" x2="1060.4066" y1="383" y2="417"/><text fill="#000000" font-family="Helvetica" font-size="14" lengthAdjust="spacing" textLength="140.8066" x="904.6" y="403.7803">German-API (FastAPI)</text></g><!--entity HybridEngine--><g class="entity" data-entity="HybridEngine" data-source-line="71" data-uid="ent0018" id="entity_HybridEngine"><polygon fill="#E8F5E9" points="890.02,543,900.02,533,1073.978,533,1073.978,567,1063.978,577,890.02,577,890.02,543" style="stroke:#666666;stroke-width:0.5;"/><line style="stroke:#666666;stroke-width:0.5;" x1="1063.978" x2="1073.978" y1="543" y2="533"/><line style="stroke:#666666;stroke-width:0.5;" x1="890.02" x2="1063.978" y1="543" y2="543"/><line style="stroke:#666666;stroke-width:0.5;" x1="1063.978" x2="1063.978" y1="543" y2="577"/><text fill="#000000" font-family="Helvetica" font-size="14" lengthAdjust="spacing" textLength="143.958" x="905.02" y="563.7803">Hybrid Analysis Engine</text></g><!--entity Assets--><g class="entity" data-entity="Assets" data-source-line="72" data-uid="ent0019" id="entity_Assets"><path d="M1158.54,383.5 C1158.54,373.5 1202.0019,373.5 1202.0019,373.5 C1202.0019,373.5 1245.4638,373.5 1245.4638,383.5 L1245.4638,406.5 C1245.4638,416.5 1202.0019,416.5 1202.0019,416.5 C1202.0019,416.5 1158.54,416.5 1158.54,406.5 L1158.54,383.5" fill="#FFFFFF" style="stroke:#181818;stroke-width:0.5;"/><path d="M1158.54,383.5 C1158.54,393.5 1202.0019,393.5 1202.0019,393.5 C1202.0019,393.5 1245.4638,393.5 1245.4638,383.5" fill="none" style="stroke:#181818;stroke-width:0.5;"/><text fill="#000000" font-family="Helvetica" font-size="14" lengthAdjust="spacing" textLength="66.9238" x="1168.54" y="408.2803">Data Store</text></g><!--entity Ollama--><g class="entity" data-entity="Ollama" data-source-line="79" data-uid="ent0022" id="entity_Ollama"><polygon fill="#FFF3E0" points="388.6,383,398.6,373,499.3998,373,499.3998,407,489.3998,417,388.6,417,388.6,383" style="stroke:#666666;stroke-width:0.5;"/><line style="stroke:#666666;stroke-width:0.5;" x1="489.3998" x2="499.3998" y1="383" y2="373"/><line style="stroke:#666666;stroke-width:0.5;" x1="388.6" x2="489.3998" y1="383" y2="383"/><line style="stroke:#666666;stroke-width:0.5;" x1="489.3998" x2="489.3998" y1="383" y2="417"/><text fill="#000000" font-family="Helvetica" font-size="14" lengthAdjust="spacing" textLength="70.7998" x="403.6" y="403.7803">Ollama API</text></g><!--entity Whisper--><g class="entity" data-entity="Whisper" data-source-line="80" data-uid="ent0023" id="entity_Whisper"><polygon fill="#F3E5F5" points="535.65,383,545.65,373,650.3531,373,650.3531,407,640.3531,417,535.65,417,535.65,383" style="stroke:#666666;stroke-width:0.5;"/><line style="stroke:#666666;stroke-width:0.5;" x1="640.3531" x2="650.3531" y1="383" y2="373"/><line style="stroke:#666666;stroke-width:0.5;" x1="535.65" x2="640.3531" y1="383" y2="383"/><line style="stroke:#666666;stroke-width:0.5;" x1="640.3531" x2="640.3531" y1="383" y2="417"/><text fill="#000000" font-family="Helvetica" font-size="14" lengthAdjust="spacing" textLength="74.7031" x="550.65" y="403.7803">whisper.cpp</text></g><!--entity ConvMgr--><g class="entity" data-entity="ConvMgr" data-source-line="85" data-uid="ent0025" id="entity_ConvMgr"><polygon fill="#FFF9C4" points="283.54,543,293.54,533,418.4502,533,418.4502,567,408.4502,577,283.54,577,283.54,543" style="stroke:#666666;stroke-width:0.5;"/><line style="stroke:#666666;stroke-width:0.5;" x1="408.4502" x2="418.4502" y1="543" y2="533"/><line style="stroke:#666666;stroke-width:0.5;" x1="283.54" x2="408.4502" y1="543" y2="543"/><line style="stroke:#666666;stroke-width:0.5;" x1="408.4502" x2="408.4502" y1="543" y2="577"/><text fill="#000000" font-family="Helvetica" font-size="14" lengthAdjust="spacing" textLength="94.9102" x="298.54" y="563.7803">Swift Conv Mgr</text></g><!--entity NativeAudio--><g class="entity" data-entity="NativeAudio" data-source-line="86" data-uid="ent0026" id="entity_NativeAudio"><polygon fill="#E1F5FE" points="250.46,667,260.46,657,451.5352,657,451.5352,691,441.5352,701,250.46,701,250.46,667" style="stroke:#666666;stroke-width:0.5;"/><line style="stroke:#666666;stroke-width:0.5;" x1="441.5352" x2="451.5352" y1="667" y2="657"/><line style="stroke:#666666;stroke-width:0.5;" x1="250.46" x2="441.5352" y1="667" y2="667"/><line style="stroke:#666666;stroke-width:0.5;" x1="441.5352" x2="441.5352" y1="667" y2="701"/><text fill="#000000" font-family="Helvetica" font-size="14" lengthAdjust="spacing" textLength="161.0752" x="265.46" y="687.7803">Apple Speech Framework</text></g><!--reverse link ClientSpeech to ClientHW--><g class="link" data-entity-1="ClientSpeech" data-entity-2="ClientHW" data-source-line="57" data-uid="lnk9" id="link_ClientSpeech_ClientHW"><path d="M1508,423.31 C1508,453.46 1508,502.28 1508,532.52" fill="none" id="ClientSpeech-backto-ClientHW" style="stroke:#B0C4DE;stroke-width:2;"/><polygon fill="#B0C4DE" points="1508,417.31,1504,426.31,1508,422.31,1512,426.31,1508,417.31" style="stroke:#B0C4DE;stroke-width:2;"/><text fill="#7D7D75" font-family="Helvetica" font-size="16" lengthAdjust="spacing" textLength="66.7031" x="1509" y="462.3203">Audio I/O</text></g><!--reverse link ClientConvMgr to ClientSpeech--><g class="link" data-entity-1="ClientConvMgr" data-entity-2="ClientSpeech" data-source-line="58" data-uid="lnk11" id="link_ClientConvMgr_ClientSpeech"><path d="M1484.067,265.2589 C1489.607,295.0489 1498.49,342.86 1504.03,372.64" fill="none" id="ClientConvMgr-backto-ClientSpeech" style="stroke:#B0C4DE;stroke-width:2;"/><polygon fill="#B0C4DE" points="1482.97,259.36,1480.6829,268.9396,1483.8842,264.2757,1488.5481,267.477,1482.97,259.36" style="stroke:#B0C4DE;stroke-width:2;"/><text fill="#7D7D75" font-family="Helvetica" font-size="16" lengthAdjust="spacing" textLength="151.1719" x="1492.76" y="302.3203">Swift Native Interface</text></g><!--link RemoteClient to ClientConvMgr--><g class="link" data-entity-1="RemoteClient" data-entity-2="ClientConvMgr" data-source-line="59" data-uid="lnk12" id="link_RemoteClient_ClientConvMgr"><path d="M1455.7,101.36 C1460.85,131.15 1469.1276,178.9478 1474.2776,208.7278" fill="none" id="RemoteClient-to-ClientConvMgr" style="stroke:#B0C4DE;stroke-width:2;"/><polygon fill="#B0C4DE" points="1475.3,214.64,1477.7078,205.09,1474.448,209.7131,1469.8249,206.4533,1475.3,214.64" style="stroke:#B0C4DE;stroke-width:2;"/><text fill="#7D7D75" font-family="Helvetica" font-size="16" lengthAdjust="spacing" textLength="261.4297" x="1464.88" y="144.3203">Web Application UI / TTS &amp; Dictation</text></g><!--link Nginx to GermanAPI--><g class="link" data-entity-1="Nginx" data-entity-2="GermanAPI" data-source-line="74" data-uid="lnk20" id="link_Nginx_GermanAPI"><path d="M1024.96,241.25 C1059,246.74 1097.46,259.64 1119,289 C1145.3,324.85 1101.147,351.9624 1054.027,370.4124" fill="none" id="Nginx-to-GermanAPI" style="stroke:#FF1493;stroke-width:2;"/><polygon fill="#FF1493" points="1048.44,372.6,1058.2789,373.0433,1053.0958,370.777,1055.3621,365.5939,1048.44,372.6" style="stroke:#FF1493;stroke-width:2;"/><text fill="#7D7D75" font-family="Helvetica" font-size="16" lengthAdjust="spacing" textLength="84.4688" x="1126.78" y="302.3203">Proxy (App)</text></g><!--link Nginx to GermanAPI--><g class="link" data-entity-1="Nginx" data-entity-2="GermanAPI" data-source-line="122" data-uid="lnk47" id="link_Nginx_GermanAPI"><path d="M936.0798,264.1843 C927.1198,277.5543 922.34,290.4 927,307 C933.88,331.52 946.1776,351.1893 958.7776,367.8993" fill="none" id="Nginx-GermanAPI" style="stroke:#FF1493;stroke-width:2;"/><polygon fill="#FF1493" points="939.42,259.2,931.0868,264.4496,936.6365,263.3535,937.7325,268.9032,939.42,259.2" style="stroke:#FF1493;stroke-width:2;"/><polygon fill="#FF1493" points="962.39,372.69,960.1652,363.0957,959.3797,368.6978,953.7776,367.9122,962.39,372.69" style="stroke:#FF1493;stroke-width:2;"/><text fill="#7D7D75" font-family="Helvetica" font-size="16" lengthAdjust="spacing" textLength="185.8125" x="928" y="302.3203">Reverse Proxy (WS Pass)</text></g><!--link RemoteClient to Nginx--><g class="link" data-entity-1="RemoteClient" data-entity-2="Nginx" data-source-line="96" data-uid="lnk29" id="link_RemoteClient_Nginx"><path d="M1383.95,101.45 C1289.35,131.26 1124.8226,183.1167 1030.4126,212.8667" fill="none" id="RemoteClient-to-Nginx" style="stroke:#FF1493;stroke-width:2;"/><polygon fill="#FF1493" points="1024.69,214.67,1034.4761,215.7802,1029.4588,213.1673,1032.0717,208.15,1024.69,214.67" style="stroke:#FF1493;stroke-width:2;"/><text fill="#7D7D75" font-family="Helvetica" font-size="16" lengthAdjust="spacing" textLength="137.8125" x="1278.76" y="144.3203">mTLS / API Access</text></g><!--link LocalBrowser to Nginx--><g class="link" data-entity-1="LocalBrowser" data-entity-2="Nginx" data-source-line="97" data-uid="lnk30" id="link_LocalBrowser_Nginx"><path d="M422.93,85.49 C563.35,94.47 807.81,115.59 886,157 C911.1,170.29 928.3463,191.1981 940.7763,209.7181" fill="none" id="LocalBrowser-to-Nginx" style="stroke:#FF1493;stroke-width:2;"/><polygon fill="#FF1493" points="944.12,214.7,942.4257,204.998,941.3336,210.5484,935.7832,209.4562,944.12,214.7" style="stroke:#FF1493;stroke-width:2;"/><text fill="#7D7D75" font-family="Helvetica" font-size="16" lengthAdjust="spacing" textLength="266.7656" x="863.33" y="144.3203">mTLS / Local Access (Relative paths)</text></g><!--link Nginx to Whisper--><g class="link" data-entity-1="Nginx" data-entity-2="Whisper" data-source-line="100" data-uid="lnk31" id="link_Nginx_Whisper"><path d="M889.37,258.07 C888.24,258.38 887.12,258.69 886,259 C833.39,273.4 817.34,268.01 767,289 C712.94,311.54 660.7368,345.537 627.2568,369.097" fill="none" id="Nginx-to-Whisper" style="stroke:#FF1493;stroke-width:2;"/><polygon fill="#FF1493" points="622.35,372.55,632.0122,370.6418,626.439,369.6725,627.4083,364.0993,622.35,372.55" style="stroke:#FF1493;stroke-width:2;"/><text fill="#7D7D75" font-family="Helvetica" font-size="16" lengthAdjust="spacing" textLength="148.4766" x="768" y="302.3203">Proxy (Transcription)</text></g><!--link Nginx to Ollama--><g class="link" data-entity-1="Nginx" data-entity-2="Ollama" data-source-line="101" data-uid="lnk32" id="link_Nginx_Ollama"><path d="M889.06,258.44 C888.03,258.64 887.01,258.82 886,259 C829.1,268.92 406.65,246.99 367,289 C353.58,303.22 389.146,341.9999 416.416,368.3599" fill="none" id="Nginx-to-Ollama" style="stroke:#FF1493;stroke-width:2;"/><polygon fill="#FF1493" points="420.73,372.53,417.039,363.3989,417.135,369.055,411.479,369.1509,420.73,372.53" style="stroke:#FF1493;stroke-width:2;"/><text fill="#7D7D75" font-family="Helvetica" font-size="16" lengthAdjust="spacing" textLength="122.7109" x="368" y="302.3203">Proxy (Inference)</text></g><!--link Nginx to ConvMgr--><g class="link" data-entity-1="Nginx" data-entity-2="ConvMgr" data-source-line="104" data-uid="lnk33" id="link_Nginx_ConvMgr"><path d="M889.06,258.44 C888.03,258.64 887.01,258.82 886,259 C653.11,299.46 581.88,222.67 355,289 C339.34,293.58 338.68,302.48 323,307 C305.68,312 173.43,301.95 161,315 C122.39,355.56 133.31,392.32 161,441 C187.09,486.87 234.3923,513.8587 277.7523,531.0487" fill="none" id="Nginx-to-ConvMgr" style="stroke:#FF1493;stroke-width:2;"/><polygon fill="#FF1493" points="283.33,533.26,276.4377,526.2247,278.6819,531.4173,273.4893,533.6616,283.33,533.26" style="stroke:#FF1493;stroke-width:2;"/><text fill="#7D7D75" font-family="Helvetica" font-size="16" lengthAdjust="spacing" textLength="209.8203" x="162" y="399.3203">Proxy (Host Voice) via mDNS</text></g><!--reverse link ClientConvMgr to Nginx--><g class="link" data-entity-1="ClientConvMgr" data-entity-2="Nginx" data-source-line="105" data-uid="lnk35" id="link_ClientConvMgr_Nginx"><path d="M1405.41,237 C1305.34,237 1124.84,237 1024.71,237" fill="none" id="ClientConvMgr-backto-Nginx" style="stroke:#FF1493;stroke-width:2;"/><polygon fill="#FF1493" points="1411.41,237,1402.41,233,1406.41,237,1402.41,241,1411.41,237" style="stroke:#FF1493;stroke-width:2;"/><text fill="#7D7D75" font-family="Helvetica" font-size="16" lengthAdjust="spacing" textLength="350.3438" x="1043.01" y="229.3203">Proxy (Remote Voice) via mDNS / Secure Tunnel</text></g><!--link ClientConvMgr to Nginx--><g class="link" data-entity-1="ClientConvMgr" data-entity-2="Nginx" data-source-line="121" data-uid="lnk46" id="link_ClientConvMgr_Nginx"><path d="M1411.32,247.96 C1383.3,251.98 1350.42,256.03 1320.51,258 C1229.59,264 1206.42,264 1115.51,258 C1085.59,256.03 1058.6492,252.8318 1030.6192,248.8118" fill="none" id="ClientConvMgr-to-Nginx" style="stroke:#FF1493;stroke-width:2;"/><polygon fill="#FF1493" points="1024.68,247.96,1033.021,253.1972,1029.6294,248.6698,1034.1567,245.2782,1024.68,247.96" style="stroke:#FF1493;stroke-width:2;"/><text fill="#7D7D75" font-family="Helvetica" font-size="16" lengthAdjust="spacing" textLength="203.6406" x="1116.51" y="253.3203">mTLS / WebSocket Upgrade</text></g><!--link LocalBrowser to ConvMgr--><g class="link" data-entity-1="LocalBrowser" data-entity-2="ConvMgr" data-source-line="108" data-uid="lnk36" id="link_LocalBrowser_ConvMgr"><path d="M252.21,101.43 C163.4,133.6 23.31,202.04 51,307 C72.76,389.48 85.09,421.12 157,467 C199.48,494.1 246.223,514.8423 285.833,530.3523" fill="none" id="LocalBrowser-to-ConvMgr" style="stroke:#B0C4DE;stroke-width:2;"/><polygon fill="#B0C4DE" points="291.42,532.54,284.498,525.5339,286.7642,530.7169,281.5811,532.9831,291.42,532.54" style="stroke:#B0C4DE;stroke-width:2;"/><text fill="#7D7D75" font-family="Helvetica" font-size="16" lengthAdjust="spacing" textLength="261.4297" x="52" y="302.3203">Web Application UI / TTS &amp; Dictation</text></g><!--link GermanAPI to HybridEngine--><g class="link" data-entity-1="GermanAPI" data-entity-2="HybridEngine" data-source-line="111" data-uid="lnk37" id="link_GermanAPI_HybridEngine"><path d="M980.27,417.31 C980.65,447.46 981.2746,496.2805 981.6546,526.5205" fill="none" id="GermanAPI-to-HybridEngine" style="stroke:#B0C4DE;stroke-width:2;"/><polygon fill="#B0C4DE" points="981.73,532.52,985.6166,523.4704,981.6672,527.5204,977.6172,523.571,981.73,532.52" style="stroke:#B0C4DE;stroke-width:2;"/><text fill="#7D7D75" font-family="Helvetica" font-size="16" lengthAdjust="spacing" textLength="56.9219" x="981.88" y="462.3203">Analyze</text></g><!--link GermanAPI to Assets--><g class="link" data-entity-1="GermanAPI" data-entity-2="Assets" data-source-line="112" data-uid="lnk38" id="link_GermanAPI_Assets"><path d="M1070.62,395 C1100.83,395 1127.13,395 1152.14,395" fill="none" id="GermanAPI-to-Assets" style="stroke:#B0C4DE;stroke-width:2;"/><polygon fill="#B0C4DE" points="1158.14,395,1149.14,391,1153.14,395,1149.14,399,1158.14,395" style="stroke:#B0C4DE;stroke-width:2;"/><text fill="#7D7D75" font-family="Helvetica" font-size="16" lengthAdjust="spacing" textLength="51.5703" x="1088.97" y="387.3203">Stream</text></g><!--link NativeAudio to HostAudioIO--><g class="link" data-entity-1="NativeAudio" data-entity-2="HostAudioIO" data-source-line="113" data-uid="lnk39" id="link_NativeAudio_HostAudioIO"><path d="M346.47,701.25 C341.73,723.51 335.572,752.4021 330.812,774.7121" fill="none" id="NativeAudio-to-HostAudioIO" style="stroke:#B0C4DE;stroke-width:2;"/><polygon fill="#B0C4DE" points="329.56,780.58,335.3499,772.6128,330.6033,775.6901,327.526,770.9435,329.56,780.58" style="stroke:#B0C4DE;stroke-width:2;"/><text fill="#7D7D75" font-family="Helvetica" font-size="16" lengthAdjust="spacing" textLength="66.7031" x="340.56" y="746.3203">Audio I/O</text></g><!--link ConvMgr to NativeAudio--><g class="link" data-entity-1="ConvMgr" data-entity-2="NativeAudio" data-source-line="114" data-uid="lnk40" id="link_ConvMgr_NativeAudio"><path d="M328.11,577.33 C320.14,586.25 312.16,597.27 308,609 C301.91,626.16 308.7456,639.2018 321.1256,652.2218" fill="none" id="ConvMgr-to-NativeAudio" style="stroke:#B0C4DE;stroke-width:2;"/><polygon fill="#B0C4DE" points="325.26,656.57,321.9571,647.2915,321.8146,652.9465,316.1596,652.804,325.26,656.57" style="stroke:#B0C4DE;stroke-width:2;"/><text fill="#7D7D75" font-family="Helvetica" font-size="16" lengthAdjust="spacing" textLength="51.5781" x="309" y="622.3203">Control</text></g><!--reverse link Ollama to ConvMgr--><g class="link" data-entity-1="Ollama" data-entity-2="ConvMgr" data-source-line="115" data-uid="lnk42" id="link_Ollama_ConvMgr"><path d="M406.1323,420.4088 C391.5723,428.9988 379.06,435.18 362,441 C351.14,444.7 318.46,440.28 311,449 C290.08,473.46 312.74,510.01 331.5,532.9" fill="none" id="Ollama-backto-ConvMgr" style="stroke:#B0C4DE;stroke-width:2;"/><polygon fill="#B0C4DE" points="411.3,417.36,401.516,418.4881,406.9936,419.9007,405.581,425.3783,411.3,417.36" style="stroke:#B0C4DE;stroke-width:2;"/><text fill="#7D7D75" font-family="Helvetica" font-size="16" lengthAdjust="spacing" textLength="81.8125" x="312" y="462.3203">Chat Query</text></g><!--link GermanAPI to Ollama--><g class="link" data-entity-1="GermanAPI" data-entity-2="Ollama" data-source-line="116" data-uid="lnk43" id="link_GermanAPI_Ollama"><path d="M912.06,372.64 C797.08,336.51 569.78,272.99 499.5,310.83 C475.3,323.86 462.1808,347.0163 453.9008,367.2663" fill="none" id="GermanAPI-to-Ollama" style="stroke:#B0C4DE;stroke-width:2;"/><polygon fill="#B0C4DE" points="451.63,372.82,458.7387,366.0034,453.5224,368.1919,451.3338,362.9756,451.63,372.82" style="stroke:#B0C4DE;stroke-width:2;"/><text fill="#7D7D75" font-family="Helvetica" font-size="16" lengthAdjust="spacing" textLength="95.1641" x="500.5" y="302.3203">LLM Request</text></g><!--link GermanAPI to Whisper--><g class="link" data-entity-1="GermanAPI" data-entity-2="Whisper" data-source-line="117" data-uid="lnk44" id="link_GermanAPI_Whisper"><path d="M889.3,411.45 C875.82,413.34 862.06,414.96 848.97,416 C778.97,421.57 760.81,423.4 690.97,416 C677.83,414.61 669.7265,413.4011 656.5765,410.6911" fill="none" id="GermanAPI-to-Whisper" style="stroke:#B0C4DE;stroke-width:2;"/><polygon fill="#B0C4DE" points="650.7,409.48,658.7074,415.2143,655.5971,410.4892,660.3221,407.3789,650.7,409.48" style="stroke:#B0C4DE;stroke-width:2;"/><text fill="#7D7D75" font-family="Helvetica" font-size="16" lengthAdjust="spacing" textLength="156.5156" x="691.97" y="411.3203">Transcription Request</text></g><!--link GermanAPI to ConvMgr--><g class="link" data-entity-1="GermanAPI" data-entity-2="ConvMgr" data-source-line="120" data-uid="lnk45" id="link_GermanAPI_ConvMgr"><path d="M888.7008,418.9319 C762.4008,450.6619 540.1193,506.4986 424.7593,535.4686" fill="none" id="GermanAPI-ConvMgr" style="stroke:#B0C4DE;stroke-width:2;"/><polygon fill="#B0C4DE" points="894.52,417.47,884.8166,415.7835,889.6707,418.6883,886.7659,423.5423,894.52,417.47" style="stroke:#B0C4DE;stroke-width:2;"/><polygon fill="#B0C4DE" points="418.94,536.93,428.6432,538.6175,423.7894,535.7122,426.6947,530.8584,418.94,536.93" style="stroke:#B0C4DE;stroke-width:2;"/><text fill="#7D7D75" font-family="Helvetica" font-size="16" lengthAdjust="spacing" textLength="135.1641" x="759.59" y="462.3203">WebSocket (Local)</text></g><!--link NativeAudio to HW--><g class="link" data-entity-1="NativeAudio" data-entity-2="HW" data-source-line="125" data-uid="lnk48" id="link_NativeAudio_HW"><path d="M380.09,701.25 C410.55,723.51 453.2845,754.7315 483.8345,777.0415" fill="none" id="NativeAudio-to-HW" style="stroke:#B0C4DE;stroke-width:2;"/><polygon fill="#B0C4DE" points="488.68,780.58,483.7708,772.0419,484.6421,777.6312,479.0527,778.5025,488.68,780.58" style="stroke:#B0C4DE;stroke-width:2;"/></g><!--link Whisper to HW--><g class="link" data-entity-1="Whisper" data-entity-2="HW" data-source-line="126" data-uid="lnk49" id="link_Whisper_HW"><path d="M589.07,417.26 C576.11,487.42 535.8797,705.1998 522.9797,775.0498" fill="none" id="Whisper-to-HW" style="stroke:#B0C4DE;stroke-width:2;"/><polygon fill="#B0C4DE" points="521.89,780.95,527.458,772.8261,522.7981,776.0331,519.591,771.3732,521.89,780.95" style="stroke:#B0C4DE;stroke-width:2;"/></g><!--link Ollama to HW--><g class="link" data-entity-1="Ollama" data-entity-2="HW" data-source-line="127" data-uid="lnk50" id="link_Ollama_HW"><path d="M451.72,417.21 C457.2,432.97 464.39,455.1 469,475 C495.36,588.81 510.1867,722.3394 515.3967,774.7694" fill="none" id="Ollama-to-HW" style="stroke:#B0C4DE;stroke-width:2;"/><polygon fill="#B0C4DE" points="515.99,780.74,519.0804,771.3886,515.4956,775.7645,511.1197,772.1796,515.99,780.74" style="stroke:#B0C4DE;stroke-width:2;"/></g><!--SRC=[dLRDRjj64BxpAIPMqKX0bCHsxJI66q2MA5kjVbnHiLiKHR0Yno8hQfTTBkL8HHwX3z1ZZZq4VOBculgzEhjBITHFNAJaXToTcPsVRxxPHubaemc3T3hge681KmnkM9oYuuHHW90gb2ZKBC7KSHvz4VaY5XA-WRrIEng5obE8yLcSuPxZF8QhUHXZuAJZY2TCiWaCcJyUIP7nmEefoNXAMyXLGIeDMI1k8pxAJrxj6DMwa1mb73ulR3JmXcMnQWgkkco2S87n55NaCwSWnAGKj_2R0_JKpVcb1c9o6V6nMHk4aJ_ccAPmOFwrjLpkHK3lqNBLY-O8-yVclnrnrFc0D8dfCtNUwT39eOX7FbB84gVEeq3_8xHRNVTDlTVkzQ7qbNcMM_NsQs_WzjzSzBm1b9e7-jtQlEptldrp1YLtltdKTBUsk-UjxW-at6o-h6zRxhkTti0bvQ_TMlEuc1c9lc9y56EUdRDbdKpyfwUXIDMhLsi-Ma4X0vJhGgiOTzjAfFY5pZihsBDXRLiiY9RsNxuuRXpiDYbn8XGM3DfGjmqk1Kk7pQFziwFTvlWeucyBranQTLrN6UCY-4IoJFhfsJmSIiVciVYeLglGQDNE-xME_jPBUNdgxPRR7K2dLh-WH48LlDa4bIHethq79HAoDOe8LpW7V4lToEy-X0BOY7g8EQj2xlLDg52F8zg13lD3mi8U57CGx0T3V9w7OIBQkyOXd56RfDHXPMkYiWSi1VkTMrk4Q1GBPrxQUi7PGfVwJ6e3QwMqvwtEz6wZ6qMIV0gTaJIdsNFq4gqi0RskLaiIEjDB4FqGcbGKl1Lo3EMsy5bSAPZ9HSW7AbqS8oMGf7K2yZRIDjyvXImO4z29V7Yc3s1Zb6d1uCKr6HkAjuU1Da8cwBNgZ-7o_e-x3vExlwbKOmW4X4m6jqncaDp_WIdOMAMOXqHzTnyi5osCLhFafvnIVww-MlV-16fP40beFUiLbFBDdOgBx9taXtQPYgO8BKwWkM4-6ZDhPQqIxVA736bqwBGJiQf8S7ZTeWGD1Xvy2Os8KA0NBRudpEzvqAqDMbSk64ehUsx_okrNYXZDfQnZ5qGV6YavZPGmq2-XvLFmj5NIQhRQvd-nkwXjNfRzft3kzZkrRhLssO9oG_XKKyBS914fLgZBogNXZN_8XfLDJ9-Zd31kr3n5hRvGDgZsQHWmwYkf7VQ7GU2_s89tLxC9d3E5jsnc7BKh6jNxBuutf0l7bPiiLVHXexCRUhtaFgVXiB-XU34RoYY06cVnB8rIS3MBeL6rMtP1qt_po7svrDOZViXIij3GmzvJrB56gvQcgDBrNjUFzTvWXI2oSki4gFtVpg1C2AaKU-en73o5NgVRwlOQBcstSj_0GpcbH6vcl3VXaOcfRF6XnMYK_XUDzEAOqSs5N37kvx-dfu78XZ4ACZyIt3HiitdeFj_GlWsZD47vr4yIetvj_qdwqDNjlHRFuLFG8ykj3pJLsJ0irJt0Y4Mn_y68_uCBBTXCTrdo-0mAr6srYm7rkZ7MwkqWmIsF8k8A8egBQwkyHfokULRpSD3xxaS2VRjtxLKMGz7GQQgo1COMU1cXOj3sO3hZcOzSF05v_zVzHp6z-nFe_ZMULPnrJfFwNaf0jR0z0QFzJCC4QhvFjprdZJSMkDuGjrnZ5VHmYord9Ko5QKKxwiNP_SVXBATvgrtkRxgMzyx2fmN8bgqpq1TYNqQ9Pj8jyHpII-aMlw7REAVMCFS7aIawwpsD5PWlaiKPB21uG10qk0gH1R6EWn18yQpSoaDVyNr-Zi72bT0z2DE8mQJHzHOwCTwe7PCYrynl0Hkw6bFePn9Xa76EyRBG4xhYZCKauz6O1XJ4WkuyiRtWaAzXVFVX_YF-yplTjH7cqsnCuVuz0JHiCW4zE2A5CUwewDfK-xnvHiwPcQdpIaDzHeVhHYOWTaGWnVrx35O5Nj7Xrh5hB7nYYNgEHGrJvw9AJi4qmPL4Dd6AlRnjlz2PnTl28jmjXQAr4vqL9KMy4b-_KoonLm-PWkypbBC7NL_AjziTkcNycc6g7bHOzS9Q4onrgGnKBa_FNWNfZFkX53oQQvoKh-O10GKvmISnm2jquPCLZAWR4WCpKIpKQNNfnWOsyiFo6wMpZl5F4SjAxtL291jWtYcd6yEoZmGYmd7UATSUNBBKSic5lJCYiB5FS9RwilPmwQ-THVfsxUMrsBNrBm00]--></g></svg>