<svg xmlns="http://www.w3.org/2000/svg" xmlns:xlink="http://www.w3.org/1999/xlink" contentStyleType="text/css" data-diagram-type="DESCRIPTION" height="996px" preserveAspectRatio="none" style="width:1335px;height:996px;" version="1.1" viewBox="0 0 1335 996" width="1335px" zoomAndPan="magnify"><defs/><g><!--cluster Remote Client Machine--><g class="cluster" data-entity="Remote Client Machine" data-source-line="44" data-uid="ent0002" id="cluster_Remote Client Machine"><rect fill="#D1DBE0" height="663" rx="5" ry="5" style="stroke:#3F51B5;stroke-width:1;" width="280" x="7" y="191"/><text fill="#000000" font-family="Helvetica" font-size="14" font-style="italic" lengthAdjust="spacing" textLength="59.1445" x="117.4277" y="203.7803">&#171;remote&#187;</text><text fill="#000000" font-family="Helvetica" font-size="14" font-weight="bold" lengthAdjust="spacing" textLength="154.0273" x="69.9863" y="217.7803">Remote Client Machine</text></g><!--cluster macOS Native Host--><g class="cluster" data-entity="macOS Native Host" data-source-line="57" data-uid="ent0013" id="cluster_macOS Native Host"><rect fill="#EDEDED" height="983" rx="5" ry="5" style="stroke:#444444;stroke-width:1;" width="1018" x="311" y="7"/><text fill="#000000" font-family="Helvetica" font-size="14" font-style="italic" lengthAdjust="spacing" textLength="42.0342" x="798.9829" y="19.7803">&#171;host&#187;</text><text fill="#000000" font-family="Helvetica" font-size="14" font-weight="bold" lengthAdjust="spacing" textLength="129.1582" x="755.4209" y="33.7803">macOS Native Host</text></g><!--cluster German-API Stack (Docker)--><g class="cluster" data-entity="German-API Stack .Docker." data-source-line="62" data-uid="ent0015" id="cluster_German-API Stack .Docker."><rect fill="#CBDDC7" height="522" rx="5" ry="5" style="stroke:#181818;stroke-width:1;" width="380" x="335" y="191"/><text fill="#000000" font-family="Helvetica" font-size="14" font-style="italic" lengthAdjust="spacing" textLength="73.165" x="488.4175" y="203.7803">&#171;container&#187;</text><text fill="#000000" font-family="Helvetica" font-size="14" font-weight="bold" lengthAdjust="spacing" textLength="182.8408" x="433.5796" y="217.7803">German-API Stack (Docker)</text></g><!--cluster Omninode (macOS Service)--><g class="cluster" data-entity="Omninode .macOS Service." data-source-line="72" data-uid="ent0021" id="cluster_Omninode .macOS Service."><rect fill="#E1F5FE" height="152" rx="5" ry="5" style="stroke:#1976D2;stroke-width:1;" width="331" x="792" y="375"/><text fill="#000000" font-family="Helvetica" font-size="14" font-style="italic" lengthAdjust="spacing" textLength="66.9307" x="924.0347" y="387.7803">&#171;projectB&#187;</text><text fill="#000000" font-family="Helvetica" font-size="14" font-weight="bold" lengthAdjust="spacing" textLength="184.3926" x="865.3037" y="401.7803">Omninode (macOS Service)</text></g><!--cluster Project B (Server Core)--><g class="cluster" data-entity="Project B .Server Core." data-source-line="78" data-uid="ent0024" id="cluster_Project B .Server Core."><rect fill="#E1F5FE" height="279" rx="5" ry="5" style="stroke:#1976D2;stroke-width:1;" width="234" x="749" y="575"/><text fill="#000000" font-family="Helvetica" font-size="14" font-style="italic" lengthAdjust="spacing" textLength="66.9307" x="832.5347" y="587.7803">&#171;projectB&#187;</text><text fill="#000000" font-family="Helvetica" font-size="14" font-weight="bold" lengthAdjust="spacing" textLength="154.0547" x="788.9727" y="601.7803">Project B (Server Core)</text></g><!--entity RemoteClient--><g class="entity" data-entity="RemoteClient" data-source-line="45" data-uid="ent0003" id="entity_RemoteClient"><polygon fill="#FFFFFF" points="82.87,279,92.87,269,269.1249,269,269.1249,303,259.1249,313,82.87,313,82.87,279" style="stroke:#666666;stroke-width:0.5;"/><line style="stroke:#666666;stroke-width:0.5;" x1="259.1249" x2="269.1249" y1="279" y2="269"/><line style="stroke:#666666;stroke-width:0.5;" x1="82.87" x2="259.1249" y1="279" y2="279"/><line style="stroke:#666666;stroke-width:0.5;" x1="259.1249" x2="259.1249" y1="279" y2="313"/><text fill="#000000" font-family="Helvetica" font-size="14" lengthAdjust="spacing" textLength="146.2549" x="97.87" y="299.7803">Web Browser (Remote)</text></g><!--entity ClientAgent--><g class="entity" data-entity="ClientAgent" data-source-line="46" data-uid="ent0004" id="entity_ClientAgent"><polygon fill="#FFF9C4" points="83.75,470,93.75,460,234.2598,460,234.2598,494,224.2598,504,83.75,504,83.75,470" style="stroke:#666666;stroke-width:0.5;"/><line style="stroke:#666666;stroke-width:0.5;" x1="224.2598" x2="234.2598" y1="470" y2="460"/><line style="stroke:#666666;stroke-width:0.5;" x1="83.75" x2="224.2598" y1="470" y2="470"/><line style="stroke:#666666;stroke-width:0.5;" x1="224.2598" x2="224.2598" y1="470" y2="504"/><text fill="#000000" font-family="Helvetica" font-size="14" lengthAdjust="spacing" textLength="110.5098" x="98.75" y="490.7803">Swift Audio Agent</text></g><!--entity ClientSpeech--><g class="entity" data-entity="ClientSpeech" data-source-line="47" data-uid="ent0005" id="entity_ClientSpeech"><polygon fill="#E1F5FE" points="23.12,656,33.12,646,270.8778,646,270.8778,694,260.8778,704,23.12,704,23.12,656" style="stroke:#666666;stroke-width:0.5;"/><line style="stroke:#666666;stroke-width:0.5;" x1="260.8778" x2="270.8778" y1="656" y2="646"/><line style="stroke:#666666;stroke-width:0.5;" x1="23.12" x2="260.8778" y1="656" y2="656"/><line style="stroke:#666666;stroke-width:0.5;" x1="260.8778" x2="260.8778" y1="656" y2="704"/><text fill="#000000" font-family="Helvetica" font-size="14" font-style="italic" lengthAdjust="spacing" textLength="100.3926" x="91.8026" y="676.7803">&#171;parallelogram&#187;</text><text fill="#000000" font-family="Helvetica" font-size="14" lengthAdjust="spacing" textLength="207.7578" x="38.12" y="690.7803">Apple Speech Framework (Local)</text></g><!--entity ClientHW--><g class="entity" data-entity="ClientHW" data-source-line="48" data-uid="ent0006" id="entity_ClientHW"><polygon fill="#F5F5F5" points="62.03,790,72.03,780,231.9743,780,231.9743,828,221.9743,838,62.03,838,62.03,790" style="stroke:#666666;stroke-width:0.5;"/><line style="stroke:#666666;stroke-width:0.5;" x1="221.9743" x2="231.9743" y1="790" y2="780"/><line style="stroke:#666666;stroke-width:0.5;" x1="62.03" x2="221.9743" y1="790" y2="790"/><line style="stroke:#666666;stroke-width:0.5;" x1="221.9743" x2="221.9743" y1="790" y2="838"/><text fill="#000000" font-family="Helvetica" font-size="14" font-style="italic" lengthAdjust="spacing" textLength="53.7168" x="115.1438" y="810.7803">&#171;box3d&#187;</text><text fill="#000000" font-family="Helvetica" font-size="14" lengthAdjust="spacing" textLength="129.9443" x="77.03" y="824.7803">Local Mic / Speakers</text></g><!--entity LocalBrowser--><g class="entity" data-entity="LocalBrowser" data-source-line="59" data-uid="ent0014" id="entity_LocalBrowser"><polygon fill="#E1F5FE" points="475.31,95,485.31,85,678.6889,85,678.6889,119,668.6889,129,475.31,129,475.31,95" style="stroke:#666666;stroke-width:0.5;"/><line style="stroke:#666666;stroke-width:0.5;" x1="668.6889" x2="678.6889" y1="95" y2="85"/><line style="stroke:#666666;stroke-width:0.5;" x1="475.31" x2="668.6889" y1="95" y2="95"/><line style="stroke:#666666;stroke-width:0.5;" x1="668.6889" x2="668.6889" y1="95" y2="129"/><text fill="#000000" font-family="Helvetica" font-size="14" lengthAdjust="spacing" textLength="163.3789" x="490.31" y="115.7803">Web Browser (Local Host)</text></g><!--entity HostAudioIO--><g class="entity" data-entity="HostAudioIO" data-source-line="83" data-uid="ent0027" id="entity_HostAudioIO"><polygon fill="#F5F5F5" points="753.37,926,763.37,916,918.6317,916,918.6317,964,908.6317,974,753.37,974,753.37,926" style="stroke:#666666;stroke-width:0.5;"/><line style="stroke:#666666;stroke-width:0.5;" x1="908.6317" x2="918.6317" y1="926" y2="916"/><line style="stroke:#666666;stroke-width:0.5;" x1="753.37" x2="908.6317" y1="926" y2="926"/><line style="stroke:#666666;stroke-width:0.5;" x1="908.6317" x2="908.6317" y1="926" y2="974"/><text fill="#000000" font-family="Helvetica" font-size="14" font-style="italic" lengthAdjust="spacing" textLength="53.7168" x="804.1425" y="946.7803">&#171;box3d&#187;</text><text fill="#000000" font-family="Helvetica" font-size="14" lengthAdjust="spacing" textLength="125.2617" x="768.37" y="960.7803">Host Mic / Speakers</text></g><!--entity HW--><g class="entity" data-entity="HW" data-source-line="84" data-uid="ent0028" id="entity_HW"><polygon fill="#EEEEEE" points="953.92,926,963.92,916,1102.0714,916,1102.0714,964,1092.0714,974,953.92,974,953.92,926" style="stroke:#666666;stroke-width:0.5;"/><line style="stroke:#666666;stroke-width:0.5;" x1="1092.0714" x2="1102.0714" y1="926" y2="916"/><line style="stroke:#666666;stroke-width:0.5;" x1="953.92" x2="1092.0714" y1="926" y2="926"/><line style="stroke:#666666;stroke-width:0.5;" x1="1092.0714" x2="1092.0714" y1="926" y2="974"/><text fill="#000000" font-family="Helvetica" font-size="14" font-style="italic" lengthAdjust="spacing" textLength="53.7168" x="996.1373" y="946.7803">&#171;box3d&#187;</text><text fill="#000000" font-family="Helvetica" font-size="14" lengthAdjust="spacing" textLength="108.1514" x="968.92" y="960.7803">Apple Silicon HW</text></g><!--entity Nginx--><g class="entity" data-entity="Nginx" data-source-line="63" data-uid="ent0016" id="entity_Nginx"><polygon fill="#FFF176" points="509.53,279,519.53,269,644.4607,269,644.4607,303,634.4607,313,509.53,313,509.53,279" style="stroke:#666666;stroke-width:0.5;"/><line style="stroke:#666666;stroke-width:0.5;" x1="634.4607" x2="644.4607" y1="279" y2="269"/><line style="stroke:#666666;stroke-width:0.5;" x1="509.53" x2="634.4607" y1="279" y2="279"/><line style="stroke:#666666;stroke-width:0.5;" x1="634.4607" x2="634.4607" y1="279" y2="313"/><text fill="#000000" font-family="Helvetica" font-size="14" lengthAdjust="spacing" textLength="94.9307" x="524.53" y="299.7803">Nginx Gateway</text></g><!--entity GermanAPI--><g class="entity" data-entity="GermanAPI" data-source-line="64" data-uid="ent0017" id="entity_GermanAPI"><polygon fill="#E0F2F1" points="350.6,470,360.6,460,531.4066,460,531.4066,494,521.4066,504,350.6,504,350.6,470" style="stroke:#666666;stroke-width:0.5;"/><line style="stroke:#666666;stroke-width:0.5;" x1="521.4066" x2="531.4066" y1="470" y2="460"/><line style="stroke:#666666;stroke-width:0.5;" x1="350.6" x2="521.4066" y1="470" y2="470"/><line style="stroke:#666666;stroke-width:0.5;" x1="521.4066" x2="521.4066" y1="470" y2="504"/><text fill="#000000" font-family="Helvetica" font-size="14" lengthAdjust="spacing" textLength="140.8066" x="365.6" y="490.7803">German-API (FastAPI)</text></g><!--entity HybridEngine--><g class="entity" data-entity="HybridEngine" data-source-line="65" data-uid="ent0018" id="entity_HybridEngine"><polygon fill="#E8F5E9" points="351.02,663,361.02,653,534.978,653,534.978,687,524.978,697,351.02,697,351.02,663" style="stroke:#666666;stroke-width:0.5;"/><line style="stroke:#666666;stroke-width:0.5;" x1="524.978" x2="534.978" y1="663" y2="653"/><line style="stroke:#666666;stroke-width:0.5;" x1="351.02" x2="524.978" y1="663" y2="663"/><line style="stroke:#666666;stroke-width:0.5;" x1="524.978" x2="524.978" y1="663" y2="697"/><text fill="#000000" font-family="Helvetica" font-size="14" lengthAdjust="spacing" textLength="143.958" x="366.02" y="683.7803">Hybrid Analysis Engine</text></g><!--entity Assets--><g class="entity" data-entity="Assets" data-source-line="66" data-uid="ent0019" id="entity_Assets"><path d="M612.54,470.5 C612.54,460.5 656.0019,460.5 656.0019,460.5 C656.0019,460.5 699.4638,460.5 699.4638,470.5 L699.4638,493.5 C699.4638,503.5 656.0019,503.5 656.0019,503.5 C656.0019,503.5 612.54,503.5 612.54,493.5 L612.54,470.5" fill="#FFFFFF" style="stroke:#181818;stroke-width:0.5;"/><path d="M612.54,470.5 C612.54,480.5 656.0019,480.5 656.0019,480.5 C656.0019,480.5 699.4638,480.5 699.4638,470.5" fill="none" style="stroke:#181818;stroke-width:0.5;"/><text fill="#000000" font-family="Helvetica" font-size="14" lengthAdjust="spacing" textLength="66.9238" x="622.54" y="495.2803">Data Store</text></g><!--entity Ollama--><g class="entity" data-entity="Ollama" data-source-line="73" data-uid="ent0022" id="entity_Ollama"><polygon fill="#FFF3E0" points="808.28,463,818.28,453,957.7136,453,957.7136,501,947.7136,511,808.28,511,808.28,463" style="stroke:#666666;stroke-width:0.5;"/><line style="stroke:#666666;stroke-width:0.5;" x1="947.7136" x2="957.7136" y1="463" y2="453"/><line style="stroke:#666666;stroke-width:0.5;" x1="808.28" x2="947.7136" y1="463" y2="463"/><line style="stroke:#666666;stroke-width:0.5;" x1="947.7136" x2="947.7136" y1="463" y2="511"/><text fill="#000000" font-family="Helvetica" font-size="14" font-style="italic" lengthAdjust="spacing" textLength="107.4336" x="824.28" y="483.7803">&#171;doubleoctagon&#187;</text><text fill="#000000" font-family="Helvetica" font-size="14" lengthAdjust="spacing" textLength="70.7998" x="842.5969" y="497.7803">Ollama API</text></g><!--entity Whisper--><g class="entity" data-entity="Whisper" data-source-line="74" data-uid="ent0023" id="entity_Whisper"><polygon fill="#F3E5F5" points="992.65,470,1002.65,460,1107.3531,460,1107.3531,494,1097.3531,504,992.65,504,992.65,470" style="stroke:#666666;stroke-width:0.5;"/><line style="stroke:#666666;stroke-width:0.5;" x1="1097.3531" x2="1107.3531" y1="470" y2="460"/><line style="stroke:#666666;stroke-width:0.5;" x1="992.65" x2="1097.3531" y1="470" y2="470"/><line style="stroke:#666666;stroke-width:0.5;" x1="1097.3531" x2="1097.3531" y1="470" y2="504"/><text fill="#000000" font-family="Helvetica" font-size="14" lengthAdjust="spacing" textLength="74.7031" x="1007.65" y="490.7803">whisper.cpp</text></g><!--entity ConvMgr--><g class="entity" data-entity="ConvMgr" data-source-line="79" data-uid="ent0025" id="entity_ConvMgr"><polygon fill="#FFF9C4" points="798.54,663,808.54,653,933.4502,653,933.4502,687,923.4502,697,798.54,697,798.54,663" style="stroke:#666666;stroke-width:0.5;"/><line style="stroke:#666666;stroke-width:0.5;" x1="923.4502" x2="933.4502" y1="663" y2="653"/><line style="stroke:#666666;stroke-width:0.5;" x1="798.54" x2="923.4502" y1="663" y2="663"/><line style="stroke:#666666;stroke-width:0.5;" x1="923.4502" x2="923.4502" y1="663" y2="697"/><text fill="#000000" font-family="Helvetica" font-size="14" lengthAdjust="spacing" textLength="94.9102" x="813.54" y="683.7803">Swift Conv Mgr</text></g><!--entity NativeAudio--><g class="entity" data-entity="NativeAudio" data-source-line="80" data-uid="ent0026" id="entity_NativeAudio"><polygon fill="#E1F5FE" points="765.46,790,775.46,780,966.5352,780,966.5352,828,956.5352,838,765.46,838,765.46,790" style="stroke:#666666;stroke-width:0.5;"/><line style="stroke:#666666;stroke-width:0.5;" x1="956.5352" x2="966.5352" y1="790" y2="780"/><line style="stroke:#666666;stroke-width:0.5;" x1="765.46" x2="956.5352" y1="790" y2="790"/><line style="stroke:#666666;stroke-width:0.5;" x1="956.5352" x2="956.5352" y1="790" y2="838"/><text fill="#000000" font-family="Helvetica" font-size="14" font-style="italic" lengthAdjust="spacing" textLength="100.3926" x="810.8013" y="810.7803">&#171;parallelogram&#187;</text><text fill="#000000" font-family="Helvetica" font-size="14" lengthAdjust="spacing" textLength="161.0752" x="780.46" y="824.7803">Apple Speech Framework</text></g><!--reverse link ClientSpeech to ClientHW--><g class="link" data-entity-1="ClientSpeech" data-entity-2="ClientHW" data-source-line="51" data-uid="lnk8" id="link_ClientSpeech_ClientHW"><path d="M147,710.32 C147,732.59 147,757.47 147,779.73" fill="none" id="ClientSpeech-backto-ClientHW" style="stroke:#B0C4DE;stroke-width:2;"/><polygon fill="#B0C4DE" points="147,704.32,143,713.32,147,709.32,151,713.32,147,704.32" style="stroke:#B0C4DE;stroke-width:2;"/><text fill="#7D7D75" font-family="Helvetica" font-size="14" lengthAdjust="spacing" textLength="58.3652" x="148" y="745.7803">Audio I/O</text></g><!--reverse link ClientAgent to ClientSpeech--><g class="link" data-entity-1="ClientAgent" data-entity-2="ClientSpeech" data-source-line="52" data-uid="lnk10" id="link_ClientAgent_ClientSpeech"><path d="M157.2931,510.1582 C155.1231,544.6382 151.21,606.96 148.78,645.61" fill="none" id="ClientAgent-backto-ClientSpeech" style="stroke:#B0C4DE;stroke-width:2;"/><polygon fill="#B0C4DE" points="157.67,504.17,153.1126,512.901,157.3559,509.1601,161.0968,513.4035,157.67,504.17" style="stroke:#B0C4DE;stroke-width:2;"/><text fill="#7D7D75" font-family="Helvetica" font-size="14" lengthAdjust="spacing" textLength="45.1309" x="156.12" y="554.7803">Control</text></g><!--reverse link RemoteClient to ClientAgent--><g class="link" data-entity-1="RemoteClient" data-entity-2="ClientAgent" data-source-line="53" data-uid="lnk12" id="link_RemoteClient_ClientAgent"><path d="M173.5432,319.2859 C170.2732,355.6859 164.18,423.42 160.91,459.76" fill="none" id="RemoteClient-backto-ClientAgent" style="stroke:#B0C4DE;stroke-width:2;"/><polygon fill="#B0C4DE" points="174.08,313.31,169.2908,321.916,173.6326,318.2899,177.2587,322.6318,174.08,313.31" style="stroke:#B0C4DE;stroke-width:2;"/><text fill="#7D7D75" font-family="Helvetica" font-size="14" lengthAdjust="spacing" textLength="60.6963" x="171.98" y="354.7803">JS Bridge</text></g><!--link Nginx to GermanAPI--><g class="link" data-entity-1="Nginx" data-entity-2="GermanAPI" data-source-line="68" data-uid="lnk20" id="link_Nginx_GermanAPI"><path d="M509.26,303.68 C486.49,311.09 463.27,323.21 449,343 C424.15,377.45 428.6594,424.3473 434.5394,453.6473" fill="none" id="Nginx-to-GermanAPI" style="stroke:#3E7CAF;stroke-width:2;"/><polygon fill="#3E7CAF" points="435.72,459.53,437.871,449.9189,434.7362,454.6277,430.0274,451.493,435.72,459.53" style="stroke:#3E7CAF;stroke-width:2;"/><text fill="#7D7D75" font-family="Helvetica" font-size="14" lengthAdjust="spacing" textLength="73.9102" x="450" y="354.7803">Proxy (App)</text></g><!--link RemoteClient to Nginx--><g class="link" data-entity-1="RemoteClient" data-entity-2="Nginx" data-source-line="90" data-uid="lnk29" id="link_RemoteClient_Nginx"><path d="M269.51,291 C342.87,291 437.26,291 503.09,291" fill="none" id="RemoteClient-to-Nginx" style="stroke:#3E7CAF;stroke-width:2;"/><polygon fill="#3E7CAF" points="509.09,291,500.09,287,504.09,291,500.09,295,509.09,291" style="stroke:#3E7CAF;stroke-width:2;"/><text fill="#7D7D75" font-family="Helvetica" font-size="14" lengthAdjust="spacing" textLength="120.5859" x="329.33" y="283.7803">mTLS / API Access</text></g><!--link LocalBrowser to Nginx--><g class="link" data-entity-1="LocalBrowser" data-entity-2="Nginx" data-source-line="91" data-uid="lnk30" id="link_LocalBrowser_Nginx"><path d="M577,129.23 C577,164.21 577,227.55 577,262.62" fill="none" id="LocalBrowser-to-Nginx" style="stroke:#3E7CAF;stroke-width:2;"/><polygon fill="#3E7CAF" points="577,268.62,581,259.62,577,263.62,573,259.62,577,268.62" style="stroke:#3E7CAF;stroke-width:2;"/><text fill="#7D7D75" font-family="Helvetica" font-size="14" lengthAdjust="spacing" textLength="199.958" x="578" y="170.7803">mTLS / Local Access (localhost)</text></g><!--link Nginx to Whisper--><g class="link" data-entity-1="Nginx" data-entity-2="Whisper" data-source-line="94" data-uid="lnk31" id="link_Nginx_Whisper"><path d="M644.74,293.45 C782.08,297.09 1082.99,308.9 1114,343 C1145.45,377.58 1107.067,426.0717 1077.757,455.3217" fill="none" id="Nginx-to-Whisper" style="stroke:#3E7CAF;stroke-width:2;"/><polygon fill="#3E7CAF" points="1073.51,459.56,1082.706,456.0339,1077.0492,456.0281,1077.055,450.3712,1073.51,459.56" style="stroke:#3E7CAF;stroke-width:2;"/><text fill="#7D7D75" font-family="Helvetica" font-size="14" lengthAdjust="spacing" textLength="129.917" x="1123.08" y="354.7803">Proxy (Transcription)</text></g><!--link Nginx to Ollama--><g class="link" data-entity-1="Nginx" data-entity-2="Ollama" data-source-line="95" data-uid="lnk32" id="link_Nginx_Ollama"><path d="M644.83,295.45 C757.04,301.86 971.28,317.33 994,343 C998.71,348.32 997.93,353.08 994,359 C988.93,366.63 982.32,361.49 975,367 C943.5,390.7 919.6898,422.4692 903.2198,447.8092" fill="none" id="Nginx-to-Ollama" style="stroke:#3E7CAF;stroke-width:2;"/><polygon fill="#3E7CAF" points="899.95,452.84,908.2085,447.4737,902.6748,448.6477,901.5009,443.114,899.95,452.84" style="stroke:#3E7CAF;stroke-width:2;"/><text fill="#7D7D75" font-family="Helvetica" font-size="14" lengthAdjust="spacing" textLength="107.3721" x="998.25" y="354.7803">Proxy (Inference)</text></g><!--link GermanAPI to HybridEngine--><g class="link" data-entity-1="GermanAPI" data-entity-2="HybridEngine" data-source-line="98" data-uid="lnk33" id="link_GermanAPI_HybridEngine"><path d="M441.22,504.17 C441.61,540.88 442.3264,609.9503 442.7164,646.7303" fill="none" id="GermanAPI-to-HybridEngine" style="stroke:#B0C4DE;stroke-width:2;"/><polygon fill="#B0C4DE" points="442.78,652.73,446.6843,643.6881,442.727,647.7303,438.6848,643.7729,442.78,652.73" style="stroke:#B0C4DE;stroke-width:2;"/><text fill="#7D7D75" font-family="Helvetica" font-size="14" lengthAdjust="spacing" textLength="49.8066" x="442.76" y="554.7803">Analyze</text></g><!--link GermanAPI to Assets--><g class="link" data-entity-1="GermanAPI" data-entity-2="Assets" data-source-line="99" data-uid="lnk34" id="link_GermanAPI_Assets"><path d="M531.87,482 C559.72,482 583.09,482 606.27,482" fill="none" id="GermanAPI-to-Assets" style="stroke:#B0C4DE;stroke-width:2;"/><polygon fill="#B0C4DE" points="612.27,482,603.27,478,607.27,482,603.27,486,612.27,482" style="stroke:#B0C4DE;stroke-width:2;"/><text fill="#7D7D75" font-family="Helvetica" font-size="14" lengthAdjust="spacing" textLength="45.124" x="549.47" y="474.7803">Stream</text></g><!--link NativeAudio to HostAudioIO--><g class="link" data-entity-1="NativeAudio" data-entity-2="HostAudioIO" data-source-line="100" data-uid="lnk35" id="link_NativeAudio_HostAudioIO"><path d="M859.64,838.42 C854.55,861.16 848.7511,887.035 843.6611,909.765" fill="none" id="NativeAudio-to-HostAudioIO" style="stroke:#B0C4DE;stroke-width:2;"/><polygon fill="#B0C4DE" points="842.35,915.62,848.22,907.7116,843.4426,910.7408,840.4134,905.9634,842.35,915.62" style="stroke:#B0C4DE;stroke-width:2;"/><text fill="#7D7D75" font-family="Helvetica" font-size="14" lengthAdjust="spacing" textLength="58.3652" x="852.9" y="881.7803">Audio I/O</text></g><!--link ConvMgr to NativeAudio--><g class="link" data-entity-1="ConvMgr" data-entity-2="NativeAudio" data-source-line="101" data-uid="lnk36" id="link_ConvMgr_NativeAudio"><path d="M845.38,697.49 C834.15,711.82 823.57,731.39 829,750 C832.04,760.43 834.3105,765.7621 840.2105,774.7621" fill="none" id="ConvMgr-to-NativeAudio" style="stroke:#B0C4DE;stroke-width:2;"/><polygon fill="#B0C4DE" points="843.5,779.78,841.911,770.0602,840.7587,775.5984,835.2205,774.4462,843.5,779.78" style="stroke:#B0C4DE;stroke-width:2;"/><text fill="#7D7D75" font-family="Helvetica" font-size="14" lengthAdjust="spacing" textLength="45.1309" x="830" y="745.7803">Control</text></g><!--reverse link Ollama to ConvMgr--><g class="link" data-entity-1="Ollama" data-entity-2="ConvMgr" data-source-line="102" data-uid="lnk38" id="link_Ollama_ConvMgr"><path d="M832.0699,515.2859 C821.7299,524.0359 816.73,530.77 811,543 C793.11,581.2 823.66,626.82 845.92,652.9" fill="none" id="Ollama-backto-ConvMgr" style="stroke:#B0C4DE;stroke-width:2;"/><polygon fill="#B0C4DE" points="836.65,511.41,827.1959,514.1703,832.8332,514.6399,832.3637,520.2772,836.65,511.41" style="stroke:#B0C4DE;stroke-width:2;"/><text fill="#7D7D75" font-family="Helvetica" font-size="14" lengthAdjust="spacing" textLength="71.5859" x="812" y="554.7803">Chat Query</text></g><!--link GermanAPI to Ollama--><g class="link" data-entity-1="GermanAPI" data-entity-2="Ollama" data-source-line="103" data-uid="lnk39" id="link_GermanAPI_Ollama"><path d="M463.59,459.52 C491.62,433.38 542.21,391.69 595,375.17 C645.9,359.24 663.79,360.26 715,375.17 C766.77,390.23 813.1824,422.8152 845.1724,448.9352" fill="none" id="GermanAPI-to-Ollama" style="stroke:#B0C4DE;stroke-width:2;"/><polygon fill="#B0C4DE" points="849.82,452.73,845.3785,443.9395,845.947,449.5677,840.3188,450.1362,849.82,452.73" style="stroke:#B0C4DE;stroke-width:2;"/><text fill="#7D7D75" font-family="Helvetica" font-size="14" lengthAdjust="spacing" textLength="83.2686" x="532.5" y="354.7803">LLM Request</text></g><!--link GermanAPI to Whisper--><g class="link" data-entity-1="GermanAPI" data-entity-2="Whisper" data-source-line="104" data-uid="lnk40" id="link_GermanAPI_Whisper"><path d="M463.59,459.52 C491.62,433.38 542.21,391.69 595,375.17 C675.59,349.95 900.07,336.22 975,375.17 C1009.18,392.93 1028.7123,428.6899 1039.5423,454.4199" fill="none" id="GermanAPI-to-Whisper" style="stroke:#B0C4DE;stroke-width:2;"/><polygon fill="#B0C4DE" points="1041.87,459.95,1042.0652,450.1031,1039.9303,455.3416,1034.6918,453.2066,1041.87,459.95" style="stroke:#B0C4DE;stroke-width:2;"/><text fill="#7D7D75" font-family="Helvetica" font-size="14" lengthAdjust="spacing" textLength="136.9512" x="856" y="354.7803">Transcription Request</text></g><!--link GermanAPI to ConvMgr--><g class="link" data-entity-1="GermanAPI" data-entity-2="ConvMgr" data-source-line="105" data-uid="lnk41" id="link_GermanAPI_ConvMgr"><path d="M507.0911,506.3692 C535.3711,516.1392 563.93,525.62 595,535 C647.84,550.95 665.03,543.56 715,567 C763.72,589.85 808.7466,624.738 837.2266,648.798" fill="none" id="GermanAPI-ConvMgr" style="stroke:#B0C4DE;stroke-width:2;"/><polygon fill="#B0C4DE" points="501.42,504.41,508.6205,511.1296,506.1459,506.0427,511.2328,503.5681,501.42,504.41" style="stroke:#B0C4DE;stroke-width:2;"/><polygon fill="#B0C4DE" points="841.81,652.67,837.5163,643.8064,837.9905,649.4433,832.3536,649.9175,841.81,652.67" style="stroke:#B0C4DE;stroke-width:2;"/><text fill="#7D7D75" font-family="Helvetica" font-size="14" lengthAdjust="spacing" textLength="71.5859" x="696.75" y="554.7803">WebSocket</text></g><!--link NativeAudio to HW--><g class="link" data-entity-1="NativeAudio" data-entity-2="HW" data-source-line="108" data-uid="lnk42" id="link_NativeAudio_HW"><path d="M900.36,838.42 C927.85,861.16 961.5866,889.0658 989.0666,911.7958" fill="none" id="NativeAudio-to-HW" style="stroke:#B0C4DE;stroke-width:2;"/><polygon fill="#B0C4DE" points="993.69,915.62,989.3044,906.8015,989.8372,912.4332,984.2055,912.9659,993.69,915.62" style="stroke:#B0C4DE;stroke-width:2;"/></g><!--link Whisper to HW--><g class="link" data-entity-1="Whisper" data-entity-2="HW" data-source-line="109" data-uid="lnk43" id="link_Whisper_HW"><path d="M1048.98,504.31 C1045.41,579.21 1033.706,824.4768 1029.646,909.5568" fill="none" id="Whisper-to-HW" style="stroke:#B0C4DE;stroke-width:2;"/><polygon fill="#B0C4DE" points="1029.36,915.55,1033.7844,906.7509,1029.5983,910.5557,1025.7935,906.3696,1029.36,915.55" style="stroke:#B0C4DE;stroke-width:2;"/></g><!--link Ollama to HW--><g class="link" data-entity-1="Ollama" data-entity-2="HW" data-source-line="110" data-uid="lnk44" id="link_Ollama_HW"><path d="M930.61,511.44 C950.09,525.62 970.87,544.56 983,567 C991.3,582.37 1016.124,824.8597 1024.604,909.8097" fill="none" id="Ollama-to-HW" style="stroke:#B0C4DE;stroke-width:2;"/><polygon fill="#B0C4DE" points="1025.2,915.78,1028.2863,906.4272,1024.7034,910.8047,1020.3258,907.2218,1025.2,915.78" style="stroke:#B0C4DE;stroke-width:2;"/></g><!--SRC=[XLPHSzf647xNhzYOpWGUS8o9xOPnFGDOCgI0N4JYTZgTp26TGKNSgQSJ17VoG_AO7v2_q9TC_bVtxeIGW2JIY-vslxtTlMztzImMPBOaaAncGof9G2I1Hn8brBAU_HJwFE82Ve6JoY2SpQKdAOqwKKfFBEivl7sQHpImaaN8OYB84gR4Nym4JrbWS58Gbg28CbdGIkOauEkGpR9pTX8DxNB1g836MK5mInz96ac7CpaYImez6gse37rY5PI847mD_rg0JrUVNsdIAvyywft9FFGNZ2O9dEkrifLfNGNuNkIxNlX4eV5IhmSXet8JK-12phdrGOMDpeGiz2c6A-ZAUXQeDOL1VsI_wxe3TmoLb_h9HTt16szYZz_rN6y25UTSlGV2-x7x-bq7AdR3kN3i0_7ehZ_w7S6EywfxQ7bi3zs9ZU2VxRPpMSoAeBuaR1RHB3ET_8vqzDVNSvx8cvkIZqQHYu2Aij8knkEsOi7_nlCw1Nich4EB1TLAuzNLvUtvSPE2Bhca1OCcr4E3kMAbwLmqEXV7pR5PoDuNhEcqgdlTPOpnu1l9qkd7P_zmg5pgn_2ZNg_3RRzzDsuFrRVQogwdE-ZRemaCszqU9XBgy2Q9-TUFNpu5NpwnBv_XAU0H0KRcNAHGhGIDO4hFQjRk2a_6EaZeHY7M50o9FqSMd40nUeFA0j2nd3pGANImE1AigwenKJi1ae3vpgmLWpCuRnq-IcYdGSYXFKCT3JBgUftpSOTfnp4wwiMK-dDmC9zqpSK2gWFkawXMC92f81Cmwr548pv3RHL1LW4xcneBmz275yeoML2H52pr7j3AbBzl1WgDM7mj3NyE4xuefTLqXosidiP_Patkh_fDsR5M5dZ_XLi0PSAZG9EI5ZOV9WMF2YWZsGELaj-2rnxUKHZCg67HalYk1wFsfF_M1jqugfuzVckFItp8j8WCLzWLiKWL5x9YhT10lSY4Rr71v5N1pCNezLQwlOOiaOrJkBF7m_QethxlG_MM-tWB6EeovWcj8PUhbUcZtoJJcWOKVBoZOacOXdaI2seBhYbVVSmLGGuBvR0_3GB_AgFkpkUHgbcu8vAkoKOxQdOK-HfNbtlQXUEg3aaaVfZeZ43jL-mpRC6DFM1lCyNyGvkHQ9E42TYgLr0DDIApePgiSs6_oj5gP4v9WXPkrV3q91S6rKuIAfEyhdA0yRwEGv0X3NPkjU1UyFSRg68DcIn-s6R__1JSuQW_Sczj5FSpty2ZOeM9tC-uksIXZgbg-A7KS63fX1VwxdwUtIWY-2U0hcZti-NrTS3JQKGvcfznfalCSPhssHvwFG-Jc8fJFuur_C6iKRjfgu8inTCy1JKOxEu4EaXi7GQIIT23MEwDl_jgFmZ5T2uin1KCPyBq2bpWTwbb_QXj6RBfwZBDuFlTwaEnqbHP7UjPQbyRwxj7sjQ1Hs647OD1xy60IwtErizkwapSN_z0qW_S1w-s7JttE5y-9pADOM68XvDbEHbuiDgmrAUCrwnI8weBzQE7l3GiRO5MVg5O0MtVnnyegzGcjZJUKpUjnG2W6gcLQairvP8NfL__csuW_lgHPhLiPJMnFNnBdhma9kfNqXTXB4FEQllg6LLpxJvxfFZNYPHNv_MPf4BDLyaN6qWqYr9hLtSwX69dBfLxotI49rf4w8EBaApMMrZ-WfAbLIJDeVq21OfZPalH0q3Hscw-vEhbkP8depid4dvBgTXyr_LSVp0Oub3w9wM9_2vWTpcbMpc2lQxdk9ky05k0GyXJ8q2gs-aH4QpnJnh8mgSH5SIdFyZUWxNru9Wi2-UOw7y0]--></g></svg>