<?xml version="1.0" encoding="UTF-8" standalone="no"?>
<!DOCTYPE svg PUBLIC "-//W3C//DTD SVG 1.1//EN"
 "http://www.w3.org/Graphics/SVG/1.1/DTD/svg11.dtd">
<!-- Generated by graphviz version 13.0.0 (20250608.1624)
 -->
<!-- Title: G Pages: 1 -->
<svg width="1025pt" height="560pt"
 viewBox="0.00 0.00 1025.00 560.00" xmlns="http://www.w3.org/2000/svg" xmlns:xlink="http://www.w3.org/1999/xlink">
<g id="graph0" class="graph" transform="scale(1 1) rotate(0) translate(4 555.5)">
<title>G</title>
<text xml:space="preserve" text-anchor="start" x="199.22" y="-527.6" font-family="Helvetica,sans-Serif" font-weight="bold" font-size="22.00" fill="#f33333">OmniLingua: Final Decoupled Hardware Architecture (2026)</text>
<g id="clust1" class="cluster">
<title>cluster_frontend</title>
<path fill="#f1f8e9" stroke="#388e3c" stroke-width="2" d="M15.38,-294C15.38,-294 212.88,-294 212.88,-294 218.88,-294 224.88,-300 224.88,-306 224.88,-306 224.88,-501 224.88,-501 224.88,-507 218.88,-513 212.88,-513 212.88,-513 15.37,-513 15.37,-513 9.38,-513 3.38,-507 3.38,-501 3.38,-501 3.38,-306 3.38,-306 3.38,-300 9.38,-294 15.38,-294"/>
<text xml:space="preserve" text-anchor="middle" x="114.12" y="-495.7" font-family="Helvetica,sans-Serif" font-size="14.00">Unified Web Dashboard (Plain JS)</text>
</g>
<g id="clust2" class="cluster">
<title>cluster_host</title>
<path fill="#ffebee" stroke="#c62828" stroke-width="2" d="M345.75,-8C345.75,-8 997.2,-8 997.2,-8 1003.2,-8 1009.2,-14 1009.2,-20 1009.2,-20 1009.2,-421 1009.2,-421 1009.2,-427 1003.2,-433 997.2,-433 997.2,-433 345.75,-433 345.75,-433 339.75,-433 333.75,-427 333.75,-421 333.75,-421 333.75,-20 333.75,-20 333.75,-14 339.75,-8 345.75,-8"/>
<text xml:space="preserve" text-anchor="middle" x="671.47" y="-415.7" font-family="Helvetica,sans-Serif" font-size="14.00">macOS Native Host (Bare Metal Performance)</text>
</g>
<g id="clust3" class="cluster">
<title>cluster_projectB</title>
<path fill="#e3f2fd" stroke="#1976d2" stroke-width="2" d="M353.75,-179C353.75,-179 846.2,-179 846.2,-179 852.2,-179 858.2,-185 858.2,-191 858.2,-191 858.2,-268 858.2,-268 858.2,-274 852.2,-280 846.2,-280 846.2,-280 353.75,-280 353.75,-280 347.75,-280 341.75,-274 341.75,-268 341.75,-268 341.75,-191 341.75,-191 341.75,-185 347.75,-179 353.75,-179"/>
<text xml:space="preserve" text-anchor="middle" x="599.97" y="-262.7" font-family="Helvetica,sans-Serif" font-size="14.00">Project B: LangQuiz Core (Swift)</text>
</g>
<g id="clust4" class="cluster">
<title>cluster_ai_engines</title>
<polygon fill="none" stroke="#7f8c8d" stroke-width="2" stroke-dasharray="5,2" points="663.02,-16 663.02,-171 770.92,-171 770.92,-16 663.02,-16"/>
<text xml:space="preserve" text-anchor="middle" x="716.97" y="-153.7" font-family="Helvetica,sans-Serif" font-size="14.00">AI Acceleration</text>
</g>
<g id="clust5" class="cluster">
<title>cluster_container</title>
<path fill="#eceff1" stroke="#455a64" stroke-width="2" d="M12,-109C12,-109 216.25,-109 216.25,-109 222.25,-109 228.25,-115 228.25,-121 228.25,-121 228.25,-244 228.25,-244 228.25,-250 222.25,-256 216.25,-256 216.25,-256 12,-256 12,-256 6,-256 0,-250 0,-244 0,-244 0,-121 0,-121 0,-115 6,-109 12,-109"/>
<text xml:space="preserve" text-anchor="middle" x="114.12" y="-238.7" font-family="Helvetica,sans-Serif" font-size="14.00">Apple Container (Project A Factory)</text>
</g>
<!-- AudioHardware -->
<g id="node1" class="node">
<title>AudioHardware</title>
<polygon fill="#ffffff" stroke="#1b5e20" stroke-width="2.5" points="468.5,-477 353.75,-477 349.75,-473 349.75,-441 464.5,-441 468.5,-445 468.5,-477"/>
<polyline fill="none" stroke="#1b5e20" stroke-width="2.5" points="464.5,-473 349.75,-473"/>
<polyline fill="none" stroke="#1b5e20" stroke-width="2.5" points="464.5,-473 464.5,-441"/>
<polyline fill="none" stroke="#1b5e20" stroke-width="2.5" points="464.5,-473 468.5,-477"/>
<text xml:space="preserve" text-anchor="middle" x="409.12" y="-460.75" font-family="Helvetica,sans-Serif" font-size="10.00" fill="#000000">System Mic / Speakers</text>
<text xml:space="preserve" text-anchor="middle" x="409.12" y="-449.5" font-family="Helvetica,sans-Serif" font-size="10.00" fill="#000000">(Physical Hardware)</text>
</g>
<!-- NativeAudio -->
<g id="node9" class="node">
<title>NativeAudio</title>
<path fill="#fff9c4" stroke="#888888" stroke-width="1.5" d="M838.2,-248.5C838.2,-248.5 650.27,-248.5 650.27,-248.5 644.27,-248.5 634.27,-244.03 630.27,-239.55 630.27,-239.55 591.75,-196.45 591.75,-196.45 587.75,-191.97 589.75,-187.5 595.75,-187.5 595.75,-187.5 783.68,-187.5 783.68,-187.5 789.68,-187.5 799.68,-191.97 803.67,-196.45 803.67,-196.45 842.2,-239.55 842.2,-239.55 846.2,-244.03 844.2,-248.5 838.2,-248.5"/>
<text xml:space="preserve" text-anchor="middle" x="716.97" y="-219.75" font-family="Helvetica,sans-Serif" font-size="10.00" fill="#000000">Apple Speech Framework</text>
<text xml:space="preserve" text-anchor="middle" x="716.97" y="-208.5" font-family="Helvetica,sans-Serif" font-size="10.00" fill="#000000">(TTS and Dictation)</text>
</g>
<!-- AudioHardware&#45;&gt;NativeAudio -->
<g id="edge10" class="edge">
<title>AudioHardware&#45;&gt;NativeAudio</title>
<path fill="none" stroke="#2e7d32" stroke-width="1.5" d="M469.64,-442.38C471.91,-440.75 474.04,-438.96 476,-437 498.04,-414.87 479.35,-395.31 498,-370.25 534.88,-320.69 592.77,-281.34 639.62,-255.07"/>
<polygon fill="#2e7d32" stroke="#2e7d32" stroke-width="1.5" points="641.29,-258.15 648.36,-250.26 637.91,-252.01 641.29,-258.15"/>
<text xml:space="preserve" text-anchor="middle" x="529.88" y="-371.45" font-family="Helvetica,sans-Serif" font-size="9.00" fill="#000000"> 1. Voice Input</text>
</g>
<!-- DashboardUI -->
<g id="node2" class="node">
<title>DashboardUI</title>
<polygon fill="#ffffff" stroke="#888888" stroke-width="1.5" points="165.12,-410 62.12,-410 62.12,-406 58.12,-406 58.12,-402 62.12,-402 62.12,-382 58.12,-382 58.12,-378 62.12,-378 62.12,-374 165.12,-374 165.12,-410"/>
<polyline fill="none" stroke="#888888" stroke-width="1.5" points="62.12,-406 66.12,-406 66.12,-402 62.12,-402"/>
<polyline fill="none" stroke="#888888" stroke-width="1.5" points="62.12,-382 66.12,-382 66.12,-378 62.12,-378"/>
<text xml:space="preserve" text-anchor="middle" x="113.62" y="-388.12" font-family="Helvetica,sans-Serif" font-size="10.00" fill="#000000">Dynamic index.html</text>
</g>
<!-- DashboardService -->
<g id="node5" class="node">
<title>DashboardService</title>
<path fill="#ffffff" stroke="#1976d2" stroke-width="1.5" d="M464,-402C464,-402 354.25,-402 354.25,-402 348.25,-402 342.25,-396 342.25,-390 342.25,-390 342.25,-378 342.25,-378 342.25,-372 348.25,-366 354.25,-366 354.25,-366 464,-366 464,-366 470,-366 476,-372 476,-378 476,-378 476,-390 476,-390 476,-396 470,-402 464,-402"/>
<text xml:space="preserve" text-anchor="middle" x="409.12" y="-385.75" font-family="Helvetica,sans-Serif" font-size="10.00" fill="#000000">Python Dashboard Service</text>
<text xml:space="preserve" text-anchor="middle" x="409.12" y="-374.5" font-family="Helvetica,sans-Serif" font-size="10.00" fill="#000000">(Indexer and API Gateway)</text>
</g>
<!-- DashboardUI&#45;&gt;DashboardService -->
<g id="edge13" class="edge">
<title>DashboardUI&#45;&gt;DashboardService</title>
<path fill="none" stroke="#999999" stroke-width="1.2" d="M165.75,-390.61C211.1,-389.37 278.03,-387.55 330.07,-386.13"/>
<polygon fill="#999999" stroke="#999999" stroke-width="1.2" points="329.89,-389.63 339.79,-385.86 329.7,-382.64 329.89,-389.63"/>
<text xml:space="preserve" text-anchor="middle" x="281.25" y="-389.68" font-family="Helvetica,sans-Serif" font-size="9.00" fill="#000000"> Fetch Index</text>
</g>
<!-- JSPlayer -->
<g id="node3" class="node">
<title>JSPlayer</title>
<path fill="#ffffff" stroke="#888888" stroke-width="1.5" d="M144.12,-338C144.12,-338 83.12,-338 83.12,-338 77.12,-338 71.12,-332 71.12,-326 71.12,-326 71.12,-314 71.12,-314 71.12,-308 77.12,-302 83.12,-302 83.12,-302 144.12,-302 144.12,-302 150.12,-302 156.12,-308 156.12,-314 156.12,-314 156.12,-326 156.12,-326 156.12,-332 150.12,-338 144.12,-338"/>
<text xml:space="preserve" text-anchor="middle" x="113.62" y="-321.75" font-family="Helvetica,sans-Serif" font-size="10.00" fill="#000000">AV Player Logic</text>
<text xml:space="preserve" text-anchor="middle" x="113.62" y="-310.5" font-family="Helvetica,sans-Serif" font-size="10.00" fill="#000000">(Bilingual VTT)</text>
</g>
<!-- JSPlayer&#45;&gt;AudioHardware -->
<g id="edge12" class="edge">
<title>JSPlayer&#45;&gt;AudioHardware</title>
<path fill="none" stroke="#1976d2" stroke-width="1.2" stroke-dasharray="1,5" d="M156.49,-317.46C203.19,-317.06 277.75,-324.16 320.25,-368.25 341.86,-390.67 312.79,-413.97 333.75,-437 335.31,-438.72 337,-440.3 338.8,-441.77"/>
<polygon fill="#1976d2" stroke="#1976d2" stroke-width="1.2" points="336.71,-444.58 346.99,-447.13 340.54,-438.72 336.71,-444.58"/>
<text xml:space="preserve" text-anchor="middle" x="281.25" y="-369.45" font-family="Helvetica,sans-Serif" font-size="9.00" fill="#000000"> Media Audio Out</text>
</g>
<!-- LessonAssets -->
<g id="node7" class="node">
<title>LessonAssets</title>
<path fill="#e8f5e9" stroke="#2e7d32" stroke-width="1.5" d="M467.38,-326.16C467.38,-328.26 441.27,-329.97 409.12,-329.97 376.98,-329.97 350.88,-328.26 350.88,-326.16 350.88,-326.16 350.88,-291.84 350.88,-291.84 350.88,-289.74 376.98,-288.03 409.12,-288.03 441.27,-288.03 467.38,-289.74 467.38,-291.84 467.38,-291.84 467.38,-326.16 467.38,-326.16"/>
<path fill="none" stroke="#2e7d32" stroke-width="1.5" d="M467.38,-326.16C467.38,-324.05 441.27,-322.34 409.12,-322.34 376.98,-322.34 350.88,-324.05 350.88,-326.16"/>
<text xml:space="preserve" text-anchor="middle" x="409.12" y="-310.75" font-family="Helvetica,sans-Serif" font-size="10.00" fill="#000000">Lesson Assets Volume</text>
<text xml:space="preserve" text-anchor="middle" x="409.12" y="-299.5" font-family="Helvetica,sans-Serif" font-size="10.00" fill="#000000">(Shared Volume)</text>
</g>
<!-- JSPlayer&#45;&gt;LessonAssets -->
<g id="edge14" class="edge">
<title>JSPlayer&#45;&gt;LessonAssets</title>
<path fill="none" stroke="#999999" stroke-width="1.2" d="M156.87,-309.7C181.59,-304.2 213.49,-298.01 242.25,-295.25 276.76,-291.93 285.69,-292.56 320.25,-295.25 326.31,-295.72 332.59,-296.37 338.87,-297.14"/>
<polygon fill="#999999" stroke="#999999" stroke-width="1.2" points="337.96,-300.55 348.33,-298.39 338.88,-293.61 337.96,-300.55"/>
<text xml:space="preserve" text-anchor="middle" x="281.25" y="-296.45" font-family="Helvetica,sans-Serif" font-size="9.00" fill="#000000"> Stream Resources</text>
</g>
<!-- BiRefLogic -->
<g id="node4" class="node">
<title>BiRefLogic</title>
<path fill="#fff9c4" stroke="#888888" stroke-width="1.5" d="M161.75,-482C161.75,-482 65.5,-482 65.5,-482 59.5,-482 53.5,-476 53.5,-470 53.5,-470 53.5,-458 53.5,-458 53.5,-452 59.5,-446 65.5,-446 65.5,-446 161.75,-446 161.75,-446 167.75,-446 173.75,-452 173.75,-458 173.75,-458 173.75,-470 173.75,-470 173.75,-476 167.75,-482 161.75,-482"/>
<text xml:space="preserve" text-anchor="middle" x="113.62" y="-460.12" font-family="Helvetica,sans-Serif" font-size="10.00" fill="#000000">Selection and Ref Logic</text>
</g>
<!-- BiRefLogic&#45;&gt;DashboardService -->
<g id="edge15" class="edge">
<title>BiRefLogic&#45;&gt;DashboardService</title>
<path fill="none" stroke="#999999" stroke-width="1.2" d="M174.37,-447.71C219.39,-435.44 281.5,-418.51 330.38,-405.19"/>
<polygon fill="#999999" stroke="#999999" stroke-width="1.2" points="331.07,-408.63 339.8,-402.62 329.23,-401.88 331.07,-408.63"/>
<text xml:space="preserve" text-anchor="middle" x="281.25" y="-429.99" font-family="Helvetica,sans-Serif" font-size="9.00" fill="#000000"> Ask Ollama</text>
</g>
<!-- PipelineService -->
<g id="node6" class="node">
<title>PipelineService</title>
<path fill="#ffffff" stroke="#e64a19" stroke-width="1.5" d="M457.25,-136C457.25,-136 361,-136 361,-136 355,-136 349,-130 349,-124 349,-124 349,-112 349,-112 349,-106 355,-100 361,-100 361,-100 457.25,-100 457.25,-100 463.25,-100 469.25,-106 469.25,-112 469.25,-112 469.25,-124 469.25,-124 469.25,-130 463.25,-136 457.25,-136"/>
<text xml:space="preserve" text-anchor="middle" x="409.12" y="-119.75" font-family="Helvetica,sans-Serif" font-size="10.00" fill="#000000">Python Pipeline Service</text>
<text xml:space="preserve" text-anchor="middle" x="409.12" y="-108.5" font-family="Helvetica,sans-Serif" font-size="10.00" fill="#000000">(Media Worker)</text>
</g>
<!-- WhisperCPP -->
<g id="node10" class="node">
<title>WhisperCPP</title>
<path fill="#e1f5fe" stroke="#888888" stroke-width="1.5" d="M738.85,-60C738.85,-60 695.1,-60 695.1,-60 689.1,-60 683.1,-54 683.1,-48 683.1,-48 683.1,-36 683.1,-36 683.1,-30 689.1,-24 695.1,-24 695.1,-24 738.85,-24 738.85,-24 744.85,-24 750.85,-30 750.85,-36 750.85,-36 750.85,-48 750.85,-48 750.85,-54 744.85,-60 738.85,-60"/>
<text xml:space="preserve" text-anchor="middle" x="716.97" y="-38.12" font-family="Helvetica,sans-Serif" font-size="10.00" fill="#000000">whisper.cpp</text>
</g>
<!-- PipelineService&#45;&gt;WhisperCPP -->
<g id="edge2" class="edge">
<title>PipelineService&#45;&gt;WhisperCPP</title>
<path fill="none" stroke="#999999" stroke-width="1.2" d="M469.82,-103.17C528.81,-88.51 617.73,-66.41 671,-53.18"/>
<polygon fill="#999999" stroke="#999999" stroke-width="1.2" points="671.82,-56.58 680.68,-50.77 670.13,-49.78 671.82,-56.58"/>
</g>
<!-- OllamaHost -->
<g id="node11" class="node">
<title>OllamaHost</title>
<path fill="#fff3e0" stroke="#888888" stroke-width="1.5" d="M758.92,-115.51C758.92,-115.51 758.92,-120.49 758.92,-120.49 758.92,-122.97 756.64,-126.44 754.35,-127.42 754.35,-127.42 738.92,-134.04 738.92,-134.04 736.63,-135.02 731.86,-136 729.38,-136 729.38,-136 704.57,-136 704.57,-136 702.08,-136 697.31,-135.02 695.03,-134.04 695.03,-134.04 679.59,-127.42 679.59,-127.42 677.31,-126.44 675.02,-122.97 675.02,-120.49 675.02,-120.49 675.02,-115.51 675.02,-115.51 675.02,-113.03 677.31,-109.56 679.59,-108.58 679.59,-108.58 695.03,-101.96 695.03,-101.96 697.31,-100.98 702.08,-100 704.57,-100 704.57,-100 729.38,-100 729.38,-100 731.86,-100 736.63,-100.98 738.92,-101.96 738.92,-101.96 754.35,-108.58 754.35,-108.58 756.64,-109.56 758.92,-113.03 758.92,-115.51"/>
<path fill="none" stroke="#888888" stroke-width="1.5" d="M762.92,-114.64C762.92,-114.64 762.92,-121.36 762.92,-121.36 762.92,-124.73 759.83,-129.42 756.74,-130.75 756.74,-130.75 741.35,-137.35 741.35,-137.35 738.26,-138.67 731.81,-140 728.44,-140 728.44,-140 705.5,-140 705.5,-140 702.14,-140 695.68,-138.67 692.59,-137.35 692.59,-137.35 677.21,-130.75 677.21,-130.75 674.11,-129.42 671.02,-124.73 671.02,-121.36 671.02,-121.36 671.02,-114.64 671.02,-114.64 671.02,-111.27 674.11,-106.58 677.21,-105.25 677.21,-105.25 692.59,-98.65 692.59,-98.65 695.68,-97.33 702.14,-96 705.5,-96 705.5,-96 728.44,-96 728.44,-96 731.81,-96 738.26,-97.33 741.35,-98.65 741.35,-98.65 756.74,-105.25 756.74,-105.25 759.83,-106.58 762.92,-111.27 762.92,-114.64"/>
<text xml:space="preserve" text-anchor="middle" x="716.97" y="-114.12" font-family="Helvetica,sans-Serif" font-size="10.00" fill="#000000">Ollama API</text>
</g>
<!-- PipelineService&#45;&gt;OllamaHost -->
<g id="edge3" class="edge">
<title>PipelineService&#45;&gt;OllamaHost</title>
<path fill="none" stroke="#999999" stroke-width="1.2" d="M469.82,-118C524.45,-118 604.74,-118 658.62,-118"/>
<polygon fill="#999999" stroke="#999999" stroke-width="1.2" points="658.55,-121.5 668.55,-118 658.55,-114.5 658.55,-121.5"/>
</g>
<!-- ConversationManager -->
<g id="node8" class="node">
<title>ConversationManager</title>
<path fill="#e1f152" stroke="#888888" stroke-width="2" d="M456.5,-232C456.5,-232 361.75,-232 361.75,-232 355.75,-232 349.75,-226 349.75,-220 349.75,-220 349.75,-208 349.75,-208 349.75,-202 355.75,-196 361.75,-196 361.75,-196 456.5,-196 456.5,-196 462.5,-196 468.5,-202 468.5,-208 468.5,-208 468.5,-220 468.5,-220 468.5,-226 462.5,-232 456.5,-232"/>
<text xml:space="preserve" text-anchor="middle" x="409.12" y="-210.12" font-family="Helvetica,sans-Serif" font-size="10.00" fill="#000000">Swift Conversation Mgr</text>
</g>
<!-- ConversationManager&#45;&gt;NativeAudio -->
<g id="edge1" class="edge">
<title>ConversationManager&#45;&gt;NativeAudio</title>
<path fill="none" stroke="#999999" stroke-width="1.2" d="M480.91,-214.93C515.39,-215.38 557.78,-215.93 597.03,-216.44"/>
<polygon fill="#999999" stroke="#999999" stroke-width="1.2" points="481.32,-211.43 471.27,-214.8 481.23,-218.43 481.32,-211.43"/>
<polygon fill="#999999" stroke="#999999" stroke-width="1.2" points="596.96,-219.94 607.01,-216.57 597.06,-212.94 596.96,-219.94"/>
<text xml:space="preserve" text-anchor="middle" x="529.88" y="-217.08" font-family="Helvetica,sans-Serif" font-size="9.00" fill="#000000"> IO Control</text>
</g>
<!-- ConversationManager&#45;&gt;OllamaHost -->
<g id="edge4" class="edge">
<title>ConversationManager&#45;&gt;OllamaHost</title>
<path fill="none" stroke="#c62828" stroke-width="1.5" d="M469.46,-195.38C525.82,-177.68 609.75,-151.34 663.67,-134.42"/>
<polygon fill="#c62828" stroke="#c62828" stroke-width="1.5" points="664.7,-137.76 673.19,-131.43 662.61,-131.08 664.7,-137.76"/>
<text xml:space="preserve" text-anchor="middle" x="529.88" y="-186.83" font-family="Helvetica,sans-Serif" font-size="9.00" fill="#000000"> Direct Dialog</text>
</g>
<!-- NativeAudio&#45;&gt;AudioHardware -->
<g id="edge11" class="edge">
<title>NativeAudio&#45;&gt;AudioHardware</title>
<path fill="none" stroke="#c62828" stroke-width="1.5" d="M691.77,-249.08C663.16,-284.59 612.94,-343.17 561.75,-385 530.07,-410.89 518.37,-417.28 480.45,-434.83"/>
<polygon fill="#c62828" stroke="#c62828" stroke-width="1.5" points="479.3,-431.5 471.68,-438.87 482.23,-437.86 479.3,-431.5"/>
<text xml:space="preserve" text-anchor="middle" x="529.88" y="-427.43" font-family="Helvetica,sans-Serif" font-size="9.00" fill="#000000"> 6. Voice Output</text>
</g>
<!-- Hardware -->
<g id="node12" class="node">
<title>Hardware</title>
<polygon fill="#cfd8dc" stroke="#888888" stroke-width="1.5" points="1001.2,-136 899.2,-136 895.2,-132 895.2,-100 997.2,-100 1001.2,-104 1001.2,-136"/>
<polyline fill="none" stroke="#888888" stroke-width="1.5" points="997.2,-132 895.2,-132"/>
<polyline fill="none" stroke="#888888" stroke-width="1.5" points="997.2,-132 997.2,-100"/>
<polyline fill="none" stroke="#888888" stroke-width="1.5" points="997.2,-132 1001.2,-136"/>
<text xml:space="preserve" text-anchor="middle" x="948.2" y="-119.75" font-family="Helvetica,sans-Serif" font-size="10.00" fill="#000000">Apple Silicon HW</text>
<text xml:space="preserve" text-anchor="middle" x="948.2" y="-108.5" font-family="Helvetica,sans-Serif" font-size="10.00" fill="#000000">(Metal / GPU / ANE)</text>
</g>
<!-- NativeAudio&#45;&gt;Hardware -->
<g id="edge5" class="edge">
<title>NativeAudio&#45;&gt;Hardware</title>
<path fill="none" stroke="#999999" stroke-width="1.2" d="M806.77,-198.9C824.21,-193.78 842.08,-187.52 858.2,-180 878.74,-170.42 899.64,-156.14 916.02,-143.7"/>
<polygon fill="#999999" stroke="#999999" stroke-width="1.2" points="917.93,-146.65 923.67,-137.75 913.63,-141.12 917.93,-146.65"/>
</g>
<!-- WhisperCPP&#45;&gt;Hardware -->
<g id="edge6" class="edge">
<title>WhisperCPP&#45;&gt;Hardware</title>
<path fill="none" stroke="#999999" stroke-width="1.2" d="M751.31,-48.87C780.03,-55.19 822.38,-65.46 858.2,-78 871.69,-82.72 885.95,-88.68 899.02,-94.54"/>
<polygon fill="#999999" stroke="#999999" stroke-width="1.2" points="897.46,-97.68 908.01,-98.66 900.38,-91.31 897.46,-97.68"/>
</g>
<!-- OllamaHost&#45;&gt;Hardware -->
<g id="edge7" class="edge">
<title>OllamaHost&#45;&gt;Hardware</title>
<path fill="none" stroke="#999999" stroke-width="1.2" d="M763.53,-118C797.73,-118 845,-118 883.02,-118"/>
<polygon fill="#999999" stroke="#999999" stroke-width="1.2" points="882.68,-121.5 892.68,-118 882.68,-114.5 882.68,-121.5"/>
</g>
<!-- Makefile -->
<g id="node13" class="node">
<title>Makefile</title>
<polygon fill="#fbc02d" stroke="#888888" stroke-width="1.5" points="146.75,-153 74.5,-153 74.5,-117 152.75,-117 152.75,-147 146.75,-153"/>
<polyline fill="none" stroke="#888888" stroke-width="1.5" points="146.75,-153 146.75,-147"/>
<polyline fill="none" stroke="#888888" stroke-width="1.5" points="152.75,-147 146.75,-147"/>
<text xml:space="preserve" text-anchor="middle" x="113.62" y="-131.12" font-family="Helvetica,sans-Serif" font-size="10.00" fill="#000000">GNU Makefile</text>
</g>
<!-- SubEngine -->
<g id="node14" class="node">
<title>SubEngine</title>
<path fill="#ffffff" stroke="#888888" stroke-width="1.5" d="M162.12,-225C162.12,-225 65.12,-225 65.12,-225 59.13,-225 53.12,-219 53.12,-213 53.12,-213 53.12,-201 53.12,-201 53.12,-195 59.12,-189 65.12,-189 65.12,-189 162.12,-189 162.12,-189 168.12,-189 174.12,-195 174.12,-201 174.12,-201 174.12,-213 174.12,-213 174.12,-219 168.12,-225 162.12,-225"/>
<text xml:space="preserve" text-anchor="middle" x="113.62" y="-203.12" font-family="Helvetica,sans-Serif" font-size="10.00" fill="#000000">Project A: Media Engine</text>
</g>
<!-- SubEngine&#45;&gt;PipelineService -->
<g id="edge8" class="edge">
<title>SubEngine&#45;&gt;PipelineService</title>
<path fill="none" stroke="#e64a19" stroke-width="1.2" d="M174.68,-188.76C196.01,-182.28 220.2,-174.94 242.25,-168.25 273.53,-158.76 308.13,-148.28 337.6,-139.36"/>
<polygon fill="#e64a19" stroke="#e64a19" stroke-width="1.2" points="338.33,-142.79 346.88,-136.54 336.3,-136.09 338.33,-142.79"/>
<text xml:space="preserve" text-anchor="middle" x="281.25" y="-169.45" font-family="Helvetica,sans-Serif" font-size="9.00" fill="#000000"> REST: Build</text>
</g>
<!-- SubEngine&#45;&gt;LessonAssets -->
<g id="edge9" class="edge">
<title>SubEngine&#45;&gt;LessonAssets</title>
<path fill="none" stroke="#2e7d32" stroke-width="1.2" stroke-dasharray="5,2" d="M174.61,-221.34C216.69,-232.65 273.55,-250.48 320.25,-274.25 326.85,-277.61 327.17,-280.62 333.75,-284 335.62,-284.96 337.54,-285.9 339.49,-286.81"/>
<polygon fill="#2e7d32" stroke="#2e7d32" stroke-width="1.2" points="337.93,-289.95 348.49,-290.72 340.71,-283.53 337.93,-289.95"/>
<text xml:space="preserve" text-anchor="middle" x="281.25" y="-275.45" font-family="Helvetica,sans-Serif" font-size="9.00" fill="#000000"> Write Assets</text>
</g>
</g>
</svg>
