<?xml version="1.0" encoding="UTF-8" standalone="no"?>
<!DOCTYPE svg PUBLIC "-//W3C//DTD SVG 1.1//EN"
 "http://www.w3.org/Graphics/SVG/1.1/DTD/svg11.dtd">
<!-- Generated by graphviz version 13.0.0 (20250608.1624)
 -->
<!-- Title: G Pages: 1 -->
<svg width="2966pt" height="1446pt"
 viewBox="0.00 0.00 2966.00 1446.00" xmlns="http://www.w3.org/2000/svg" xmlns:xlink="http://www.w3.org/1999/xlink">
<g id="graph0" class="graph" transform="scale(1 1) rotate(0) translate(4 1441.67)">
<title>G</title>
<polygon fill="#ffffff" stroke="none" points="-4,4 -4,-1441.67 2962,-1441.67 2962,4 -4,4"/>
<text xml:space="preserve" text-anchor="middle" x="1479" y="-1389.97" font-family="Helvetica,sans-Serif" font-size="46.00">OmniLingua Platform Ecosystem &amp; Technology Stack</text>
<g id="clust1" class="cluster">
<title>cluster_pillars</title>
</g>
<g id="clust3" class="cluster">
<title>cluster_clients</title>
</g>
<g id="clust4" class="cluster">
<title>cluster_backends</title>
</g>
<g id="clust6" class="cluster">
<title>cluster_processing</title>
</g>
<!-- Root -->
<g id="node1" class="node">
<title>Root</title>
<ellipse fill="#f4ff64" stroke="#333333" cx="1096" cy="-1281.46" rx="271.18" ry="45.96"/>
<text xml:space="preserve" text-anchor="middle" x="1096" y="-1283.36" font-family="Helvetica,sans-Serif" font-size="28.00">OmniLingua Ecosystem 2026</text>
<text xml:space="preserve" text-anchor="middle" x="1096" y="-1254.86" font-family="Helvetica,sans-Serif" font-size="28.00">(Unified Architecture)</text>
</g>
<!-- Omninode -->
<g id="node2" class="node">
<title>Omninode</title>
<path fill="#f4fb7f" stroke="#333333" d="M596.88,-958.5C596.88,-958.5 103.12,-958.5 103.12,-958.5 97.12,-958.5 91.12,-952.5 91.12,-946.5 91.12,-946.5 91.12,-898.5 91.12,-898.5 91.12,-892.5 97.12,-886.5 103.12,-886.5 103.12,-886.5 596.88,-886.5 596.88,-886.5 602.88,-886.5 608.88,-892.5 608.88,-898.5 608.88,-898.5 608.88,-946.5 608.88,-946.5 608.88,-952.5 602.88,-958.5 596.88,-958.5"/>
<text xml:space="preserve" text-anchor="middle" x="350" y="-924.4" font-family="Helvetica,sans-Serif" font-size="28.00">Omninode</text>
<text xml:space="preserve" text-anchor="middle" x="350" y="-895.9" font-family="Helvetica,sans-Serif" font-size="28.00">(FastAPI Server on Native Apple Silicon)</text>
</g>
<!-- Root&#45;&gt;Omninode -->
<g id="edge2" class="edge">
<title>Root&#45;&gt;Omninode</title>
<path fill="none" stroke="LightGrey" stroke-width="1.5" d="M966.51,-1240.69C921.39,-1225.51 870.85,-1207 826,-1187 674.55,-1119.48 506.98,-1020.65 416.61,-965.21"/>
<polygon fill="LightGrey" stroke="LightGrey" stroke-width="1.5" points="418.53,-962.28 408.18,-960.02 414.86,-968.24 418.53,-962.28"/>
</g>
<!-- Edge_Security -->
<g id="node3" class="node">
<title>Edge_Security</title>
<path fill="#fff176" stroke="#333333" d="M1091,-958.5C1091,-958.5 847,-958.5 847,-958.5 841,-958.5 835,-952.5 835,-946.5 835,-946.5 835,-898.5 835,-898.5 835,-892.5 841,-886.5 847,-886.5 847,-886.5 1091,-886.5 1091,-886.5 1097,-886.5 1103,-892.5 1103,-898.5 1103,-898.5 1103,-946.5 1103,-946.5 1103,-952.5 1097,-958.5 1091,-958.5"/>
<text xml:space="preserve" text-anchor="middle" x="969" y="-924.4" font-family="Helvetica,sans-Serif" font-size="28.00">Edge Security</text>
<text xml:space="preserve" text-anchor="middle" x="969" y="-895.9" font-family="Helvetica,sans-Serif" font-size="28.00">(Nginx mTLS Proxy)</text>
</g>
<!-- Root&#45;&gt;Edge_Security -->
<g id="edge1" class="edge">
<title>Root&#45;&gt;Edge_Security</title>
<path fill="none" stroke="LightGrey" stroke-width="1.5" d="M1079.92,-1235.25C1055.72,-1167.24 1010.18,-1039.24 985.65,-970.31"/>
<polygon fill="LightGrey" stroke="LightGrey" stroke-width="1.5" points="989.03,-969.35 982.38,-961.1 982.43,-971.69 989.03,-969.35"/>
</g>
<!-- GermanAPI -->
<g id="node5" class="node">
<title>GermanAPI</title>
<path fill="#e0f2f1" stroke="#333333" d="M2248.62,-609.5C2248.62,-609.5 1891.38,-609.5 1891.38,-609.5 1885.38,-609.5 1879.38,-603.5 1879.38,-597.5 1879.38,-597.5 1879.38,-549.5 1879.38,-549.5 1879.38,-543.5 1885.38,-537.5 1891.38,-537.5 1891.38,-537.5 2248.62,-537.5 2248.62,-537.5 2254.62,-537.5 2260.62,-543.5 2260.62,-549.5 2260.62,-549.5 2260.62,-597.5 2260.62,-597.5 2260.62,-603.5 2254.62,-609.5 2248.62,-609.5"/>
<text xml:space="preserve" text-anchor="middle" x="2070" y="-575.4" font-family="Helvetica,sans-Serif" font-size="28.00">German&#45;API</text>
<text xml:space="preserve" text-anchor="middle" x="2070" y="-546.9" font-family="Helvetica,sans-Serif" font-size="28.00">(FastAPI Stack + Dashboard)</text>
</g>
<!-- Root&#45;&gt;GermanAPI -->
<g id="edge3" class="edge">
<title>Root&#45;&gt;GermanAPI</title>
<path fill="none" stroke="LightGrey" stroke-width="1.5" d="M1363.3,-1273.45C1462.95,-1265.45 1560.73,-1249.35 1597,-1217.5 1713.99,-1114.77 1563.33,-975.32 1685.25,-878.5 1701.91,-865.27 2053.11,-883.69 2068,-868.5 2131.76,-803.49 2107.63,-686.32 2087.14,-621.25"/>
<polygon fill="LightGrey" stroke="LightGrey" stroke-width="1.5" points="2090.51,-620.31 2084.08,-611.89 2083.86,-622.48 2090.51,-620.31"/>
<text xml:space="preserve" text-anchor="middle" x="1763.62" y="-912.85" font-family="Times,serif" font-size="22.00">Deploys Backend</text>
</g>
<!-- LangQuiz_Headless_Local -->
<g id="node6" class="node">
<title>LangQuiz_Headless_Local</title>
<path fill="#fff9c4" stroke="#333333" d="M1171,-609.5C1171,-609.5 759,-609.5 759,-609.5 753,-609.5 747,-603.5 747,-597.5 747,-597.5 747,-549.5 747,-549.5 747,-543.5 753,-537.5 759,-537.5 759,-537.5 1171,-537.5 1171,-537.5 1177,-537.5 1183,-543.5 1183,-549.5 1183,-549.5 1183,-597.5 1183,-597.5 1183,-603.5 1177,-609.5 1171,-609.5"/>
<text xml:space="preserve" text-anchor="middle" x="965" y="-575.4" font-family="Helvetica,sans-Serif" font-size="28.00">LangQuiz Headless (Local Setup)</text>
<text xml:space="preserve" text-anchor="middle" x="965" y="-546.9" font-family="Helvetica,sans-Serif" font-size="28.00">(Swift Terminal App / Host Voice)</text>
</g>
<!-- Root&#45;&gt;LangQuiz_Headless_Local -->
<g id="edge4" class="edge">
<title>Root&#45;&gt;LangQuiz_Headless_Local</title>
<path fill="none" stroke="LightGrey" stroke-width="1.5" d="M1107.71,-1235.14C1111.09,-1219.94 1114.32,-1202.84 1116,-1187 1130.43,-1050.65 1147.33,-1011.98 1116,-878.5 1109.63,-851.38 1030.28,-698.44 989.24,-620.37"/>
<polygon fill="LightGrey" stroke="LightGrey" stroke-width="1.5" points="992.53,-619.1 984.77,-611.88 986.33,-622.36 992.53,-619.1"/>
<text xml:space="preserve" text-anchor="middle" x="1226.71" y="-912.85" font-family="Times,serif" font-size="22.00">Deploys Native Core</text>
</g>
<!-- Preprocessing -->
<g id="node8" class="node">
<title>Preprocessing</title>
<path fill="#fff2cc" stroke="#333333" d="M783.88,-260.5C783.88,-260.5 320.12,-260.5 320.12,-260.5 314.12,-260.5 308.12,-254.5 308.12,-248.5 308.12,-248.5 308.12,-200.5 308.12,-200.5 308.12,-194.5 314.12,-188.5 320.12,-188.5 320.12,-188.5 783.88,-188.5 783.88,-188.5 789.88,-188.5 795.88,-194.5 795.88,-200.5 795.88,-200.5 795.88,-248.5 795.88,-248.5 795.88,-254.5 789.88,-260.5 783.88,-260.5"/>
<text xml:space="preserve" text-anchor="middle" x="552" y="-226.4" font-family="Helvetica,sans-Serif" font-size="28.00">Offline Video Transcription</text>
<text xml:space="preserve" text-anchor="middle" x="552" y="-197.9" font-family="Helvetica,sans-Serif" font-size="28.00">(Subtitles Generation and Translation)</text>
</g>
<!-- Omninode&#45;&gt;Preprocessing -->
<g id="edge11" class="edge">
<title>Omninode&#45;&gt;Preprocessing</title>
<path fill="none" stroke="LightSteelBlue" stroke-width="1.5" d="M464.34,-886.13C486.14,-874.23 506.37,-858.56 520,-838 550.91,-791.36 552.64,-408.41 552.26,-272.84"/>
<polygon fill="LightSteelBlue" stroke="LightSteelBlue" stroke-width="1.5" points="555.76,-273.15 552.23,-263.16 548.76,-273.17 555.76,-273.15"/>
<text xml:space="preserve" text-anchor="middle" x="638.15" y="-563.85" font-family="Times,serif" font-size="22.00">Triggers Offline Job</text>
</g>
<!-- Dictation -->
<g id="node10" class="node">
<title>Dictation</title>
<path fill="#b2ffb2" stroke="#333333" d="M1190,-260.5C1190,-260.5 826,-260.5 826,-260.5 820,-260.5 814,-254.5 814,-248.5 814,-248.5 814,-200.5 814,-200.5 814,-194.5 820,-188.5 826,-188.5 826,-188.5 1190,-188.5 1190,-188.5 1196,-188.5 1202,-194.5 1202,-200.5 1202,-200.5 1202,-248.5 1202,-248.5 1202,-254.5 1196,-260.5 1190,-260.5"/>
<text xml:space="preserve" text-anchor="middle" x="1008" y="-226.4" font-family="Helvetica,sans-Serif" font-size="28.00">Speech Recognition (ASR)</text>
<text xml:space="preserve" text-anchor="middle" x="1008" y="-197.9" font-family="Helvetica,sans-Serif" font-size="28.00">(Ollama.app and whisper.cpp)</text>
</g>
<!-- Omninode&#45;&gt;Dictation -->
<g id="edge10" class="edge">
<title>Omninode&#45;&gt;Dictation</title>
<path fill="none" stroke="LightSteelBlue" stroke-width="1.5" d="M338.62,-886.13C316.32,-809.12 276.89,-625.49 372.75,-529.5 385.98,-516.25 522.34,-521.13 541,-519.5 548.35,-518.86 798.57,-492.63 805,-489 893.73,-438.82 956.61,-332.57 987.1,-271.42"/>
<polygon fill="LightSteelBlue" stroke="LightSteelBlue" stroke-width="1.5" points="990.17,-273.11 991.42,-262.59 983.88,-270.04 990.17,-273.11"/>
<text xml:space="preserve" text-anchor="middle" x="444.38" y="-563.85" font-family="Times,serif" font-size="22.00">Provides Access</text>
</g>
<!-- ANE -->
<g id="node13" class="node">
<title>ANE</title>
<path fill="#ffd1a4" stroke="#333333" d="M1497.01,-130C1497.01,-130 724.01,-130 724.01,-130 718.01,-130 706.95,-126.79 701.88,-123.57 701.88,-123.57 517.12,-6.43 517.12,-6.43 512.06,-3.21 512.99,0 518.99,0 518.99,0 1291.99,0 1291.99,0 1297.99,0 1309.05,-3.21 1314.12,-6.43 1314.12,-6.43 1498.88,-123.57 1498.88,-123.57 1503.94,-126.79 1503.01,-130 1497.01,-130"/>
<text xml:space="preserve" text-anchor="middle" x="1008" y="-66.9" font-family="Helvetica,sans-Serif" font-size="28.00">Apple Silicon Hardware</text>
<text xml:space="preserve" text-anchor="middle" x="1008" y="-38.4" font-family="Helvetica,sans-Serif" font-size="28.00">(GPU / Metal / ANE / Unified Memory)</text>
</g>
<!-- Omninode&#45;&gt;ANE -->
<g id="edge25" class="edge">
<title>Omninode&#45;&gt;ANE</title>
<path fill="none" stroke="#333333" stroke-width="1.5" stroke-dasharray="5,2" d="M328.04,-886.17C320.09,-871.75 311.88,-854.58 307,-838 224.47,-557.63 99.53,-396.87 296,-180.5 342.71,-129.06 482.78,-100.7 626.47,-85.08"/>
<polygon fill="#333333" stroke="#333333" stroke-width="1.5" points="626.76,-88.56 636.34,-84.03 626.02,-81.6 626.76,-88.56"/>
<text xml:space="preserve" text-anchor="middle" x="338.52" y="-498.6" font-family="Times,serif" font-size="22.00">Full HW / GPU / Metal Access</text>
</g>
<!-- Edge_Security&#45;&gt;Omninode -->
<g id="edge6" class="edge">
<title>Edge_Security&#45;&gt;Omninode</title>
<path fill="none" stroke="DeepPink" stroke-width="1.5" d="M834.58,-922.5C771.97,-922.5 695.11,-922.5 621.21,-922.5"/>
<polygon fill="DeepPink" stroke="DeepPink" stroke-width="1.5" points="621.64,-919 611.64,-922.5 621.64,-926 621.64,-919"/>
<text xml:space="preserve" text-anchor="middle" x="721.94" y="-927.1" font-family="Times,serif" font-size="22.00">Proxy (General Access)</text>
</g>
<!-- Edge_Security&#45;&gt;GermanAPI -->
<g id="edge5" class="edge">
<title>Edge_Security&#45;&gt;GermanAPI</title>
<path fill="none" stroke="DeepPink" stroke-width="1.5" d="M1079.91,-886.07C1090.46,-880.87 1100.68,-875.03 1110,-868.5 1120.78,-860.95 1117.34,-851.59 1129.25,-846 1156.75,-833.09 1647,-847.04 1676,-838 1817.92,-793.78 1955.73,-680.77 2024.57,-618.06"/>
<polygon fill="DeepPink" stroke="DeepPink" stroke-width="1.5" points="2026.75,-620.81 2031.75,-611.47 2022.01,-615.66 2026.75,-620.81"/>
<text xml:space="preserve" text-anchor="middle" x="1186.62" y="-847.6" font-family="Times,serif" font-size="22.00">mTLS Proxy</text>
</g>
<!-- Edge_Security&#45;&gt;LangQuiz_Headless_Local -->
<g id="edge7" class="edge">
<title>Edge_Security&#45;&gt;LangQuiz_Headless_Local</title>
<path fill="none" stroke="DeepPink" stroke-width="1.5" d="M834.67,-887.89C827.49,-882.37 821.06,-875.95 815.75,-868.5 757.07,-786.12 850.49,-677.4 914.01,-617.95"/>
<polygon fill="DeepPink" stroke="DeepPink" stroke-width="1.5" points="916.1,-620.78 921.08,-611.43 911.35,-615.63 916.1,-620.78"/>
<text xml:space="preserve" text-anchor="middle" x="875.38" y="-847.6" font-family="Times,serif" font-size="22.00">mDNS Proxy</text>
</g>
<!-- LangQuiz_Headless_Remote -->
<g id="node7" class="node">
<title>LangQuiz_Headless_Remote</title>
<path fill="#fff9c4" stroke="#333333" d="M1655.38,-609.5C1655.38,-609.5 1212.62,-609.5 1212.62,-609.5 1206.62,-609.5 1200.62,-603.5 1200.62,-597.5 1200.62,-597.5 1200.62,-549.5 1200.62,-549.5 1200.62,-543.5 1206.62,-537.5 1212.62,-537.5 1212.62,-537.5 1655.38,-537.5 1655.38,-537.5 1661.38,-537.5 1667.38,-543.5 1667.38,-549.5 1667.38,-549.5 1667.38,-597.5 1667.38,-597.5 1667.38,-603.5 1661.38,-609.5 1655.38,-609.5"/>
<text xml:space="preserve" text-anchor="middle" x="1434" y="-575.4" font-family="Helvetica,sans-Serif" font-size="28.00">LangQuiz Headless (Remote Setup)</text>
<text xml:space="preserve" text-anchor="middle" x="1434" y="-546.9" font-family="Helvetica,sans-Serif" font-size="28.00">(Swift Terminal App / Client Voice)</text>
</g>
<!-- Edge_Security&#45;&gt;LangQuiz_Headless_Remote -->
<g id="edge8" class="edge">
<title>Edge_Security&#45;&gt;LangQuiz_Headless_Remote</title>
<path fill="none" stroke="DeepPink" stroke-width="1.5" d="M966.68,-886.36C967.72,-871.7 971.83,-855.84 983.25,-846 1000.83,-830.85 1170.93,-847.74 1192,-838 1292.46,-791.55 1370.32,-682.1 1408.36,-619.86"/>
<polygon fill="DeepPink" stroke="DeepPink" stroke-width="1.5" points="1411.24,-621.87 1413.39,-611.49 1405.24,-618.26 1411.24,-621.87"/>
<text xml:space="preserve" text-anchor="middle" x="1046.62" y="-847.6" font-family="Times,serif" font-size="22.00">Secure Tunnel</text>
</g>
<!-- OmniLingua_UI -->
<g id="node4" class="node">
<title>OmniLingua_UI</title>
<path fill="#d1e8ff" stroke="#333333" d="M2218.62,-958.5C2218.62,-958.5 1867.38,-958.5 1867.38,-958.5 1861.38,-958.5 1855.38,-952.5 1855.38,-946.5 1855.38,-946.5 1855.38,-898.5 1855.38,-898.5 1855.38,-892.5 1861.38,-886.5 1867.38,-886.5 1867.38,-886.5 2218.62,-886.5 2218.62,-886.5 2224.62,-886.5 2230.62,-892.5 2230.62,-898.5 2230.62,-898.5 2230.62,-946.5 2230.62,-946.5 2230.62,-952.5 2224.62,-958.5 2218.62,-958.5"/>
<text xml:space="preserve" text-anchor="middle" x="2043" y="-924.4" font-family="Helvetica,sans-Serif" font-size="28.00">OmniLingua Web UI / Player</text>
<text xml:space="preserve" text-anchor="middle" x="2043" y="-895.9" font-family="Helvetica,sans-Serif" font-size="28.00">(Unified Web Browser Client)</text>
</g>
<!-- OmniLingua_UI&#45;&gt;Edge_Security -->
<g id="edge9" class="edge">
<title>OmniLingua_UI&#45;&gt;Edge_Security</title>
<path fill="none" stroke="DeepPink" stroke-width="1.5" d="M2021.98,-958.6C1990.34,-1008.87 1925.23,-1097.8 1842,-1133.46 1693.91,-1196.91 1259.94,-1207.79 1117,-1133.46 1051.13,-1099.21 1008.47,-1020.71 986.6,-969.73"/>
<polygon fill="DeepPink" stroke="DeepPink" stroke-width="1.5" points="989.94,-968.65 982.87,-960.76 983.48,-971.34 989.94,-968.65"/>
<text xml:space="preserve" text-anchor="middle" x="1392" y="-1196.6" font-family="Times,serif" font-size="22.00">mTLS Access (Local or Remote deployment)</text>
</g>
<!-- OmniLingua_UI&#45;&gt;LangQuiz_Headless_Local -->
<g id="edge20" class="edge">
<title>OmniLingua_UI&#45;&gt;LangQuiz_Headless_Local</title>
<path fill="none" stroke="LightSteelBlue" stroke-width="1.5" d="M1892.61,-886.04C1875.61,-883.01 1858.49,-880.39 1842,-878.5 1810.49,-874.89 1300.54,-880.65 1271.25,-868.5 1257.97,-862.99 1260.91,-852.33 1248,-846 1225.42,-834.94 1214.05,-850.07 1192,-838 1098.56,-786.86 1026.11,-681.08 990.09,-620.24"/>
<polygon fill="LightSteelBlue" stroke="LightSteelBlue" stroke-width="1.5" points="993.2,-618.63 985.14,-611.76 987.15,-622.16 993.2,-618.63"/>
<text xml:space="preserve" text-anchor="middle" x="1423.12" y="-847.6" font-family="Times,serif" font-size="22.00">Local Setup: Swift Interface / TTS</text>
</g>
<!-- OmniLingua_UI&#45;&gt;LangQuiz_Headless_Remote -->
<g id="edge21" class="edge">
<title>OmniLingua_UI&#45;&gt;LangQuiz_Headless_Remote</title>
<path fill="none" stroke="LightSteelBlue" stroke-width="1.5" d="M1886.44,-886.01C1871.46,-883.22 1856.47,-880.65 1842,-878.5 1815.92,-874.62 1747.63,-879.7 1723.75,-868.5 1605.57,-813.07 1508.87,-687.68 1462.92,-619.95"/>
<polygon fill="LightSteelBlue" stroke="LightSteelBlue" stroke-width="1.5" points="1465.99,-618.23 1457.51,-611.87 1460.17,-622.13 1465.99,-618.23"/>
<text xml:space="preserve" text-anchor="middle" x="1906.38" y="-847.6" font-family="Times,serif" font-size="22.00">Remote Setup: Swift Interface / Dictation</text>
</g>
<!-- GermanAPI&#45;&gt;OmniLingua_UI -->
<g id="edge14" class="edge">
<title>GermanAPI&#45;&gt;OmniLingua_UI</title>
<path fill="none" stroke="LightSteelBlue" stroke-width="1.5" d="M2082.54,-609.95C2100.53,-666.76 2127.87,-780.71 2093,-868.5 2091.99,-871.03 2090.8,-873.51 2089.47,-875.93"/>
<polygon fill="LightSteelBlue" stroke="LightSteelBlue" stroke-width="1.5" points="2086.58,-873.95 2084.03,-884.23 2092.44,-877.78 2086.58,-873.95"/>
<text xml:space="preserve" text-anchor="middle" x="2251.58" y="-847.6" font-family="Times,serif" font-size="22.00">Streams Video + VTT (via Nginx)</text>
</g>
<!-- GermanAPI&#45;&gt;LangQuiz_Headless_Local -->
<g id="edge23" class="edge">
<title>GermanAPI&#45;&gt;LangQuiz_Headless_Local</title>
<path fill="none" stroke="LightSteelBlue" stroke-width="1.5" d="M2021.37,-609.89C1950.06,-660.74 1810.9,-750.62 1676,-784.46 1467.35,-836.8 1392.21,-863.13 1192,-784.46 1107.79,-751.37 1036.27,-670.73 997.09,-619.28"/>
<polygon fill="LightSteelBlue" stroke="LightSteelBlue" stroke-width="1.5" points="1000.09,-617.44 991.29,-611.53 994.49,-621.63 1000.09,-617.44"/>
<text xml:space="preserve" text-anchor="middle" x="1629" y="-847.6" font-family="Times,serif" font-size="22.00">WebSocket</text>
</g>
<!-- GermanAPI&#45;&gt;LangQuiz_Headless_Remote -->
<g id="edge24" class="edge">
<title>GermanAPI&#45;&gt;LangQuiz_Headless_Remote</title>
<path fill="none" stroke="LightSteelBlue" stroke-width="1.5" d="M1879.03,-573.5C1816.31,-573.5 1745.71,-573.5 1679.53,-573.5"/>
<polygon fill="LightSteelBlue" stroke="LightSteelBlue" stroke-width="1.5" points="1679.93,-570 1669.93,-573.5 1679.93,-577 1679.93,-570"/>
<text xml:space="preserve" text-anchor="middle" x="1773.38" y="-578.1" font-family="Times,serif" font-size="22.00">WebSocket via Nginx</text>
</g>
<!-- HybridEngine -->
<g id="node9" class="node">
<title>HybridEngine</title>
<path fill="#e8f5e9" stroke="#333333" d="M1842.62,-260.5C1842.62,-260.5 1563.38,-260.5 1563.38,-260.5 1557.38,-260.5 1551.38,-254.5 1551.38,-248.5 1551.38,-248.5 1551.38,-200.5 1551.38,-200.5 1551.38,-194.5 1557.38,-188.5 1563.38,-188.5 1563.38,-188.5 1842.62,-188.5 1842.62,-188.5 1848.62,-188.5 1854.62,-194.5 1854.62,-200.5 1854.62,-200.5 1854.62,-248.5 1854.62,-248.5 1854.62,-254.5 1848.62,-260.5 1842.62,-260.5"/>
<text xml:space="preserve" text-anchor="middle" x="1703" y="-212.15" font-family="Helvetica,sans-Serif" font-size="28.00">Hybrid Analysis Engine</text>
</g>
<!-- GermanAPI&#45;&gt;HybridEngine -->
<g id="edge22" class="edge">
<title>GermanAPI&#45;&gt;HybridEngine</title>
<path fill="none" stroke="LightSteelBlue" stroke-width="1.5" d="M1921.23,-537.09C1911.08,-531.99 1901.37,-526.16 1892.5,-519.5 1805.7,-454.3 1747.72,-336.8 1720.64,-271.83"/>
<polygon fill="LightSteelBlue" stroke="LightSteelBlue" stroke-width="1.5" points="1723.98,-270.75 1716.95,-262.82 1717.5,-273.4 1723.98,-270.75"/>
<text xml:space="preserve" text-anchor="middle" x="1929.25" y="-498.6" font-family="Times,serif" font-size="22.00">Analyze</text>
</g>
<!-- LangQuiz_Headless_Local&#45;&gt;Omninode -->
<g id="edge17" class="edge">
<title>LangQuiz_Headless_Local&#45;&gt;Omninode</title>
<path fill="none" stroke="LightSteelBlue" stroke-width="1.5" d="M946.28,-609.54C912.55,-668.64 835.46,-786.69 733,-838 713.02,-848.01 654.64,-841.51 632.75,-846 602.08,-852.29 596.06,-859.76 566,-868.5 548.97,-873.45 531.09,-878.33 513.23,-883.01"/>
<polygon fill="LightSteelBlue" stroke="LightSteelBlue" stroke-width="1.5" points="512.49,-879.58 503.69,-885.48 514.25,-886.36 512.49,-879.58"/>
<text xml:space="preserve" text-anchor="middle" x="716.38" y="-847.6" font-family="Times,serif" font-size="22.00">Local Ollama Link</text>
</g>
<!-- LangQuiz_Headless_Local&#45;&gt;Dictation -->
<g id="edge15" class="edge">
<title>LangQuiz_Headless_Local&#45;&gt;Dictation</title>
<path fill="none" stroke="LightSteelBlue" stroke-width="1.5" d="M767.83,-537.23C754.81,-527.04 751.67,-513.91 765.5,-497 776.84,-483.13 789.8,-498.47 805,-489 891.06,-435.39 954.56,-331.38 985.96,-271.31"/>
<polygon fill="LightSteelBlue" stroke="LightSteelBlue" stroke-width="1.5" points="988.96,-273.14 990.41,-262.65 982.73,-269.94 988.96,-273.14"/>
<text xml:space="preserve" text-anchor="middle" x="887.75" y="-498.6" font-family="Times,serif" font-size="22.00">Specifies Local ASR Model</text>
</g>
<!-- SpeechSynthesis -->
<g id="node11" class="node">
<title>SpeechSynthesis</title>
<path fill="#b2ffb2" stroke="#333333" d="M1521.5,-260.5C1521.5,-260.5 1232.5,-260.5 1232.5,-260.5 1226.5,-260.5 1220.5,-254.5 1220.5,-248.5 1220.5,-248.5 1220.5,-200.5 1220.5,-200.5 1220.5,-194.5 1226.5,-188.5 1232.5,-188.5 1232.5,-188.5 1521.5,-188.5 1521.5,-188.5 1527.5,-188.5 1533.5,-194.5 1533.5,-200.5 1533.5,-200.5 1533.5,-248.5 1533.5,-248.5 1533.5,-254.5 1527.5,-260.5 1521.5,-260.5"/>
<text xml:space="preserve" text-anchor="middle" x="1377" y="-226.4" font-family="Helvetica,sans-Serif" font-size="28.00">Neural TTS</text>
<text xml:space="preserve" text-anchor="middle" x="1377" y="-197.9" font-family="Helvetica,sans-Serif" font-size="28.00">(AVSpeechSynthesizer)</text>
</g>
<!-- LangQuiz_Headless_Local&#45;&gt;SpeechSynthesis -->
<g id="edge16" class="edge">
<title>LangQuiz_Headless_Local&#45;&gt;SpeechSynthesis</title>
<path fill="none" stroke="LightSteelBlue" stroke-width="1.5" d="M1148.36,-537.03C1160.44,-531.95 1172.11,-526.14 1183,-519.5 1194.3,-512.61 1193.34,-506.55 1202.5,-497 1206.09,-493.26 1207.7,-493 1211,-489 1269.2,-418.33 1323.04,-325.86 1352.82,-271.35"/>
<polygon fill="LightSteelBlue" stroke="LightSteelBlue" stroke-width="1.5" points="1355.85,-273.1 1357.54,-262.64 1349.7,-269.76 1355.85,-273.1"/>
<text xml:space="preserve" text-anchor="middle" x="1323.25" y="-498.6" font-family="Times,serif" font-size="22.00">Specifies Local TTS Model</text>
</g>
<!-- LangQuiz_Headless_Remote&#45;&gt;Dictation -->
<g id="edge18" class="edge">
<title>LangQuiz_Headless_Remote&#45;&gt;Dictation</title>
<path fill="none" stroke="LightSteelBlue" stroke-width="1.5" d="M1246.71,-537.04C1228.27,-534.2 1209.8,-531.62 1192,-529.5 1173.98,-527.35 1041.89,-532.27 1029,-519.5 964.13,-455.27 979.47,-337.79 994.73,-272.46"/>
<polygon fill="LightSteelBlue" stroke="LightSteelBlue" stroke-width="1.5" points="998.05,-273.65 997.03,-263.1 991.25,-271.99 998.05,-273.65"/>
<text xml:space="preserve" text-anchor="middle" x="1104" y="-498.6" font-family="Times,serif" font-size="22.00">Local Client Mic</text>
</g>
<!-- LangQuiz_Headless_Remote&#45;&gt;SpeechSynthesis -->
<g id="edge19" class="edge">
<title>LangQuiz_Headless_Remote&#45;&gt;SpeechSynthesis</title>
<path fill="none" stroke="LightSteelBlue" stroke-width="1.5" d="M1445.15,-537.29C1447.94,-524.63 1449.7,-510.22 1448,-497 1437.66,-416.58 1410.76,-325.99 1393.2,-272.43"/>
<polygon fill="LightSteelBlue" stroke="LightSteelBlue" stroke-width="1.5" points="1396.57,-271.48 1390.1,-263.09 1389.93,-273.68 1396.57,-271.48"/>
<text xml:space="preserve" text-anchor="middle" x="1541.67" y="-498.6" font-family="Times,serif" font-size="22.00">Local Client Speaker</text>
</g>
<!-- VideoLibrary -->
<g id="node12" class="node">
<title>VideoLibrary</title>
<path fill="#fff2cc" stroke="#333333" d="M1860.5,-101C1860.5,-101 1703.5,-101 1703.5,-101 1697.5,-101 1691.5,-95 1691.5,-89 1691.5,-89 1691.5,-41 1691.5,-41 1691.5,-35 1697.5,-29 1703.5,-29 1703.5,-29 1860.5,-29 1860.5,-29 1866.5,-29 1872.5,-35 1872.5,-41 1872.5,-41 1872.5,-89 1872.5,-89 1872.5,-95 1866.5,-101 1860.5,-101"/>
<text xml:space="preserve" text-anchor="middle" x="1782" y="-66.9" font-family="Helvetica,sans-Serif" font-size="28.00">Video Library</text>
<text xml:space="preserve" text-anchor="middle" x="1782" y="-38.4" font-family="Helvetica,sans-Serif" font-size="28.00">(Storage)</text>
</g>
<!-- Preprocessing&#45;&gt;VideoLibrary -->
<g id="edge12" class="edge">
<title>Preprocessing&#45;&gt;VideoLibrary</title>
<path fill="none" stroke="LightSteelBlue" stroke-width="1.5" d="M749.58,-188.01C768.28,-185.23 786.97,-182.66 805,-180.5 1120.42,-142.62 1204.09,-178.82 1518,-130 1571.81,-121.63 1630.8,-107.79 1679.34,-95.12"/>
<polygon fill="LightSteelBlue" stroke="LightSteelBlue" stroke-width="1.5" points="1680.15,-98.52 1688.93,-92.59 1678.36,-91.75 1680.15,-98.52"/>
<text xml:space="preserve" text-anchor="middle" x="1482.92" y="-149.6" font-family="Times,serif" font-size="22.00">Reads Video / Writes SRT</text>
</g>
<!-- Dictation&#45;&gt;ANE -->
<g id="edge26" class="edge">
<title>Dictation&#45;&gt;ANE</title>
<path fill="none" stroke="#333333" stroke-width="1.5" stroke-dasharray="5,2" d="M1008,-188.15C1008,-174.57 1008,-158.47 1008,-142.5"/>
<polygon fill="#333333" stroke="#333333" stroke-width="1.5" points="1011.5,-142.63 1008,-132.63 1004.5,-142.63 1011.5,-142.63"/>
</g>
<!-- SpeechSynthesis&#45;&gt;ANE -->
<g id="edge27" class="edge">
<title>SpeechSynthesis&#45;&gt;ANE</title>
<path fill="none" stroke="#333333" stroke-width="1.5" stroke-dasharray="5,2" d="M1294.19,-188.15C1257.44,-172.47 1212.86,-153.44 1169.94,-135.12"/>
<polygon fill="#333333" stroke="#333333" stroke-width="1.5" points="1171.44,-131.95 1160.86,-131.25 1168.69,-138.39 1171.44,-131.95"/>
</g>
<!-- VideoLibrary&#45;&gt;GermanAPI -->
<g id="edge13" class="edge">
<title>VideoLibrary&#45;&gt;GermanAPI</title>
<path fill="none" stroke="LightSteelBlue" stroke-width="1.5" d="M1810.52,-101.31C1827.8,-123.43 1849.76,-152.89 1867,-180.5 1942,-300.61 2014.48,-451.54 2049.02,-526.23"/>
<polygon fill="LightSteelBlue" stroke="LightSteelBlue" stroke-width="1.5" points="2045.72,-527.44 2053.08,-535.06 2052.08,-524.51 2045.72,-527.44"/>
<text xml:space="preserve" text-anchor="middle" x="2159.96" y="-214.85" font-family="Times,serif" font-size="22.00">Mounts / Serves Static Media</text>
</g>
</g>
</svg>
