<svg xmlns="http://www.w3.org/2000/svg" xmlns:xlink="http://www.w3.org/1999/xlink" contentStyleType="text/css" data-diagram-type="DESCRIPTION" height="1030px" preserveAspectRatio="none" style="width:1565px;height:1030px;background:#FCFBF9;" version="1.1" viewBox="0 0 1565 1030" width="1565px" zoomAndPan="magnify"><defs/><g><rect fill="#FCFBF9" height="1030" style="stroke:none;stroke-width:1;" width="1565" x="0" y="0"/><!--cluster Remote Access Layer (Client Machine)--><g class="cluster" data-entity="Remote Access Layer .Client Machine." data-source-line="36" data-uid="ent0002" id="cluster_Remote Access Layer .Client Machine."><rect fill="#E8EAF6" height="679" rx="5" ry="5" style="stroke:#3F51B5;stroke-width:1;" width="375" x="1184" y="7"/><text fill="#000000" font-family="Helvetica" font-size="14" font-style="italic" lengthAdjust="spacing" textLength="59.1445" x="1341.9277" y="19.7803">&#171;remote&#187;</text><text fill="#000000" font-family="Helvetica" font-size="14" font-weight="bold" lengthAdjust="spacing" textLength="257.5303" x="1242.7349" y="33.7803">Remote Access Layer (Client Machine)</text></g><!--cluster macOS Native Host--><g class="cluster" data-entity="macOS Native Host" data-source-line="50" data-uid="ent0012" id="cluster_macOS Native Host"><rect fill="#F2F2F2" height="1017" rx="5" ry="5" style="stroke:#444444;stroke-width:1;" width="1153" x="7" y="7"/><text fill="#000000" font-family="Helvetica" font-size="14" font-style="italic" lengthAdjust="spacing" textLength="42.0342" x="562.4829" y="19.7803">&#171;host&#187;</text><text fill="#000000" font-family="Helvetica" font-size="14" font-weight="bold" lengthAdjust="spacing" textLength="129.1582" x="518.9209" y="33.7803">macOS Native Host</text></g><!--cluster Project B: LangQuiz Core (Swift)--><g class="cluster" data-entity="Project B. LangQuiz Core .Swift." data-source-line="55" data-uid="ent0014" id="cluster_Project B. LangQuiz Core .Swift."><rect fill="#E1F5FE" height="356" rx="5" ry="5" style="stroke:#1976D2;stroke-width:1;" width="453" x="31" y="337"/><text fill="#000000" font-family="Helvetica" font-size="14" font-style="italic" lengthAdjust="spacing" textLength="66.9307" x="224.0347" y="349.7803">&#171;projectB&#187;</text><text fill="#000000" font-family="Helvetica" font-size="14" font-weight="bold" lengthAdjust="spacing" textLength="216.2275" x="149.3862" y="363.7803">Project B: LangQuiz Core (Swift)</text></g><!--cluster Native AI Engines--><g class="cluster" data-entity="Native AI Engines" data-source-line="66" data-uid="ent0020" id="cluster_Native AI Engines"><rect fill="#E9EB9F" height="152" rx="5" ry="5" style="stroke:#181818;stroke-width:1;" width="331" x="670" y="344"/><text fill="#000000" font-family="Helvetica" font-size="14" font-style="italic" lengthAdjust="spacing" textLength="64.6133" x="803.1934" y="356.7803">&#171;engines&#187;</text><text fill="#000000" font-family="Helvetica" font-size="14" font-weight="bold" lengthAdjust="spacing" textLength="118.2549" x="776.3726" y="370.7803">Native AI Engines</text></g><!--cluster Apple Container (Project A)--><g class="cluster" data-entity="Apple Container .Project A." data-source-line="74" data-uid="ent0025" id="cluster_Apple Container .Project A."><rect fill="#E7D9C6" height="452" rx="5" ry="5" style="stroke:#455A64;stroke-width:1;" width="472" x="508" y="548"/><text fill="#000000" font-family="Helvetica" font-size="14" font-style="italic" lengthAdjust="spacing" textLength="73.165" x="707.4175" y="560.7803">&#171;container&#187;</text><text fill="#000000" font-family="Helvetica" font-size="14" font-weight="bold" lengthAdjust="spacing" textLength="182.793" x="652.6035" y="574.7803">Apple Container (Project A)</text></g><!--cluster LogicService--><g class="cluster" data-entity="LogicService" data-source-line="77" data-uid="ent0027" id="cluster_LogicService"><rect fill="#F1F8E9" height="236" rx="5" ry="5" style="stroke:#181818;stroke-width:1;" width="424" x="532" y="740"/><text fill="#000000" font-family="Helvetica" font-size="14" font-weight="bold" lengthAdjust="spacing" textLength="156.3721" x="665.814" y="752.7803">Hybrid Analysis Engine</text></g><!--entity ClientInput--><g class="entity" data-entity="ClientInput" data-source-line="37" data-uid="ent0003" id="entity_ClientInput"><polygon fill="#F5F5F5" points="1200.25,432,1210.25,422,1357.7598,422,1357.7598,470,1347.7598,480,1200.25,480,1200.25,432" style="stroke:#666666;stroke-width:0.5;"/><line style="stroke:#666666;stroke-width:0.5;" x1="1347.7598" x2="1357.7598" y1="432" y2="422"/><line style="stroke:#666666;stroke-width:0.5;" x1="1200.25" x2="1347.7598" y1="432" y2="432"/><line style="stroke:#666666;stroke-width:0.5;" x1="1347.7598" x2="1347.7598" y1="432" y2="480"/><text fill="#000000" font-family="Helvetica" font-size="14" font-style="italic" lengthAdjust="spacing" textLength="53.7168" x="1247.1465" y="452.7803">&#171;box3d&#187;</text><text fill="#000000" font-family="Helvetica" font-size="14" lengthAdjust="spacing" textLength="113.6201" x="1215.25" y="466.7803">Keyboard / Mouse</text></g><!--entity ClientHW--><g class="entity" data-entity="ClientHW" data-source-line="38" data-uid="ent0004" id="entity_ClientHW"><polygon fill="#F5F5F5" points="1332.08,95,1342.08,85,1505.914,85,1505.914,133,1495.914,143,1332.08,143,1332.08,95" style="stroke:#666666;stroke-width:0.5;"/><line style="stroke:#666666;stroke-width:0.5;" x1="1495.914" x2="1505.914" y1="95" y2="85"/><line style="stroke:#666666;stroke-width:0.5;" x1="1332.08" x2="1495.914" y1="95" y2="95"/><line style="stroke:#666666;stroke-width:0.5;" x1="1495.914" x2="1495.914" y1="95" y2="143"/><text fill="#000000" font-family="Helvetica" font-size="14" font-style="italic" lengthAdjust="spacing" textLength="53.7168" x="1387.1386" y="115.7803">&#171;box3d&#187;</text><text fill="#000000" font-family="Helvetica" font-size="14" lengthAdjust="spacing" textLength="129.9443" x="1347.08" y="129.7803">Local Mic / Speakers</text></g><!--entity ClientSpeech--><g class="entity" data-entity="ClientSpeech" data-source-line="39" data-uid="ent0005" id="entity_ClientSpeech"><polygon fill="#E1F5FE" points="1295.12,228,1305.12,218,1542.8778,218,1542.8778,266,1532.8778,276,1295.12,276,1295.12,228" style="stroke:#666666;stroke-width:0.5;"/><line style="stroke:#666666;stroke-width:0.5;" x1="1532.8778" x2="1542.8778" y1="228" y2="218"/><line style="stroke:#666666;stroke-width:0.5;" x1="1295.12" x2="1532.8778" y1="228" y2="228"/><line style="stroke:#666666;stroke-width:0.5;" x1="1532.8778" x2="1532.8778" y1="228" y2="276"/><text fill="#000000" font-family="Helvetica" font-size="14" font-style="italic" lengthAdjust="spacing" textLength="100.3926" x="1363.8026" y="248.7803">&#171;parallelogram&#187;</text><text fill="#000000" font-family="Helvetica" font-size="14" lengthAdjust="spacing" textLength="207.7578" x="1310.12" y="262.7803">Apple Speech Framework (Local)</text></g><!--entity ClientAgent--><g class="entity" data-entity="ClientAgent" data-source-line="40" data-uid="ent0006" id="entity_ClientAgent"><polygon fill="#FFF9C4" points="1392.75,439,1402.75,429,1543.2598,429,1543.2598,463,1533.2598,473,1392.75,473,1392.75,439" style="stroke:#666666;stroke-width:0.5;"/><line style="stroke:#666666;stroke-width:0.5;" x1="1533.2598" x2="1543.2598" y1="439" y2="429"/><line style="stroke:#666666;stroke-width:0.5;" x1="1392.75" x2="1533.2598" y1="439" y2="439"/><line style="stroke:#666666;stroke-width:0.5;" x1="1533.2598" x2="1533.2598" y1="439" y2="473"/><text fill="#000000" font-family="Helvetica" font-size="14" lengthAdjust="spacing" textLength="110.5098" x="1407.75" y="459.7803">Swift Audio Agent</text></g><!--entity RemoteClient--><g class="entity" data-entity="RemoteClient" data-source-line="41" data-uid="ent0007" id="entity_RemoteClient"><polygon fill="#FFFFFF" points="1199.98,636,1209.98,626,1422.0279,626,1422.0279,660,1412.0279,670,1199.98,670,1199.98,636" style="stroke:#666666;stroke-width:0.5;"/><line style="stroke:#666666;stroke-width:0.5;" x1="1412.0279" x2="1422.0279" y1="636" y2="626"/><line style="stroke:#666666;stroke-width:0.5;" x1="1199.98" x2="1412.0279" y1="636" y2="636"/><line style="stroke:#666666;stroke-width:0.5;" x1="1412.0279" x2="1412.0279" y1="636" y2="670"/><text fill="#000000" font-family="Helvetica" font-size="14" lengthAdjust="spacing" textLength="182.0479" x="1214.98" y="656.7803">Web Browser (RemoteClient)</text></g><!--entity HostInput--><g class="entity" data-entity="HostInput" data-source-line="53" data-uid="ent0013" id="entity_HostInput"><polygon fill="#F5F5F5" points="113.85,95,123.85,85,300.1459,85,300.1459,133,290.1459,143,113.85,143,113.85,95" style="stroke:#666666;stroke-width:0.5;"/><line style="stroke:#666666;stroke-width:0.5;" x1="290.1459" x2="300.1459" y1="95" y2="85"/><line style="stroke:#666666;stroke-width:0.5;" x1="113.85" x2="290.1459" y1="95" y2="95"/><line style="stroke:#666666;stroke-width:0.5;" x1="290.1459" x2="290.1459" y1="95" y2="143"/><text fill="#000000" font-family="Helvetica" font-size="14" font-style="italic" lengthAdjust="spacing" textLength="53.7168" x="175.1396" y="115.7803">&#171;box3d&#187;</text><text fill="#000000" font-family="Helvetica" font-size="14" lengthAdjust="spacing" textLength="146.2959" x="128.85" y="129.7803">Host Keyboard / Mouse</text></g><!--entity LocalWeb--><g class="entity" data-entity="LocalWeb" data-source-line="64" data-uid="ent0019" id="entity_LocalWeb"><polygon fill="#FFFFFF" points="268.26,235,278.26,225,467.7493,225,467.7493,259,457.7493,269,268.26,269,268.26,235" style="stroke:#666666;stroke-width:0.5;"/><line style="stroke:#666666;stroke-width:0.5;" x1="457.7493" x2="467.7493" y1="235" y2="225"/><line style="stroke:#666666;stroke-width:0.5;" x1="268.26" x2="457.7493" y1="235" y2="235"/><line style="stroke:#666666;stroke-width:0.5;" x1="457.7493" x2="457.7493" y1="235" y2="269"/><text fill="#000000" font-family="Helvetica" font-size="14" lengthAdjust="spacing" textLength="159.4893" x="283.26" y="255.7803">Web Browser (LocalHost)</text></g><!--entity Pipeline--><g class="entity" data-entity="Pipeline" data-source-line="71" data-uid="ent0023" id="entity_Pipeline"><polygon fill="#FFE0B2" points="836.02,235,846.02,225,1019.978,225,1019.978,259,1009.978,269,836.02,269,836.02,235" style="stroke:#666666;stroke-width:0.5;"/><line style="stroke:#666666;stroke-width:0.5;" x1="1009.978" x2="1019.978" y1="235" y2="225"/><line style="stroke:#666666;stroke-width:0.5;" x1="836.02" x2="1009.978" y1="235" y2="235"/><line style="stroke:#666666;stroke-width:0.5;" x1="1009.978" x2="1009.978" y1="235" y2="269"/><text fill="#000000" font-family="Helvetica" font-size="14" lengthAdjust="spacing" textLength="143.958" x="851.02" y="255.7803">Native Pipeline Service</text></g><!--entity HW--><g class="entity" data-entity="HW" data-source-line="72" data-uid="ent0024" id="entity_HW"><polygon fill="#EEEEEE" points="995.92,793,1005.92,783,1144.0714,783,1144.0714,831,1134.0714,841,995.92,841,995.92,793" style="stroke:#666666;stroke-width:0.5;"/><line style="stroke:#666666;stroke-width:0.5;" x1="1134.0714" x2="1144.0714" y1="793" y2="783"/><line style="stroke:#666666;stroke-width:0.5;" x1="995.92" x2="1134.0714" y1="793" y2="793"/><line style="stroke:#666666;stroke-width:0.5;" x1="1134.0714" x2="1134.0714" y1="793" y2="841"/><text fill="#000000" font-family="Helvetica" font-size="14" font-style="italic" lengthAdjust="spacing" textLength="53.7168" x="1038.1373" y="813.7803">&#171;box3d&#187;</text><text fill="#000000" font-family="Helvetica" font-size="14" lengthAdjust="spacing" textLength="108.1514" x="1010.92" y="827.7803">Apple Silicon HW</text></g><!--entity ConvMgr--><g class="entity" data-entity="ConvMgr" data-source-line="56" data-uid="ent0015" id="entity_ConvMgr"><polygon fill="#FFF9C4" points="46.64,432,56.64,422,231.3568,422,231.3568,470,221.3568,480,46.64,480,46.64,432" style="stroke:#666666;stroke-width:0.5;"/><line style="stroke:#666666;stroke-width:0.5;" x1="221.3568" x2="231.3568" y1="432" y2="422"/><line style="stroke:#666666;stroke-width:0.5;" x1="46.64" x2="221.3568" y1="432" y2="432"/><line style="stroke:#666666;stroke-width:0.5;" x1="221.3568" x2="221.3568" y1="432" y2="480"/><text fill="#000000" font-family="Helvetica" font-size="14" lengthAdjust="spacing" textLength="144.7168" x="61.64" y="452.7803">Swift Conversation Mgr</text><text fill="#000000" font-family="Helvetica" font-size="14" lengthAdjust="spacing" textLength="89.4893" x="61.64" y="466.7803">(Console App)</text></g><!--entity NativeAudio--><g class="entity" data-entity="NativeAudio" data-source-line="57" data-uid="ent0016" id="entity_NativeAudio"><polygon fill="#E1F5FE" points="266.46,425,276.46,415,467.5352,415,467.5352,477,457.5352,487,266.46,487,266.46,425" style="stroke:#666666;stroke-width:0.5;"/><line style="stroke:#666666;stroke-width:0.5;" x1="457.5352" x2="467.5352" y1="425" y2="415"/><line style="stroke:#666666;stroke-width:0.5;" x1="266.46" x2="457.5352" y1="425" y2="425"/><line style="stroke:#666666;stroke-width:0.5;" x1="457.5352" x2="457.5352" y1="425" y2="487"/><text fill="#000000" font-family="Helvetica" font-size="14" font-style="italic" lengthAdjust="spacing" textLength="100.3926" x="311.8013" y="445.7803">&#171;parallelogram&#187;</text><text fill="#000000" font-family="Helvetica" font-size="14" lengthAdjust="spacing" textLength="161.0752" x="281.46" y="459.7803">Apple Speech Framework</text><text fill="#000000" font-family="Helvetica" font-size="14" lengthAdjust="spacing" textLength="101.9033" x="281.46" y="473.7803">(TTS / Dictation)</text></g><!--entity HostAudioIO--><g class="entity" data-entity="HostAudioIO" data-source-line="59" data-uid="ent0017" id="entity_HostAudioIO"><polygon fill="#F5F5F5" points="284.37,629,294.37,619,449.6317,619,449.6317,667,439.6317,677,284.37,677,284.37,629" style="stroke:#666666;stroke-width:0.5;"/><line style="stroke:#666666;stroke-width:0.5;" x1="439.6317" x2="449.6317" y1="629" y2="619"/><line style="stroke:#666666;stroke-width:0.5;" x1="284.37" x2="439.6317" y1="629" y2="629"/><line style="stroke:#666666;stroke-width:0.5;" x1="439.6317" x2="439.6317" y1="629" y2="677"/><text fill="#000000" font-family="Helvetica" font-size="14" font-style="italic" lengthAdjust="spacing" textLength="53.7168" x="335.1425" y="649.7803">&#171;box3d&#187;</text><text fill="#000000" font-family="Helvetica" font-size="14" lengthAdjust="spacing" textLength="125.2617" x="299.37" y="663.7803">Host Mic / Speakers</text></g><!--entity Ollama--><g class="entity" data-entity="Ollama" data-source-line="67" data-uid="ent0021" id="entity_Ollama"><polygon fill="#FFF3E0" points="686.28,432,696.28,422,835.7136,422,835.7136,470,825.7136,480,686.28,480,686.28,432" style="stroke:#666666;stroke-width:0.5;"/><line style="stroke:#666666;stroke-width:0.5;" x1="825.7136" x2="835.7136" y1="432" y2="422"/><line style="stroke:#666666;stroke-width:0.5;" x1="686.28" x2="825.7136" y1="432" y2="432"/><line style="stroke:#666666;stroke-width:0.5;" x1="825.7136" x2="825.7136" y1="432" y2="480"/><text fill="#000000" font-family="Helvetica" font-size="14" font-style="italic" lengthAdjust="spacing" textLength="107.4336" x="702.28" y="452.7803">&#171;doubleoctagon&#187;</text><text fill="#000000" font-family="Helvetica" font-size="14" lengthAdjust="spacing" textLength="70.7998" x="720.5969" y="466.7803">Ollama API</text></g><!--entity Whisper--><g class="entity" data-entity="Whisper" data-source-line="68" data-uid="ent0022" id="entity_Whisper"><polygon fill="#F3E5F5" points="870.65,439,880.65,429,985.3531,429,985.3531,463,975.3531,473,870.65,473,870.65,439" style="stroke:#666666;stroke-width:0.5;"/><line style="stroke:#666666;stroke-width:0.5;" x1="975.3531" x2="985.3531" y1="439" y2="429"/><line style="stroke:#666666;stroke-width:0.5;" x1="870.65" x2="975.3531" y1="439" y2="439"/><line style="stroke:#666666;stroke-width:0.5;" x1="975.3531" x2="975.3531" y1="439" y2="473"/><text fill="#000000" font-family="Helvetica" font-size="14" lengthAdjust="spacing" textLength="74.7031" x="885.65" y="459.7803">whisper.cpp</text></g><!--entity FastAPI--><g class="entity" data-entity="FastAPI" data-source-line="75" data-uid="ent0026" id="entity_FastAPI"><polygon fill="#E0F2F1" points="623.2,636,633.2,626,790.7928,626,790.7928,660,780.7928,670,623.2,670,623.2,636" style="stroke:#666666;stroke-width:0.5;"/><line style="stroke:#666666;stroke-width:0.5;" x1="780.7928" x2="790.7928" y1="636" y2="626"/><line style="stroke:#666666;stroke-width:0.5;" x1="623.2" x2="780.7928" y1="636" y2="636"/><line style="stroke:#666666;stroke-width:0.5;" x1="780.7928" x2="780.7928" y1="636" y2="670"/><text fill="#000000" font-family="Helvetica" font-size="14" lengthAdjust="spacing" textLength="127.5928" x="638.2" y="656.7803">FastAPI Web Server</text></g><!--entity Assets--><g class="entity" data-entity="Assets" data-source-line="83" data-uid="ent0031" id="entity_Assets"><path d="M896.99,636.5 C896.99,626.5 927.9968,626.5 927.9968,626.5 C927.9968,626.5 959.0037,626.5 959.0037,636.5 L959.0037,659.5 C959.0037,669.5 927.9968,669.5 927.9968,669.5 C927.9968,669.5 896.99,669.5 896.99,659.5 L896.99,636.5" fill="#FFFFFF" style="stroke:#181818;stroke-width:0.5;"/><path d="M896.99,636.5 C896.99,646.5 927.9968,646.5 927.9968,646.5 C927.9968,646.5 959.0037,646.5 959.0037,636.5" fill="none" style="stroke:#181818;stroke-width:0.5;"/><text fill="#000000" font-family="Helvetica" font-size="14" lengthAdjust="spacing" textLength="42.0137" x="906.99" y="661.2803">Assets</text></g><!--entity Spacy--><g class="entity" data-entity="Spacy" data-source-line="78" data-uid="ent0028" id="entity_Spacy"><polygon fill="#E8F5E9" points="583.42,800,593.42,790,752.585,790,752.585,824,742.585,834,583.42,834,583.42,800" style="stroke:#666666;stroke-width:0.5;"/><line style="stroke:#666666;stroke-width:0.5;" x1="742.585" x2="752.585" y1="800" y2="790"/><line style="stroke:#666666;stroke-width:0.5;" x1="583.42" x2="742.585" y1="800" y2="800"/><line style="stroke:#666666;stroke-width:0.5;" x1="742.585" x2="742.585" y1="800" y2="834"/><text fill="#000000" font-family="Helvetica" font-size="14" lengthAdjust="spacing" textLength="129.165" x="598.42" y="820.7803">spaCy NLP Analyzer</text></g><!--entity Logic--><g class="entity" data-entity="Logic" data-source-line="79" data-uid="ent0029" id="entity_Logic"><polygon fill="#FFF9C4" points="547.86,926,557.86,916,734.1491,916,734.1491,950,724.1491,960,547.86,960,547.86,926" style="stroke:#666666;stroke-width:0.5;"/><line style="stroke:#666666;stroke-width:0.5;" x1="724.1491" x2="734.1491" y1="926" y2="916"/><line style="stroke:#666666;stroke-width:0.5;" x1="547.86" x2="724.1491" y1="926" y2="926"/><line style="stroke:#666666;stroke-width:0.5;" x1="724.1491" x2="724.1491" y1="926" y2="960"/><text fill="#000000" font-family="Helvetica" font-size="14" lengthAdjust="spacing" textLength="146.2891" x="562.86" y="946.7803">Grammar Lookup Logic</text></g><!--entity Kaikki--><g class="entity" data-entity="Kaikki" data-source-line="80" data-uid="ent0030" id="entity_Kaikki"><path d="M816.26,926.5 C816.26,916.5 877.9978,916.5 877.9978,916.5 C877.9978,916.5 939.7356,916.5 939.7356,926.5 L939.7356,949.5 C939.7356,959.5 877.9978,959.5 877.9978,959.5 C877.9978,959.5 816.26,959.5 816.26,949.5 L816.26,926.5" fill="#FFFFFF" style="stroke:#181818;stroke-width:0.5;"/><path d="M816.26,926.5 C816.26,936.5 877.9978,936.5 877.9978,936.5 C877.9978,936.5 939.7356,936.5 939.7356,926.5" fill="none" style="stroke:#181818;stroke-width:0.5;"/><text fill="#000000" font-family="Helvetica" font-size="14" lengthAdjust="spacing" textLength="103.4756" x="826.26" y="951.2803">Kaikki Dictionary</text></g><!--link ClientInput to RemoteClient--><g class="link" data-entity-1="ClientInput" data-entity-2="RemoteClient" data-source-line="43" data-uid="lnk8" id="link_ClientInput_RemoteClient"><path d="M1283.65,480.35 C1290.12,519.75 1300.7083,584.2692 1306.5083,619.6092" fill="none" id="ClientInput-to-RemoteClient" style="stroke:#181818;stroke-width:1;"/><polygon fill="#181818" points="1307.48,625.53,1309.9696,616.001,1306.6702,620.596,1302.0752,617.2966,1307.48,625.53" style="stroke:#181818;stroke-width:1;"/><text fill="#000000" font-family="Helvetica" font-size="13" lengthAdjust="spacing" textLength="58.519" x="1292.19" y="528.0103">UI Control</text></g><!--link ClientHW to ClientSpeech--><g class="link" data-entity-1="ClientHW" data-entity-2="ClientSpeech" data-source-line="44" data-uid="lnk9" id="link_ClientHW_ClientSpeech"><path d="M1419,143.42 C1419,165.4 1419,189.67 1419,211.63" fill="none" id="ClientHW-to-ClientSpeech" style="stroke:#181818;stroke-width:1;"/><polygon fill="#181818" points="1419,217.63,1423,208.63,1419,212.63,1415,208.63,1419,217.63" style="stroke:#181818;stroke-width:1;"/><text fill="#000000" font-family="Helvetica" font-size="13" lengthAdjust="spacing" textLength="54.1963" x="1420" y="184.0103">Audio I/O</text></g><!--link ClientSpeech to ClientAgent--><g class="link" data-entity-1="ClientSpeech" data-entity-2="ClientAgent" data-source-line="45" data-uid="lnk10" id="link_ClientSpeech_ClientAgent"><path d="M1425.81,276.09 C1435.73,316.96 1452.4944,386.0994 1461.4044,422.7994" fill="none" id="ClientSpeech-to-ClientAgent" style="stroke:#181818;stroke-width:1;"/><polygon fill="#181818" points="1462.82,428.63,1464.5838,418.9404,1461.6404,423.7711,1456.8096,420.8278,1462.82,428.63" style="stroke:#181818;stroke-width:1;"/><text fill="#000000" font-family="Helvetica" font-size="13" lengthAdjust="spacing" textLength="70.0654" x="1437.25" y="317.0103">STT Stream</text></g><!--link ClientAgent to RemoteClient--><g class="link" data-entity-1="ClientAgent" data-entity-2="RemoteClient" data-source-line="46" data-uid="lnk11" id="link_ClientAgent_RemoteClient"><path d="M1450.9,473.24 C1420.7,510.75 1362.0224,583.6262 1331.8424,621.1162" fill="none" id="ClientAgent-to-RemoteClient" style="stroke:#181818;stroke-width:1;"/><polygon fill="#181818" points="1328.08,625.79,1336.8395,621.2877,1331.2154,621.8952,1330.6078,616.2711,1328.08,625.79" style="stroke:#181818;stroke-width:1;"/><text fill="#000000" font-family="Helvetica" font-size="13" lengthAdjust="spacing" textLength="112.7026" x="1413.74" y="528.0103">Text Injection / TTS</text></g><!--link NativeAudio to HostAudioIO--><g class="link" data-entity-1="NativeAudio" data-entity-2="HostAudioIO" data-source-line="60" data-uid="lnk18" id="link_NativeAudio_HostAudioIO"><path d="M336.19,487.32 C329.96,496.42 324.31,506.59 321,517 C309.79,552.25 325.6108,587.2559 342.5008,613.4759" fill="none" id="NativeAudio-to-HostAudioIO" style="stroke:#181818;stroke-width:1;"/><polygon fill="#181818" points="345.75,618.52,344.2389,608.7878,343.0423,614.3166,337.5135,613.12,345.75,618.52" style="stroke:#181818;stroke-width:1;"/><text fill="#000000" font-family="Helvetica" font-size="13" lengthAdjust="spacing" textLength="54.1963" x="322" y="528.0103">Audio I/O</text></g><!--link FastAPI to Spacy--><g class="link" data-entity-1="FastAPI" data-entity-2="Spacy" data-source-line="85" data-uid="lnk32" id="link_FastAPI_Spacy"><path d="M657.88,670.36 C642.24,679.79 626.75,692.55 618,709 C603.37,736.51 621.75,764.53 641.11,785.31" fill="none" id="FastAPI-to-Spacy" style="stroke:#181818;stroke-width:1;"/><polygon fill="#181818" points="645.2,789.7,641.9917,780.3884,641.7917,786.0417,636.1384,785.8417,645.2,789.7" style="stroke:#181818;stroke-width:1;"/><text fill="#000000" font-family="Helvetica" font-size="13" lengthAdjust="spacing" textLength="62.8608" x="619" y="720.0103">1. Analysis</text></g><!--link Spacy to Logic--><g class="link" data-entity-1="Spacy" data-entity-2="Logic" data-source-line="86" data-uid="lnk33" id="link_Spacy_Logic"><path d="M663.36,834.32 C658.41,857.03 651.907,886.9175 646.947,909.6875" fill="none" id="Spacy-to-Logic" style="stroke:#181818;stroke-width:1;"/><polygon fill="#181818" points="645.67,915.55,651.4939,907.6076,646.7342,910.6646,643.6772,905.9049,645.67,915.55" style="stroke:#181818;stroke-width:1;"/><text fill="#000000" font-family="Helvetica" font-size="13" lengthAdjust="spacing" textLength="88.8672" x="656.31" y="882.0103">2. POS/Lemma</text></g><!--link Logic to Kaikki--><g class="link" data-entity-1="Logic" data-entity-2="Kaikki" data-source-line="87" data-uid="lnk34" id="link_Logic_Kaikki"><path d="M734.33,938 C761.79,938 785.14,938 810.11,938" fill="none" id="Logic-to-Kaikki" style="stroke:#181818;stroke-width:1;"/><polygon fill="#181818" points="816.11,938,807.11,934,811.11,938,807.11,942,816.11,938" style="stroke:#181818;stroke-width:1;"/><text fill="#000000" font-family="Helvetica" font-size="13" lengthAdjust="spacing" textLength="46.9663" x="752.2" y="931.0103">3. Fetch</text></g><!--link HostInput to ConvMgr--><g class="link" data-entity-1="HostInput" data-entity-2="ConvMgr" data-source-line="91" data-uid="lnk35" id="link_HostInput_ConvMgr"><path d="M189.74,143.17 C178.35,163.26 164.23,191.33 157,218 C137.66,289.36 136.6252,371.2517 137.6952,415.5717" fill="none" id="HostInput-to-ConvMgr" style="stroke:#181818;stroke-width:1;"/><polygon fill="#181818" points="137.84,421.57,141.6216,412.4761,137.7193,416.5715,133.6239,412.6692,137.84,421.57" style="stroke:#181818;stroke-width:1;"/><text fill="#000000" font-family="Helvetica" font-size="13" lengthAdjust="spacing" textLength="92.4917" x="158" y="250.5103">Command Input</text></g><!--link HostInput to LocalWeb--><g class="link" data-entity-1="HostInput" data-entity-2="LocalWeb" data-source-line="92" data-uid="lnk36" id="link_HostInput_LocalWeb"><path d="M241.93,143.42 C271.9,167.81 309.7657,198.6235 336.9557,220.7435" fill="none" id="HostInput-to-LocalWeb" style="stroke:#181818;stroke-width:1;"/><polygon fill="#181818" points="341.61,224.53,337.1528,215.7474,337.7314,221.3746,332.1042,221.9532,341.61,224.53" style="stroke:#181818;stroke-width:1;"/><text fill="#000000" font-family="Helvetica" font-size="13" lengthAdjust="spacing" textLength="111.9917" x="293.33" y="184.0103">Browser Interaction</text></g><!--link LocalWeb to FastAPI--><g class="link" data-entity-1="LocalWeb" data-entity-2="FastAPI" data-source-line="98" data-uid="lnk37" id="link_LocalWeb_FastAPI"><path d="M454.98,269.45 C474.75,277.96 494.02,289.74 508,306 C567.11,374.73 511.49,425.6 557,504 C586.98,555.65 636.3047,596.9112 670.6847,622.0212" fill="none" id="LocalWeb-to-FastAPI" style="stroke:#181818;stroke-width:1;"/><polygon fill="#181818" points="675.53,625.56,670.6213,617.0216,671.4923,622.611,665.9029,623.4819,675.53,625.56" style="stroke:#181818;stroke-width:1;"/><text fill="#000000" font-family="Helvetica" font-size="13" lengthAdjust="spacing" textLength="111.998" x="558" y="454.5103">Request (localhost)</text></g><!--link LocalWeb to ConvMgr--><g class="link" data-entity-1="LocalWeb" data-entity-2="ConvMgr" data-source-line="99" data-uid="lnk38" id="link_LocalWeb_ConvMgr"><path d="M325.2556,272.5778 C307.9456,282.9678 292.54,292.92 275,306 C229.25,340.13 189.4005,385.8667 164.3905,417.0967" fill="none" id="LocalWeb-ConvMgr" style="stroke:#181818;stroke-width:1;"/><polygon fill="#181818" points="330.4,269.49,320.6248,270.6922,326.113,272.0632,324.7419,277.5514,330.4,269.49" style="stroke:#181818;stroke-width:1;"/><polygon fill="#181818" points="160.64,421.78,169.388,417.2554,163.7655,417.8772,163.1436,412.2547,160.64,421.78" style="stroke:#181818;stroke-width:1;"/><text fill="#000000" font-family="Helvetica" font-size="13" lengthAdjust="spacing" textLength="147.3735" x="276" y="317.0103">JS Bridge (TTS/Dictation)</text></g><!--link RemoteClient to FastAPI--><g class="link" data-entity-1="RemoteClient" data-entity-2="FastAPI" data-source-line="100" data-uid="lnk39" id="link_RemoteClient_FastAPI"><path d="M1271.45,625.52 C1195.14,585.06 1022.44,507.66 879,546.75 C823,562.01 771.401,596.9855 739.131,621.8755" fill="none" id="RemoteClient-to-FastAPI" style="stroke:#181818;stroke-width:1;"/><polygon fill="#181818" points="734.38,625.54,743.9494,623.2106,738.3391,622.4863,739.0635,616.876,734.38,625.54" style="stroke:#181818;stroke-width:1;"/><text fill="#000000" font-family="Helvetica" font-size="13" lengthAdjust="spacing" textLength="91.0381" x="791.5" y="528.0103">Request (.local)</text></g><!--link Pipeline to Whisper--><g class="link" data-entity-1="Pipeline" data-entity-2="Whisper" data-source-line="103" data-uid="lnk40" id="link_Pipeline_Whisper"><path d="M928,269.24 C928,308.03 928,383.94 928,422.75" fill="none" id="Pipeline-to-Whisper" style="stroke:#181818;stroke-width:1;"/><polygon fill="#181818" points="928,428.75,932,419.75,928,423.75,924,419.75,928,428.75" style="stroke:#181818;stroke-width:1;"/><text fill="#000000" font-family="Helvetica" font-size="13" lengthAdjust="spacing" textLength="75.1372" x="929" y="317.0103">Transcription</text></g><!--link ConvMgr to Ollama--><g class="link" data-entity-1="ConvMgr" data-entity-2="Ollama" data-source-line="104" data-uid="lnk41" id="link_ConvMgr_Ollama"><path d="M158.02,421.5 C177.26,394.63 209.74,356.74 249,340.42 C337.85,303.48 596.44,296.39 682,340.42 C714.83,357.31 734.5357,389.4322 746.8357,416.0822" fill="none" id="ConvMgr-to-Ollama" style="stroke:#181818;stroke-width:1;"/><polygon fill="#181818" points="749.35,421.53,749.2103,411.6821,747.2547,416.9902,741.9466,415.0346,749.35,421.53" style="stroke:#181818;stroke-width:1;"/><text fill="#000000" font-family="Helvetica" font-size="13" lengthAdjust="spacing" textLength="66.4727" x="433" y="317.0103">Chat Query</text></g><!--reverse link Ollama to FastAPI--><g class="link" data-entity-1="Ollama" data-entity-2="FastAPI" data-source-line="105" data-uid="lnk43" id="link_Ollama_FastAPI"><path d="M813.817,483.4037 C827.917,491.4137 838.3,496.9 853,504 C866.82,510.68 876.43,504.27 885,517 C888.72,522.53 888.19,526.14 885,532 C877.15,546.42 793.71,596.64 743.9,625.73" fill="none" id="Ollama-backto-FastAPI" style="stroke:#181818;stroke-width:1;"/><polygon fill="#181818" points="808.6,480.44,814.4497,488.3635,812.9475,482.9097,818.4012,481.4075,808.6,480.44" style="stroke:#181818;stroke-width:1;"/><text fill="#000000" font-family="Helvetica" font-size="13" lengthAdjust="spacing" textLength="102.9526" x="888.6" y="528.0103">4. Facts + Prompt</text></g><!--link FastAPI to HW--><g class="link" data-entity-1="FastAPI" data-entity-2="HW" data-source-line="106" data-uid="lnk44" id="link_FastAPI_HW"><path d="M778.84,670.46 C840.62,689.37 924.57,716.28 956,732 C984,746.01 1008.1759,762.5389 1029.8959,778.9789" fill="none" id="FastAPI-to-HW" style="stroke:#181818;stroke-width:1;"/><polygon fill="#181818" points="1034.68,782.6,1029.9179,773.9789,1030.6933,779.5824,1025.0898,780.3577,1034.68,782.6" style="stroke:#181818;stroke-width:1;"/><text fill="#000000" font-family="Helvetica" font-size="13" lengthAdjust="spacing" textLength="103.3208" x="937.35" y="720.0103">GPU Acceleration</text></g><!--SRC=[XLRTRjf85BxdAKxBHK6h_92_5XHLCewTq4AWc2PQQQLgi2V6nNYyOqDAgZx2Fi1gh_e0qRv1RsZUQy_Cs6OCeJlSc9dp-vtld9aNCIV-Z42oy7iq9Hv92ToHCA6LoYkuUPY4rAiaqo2A2ISp61DtwdCsZpoNXOn3rJRjjjtK9989yTXz4FcPbVM9L3CPZoY7ng5sS47lo3nCRHQbrsH6uOg62ve6BX4Xu64G1Iv5rvmkAYyyyPz2jtDjVJBxtVuGgYTo5KTczwCpieQVhlhE20Cy4h-jmy6m_-vJ6wfMmpwrhQrZityzCj05MhTCoxORMn93gzSVMNZynZBiiugU9tLJ4laXXQyLmDKkC3C5PkVd4vQaRz-MubI2Z7kKbuNMUJvlA-RiC_fhQ_PKQjiMDT5ge_dwxEBeUPCkre5WgbopMU2nRLONhvwSdXfd9y_RvNJ6KgePLH1kMom4gyVsQQDzMlccmninRmUoM6ovDYr2zKmkkIzObkqUoYMiluAzlJsuw1YNGwCdliLMLc6psx6kHz0pp2i4eBAkxikXZ1CCrwL90bsoH6BNp32WKGezuauGbFfBqF9HKSi4Nhwdop4Zt8C3wB5vWZj04b3QdIYUfwWuPb-EFO43SXH_cdQNkII4Nk2YkXDJCgKyqIrStVvItOXZJ00LgJi16r6bzunFeIRDrZKxcGYI1x4FGneo7wM5pQnnrZQT- -0k1MFk1GmC7tKrC_A_B4_JFD5qRkaOsfpT9m8v1QTIK37eEqLnfRgEqnxEcsZlRLcw1HyxO6AjEGir3SGb5oybsCe2xnpqDUdiiAoXScc1Cng1at9APfg6EjmHqOX-IQ4JYIOCM8IL6uqSnRuPSViEN1kZpeq5ScxL76juOmthEjyoAP862noIE1y4kR8vyLNXyWekGpPUVG-ZrICiadGUYuy7ylJtwl61Yc-S0Y1qWfI6L2k5i0URf9HL42Ux62aDQ24Er8o1TWlx8V8_p8C7h0Adc8-WXsm7RGwfXjZa49PjWNmc4gMUp_-8QhYLC7I0nCteYJ9uLEBK__4RxI3YcDj5W04BwtNLCmfInO3TLD_m8G4hTs01bpJLwU_eGR5qbpbTTCrDGdxBwzjbqwoyYECaN3q-_Q0__uBnpt-UVgmUNToFI57WO5UloKON_XIQygyGA3MPLjUCT4O7hCZ7kPQ8GbBrARAZJJfktctLin-61DyMng0ZtMH_pyyzDX-7bA5vdqKI7Ti-jWutjEydGH9Jlk_6iLI_LVzH-jZAiSnmKGfPb8CWnjJnhdOeN-3JGIeNc-ZBEcmVRK_380pmBeEhMrN6qWIrvDg2HMcQ-Gq8jPp_XcHwwMgahxscUxO5aKsmw8CE2FH5l9HBz_bsrJh4zqjZJJxD-zLop0CFZ8Y4ooH8ij9a1VK3DqiVCsxORwocvdhjFec9kOJhxa2PUSZSEp5nb-9nOvzQpMVKBh4rPeIZ7pQTnyhTsl5MLuebNfPZ8YwwzoIOJWFPXTY3X2-bPhQht-5QWSiMZ2IXgMetzLachhpdCm3pvb8PjQ2nNm1MoAgpN5Abq8AZVHZqdOCknKmBKNMunmD_ag9i5dGBZlV1fgaxAJVhZPZ0Is2BSFNT8v-nETcOYCR55yDokr7NaxQuSh8nry8l32FoG9xla2xQk5LqUYTAAISIwFL3PzH__plKx6x_rgddhnraRepStHmiJ_zM2gj5rZcsBRpX_fnJd8ErK0Y9REfh-VFjBDuv65dW-NWXu2W-M0_YIkck_9MdVUcgBc9slDLZY25_1npMmPG0mRQj59sUky_d1jx0d4I9ouDOuf67LNZBvXE2FI4fV9XJlgmKF9h7kiG9rXjXJU0tWTmiJYkRXCC1qeBBmKVvFWon2DBdVm00]--></g></svg>