<svg xmlns="http://www.w3.org/2000/svg" xmlns:xlink="http://www.w3.org/1999/xlink" contentStyleType="text/css" data-diagram-type="DESCRIPTION" height="1228px" preserveAspectRatio="none" style="width:1411px;height:1228px;background:#FCFBF9;" version="1.1" viewBox="0 0 1411 1228" width="1411px" zoomAndPan="magnify"><defs/><g><rect fill="#FCFBF9" height="1228" style="stroke:none;stroke-width:1;" width="1411" x="0" y="0"/><!--cluster Remote Access Layer (Client Machine)--><g class="cluster" data-entity="Remote Access Layer .Client Machine." data-source-line="36" data-uid="ent0002" id="cluster_Remote Access Layer .Client Machine."><rect fill="#E8EAF6" height="751" rx="5" ry="5" style="stroke:#3F51B5;stroke-width:1;" width="280" x="1125" y="7"/><text fill="#000000" font-family="Helvetica" font-size="14" font-style="italic" lengthAdjust="spacing" textLength="59.1445" x="1235.4277" y="19.7803">&#171;remote&#187;</text><text fill="#000000" font-family="Helvetica" font-size="14" font-weight="bold" lengthAdjust="spacing" textLength="257.5303" x="1136.2349" y="33.7803">Remote Access Layer (Client Machine)</text></g><!--cluster macOS Native Host--><g class="cluster" data-entity="macOS Native Host" data-source-line="48" data-uid="ent0010" id="cluster_macOS Native Host"><rect fill="#F2F2F2" height="1018" rx="5" ry="5" style="stroke:#444444;stroke-width:1;" width="1094" x="7" y="204"/><text fill="#000000" font-family="Helvetica" font-size="14" font-style="italic" lengthAdjust="spacing" textLength="42.0342" x="532.9829" y="216.7803">&#171;host&#187;</text><text fill="#000000" font-family="Helvetica" font-size="14" font-weight="bold" lengthAdjust="spacing" textLength="129.1582" x="489.4209" y="230.7803">macOS Native Host</text></g><!--cluster Project B: LangQuiz Core (Swift)--><g class="cluster" data-entity="Project B. LangQuiz Core .Swift." data-source-line="50" data-uid="ent0011" id="cluster_Project B. LangQuiz Core .Swift."><rect fill="#E1F5FE" height="526" rx="5" ry="5" style="stroke:#1976D2;stroke-width:1;" width="234" x="31" y="408"/><text fill="#000000" font-family="Helvetica" font-size="14" font-style="italic" lengthAdjust="spacing" textLength="66.9307" x="114.5347" y="420.7803">&#171;projectB&#187;</text><text fill="#000000" font-family="Helvetica" font-size="14" font-weight="bold" lengthAdjust="spacing" textLength="216.2275" x="39.8862" y="434.7803">Project B: LangQuiz Core (Swift)</text></g><!--cluster Native AI Engines--><g class="cluster" data-entity="Native AI Engines" data-source-line="58" data-uid="ent0016" id="cluster_Native AI Engines"><rect fill="none" height="152" rx="5" ry="5" style="stroke:#181818;stroke-width:1;" width="331" x="434" y="401"/><text fill="#000000" font-family="Helvetica" font-size="14" font-style="italic" lengthAdjust="spacing" textLength="64.6133" x="567.1934" y="413.7803">&#171;engines&#187;</text><text fill="#000000" font-family="Helvetica" font-size="14" font-weight="bold" lengthAdjust="spacing" textLength="118.2549" x="540.3726" y="427.7803">Native AI Engines</text></g><!--cluster Apple Container (Project A)--><g class="cluster" data-entity="Apple Container .Project A." data-source-line="66" data-uid="ent0021" id="cluster_Apple Container .Project A."><rect fill="#ECEFF1" height="585" rx="5" ry="5" style="stroke:#455A64;stroke-width:1;" width="540" x="463" y="613"/><text fill="#000000" font-family="Helvetica" font-size="14" font-style="italic" lengthAdjust="spacing" textLength="73.165" x="696.4175" y="625.7803">&#171;container&#187;</text><text fill="#000000" font-family="Helvetica" font-size="14" font-weight="bold" lengthAdjust="spacing" textLength="182.793" x="641.6035" y="639.7803">Apple Container (Project A)</text></g><!--cluster LogicService--><g class="cluster" data-entity="LogicService" data-source-line="69" data-uid="ent0023" id="cluster_LogicService"><rect fill="#F1F8E9" height="256" rx="5" ry="5" style="stroke:#181818;stroke-width:1;" width="467" x="487" y="817"/><text fill="#000000" font-family="Helvetica" font-size="14" font-weight="bold" lengthAdjust="spacing" textLength="156.3721" x="642.314" y="829.7803">Hybrid Analysis Engine</text></g><!--entity ClientHW--><g class="entity" data-entity="ClientHW" data-source-line="37" data-uid="ent0003" id="entity_ClientHW"><polygon fill="#F5F5F5" points="1180.03,95,1190.03,85,1349.9743,85,1349.9743,133,1339.9743,143,1180.03,143,1180.03,95" style="stroke:#666666;stroke-width:0.5;"/><line style="stroke:#666666;stroke-width:0.5;" x1="1339.9743" x2="1349.9743" y1="95" y2="85"/><line style="stroke:#666666;stroke-width:0.5;" x1="1180.03" x2="1339.9743" y1="95" y2="95"/><line style="stroke:#666666;stroke-width:0.5;" x1="1339.9743" x2="1339.9743" y1="95" y2="143"/><text fill="#000000" font-family="Helvetica" font-size="14" font-style="italic" lengthAdjust="spacing" textLength="53.7168" x="1233.1438" y="115.7803">&#171;box3d&#187;</text><text fill="#000000" font-family="Helvetica" font-size="14" lengthAdjust="spacing" textLength="129.9443" x="1195.03" y="129.7803">Local Mic / Speakers</text></g><!--entity ClientSpeech--><g class="entity" data-entity="ClientSpeech" data-source-line="38" data-uid="ent0004" id="entity_ClientSpeech"><polygon fill="#E1F5FE" points="1141.12,292,1151.12,282,1388.8778,282,1388.8778,330,1378.8778,340,1141.12,340,1141.12,292" style="stroke:#666666;stroke-width:0.5;"/><line style="stroke:#666666;stroke-width:0.5;" x1="1378.8778" x2="1388.8778" y1="292" y2="282"/><line style="stroke:#666666;stroke-width:0.5;" x1="1141.12" x2="1378.8778" y1="292" y2="292"/><line style="stroke:#666666;stroke-width:0.5;" x1="1378.8778" x2="1378.8778" y1="292" y2="340"/><text fill="#000000" font-family="Helvetica" font-size="14" font-style="italic" lengthAdjust="spacing" textLength="100.3926" x="1209.8026" y="312.7803">&#171;parallelogram&#187;</text><text fill="#000000" font-family="Helvetica" font-size="14" lengthAdjust="spacing" textLength="207.7578" x="1156.12" y="326.7803">Apple Speech Framework (Local)</text></g><!--entity ClientAgent--><g class="entity" data-entity="ClientAgent" data-source-line="39" data-uid="ent0005" id="entity_ClientAgent"><polygon fill="#FFF9C4" points="1185.75,496,1195.75,486,1336.2598,486,1336.2598,520,1326.2598,530,1185.75,530,1185.75,496" style="stroke:#666666;stroke-width:0.5;"/><line style="stroke:#666666;stroke-width:0.5;" x1="1326.2598" x2="1336.2598" y1="496" y2="486"/><line style="stroke:#666666;stroke-width:0.5;" x1="1185.75" x2="1326.2598" y1="496" y2="496"/><line style="stroke:#666666;stroke-width:0.5;" x1="1326.2598" x2="1326.2598" y1="496" y2="530"/><text fill="#000000" font-family="Helvetica" font-size="14" lengthAdjust="spacing" textLength="110.5098" x="1200.75" y="516.7803">Swift Audio Agent</text></g><!--entity RemoteClient--><g class="entity" data-entity="RemoteClient" data-source-line="40" data-uid="ent0006" id="entity_RemoteClient"><polygon fill="#FFFFFF" points="1140.98,708,1150.98,698,1363.0279,698,1363.0279,732,1353.0279,742,1140.98,742,1140.98,708" style="stroke:#666666;stroke-width:0.5;"/><line style="stroke:#666666;stroke-width:0.5;" x1="1353.0279" x2="1363.0279" y1="708" y2="698"/><line style="stroke:#666666;stroke-width:0.5;" x1="1140.98" x2="1353.0279" y1="708" y2="708"/><line style="stroke:#666666;stroke-width:0.5;" x1="1353.0279" x2="1353.0279" y1="708" y2="742"/><text fill="#000000" font-family="Helvetica" font-size="14" lengthAdjust="spacing" textLength="182.0479" x="1155.98" y="728.7803">Web Browser (RemoteClient)</text></g><!--entity Pipeline--><g class="entity" data-entity="Pipeline" data-source-line="63" data-uid="ent0019" id="entity_Pipeline"><polygon fill="#FFE0B2" points="825.02,292,835.02,282,1008.978,282,1008.978,330,998.978,340,825.02,340,825.02,292" style="stroke:#666666;stroke-width:0.5;"/><line style="stroke:#666666;stroke-width:0.5;" x1="998.978" x2="1008.978" y1="292" y2="282"/><line style="stroke:#666666;stroke-width:0.5;" x1="825.02" x2="998.978" y1="292" y2="292"/><line style="stroke:#666666;stroke-width:0.5;" x1="998.978" x2="998.978" y1="292" y2="340"/><text fill="#000000" font-family="Helvetica" font-size="14" lengthAdjust="spacing" textLength="143.958" x="840.02" y="312.7803">Native Pipeline Service</text><text fill="#000000" font-family="Helvetica" font-size="14" lengthAdjust="spacing" textLength="140.834" x="840.02" y="326.7803">(Media Preprocessing)</text></g><!--entity HW--><g class="entity" data-entity="HW" data-source-line="64" data-uid="ent0020" id="entity_HW"><polygon fill="#EEEEEE" points="280.99,863,290.99,853,447.0105,853,447.0105,915,437.0105,925,280.99,925,280.99,863" style="stroke:#666666;stroke-width:0.5;"/><line style="stroke:#666666;stroke-width:0.5;" x1="437.0105" x2="447.0105" y1="863" y2="853"/><line style="stroke:#666666;stroke-width:0.5;" x1="280.99" x2="437.0105" y1="863" y2="863"/><line style="stroke:#666666;stroke-width:0.5;" x1="437.0105" x2="437.0105" y1="863" y2="925"/><text fill="#000000" font-family="Helvetica" font-size="14" font-style="italic" lengthAdjust="spacing" textLength="53.7168" x="332.1419" y="883.7803">&#171;box3d&#187;</text><text fill="#000000" font-family="Helvetica" font-size="14" lengthAdjust="spacing" textLength="108.1514" x="295.99" y="897.7803">Apple Silicon HW</text><text fill="#000000" font-family="Helvetica" font-size="14" lengthAdjust="spacing" textLength="126.0205" x="295.99" y="911.7803">(Metal / GPU / ANE)</text></g><!--entity ConvMgr--><g class="entity" data-entity="ConvMgr" data-source-line="51" data-uid="ent0012" id="entity_ConvMgr"><polygon fill="#FFF9C4" points="64.64,496,74.64,486,249.3568,486,249.3568,520,239.3568,530,64.64,530,64.64,496" style="stroke:#666666;stroke-width:0.5;"/><line style="stroke:#666666;stroke-width:0.5;" x1="239.3568" x2="249.3568" y1="496" y2="486"/><line style="stroke:#666666;stroke-width:0.5;" x1="64.64" x2="239.3568" y1="496" y2="496"/><line style="stroke:#666666;stroke-width:0.5;" x1="239.3568" x2="239.3568" y1="496" y2="530"/><text fill="#000000" font-family="Helvetica" font-size="14" lengthAdjust="spacing" textLength="144.7168" x="79.64" y="516.7803">Swift Conversation Mgr</text></g><!--entity NativeAudio--><g class="entity" data-entity="NativeAudio" data-source-line="52" data-uid="ent0013" id="entity_NativeAudio"><polygon fill="#E1F5FE" points="47.46,694,57.46,684,248.5352,684,248.5352,746,238.5352,756,47.46,756,47.46,694" style="stroke:#666666;stroke-width:0.5;"/><line style="stroke:#666666;stroke-width:0.5;" x1="238.5352" x2="248.5352" y1="694" y2="684"/><line style="stroke:#666666;stroke-width:0.5;" x1="47.46" x2="238.5352" y1="694" y2="694"/><line style="stroke:#666666;stroke-width:0.5;" x1="238.5352" x2="238.5352" y1="694" y2="756"/><text fill="#000000" font-family="Helvetica" font-size="14" font-style="italic" lengthAdjust="spacing" textLength="100.3926" x="92.8013" y="714.7803">&#171;parallelogram&#187;</text><text fill="#000000" font-family="Helvetica" font-size="14" lengthAdjust="spacing" textLength="161.0752" x="62.46" y="728.7803">Apple Speech Framework</text><text fill="#000000" font-family="Helvetica" font-size="14" lengthAdjust="spacing" textLength="101.9033" x="62.46" y="742.7803">(TTS / Dictation)</text></g><!--entity HostAudioIO--><g class="entity" data-entity="HostAudioIO" data-source-line="54" data-uid="ent0014" id="entity_HostAudioIO"><polygon fill="#F5F5F5" points="65.37,870,75.37,860,230.6317,860,230.6317,908,220.6317,918,65.37,918,65.37,870" style="stroke:#666666;stroke-width:0.5;"/><line style="stroke:#666666;stroke-width:0.5;" x1="220.6317" x2="230.6317" y1="870" y2="860"/><line style="stroke:#666666;stroke-width:0.5;" x1="65.37" x2="220.6317" y1="870" y2="870"/><line style="stroke:#666666;stroke-width:0.5;" x1="220.6317" x2="220.6317" y1="870" y2="918"/><text fill="#000000" font-family="Helvetica" font-size="14" font-style="italic" lengthAdjust="spacing" textLength="53.7168" x="116.1425" y="890.7803">&#171;box3d&#187;</text><text fill="#000000" font-family="Helvetica" font-size="14" lengthAdjust="spacing" textLength="125.2617" x="80.37" y="904.7803">Host Mic / Speakers</text></g><!--entity Ollama--><g class="entity" data-entity="Ollama" data-source-line="59" data-uid="ent0017" id="entity_Ollama"><polygon fill="#FFF3E0" points="450.28,489,460.28,479,599.7136,479,599.7136,527,589.7136,537,450.28,537,450.28,489" style="stroke:#666666;stroke-width:0.5;"/><line style="stroke:#666666;stroke-width:0.5;" x1="589.7136" x2="599.7136" y1="489" y2="479"/><line style="stroke:#666666;stroke-width:0.5;" x1="450.28" x2="589.7136" y1="489" y2="489"/><line style="stroke:#666666;stroke-width:0.5;" x1="589.7136" x2="589.7136" y1="489" y2="537"/><text fill="#000000" font-family="Helvetica" font-size="14" font-style="italic" lengthAdjust="spacing" textLength="107.4336" x="466.28" y="509.7803">&#171;doubleoctagon&#187;</text><text fill="#000000" font-family="Helvetica" font-size="14" lengthAdjust="spacing" textLength="70.7998" x="484.5969" y="523.7803">Ollama API</text></g><!--entity Whisper--><g class="entity" data-entity="Whisper" data-source-line="60" data-uid="ent0018" id="entity_Whisper"><polygon fill="#F3E5F5" points="634.65,496,644.65,486,749.3531,486,749.3531,520,739.3531,530,634.65,530,634.65,496" style="stroke:#666666;stroke-width:0.5;"/><line style="stroke:#666666;stroke-width:0.5;" x1="739.3531" x2="749.3531" y1="496" y2="486"/><line style="stroke:#666666;stroke-width:0.5;" x1="634.65" x2="739.3531" y1="496" y2="496"/><line style="stroke:#666666;stroke-width:0.5;" x1="739.3531" x2="739.3531" y1="496" y2="530"/><text fill="#000000" font-family="Helvetica" font-size="14" lengthAdjust="spacing" textLength="74.7031" x="649.65" y="516.7803">whisper.cpp</text></g><!--entity FastAPI--><g class="entity" data-entity="FastAPI" data-source-line="67" data-uid="ent0022" id="entity_FastAPI"><polygon fill="#E0F2F1" points="479.34,701,489.34,691,700.6564,691,700.6564,739,690.6564,749,479.34,749,479.34,701" style="stroke:#666666;stroke-width:0.5;"/><line style="stroke:#666666;stroke-width:0.5;" x1="690.6564" x2="700.6564" y1="701" y2="691"/><line style="stroke:#666666;stroke-width:0.5;" x1="479.34" x2="690.6564" y1="701" y2="701"/><line style="stroke:#666666;stroke-width:0.5;" x1="690.6564" x2="690.6564" y1="701" y2="749"/><text fill="#000000" font-family="Helvetica" font-size="14" lengthAdjust="spacing" textLength="127.5928" x="494.34" y="721.7803">FastAPI Web Server</text><text fill="#000000" font-family="Helvetica" font-size="14" lengthAdjust="spacing" textLength="181.3164" x="494.34" y="735.7803">(Endpoints: /analyze, /hybrid)</text></g><!--entity Assets--><g class="entity" data-entity="Assets" data-source-line="75" data-uid="ent0027" id="entity_Assets"><path d="M809,708.5 C809,698.5 897.9961,698.5 897.9961,698.5 C897.9961,698.5 986.9922,698.5 986.9922,708.5 L986.9922,731.5 C986.9922,741.5 897.9961,741.5 897.9961,741.5 C897.9961,741.5 809,741.5 809,731.5 L809,708.5" fill="#FFFFFF" style="stroke:#181818;stroke-width:0.5;"/><path d="M809,708.5 C809,718.5 897.9961,718.5 897.9961,718.5 C897.9961,718.5 986.9922,718.5 986.9922,708.5" fill="none" style="stroke:#181818;stroke-width:0.5;"/><text fill="#000000" font-family="Helvetica" font-size="14" lengthAdjust="spacing" textLength="157.9922" x="819" y="733.2803">Video and Subtitles Store</text></g><g class="entity" data-entity="GMN31" data-source-line="82" data-uid="ent0032" id="entity_GMN31"><path d="M518.98,1125 L518.98,1177 A5,5 0 0 0 523.98,1182 L668.0171,1182 A5,5 0 0 0 673.0171,1177 L673.0171,1130 L663.0171,1120 L600,1120 L596,1050.77 L592,1120 L523.98,1120 A5,5 0 0 0 518.98,1125" fill="#FEFFDD" style="stroke:#181818;stroke-width:0.5;"/><path d="M663.0171,1120 L663.0171,1127.5 A2.5,2.5 0 0 0 665.5171,1130 L673.0171,1130 L663.0171,1120" fill="#FEFFDD" style="stroke:#181818;stroke-width:0.5;"/><text fill="#000000" font-family="Helvetica" font-size="13" font-weight="bold" lengthAdjust="spacing" textLength="124.2617" x="524.98" y="1135.0103">Deterministic Facts:</text><ellipse cx="530.48" cy="1143.5" fill="#000000" rx="2.5" ry="2.5"/><text fill="#000000" font-family="Helvetica" font-size="13" lengthAdjust="spacing" textLength="89.2354" x="536.98" y="1148.0103">Verb -&gt; Tenses</text><ellipse cx="530.48" cy="1156.5" fill="#000000" rx="2.5" ry="2.5"/><text fill="#000000" font-family="Helvetica" font-size="13" lengthAdjust="spacing" textLength="121.0371" x="536.98" y="1161.0103">Noun -&gt; Declensions</text><ellipse cx="530.48" cy="1169.5" fill="#000000" rx="2.5" ry="2.5"/><text fill="#000000" font-family="Helvetica" font-size="13" lengthAdjust="spacing" textLength="108.0181" x="536.98" y="1174.0103">Adj -&gt; Comparison</text></g><!--entity Spacy--><g class="entity" data-entity="Spacy" data-source-line="70" data-uid="ent0024" id="entity_Spacy"><polygon fill="#E8F5E9" points="509.42,877,519.42,867,678.585,867,678.585,901,668.585,911,509.42,911,509.42,877" style="stroke:#666666;stroke-width:0.5;"/><line style="stroke:#666666;stroke-width:0.5;" x1="668.585" x2="678.585" y1="877" y2="867"/><line style="stroke:#666666;stroke-width:0.5;" x1="509.42" x2="668.585" y1="877" y2="877"/><line style="stroke:#666666;stroke-width:0.5;" x1="668.585" x2="668.585" y1="877" y2="911"/><text fill="#000000" font-family="Helvetica" font-size="14" lengthAdjust="spacing" textLength="129.165" x="524.42" y="897.7803">spaCy NLP Analyzer</text></g><!--entity Logic--><g class="entity" data-entity="Logic" data-source-line="71" data-uid="ent0025" id="entity_Logic"><polygon fill="#FFF9C4" points="502.86,1016.5,512.86,1006.5,689.1491,1006.5,689.1491,1040.5,679.1491,1050.5,502.86,1050.5,502.86,1016.5" style="stroke:#666666;stroke-width:0.5;"/><line style="stroke:#666666;stroke-width:0.5;" x1="679.1491" x2="689.1491" y1="1016.5" y2="1006.5"/><line style="stroke:#666666;stroke-width:0.5;" x1="502.86" x2="679.1491" y1="1016.5" y2="1016.5"/><line style="stroke:#666666;stroke-width:0.5;" x1="679.1491" x2="679.1491" y1="1016.5" y2="1050.5"/><text fill="#000000" font-family="Helvetica" font-size="14" lengthAdjust="spacing" textLength="146.2891" x="517.86" y="1037.2803">Grammar Lookup Logic</text></g><!--entity Kaikki--><g class="entity" data-entity="Kaikki" data-source-line="72" data-uid="ent0026" id="entity_Kaikki"><path d="M814.26,1010 C814.26,1000 875.9978,1000 875.9978,1000 C875.9978,1000 937.7356,1000 937.7356,1010 L937.7356,1047 C937.7356,1057 875.9978,1057 875.9978,1057 C875.9978,1057 814.26,1057 814.26,1047 L814.26,1010" fill="#FFFFFF" style="stroke:#181818;stroke-width:0.5;"/><path d="M814.26,1010 C814.26,1020 875.9978,1020 875.9978,1020 C875.9978,1020 937.7356,1020 937.7356,1010" fill="none" style="stroke:#181818;stroke-width:0.5;"/><text fill="#000000" font-family="Helvetica" font-size="14" lengthAdjust="spacing" textLength="103.4756" x="824.26" y="1034.7803">Kaikki Dictionary</text><text fill="#000000" font-family="Helvetica" font-size="14" lengthAdjust="spacing" textLength="92.5791" x="824.26" y="1048.7803">(JSON / Index)</text></g><!--link ClientHW to ClientSpeech--><g class="link" data-entity-1="ClientHW" data-entity-2="ClientSpeech" data-source-line="42" data-uid="lnk7" id="link_ClientHW_ClientSpeech"><path d="M1265,143.35 C1265,180.33 1265,238.62 1265,275.61" fill="none" id="ClientHW-to-ClientSpeech" style="stroke:#181818;stroke-width:1;"/><polygon fill="#181818" points="1265,281.61,1269,272.61,1265,276.61,1261,272.61,1265,281.61" style="stroke:#181818;stroke-width:1;"/><text fill="#000000" font-family="Helvetica" font-size="13" lengthAdjust="spacing" textLength="54.1963" x="1266" y="184.0103">Audio I/O</text></g><!--link ClientSpeech to ClientAgent--><g class="link" data-entity-1="ClientSpeech" data-entity-2="ClientAgent" data-source-line="43" data-uid="lnk8" id="link_ClientSpeech_ClientAgent"><path d="M1264.42,340.35 C1263.61,379.75 1262.2939,444.1913 1261.5639,479.5313" fill="none" id="ClientSpeech-to-ClientAgent" style="stroke:#181818;stroke-width:1;"/><polygon fill="#181818" points="1261.44,485.53,1265.625,476.6145,1261.5433,480.5311,1257.6267,476.4493,1261.44,485.53" style="stroke:#181818;stroke-width:1;"/><text fill="#000000" font-family="Helvetica" font-size="13" lengthAdjust="spacing" textLength="41.9072" x="1264.71" y="381.0103">Control</text></g><!--link ClientAgent to RemoteClient--><g class="link" data-entity-1="ClientAgent" data-entity-2="RemoteClient" data-source-line="44" data-uid="lnk9" id="link_ClientAgent_RemoteClient"><path d="M1260.09,530.29 C1258.36,570.54 1254.8974,651.3655 1253.1674,691.6555" fill="none" id="ClientAgent-to-RemoteClient" style="stroke:#181818;stroke-width:1;"/><polygon fill="#181818" points="1252.91,697.65,1257.2924,688.8299,1253.1245,692.6546,1249.2998,688.4867,1252.91,697.65" style="stroke:#181818;stroke-width:1;"/><text fill="#000000" font-family="Helvetica" font-size="13" lengthAdjust="spacing" textLength="56.3608" x="1259.34" y="586.5103">JS Bridge</text></g><!--link NativeAudio to HostAudioIO--><g class="link" data-entity-1="NativeAudio" data-entity-2="HostAudioIO" data-source-line="55" data-uid="lnk15" id="link_NativeAudio_HostAudioIO"><path d="M117.19,756.32 C110.96,765.42 105.31,775.59 102,786 C93.82,811.73 104.5291,834.7536 119.2791,854.8436" fill="none" id="NativeAudio-to-HostAudioIO" style="stroke:#181818;stroke-width:1;"/><polygon fill="#181818" points="122.83,859.68,120.728,850.0581,119.8709,855.6496,114.2794,854.7926,122.83,859.68" style="stroke:#181818;stroke-width:1;"/><text fill="#000000" font-family="Helvetica" font-size="13" lengthAdjust="spacing" textLength="54.1963" x="103" y="797.0103">Audio I/O</text></g><!--link FastAPI to Spacy--><g class="link" data-entity-1="FastAPI" data-entity-2="Spacy" data-source-line="77" data-uid="lnk28" id="link_FastAPI_Spacy"><path d="M590.68,749.33 C591.47,782.55 592.6373,830.8617 593.3473,860.7017" fill="none" id="FastAPI-to-Spacy" style="stroke:#181818;stroke-width:1;"/><polygon fill="#181818" points="593.49,866.7,597.2748,857.6074,593.3711,861.7014,589.2771,857.7977,593.49,866.7" style="stroke:#181818;stroke-width:1;"/><text fill="#000000" font-family="Helvetica" font-size="13" lengthAdjust="spacing" textLength="128.6226" x="592.88" y="797.0103">1. Contextual Analysis</text></g><!--link Spacy to Logic--><g class="link" data-entity-1="Spacy" data-entity-2="Logic" data-source-line="78" data-uid="lnk29" id="link_Spacy_Logic"><path d="M594.31,911.48 C594.69,937.32 595.2215,974.4007 595.6015,1000.1707" fill="none" id="Spacy-to-Logic" style="stroke:#181818;stroke-width:1;"/><polygon fill="#181818" points="595.69,1006.17,599.5569,997.112,595.6163,1001.1705,591.5577,997.23,595.69,1006.17" style="stroke:#181818;stroke-width:1;"/><text fill="#000000" font-family="Helvetica" font-size="13" lengthAdjust="spacing" textLength="100.0708" x="596.12" y="966.0103">2. POS + Lemma</text></g><!--link Logic to Kaikki--><g class="link" data-entity-1="Logic" data-entity-2="Kaikki" data-source-line="79" data-uid="lnk30" id="link_Logic_Kaikki"><path d="M689.63,1028.5 C730.48,1028.5 771.28,1028.5 807.76,1028.5" fill="none" id="Logic-to-Kaikki" style="stroke:#181818;stroke-width:1;"/><polygon fill="#181818" points="813.76,1028.5,804.76,1024.5,808.76,1028.5,804.76,1032.5,813.76,1028.5" style="stroke:#181818;stroke-width:1;"/><text fill="#000000" font-family="Helvetica" font-size="13" lengthAdjust="spacing" textLength="89.5972" x="707.2" y="1021.5103">3. Fetch Tables</text></g><!--link RemoteClient to FastAPI--><g class="link" data-entity-1="RemoteClient" data-entity-2="FastAPI" data-source-line="93" data-uid="lnk34" id="link_RemoteClient_FastAPI"><path d="M1214.86,697.63 C1167.61,670.6 1082.55,626.65 1003,609.83 C911.25,590.44 882.87,586.66 792,609.83 C731.04,625.38 673.5608,660.0713 634.5608,687.1113" fill="none" id="RemoteClient-to-FastAPI" style="stroke:#181818;stroke-width:1;"/><polygon fill="#181818" points="629.63,690.53,639.3053,688.6892,633.739,687.6811,634.7471,682.1148,629.63,690.53" style="stroke:#181818;stroke-width:1;"/><text fill="#000000" font-family="Helvetica" font-size="13" lengthAdjust="spacing" textLength="175.9443" x="901.5" y="586.5103">Request (Analyze + Translate)</text></g><!--link FastAPI to RemoteClient--><g class="link" data-entity-1="FastAPI" data-entity-2="RemoteClient" data-source-line="108" data-uid="lnk44" id="link_FastAPI_RemoteClient"><path d="M629.63,690.53 C668.63,663.49 731.04,625.38 792,609.83 C882.87,586.66 911.25,590.44 1003,609.83 C1082.55,626.65 1162.402,667.6207 1209.652,694.6507" fill="none" id="FastAPI-to-RemoteClient" style="stroke:#181818;stroke-width:1;"/><polygon fill="#181818" points="1214.86,697.63,1209.0342,689.689,1210.52,695.1472,1205.0617,696.633,1214.86,697.63" style="stroke:#181818;stroke-width:1;"/><text fill="#000000" font-family="Helvetica" font-size="13" lengthAdjust="spacing" textLength="192.5688" x="702" y="586.5103">Response (Tables + LLM Output)</text></g><!--link Pipeline to Whisper--><g class="link" data-entity-1="Pipeline" data-entity-2="Whisper" data-source-line="96" data-uid="lnk35" id="link_Pipeline_Whisper"><path d="M835.21,340.4 C806.74,353.21 776.16,370.58 753,393 C725.74,419.38 709.9218,454.9645 700.9318,479.9445" fill="none" id="Pipeline-to-Whisper" style="stroke:#181818;stroke-width:1;"/><polygon fill="#181818" points="698.9,485.59,705.7113,478.4762,700.5931,480.8854,698.184,475.7672,698.9,485.59" style="stroke:#181818;stroke-width:1;"/><text fill="#000000" font-family="Helvetica" font-size="13" lengthAdjust="spacing" textLength="111.998" x="780.89" y="381.0103">Audio Transcription</text></g><!--link Pipeline to Assets--><g class="link" data-entity-1="Pipeline" data-entity-2="Assets" data-source-line="97" data-uid="lnk36" id="link_Pipeline_Assets"><path d="M924.29,340.23 C939.11,391.96 977.76,502.06 1051,561 C1061.08,569.11 1071.21,558.67 1079,569 C1086.49,578.93 1084.84,586.01 1079,597 C1052.93,646.01 1002.8949,676.4252 960.1849,695.5752" fill="none" id="Pipeline-to-Assets" style="stroke:#181818;stroke-width:1;"/><polygon fill="#181818" points="954.71,698.03,964.5588,697.9977,959.2724,695.9844,961.2858,690.6979,954.71,698.03" style="stroke:#181818;stroke-width:1;"/><text fill="#000000" font-family="Helvetica" font-size="13" lengthAdjust="spacing" textLength="72.9536" x="1052" y="511.5103">Write Assets</text></g><!--link ConvMgr to NativeAudio--><g class="link" data-entity-1="ConvMgr" data-entity-2="NativeAudio" data-source-line="100" data-uid="lnk37" id="link_ConvMgr_NativeAudio"><path d="M119.73,530.29 C106.17,540.16 92.38,553.23 85,569 C66.85,607.75 88.5727,648.429 112.3227,679.049" fill="none" id="ConvMgr-to-NativeAudio" style="stroke:#181818;stroke-width:1;"/><polygon fill="#181818" points="116,683.79,113.6447,674.2269,112.9356,679.8391,107.3233,679.13,116,683.79" style="stroke:#181818;stroke-width:1;"/><text fill="#000000" font-family="Helvetica" font-size="13" lengthAdjust="spacing" textLength="76.5972" x="86" y="586.5103">Local Control</text></g><!--link ConvMgr to Ollama--><g class="link" data-entity-1="ConvMgr" data-entity-2="Ollama" data-source-line="101" data-uid="lnk38" id="link_ConvMgr_Ollama"><path d="M249.39,508 C311.34,508 385.9,508 443.91,508" fill="none" id="ConvMgr-to-Ollama" style="stroke:#181818;stroke-width:1;"/><polygon fill="#181818" points="449.91,508,440.91,504,444.91,508,440.91,512,449.91,508" style="stroke:#181818;stroke-width:1;"/><text fill="#000000" font-family="Helvetica" font-size="13" lengthAdjust="spacing" textLength="66.4727" x="316.82" y="501.0103">Chat Query</text></g><!--link ConvMgr to HW--><g class="link" data-entity-1="ConvMgr" data-entity-2="HW" data-source-line="102" data-uid="lnk39" id="link_ConvMgr_HW"><path d="M189.21,530.37 C213.36,547.87 245.63,574.64 266,605 C319.45,684.66 345.5994,790.6033 356.6894,846.8533" fill="none" id="ConvMgr-to-HW" style="stroke:#181818;stroke-width:1;"/><polygon fill="#181818" points="357.85,852.74,360.0336,843.1362,356.8828,847.8344,352.1847,844.6837,357.85,852.74" style="stroke:#181818;stroke-width:1;"/><text fill="#000000" font-family="Helvetica" font-size="13" lengthAdjust="spacing" textLength="71.5381" x="337.22" y="723.5103">Acceleration</text></g><!--reverse link Ollama to FastAPI--><g class="link" data-entity-1="Ollama" data-entity-2="FastAPI" data-source-line="105" data-uid="lnk41" id="link_Ollama_FastAPI"><path d="M519.278,543.1464 C517.158,560.6364 516.92,577.47 522,597 C531.03,631.73 552.34,667.08 568.72,690.73" fill="none" id="Ollama-backto-FastAPI" style="stroke:#181818;stroke-width:1;"/><polygon fill="#181818" points="520,537.19,514.9461,545.6433,519.3983,542.1537,522.888,546.6059,520,537.19" style="stroke:#181818;stroke-width:1;"/><text fill="#000000" font-family="Helvetica" font-size="13" lengthAdjust="spacing" textLength="167.9844" x="523.7205" y="580.0103">4. Send Facts + User Prompt</text><text fill="#000000" font-family="Helvetica" font-size="13" lengthAdjust="spacing" textLength="169.4253" x="523" y="593.0103">(Get Translation + Examples)</text></g><!--link FastAPI to HW--><g class="link" data-entity-1="FastAPI" data-entity-2="HW" data-source-line="106" data-uid="lnk42" id="link_FastAPI_HW"><path d="M536.72,749.38 C517.97,760.1 497.08,772.89 479,786 C451.14,806.22 426.5244,827.8533 404.6244,848.4133" fill="none" id="FastAPI-to-HW" style="stroke:#181818;stroke-width:1;"/><polygon fill="#181818" points="400.25,852.52,409.5493,849.2762,403.8953,849.0977,404.0737,843.4437,400.25,852.52" style="stroke:#181818;stroke-width:1;"/><text fill="#000000" font-family="Helvetica" font-size="13" lengthAdjust="spacing" textLength="103.3208" x="480" y="797.0103">GPU Acceleration</text></g><!--link FastAPI to Assets--><g class="link" data-entity-1="FastAPI" data-entity-2="Assets" data-source-line="107" data-uid="lnk43" id="link_FastAPI_Assets"><path d="M700.76,720 C736.29,720 769.16,720 802.92,720" fill="none" id="FastAPI-to-Assets" style="stroke:#181818;stroke-width:1;"/><polygon fill="#181818" points="808.92,720,799.92,716,803.92,720,799.92,724,808.92,720" style="stroke:#181818;stroke-width:1;"/><text fill="#000000" font-family="Helvetica" font-size="13" lengthAdjust="spacing" textLength="72.9727" x="718.83" y="713.0103">Stream Data</text></g><!--SRC=[XLVRRjiu47ttLqpZXphfvkBSjZ620h8Y9Mvzg-qcM621WfOOcxKigYJjn2dwCVku3_sA_DWEIKcXxHHB1uObpXpEdBanRp919dC2SZdfK4LYeWZSaqJIIkKjt3vD4nfNv8ob6H5a3cCIpIQ2Bz8uuWaNK0tzi1bUE19oIcB-mD99ZlAoOzHyBb8ge7xaR5pHUx98LCXJrILp2ZSqMLB58g9Dm4sMieZYqO8kAszY_KoXtUe6N_rUkpU0wgbPvPRV_Z8S1OElDxtX20qyrf-jpVwWz_5h4wf1FJmBWwrjlzSTUNW4eWT-48RrBOb1qEcD0jn-7tZXUSNraqQAf9E4meyAu6gMdFcQiylBAPVgmuSrEwqW5p4Lwq8lVhwEbGd-3SzhEdZMjMr4HxHQl_Zp_EhuTSW8uq3GLU5WbdnimxhYrTEpC-_yz7LSGUTSKGVKKhYDM0fMJyApUlEiyjEbD-NnRvZ5O9krYGZLSxFCUvrb-TiZipJwMzZVtuUhbdSzy3hwjtwLHzXljuBk23gUVuC4L5wYkpCmTe8NHLHAQ9CL9dRDJnXD5NH8D4LITdV0ySTQRHpOQVE89D1X4Hp2CADaHeNS0IB10jpSeUAOFvx4cWVCKVmusbwMeGMeHwCfX4WBVU1Y1ZM3kklWv28OVIGlIMZ29oYjCVFCVy4SFh1x1TuYPXoy2UewCERPy7lXdpewTtGCJS4Vf7RTyc4Lh0tkcp8wHhtqSX-xHRh_OTtSHcv6wx3dIEURwnhMiWRu65V14qVSxXJIQwOquECGxMRnXDhmpqdK6qBN6xLk0p2DepOC1hV1ODSDU2v555jYby82rT7D2_M7zSkHxjjwWsO3SoETV5wm9xHIK8JMJ9lKS6hI9iTcED2j9MO67ibJw4o4ZGc-nDzhyVY_tFWxhOr6GqosAuOMQZWR8kkDfVltMR9nXFRzjTpLxmrKg_URzDNBFR88Zwkv6VsVMzJc8V1Q4AGJB3EfkQJsvojKzfA4u8Zp-YrZPVvuUHdpnJYX764dF3M6Xk59SBIX_J1bCgFY8Ceoetvddr7w92ZSoasq2hbrVPRHH8-C8HLBd60OWGwD6O6-e1XttJHmJDeebB9eGd3KFDukTPOmxBHmSsTW5FQEGxZkVy5lhnjOaFMU4PYrHPs5yukc3RKYJJsJa6uttwGn91YZVWjqqMkVg41RWZJEE4kLRC0XIKcoUg9_mE5qDSRgicOLQjNW24Tn_IMN7AjkZ3nu6a0ocOVLgBVvX4KvXKXFFNmVN3YclPWdC-AleDlkMvWdQejbc95efUTqU1PSlA9sZPa-9mBFuRD5PezxENYhnlJIbwGnaQZyYR3PZ9cQmeeYOeMCV1pskXYMLXhJHyj0BkME9oTfrX5lMKmva3I6uMAic4eekg2mRHWaJqggv7ehDLCjvxWe9-jq0-e79jJqKIqmOmfwIpKhLYXPXnjmV01zx7Fle4sHcLBORkyBDfagbCwTQi390OHKOQyP4QmcwVOAd8vZhXIV0x-t-ciyxkrTKKN572zu4kzxw4M4URItjou4jrIC0KySqLHIkR7PnV6lDwzebE0-Hc5Jmek_QG6Vpx6xCSdJSfyYozh8l8JBYy2ez-alg8NjtjrmjxWDO9baM2Zfyo-OcI62LsQAVxeCwBooDbvAZegmD73yV5zGR9grF3UHtP4WgKo8ehi6l-W019xmIXxnvVC_-h3vyxynU_vLAVUBQ1LjgEYM1YuIBDEPw8WNjkIfqu0xmVIjnJpgayrCqi6P4LX2ERKgnPGf3dJRDeuqStyffcufMvoMzrYSorEYuFE2YjKM8FQhXhaz9LIOYRJ1isPEwYO_nq9DLb0RJN7isavHj1sRLRkLiW0McNlwwG5sAeoooIpa_8k-gE0HyqnXfLvJLKP1pzTt43oIEVP7wG2wnkg6ksPmARN5yb09gl-tmSBUbjguZ0oep31lyMPWIqYNNhi3lONA5cgtyXy0]--></g></svg>