<svg xmlns="http://www.w3.org/2000/svg" xmlns:xlink="http://www.w3.org/1999/xlink" contentStyleType="text/css" data-diagram-type="DESCRIPTION" height="1006px" preserveAspectRatio="none" style="width:2130px;height:1006px;" version="1.1" viewBox="0 0 2130 1006" width="2130px" zoomAndPan="magnify"><defs/><g><!--cluster Remote Client Machine--><g class="cluster" data-entity="Remote Client Machine" data-source-line="48" data-uid="ent0002" id="cluster_Remote Client Machine"><rect fill="#D1DBE0" height="724" rx="5" ry="5" style="stroke:#3F51B5;stroke-width:1;" width="506" x="1618.12" y="8.4795"/><text fill="#000000" font-family="Helvetica" font-size="26" font-weight="bold" lengthAdjust="spacing" textLength="286.0508" x="1728.0946" y="30.5">Remote Client Machine</text></g><!--cluster LangQuiz Core (Remote)--><g class="cluster" data-entity="LangQuiz Core .Remote." data-source-line="51" data-uid="ent0004" id="cluster_LangQuiz Core .Remote."><rect fill="#E1F5FE" height="338" rx="5" ry="5" style="stroke:#1976D2;stroke-width:1;" width="458" x="1642.12" y="200.4795"/><text fill="#000000" font-family="Helvetica" font-size="26" font-weight="bold" lengthAdjust="spacing" textLength="304.7891" x="1718.7255" y="222.5">LangQuiz Core (Remote)</text></g><!--cluster macOS Native Host--><g class="cluster" data-entity="macOS Native Host" data-source-line="65" data-uid="ent0013" id="cluster_macOS Native Host"><rect fill="#EDEDED" height="992" rx="5" ry="5" style="stroke:#444444;stroke-width:1;" width="1433" x="161.12" y="8.4795"/><text fill="#000000" font-family="Helvetica" font-size="26" font-weight="bold" lengthAdjust="spacing" textLength="239.8652" x="757.6874" y="30.5">macOS Native Host</text></g><!--cluster German-API Stack (Docker)--><g class="cluster" data-entity="German-API Stack .Docker." data-source-line="70" data-uid="ent0015" id="cluster_German-API Stack .Docker."><rect fill="#CBDDC7" height="532" rx="5" ry="5" style="stroke:#181818;stroke-width:1;" width="559" x="1011.12" y="200.4795"/><text fill="#000000" font-family="Helvetica" font-size="26" font-weight="bold" lengthAdjust="spacing" textLength="339.5615" x="1120.8392" y="222.5">German-API Stack (Docker)</text></g><!--cluster Omninode (macOS Service)--><g class="cluster" data-entity="Omninode .macOS Service." data-source-line="80" data-uid="ent0021" id="cluster_Omninode .macOS Service."><rect fill="#E1F5FE" height="146" rx="5" ry="5" style="stroke:#1976D2;stroke-width:1;" width="417" x="453.12" y="392.4795"/><text fill="#000000" font-family="Helvetica" font-size="26" font-weight="bold" lengthAdjust="spacing" textLength="342.4434" x="490.3983" y="414.5">Omninode (macOS Service)</text></g><!--cluster LangQuiz Core (Local Host)--><g class="cluster" data-entity="LangQuiz Core .Local Host." data-source-line="86" data-uid="ent0024" id="cluster_LangQuiz Core .Local Host."><rect fill="#E1F5FE" height="280" rx="5" ry="5" style="stroke:#1976D2;stroke-width:1;" width="386" x="253.12" y="586.4795"/><text fill="#000000" font-family="Helvetica" font-size="26" font-weight="bold" lengthAdjust="spacing" textLength="342.3418" x="274.9491" y="608.5">LangQuiz Core (Local Host)</text></g><!--entity RemoteClient--><g class="entity" data-entity="RemoteClient" data-source-line="49" data-uid="ent0003" id="entity_RemoteClient"><polygon fill="#FFFFFF" points="1663.31,92.4795,1673.31,82.4795,1974.9262,82.4795,1974.9262,128.4795,1964.9262,138.4795,1663.31,138.4795,1663.31,92.4795" style="stroke:#666666;stroke-width:0.5;"/><line style="stroke:#666666;stroke-width:0.5;" x1="1964.9262" x2="1974.9262" y1="92.4795" y2="82.4795"/><line style="stroke:#666666;stroke-width:0.5;" x1="1663.31" x2="1964.9262" y1="92.4795" y2="92.4795"/><line style="stroke:#666666;stroke-width:0.5;" x1="1964.9262" x2="1964.9262" y1="92.4795" y2="138.4795"/><text fill="#000000" font-family="Helvetica" font-size="26" lengthAdjust="spacing" textLength="271.6162" x="1678.31" y="122.5">Web Browser (Remote)</text></g><!--entity ClientHW--><g class="entity" data-entity="ClientHW" data-source-line="56" data-uid="ent0007" id="entity_ClientHW"><polygon fill="#F5F5F5" points="1730.46,670.4795,1740.46,660.4795,2011.7852,660.4795,2011.7852,706.4795,2001.7852,716.4795,1730.46,716.4795,1730.46,670.4795" style="stroke:#666666;stroke-width:0.5;"/><line style="stroke:#666666;stroke-width:0.5;" x1="2001.7852" x2="2011.7852" y1="670.4795" y2="660.4795"/><line style="stroke:#666666;stroke-width:0.5;" x1="1730.46" x2="2001.7852" y1="670.4795" y2="670.4795"/><line style="stroke:#666666;stroke-width:0.5;" x1="2001.7852" x2="2001.7852" y1="670.4795" y2="716.4795"/><text fill="#000000" font-family="Helvetica" font-size="26" lengthAdjust="spacing" textLength="241.3252" x="1745.46" y="700.5">Local Mic / Speakers</text></g><!--entity LangQuiz_Remote--><g class="entity" data-entity="LangQuiz_Remote" data-source-line="52" data-uid="ent0005" id="entity_LangQuiz_Remote"><polygon fill="#FFF9C4" points="1657.87,284.4795,1667.87,274.4795,2040.3641,274.4795,2040.3641,320.4795,2030.3641,330.4795,1657.87,330.4795,1657.87,284.4795" style="stroke:#666666;stroke-width:0.5;"/><line style="stroke:#666666;stroke-width:0.5;" x1="2030.3641" x2="2040.3641" y1="284.4795" y2="274.4795"/><line style="stroke:#666666;stroke-width:0.5;" x1="1657.87" x2="2030.3641" y1="284.4795" y2="284.4795"/><line style="stroke:#666666;stroke-width:0.5;" x1="2030.3641" x2="2030.3641" y1="284.4795" y2="330.4795"/><text fill="#000000" font-family="Helvetica" font-size="26" lengthAdjust="spacing" textLength="342.4941" x="1672.87" y="314.5">LangQuiz Headless (Remote)</text></g><!--entity ClientSpeech--><g class="entity" data-entity="ClientSpeech" data-source-line="53" data-uid="ent0006" id="entity_ClientSpeech"><polygon fill="#E1F5FE" points="1658.2,476.4795,1668.2,466.4795,2084.0359,466.4795,2084.0359,512.4795,2074.0359,522.4795,1658.2,522.4795,1658.2,476.4795" style="stroke:#666666;stroke-width:0.5;"/><line style="stroke:#666666;stroke-width:0.5;" x1="2074.0359" x2="2084.0359" y1="476.4795" y2="466.4795"/><line style="stroke:#666666;stroke-width:0.5;" x1="1658.2" x2="2074.0359" y1="476.4795" y2="476.4795"/><line style="stroke:#666666;stroke-width:0.5;" x1="2074.0359" x2="2074.0359" y1="476.4795" y2="522.4795"/><text fill="#000000" font-family="Helvetica" font-size="26" lengthAdjust="spacing" textLength="385.8359" x="1673.2" y="506.5">Apple Speech Framework (Local)</text></g><!--entity LocalBrowser--><g class="entity" data-entity="LocalBrowser" data-source-line="67" data-uid="ent0014" id="entity_LocalBrowser"><polygon fill="#E1F5FE" points="436.41,92.4795,446.41,82.4795,779.828,82.4795,779.828,128.4795,769.828,138.4795,436.41,138.4795,436.41,92.4795" style="stroke:#666666;stroke-width:0.5;"/><line style="stroke:#666666;stroke-width:0.5;" x1="769.828" x2="779.828" y1="92.4795" y2="82.4795"/><line style="stroke:#666666;stroke-width:0.5;" x1="436.41" x2="769.828" y1="92.4795" y2="92.4795"/><line style="stroke:#666666;stroke-width:0.5;" x1="769.828" x2="769.828" y1="92.4795" y2="138.4795"/><text fill="#000000" font-family="Helvetica" font-size="26" lengthAdjust="spacing" textLength="303.418" x="451.41" y="122.5">Web Browser (Local Host)</text></g><!--entity HostAudioIO--><g class="entity" data-entity="HostAudioIO" data-source-line="91" data-uid="ent0027" id="entity_HostAudioIO"><polygon fill="#F5F5F5" points="275.81,938.4795,285.81,928.4795,548.4389,928.4795,548.4389,974.4795,538.4389,984.4795,275.81,984.4795,275.81,938.4795" style="stroke:#666666;stroke-width:0.5;"/><line style="stroke:#666666;stroke-width:0.5;" x1="538.4389" x2="548.4389" y1="938.4795" y2="928.4795"/><line style="stroke:#666666;stroke-width:0.5;" x1="275.81" x2="538.4389" y1="938.4795" y2="938.4795"/><line style="stroke:#666666;stroke-width:0.5;" x1="538.4389" x2="538.4389" y1="938.4795" y2="984.4795"/><text fill="#000000" font-family="Helvetica" font-size="26" lengthAdjust="spacing" textLength="232.6289" x="290.81" y="968.5">Host Mic / Speakers</text></g><!--entity HW--><g class="entity" data-entity="HW" data-source-line="92" data-uid="ent0028" id="entity_HW"><polygon fill="#EEEEEE" points="583.69,938.4795,593.69,928.4795,824.5425,928.4795,824.5425,974.4795,814.5425,984.4795,583.69,984.4795,583.69,938.4795" style="stroke:#666666;stroke-width:0.5;"/><line style="stroke:#666666;stroke-width:0.5;" x1="814.5425" x2="824.5425" y1="938.4795" y2="928.4795"/><line style="stroke:#666666;stroke-width:0.5;" x1="583.69" x2="814.5425" y1="938.4795" y2="938.4795"/><line style="stroke:#666666;stroke-width:0.5;" x1="814.5425" x2="814.5425" y1="938.4795" y2="984.4795"/><text fill="#000000" font-family="Helvetica" font-size="26" lengthAdjust="spacing" textLength="200.8525" x="598.69" y="968.5">Apple Silicon HW</text></g><!--entity Nginx--><g class="entity" data-entity="Nginx" data-source-line="71" data-uid="ent0016" id="entity_Nginx"><polygon fill="#FFF176" points="1026.97,284.4795,1036.97,274.4795,1243.2698,274.4795,1243.2698,320.4795,1233.2698,330.4795,1026.97,330.4795,1026.97,284.4795" style="stroke:#666666;stroke-width:0.5;"/><line style="stroke:#666666;stroke-width:0.5;" x1="1233.2698" x2="1243.2698" y1="284.4795" y2="274.4795"/><line style="stroke:#666666;stroke-width:0.5;" x1="1026.97" x2="1233.2698" y1="284.4795" y2="284.4795"/><line style="stroke:#666666;stroke-width:0.5;" x1="1233.2698" x2="1233.2698" y1="284.4795" y2="330.4795"/><text fill="#000000" font-family="Helvetica" font-size="26" lengthAdjust="spacing" textLength="176.2998" x="1041.97" y="314.5">Nginx Gateway</text></g><!--entity GermanAPI--><g class="entity" data-entity="GermanAPI" data-source-line="72" data-uid="ent0017" id="entity_GermanAPI"><polygon fill="#E0F2F1" points="1027.37,476.4795,1037.37,466.4795,1328.868,466.4795,1328.868,512.4795,1318.868,522.4795,1027.37,522.4795,1027.37,476.4795" style="stroke:#666666;stroke-width:0.5;"/><line style="stroke:#666666;stroke-width:0.5;" x1="1318.868" x2="1328.868" y1="476.4795" y2="466.4795"/><line style="stroke:#666666;stroke-width:0.5;" x1="1027.37" x2="1318.868" y1="476.4795" y2="476.4795"/><line style="stroke:#666666;stroke-width:0.5;" x1="1318.868" x2="1318.868" y1="476.4795" y2="522.4795"/><text fill="#000000" font-family="Helvetica" font-size="26" lengthAdjust="spacing" textLength="261.498" x="1042.37" y="506.5">German-API (FastAPI)</text></g><!--entity HybridEngine--><g class="entity" data-entity="HybridEngine" data-source-line="73" data-uid="ent0018" id="entity_HybridEngine"><polygon fill="#E8F5E9" points="1027.45,670.4795,1037.45,660.4795,1334.8006,660.4795,1334.8006,706.4795,1324.8006,716.4795,1027.45,716.4795,1027.45,670.4795" style="stroke:#666666;stroke-width:0.5;"/><line style="stroke:#666666;stroke-width:0.5;" x1="1324.8006" x2="1334.8006" y1="670.4795" y2="660.4795"/><line style="stroke:#666666;stroke-width:0.5;" x1="1027.45" x2="1324.8006" y1="670.4795" y2="670.4795"/><line style="stroke:#666666;stroke-width:0.5;" x1="1324.8006" x2="1324.8006" y1="670.4795" y2="716.4795"/><text fill="#000000" font-family="Helvetica" font-size="26" lengthAdjust="spacing" textLength="267.3506" x="1042.45" y="700.5">Hybrid Analysis Engine</text></g><!--entity Assets--><g class="entity" data-entity="Assets" data-source-line="74" data-uid="ent0019" id="entity_Assets"><path d="M1409.98,476.9795 C1409.98,466.9795 1482.1236,466.9795 1482.1236,466.9795 C1482.1236,466.9795 1554.2671,466.9795 1554.2671,476.9795 L1554.2671,511.9795 C1554.2671,521.9795 1482.1236,521.9795 1482.1236,521.9795 C1482.1236,521.9795 1409.98,521.9795 1409.98,511.9795 L1409.98,476.9795" fill="#FFFFFF" style="stroke:#181818;stroke-width:0.5;"/><path d="M1409.98,476.9795 C1409.98,486.9795 1482.1236,486.9795 1482.1236,486.9795 C1482.1236,486.9795 1554.2671,486.9795 1554.2671,476.9795" fill="none" style="stroke:#181818;stroke-width:0.5;"/><text fill="#000000" font-family="Helvetica" font-size="26" lengthAdjust="spacing" textLength="124.2871" x="1419.98" y="511">Data Store</text></g><!--entity Ollama--><g class="entity" data-entity="Ollama" data-source-line="81" data-uid="ent0022" id="entity_Ollama"><polygon fill="#FFF3E0" points="469.38,476.4795,479.38,466.4795,640.8654,466.4795,640.8654,512.4795,630.8654,522.4795,469.38,522.4795,469.38,476.4795" style="stroke:#666666;stroke-width:0.5;"/><line style="stroke:#666666;stroke-width:0.5;" x1="630.8654" x2="640.8654" y1="476.4795" y2="466.4795"/><line style="stroke:#666666;stroke-width:0.5;" x1="469.38" x2="630.8654" y1="476.4795" y2="476.4795"/><line style="stroke:#666666;stroke-width:0.5;" x1="630.8654" x2="630.8654" y1="476.4795" y2="522.4795"/><text fill="#000000" font-family="Helvetica" font-size="26" lengthAdjust="spacing" textLength="131.4854" x="484.38" y="506.5">Ollama API</text></g><!--entity Whisper--><g class="entity" data-entity="Whisper" data-source-line="82" data-uid="ent0023" id="entity_Whisper"><polygon fill="#F3E5F5" points="675.75,476.4795,685.75,466.4795,854.4844,466.4795,854.4844,512.4795,844.4844,522.4795,675.75,522.4795,675.75,476.4795" style="stroke:#666666;stroke-width:0.5;"/><line style="stroke:#666666;stroke-width:0.5;" x1="844.4844" x2="854.4844" y1="476.4795" y2="466.4795"/><line style="stroke:#666666;stroke-width:0.5;" x1="675.75" x2="844.4844" y1="476.4795" y2="476.4795"/><line style="stroke:#666666;stroke-width:0.5;" x1="844.4844" x2="844.4844" y1="476.4795" y2="522.4795"/><text fill="#000000" font-family="Helvetica" font-size="26" lengthAdjust="spacing" textLength="138.7344" x="690.75" y="506.5">whisper.cpp</text></g><!--entity LangQuiz_Local--><g class="entity" data-entity="LangQuiz_Local" data-source-line="87" data-uid="ent0025" id="entity_LangQuiz_Local"><polygon fill="#FFF9C4" points="269.32,670.4795,279.32,660.4795,622.9323,660.4795,622.9323,706.4795,612.9323,716.4795,269.32,716.4795,269.32,670.4795" style="stroke:#666666;stroke-width:0.5;"/><line style="stroke:#666666;stroke-width:0.5;" x1="612.9323" x2="622.9323" y1="670.4795" y2="660.4795"/><line style="stroke:#666666;stroke-width:0.5;" x1="269.32" x2="612.9323" y1="670.4795" y2="670.4795"/><line style="stroke:#666666;stroke-width:0.5;" x1="612.9323" x2="612.9323" y1="670.4795" y2="716.4795"/><text fill="#000000" font-family="Helvetica" font-size="26" lengthAdjust="spacing" textLength="313.6123" x="284.32" y="700.5">LangQuiz Headless (Local)</text></g><!--entity NativeAudio--><g class="entity" data-entity="NativeAudio" data-source-line="88" data-uid="ent0026" id="entity_NativeAudio"><polygon fill="#E1F5FE" points="276.55,804.4795,286.55,794.4795,615.6896,794.4795,615.6896,840.4795,605.6896,850.4795,276.55,850.4795,276.55,804.4795" style="stroke:#666666;stroke-width:0.5;"/><line style="stroke:#666666;stroke-width:0.5;" x1="605.6896" x2="615.6896" y1="804.4795" y2="794.4795"/><line style="stroke:#666666;stroke-width:0.5;" x1="276.55" x2="605.6896" y1="804.4795" y2="804.4795"/><line style="stroke:#666666;stroke-width:0.5;" x1="605.6896" x2="605.6896" y1="804.4795" y2="850.4795"/><text fill="#000000" font-family="Helvetica" font-size="26" lengthAdjust="spacing" textLength="299.1396" x="291.55" y="834.5">Apple Speech Framework</text></g><!--reverse link ClientSpeech to ClientHW--><g class="link" data-entity-1="ClientSpeech" data-entity-2="ClientHW" data-source-line="59" data-uid="lnk9" id="link_ClientSpeech_ClientHW"><path d="M1871.12,528.5795 C1871.12,565.0695 1871.12,623.6295 1871.12,660.2095" fill="none" id="ClientSpeech-backto-ClientHW" style="stroke:#B0C4DE;stroke-width:2;"/><polygon fill="#B0C4DE" points="1871.12,522.5795,1867.12,531.5795,1871.12,527.5795,1875.12,531.5795,1871.12,522.5795" style="stroke:#B0C4DE;stroke-width:2;"/><text fill="#7D7D75" font-family="Helvetica" font-size="14" lengthAdjust="spacing" textLength="58.3652" x="1872.12" y="566.2598">Audio I/O</text></g><!--reverse link LangQuiz_Remote to ClientSpeech--><g class="link" data-entity-1="LangQuiz_Remote" data-entity-2="ClientSpeech" data-source-line="60" data-uid="lnk11" id="link_LangQuiz_Remote_ClientSpeech"><path d="M1852.96,336.6597 C1857.13,372.6797 1863.75,429.8495 1867.94,465.9995" fill="none" id="LangQuiz_Remote-backto-ClientSpeech" style="stroke:#B0C4DE;stroke-width:2;"/><polygon fill="#B0C4DE" points="1852.27,330.6995,1849.3315,340.0998,1852.845,335.6663,1857.2785,339.1798,1852.27,330.6995" style="stroke:#B0C4DE;stroke-width:2;"/><text fill="#7D7D75" font-family="Helvetica" font-size="14" lengthAdjust="spacing" textLength="132.2754" x="1858.5" y="372.2598">Swift Native Interface</text></g><!--link RemoteClient to LangQuiz_Remote--><g class="link" data-entity-1="RemoteClient" data-entity-2="LangQuiz_Remote" data-source-line="61" data-uid="lnk12" id="link_RemoteClient_LangQuiz_Remote"><path d="M1823.42,138.6995 C1829.11,174.7195 1838.1455,231.9227 1843.8455,268.0727" fill="none" id="RemoteClient-to-LangQuiz_Remote" style="stroke:#B0C4DE;stroke-width:2;"/><polygon fill="#B0C4DE" points="1844.78,273.9995,1847.3294,264.4863,1844.0012,269.0605,1839.427,265.7323,1844.78,273.9995" style="stroke:#B0C4DE;stroke-width:2;"/><text fill="#7D7D75" font-family="Helvetica" font-size="14" lengthAdjust="spacing" textLength="242.7715" x="1831.55" y="180.2598">Web Application UI / TTS and Dictation</text></g><!--link Nginx to GermanAPI--><g class="link" data-entity-1="Nginx" data-entity-2="GermanAPI" data-source-line="76" data-uid="lnk20" id="link_Nginx_GermanAPI"><path d="M1243.67,321.9095 C1263.87,330.3595 1282.54,342.6495 1295.12,360.4795 C1322.68,399.5595 1278.7219,437.1209 1235.9319,463.0409" fill="none" id="Nginx-to-GermanAPI" style="stroke:#FF1493;stroke-width:2;"/><polygon fill="#FF1493" points="1230.8,466.1495,1240.5703,464.9078,1235.0766,463.559,1236.4254,458.0653,1230.8,466.1495" style="stroke:#FF1493;stroke-width:2;"/><text fill="#7D7D75" font-family="Helvetica" font-size="14" lengthAdjust="spacing" textLength="73.9102" x="1303.21" y="372.2598">Proxy (App)</text></g><!--link Nginx to GermanAPI--><g class="link" data-entity-1="Nginx" data-entity-2="GermanAPI" data-source-line="124" data-uid="lnk47" id="link_Nginx_GermanAPI"><path d="M1127.0147,336.6205 C1124.4747,350.4305 1124,361.4995 1127.12,376.4795 C1133.86,408.7995 1147.1991,437.8393 1159.5391,460.8993" fill="none" id="Nginx-GermanAPI" style="stroke:#FF1493;stroke-width:2;"/><polygon fill="#FF1493" points="1128.1,330.7195,1122.538,338.8475,1127.1955,335.637,1130.406,340.2946,1128.1,330.7195" style="stroke:#FF1493;stroke-width:2;"/><polygon fill="#FF1493" points="1162.37,466.1895,1161.6504,456.367,1160.0109,461.781,1154.5969,460.1415,1162.37,466.1895" style="stroke:#FF1493;stroke-width:2;"/><text fill="#7D7D75" font-family="Helvetica" font-size="14" lengthAdjust="spacing" textLength="162.5859" x="1128.12" y="372.2598">Reverse Proxy (WS Pass)</text></g><!--link RemoteClient to Nginx--><g class="link" data-entity-1="RemoteClient" data-entity-2="Nginx" data-source-line="98" data-uid="lnk29" id="link_RemoteClient_Nginx"><path d="M1720.39,138.8995 C1590.63,174.9495 1369.7711,236.3037 1239.8811,272.3837" fill="none" id="RemoteClient-to-Nginx" style="stroke:#FF1493;stroke-width:2;"/><polygon fill="#FF1493" points="1234.1,273.9895,1243.8422,275.4348,1238.9176,272.6513,1241.7011,267.7267,1234.1,273.9895" style="stroke:#FF1493;stroke-width:2;"/><text fill="#7D7D75" font-family="Helvetica" font-size="14" lengthAdjust="spacing" textLength="120.5859" x="1598.88" y="180.2598">mTLS / API Access</text></g><!--link LocalBrowser to Nginx--><g class="link" data-entity-1="LocalBrowser" data-entity-2="Nginx" data-source-line="99" data-uid="lnk30" id="link_LocalBrowser_Nginx"><path d="M780.08,122.6295 C857.78,133.1795 948.66,153.4995 1023.12,192.4795 C1060.86,212.2395 1090.6819,244.0822 1111.0019,269.3722" fill="none" id="LocalBrowser-to-Nginx" style="stroke:#FF1493;stroke-width:2;"/><polygon fill="#FF1493" points="1114.76,274.0495,1112.241,264.5282,1111.6283,270.1518,1106.0047,269.539,1114.76,274.0495" style="stroke:#FF1493;stroke-width:2;"/><text fill="#7D7D75" font-family="Helvetica" font-size="14" lengthAdjust="spacing" textLength="233.4199" x="1003.77" y="180.2598">mTLS / Local Access (Relative paths)</text></g><!--link Nginx to Whisper--><g class="link" data-entity-1="Nginx" data-entity-2="Whisper" data-source-line="102" data-uid="lnk31" id="link_Nginx_Whisper"><path d="M1055.53,330.9595 C1032.76,339.6095 1008.15,349.7395 986.12,360.4795 C920.51,392.4595 853.86,434.338 810.46,462.938" fill="none" id="Nginx-to-Whisper" style="stroke:#FF1493;stroke-width:2;"/><polygon fill="#FF1493" points="805.45,466.2395,815.166,464.6272,809.625,463.4882,810.764,457.9472,805.45,466.2395" style="stroke:#FF1493;stroke-width:2;"/><text fill="#7D7D75" font-family="Helvetica" font-size="14" lengthAdjust="spacing" textLength="129.917" x="987.12" y="372.2598">Proxy (Transcription)</text></g><!--link Nginx to Ollama--><g class="link" data-entity-1="Nginx" data-entity-2="Ollama" data-source-line="103" data-uid="lnk32" id="link_Nginx_Ollama"><path d="M1026.7,329.9095 C1025.5,330.1095 1024.31,330.2995 1023.12,330.4795 C975.9,337.7695 631.35,330.5195 594.12,360.4795 C562.63,385.8295 555.8754,429.183 554.8154,460.123" fill="none" id="Nginx-to-Ollama" style="stroke:#FF1493;stroke-width:2;"/><polygon fill="#FF1493" points="554.61,466.1195,558.9158,457.2617,554.7812,461.1224,550.9205,456.9878,554.61,466.1195" style="stroke:#FF1493;stroke-width:2;"/><text fill="#7D7D75" font-family="Helvetica" font-size="14" lengthAdjust="spacing" textLength="107.3721" x="595.12" y="372.2598">Proxy (Inference)</text></g><!--link Nginx to LangQuiz_Local--><g class="link" data-entity-1="Nginx" data-entity-2="LangQuiz_Local" data-source-line="106" data-uid="lnk33" id="link_Nginx_LangQuiz_Local"><path d="M1026.7,329.9195 C1025.5,330.1095 1024.31,330.2995 1023.12,330.4795 C824.98,360.7395 772.53,340.1095 573.12,360.4795 C521.35,365.7695 508.96,371.8195 457.12,376.4795 C446.65,377.4195 275.39,376.8895 268.12,384.4795 C218.3,436.4595 236.78,481.6595 268.12,546.4795 C293.09,598.1195 341.948,633.6724 383.988,657.2724" fill="none" id="Nginx-to-LangQuiz_Local" style="stroke:#FF1493;stroke-width:2;"/><polygon fill="#FF1493" points="389.22,660.2095,383.3301,652.3159,384.86,657.7619,379.414,659.2919,389.22,660.2095" style="stroke:#FF1493;stroke-width:2;"/><text fill="#7D7D75" font-family="Helvetica" font-size="14" lengthAdjust="spacing" textLength="183.5928" x="269.12" y="498.2598">Proxy (Host Voice) via mDNS</text></g><!--reverse link LangQuiz_Remote to Nginx--><g class="link" data-entity-1="LangQuiz_Remote" data-entity-2="Nginx" data-source-line="107" data-uid="lnk35" id="link_LangQuiz_Remote_Nginx"><path d="M1651.5,302.4795 C1518.88,302.4795 1353.18,302.4795 1243.56,302.4795" fill="none" id="LangQuiz_Remote-backto-Nginx" style="stroke:#FF1493;stroke-width:2;"/><polygon fill="#FF1493" points="1657.5,302.4795,1648.5,298.4795,1652.5,302.4795,1648.5,306.4795,1657.5,302.4795" style="stroke:#FF1493;stroke-width:2;"/><text fill="#7D7D75" font-family="Helvetica" font-size="14" lengthAdjust="spacing" textLength="306.5508" x="1297.57" y="295.2598">Proxy (Remote Voice) via mDNS / Secure Tunnel</text></g><!--link LangQuiz_Remote to Nginx--><g class="link" data-entity-1="LangQuiz_Remote" data-entity-2="Nginx" data-source-line="123" data-uid="lnk46" id="link_LangQuiz_Remote_Nginx"><path d="M1657.4,317.1095 C1567.3,322.1395 1458.42,325.5995 1360.57,321.4795 C1322.41,319.8695 1286.6769,317.2755 1249.6369,314.0155" fill="none" id="LangQuiz_Remote-to-Nginx" style="stroke:#FF1493;stroke-width:2;"/><polygon fill="#FF1493" points="1243.66,313.4895,1252.2746,318.2632,1248.6407,313.9279,1252.976,310.294,1243.66,313.4895" style="stroke:#FF1493;stroke-width:2;"/><text fill="#7D7D75" font-family="Helvetica" font-size="14" lengthAdjust="spacing" textLength="178.1855" x="1361.57" y="317.2598">mTLS / WebSocket Upgrade</text></g><!--link LocalBrowser to LangQuiz_Local--><g class="link" data-entity-1="LocalBrowser" data-entity-2="LangQuiz_Local" data-source-line="110" data-uid="lnk36" id="link_LocalBrowser_LangQuiz_Local"><path d="M515.73,138.8895 C418.62,173.1995 271.01,242.3195 205.12,360.4795 C181.25,403.2795 6,191.7995 229.12,546.4795 C262.79,600.0095 319.5824,634.7849 368.8024,657.5049" fill="none" id="LocalBrowser-to-LangQuiz_Local" style="stroke:#B0C4DE;stroke-width:2;"/><polygon fill="#B0C4DE" points="374.25,660.0195,367.755,652.6158,369.7103,657.924,364.4021,659.8793,374.25,660.0195" style="stroke:#B0C4DE;stroke-width:2;"/><text fill="#7D7D75" font-family="Helvetica" font-size="14" lengthAdjust="spacing" textLength="242.7715" x="206.12" y="372.2598">Web Application UI / TTS and Dictation</text></g><!--link GermanAPI to HybridEngine--><g class="link" data-entity-1="GermanAPI" data-entity-2="HybridEngine" data-source-line="113" data-uid="lnk37" id="link_GermanAPI_HybridEngine"><path d="M1178.54,522.5795 C1179.11,559.0695 1180.0249,617.6302 1180.6049,654.2102" fill="none" id="GermanAPI-to-HybridEngine" style="stroke:#B0C4DE;stroke-width:2;"/><polygon fill="#B0C4DE" points="1180.7,660.2095,1184.5568,651.1472,1180.6207,655.2101,1176.5578,651.274,1180.7,660.2095" style="stroke:#B0C4DE;stroke-width:2;"/><text fill="#7D7D75" font-family="Helvetica" font-size="14" lengthAdjust="spacing" textLength="49.8066" x="1180.26" y="566.2598">Analyze</text></g><!--link GermanAPI to Assets--><g class="link" data-entity-1="GermanAPI" data-entity-2="Assets" data-source-line="114" data-uid="lnk38" id="link_GermanAPI_Assets"><path d="M1329.23,494.4795 C1357.25,494.4795 1379.3,494.4795 1403.59,494.4795" fill="none" id="GermanAPI-to-Assets" style="stroke:#B0C4DE;stroke-width:2;"/><polygon fill="#B0C4DE" points="1409.59,494.4795,1400.59,490.4795,1404.59,494.4795,1400.59,498.4795,1409.59,494.4795" style="stroke:#B0C4DE;stroke-width:2;"/><text fill="#7D7D75" font-family="Helvetica" font-size="14" lengthAdjust="spacing" textLength="45.124" x="1346.92" y="487.2598">Stream</text></g><!--link NativeAudio to HostAudioIO--><g class="link" data-entity-1="NativeAudio" data-entity-2="HostAudioIO" data-source-line="115" data-uid="lnk39" id="link_NativeAudio_HostAudioIO"><path d="M439.08,850.8295 C433.24,873.4795 426.4862,899.709 420.6562,922.349" fill="none" id="NativeAudio-to-HostAudioIO" style="stroke:#B0C4DE;stroke-width:2;"/><polygon fill="#B0C4DE" points="419.16,928.1595,425.278,920.4413,420.4069,923.3175,417.5307,918.4463,419.16,928.1595" style="stroke:#B0C4DE;stroke-width:2;"/><text fill="#7D7D75" font-family="Helvetica" font-size="14" lengthAdjust="spacing" textLength="58.3652" x="431.14" y="894.2598">Audio I/O</text></g><!--link LangQuiz_Local to NativeAudio--><g class="link" data-entity-1="LangQuiz_Local" data-entity-2="NativeAudio" data-source-line="116" data-uid="lnk40" id="link_LangQuiz_Local_NativeAudio"><path d="M421.46,716.6895 C411.87,730.5395 404.22,747.9095 409.12,764.4795 C412.2,774.8895 414.5102,780.1949 420.4802,789.1049" fill="none" id="LangQuiz_Local-to-NativeAudio" style="stroke:#B0C4DE;stroke-width:2;"/><polygon fill="#B0C4DE" points="423.82,794.0895,422.1333,784.3861,421.0368,789.9357,415.4873,788.8392,423.82,794.0895" style="stroke:#B0C4DE;stroke-width:2;"/><text fill="#7D7D75" font-family="Helvetica" font-size="14" lengthAdjust="spacing" textLength="45.1309" x="410.12" y="760.2598">Control</text></g><!--reverse link Ollama to LangQuiz_Local--><g class="link" data-entity-1="Ollama" data-entity-2="LangQuiz_Local" data-source-line="117" data-uid="lnk42" id="link_Ollama_LangQuiz_Local"><path d="M465.4946,526.0523 C452.1546,534.1123 445.25,541.3295 437.12,554.4795 C417.35,586.4695 426.31,631.4395 435.48,660.0195" fill="none" id="Ollama-backto-LangQuiz_Local" style="stroke:#B0C4DE;stroke-width:2;"/><polygon fill="#B0C4DE" points="470.63,522.9495,460.8583,524.1801,466.3505,525.5352,464.9954,531.0273,470.63,522.9495" style="stroke:#B0C4DE;stroke-width:2;"/><text fill="#7D7D75" font-family="Helvetica" font-size="14" lengthAdjust="spacing" textLength="71.5859" x="438.12" y="566.2598">Chat Query</text></g><!--link GermanAPI to Ollama--><g class="link" data-entity-1="GermanAPI" data-entity-2="Ollama" data-source-line="118" data-uid="lnk43" id="link_GermanAPI_Ollama"><path d="M1128.22,466.0195 C1033.33,415.8695 821.76,323.2095 658.12,391.1495 C621.63,406.2995 594.8674,436.4814 576.7974,461.5614" fill="none" id="GermanAPI-to-Ollama" style="stroke:#B0C4DE;stroke-width:2;"/><polygon fill="#B0C4DE" points="573.29,466.4295,581.7965,461.4657,576.2128,462.3728,575.3057,456.7891,573.29,466.4295" style="stroke:#B0C4DE;stroke-width:2;"/><text fill="#7D7D75" font-family="Helvetica" font-size="14" lengthAdjust="spacing" textLength="83.2686" x="711.62" y="372.2598">LLM Request</text></g><!--link GermanAPI to Whisper--><g class="link" data-entity-1="GermanAPI" data-entity-2="Whisper" data-source-line="119" data-uid="lnk44" id="link_GermanAPI_Whisper"><path d="M1026.94,512.8495 C977.49,516.4595 922.33,517.9295 871.93,513.4795 C866.3,512.9795 866.4821,513.0963 860.6621,512.3563" fill="none" id="GermanAPI-to-Whisper" style="stroke:#B0C4DE;stroke-width:2;"/><polygon fill="#B0C4DE" points="854.71,511.5995,863.1336,516.7027,859.6701,512.2302,864.1427,508.7666,854.71,511.5995" style="stroke:#B0C4DE;stroke-width:2;"/><text fill="#7D7D75" font-family="Helvetica" font-size="14" lengthAdjust="spacing" textLength="136.9512" x="872.93" y="509.2598">Transcription Request</text></g><!--link GermanAPI to LangQuiz_Local--><g class="link" data-entity-1="GermanAPI" data-entity-2="LangQuiz_Local" data-source-line="122" data-uid="lnk45" id="link_GermanAPI_LangQuiz_Local"><path d="M1067.8263,524.4118 C928.7863,560.8818 695.9337,621.9573 556.7337,658.4673" fill="none" id="GermanAPI-LangQuiz_Local" style="stroke:#B0C4DE;stroke-width:2;"/><polygon fill="#B0C4DE" points="1073.63,522.8895,1063.9096,521.3038,1068.7936,524.1581,1065.9394,529.0421,1073.63,522.8895" style="stroke:#B0C4DE;stroke-width:2;"/><polygon fill="#B0C4DE" points="550.93,659.9895,560.6504,661.5753,555.7664,658.721,558.6207,653.837,550.93,659.9895" style="stroke:#B0C4DE;stroke-width:2;"/><text fill="#7D7D75" font-family="Helvetica" font-size="14" lengthAdjust="spacing" textLength="118.2686" x="942.35" y="566.2598">WebSocket (Local)</text></g><!--link NativeAudio to HW--><g class="link" data-entity-1="NativeAudio" data-entity-2="HW" data-source-line="127" data-uid="lnk48" id="link_NativeAudio_HW"><path d="M499.58,850.8295 C543.86,873.4795 601.1283,902.7871 645.3883,925.4271" fill="none" id="NativeAudio-to-HW" style="stroke:#B0C4DE;stroke-width:2;"/><polygon fill="#B0C4DE" points="650.73,928.1595,644.539,920.4997,646.2786,925.8825,640.8958,927.622,650.73,928.1595" style="stroke:#B0C4DE;stroke-width:2;"/></g><!--link Whisper to HW--><g class="link" data-entity-1="Whisper" data-entity-2="HW" data-source-line="128" data-uid="lnk49" id="link_Whisper_HW"><path d="M761.49,522.8795 C750.64,604.6895 719.3484,840.6515 708.5284,922.2815" fill="none" id="Whisper-to-HW" style="stroke:#B0C4DE;stroke-width:2;"/><polygon fill="#B0C4DE" points="707.74,928.2295,712.8879,919.8331,708.397,923.2728,704.9573,918.7819,707.74,928.2295" style="stroke:#B0C4DE;stroke-width:2;"/></g><!--link Ollama to HW--><g class="link" data-entity-1="Ollama" data-entity-2="HW" data-source-line="129" data-uid="lnk50" id="link_Ollama_HW"><path d="M591.84,522.7695 C608.89,537.3995 627.83,556.8495 639.12,578.4795 C671.24,640.0095 693.6609,846.3775 701.0209,922.2775" fill="none" id="Ollama-to-HW" style="stroke:#B0C4DE;stroke-width:2;"/><polygon fill="#B0C4DE" points="701.6,928.2495,704.7127,918.9054,701.1174,923.2728,696.75,919.6776,701.6,928.2495" style="stroke:#B0C4DE;stroke-width:2;"/></g><!--SRC=[bLPDSjl64jxZ56tnLPcg2crJYknOfRYA8a6H5Vx812qbxrNADGHQ18hW3380A5EfB7A0722BBBJCmia9uWsZUwLd1WG1adQUmOK4J7TF_tpzTJ-A99lE6SIBQHyJvh64mGqBOxIiH_y9N14A2L_3GQKNJFt4IH33yp350yjw3BLQ3Ivwm_FLpxt1wXTmlXcjVhjQ_Qp_7ziZUpZ-xlBX3oLc-O6742SeKIJB26EbVdNdX-XPyIpW4PDi3XFcpgPIfDmproQIyPYEa2S5gTXddhWD-3HpStEYLPj2SfHGVrOuQE4DIyEaBNWoO7E43eOBJ0ANxPTnWZk4e-TMuPH9AMxXHmleQMhdAYt4w3BWC_rjx0VkZ6CSmv5-LsOokHSU_Kxohzfu_KlztWiugdI0a8alh9zKLiYFW0SkKZOaBgn7ddf7w7K7zjlci3SSGULB_UH7pTuRbUwtdQ4pXahxIFrs3dkDmSNhDzt_GiMkjq_Qzex0uA8x-9RKs-sNpLtR8xi_7Dka_9NTQ9So8z5D69-6c6NdF2-YZl_ip1TnykfLoKiZAAI7iYoqYNA_hP1k-Y4DxWhsre7jsYm8L-elNpnl7UqtAd4k4YoODC7k6im5AyVja_hvoNvpV1hmTmLhEh6gjfkSSU5z95sw0FHiNmwLv_en656Dr-esBaQDlkuk-fGLgDdhseCnz1lD3gKIQjHatke-HBxw7I99INxu5RtLUuXXWjH-R25I27XC5NHNxwrDBGz6EbPeXW5r7_IPwnCS3g2O1A_kJV1P5eSEwU0Q9t1EdH9J1rQDYSC3O36O_pDhwnYrOk7E7lrzJGMZ3fDOq2-LqbotkJ9NwY3pGjM1fOlNns-pWDO0BnjfH14vu4I8hWzjAX7U2Zc3Qa-uB3I6ZE-PoDcPAcGOOYYc9AsoaRMLilcJLKY9DW7zm8MdwW8sGnaN37QkoTX4l3lsb14oGJ-Z_XWk7tvTlP-l_e94pC0Ju3FftJAPGaHLZC6v3MuI8hqxdtYIggUvQMsqbaR_o-Zx-zghilUdq4YzG43twR2Wb1rkAMxdxpIxTi2IO87GvSJfDyn5RQXKvHgnDF-qAGKNbNfYuYGG7DvqAKdZiGECUz0A21Zgiy7ydBb31mQDSVVA1arrLSSUNTcZmo9iCodZN8Vmhj2JaKi5FVKZ17qCiQPMIYq3ZtfVdwuhd1Md_WGkx56_CQWrBhjGRGcNAal8dKSYniDjQ5-Wd3EkHPs4MdwjeD7jqbXWr5vIEUbEFCzziGFpWM8Lk609thAbTivyKNYkltY-9LsuhjfcSKB_c8ZCWVfUiP_HeAXlANQM4nbuqE0iNCP13BPYCzIgviXyK8EWVMA_pBNLsZ1XCLbegGN2IQY3jLOZZZ69oosl7kEznWX1O-FMALnAyMu9LSB5OR6R7iFH4nZs1zt1i6NJSJVp3HoK2yeyPxfmGO9Xi9F-uPm7Ei2g0OZIeHdxRzmo34D6gn7vfMF9Ni_EF95EGXHaVYguxjjs-zX-jgLzwmTnXFA96qLQ_Tgya_InhRgy5Dpn4yX7T7CueWYpk1orEJcOfD7Xl_1b2RsVova5filxr1Zy7COqmDJTPoZcCuXIERwF9zLtRQmxt4ELEnu5n2P49PrheroYLri_cnaw7dxp7JL8RtZj7Au7gIRTcD8DCmFIb40pxZcmMFBKHIw-0FdmvyC7iQ2H6jB-jpoqohmdrQPCe3OGFmMj_LIX21gkIzcsIhooxe4jSPDyew16McWuBMA97nygHvqmVVWmMMR3m6XNHzkkPNsszccDmRpDnch7TcKGAQRT4SyGdqjt-Gsjy9mwH-yS8atehdiQFd2tJXRrOSg3cs0c5anj7TcUOVOF2cQPuokroYImXRlyKWsCAw7w5HO1WtbhuAnLGxn9zewMJ3Txtz9M44CtfQOPfvnZcDTzlhg7cPXJ03EQQH2A6IrF59ulbFT-k7h_y07__WKt-zFghpcW9g8v-1d_u9u2xns4wq3_ppb8Nkfvg_9DAy4IOaqH1D2-yAHukAVLBY_yXb9txYyn-QaX-piiQkZw5rKo6gVfdqXaSwlOuxls2nrRt3MsujxHAnez9LBZYHJXZbPvFyaHslHP0gzJbCjF1fBBztfzsbT-I35EFgcmwPXIg-IwL1GgdwEcUGBnahk-53ouK_2fviltlOBFkrAlVh515_LCfD4dYcKxg-Lkx8TCTcT6tTPs3toCXpQQRoBYP0-pNZhRciCZ96pHHCywwTg1InORwkcOHHI1pLo2krJxtwSHSMsjyxZlB2lAlgD_0000]--></g></svg>