<svg xmlns="http://www.w3.org/2000/svg" xmlns:xlink="http://www.w3.org/1999/xlink" contentStyleType="text/css" data-diagram-type="DESCRIPTION" height="1063px" preserveAspectRatio="none" style="width:2132px;height:1063px;background:#FFFFFF;" version="1.1" viewBox="0 0 2132 1063" width="2132px" zoomAndPan="magnify"><title>OmniLingua Runtime Architecture &amp; Deployment Topology</title><defs/><g><g class="title" data-source-line="1"><text fill="#000000" font-family="Helvetica" font-size="36" font-weight="bold" lengthAdjust="spacing" textLength="1010.0566" x="554.2367" y="37.7207">OmniLingua Runtime Architecture &amp; Deployment Topology</text></g><!--cluster Remote Client Machine--><g class="cluster" data-entity="Remote Client Machine" data-source-line="55" data-uid="ent0002" id="cluster_Remote Client Machine"><rect fill="#D1DBE0" height="724" rx="5" ry="5" style="stroke:#3F51B5;stroke-width:1;" width="506" x="1620.53" y="65.4795"/><text fill="#000000" font-family="Helvetica" font-size="26" font-weight="bold" lengthAdjust="spacing" textLength="286.0508" x="1730.5046" y="87.5">Remote Client Machine</text></g><!--cluster LangQuiz Core (Remote)--><g class="cluster" data-entity="LangQuiz Core .Remote." data-source-line="58" data-uid="ent0004" id="cluster_LangQuiz Core .Remote."><rect fill="#E1F5FE" height="338" rx="5" ry="5" style="stroke:#1976D2;stroke-width:1;" width="458" x="1644.53" y="257.4795"/><text fill="#000000" font-family="Helvetica" font-size="26" font-weight="bold" lengthAdjust="spacing" textLength="304.7891" x="1721.1355" y="279.5">LangQuiz Core (Remote)</text></g><!--cluster macOS Native Host--><g class="cluster" data-entity="macOS Native Host" data-source-line="71" data-uid="ent0013" id="cluster_macOS Native Host"><rect fill="#EDEDED" height="992" rx="5" ry="5" style="stroke:#444444;stroke-width:1;" width="1433" x="163.53" y="65.4795"/><text fill="#000000" font-family="Helvetica" font-size="26" font-weight="bold" lengthAdjust="spacing" textLength="239.8652" x="760.0974" y="87.5">macOS Native Host</text></g><!--cluster German-API Stack (Docker)--><g class="cluster" data-entity="German-API Stack .Docker." data-source-line="76" data-uid="ent0015" id="cluster_German-API Stack .Docker."><rect fill="#CBDDC7" height="532" rx="5" ry="5" style="stroke:#181818;stroke-width:1;" width="559" x="1013.53" y="257.4795"/><text fill="#000000" font-family="Helvetica" font-size="26" font-weight="bold" lengthAdjust="spacing" textLength="339.5615" x="1123.2492" y="279.5">German-API Stack (Docker)</text></g><!--cluster Omninode (macOS Service)--><g class="cluster" data-entity="Omninode .macOS Service." data-source-line="86" data-uid="ent0021" id="cluster_Omninode .macOS Service."><rect fill="#E1F5FE" height="146" rx="5" ry="5" style="stroke:#1976D2;stroke-width:1;" width="417" x="455.53" y="449.4795"/><text fill="#000000" font-family="Helvetica" font-size="26" font-weight="bold" lengthAdjust="spacing" textLength="342.4434" x="492.8083" y="471.5">Omninode (macOS Service)</text></g><!--cluster LangQuiz Core (Local Host)--><g class="cluster" data-entity="LangQuiz Core .Local Host." data-source-line="92" data-uid="ent0024" id="cluster_LangQuiz Core .Local Host."><rect fill="#E1F5FE" height="280" rx="5" ry="5" style="stroke:#1976D2;stroke-width:1;" width="386" x="255.53" y="643.4795"/><text fill="#000000" font-family="Helvetica" font-size="26" font-weight="bold" lengthAdjust="spacing" textLength="342.3418" x="277.3591" y="665.5">LangQuiz Core (Local Host)</text></g><!--entity RemoteClient--><g class="entity" data-entity="RemoteClient" data-source-line="56" data-uid="ent0003" id="entity_RemoteClient"><polygon fill="#FFFFFF" points="1665.72,149.4795,1675.72,139.4795,1977.3362,139.4795,1977.3362,185.4795,1967.3362,195.4795,1665.72,195.4795,1665.72,149.4795" style="stroke:#666666;stroke-width:0.5;"/><line style="stroke:#666666;stroke-width:0.5;" x1="1967.3362" x2="1977.3362" y1="149.4795" y2="139.4795"/><line style="stroke:#666666;stroke-width:0.5;" x1="1665.72" x2="1967.3362" y1="149.4795" y2="149.4795"/><line style="stroke:#666666;stroke-width:0.5;" x1="1967.3362" x2="1967.3362" y1="149.4795" y2="195.4795"/><text fill="#000000" font-family="Helvetica" font-size="26" lengthAdjust="spacing" textLength="271.6162" x="1680.72" y="179.5">Web Browser (Remote)</text></g><!--entity ClientHW--><g class="entity" data-entity="ClientHW" data-source-line="63" data-uid="ent0007" id="entity_ClientHW"><polygon fill="#F5F5F5" points="1732.87,727.4795,1742.87,717.4795,2014.1952,717.4795,2014.1952,763.4795,2004.1952,773.4795,1732.87,773.4795,1732.87,727.4795" style="stroke:#666666;stroke-width:0.5;"/><line style="stroke:#666666;stroke-width:0.5;" x1="2004.1952" x2="2014.1952" y1="727.4795" y2="717.4795"/><line style="stroke:#666666;stroke-width:0.5;" x1="1732.87" x2="2004.1952" y1="727.4795" y2="727.4795"/><line style="stroke:#666666;stroke-width:0.5;" x1="2004.1952" x2="2004.1952" y1="727.4795" y2="773.4795"/><text fill="#000000" font-family="Helvetica" font-size="26" lengthAdjust="spacing" textLength="241.3252" x="1747.87" y="757.5">Local Mic / Speakers</text></g><!--entity LangQuiz_Remote--><g class="entity" data-entity="LangQuiz_Remote" data-source-line="59" data-uid="ent0005" id="entity_LangQuiz_Remote"><polygon fill="#FFF9C4" points="1660.28,341.4795,1670.28,331.4795,2042.7741,331.4795,2042.7741,377.4795,2032.7741,387.4795,1660.28,387.4795,1660.28,341.4795" style="stroke:#666666;stroke-width:0.5;"/><line style="stroke:#666666;stroke-width:0.5;" x1="2032.7741" x2="2042.7741" y1="341.4795" y2="331.4795"/><line style="stroke:#666666;stroke-width:0.5;" x1="1660.28" x2="2032.7741" y1="341.4795" y2="341.4795"/><line style="stroke:#666666;stroke-width:0.5;" x1="2032.7741" x2="2032.7741" y1="341.4795" y2="387.4795"/><text fill="#000000" font-family="Helvetica" font-size="26" lengthAdjust="spacing" textLength="342.4941" x="1675.28" y="371.5">LangQuiz Headless (Remote)</text></g><!--entity ClientSpeech--><g class="entity" data-entity="ClientSpeech" data-source-line="60" data-uid="ent0006" id="entity_ClientSpeech"><polygon fill="#E1F5FE" points="1660.61,533.4795,1670.61,523.4795,2086.4459,523.4795,2086.4459,569.4795,2076.4459,579.4795,1660.61,579.4795,1660.61,533.4795" style="stroke:#666666;stroke-width:0.5;"/><line style="stroke:#666666;stroke-width:0.5;" x1="2076.4459" x2="2086.4459" y1="533.4795" y2="523.4795"/><line style="stroke:#666666;stroke-width:0.5;" x1="1660.61" x2="2076.4459" y1="533.4795" y2="533.4795"/><line style="stroke:#666666;stroke-width:0.5;" x1="2076.4459" x2="2076.4459" y1="533.4795" y2="579.4795"/><text fill="#000000" font-family="Helvetica" font-size="26" lengthAdjust="spacing" textLength="385.8359" x="1675.61" y="563.5">Apple Speech Framework (Local)</text></g><!--entity LocalBrowser--><g class="entity" data-entity="LocalBrowser" data-source-line="73" data-uid="ent0014" id="entity_LocalBrowser"><polygon fill="#E1F5FE" points="452.82,149.4795,462.82,139.4795,796.238,139.4795,796.238,185.4795,786.238,195.4795,452.82,195.4795,452.82,149.4795" style="stroke:#666666;stroke-width:0.5;"/><line style="stroke:#666666;stroke-width:0.5;" x1="786.238" x2="796.238" y1="149.4795" y2="139.4795"/><line style="stroke:#666666;stroke-width:0.5;" x1="452.82" x2="786.238" y1="149.4795" y2="149.4795"/><line style="stroke:#666666;stroke-width:0.5;" x1="786.238" x2="786.238" y1="149.4795" y2="195.4795"/><text fill="#000000" font-family="Helvetica" font-size="26" lengthAdjust="spacing" textLength="303.418" x="467.82" y="179.5">Web Browser (Local Host)</text></g><!--entity HostAudioIO--><g class="entity" data-entity="HostAudioIO" data-source-line="97" data-uid="ent0027" id="entity_HostAudioIO"><polygon fill="#F5F5F5" points="278.22,995.4795,288.22,985.4795,550.8489,985.4795,550.8489,1031.4795,540.8489,1041.4795,278.22,1041.4795,278.22,995.4795" style="stroke:#666666;stroke-width:0.5;"/><line style="stroke:#666666;stroke-width:0.5;" x1="540.8489" x2="550.8489" y1="995.4795" y2="985.4795"/><line style="stroke:#666666;stroke-width:0.5;" x1="278.22" x2="540.8489" y1="995.4795" y2="995.4795"/><line style="stroke:#666666;stroke-width:0.5;" x1="540.8489" x2="540.8489" y1="995.4795" y2="1041.4795"/><text fill="#000000" font-family="Helvetica" font-size="26" lengthAdjust="spacing" textLength="232.6289" x="293.22" y="1025.5">Host Mic / Speakers</text></g><!--entity HW--><g class="entity" data-entity="HW" data-source-line="98" data-uid="ent0028" id="entity_HW"><polygon fill="#EEEEEE" points="586.11,995.4795,596.11,985.4795,826.9625,985.4795,826.9625,1031.4795,816.9625,1041.4795,586.11,1041.4795,586.11,995.4795" style="stroke:#666666;stroke-width:0.5;"/><line style="stroke:#666666;stroke-width:0.5;" x1="816.9625" x2="826.9625" y1="995.4795" y2="985.4795"/><line style="stroke:#666666;stroke-width:0.5;" x1="586.11" x2="816.9625" y1="995.4795" y2="995.4795"/><line style="stroke:#666666;stroke-width:0.5;" x1="816.9625" x2="816.9625" y1="995.4795" y2="1041.4795"/><text fill="#000000" font-family="Helvetica" font-size="26" lengthAdjust="spacing" textLength="200.8525" x="601.11" y="1025.5">Apple Silicon HW</text></g><!--entity Nginx--><g class="entity" data-entity="Nginx" data-source-line="77" data-uid="ent0016" id="entity_Nginx"><polygon fill="#FFF176" points="1029.38,341.4795,1039.38,331.4795,1245.6798,331.4795,1245.6798,377.4795,1235.6798,387.4795,1029.38,387.4795,1029.38,341.4795" style="stroke:#666666;stroke-width:0.5;"/><line style="stroke:#666666;stroke-width:0.5;" x1="1235.6798" x2="1245.6798" y1="341.4795" y2="331.4795"/><line style="stroke:#666666;stroke-width:0.5;" x1="1029.38" x2="1235.6798" y1="341.4795" y2="341.4795"/><line style="stroke:#666666;stroke-width:0.5;" x1="1235.6798" x2="1235.6798" y1="341.4795" y2="387.4795"/><text fill="#000000" font-family="Helvetica" font-size="26" lengthAdjust="spacing" textLength="176.2998" x="1044.38" y="371.5">Nginx Gateway</text></g><!--entity GermanAPI--><g class="entity" data-entity="GermanAPI" data-source-line="78" data-uid="ent0017" id="entity_GermanAPI"><polygon fill="#E0F2F1" points="1029.78,533.4795,1039.78,523.4795,1331.278,523.4795,1331.278,569.4795,1321.278,579.4795,1029.78,579.4795,1029.78,533.4795" style="stroke:#666666;stroke-width:0.5;"/><line style="stroke:#666666;stroke-width:0.5;" x1="1321.278" x2="1331.278" y1="533.4795" y2="523.4795"/><line style="stroke:#666666;stroke-width:0.5;" x1="1029.78" x2="1321.278" y1="533.4795" y2="533.4795"/><line style="stroke:#666666;stroke-width:0.5;" x1="1321.278" x2="1321.278" y1="533.4795" y2="579.4795"/><text fill="#000000" font-family="Helvetica" font-size="26" lengthAdjust="spacing" textLength="261.498" x="1044.78" y="563.5">German-API (FastAPI)</text></g><!--entity HybridEngine--><g class="entity" data-entity="HybridEngine" data-source-line="79" data-uid="ent0018" id="entity_HybridEngine"><polygon fill="#E8F5E9" points="1029.86,727.4795,1039.86,717.4795,1337.2106,717.4795,1337.2106,763.4795,1327.2106,773.4795,1029.86,773.4795,1029.86,727.4795" style="stroke:#666666;stroke-width:0.5;"/><line style="stroke:#666666;stroke-width:0.5;" x1="1327.2106" x2="1337.2106" y1="727.4795" y2="717.4795"/><line style="stroke:#666666;stroke-width:0.5;" x1="1029.86" x2="1327.2106" y1="727.4795" y2="727.4795"/><line style="stroke:#666666;stroke-width:0.5;" x1="1327.2106" x2="1327.2106" y1="727.4795" y2="773.4795"/><text fill="#000000" font-family="Helvetica" font-size="26" lengthAdjust="spacing" textLength="267.3506" x="1044.86" y="757.5">Hybrid Analysis Engine</text></g><!--entity Assets--><g class="entity" data-entity="Assets" data-source-line="80" data-uid="ent0019" id="entity_Assets"><path d="M1412.39,533.9795 C1412.39,523.9795 1484.5336,523.9795 1484.5336,523.9795 C1484.5336,523.9795 1556.6771,523.9795 1556.6771,533.9795 L1556.6771,568.9795 C1556.6771,578.9795 1484.5336,578.9795 1484.5336,578.9795 C1484.5336,578.9795 1412.39,578.9795 1412.39,568.9795 L1412.39,533.9795" fill="#FFFFFF" style="stroke:#181818;stroke-width:0.5;"/><path d="M1412.39,533.9795 C1412.39,543.9795 1484.5336,543.9795 1484.5336,543.9795 C1484.5336,543.9795 1556.6771,543.9795 1556.6771,533.9795" fill="none" style="stroke:#181818;stroke-width:0.5;"/><text fill="#000000" font-family="Helvetica" font-size="26" lengthAdjust="spacing" textLength="124.2871" x="1422.39" y="568">Data Store</text></g><!--entity Ollama--><g class="entity" data-entity="Ollama" data-source-line="87" data-uid="ent0022" id="entity_Ollama"><polygon fill="#FFF3E0" points="471.79,533.4795,481.79,523.4795,643.2754,523.4795,643.2754,569.4795,633.2754,579.4795,471.79,579.4795,471.79,533.4795" style="stroke:#666666;stroke-width:0.5;"/><line style="stroke:#666666;stroke-width:0.5;" x1="633.2754" x2="643.2754" y1="533.4795" y2="523.4795"/><line style="stroke:#666666;stroke-width:0.5;" x1="471.79" x2="633.2754" y1="533.4795" y2="533.4795"/><line style="stroke:#666666;stroke-width:0.5;" x1="633.2754" x2="633.2754" y1="533.4795" y2="579.4795"/><text fill="#000000" font-family="Helvetica" font-size="26" lengthAdjust="spacing" textLength="131.4854" x="486.79" y="563.5">Ollama API</text></g><!--entity Whisper--><g class="entity" data-entity="Whisper" data-source-line="88" data-uid="ent0023" id="entity_Whisper"><polygon fill="#F3E5F5" points="678.16,533.4795,688.16,523.4795,856.8944,523.4795,856.8944,569.4795,846.8944,579.4795,678.16,579.4795,678.16,533.4795" style="stroke:#666666;stroke-width:0.5;"/><line style="stroke:#666666;stroke-width:0.5;" x1="846.8944" x2="856.8944" y1="533.4795" y2="523.4795"/><line style="stroke:#666666;stroke-width:0.5;" x1="678.16" x2="846.8944" y1="533.4795" y2="533.4795"/><line style="stroke:#666666;stroke-width:0.5;" x1="846.8944" x2="846.8944" y1="533.4795" y2="579.4795"/><text fill="#000000" font-family="Helvetica" font-size="26" lengthAdjust="spacing" textLength="138.7344" x="693.16" y="563.5">whisper.cpp</text></g><!--entity LangQuiz_Local--><g class="entity" data-entity="LangQuiz_Local" data-source-line="93" data-uid="ent0025" id="entity_LangQuiz_Local"><polygon fill="#FFF9C4" points="271.73,727.4795,281.73,717.4795,625.3423,717.4795,625.3423,763.4795,615.3423,773.4795,271.73,773.4795,271.73,727.4795" style="stroke:#666666;stroke-width:0.5;"/><line style="stroke:#666666;stroke-width:0.5;" x1="615.3423" x2="625.3423" y1="727.4795" y2="717.4795"/><line style="stroke:#666666;stroke-width:0.5;" x1="271.73" x2="615.3423" y1="727.4795" y2="727.4795"/><line style="stroke:#666666;stroke-width:0.5;" x1="615.3423" x2="615.3423" y1="727.4795" y2="773.4795"/><text fill="#000000" font-family="Helvetica" font-size="26" lengthAdjust="spacing" textLength="313.6123" x="286.73" y="757.5">LangQuiz Headless (Local)</text></g><!--entity NativeAudio--><g class="entity" data-entity="NativeAudio" data-source-line="94" data-uid="ent0026" id="entity_NativeAudio"><polygon fill="#E1F5FE" points="278.96,861.4795,288.96,851.4795,618.0996,851.4795,618.0996,897.4795,608.0996,907.4795,278.96,907.4795,278.96,861.4795" style="stroke:#666666;stroke-width:0.5;"/><line style="stroke:#666666;stroke-width:0.5;" x1="608.0996" x2="618.0996" y1="861.4795" y2="851.4795"/><line style="stroke:#666666;stroke-width:0.5;" x1="278.96" x2="608.0996" y1="861.4795" y2="861.4795"/><line style="stroke:#666666;stroke-width:0.5;" x1="608.0996" x2="608.0996" y1="861.4795" y2="907.4795"/><text fill="#000000" font-family="Helvetica" font-size="26" lengthAdjust="spacing" textLength="299.1396" x="293.96" y="891.5">Apple Speech Framework</text></g><!--reverse link ClientSpeech to ClientHW--><g class="link" data-entity-1="ClientSpeech" data-entity-2="ClientHW" data-source-line="65" data-uid="lnk9" id="link_ClientSpeech_ClientHW"><path d="M1873.53,585.5795 C1873.53,622.0695 1873.53,680.6295 1873.53,717.2095" fill="none" id="ClientSpeech-backto-ClientHW" style="stroke:#B0C4DE;stroke-width:2;"/><polygon fill="#B0C4DE" points="1873.53,579.5795,1869.53,588.5795,1873.53,584.5795,1877.53,588.5795,1873.53,579.5795" style="stroke:#B0C4DE;stroke-width:2;"/><text fill="#7D7D75" font-family="Helvetica" font-size="14" lengthAdjust="spacing" textLength="58.3652" x="1874.53" y="623.2598">Audio I/O</text></g><!--reverse link LangQuiz_Remote to ClientSpeech--><g class="link" data-entity-1="LangQuiz_Remote" data-entity-2="ClientSpeech" data-source-line="66" data-uid="lnk11" id="link_LangQuiz_Remote_ClientSpeech"><path d="M1855.37,393.6597 C1859.54,429.6797 1866.16,486.8495 1870.35,522.9995" fill="none" id="LangQuiz_Remote-backto-ClientSpeech" style="stroke:#B0C4DE;stroke-width:2;"/><polygon fill="#B0C4DE" points="1854.68,387.6995,1851.7415,397.0998,1855.255,392.6663,1859.6885,396.1798,1854.68,387.6995" style="stroke:#B0C4DE;stroke-width:2;"/><text fill="#7D7D75" font-family="Helvetica" font-size="14" lengthAdjust="spacing" textLength="132.2754" x="1860.91" y="429.2598">Swift Native Interface</text></g><!--link RemoteClient to LangQuiz_Remote--><g class="link" data-entity-1="RemoteClient" data-entity-2="LangQuiz_Remote" data-source-line="67" data-uid="lnk12" id="link_RemoteClient_LangQuiz_Remote"><path d="M1825.83,195.6995 C1831.52,231.7195 1840.5555,288.9227 1846.2555,325.0727" fill="none" id="RemoteClient-to-LangQuiz_Remote" style="stroke:#B0C4DE;stroke-width:2;"/><polygon fill="#B0C4DE" points="1847.19,330.9995,1849.7394,321.4863,1846.4112,326.0605,1841.837,322.7323,1847.19,330.9995" style="stroke:#B0C4DE;stroke-width:2;"/><text fill="#7D7D75" font-family="Helvetica" font-size="14" lengthAdjust="spacing" textLength="242.7715" x="1833.96" y="237.2598">Web Application UI / TTS and Dictation</text></g><!--link Nginx to GermanAPI--><g class="link" data-entity-1="Nginx" data-entity-2="GermanAPI" data-source-line="82" data-uid="lnk20" id="link_Nginx_GermanAPI"><path d="M1246.08,378.9095 C1266.28,387.3595 1284.95,399.6495 1297.53,417.4795 C1325.09,456.5595 1281.1319,494.1209 1238.3419,520.0409" fill="none" id="Nginx-to-GermanAPI" style="stroke:#FF1493;stroke-width:2;"/><polygon fill="#FF1493" points="1233.21,523.1495,1242.9803,521.9078,1237.4866,520.559,1238.8354,515.0653,1233.21,523.1495" style="stroke:#FF1493;stroke-width:2;"/><text fill="#7D7D75" font-family="Helvetica" font-size="14" lengthAdjust="spacing" textLength="73.9102" x="1305.62" y="429.2598">Proxy (App)</text></g><!--link Nginx to GermanAPI--><g class="link" data-entity-1="Nginx" data-entity-2="GermanAPI" data-source-line="123" data-uid="lnk47" id="link_Nginx_GermanAPI"><path d="M1129.4247,393.6205 C1126.8847,407.4305 1126.41,418.4995 1129.53,433.4795 C1136.27,465.7995 1149.6091,494.8393 1161.9491,517.8993" fill="none" id="Nginx-GermanAPI" style="stroke:#FF1493;stroke-width:2;"/><polygon fill="#FF1493" points="1130.51,387.7195,1124.948,395.8475,1129.6055,392.637,1132.816,397.2946,1130.51,387.7195" style="stroke:#FF1493;stroke-width:2;"/><polygon fill="#FF1493" points="1164.78,523.1895,1164.0604,513.367,1162.4209,518.781,1157.0069,517.1415,1164.78,523.1895" style="stroke:#FF1493;stroke-width:2;"/><text fill="#7D7D75" font-family="Helvetica" font-size="14" lengthAdjust="spacing" textLength="162.5859" x="1130.53" y="429.2598">Reverse Proxy (WS Pass)</text></g><!--link RemoteClient to Nginx--><g class="link" data-entity-1="RemoteClient" data-entity-2="Nginx" data-source-line="102" data-uid="lnk29" id="link_RemoteClient_Nginx"><path d="M1722.8,195.8995 C1593.04,231.9495 1372.1811,293.3037 1242.2911,329.3837" fill="none" id="RemoteClient-to-Nginx" style="stroke:#FF1493;stroke-width:2;"/><polygon fill="#FF1493" points="1236.51,330.9895,1246.2522,332.4348,1241.3276,329.6513,1244.1111,324.7267,1236.51,330.9895" style="stroke:#FF1493;stroke-width:2;"/><text fill="#7D7D75" font-family="Helvetica" font-size="14" lengthAdjust="spacing" textLength="120.5859" x="1601.29" y="237.2598">mTLS / API Access</text></g><!--link LocalBrowser to Nginx--><g class="link" data-entity-1="LocalBrowser" data-entity-2="Nginx" data-source-line="103" data-uid="lnk30" id="link_LocalBrowser_Nginx"><path d="M796.64,181.4395 C870.39,192.3895 955.49,212.5195 1025.53,249.4795 C1063.21,269.3595 1093.0361,301.1769 1113.3761,326.4269" fill="none" id="LocalBrowser-to-Nginx" style="stroke:#FF1493;stroke-width:2;"/><polygon fill="#FF1493" points="1117.14,331.0995,1114.6091,321.5814,1114.0034,327.2057,1108.379,326.6,1117.14,331.0995" style="stroke:#FF1493;stroke-width:2;"/><text fill="#7D7D75" font-family="Helvetica" font-size="14" lengthAdjust="spacing" textLength="131.4893" x="1006.87" y="237.2598">mTLS / Local Access</text></g><!--link Nginx to Whisper--><g class="link" data-entity-1="Nginx" data-entity-2="Whisper" data-source-line="105" data-uid="lnk31" id="link_Nginx_Whisper"><path d="M1057.94,387.9595 C1035.17,396.6095 1010.56,406.7395 988.53,417.4795 C922.92,449.4595 856.27,491.338 812.87,519.938" fill="none" id="Nginx-to-Whisper" style="stroke:#FF1493;stroke-width:2;"/><polygon fill="#FF1493" points="807.86,523.2395,817.576,521.6272,812.035,520.4882,813.174,514.9472,807.86,523.2395" style="stroke:#FF1493;stroke-width:2;"/><text fill="#7D7D75" font-family="Helvetica" font-size="14" lengthAdjust="spacing" textLength="129.917" x="989.53" y="429.2598">Proxy (Transcription)</text></g><!--link Nginx to Ollama--><g class="link" data-entity-1="Nginx" data-entity-2="Ollama" data-source-line="106" data-uid="lnk32" id="link_Nginx_Ollama"><path d="M1029.11,386.9095 C1027.91,387.1095 1026.72,387.2995 1025.53,387.4795 C978.31,394.7695 633.76,387.5195 596.53,417.4795 C565.04,442.8295 558.2854,486.183 557.2254,517.123" fill="none" id="Nginx-to-Ollama" style="stroke:#FF1493;stroke-width:2;"/><polygon fill="#FF1493" points="557.02,523.1195,561.3258,514.2617,557.1912,518.1224,553.3305,513.9878,557.02,523.1195" style="stroke:#FF1493;stroke-width:2;"/><text fill="#7D7D75" font-family="Helvetica" font-size="14" lengthAdjust="spacing" textLength="107.3721" x="597.53" y="429.2598">Proxy (Inference)</text></g><!--link Nginx to LangQuiz_Local--><g class="link" data-entity-1="Nginx" data-entity-2="LangQuiz_Local" data-source-line="108" data-uid="lnk33" id="link_Nginx_LangQuiz_Local"><path d="M1029.11,386.9195 C1027.91,387.1095 1026.72,387.2995 1025.53,387.4795 C827.39,417.7395 774.94,397.1095 575.53,417.4795 C523.76,422.7695 511.37,428.8195 459.53,433.4795 C449.06,434.4195 277.8,433.8895 270.53,441.4795 C220.71,493.4595 239.19,538.6595 270.53,603.4795 C295.5,655.1195 344.358,690.6724 386.398,714.2724" fill="none" id="Nginx-to-LangQuiz_Local" style="stroke:#FF1493;stroke-width:2;"/><polygon fill="#FF1493" points="391.63,717.2095,385.7401,709.3159,387.27,714.7619,381.824,716.2919,391.63,717.2095" style="stroke:#FF1493;stroke-width:2;"/><text fill="#7D7D75" font-family="Helvetica" font-size="14" lengthAdjust="spacing" textLength="183.5928" x="271.53" y="555.2598">Proxy (Host Voice) via mDNS</text></g><!--reverse link LangQuiz_Remote to Nginx--><g class="link" data-entity-1="LangQuiz_Remote" data-entity-2="Nginx" data-source-line="109" data-uid="lnk35" id="link_LangQuiz_Remote_Nginx"><path d="M1653.91,359.4795 C1521.29,359.4795 1355.6,359.4795 1245.97,359.4795" fill="none" id="LangQuiz_Remote-backto-Nginx" style="stroke:#FF1493;stroke-width:2;"/><polygon fill="#FF1493" points="1659.91,359.4795,1650.91,355.4795,1654.91,359.4795,1650.91,363.4795,1659.91,359.4795" style="stroke:#FF1493;stroke-width:2;"/><text fill="#7D7D75" font-family="Helvetica" font-size="14" lengthAdjust="spacing" textLength="306.5508" x="1299.98" y="352.2598">Proxy (Remote Voice) via mDNS / Secure Tunnel</text></g><!--link LangQuiz_Remote to Nginx--><g class="link" data-entity-1="LangQuiz_Remote" data-entity-2="Nginx" data-source-line="122" data-uid="lnk46" id="link_LangQuiz_Remote_Nginx"><path d="M1659.81,374.1095 C1569.71,379.1395 1460.83,382.5995 1362.98,378.4795 C1324.82,376.8695 1289.0869,374.2755 1252.0469,371.0155" fill="none" id="LangQuiz_Remote-to-Nginx" style="stroke:#FF1493;stroke-width:2;"/><polygon fill="#FF1493" points="1246.07,370.4895,1254.6846,375.2632,1251.0507,370.9279,1255.386,367.294,1246.07,370.4895" style="stroke:#FF1493;stroke-width:2;"/><text fill="#7D7D75" font-family="Helvetica" font-size="14" lengthAdjust="spacing" textLength="178.1855" x="1363.98" y="374.2598">mTLS / WebSocket Upgrade</text></g><!--link LocalBrowser to LangQuiz_Local--><g class="link" data-entity-1="LocalBrowser" data-entity-2="LangQuiz_Local" data-source-line="111" data-uid="lnk36" id="link_LocalBrowser_LangQuiz_Local"><path d="M526.28,195.8595 C425.88,229.6895 275.38,297.9495 207.53,417.4795 C183.44,459.9295 6,244.9695 231.53,603.4795 C265.2,657.0095 322.0026,691.7844 371.2126,714.5044" fill="none" id="LocalBrowser-to-LangQuiz_Local" style="stroke:#B0C4DE;stroke-width:2;"/><polygon fill="#B0C4DE" points="376.66,717.0195,370.1656,709.6153,372.1205,714.9236,366.8122,716.8785,376.66,717.0195" style="stroke:#B0C4DE;stroke-width:2;"/><text fill="#7D7D75" font-family="Helvetica" font-size="14" lengthAdjust="spacing" textLength="242.7715" x="208.53" y="429.2598">Web Application UI / TTS and Dictation</text></g><!--link GermanAPI to HybridEngine--><g class="link" data-entity-1="GermanAPI" data-entity-2="HybridEngine" data-source-line="113" data-uid="lnk37" id="link_GermanAPI_HybridEngine"><path d="M1180.95,579.5795 C1181.53,616.0695 1182.4349,674.6302 1183.0149,711.2102" fill="none" id="GermanAPI-to-HybridEngine" style="stroke:#B0C4DE;stroke-width:2;"/><polygon fill="#B0C4DE" points="1183.11,717.2095,1186.9668,708.1472,1183.0307,712.2101,1178.9678,708.274,1183.11,717.2095" style="stroke:#B0C4DE;stroke-width:2;"/><text fill="#7D7D75" font-family="Helvetica" font-size="14" lengthAdjust="spacing" textLength="49.8066" x="1182.67" y="623.2598">Analyze</text></g><!--link GermanAPI to Assets--><g class="link" data-entity-1="GermanAPI" data-entity-2="Assets" data-source-line="114" data-uid="lnk38" id="link_GermanAPI_Assets"><path d="M1331.64,551.4795 C1359.66,551.4795 1381.71,551.4795 1406,551.4795" fill="none" id="GermanAPI-to-Assets" style="stroke:#B0C4DE;stroke-width:2;"/><polygon fill="#B0C4DE" points="1412,551.4795,1403,547.4795,1407,551.4795,1403,555.4795,1412,551.4795" style="stroke:#B0C4DE;stroke-width:2;"/><text fill="#7D7D75" font-family="Helvetica" font-size="14" lengthAdjust="spacing" textLength="45.124" x="1349.33" y="544.2598">Stream</text></g><!--link NativeAudio to HostAudioIO--><g class="link" data-entity-1="NativeAudio" data-entity-2="HostAudioIO" data-source-line="115" data-uid="lnk39" id="link_NativeAudio_HostAudioIO"><path d="M441.49,907.8295 C435.65,930.4795 428.8962,956.709 423.0662,979.349" fill="none" id="NativeAudio-to-HostAudioIO" style="stroke:#B0C4DE;stroke-width:2;"/><polygon fill="#B0C4DE" points="421.57,985.1595,427.688,977.4413,422.8169,980.3175,419.9407,975.4463,421.57,985.1595" style="stroke:#B0C4DE;stroke-width:2;"/><text fill="#7D7D75" font-family="Helvetica" font-size="14" lengthAdjust="spacing" textLength="58.3652" x="433.55" y="951.2598">Audio I/O</text></g><!--link LangQuiz_Local to NativeAudio--><g class="link" data-entity-1="LangQuiz_Local" data-entity-2="NativeAudio" data-source-line="116" data-uid="lnk40" id="link_LangQuiz_Local_NativeAudio"><path d="M423.87,773.6895 C414.28,787.5395 406.63,804.9095 411.53,821.4795 C414.61,831.8895 416.9202,837.1949 422.8902,846.1049" fill="none" id="LangQuiz_Local-to-NativeAudio" style="stroke:#B0C4DE;stroke-width:2;"/><polygon fill="#B0C4DE" points="426.23,851.0895,424.5433,841.3861,423.4468,846.9357,417.8973,845.8392,426.23,851.0895" style="stroke:#B0C4DE;stroke-width:2;"/><text fill="#7D7D75" font-family="Helvetica" font-size="14" lengthAdjust="spacing" textLength="45.1309" x="412.53" y="817.2598">Control</text></g><!--reverse link Ollama to LangQuiz_Local--><g class="link" data-entity-1="Ollama" data-entity-2="LangQuiz_Local" data-source-line="117" data-uid="lnk42" id="link_Ollama_LangQuiz_Local"><path d="M467.9046,583.0523 C454.5646,591.1123 447.66,598.3295 439.53,611.4795 C419.76,643.4695 428.72,688.4395 437.89,717.0195" fill="none" id="Ollama-backto-LangQuiz_Local" style="stroke:#B0C4DE;stroke-width:2;"/><polygon fill="#B0C4DE" points="473.04,579.9495,463.2683,581.1801,468.7605,582.5352,467.4054,588.0273,473.04,579.9495" style="stroke:#B0C4DE;stroke-width:2;"/><text fill="#7D7D75" font-family="Helvetica" font-size="14" lengthAdjust="spacing" textLength="71.5859" x="440.53" y="623.2598">Chat Query</text></g><!--link GermanAPI to Ollama--><g class="link" data-entity-1="GermanAPI" data-entity-2="Ollama" data-source-line="118" data-uid="lnk43" id="link_GermanAPI_Ollama"><path d="M1130.63,523.0195 C1035.74,472.8695 824.17,380.2095 660.53,448.1495 C624.04,463.2995 597.2774,493.4814 579.2074,518.5614" fill="none" id="GermanAPI-to-Ollama" style="stroke:#B0C4DE;stroke-width:2;"/><polygon fill="#B0C4DE" points="575.7,523.4295,584.2065,518.4657,578.6228,519.3728,577.7157,513.7891,575.7,523.4295" style="stroke:#B0C4DE;stroke-width:2;"/><text fill="#7D7D75" font-family="Helvetica" font-size="14" lengthAdjust="spacing" textLength="83.2686" x="714.03" y="429.2598">LLM Request</text></g><!--link GermanAPI to Whisper--><g class="link" data-entity-1="GermanAPI" data-entity-2="Whisper" data-source-line="119" data-uid="lnk44" id="link_GermanAPI_Whisper"><path d="M1029.35,569.8495 C979.9,573.4595 924.74,574.9295 874.34,570.4795 C868.71,569.9795 868.8921,570.0963 863.0721,569.3563" fill="none" id="GermanAPI-to-Whisper" style="stroke:#B0C4DE;stroke-width:2;"/><polygon fill="#B0C4DE" points="857.12,568.5995,865.5436,573.7027,862.0801,569.2302,866.5527,565.7666,857.12,568.5995" style="stroke:#B0C4DE;stroke-width:2;"/><text fill="#7D7D75" font-family="Helvetica" font-size="14" lengthAdjust="spacing" textLength="136.9512" x="875.34" y="566.2598">Transcription Request</text></g><!--link GermanAPI to LangQuiz_Local--><g class="link" data-entity-1="GermanAPI" data-entity-2="LangQuiz_Local" data-source-line="121" data-uid="lnk45" id="link_GermanAPI_LangQuiz_Local"><path d="M1070.2363,581.4118 C931.1963,617.8818 698.3437,678.9573 559.1437,715.4673" fill="none" id="GermanAPI-LangQuiz_Local" style="stroke:#B0C4DE;stroke-width:2;"/><polygon fill="#B0C4DE" points="1076.04,579.8895,1066.3196,578.3038,1071.2036,581.1581,1068.3494,586.0421,1076.04,579.8895" style="stroke:#B0C4DE;stroke-width:2;"/><polygon fill="#B0C4DE" points="553.34,716.9895,563.0604,718.5753,558.1764,715.721,561.0307,710.837,553.34,716.9895" style="stroke:#B0C4DE;stroke-width:2;"/><text fill="#7D7D75" font-family="Helvetica" font-size="14" lengthAdjust="spacing" textLength="118.2686" x="944.76" y="623.2598">WebSocket (Local)</text></g><!--link NativeAudio to HW--><g class="link" data-entity-1="NativeAudio" data-entity-2="HW" data-source-line="125" data-uid="lnk48" id="link_NativeAudio_HW"><path d="M501.99,907.8295 C546.27,930.4795 603.5383,959.7871 647.7983,982.4271" fill="none" id="NativeAudio-to-HW" style="stroke:#B0C4DE;stroke-width:2;"/><polygon fill="#B0C4DE" points="653.14,985.1595,646.949,977.4997,648.6886,982.8825,643.3058,984.622,653.14,985.1595" style="stroke:#B0C4DE;stroke-width:2;"/></g><!--link Whisper to HW--><g class="link" data-entity-1="Whisper" data-entity-2="HW" data-source-line="126" data-uid="lnk49" id="link_Whisper_HW"><path d="M763.9,579.8795 C753.05,661.6895 721.7584,897.6515 710.9384,979.2815" fill="none" id="Whisper-to-HW" style="stroke:#B0C4DE;stroke-width:2;"/><polygon fill="#B0C4DE" points="710.15,985.2295,715.2979,976.8331,710.807,980.2728,707.3673,975.7819,710.15,985.2295" style="stroke:#B0C4DE;stroke-width:2;"/></g><!--link Ollama to HW--><g class="link" data-entity-1="Ollama" data-entity-2="HW" data-source-line="127" data-uid="lnk50" id="link_Ollama_HW"><path d="M594.25,579.7695 C611.3,594.3995 630.24,613.8495 641.53,635.4795 C673.65,697.0095 696.0709,903.3775 703.4309,979.2775" fill="none" id="Ollama-to-HW" style="stroke:#B0C4DE;stroke-width:2;"/><polygon fill="#B0C4DE" points="704.01,985.2495,707.1227,975.9054,703.5274,980.2728,699.16,976.6776,704.01,985.2495" style="stroke:#B0C4DE;stroke-width:2;"/></g><!--SRC=[bLVTKjj65BxNKvpWJe4BKmm16iRDZB7bdubj4Sj0qqudivOEzWxoIbcj8AQJYpn07w6lq9TW-buzkv9boJQaaIwmjESxEZ_V-NPHN0K8pbpmFXVJXC4e4OhF4HhIct65daeame_GmYW85tCK2iPX50RXT66zYYIRpXd4zzC1AkOpnU2M1J5QrgiVk4T64dw1dKgVJsVALOZ1HP3WZcN5Trn4JB8vAFFvFosWQnVQeL1D0wkq4ADBBkxCYdxlyaU4urFhYsNjGhLQXKxVkNZwsXy-_GNkkz7JtzTFNytliJsodV67ot__qMRMZFi8iKA9eLf466luzUCiGD_QNSKnOTxTL8Q9yDEmbMGYfYNArthUgj8sLy4YdZ4_VA1APeLOhHXOCvG29TGE2mijl6L9e7IEGqQ5xs9mZufxRBkDgSFHQR68JChm8IlYjlADPzox4nZ7S9INCxCxy-a-AHUvzjey4nzGLmn2gMPXMdUAWmlk8LL2uhtrojVF2FtUqFxOTFhE22glpPKlDVjNkYCVkuuxfdeTwNjZiTyOTjvVzNw3YbrhdxJj3ODXfpVyrPJxJNFJzyWUE6ERm3_RZNQfCfBuoyGqfzX5ta2JVxq-2sFrzcqfojGmb3xAij4go-s-0lhIfuG_5lmj4zlqMJ2krDwSdRQEjZkLE0yL5bocoMuwp0qhn-sJsiN9TdTYoiNdWZTJMDtRLSr4w3zJhfplQn-7ogcvLhFPwZKweyR0322zoXhKxFViuHW6ZMQNIccjchCpCi53C-1QO0QCf4VW3XIpycl-10-pm4oCEpSuWGkYVamZjPUwsDy15aFwE_Es3De02z_iqz_tr04Q6LAu5RxKc_Hpgq_ce2uoFz0ZLVhmSlbZbj2IiMKdZIYY0Dm8qPj1csgE3w6yWxr-wB4WTPJ6dfdKwxepGO2akcIjgv7DYVRvnIgKnBY00VVW9_q1TeSoBZZitf2pIVZvsDTEo0NTAJnVhoRHxvbu_r5zMmxa71g9pqFe_UGKGDdY6d2z5EVWFl1R1KEc-3r2Jv0atp8FZQDImwgaeE9bLxhpkegaaeg70gvwbEzux08JFhGuzLY_JlauPvxZmh0nxbtRO6HepxL7r_PelyZ0p2eDhai3hucG3Nu5VNqJ6PuZNrfs3Sjue9-NgyjcPPjSxG0wzcZG65ORbptOQuKUDOb8E8_26FVNMTf1EMV2cBgAnd49C4JrIB8PJOhKGNeJt_VEDXWxr1CF7QRmWIrCSEaRJStQsUcQTU5pUsqMA_gHPfGkwFSL-v14lBO6x2ucallG42nOn3m6MoiD6cYwbBxG8jq-iT_aQ7recB2OFBJqyS5LD8m6rOXZL75vUlMLHcyuGjHOXNKEbpByl80zuiL-SJ1suUW0dC6mDtHQDYttijZ0HNbFbHVCD8xEEW7VABy-69a4zrA2Q0pjVz-I2IS861sCA2wJI_POh_jXCWam9FVJK9WHRBUFxSCrzCECnn7A0o-A3FmcVIRhOriFR2cvumF8jy-cCw8CixnSVV1nKINH_ZUahyJUxvM_WcZbSvew_1xnIubffY-LcE_GF1tuDidJxuspdhD5zJOYugGc92NTcnHSKahRNAlzRUoy-s0sjx9mINtG9LQc73s7-RZlKbIQdWtFet9P9M5OadZDFArU1h0olYzTBxcGqtsiJwgUv95MlFrryunvkNLFtD99M123SyzP46lDon6ckjUX9ZtSSmRprj1TGWEyLLlrESDcpsjetIVqzByLuqG83AmjLTag_yl8_gVwMojnsF1PqgJpLBOUiOWm5In2Ca6YVKn9P7EhoDPD_mNk5NVDjLmsS4MdvpIUGiams42LTzgynyqPK_0-GRbuCP7SljyVqCxxAS5OlGXOSQv4jXnR0DUhEN1xurozUwcbR5Zhr7bkX5R8guZqmCUCWlMrFM2497sqcsG4l77XaiMn9lkBtRgnbZbkMyiAjctfFm00]--></g></svg>