<?xml version="1.0" encoding="UTF-8" standalone="no"?>
<!DOCTYPE svg PUBLIC "-//W3C//DTD SVG 1.1//EN"
 "http://www.w3.org/Graphics/SVG/1.1/DTD/svg11.dtd">
<!-- Generated by graphviz version 13.0.0 (20250608.1624)
 -->
<!-- Title: G Pages: 1 -->
<svg width="576pt" height="317pt"
 viewBox="0.00 0.00 576.00 317.00" xmlns="http://www.w3.org/2000/svg" xmlns:xlink="http://www.w3.org/1999/xlink">
<g id="graph0" class="graph" transform="scale(0.428078 0.428078) rotate(0) translate(4 736.3)">
<title>G</title>
<!-- ftr -->
<g id="node1" class="node">
<title>ftr</title>
<g id="a_node1"><a xlink:href=":ref:`ftr`" xlink:title="feature" target="_top">
<ellipse fill="LightGreen" stroke="black" cx="93.6" cy="-588" rx="93.6" ry="46.8"/>
<text xml:space="preserve" text-anchor="start" x="81.23" y="-585.1" font-family="Times,serif" font-weight="bold" font-size="22.00">ftr</text>
<text xml:space="preserve" text-anchor="start" x="73.73" y="-572.6" font-family="Times,serif" font-size="12.00">(feature)</text>
</a>
</g>
</g>
<!-- ftr&#45;&gt;ftr -->
<g id="edge1" class="edge">
<title>ftr&#45;&gt;ftr</title>
<path fill="none" stroke="grey" stroke-width="1.5" d="M111.9,-634.34C118.75,-670.21 112.65,-706.8 93.6,-706.8 76.64,-706.8 69.94,-677.78 73.51,-646.09"/>
<polygon fill="grey" stroke="grey" stroke-width="1.5" points="76.92,-646.99 74.96,-636.58 70,-645.94 76.92,-646.99"/>
<text xml:space="preserve" text-anchor="middle" x="93.6" y="-708.55" font-family="Helvetica,sans-Serif" font-size="25.00" fill="Green">refines</text>
</g>
<!-- usc -->
<g id="node2" class="node">
<title>usc</title>
<g id="a_node2"><a xlink:href=":ref:`usc`" xlink:title="usecase" target="_top">
<ellipse fill="#bfd8d2" stroke="black" cx="883" cy="-441" rx="93.6" ry="46.8"/>
<text xml:space="preserve" text-anchor="start" x="868" y="-438.1" font-family="Times,serif" font-weight="bold" font-size="22.00">usc</text>
<text xml:space="preserve" text-anchor="start" x="861.25" y="-425.6" font-family="Times,serif" font-size="12.00">(usecase)</text>
</a>
</g>
</g>
<!-- usc&#45;&gt;ftr -->
<g id="edge6" class="edge">
<title>usc&#45;&gt;ftr</title>
<path fill="none" stroke="grey" stroke-width="1.5" d="M864.77,-487.39C837.93,-550.59 779.72,-656 690.03,-656 690.03,-656 690.03,-656 293.33,-656 251.03,-656 206.26,-642.04 169.94,-626.77"/>
<polygon fill="grey" stroke="grey" stroke-width="1.5" points="171.61,-623.67 161.04,-622.9 168.82,-630.1 171.61,-623.67"/>
<text xml:space="preserve" text-anchor="middle" x="495.05" y="-657.75" font-family="Helvetica,sans-Serif" font-size="25.00" fill="Green">realizes</text>
</g>
<!-- usc&#45;&gt;usc -->
<g id="edge2" class="edge">
<title>usc&#45;&gt;usc</title>
<path fill="none" stroke="grey" stroke-width="1.5" d="M901.3,-487.34C908.15,-523.21 902.05,-559.8 883,-559.8 866.04,-559.8 859.34,-530.78 862.91,-499.09"/>
<polygon fill="grey" stroke="grey" stroke-width="1.5" points="866.32,-499.99 864.36,-489.58 859.4,-498.94 866.32,-499.99"/>
<text xml:space="preserve" text-anchor="middle" x="883" y="-561.55" font-family="Helvetica,sans-Serif" font-size="25.00" fill="Green">refines</text>
</g>
<!-- req -->
<g id="node3" class="node">
<title>req</title>
<g id="a_node3"><a xlink:href=":ref:`req`" xlink:title="requirement" target="_top">
<ellipse fill="Coral" stroke="black" cx="495.05" cy="-351" rx="93.6" ry="46.8"/>
<text xml:space="preserve" text-anchor="start" x="479.3" y="-348.1" font-family="Times,serif" font-weight="bold" font-size="22.00">req</text>
<text xml:space="preserve" text-anchor="start" x="463.18" y="-335.6" font-family="Times,serif" font-size="12.00">(requirement)</text>
</a>
</g>
</g>
<!-- usc&#45;&gt;req -->
<g id="edge7" class="edge">
<title>usc&#45;&gt;req</title>
<path fill="none" stroke="grey" stroke-width="1.5" d="M797.78,-421.36C737.12,-407.22 655.18,-388.11 591.99,-373.37"/>
<polygon fill="grey" stroke="grey" stroke-width="1.5" points="593.17,-370.05 582.64,-371.19 591.58,-376.87 593.17,-370.05"/>
<text xml:space="preserve" text-anchor="middle" x="689.03" y="-412.5" font-family="Helvetica,sans-Serif" font-size="25.00" fill="Green">elaborates</text>
</g>
<!-- req&#45;&gt;ftr -->
<g id="edge8" class="edge">
<title>req&#45;&gt;ftr</title>
<path fill="none" stroke="grey" stroke-width="1.5" d="M433.82,-386.74C361.9,-429.41 241.78,-500.68 165.47,-545.95"/>
<polygon fill="grey" stroke="grey" stroke-width="1.5" points="163.76,-542.89 156.95,-551.01 167.34,-548.91 163.76,-542.89"/>
<text xml:space="preserve" text-anchor="middle" x="294.33" y="-511.97" font-family="Helvetica,sans-Serif" font-size="25.00" fill="Green">satisfies</text>
</g>
<!-- req&#45;&gt;req -->
<g id="edge3" class="edge">
<title>req&#45;&gt;req</title>
<path fill="none" stroke="grey" stroke-width="1.5" d="M513.35,-397.34C520.2,-433.21 514.1,-469.8 495.05,-469.8 478.09,-469.8 471.39,-440.78 474.96,-409.09"/>
<polygon fill="grey" stroke="grey" stroke-width="1.5" points="478.37,-409.99 476.41,-399.58 471.45,-408.94 478.37,-409.99"/>
<text xml:space="preserve" text-anchor="middle" x="495.05" y="-471.55" font-family="Helvetica,sans-Serif" font-size="25.00" fill="Green">refines</text>
</g>
<!-- spc -->
<g id="node4" class="node">
<title>spc</title>
<g id="a_node4"><a xlink:href=":ref:`spc`" xlink:title="specification" target="_top">
<ellipse fill="#ffff99" stroke="black" cx="93.6" cy="-181" rx="93.6" ry="46.8"/>
<text xml:space="preserve" text-anchor="start" x="78.6" y="-178.1" font-family="Times,serif" font-weight="bold" font-size="22.00">spc</text>
<text xml:space="preserve" text-anchor="start" x="60.23" y="-165.6" font-family="Times,serif" font-size="12.00">(specification)</text>
</a>
</g>
</g>
<!-- req&#45;&gt;spc -->
<g id="edge9" class="edge">
<title>req&#45;&gt;spc</title>
<path fill="none" stroke="grey" stroke-width="1.5" d="M419.14,-323.13C360.41,-300.81 276.9,-268.04 205.2,-236 193.92,-230.96 182.12,-225.41 170.61,-219.82"/>
<polygon fill="grey" stroke="grey" stroke-width="1.5" points="172.24,-216.72 161.71,-215.47 169.16,-223.01 172.24,-216.72"/>
<text xml:space="preserve" text-anchor="middle" x="294.33" y="-303.39" font-family="Helvetica,sans-Serif" font-size="25.00" fill="Green">derived from</text>
</g>
<!-- spc&#45;&gt;req -->
<g id="edge10" class="edge">
<title>spc&#45;&gt;req</title>
<path fill="none" stroke="grey" stroke-width="1.5" d="M185.15,-170.64C239.84,-168.38 309.37,-172.8 364.45,-200.5 405.91,-221.35 439.59,-261.87 462.22,-295.62"/>
<polygon fill="grey" stroke="grey" stroke-width="1.5" points="459.25,-297.47 467.64,-303.94 465.12,-293.65 459.25,-297.47"/>
<text xml:space="preserve" text-anchor="middle" x="294.33" y="-202.25" font-family="Helvetica,sans-Serif" font-size="25.00" fill="Green">satisfies</text>
</g>
<!-- spc&#45;&gt;spc -->
<g id="edge4" class="edge">
<title>spc&#45;&gt;spc</title>
<path fill="none" stroke="grey" stroke-width="1.5" d="M111.9,-227.34C118.75,-263.21 112.65,-299.8 93.6,-299.8 76.64,-299.8 69.94,-270.78 73.51,-239.09"/>
<polygon fill="grey" stroke="grey" stroke-width="1.5" points="76.92,-239.99 74.96,-229.58 70,-238.94 76.92,-239.99"/>
<text xml:space="preserve" text-anchor="middle" x="93.6" y="-301.55" font-family="Helvetica,sans-Serif" font-size="25.00" fill="Green">refines</text>
</g>
<!-- tsc -->
<g id="node5" class="node">
<title>tsc</title>
<g id="a_node5"><a xlink:href=":ref:`tsc`" xlink:title="test case and suite" target="_top">
<ellipse fill="#87cefa" stroke="black" cx="1243.95" cy="-260" rx="93.6" ry="46.8"/>
<text xml:space="preserve" text-anchor="start" x="1231.2" y="-257.1" font-family="Times,serif" font-weight="bold" font-size="22.00">tsc</text>
<text xml:space="preserve" text-anchor="start" x="1198.2" y="-244.6" font-family="Times,serif" font-size="12.00">(test case and suite)</text>
</a>
</g>
</g>
<!-- tsc&#45;&gt;usc -->
<g id="edge11" class="edge">
<title>tsc&#45;&gt;usc</title>
<path fill="none" stroke="grey" stroke-width="1.5" d="M1177.11,-293.2C1115.98,-324.02 1024.98,-369.91 960.61,-402.37"/>
<polygon fill="grey" stroke="grey" stroke-width="1.5" points="959.1,-399.21 951.75,-406.84 962.25,-405.46 959.1,-399.21"/>
<text xml:space="preserve" text-anchor="middle" x="1063.48" y="-376.86" font-family="Helvetica,sans-Serif" font-size="25.00" fill="Green">validates</text>
</g>
<!-- tsc&#45;&gt;req -->
<g id="edge12" class="edge">
<title>tsc&#45;&gt;req</title>
<path fill="none" stroke="grey" stroke-width="1.5" d="M1149.86,-260C1122.36,-260 1092.21,-260 1064.48,-260 1064.48,-260 1064.48,-260 688.03,-260 640.83,-260 592.84,-282.74 556.66,-305.48"/>
<polygon fill="grey" stroke="grey" stroke-width="1.5" points="555.17,-302.27 548.68,-310.65 558.97,-308.15 555.17,-302.27"/>
<text xml:space="preserve" text-anchor="middle" x="883" y="-261.75" font-family="Helvetica,sans-Serif" font-size="25.00" fill="Green">verifies req</text>
</g>
<!-- tsc&#45;&gt;spc -->
<g id="edge13" class="edge">
<title>tsc&#45;&gt;spc</title>
<path fill="none" stroke="grey" stroke-width="1.5" d="M1233.28,-213.22C1214.77,-138.36 1166.72,0 1064.48,0 1064.48,0 1064.48,0 293.33,0 217.86,0 158.43,-72.23 124.9,-125.43"/>
<polygon fill="grey" stroke="grey" stroke-width="1.5" points="121.98,-123.5 119.73,-133.86 127.94,-127.17 121.98,-123.5"/>
<text xml:space="preserve" text-anchor="middle" x="689.03" y="-1.75" font-family="Helvetica,sans-Serif" font-size="25.00" fill="Green">verifies spc</text>
</g>
<!-- tsc&#45;&gt;tsc -->
<g id="edge5" class="edge">
<title>tsc&#45;&gt;tsc</title>
<path fill="none" stroke="grey" stroke-width="1.5" d="M1262.25,-306.34C1269.1,-342.21 1263,-378.8 1243.95,-378.8 1226.99,-378.8 1220.29,-349.78 1223.86,-318.09"/>
<polygon fill="grey" stroke="grey" stroke-width="1.5" points="1227.27,-318.99 1225.31,-308.58 1220.35,-317.94 1227.27,-318.99"/>
<text xml:space="preserve" text-anchor="middle" x="1243.95" y="-380.55" font-family="Helvetica,sans-Serif" font-size="25.00" fill="Green">refines</text>
</g>
</g>
</svg>
