<?xml version="1.0" encoding="UTF-8" standalone="no"?>
<!DOCTYPE svg PUBLIC "-//W3C//DTD SVG 1.1//EN"
 "http://www.w3.org/Graphics/SVG/1.1/DTD/svg11.dtd">
<!-- Generated by graphviz version 13.0.0 (20250608.1624)
 -->
<!-- Pages: 1 -->
<svg width="482pt" height="599pt"
 viewBox="0.00 0.00 482.00 599.00" xmlns="http://www.w3.org/2000/svg" xmlns:xlink="http://www.w3.org/1999/xlink">
<g id="graph0" class="graph" transform="scale(1 1) rotate(0) translate(4 595)">
<g id="clust1" class="cluster">
<title>cluster_k3d</title>
<polygon fill="none" stroke="gray" stroke-dasharray="5,2" points="8,-8 8,-514 466,-514 466,-8 8,-8"/>
<text xml:space="preserve" text-anchor="middle" x="237" y="-496.7" font-family="Helvetica,sans-Serif" font-size="14.00" fill="Grey">k3d (Kubernetes) Cluster</text>
</g>
<g id="clust2" class="cluster">
<title>cluster_istio_sys</title>
<polygon fill="#f0f0f0" stroke="gray" points="16,-406 16,-483 138,-483 138,-406 16,-406"/>
<text xml:space="preserve" text-anchor="middle" x="77" y="-465.7" font-family="Helvetica,sans-Serif" font-size="14.00" fill="Grey">istio&#45;system</text>
</g>
<g id="clust3" class="cluster">
<title>cluster_pod_a</title>
<polygon fill="none" stroke="gray" stroke-dasharray="5,2" points="146,-319 146,-482 360,-482 360,-319 146,-319"/>
<text xml:space="preserve" text-anchor="middle" x="253" y="-464.7" font-family="Helvetica,sans-Serif" font-size="14.00" fill="Grey">Pod: service&#45;a</text>
</g>
<g id="clust4" class="cluster">
<title>cluster_pod_b</title>
<polygon fill="none" stroke="gray" stroke-dasharray="5,2" points="170,-103 170,-286 368,-286 368,-103 170,-103"/>
<text xml:space="preserve" text-anchor="middle" x="269" y="-268.7" font-family="Helvetica,sans-Serif" font-size="14.00" fill="Grey">Pod: service&#45;b</text>
</g>
<g id="clust5" class="cluster">
<title>cluster_pod_redis</title>
<polygon fill="none" stroke="gray" stroke-dasharray="5,2" points="16,-16 16,-178 162,-178 162,-16 16,-16"/>
<text xml:space="preserve" text-anchor="middle" x="89" y="-160.7" font-family="Helvetica,sans-Serif" font-size="14.00" fill="Grey">Pod: redis</text>
</g>
<!-- istiod -->
<g id="node1" class="node">
<title>istiod</title>
<path fill="#add8e6" stroke="Grey" stroke-width="2" d="M118.38,-452C118.38,-452 35.62,-452 35.62,-452 29.62,-452 23.63,-446 23.63,-440 23.63,-440 23.63,-426 23.63,-426 23.63,-420 29.63,-414 35.63,-414 35.63,-414 118.38,-414 118.38,-414 124.38,-414 130.38,-420 130.38,-426 130.38,-426 130.38,-440 130.38,-440 130.38,-446 124.38,-452 118.38,-452"/>
<text xml:space="preserve" text-anchor="middle" x="77" y="-434.7" font-family="Helvetica,sans-Serif" font-size="14.00">istiod</text>
<text xml:space="preserve" text-anchor="middle" x="77" y="-419.7" font-family="Helvetica,sans-Serif" font-size="14.00">(Control Plane)</text>
</g>
<!-- ProxyA -->
<g id="node4" class="node">
<title>ProxyA</title>
<path fill="#ffa07a" stroke="Grey" stroke-width="2" d="M304.38,-363C304.38,-363 197.62,-363 197.62,-363 191.62,-363 185.62,-357 185.62,-351 185.62,-351 185.62,-339 185.62,-339 185.62,-333 191.62,-327 197.62,-327 197.62,-327 304.38,-327 304.38,-327 310.38,-327 316.38,-333 316.38,-339 316.38,-339 316.38,-351 316.38,-351 316.38,-357 310.38,-363 304.38,-363"/>
<text xml:space="preserve" text-anchor="middle" x="251" y="-339.2" font-family="Helvetica,sans-Serif" font-size="14.00">Sidecar: istio&#45;proxy</text>
</g>
<!-- istiod&#45;&gt;ProxyA -->
<g id="edge8" class="edge">
<title>istiod&#45;&gt;ProxyA</title>
<path fill="none" stroke="gray" stroke-width="2" stroke-dasharray="5,2" d="M115.19,-413.13C141.1,-400.32 175.55,-383.29 203.27,-369.59"/>
<polygon fill="gray" stroke="gray" stroke-width="2" points="204.56,-372.86 211.98,-365.29 201.46,-366.58 204.56,-372.86"/>
</g>
<!-- ProxyB -->
<g id="node6" class="node">
<title>ProxyB</title>
<path fill="#ffa07a" stroke="Grey" stroke-width="2" d="M298.38,-255C298.38,-255 191.62,-255 191.62,-255 185.62,-255 179.62,-249 179.62,-243 179.62,-243 179.62,-231 179.62,-231 179.62,-225 185.62,-219 191.62,-219 191.62,-219 298.38,-219 298.38,-219 304.38,-219 310.38,-225 310.38,-231 310.38,-231 310.38,-243 310.38,-243 310.38,-249 304.38,-255 298.38,-255"/>
<text xml:space="preserve" text-anchor="middle" x="245" y="-231.2" font-family="Helvetica,sans-Serif" font-size="14.00">Sidecar: istio&#45;proxy</text>
</g>
<!-- istiod&#45;&gt;ProxyB -->
<g id="edge9" class="edge">
<title>istiod&#45;&gt;ProxyB</title>
<path fill="none" stroke="gray" stroke-width="2" stroke-dasharray="5,2" d="M84.99,-413.41C95.71,-389.81 116.38,-348.61 142,-319 160.55,-297.56 185.44,-277.8 206.11,-263.17"/>
<polygon fill="gray" stroke="gray" stroke-width="2" points="208.05,-266.08 214.29,-257.51 204.07,-260.32 208.05,-266.08"/>
</g>
<!-- ProxyRedis -->
<g id="node8" class="node">
<title>ProxyRedis</title>
<path fill="#ffa07a" stroke="Grey" stroke-width="2" d="M142.38,-147C142.38,-147 35.62,-147 35.62,-147 29.63,-147 23.62,-141 23.62,-135 23.62,-135 23.62,-123 23.62,-123 23.62,-117 29.62,-111 35.62,-111 35.62,-111 142.38,-111 142.38,-111 148.38,-111 154.38,-117 154.38,-123 154.38,-123 154.38,-135 154.38,-135 154.38,-141 148.38,-147 142.38,-147"/>
<text xml:space="preserve" text-anchor="middle" x="89" y="-123.2" font-family="Helvetica,sans-Serif" font-size="14.00">Sidecar: istio&#45;proxy</text>
</g>
<!-- istiod&#45;&gt;ProxyRedis -->
<g id="edge10" class="edge">
<title>istiod&#45;&gt;ProxyRedis</title>
<path fill="none" stroke="gray" stroke-width="2" stroke-dasharray="5,2" d="M77.75,-413.11C79.77,-362.33 85.32,-222.53 87.79,-160.42"/>
<polygon fill="gray" stroke="gray" stroke-width="2" points="91.28,-160.89 88.17,-150.76 84.28,-160.62 91.28,-160.89"/>
</g>
<!-- ingress -->
<g id="node2" class="node">
<title>ingress</title>
<polygon fill="#ffd700" stroke="Grey" stroke-width="2" points="458.38,-452 369.62,-452 369.62,-448 365.62,-448 365.62,-444 369.62,-444 369.62,-422 365.62,-422 365.62,-418 369.62,-418 369.62,-414 458.38,-414 458.38,-452"/>
<polyline fill="none" stroke="Grey" stroke-width="2" points="369.62,-448 373.62,-448 373.62,-444 369.62,-444"/>
<polyline fill="none" stroke="Grey" stroke-width="2" points="369.62,-422 373.62,-422 373.62,-418 369.62,-418"/>
<text xml:space="preserve" text-anchor="middle" x="414" y="-434.7" font-family="Helvetica,sans-Serif" font-size="14.00">Istio Ingress</text>
<text xml:space="preserve" text-anchor="middle" x="414" y="-419.7" font-family="Helvetica,sans-Serif" font-size="14.00">Gateway</text>
</g>
<!-- ingress&#45;&gt;ProxyA -->
<g id="edge2" class="edge">
<title>ingress&#45;&gt;ProxyA</title>
<path fill="none" stroke="Green" stroke-width="2" d="M378.23,-413.13C354.17,-400.44 322.26,-383.6 296.41,-369.96"/>
<polygon fill="Green" stroke="Green" stroke-width="2" points="298.17,-366.93 287.69,-365.36 294.9,-373.12 298.17,-366.93"/>
<text xml:space="preserve" text-anchor="middle" x="389.51" y="-382.7" font-family="Helvetica,sans-Serif" font-size="14.00" fill="#a39a9a">HTTP (Routing)</text>
</g>
<!-- AppA -->
<g id="node3" class="node">
<title>AppA</title>
<path fill="#b3e5fc" stroke="Grey" stroke-width="2" d="M339.75,-451C339.75,-451 166.25,-451 166.25,-451 160.25,-451 154.25,-445 154.25,-439 154.25,-439 154.25,-427 154.25,-427 154.25,-421 160.25,-415 166.25,-415 166.25,-415 339.75,-415 339.75,-415 345.75,-415 351.75,-421 351.75,-427 351.75,-427 351.75,-439 351.75,-439 351.75,-445 345.75,-451 339.75,-451"/>
<text xml:space="preserve" text-anchor="middle" x="253" y="-427.2" font-family="Helvetica,sans-Serif" font-size="14.00">App: App&#45;Gateway (Producer)</text>
</g>
<!-- AppA&#45;&gt;ProxyA -->
<g id="edge3" class="edge">
<title>AppA&#45;&gt;ProxyA</title>
<path fill="none" stroke="Green" stroke-width="2" d="M214.4,-404.91C212.18,-402.14 210.25,-399.16 208.75,-396 204.86,-387.82 207.49,-379.88 212.96,-372.83"/>
<polygon fill="Green" stroke="Green" stroke-width="2" points="211.77,-407.24 221.27,-411.94 216.78,-402.34 211.77,-407.24"/>
<polygon fill="Green" stroke="Green" stroke-width="2" points="215.18,-375.56 219.71,-365.98 210.2,-370.65 215.18,-375.56"/>
<text xml:space="preserve" text-anchor="middle" x="235.38" y="-382.7" font-family="Helvetica,sans-Serif" font-size="14.00" fill="#a39a9a">localhost</text>
</g>
<!-- ProxyA&#45;&gt;ProxyB -->
<g id="edge4" class="edge">
<title>ProxyA&#45;&gt;ProxyB</title>
<path fill="none" stroke="#ffa07a" stroke-width="2" d="M249.98,-326.02C249.09,-310.32 247.78,-287.19 246.73,-268.58"/>
<polygon fill="#ffa07a" stroke="#ffa07a" stroke-width="2" points="250.23,-268.52 246.17,-258.74 243.24,-268.92 250.23,-268.52"/>
<text xml:space="preserve" text-anchor="middle" x="267.26" y="-295.7" font-family="Helvetica,sans-Serif" font-size="14.00" fill="#a39a9a">mTLS</text>
</g>
<!-- AppB -->
<g id="node5" class="node">
<title>AppB</title>
<path fill="#b3e5fc" stroke="Grey" stroke-width="2" d="M347.5,-147C347.5,-147 190.5,-147 190.5,-147 184.5,-147 178.5,-141 178.5,-135 178.5,-135 178.5,-123 178.5,-123 178.5,-117 184.5,-111 190.5,-111 190.5,-111 347.5,-111 347.5,-111 353.5,-111 359.5,-117 359.5,-123 359.5,-123 359.5,-135 359.5,-135 359.5,-141 353.5,-147 347.5,-147"/>
<text xml:space="preserve" text-anchor="middle" x="269" y="-123.2" font-family="Helvetica,sans-Serif" font-size="14.00">App: App&#45;Core (Consumer)</text>
</g>
<!-- ProxyB&#45;&gt;AppB -->
<g id="edge5" class="edge">
<title>ProxyB&#45;&gt;AppB</title>
<path fill="none" stroke="Green" stroke-width="2" d="M251.93,-205.38C255.14,-191.2 258.94,-174.41 262.14,-160.28"/>
<polygon fill="Green" stroke="Green" stroke-width="2" points="248.53,-204.54 249.74,-215.07 255.36,-206.09 248.53,-204.54"/>
<polygon fill="Green" stroke="Green" stroke-width="2" points="265.53,-161.19 264.32,-150.67 258.7,-159.65 265.53,-161.19"/>
<text xml:space="preserve" text-anchor="middle" x="282.91" y="-187.7" font-family="Helvetica,sans-Serif" font-size="14.00" fill="#a39a9a">localhost</text>
</g>
<!-- ProxyB&#45;&gt;ProxyRedis -->
<g id="edge6" class="edge">
<title>ProxyB&#45;&gt;ProxyRedis</title>
<path fill="none" stroke="#ffa07a" stroke-width="2" d="M218.54,-218.02C193.14,-200.76 154.53,-174.53 126.08,-155.19"/>
<polygon fill="#ffa07a" stroke="#ffa07a" stroke-width="2" points="128.07,-152.32 117.84,-149.59 124.14,-158.11 128.07,-152.32"/>
<text xml:space="preserve" text-anchor="middle" x="208.46" y="-187.7" font-family="Helvetica,sans-Serif" font-size="14.00" fill="#a39a9a">mTLS</text>
</g>
<!-- AppRedis -->
<g id="node7" class="node">
<title>AppRedis</title>
<path fill="#b3e5fc" stroke="Grey" stroke-width="2" d="M115.38,-60C115.38,-60 62.62,-60 62.62,-60 56.62,-60 50.62,-54 50.62,-48 50.62,-48 50.62,-36 50.62,-36 50.62,-30 56.62,-24 62.62,-24 62.62,-24 115.38,-24 115.38,-24 121.38,-24 127.38,-30 127.38,-36 127.38,-36 127.38,-48 127.38,-48 127.38,-54 121.38,-60 115.38,-60"/>
<text xml:space="preserve" text-anchor="middle" x="89" y="-36.2" font-family="Helvetica,sans-Serif" font-size="14.00">App: redis</text>
</g>
<!-- ProxyRedis&#45;&gt;AppRedis -->
<g id="edge7" class="edge">
<title>ProxyRedis&#45;&gt;AppRedis</title>
<path fill="none" stroke="Green" stroke-width="2" d="M89,-97.41C89,-89.75 89,-81.53 89,-73.86"/>
<polygon fill="Green" stroke="Green" stroke-width="2" points="85.5,-97.36 89,-107.36 92.5,-97.36 85.5,-97.36"/>
<polygon fill="Green" stroke="Green" stroke-width="2" points="92.5,-73.91 89,-63.91 85.5,-73.91 92.5,-73.91"/>
<text xml:space="preserve" text-anchor="middle" x="115.62" y="-79.7" font-family="Helvetica,sans-Serif" font-size="14.00" fill="#a39a9a">localhost</text>
</g>
<!-- Client -->
<g id="node9" class="node">
<title>Client</title>
<path fill="#cfd8dc" stroke="Grey" stroke-width="2" d="M453.88,-591C453.88,-591 374.12,-591 374.12,-591 368.12,-591 362.12,-585 362.12,-579 362.12,-579 362.12,-567 362.12,-567 362.12,-561 368.12,-555 374.12,-555 374.12,-555 453.88,-555 453.88,-555 459.88,-555 465.88,-561 465.88,-567 465.88,-567 465.88,-579 465.88,-579 465.88,-585 459.88,-591 453.88,-591"/>
<text xml:space="preserve" text-anchor="middle" x="414" y="-567.2" font-family="Helvetica,sans-Serif" font-size="14.00">External Client</text>
</g>
<!-- Client&#45;&gt;ingress -->
<g id="edge1" class="edge">
<title>Client&#45;&gt;ingress</title>
<path fill="none" stroke="Green" stroke-width="2" d="M414,-554.24C414,-531.82 414,-492.87 414,-465.38"/>
<polygon fill="Green" stroke="Green" stroke-width="2" points="417.5,-465.6 414,-455.6 410.5,-465.6 417.5,-465.6"/>
<text xml:space="preserve" text-anchor="middle" x="436.12" y="-523.7" font-family="Helvetica,sans-Serif" font-size="14.00" fill="#a39a9a">HTTPS</text>
</g>
</g>
</svg>
