<?xml version="1.0" encoding="UTF-8" standalone="no"?>
<!DOCTYPE svg PUBLIC "-//W3C//DTD SVG 1.1//EN"
 "http://www.w3.org/Graphics/SVG/1.1/DTD/svg11.dtd">
<!-- Generated by graphviz version 13.0.0 (20250608.1624)
 -->
<!-- Pages: 1 -->
<svg width="948pt" height="548pt"
 viewBox="0.00 0.00 948.00 548.00" xmlns="http://www.w3.org/2000/svg" xmlns:xlink="http://www.w3.org/1999/xlink">
<g id="graph0" class="graph" transform="scale(1 1) rotate(0) translate(4 544.37)">
<g id="clust1" class="cluster">
<title>cluster_k3d</title>
<polygon fill="none" stroke="gray" stroke-dasharray="5,2" points="8,-8 8,-459.37 932,-459.37 932,-8 8,-8"/>
<text xml:space="preserve" text-anchor="middle" x="470" y="-442.07" font-family="Helvetica,sans-Serif" font-size="14.00" fill="Grey">k3d (Kubernetes) Cluster</text>
</g>
<g id="clust2" class="cluster">
<title>cluster_istio_sys</title>
<polygon fill="none" stroke="gray" points="398,-351.37 398,-428.37 520,-428.37 520,-351.37 398,-351.37"/>
<text xml:space="preserve" text-anchor="middle" x="459" y="-411.07" font-family="Helvetica,sans-Serif" font-size="14.00" fill="Grey">istio&#45;system</text>
</g>
<g id="clust3" class="cluster">
<title>cluster_keda_sys</title>
<polygon fill="LightGrey" stroke="gray" points="16,-223 16,-428.37 222,-428.37 222,-223 16,-223"/>
<text xml:space="preserve" text-anchor="middle" x="119" y="-411.07" font-family="Helvetica,sans-Serif" font-size="14.00" fill="Grey">keda (KEDA Operator)</text>
</g>
<g id="clust4" class="cluster">
<title>cluster_pod_a</title>
<polygon fill="none" stroke="gray" stroke-dasharray="5,2" points="710,-231.87 710,-427.37 924,-427.37 924,-231.87 710,-231.87"/>
<text xml:space="preserve" text-anchor="middle" x="817" y="-410.07" font-family="Helvetica,sans-Serif" font-size="14.00" fill="Grey">Pod: service&#45;aa</text>
</g>
<g id="clust5" class="cluster">
<title>cluster_pod_b</title>
<polygon fill="none" stroke="gray" stroke-dasharray="5,2" points="299,-111 299,-306.87 497,-306.87 497,-111 299,-111"/>
<text xml:space="preserve" text-anchor="middle" x="398" y="-289.57" font-family="Helvetica,sans-Serif" font-size="14.00" fill="Grey">Pod: service&#45;bb (1&#45;3 Replicas)</text>
</g>
<g id="clust6" class="cluster">
<title>cluster_pod_rabbitmq</title>
<polygon fill="none" stroke="gray" stroke-dasharray="5,2" points="595,-16 595,-186 741,-186 741,-16 595,-16"/>
<text xml:space="preserve" text-anchor="middle" x="668" y="-168.7" font-family="Helvetica,sans-Serif" font-size="14.00" fill="Grey">Pod: rabbitmq</text>
</g>
<g id="clust7" class="cluster">
<title>cluster_pod_postgres</title>
<polygon fill="none" stroke="gray" stroke-dasharray="5,2" points="49,-16 49,-186 195,-186 195,-16 49,-16"/>
<text xml:space="preserve" text-anchor="middle" x="122" y="-168.7" font-family="Helvetica,sans-Serif" font-size="14.00" fill="Grey">Pod: postgres</text>
</g>
<!-- istiod -->
<g id="node1" class="node">
<title>istiod</title>
<path fill="#add8e6" stroke="Grey" stroke-width="2" d="M500.38,-397.37C500.38,-397.37 417.62,-397.37 417.62,-397.37 411.62,-397.37 405.62,-391.37 405.62,-385.37 405.62,-385.37 405.62,-371.37 405.62,-371.37 405.62,-365.37 411.62,-359.37 417.62,-359.37 417.62,-359.37 500.38,-359.37 500.38,-359.37 506.38,-359.37 512.38,-365.37 512.38,-371.37 512.38,-371.37 512.38,-385.37 512.38,-385.37 512.38,-391.37 506.38,-397.37 500.38,-397.37"/>
<text xml:space="preserve" text-anchor="middle" x="459" y="-380.07" font-family="Helvetica,sans-Serif" font-size="14.00">istiod</text>
<text xml:space="preserve" text-anchor="middle" x="459" y="-365.07" font-family="Helvetica,sans-Serif" font-size="14.00">(Control Plane)</text>
</g>
<!-- ProxyA -->
<g id="node6" class="node">
<title>ProxyA</title>
<path fill="#ffa07a" stroke="Grey" stroke-width="2" d="M836.38,-275.87C836.38,-275.87 729.62,-275.87 729.62,-275.87 723.62,-275.87 717.62,-269.87 717.62,-263.87 717.62,-263.87 717.62,-251.87 717.62,-251.87 717.62,-245.87 723.62,-239.87 729.62,-239.87 729.62,-239.87 836.38,-239.87 836.38,-239.87 842.38,-239.87 848.38,-245.87 848.38,-251.87 848.38,-251.87 848.38,-263.87 848.38,-263.87 848.38,-269.87 842.38,-275.87 836.38,-275.87"/>
<text xml:space="preserve" text-anchor="middle" x="783" y="-252.07" font-family="Helvetica,sans-Serif" font-size="14.00">Sidecar: istio&#45;proxy</text>
</g>
<!-- istiod&#45;&gt;ProxyA -->
<g id="edge10" class="edge">
<title>istiod&#45;&gt;ProxyA</title>
<path fill="none" stroke="gray" stroke-width="2" stroke-dasharray="5,2" d="M496.1,-358.5C502.61,-355.75 509.41,-353.23 516,-351.37 590.98,-330.18 623.69,-370.79 690,-329.87 696.82,-325.66 694.35,-320.55 700,-314.87 711.7,-303.1 726.22,-292.32 739.83,-283.43"/>
<polygon fill="gray" stroke="gray" stroke-width="2" points="741.32,-286.63 747.91,-278.34 737.59,-280.71 741.32,-286.63"/>
</g>
<!-- ProxyB -->
<g id="node8" class="node">
<title>ProxyB</title>
<path fill="#ffa07a" stroke="Grey" stroke-width="2" d="M477.38,-275.87C477.38,-275.87 370.62,-275.87 370.62,-275.87 364.62,-275.87 358.62,-269.87 358.62,-263.87 358.62,-263.87 358.62,-251.87 358.62,-251.87 358.62,-245.87 364.62,-239.87 370.62,-239.87 370.62,-239.87 477.38,-239.87 477.38,-239.87 483.38,-239.87 489.38,-245.87 489.38,-251.87 489.38,-251.87 489.38,-263.87 489.38,-263.87 489.38,-269.87 483.38,-275.87 477.38,-275.87"/>
<text xml:space="preserve" text-anchor="middle" x="424" y="-252.07" font-family="Helvetica,sans-Serif" font-size="14.00">Sidecar: istio&#45;proxy</text>
</g>
<!-- istiod&#45;&gt;ProxyB -->
<g id="edge11" class="edge">
<title>istiod&#45;&gt;ProxyB</title>
<path fill="none" stroke="gray" stroke-width="2" stroke-dasharray="5,2" d="M453.45,-358.59C447.94,-339.91 439.38,-310.96 432.91,-289.05"/>
<polygon fill="gray" stroke="gray" stroke-width="2" points="436.34,-288.29 430.15,-279.69 429.62,-290.27 436.34,-288.29"/>
</g>
<!-- ProxyRabbitMQ -->
<g id="node10" class="node">
<title>ProxyRabbitMQ</title>
<path fill="#ffa07a" stroke="Grey" stroke-width="2" d="M721.38,-155C721.38,-155 614.62,-155 614.62,-155 608.62,-155 602.62,-149 602.62,-143 602.62,-143 602.62,-131 602.62,-131 602.62,-125 608.62,-119 614.62,-119 614.62,-119 721.38,-119 721.38,-119 727.38,-119 733.38,-125 733.38,-131 733.38,-131 733.38,-143 733.38,-143 733.38,-149 727.38,-155 721.38,-155"/>
<text xml:space="preserve" text-anchor="middle" x="668" y="-131.2" font-family="Helvetica,sans-Serif" font-size="14.00">Sidecar: istio&#45;proxy</text>
</g>
<!-- istiod&#45;&gt;ProxyRabbitMQ -->
<g id="edge12" class="edge">
<title>istiod&#45;&gt;ProxyRabbitMQ</title>
<path fill="none" stroke="gray" stroke-width="2" stroke-dasharray="5,2" d="M498.17,-358.37C504.08,-355.84 510.15,-353.42 516,-351.37 592.97,-324.45 643.82,-371.14 694,-306.87 716.94,-277.49 699.51,-259.87 694,-223 691.19,-204.21 685.07,-183.84 679.48,-167.75"/>
<polygon fill="gray" stroke="gray" stroke-width="2" points="682.9,-166.93 676.2,-158.72 676.32,-169.32 682.9,-166.93"/>
</g>
<!-- ProxyPostgres -->
<g id="node12" class="node">
<title>ProxyPostgres</title>
<path fill="#ffa07a" stroke="Grey" stroke-width="2" d="M175.38,-155C175.38,-155 68.62,-155 68.62,-155 62.63,-155 56.62,-149 56.62,-143 56.62,-143 56.62,-131 56.62,-131 56.62,-125 62.62,-119 68.62,-119 68.62,-119 175.38,-119 175.38,-119 181.38,-119 187.38,-125 187.38,-131 187.38,-131 187.38,-143 187.38,-143 187.38,-149 181.38,-155 175.38,-155"/>
<text xml:space="preserve" text-anchor="middle" x="122" y="-131.2" font-family="Helvetica,sans-Serif" font-size="14.00">Sidecar: istio&#45;proxy</text>
</g>
<!-- istiod&#45;&gt;ProxyPostgres -->
<g id="edge13" class="edge">
<title>istiod&#45;&gt;ProxyPostgres</title>
<path fill="none" stroke="gray" stroke-width="2" stroke-dasharray="5,2" d="M404.86,-360.27C372.09,-348.37 330.49,-330.41 298,-306.87 257.5,-277.53 267.89,-245.04 223,-223 184,-203.85 57.6,-240.8 28,-209 11.13,-190.87 31.25,-174.01 57.14,-161.27"/>
<polygon fill="gray" stroke="gray" stroke-width="2" points="58.51,-164.49 66.15,-157.15 55.6,-158.12 58.51,-164.49"/>
</g>
<!-- KedaOperator -->
<g id="node2" class="node">
<title>KedaOperator</title>
<path fill="#ffccbc" stroke="Grey" stroke-width="2" d="M191.5,-397.37C191.5,-397.37 100.5,-397.37 100.5,-397.37 94.5,-397.37 88.5,-391.37 88.5,-385.37 88.5,-385.37 88.5,-371.37 88.5,-371.37 88.5,-365.37 94.5,-359.37 100.5,-359.37 100.5,-359.37 191.5,-359.37 191.5,-359.37 197.5,-359.37 203.5,-365.37 203.5,-371.37 203.5,-371.37 203.5,-385.37 203.5,-385.37 203.5,-391.37 197.5,-397.37 191.5,-397.37"/>
<text xml:space="preserve" text-anchor="middle" x="146" y="-380.07" font-family="Helvetica,sans-Serif" font-size="14.00">keda&#45;operator</text>
<text xml:space="preserve" text-anchor="middle" x="146" y="-365.07" font-family="Helvetica,sans-Serif" font-size="14.00">&amp; metrics&#45;server</text>
</g>
<!-- ScaledObj -->
<g id="node3" class="node">
<title>ScaledObj</title>
<ellipse fill="#e1bee7" stroke="Grey" stroke-width="2" cx="119" cy="-257.87" rx="94.58" ry="26.87"/>
<text xml:space="preserve" text-anchor="middle" x="119" y="-259.57" font-family="Helvetica,sans-Serif" font-size="14.00">ScaledObject</text>
<text xml:space="preserve" text-anchor="middle" x="119" y="-244.57" font-family="Helvetica,sans-Serif" font-size="14.00">(RabbitMQ Trigger)</text>
</g>
<!-- KedaOperator&#45;&gt;ScaledObj -->
<g id="edge15" class="edge">
<title>KedaOperator&#45;&gt;ScaledObj</title>
<path fill="none" stroke="purple" stroke-width="2" stroke-dasharray="5,2" d="M141.72,-358.59C138.02,-342.35 132.55,-318.33 127.9,-297.93"/>
<polygon fill="purple" stroke="purple" stroke-width="2" points="131.37,-297.41 125.74,-288.44 124.55,-298.97 131.37,-297.41"/>
</g>
<!-- KedaOperator&#45;&gt;ProxyRabbitMQ -->
<g id="edge16" class="edge">
<title>KedaOperator&#45;&gt;ProxyRabbitMQ</title>
<path fill="none" stroke="purple" stroke-width="2" stroke-dasharray="1,5" d="M204.39,-373.54C293.69,-366.43 458.06,-348.01 498,-306.87 524.34,-279.74 484.86,-249.06 512.25,-223 550.44,-186.68 586.47,-238.71 630,-209 644.11,-199.37 653.41,-182.75 659.27,-168.02"/>
<polygon fill="purple" stroke="purple" stroke-width="2" points="662.56,-169.22 662.57,-158.63 655.96,-166.9 662.56,-169.22"/>
<text xml:space="preserve" text-anchor="middle" x="602.62" y="-252.07" font-family="Helvetica,sans-Serif" font-size="14.00" fill="#a39a9a">inspects queue (mTLS aware)</text>
</g>
<!-- AppB -->
<g id="node7" class="node">
<title>AppB</title>
<path fill="#b3e5fc" stroke="Grey" stroke-width="2" d="M476.5,-155C476.5,-155 319.5,-155 319.5,-155 313.5,-155 307.5,-149 307.5,-143 307.5,-143 307.5,-131 307.5,-131 307.5,-125 313.5,-119 319.5,-119 319.5,-119 476.5,-119 476.5,-119 482.5,-119 488.5,-125 488.5,-131 488.5,-131 488.5,-143 488.5,-143 488.5,-149 482.5,-155 476.5,-155"/>
<text xml:space="preserve" text-anchor="middle" x="398" y="-131.2" font-family="Helvetica,sans-Serif" font-size="14.00">App: App&#45;Core (Consumer)</text>
</g>
<!-- ScaledObj&#45;&gt;AppB -->
<g id="edge14" class="edge">
<title>ScaledObj&#45;&gt;AppB</title>
<path fill="none" stroke="purple" stroke-width="2" stroke-dasharray="1,5" d="M59.99,-235.95C36.99,-224.7 19.37,-209.89 34.5,-194 46.89,-180.99 178.21,-188.53 196,-186 238.64,-179.93 285.49,-169.07 323.32,-159.21"/>
<polygon fill="purple" stroke="purple" stroke-width="2" points="324.09,-162.63 332.86,-156.69 322.3,-155.86 324.09,-162.63"/>
<text xml:space="preserve" text-anchor="middle" x="90.75" y="-195.7" font-family="Helvetica,sans-Serif" font-size="14.00" fill="#a39a9a">scales deployment</text>
</g>
<!-- ingress -->
<g id="node4" class="node">
<title>ingress</title>
<polygon fill="#ffd700" stroke="Grey" stroke-width="2" points="701.75,-404.87 528.25,-404.87 528.25,-400.87 524.25,-400.87 524.25,-396.87 528.25,-396.87 528.25,-359.87 524.25,-359.87 524.25,-355.87 528.25,-355.87 528.25,-351.87 701.75,-351.87 701.75,-404.87"/>
<polyline fill="none" stroke="Grey" stroke-width="2" points="528.25,-400.87 532.25,-400.87 532.25,-396.87 528.25,-396.87"/>
<polyline fill="none" stroke="Grey" stroke-width="2" points="528.25,-359.87 532.25,-359.87 532.25,-355.87 528.25,-355.87"/>
<text xml:space="preserve" text-anchor="middle" x="615" y="-387.57" font-family="Helvetica,sans-Serif" font-size="14.00">Istio Ingress</text>
<text xml:space="preserve" text-anchor="middle" x="615" y="-372.57" font-family="Helvetica,sans-Serif" font-size="14.00">Gateway</text>
<text xml:space="preserve" text-anchor="middle" x="615" y="-357.57" font-family="Helvetica,sans-Serif" font-size="14.00">(Gateway / VirtualService)</text>
</g>
<!-- ingress&#45;&gt;ProxyA -->
<g id="edge2" class="edge">
<title>ingress&#45;&gt;ProxyA</title>
<path fill="none" stroke="#ffa07a" stroke-width="2" d="M667.83,-350.88C678.01,-344.67 688.22,-337.58 697,-329.87 703.31,-324.33 702.53,-320.78 708.5,-314.87 719.61,-303.86 732.96,-293.18 745.26,-284.15"/>
<polygon fill="#ffa07a" stroke="#ffa07a" stroke-width="2" points="747.16,-287.09 753.27,-278.43 743.09,-281.4 747.16,-287.09"/>
<text xml:space="preserve" text-anchor="middle" x="779.75" y="-316.57" font-family="Helvetica,sans-Serif" font-size="14.00" fill="#a39a9a">mTLS / HTTP (Routing)</text>
</g>
<!-- AppA -->
<g id="node5" class="node">
<title>AppA</title>
<path fill="#b3e5fc" stroke="Grey" stroke-width="2" d="M903.75,-396.37C903.75,-396.37 730.25,-396.37 730.25,-396.37 724.25,-396.37 718.25,-390.37 718.25,-384.37 718.25,-384.37 718.25,-372.37 718.25,-372.37 718.25,-366.37 724.25,-360.37 730.25,-360.37 730.25,-360.37 903.75,-360.37 903.75,-360.37 909.75,-360.37 915.75,-366.37 915.75,-372.37 915.75,-372.37 915.75,-384.37 915.75,-384.37 915.75,-390.37 909.75,-396.37 903.75,-396.37"/>
<text xml:space="preserve" text-anchor="middle" x="817" y="-372.57" font-family="Helvetica,sans-Serif" font-size="14.00">App: App&#45;Gateway (Producer)</text>
</g>
<!-- AppA&#45;&gt;ProxyA -->
<g id="edge3" class="edge">
<title>AppA&#45;&gt;ProxyA</title>
<path fill="none" stroke="Green" stroke-width="2" d="M845.52,-349.4C852.94,-338.75 857.49,-326.41 852,-314.87 846.33,-302.96 836.75,-292.76 826.5,-284.46"/>
<polygon fill="Green" stroke="Green" stroke-width="2" points="842.9,-347.06 839.32,-357.03 848.34,-351.48 842.9,-347.06"/>
<polygon fill="Green" stroke="Green" stroke-width="2" points="828.71,-281.73 818.59,-278.59 824.54,-287.36 828.71,-281.73"/>
<text xml:space="preserve" text-anchor="middle" x="881.05" y="-316.57" font-family="Helvetica,sans-Serif" font-size="14.00" fill="#a39a9a">localhost</text>
</g>
<!-- ProxyA&#45;&gt;ProxyRabbitMQ -->
<g id="edge4" class="edge">
<title>ProxyA&#45;&gt;ProxyRabbitMQ</title>
<path fill="none" stroke="#ffa07a" stroke-width="2" d="M765.78,-239.07C746.81,-219.47 716.09,-187.71 694.14,-165.02"/>
<polygon fill="#ffa07a" stroke="#ffa07a" stroke-width="2" points="696.91,-162.85 687.44,-158.09 691.88,-167.71 696.91,-162.85"/>
<text xml:space="preserve" text-anchor="middle" x="799.93" y="-195.7" font-family="Helvetica,sans-Serif" font-size="14.00" fill="#a39a9a">mTLS (Authorization)</text>
</g>
<!-- ProxyB&#45;&gt;AppB -->
<g id="edge7" class="edge">
<title>ProxyB&#45;&gt;AppB</title>
<path fill="none" stroke="Green" stroke-width="2" d="M427.4,-226.29C427.79,-215.93 427.37,-204.36 425,-194 422.93,-184.95 419.21,-175.66 415.17,-167.32"/>
<polygon fill="Green" stroke="Green" stroke-width="2" points="423.93,-225.78 426.73,-236 430.91,-226.26 423.93,-225.78"/>
<polygon fill="Green" stroke="Green" stroke-width="2" points="418.34,-165.82 410.6,-158.58 412.14,-169.06 418.34,-165.82"/>
<text xml:space="preserve" text-anchor="middle" x="453.66" y="-195.7" font-family="Helvetica,sans-Serif" font-size="14.00" fill="#a39a9a">localhost</text>
</g>
<!-- ProxyB&#45;&gt;ProxyRabbitMQ -->
<g id="edge6" class="edge">
<title>ProxyB&#45;&gt;ProxyRabbitMQ</title>
<path fill="none" stroke="#ffa07a" stroke-width="2" d="M445.39,-238.91C464.89,-222.78 492.48,-200.64 504.75,-194 531.26,-179.65 562.15,-167.93 589.88,-158.99"/>
<polygon fill="#ffa07a" stroke="#ffa07a" stroke-width="2" points="590.58,-162.44 599.07,-156.11 588.48,-155.76 590.58,-162.44"/>
<text xml:space="preserve" text-anchor="middle" x="568.88" y="-195.7" font-family="Helvetica,sans-Serif" font-size="14.00" fill="#a39a9a">mTLS (Authorization)</text>
</g>
<!-- ProxyB&#45;&gt;ProxyPostgres -->
<g id="edge8" class="edge">
<title>ProxyB&#45;&gt;ProxyPostgres</title>
<path fill="none" stroke="#ffa07a" stroke-width="2" d="M357.71,-245.1C278.28,-230.99 155.75,-209.19 155.5,-209 148.31,-203.5 139.57,-184.61 132.82,-167.69"/>
<polygon fill="#ffa07a" stroke="#ffa07a" stroke-width="2" points="136.24,-166.85 129.39,-158.77 129.71,-169.36 136.24,-166.85"/>
<text xml:space="preserve" text-anchor="middle" x="289.75" y="-195.7" font-family="Helvetica,sans-Serif" font-size="14.00" fill="#a39a9a">mTLS (Authorization: allow&#45;service&#45;bb&#45;to&#45;db)</text>
</g>
<!-- AppRabbitMQ -->
<g id="node9" class="node">
<title>AppRabbitMQ</title>
<path fill="#b3e5fc" stroke="Grey" stroke-width="2" d="M710.88,-60C710.88,-60 625.12,-60 625.12,-60 619.12,-60 613.12,-54 613.12,-48 613.12,-48 613.12,-36 613.12,-36 613.12,-30 619.12,-24 625.12,-24 625.12,-24 710.88,-24 710.88,-24 716.88,-24 722.88,-30 722.88,-36 722.88,-36 722.88,-48 722.88,-48 722.88,-54 716.88,-60 710.88,-60"/>
<text xml:space="preserve" text-anchor="middle" x="668" y="-36.2" font-family="Helvetica,sans-Serif" font-size="14.00">App: RabbitMQ</text>
</g>
<!-- ProxyRabbitMQ&#45;&gt;AppRabbitMQ -->
<g id="edge5" class="edge">
<title>ProxyRabbitMQ&#45;&gt;AppRabbitMQ</title>
<path fill="none" stroke="Green" stroke-width="2" d="M668,-105.4C668,-95.26 668,-83.97 668,-73.81"/>
<polygon fill="Green" stroke="Green" stroke-width="2" points="664.5,-105.04 668,-115.04 671.5,-105.04 664.5,-105.04"/>
<polygon fill="Green" stroke="Green" stroke-width="2" points="671.5,-73.9 668,-63.9 664.5,-73.9 671.5,-73.9"/>
<text xml:space="preserve" text-anchor="middle" x="694.62" y="-83.7" font-family="Helvetica,sans-Serif" font-size="14.00" fill="#a39a9a">localhost</text>
</g>
<!-- AppPostgres -->
<g id="node11" class="node">
<title>AppPostgres</title>
<path fill="#b3e5fc" stroke="Grey" stroke-width="2" d="M160.38,-60C160.38,-60 83.62,-60 83.62,-60 77.62,-60 71.62,-54 71.62,-48 71.62,-48 71.62,-36 71.62,-36 71.62,-30 77.62,-24 83.62,-24 83.62,-24 160.38,-24 160.38,-24 166.38,-24 172.38,-30 172.38,-36 172.38,-36 172.38,-48 172.38,-48 172.38,-54 166.38,-60 160.38,-60"/>
<text xml:space="preserve" text-anchor="middle" x="122" y="-36.2" font-family="Helvetica,sans-Serif" font-size="14.00">App: Postgres</text>
</g>
<!-- ProxyPostgres&#45;&gt;AppPostgres -->
<g id="edge9" class="edge">
<title>ProxyPostgres&#45;&gt;AppPostgres</title>
<path fill="none" stroke="Green" stroke-width="2" d="M122,-105.4C122,-95.26 122,-83.97 122,-73.81"/>
<polygon fill="Green" stroke="Green" stroke-width="2" points="118.5,-105.04 122,-115.04 125.5,-105.04 118.5,-105.04"/>
<polygon fill="Green" stroke="Green" stroke-width="2" points="125.5,-73.9 122,-63.9 118.5,-73.9 125.5,-73.9"/>
<text xml:space="preserve" text-anchor="middle" x="148.62" y="-83.7" font-family="Helvetica,sans-Serif" font-size="14.00" fill="#a39a9a">localhost</text>
</g>
<!-- Client -->
<g id="node13" class="node">
<title>Client</title>
<path fill="#cfd8dc" stroke="Grey" stroke-width="2" d="M654.88,-540.37C654.88,-540.37 575.12,-540.37 575.12,-540.37 569.12,-540.37 563.12,-534.37 563.12,-528.37 563.12,-528.37 563.12,-516.37 563.12,-516.37 563.12,-510.37 569.12,-504.37 575.12,-504.37 575.12,-504.37 654.88,-504.37 654.88,-504.37 660.88,-504.37 666.88,-510.37 666.88,-516.37 666.88,-516.37 666.88,-528.37 666.88,-528.37 666.88,-534.37 660.88,-540.37 654.88,-540.37"/>
<text xml:space="preserve" text-anchor="middle" x="615" y="-516.57" font-family="Helvetica,sans-Serif" font-size="14.00">External Client</text>
</g>
<!-- Client&#45;&gt;ingress -->
<g id="edge1" class="edge">
<title>Client&#45;&gt;ingress</title>
<path fill="none" stroke="Green" stroke-width="2" d="M615,-503.39C615,-482.16 615,-446.24 615,-418.5"/>
<polygon fill="Green" stroke="Green" stroke-width="2" points="618.5,-418.67 615,-408.67 611.5,-418.67 618.5,-418.67"/>
<text xml:space="preserve" text-anchor="middle" x="637.12" y="-469.07" font-family="Helvetica,sans-Serif" font-size="14.00" fill="#a39a9a">HTTPS</text>
</g>
</g>
</svg>
