<?xml version="1.0" encoding="UTF-8" standalone="no"?>
<!DOCTYPE svg PUBLIC "-//W3C//DTD SVG 1.1//EN"
 "http://www.w3.org/Graphics/SVG/1.1/DTD/svg11.dtd">
<!-- Generated by graphviz version 13.0.0 (20250608.1624)
 -->
<!-- Pages: 1 -->
<svg width="690pt" height="451pt"
 viewBox="0.00 0.00 690.00 451.00" xmlns="http://www.w3.org/2000/svg" xmlns:xlink="http://www.w3.org/1999/xlink">
<g id="graph0" class="graph" transform="scale(1 1) rotate(0) translate(4 447)">
<g id="clust1" class="cluster">
<title>cluster_legacy</title>
<path fill="#e0e0e0" stroke="#90a4ae" d="M147.88,-305C147.88,-305 424.88,-305 424.88,-305 430.88,-305 436.88,-311 436.88,-317 436.88,-317 436.88,-376 436.88,-376 436.88,-382 430.88,-388 424.88,-388 424.88,-388 147.88,-388 147.88,-388 141.88,-388 135.88,-382 135.88,-376 135.88,-376 135.88,-317 135.88,-317 135.88,-311 141.88,-305 147.88,-305"/>
<text xml:space="preserve" text-anchor="middle" x="286.38" y="-365" font-family="Helvetica,sans-Serif" font-size="20.00" fill="#424242">Legacy / Transition Components</text>
</g>
<g id="clust2" class="cluster">
<title>cluster_infra</title>
<path fill="#f2f2ea" stroke="#546e7a" d="M297.88,-8C297.88,-8 661.88,-8 661.88,-8 667.88,-8 673.88,-14 673.88,-20 673.88,-20 673.88,-148 673.88,-148 673.88,-154 667.88,-160 661.88,-160 661.88,-160 297.88,-160 297.88,-160 291.88,-160 285.88,-154 285.88,-148 285.88,-148 285.88,-20 285.88,-20 285.88,-14 291.88,-8 297.88,-8"/>
<text xml:space="preserve" text-anchor="middle" x="479.88" y="-137" font-family="Helvetica,sans-Serif" font-size="20.00" fill="#424242">Production Infrastructure</text>
</g>
<g id="clust3" class="cluster">
<title>cluster_services</title>
<path fill="#f3efef" stroke="#546e7a" d="M458.88,-191C458.88,-191 643.88,-191 643.88,-191 649.88,-191 655.88,-197 655.88,-203 655.88,-203 655.88,-262 655.88,-262 655.88,-268 649.88,-274 643.88,-274 643.88,-274 458.88,-274 458.88,-274 452.88,-274 446.88,-268 446.88,-262 446.88,-262 446.88,-203 446.88,-203 446.88,-197 452.88,-191 458.88,-191"/>
<text xml:space="preserve" text-anchor="middle" x="551.38" y="-251" font-family="Helvetica,sans-Serif" font-size="20.00" fill="#424242">Core Components</text>
</g>
<!-- Expert -->
<g id="node1" class="node">
<title>Expert</title>
<path fill="#cfd8dc" stroke="Grey" stroke-width="2" d="M493.5,-443C493.5,-443 370.25,-443 370.25,-443 364.25,-443 358.25,-437 358.25,-431 358.25,-431 358.25,-417 358.25,-417 358.25,-411 364.25,-405 370.25,-405 370.25,-405 493.5,-405 493.5,-405 499.5,-405 505.5,-411 505.5,-417 505.5,-417 505.5,-431 505.5,-431 505.5,-437 499.5,-443 493.5,-443"/>
<text xml:space="preserve" text-anchor="middle" x="431.88" y="-425.7" font-family="Helvetica,sans-Serif" font-size="14.00">System Architect</text>
<text xml:space="preserve" text-anchor="middle" x="431.88" y="-410.7" font-family="Helvetica,sans-Serif" font-size="14.00">(Zero Trust Migration)</text>
</g>
<!-- PKI -->
<g id="node2" class="node">
<title>PKI</title>
<path fill="#ffccbc" stroke="Grey" stroke-width="2" d="M115.75,-351C115.75,-351 12,-351 12,-351 6,-351 0,-345 0,-339 0,-339 0,-325 0,-325 0,-319 6,-313 12,-313 12,-313 115.75,-313 115.75,-313 121.75,-313 127.75,-319 127.75,-325 127.75,-325 127.75,-339 127.75,-339 127.75,-345 121.75,-351 115.75,-351"/>
<text xml:space="preserve" text-anchor="middle" x="63.88" y="-333.7" font-family="Helvetica,sans-Serif" font-size="14.00">PKI Operations</text>
<text xml:space="preserve" text-anchor="middle" x="63.88" y="-318.7" font-family="Helvetica,sans-Serif" font-size="14.00">(OpenSSL / Certs)</text>
</g>
<!-- Expert&#45;&gt;PKI -->
<g id="edge9" class="edge">
<title>Expert&#45;&gt;PKI</title>
<path fill="none" stroke="Green" d="M357.58,-418.79C283.07,-413.77 173.92,-403.97 134.88,-388 118.73,-381.4 103.14,-370.07 90.7,-359.4"/>
<polygon fill="Green" stroke="Green" points="93.15,-356.89 83.37,-352.83 88.49,-362.11 93.15,-356.89"/>
</g>
<!-- Nginx -->
<g id="node3" class="node">
<title>Nginx</title>
<path fill="#cfd8dc" stroke="Grey" stroke-width="2" d="M316.12,-351C316.12,-351 241.62,-351 241.62,-351 235.62,-351 229.62,-345 229.62,-339 229.62,-339 229.62,-325 229.62,-325 229.62,-319 235.62,-313 241.62,-313 241.62,-313 316.12,-313 316.12,-313 322.12,-313 328.12,-319 328.12,-325 328.12,-325 328.12,-339 328.12,-339 328.12,-345 322.12,-351 316.12,-351"/>
<text xml:space="preserve" text-anchor="middle" x="278.88" y="-333.7" font-family="Helvetica,sans-Serif" font-size="14.00">Nginx Ingress</text>
<text xml:space="preserve" text-anchor="middle" x="278.88" y="-318.7" font-family="Helvetica,sans-Serif" font-size="14.00">(Removed)</text>
</g>
<!-- Expert&#45;&gt;Nginx -->
<g id="edge10" class="edge">
<title>Expert&#45;&gt;Nginx</title>
<path fill="none" stroke="Green" d="M363.96,-404.09C352.81,-399.64 341.71,-394.31 331.88,-388 320.34,-380.6 309.48,-370.21 300.63,-360.45"/>
<polygon fill="Green" stroke="Green" points="303.29,-358.18 294.1,-352.91 298,-362.76 303.29,-358.18"/>
</g>
<!-- Redis -->
<g id="node4" class="node">
<title>Redis</title>
<path fill="#cfd8dc" stroke="Grey" stroke-width="2" d="M416.5,-351C416.5,-351 347.25,-351 347.25,-351 341.25,-351 335.25,-345 335.25,-339 335.25,-339 335.25,-325 335.25,-325 335.25,-319 341.25,-313 347.25,-313 347.25,-313 416.5,-313 416.5,-313 422.5,-313 428.5,-319 428.5,-325 428.5,-325 428.5,-339 428.5,-339 428.5,-345 422.5,-351 416.5,-351"/>
<text xml:space="preserve" text-anchor="middle" x="381.88" y="-333.7" font-family="Helvetica,sans-Serif" font-size="14.00">Redis Cache</text>
<text xml:space="preserve" text-anchor="middle" x="381.88" y="-318.7" font-family="Helvetica,sans-Serif" font-size="14.00">(Initial POC)</text>
</g>
<!-- Expert&#45;&gt;Redis -->
<g id="edge11" class="edge">
<title>Expert&#45;&gt;Redis</title>
<path fill="none" stroke="Green" d="M421.51,-404.35C414.72,-392.13 405.7,-375.89 397.98,-362"/>
<polygon fill="Green" stroke="Green" points="401.04,-360.3 393.13,-353.26 394.93,-363.7 401.04,-360.3"/>
</g>
<!-- EnvoyGateway -->
<g id="node5" class="node">
<title>EnvoyGateway</title>
<path fill="#e1f5fe" stroke="Grey" stroke-width="2" d="M405.88,-123C405.88,-123 305.88,-123 305.88,-123 299.88,-123 293.88,-117 293.88,-111 293.88,-111 293.88,-97 293.88,-97 293.88,-91 299.88,-85 305.88,-85 305.88,-85 405.88,-85 405.88,-85 411.88,-85 417.88,-91 417.88,-97 417.88,-97 417.88,-111 417.88,-111 417.88,-117 411.88,-123 405.88,-123"/>
<text xml:space="preserve" text-anchor="middle" x="355.88" y="-105.7" font-family="Helvetica,sans-Serif" font-size="14.00">Envoy Gateway</text>
<text xml:space="preserve" text-anchor="middle" x="355.88" y="-90.7" font-family="Helvetica,sans-Serif" font-size="14.00">(TLS Termination)</text>
</g>
<!-- Expert&#45;&gt;EnvoyGateway -->
<g id="edge12" class="edge">
<title>Expert&#45;&gt;EnvoyGateway</title>
<path fill="none" stroke="Green" d="M435.69,-404.01C442.97,-363.16 455.57,-264.65 424.88,-191 415.62,-168.79 398.81,-147.65 384.1,-131.89"/>
<polygon fill="Green" stroke="Green" points="386.73,-129.57 377.26,-124.8 381.69,-134.43 386.73,-129.57"/>
</g>
<!-- AppGateway -->
<g id="node9" class="node">
<title>AppGateway</title>
<path fill="#b3e5fc" stroke="Grey" stroke-width="2" d="M541.12,-237C541.12,-237 466.62,-237 466.62,-237 460.62,-237 454.62,-231 454.62,-225 454.62,-225 454.62,-211 454.62,-211 454.62,-205 460.62,-199 466.62,-199 466.62,-199 541.12,-199 541.12,-199 547.12,-199 553.12,-205 553.12,-211 553.12,-211 553.12,-225 553.12,-225 553.12,-231 547.12,-237 541.12,-237"/>
<text xml:space="preserve" text-anchor="middle" x="503.88" y="-219.7" font-family="Helvetica,sans-Serif" font-size="14.00">App&#45;Gateway</text>
<text xml:space="preserve" text-anchor="middle" x="503.88" y="-204.7" font-family="Helvetica,sans-Serif" font-size="14.00">(Producer)</text>
</g>
<!-- Expert&#45;&gt;AppGateway -->
<g id="edge13" class="edge">
<title>Expert&#45;&gt;AppGateway</title>
<path fill="none" stroke="Green" d="M449.42,-404.07C451.07,-401.78 452.6,-399.4 453.88,-397 479.61,-348.52 493.27,-285.39 499.51,-248.81"/>
<polygon fill="Green" stroke="Green" points="502.89,-249.84 501.04,-239.41 495.98,-248.72 502.89,-249.84"/>
</g>
<!-- AppCore -->
<g id="node10" class="node">
<title>AppCore</title>
<path fill="#b3e5fc" stroke="Grey" stroke-width="2" d="M635.88,-237C635.88,-237 571.88,-237 571.88,-237 565.88,-237 559.88,-231 559.88,-225 559.88,-225 559.88,-211 559.88,-211 559.88,-205 565.88,-199 571.88,-199 571.88,-199 635.88,-199 635.88,-199 641.88,-199 647.88,-205 647.88,-211 647.88,-211 647.88,-225 647.88,-225 647.88,-231 641.88,-237 635.88,-237"/>
<text xml:space="preserve" text-anchor="middle" x="603.88" y="-219.7" font-family="Helvetica,sans-Serif" font-size="14.00">App&#45;Core</text>
<text xml:space="preserve" text-anchor="middle" x="603.88" y="-204.7" font-family="Helvetica,sans-Serif" font-size="14.00">(Consumer)</text>
</g>
<!-- Expert&#45;&gt;AppCore -->
<g id="edge14" class="edge">
<title>Expert&#45;&gt;AppCore</title>
<path fill="none" stroke="Green" d="M459.2,-404.21C465.62,-399.26 472.23,-393.7 477.88,-388 522.06,-343.39 563.61,-282.67 586.21,-247.47"/>
<polygon fill="Green" stroke="Green" points="589.12,-249.42 591.53,-239.11 583.21,-245.67 589.12,-249.42"/>
</g>
<!-- Security -->
<g id="node11" class="node">
<title>Security</title>
<path fill="#ffccbc" stroke="Grey" stroke-width="2" d="M328.75,-236C328.75,-236 237,-236 237,-236 231,-236 225,-230 225,-224 225,-224 225,-212 225,-212 225,-206 231,-200 237,-200 237,-200 328.75,-200 328.75,-200 334.75,-200 340.75,-206 340.75,-212 340.75,-212 340.75,-224 340.75,-224 340.75,-230 334.75,-236 328.75,-236"/>
<text xml:space="preserve" text-anchor="middle" x="282.88" y="-212.2" font-family="Helvetica,sans-Serif" font-size="14.00">Zero Trust Layer</text>
</g>
<!-- PKI&#45;&gt;Security -->
<g id="edge8" class="edge">
<title>PKI&#45;&gt;Security</title>
<path fill="none" stroke="Green" stroke-width="2" stroke-dasharray="1,5" d="M101.03,-312C138.35,-292.91 195.96,-263.45 236.31,-242.81"/>
<polygon fill="Green" stroke="Green" stroke-width="2" points="237.71,-246.03 245.02,-238.36 234.53,-239.79 237.71,-246.03"/>
<text xml:space="preserve" text-anchor="middle" x="184.51" y="-283.7" font-family="Helvetica,sans-Serif" font-size="14.00" fill="#a39a9a">distributes</text>
</g>
<!-- Nginx&#45;&gt;EnvoyGateway -->
<g id="edge15" class="edge">
<title>Nginx&#45;&gt;EnvoyGateway</title>
<path fill="none" stroke="Green" stroke-width="2" stroke-dasharray="1,5" d="M309.32,-312.24C322.3,-302.53 336.2,-289.46 343.88,-274 355.45,-250.69 356.76,-178.88 356.46,-136.74"/>
<polygon fill="Green" stroke="Green" stroke-width="2" points="359.96,-136.94 356.35,-126.98 352.96,-137.02 359.96,-136.94"/>
<text xml:space="preserve" text-anchor="middle" x="389.8" y="-212.2" font-family="Helvetica,sans-Serif" font-size="14.00" fill="#a39a9a">migrated to</text>
</g>
<!-- EnvoySidecar -->
<g id="node6" class="node">
<title>EnvoySidecar</title>
<path fill="#e1f5fe" stroke="Grey" stroke-width="2" d="M522.75,-123C522.75,-123 437,-123 437,-123 431,-123 425,-117 425,-111 425,-111 425,-97 425,-97 425,-91 431,-85 437,-85 437,-85 522.75,-85 522.75,-85 528.75,-85 534.75,-91 534.75,-97 534.75,-97 534.75,-111 534.75,-111 534.75,-117 528.75,-123 522.75,-123"/>
<text xml:space="preserve" text-anchor="middle" x="479.88" y="-105.7" font-family="Helvetica,sans-Serif" font-size="14.00">Envoy Sidecars</text>
<text xml:space="preserve" text-anchor="middle" x="479.88" y="-90.7" font-family="Helvetica,sans-Serif" font-size="14.00">(mTLS Proxy)</text>
</g>
<!-- Postgres -->
<g id="node8" class="node">
<title>Postgres</title>
<path fill="#c8e6c9" stroke="Grey" stroke-width="2" d="M471.12,-54C471.12,-54 366.62,-54 366.62,-54 360.62,-54 354.62,-48 354.62,-42 354.62,-42 354.62,-28 354.62,-28 354.62,-22 360.62,-16 366.62,-16 366.62,-16 471.12,-16 471.12,-16 477.12,-16 483.12,-22 483.12,-28 483.12,-28 483.12,-42 483.12,-42 483.12,-48 477.12,-54 471.12,-54"/>
<text xml:space="preserve" text-anchor="middle" x="418.88" y="-36.7" font-family="Helvetica,sans-Serif" font-size="14.00">Postgres</text>
<text xml:space="preserve" text-anchor="middle" x="418.88" y="-21.7" font-family="Helvetica,sans-Serif" font-size="14.00">(Transactional DB)</text>
</g>
<!-- EnvoySidecar&#45;&gt;Postgres -->
<g id="edge4" class="edge">
<title>EnvoySidecar&#45;&gt;Postgres</title>
<path fill="none" stroke="Green" d="M462.88,-84.34C456.8,-77.66 449.82,-69.99 443.24,-62.76"/>
<polygon fill="Green" stroke="Green" points="446.12,-60.72 436.79,-55.68 440.94,-65.43 446.12,-60.72"/>
<text xml:space="preserve" text-anchor="middle" x="495.71" y="-63.7" font-family="Helvetica,sans-Serif" font-size="14.00" fill="#a39a9a">mTLS Tunnel</text>
</g>
<!-- RabbitMQ -->
<g id="node7" class="node">
<title>RabbitMQ</title>
<path fill="#fff9c4" stroke="Grey" stroke-width="2" d="M653.88,-123C653.88,-123 553.88,-123 553.88,-123 547.88,-123 541.88,-117 541.88,-111 541.88,-111 541.88,-97 541.88,-97 541.88,-91 547.88,-85 553.88,-85 553.88,-85 653.88,-85 653.88,-85 659.88,-85 665.88,-91 665.88,-97 665.88,-97 665.88,-111 665.88,-111 665.88,-117 659.88,-123 653.88,-123"/>
<text xml:space="preserve" text-anchor="middle" x="603.88" y="-105.7" font-family="Helvetica,sans-Serif" font-size="14.00">RabbitMQ</text>
<text xml:space="preserve" text-anchor="middle" x="603.88" y="-90.7" font-family="Helvetica,sans-Serif" font-size="14.00">(Message Broker)</text>
</g>
<!-- RabbitMQ&#45;&gt;AppCore -->
<g id="edge2" class="edge">
<title>RabbitMQ&#45;&gt;AppCore</title>
<path fill="none" stroke="Green" d="M603.88,-123.72C603.88,-140.87 603.88,-166.56 603.88,-186.64"/>
<polygon fill="Green" stroke="Green" points="600.38,-186.49 603.88,-196.49 607.38,-186.49 600.38,-186.49"/>
</g>
<!-- AppGateway&#45;&gt;RabbitMQ -->
<g id="edge1" class="edge">
<title>AppGateway&#45;&gt;RabbitMQ</title>
<path fill="none" stroke="Green" d="M491.46,-198C486.67,-188.1 483.84,-176.34 490.88,-168 504.54,-151.81 518.63,-168.87 537.88,-160 552.77,-153.14 567.05,-142.02 578.49,-131.57"/>
<polygon fill="Green" stroke="Green" points="580.73,-134.27 585.55,-124.84 575.9,-129.21 580.73,-134.27"/>
</g>
<!-- AppCore&#45;&gt;EnvoySidecar -->
<g id="edge3" class="edge">
<title>AppCore&#45;&gt;EnvoySidecar</title>
<path fill="none" stroke="Green" d="M572.54,-198.11C567.12,-195.4 561.44,-192.9 555.88,-191 534.99,-183.87 523.76,-197.21 506.88,-183 492.71,-171.08 485.97,-151.33 482.76,-134.68"/>
<polygon fill="Green" stroke="Green" points="486.29,-134.62 481.29,-125.28 479.38,-135.71 486.29,-134.62"/>
<text xml:space="preserve" text-anchor="middle" x="554.88" y="-169.7" font-family="Helvetica,sans-Serif" font-size="14.00" fill="#a39a9a">Localhost Proxy</text>
</g>
<!-- Security&#45;&gt;EnvoyGateway -->
<g id="edge5" class="edge">
<title>Security&#45;&gt;EnvoyGateway</title>
<path fill="none" stroke="Green" d="M294.6,-199.01C306.17,-181.26 324.03,-153.86 337.48,-133.22"/>
<polygon fill="Green" stroke="Green" points="340.33,-135.25 342.86,-124.96 334.47,-131.43 340.33,-135.25"/>
</g>
<!-- Security&#45;&gt;EnvoySidecar -->
<g id="edge6" class="edge">
<title>Security&#45;&gt;EnvoySidecar</title>
<path fill="none" stroke="Green" d="M327.28,-199.1C365.98,-183.43 416.61,-162.74 420.88,-160 433.12,-152.14 445.14,-141.59 455.11,-131.85"/>
<polygon fill="Green" stroke="Green" points="457.34,-134.56 461.89,-124.99 452.37,-129.64 457.34,-134.56"/>
</g>
<!-- Security&#45;&gt;Postgres -->
<g id="edge7" class="edge">
<title>Security&#45;&gt;Postgres</title>
<path fill="none" stroke="Green" d="M278.39,-199.19C272.61,-171.77 266.03,-118.88 290.88,-85 303.52,-67.76 323.06,-56.59 343.09,-49.34"/>
<polygon fill="Green" stroke="Green" points="344.05,-52.71 352.46,-46.28 341.87,-46.06 344.05,-52.71"/>
</g>
</g>
</svg>
