<?xml version="1.0" encoding="UTF-8" standalone="no"?>
<!DOCTYPE svg PUBLIC "-//W3C//DTD SVG 1.1//EN"
 "http://www.w3.org/Graphics/SVG/1.1/DTD/svg11.dtd">
<!-- Generated by graphviz version 13.0.0 (20250608.1624)
 -->
<!-- Pages: 1 -->
<svg width="1216pt" height="322pt"
 viewBox="0.00 0.00 1216.00 322.00" xmlns="http://www.w3.org/2000/svg" xmlns:xlink="http://www.w3.org/1999/xlink">
<g id="graph0" class="graph" transform="scale(1 1) rotate(0) translate(4 318)">
<g id="clust1" class="cluster">
<title>cluster_legacy</title>
<path fill="#e0e0e0" stroke="#90a4ae" d="M176.25,-140C176.25,-140 454,-140 454,-140 460,-140 466,-146 466,-152 466,-152 466,-256 466,-256 466,-262 460,-268 454,-268 454,-268 176.25,-268 176.25,-268 170.25,-268 164.25,-262 164.25,-256 164.25,-256 164.25,-152 164.25,-152 164.25,-146 170.25,-140 176.25,-140"/>
<text xml:space="preserve" text-anchor="middle" x="315.12" y="-245" font-family="Helvetica,sans-Serif" font-size="20.00" fill="#424242">Legacy / Transition Components</text>
</g>
<g id="clust2" class="cluster">
<title>cluster_infra</title>
<path fill="#f2f2ea" stroke="#546e7a" d="M845.5,-56C845.5,-56 1187.75,-56 1187.75,-56 1193.75,-56 1199.75,-62 1199.75,-68 1199.75,-68 1199.75,-217 1199.75,-217 1199.75,-223 1193.75,-229 1187.75,-229 1187.75,-229 845.5,-229 845.5,-229 839.5,-229 833.5,-223 833.5,-217 833.5,-217 833.5,-68 833.5,-68 833.5,-62 839.5,-56 845.5,-56"/>
<text xml:space="preserve" text-anchor="middle" x="1016.62" y="-206" font-family="Helvetica,sans-Serif" font-size="20.00" fill="#424242">Production Infrastructure</text>
</g>
<g id="clust3" class="cluster">
<title>cluster_services</title>
<path fill="#f3efef" stroke="#546e7a" d="M555.5,-8C555.5,-8 709.5,-8 709.5,-8 715.5,-8 721.5,-14 721.5,-20 721.5,-20 721.5,-124 721.5,-124 721.5,-130 715.5,-136 709.5,-136 709.5,-136 555.5,-136 555.5,-136 549.5,-136 543.5,-130 543.5,-124 543.5,-124 543.5,-20 543.5,-20 543.5,-14 549.5,-8 555.5,-8"/>
<text xml:space="preserve" text-anchor="middle" x="632.5" y="-113" font-family="Helvetica,sans-Serif" font-size="20.00" fill="#424242">Core Components</text>
</g>
<!-- Expert -->
<g id="node1" class="node">
<title>Expert</title>
<path fill="#cfd8dc" stroke="Grey" stroke-width="2" d="M135.25,-153C135.25,-153 12,-153 12,-153 6,-153 0,-147 0,-141 0,-141 0,-127 0,-127 0,-121 6,-115 12,-115 12,-115 135.25,-115 135.25,-115 141.25,-115 147.25,-121 147.25,-127 147.25,-127 147.25,-141 147.25,-141 147.25,-147 141.25,-153 135.25,-153"/>
<text xml:space="preserve" text-anchor="middle" x="73.62" y="-135.7" font-family="Helvetica,sans-Serif" font-size="14.00">System Architect</text>
<text xml:space="preserve" text-anchor="middle" x="73.62" y="-120.7" font-family="Helvetica,sans-Serif" font-size="14.00">(Zero Trust Migration)</text>
</g>
<!-- PKI -->
<g id="node2" class="node">
<title>PKI</title>
<path fill="#ffccbc" stroke="Grey" stroke-width="2" d="M366.5,-314C366.5,-314 262.75,-314 262.75,-314 256.75,-314 250.75,-308 250.75,-302 250.75,-302 250.75,-288 250.75,-288 250.75,-282 256.75,-276 262.75,-276 262.75,-276 366.5,-276 366.5,-276 372.5,-276 378.5,-282 378.5,-288 378.5,-288 378.5,-302 378.5,-302 378.5,-308 372.5,-314 366.5,-314"/>
<text xml:space="preserve" text-anchor="middle" x="314.62" y="-296.7" font-family="Helvetica,sans-Serif" font-size="14.00">PKI Operations</text>
<text xml:space="preserve" text-anchor="middle" x="314.62" y="-281.7" font-family="Helvetica,sans-Serif" font-size="14.00">(OpenSSL / Certs)</text>
</g>
<!-- Expert&#45;&gt;PKI -->
<g id="edge9" class="edge">
<title>Expert&#45;&gt;PKI</title>
<path fill="none" stroke="Green" d="M81.82,-153.8C93.87,-183.96 121.15,-240.85 164.25,-269 186.04,-283.23 213.27,-290.35 238.5,-293.72"/>
<polygon fill="Green" stroke="Green" points="238.09,-297.2 248.42,-294.85 238.88,-290.24 238.09,-297.2"/>
</g>
<!-- Nginx -->
<g id="node3" class="node">
<title>Nginx</title>
<path fill="#cfd8dc" stroke="Grey" stroke-width="2" d="M351.88,-231C351.88,-231 277.38,-231 277.38,-231 271.38,-231 265.38,-225 265.38,-219 265.38,-219 265.38,-205 265.38,-205 265.38,-199 271.38,-193 277.38,-193 277.38,-193 351.88,-193 351.88,-193 357.88,-193 363.88,-199 363.88,-205 363.88,-205 363.88,-219 363.88,-219 363.88,-225 357.88,-231 351.88,-231"/>
<text xml:space="preserve" text-anchor="middle" x="314.62" y="-213.7" font-family="Helvetica,sans-Serif" font-size="14.00">Nginx Ingress</text>
<text xml:space="preserve" text-anchor="middle" x="314.62" y="-198.7" font-family="Helvetica,sans-Serif" font-size="14.00">(Removed)</text>
</g>
<!-- Expert&#45;&gt;Nginx -->
<g id="edge10" class="edge">
<title>Expert&#45;&gt;Nginx</title>
<path fill="none" stroke="Green" d="M100.64,-153.83C117.8,-165.9 141.28,-180.58 164.25,-189 192.61,-199.4 225.68,-205.1 253.48,-208.22"/>
<polygon fill="Green" stroke="Green" points="252.83,-211.67 263.14,-209.22 253.55,-204.71 252.83,-211.67"/>
</g>
<!-- Redis -->
<g id="node4" class="node">
<title>Redis</title>
<path fill="#cfd8dc" stroke="Grey" stroke-width="2" d="M349.25,-186C349.25,-186 280,-186 280,-186 274,-186 268,-180 268,-174 268,-174 268,-160 268,-160 268,-154 274,-148 280,-148 280,-148 349.25,-148 349.25,-148 355.25,-148 361.25,-154 361.25,-160 361.25,-160 361.25,-174 361.25,-174 361.25,-180 355.25,-186 349.25,-186"/>
<text xml:space="preserve" text-anchor="middle" x="314.62" y="-168.7" font-family="Helvetica,sans-Serif" font-size="14.00">Redis Cache</text>
<text xml:space="preserve" text-anchor="middle" x="314.62" y="-153.7" font-family="Helvetica,sans-Serif" font-size="14.00">(Initial POC)</text>
</g>
<!-- Expert&#45;&gt;Redis -->
<g id="edge11" class="edge">
<title>Expert&#45;&gt;Redis</title>
<path fill="none" stroke="Green" d="M147.96,-144.13C182.69,-148.92 223.58,-154.57 256.04,-159.05"/>
<polygon fill="Green" stroke="Green" points="255.27,-162.48 265.65,-160.38 256.23,-155.54 255.27,-162.48"/>
</g>
<!-- EnvoyGateway -->
<g id="node5" class="node">
<title>EnvoyGateway</title>
<path fill="#e1f5fe" stroke="Grey" stroke-width="2" d="M953.5,-192C953.5,-192 853.5,-192 853.5,-192 847.5,-192 841.5,-186 841.5,-180 841.5,-180 841.5,-166 841.5,-166 841.5,-160 847.5,-154 853.5,-154 853.5,-154 953.5,-154 953.5,-154 959.5,-154 965.5,-160 965.5,-166 965.5,-166 965.5,-180 965.5,-180 965.5,-186 959.5,-192 953.5,-192"/>
<text xml:space="preserve" text-anchor="middle" x="903.5" y="-174.7" font-family="Helvetica,sans-Serif" font-size="14.00">Envoy Gateway</text>
<text xml:space="preserve" text-anchor="middle" x="903.5" y="-159.7" font-family="Helvetica,sans-Serif" font-size="14.00">(TLS Termination)</text>
</g>
<!-- Expert&#45;&gt;EnvoyGateway -->
<g id="edge12" class="edge">
<title>Expert&#45;&gt;EnvoyGateway</title>
<path fill="none" stroke="Green" d="M148.24,-133.52C226.94,-133.33 355.35,-133.99 466,-139 594.08,-144.8 742.88,-157.72 829.49,-165.86"/>
<polygon fill="Green" stroke="Green" points="828.98,-169.32 839.27,-166.78 829.64,-162.35 828.98,-169.32"/>
</g>
<!-- AppGateway -->
<g id="node9" class="node">
<title>AppGateway</title>
<path fill="#b3e5fc" stroke="Grey" stroke-width="2" d="M669.25,-54C669.25,-54 594.75,-54 594.75,-54 588.75,-54 582.75,-48 582.75,-42 582.75,-42 582.75,-28 582.75,-28 582.75,-22 588.75,-16 594.75,-16 594.75,-16 669.25,-16 669.25,-16 675.25,-16 681.25,-22 681.25,-28 681.25,-28 681.25,-42 681.25,-42 681.25,-48 675.25,-54 669.25,-54"/>
<text xml:space="preserve" text-anchor="middle" x="632" y="-36.7" font-family="Helvetica,sans-Serif" font-size="14.00">App&#45;Gateway</text>
<text xml:space="preserve" text-anchor="middle" x="632" y="-21.7" font-family="Helvetica,sans-Serif" font-size="14.00">(Producer)</text>
</g>
<!-- Expert&#45;&gt;AppGateway -->
<g id="edge13" class="edge">
<title>Expert&#45;&gt;AppGateway</title>
<path fill="none" stroke="Green" d="M111.59,-114C127.4,-106.28 146.31,-98.09 164.25,-93 306.3,-52.72 480.55,-40.4 570.64,-36.65"/>
<polygon fill="Green" stroke="Green" points="570.62,-40.15 580.48,-36.26 570.35,-33.15 570.62,-40.15"/>
</g>
<!-- AppCore -->
<g id="node10" class="node">
<title>AppCore</title>
<path fill="#b3e5fc" stroke="Grey" stroke-width="2" d="M664,-99C664,-99 600,-99 600,-99 594,-99 588,-93 588,-87 588,-87 588,-73 588,-73 588,-67 594,-61 600,-61 600,-61 664,-61 664,-61 670,-61 676,-67 676,-73 676,-73 676,-87 676,-87 676,-93 670,-99 664,-99"/>
<text xml:space="preserve" text-anchor="middle" x="632" y="-81.7" font-family="Helvetica,sans-Serif" font-size="14.00">App&#45;Core</text>
<text xml:space="preserve" text-anchor="middle" x="632" y="-66.7" font-family="Helvetica,sans-Serif" font-size="14.00">(Consumer)</text>
</g>
<!-- Expert&#45;&gt;AppCore -->
<g id="edge14" class="edge">
<title>Expert&#45;&gt;AppCore</title>
<path fill="none" stroke="Green" d="M147.99,-123.85C150.44,-123.55 152.86,-123.27 155.25,-123 307.26,-105.77 487.22,-91.04 575.93,-84.16"/>
<polygon fill="Green" stroke="Green" points="576.1,-87.66 585.8,-83.4 575.56,-80.68 576.1,-87.66"/>
</g>
<!-- Security -->
<g id="node11" class="node">
<title>Security</title>
<path fill="#ffccbc" stroke="Grey" stroke-width="2" d="M677.88,-232C677.88,-232 586.12,-232 586.12,-232 580.12,-232 574.12,-226 574.12,-220 574.12,-220 574.12,-208 574.12,-208 574.12,-202 580.12,-196 586.12,-196 586.12,-196 677.88,-196 677.88,-196 683.88,-196 689.88,-202 689.88,-208 689.88,-208 689.88,-220 689.88,-220 689.88,-226 683.88,-232 677.88,-232"/>
<text xml:space="preserve" text-anchor="middle" x="632" y="-208.2" font-family="Helvetica,sans-Serif" font-size="14.00">Zero Trust Layer</text>
</g>
<!-- PKI&#45;&gt;Security -->
<g id="edge8" class="edge">
<title>PKI&#45;&gt;Security</title>
<path fill="none" stroke="Green" stroke-width="2" stroke-dasharray="1,5" d="M379.36,-286.16C406.29,-281.86 437.87,-276.08 466,-269 500.36,-260.36 537.88,-248.08 568.45,-237.32"/>
<polygon fill="Green" stroke="Green" stroke-width="2" points="569.57,-240.64 577.82,-233.99 567.22,-234.04 569.57,-240.64"/>
<text xml:space="preserve" text-anchor="middle" x="504.75" y="-268.36" font-family="Helvetica,sans-Serif" font-size="14.00" fill="#a39a9a">distributes</text>
</g>
<!-- Nginx&#45;&gt;EnvoyGateway -->
<g id="edge15" class="edge">
<title>Nginx&#45;&gt;EnvoyGateway</title>
<path fill="none" stroke="Green" stroke-width="2" stroke-dasharray="1,5" d="M364.81,-204.49C429.12,-194.7 534.68,-178.72 543.5,-178 641.67,-170.03 755.42,-169.99 828.12,-171.13"/>
<polygon fill="Green" stroke="Green" stroke-width="2" points="827.68,-174.63 837.74,-171.3 827.8,-167.63 827.68,-174.63"/>
<text xml:space="preserve" text-anchor="middle" x="632" y="-179.7" font-family="Helvetica,sans-Serif" font-size="14.00" fill="#a39a9a">migrated to</text>
</g>
<!-- EnvoySidecar -->
<g id="node6" class="node">
<title>EnvoySidecar</title>
<path fill="#e1f5fe" stroke="Grey" stroke-width="2" d="M946.38,-147C946.38,-147 860.62,-147 860.62,-147 854.62,-147 848.62,-141 848.62,-135 848.62,-135 848.62,-121 848.62,-121 848.62,-115 854.62,-109 860.62,-109 860.62,-109 946.38,-109 946.38,-109 952.38,-109 958.38,-115 958.38,-121 958.38,-121 958.38,-135 958.38,-135 958.38,-141 952.38,-147 946.38,-147"/>
<text xml:space="preserve" text-anchor="middle" x="903.5" y="-129.7" font-family="Helvetica,sans-Serif" font-size="14.00">Envoy Sidecars</text>
<text xml:space="preserve" text-anchor="middle" x="903.5" y="-114.7" font-family="Helvetica,sans-Serif" font-size="14.00">(mTLS Proxy)</text>
</g>
<!-- Postgres -->
<g id="node8" class="node">
<title>Postgres</title>
<path fill="#c8e6c9" stroke="Grey" stroke-width="2" d="M1179.75,-180C1179.75,-180 1075.25,-180 1075.25,-180 1069.25,-180 1063.25,-174 1063.25,-168 1063.25,-168 1063.25,-154 1063.25,-154 1063.25,-148 1069.25,-142 1075.25,-142 1075.25,-142 1179.75,-142 1179.75,-142 1185.75,-142 1191.75,-148 1191.75,-154 1191.75,-154 1191.75,-168 1191.75,-168 1191.75,-174 1185.75,-180 1179.75,-180"/>
<text xml:space="preserve" text-anchor="middle" x="1127.5" y="-162.7" font-family="Helvetica,sans-Serif" font-size="14.00">Postgres</text>
<text xml:space="preserve" text-anchor="middle" x="1127.5" y="-147.7" font-family="Helvetica,sans-Serif" font-size="14.00">(Transactional DB)</text>
</g>
<!-- EnvoySidecar&#45;&gt;Postgres -->
<g id="edge4" class="edge">
<title>EnvoySidecar&#45;&gt;Postgres</title>
<path fill="none" stroke="Green" d="M959.09,-136.11C986.75,-140.23 1020.78,-145.29 1050.92,-149.77"/>
<polygon fill="Green" stroke="Green" points="1050.36,-153.22 1060.76,-151.23 1051.39,-146.3 1050.36,-153.22"/>
<text xml:space="preserve" text-anchor="middle" x="1014.38" y="-152.03" font-family="Helvetica,sans-Serif" font-size="14.00" fill="#a39a9a">mTLS Tunnel</text>
</g>
<!-- RabbitMQ -->
<g id="node7" class="node">
<title>RabbitMQ</title>
<path fill="#fff9c4" stroke="Grey" stroke-width="2" d="M953.5,-102C953.5,-102 853.5,-102 853.5,-102 847.5,-102 841.5,-96 841.5,-90 841.5,-90 841.5,-76 841.5,-76 841.5,-70 847.5,-64 853.5,-64 853.5,-64 953.5,-64 953.5,-64 959.5,-64 965.5,-70 965.5,-76 965.5,-76 965.5,-90 965.5,-90 965.5,-96 959.5,-102 953.5,-102"/>
<text xml:space="preserve" text-anchor="middle" x="903.5" y="-84.7" font-family="Helvetica,sans-Serif" font-size="14.00">RabbitMQ</text>
<text xml:space="preserve" text-anchor="middle" x="903.5" y="-69.7" font-family="Helvetica,sans-Serif" font-size="14.00">(Message Broker)</text>
</g>
<!-- RabbitMQ&#45;&gt;AppCore -->
<g id="edge2" class="edge">
<title>RabbitMQ&#45;&gt;AppCore</title>
<path fill="none" stroke="Green" d="M840.5,-82.31C794.58,-81.8 732.56,-81.11 688.31,-80.62"/>
<polygon fill="Green" stroke="Green" points="688.45,-77.12 678.41,-80.51 688.37,-84.12 688.45,-77.12"/>
</g>
<!-- AppGateway&#45;&gt;RabbitMQ -->
<g id="edge1" class="edge">
<title>AppGateway&#45;&gt;RabbitMQ</title>
<path fill="none" stroke="Green" d="M682.12,-43.75C723.35,-51.09 782.86,-61.69 829.64,-70.02"/>
<polygon fill="Green" stroke="Green" points="828.99,-73.46 839.45,-71.77 830.22,-66.57 828.99,-73.46"/>
</g>
<!-- AppCore&#45;&gt;EnvoySidecar -->
<g id="edge3" class="edge">
<title>AppCore&#45;&gt;EnvoySidecar</title>
<path fill="none" stroke="Green" d="M676.9,-87.82C720.21,-95.53 786.96,-107.42 836.63,-116.27"/>
<polygon fill="Green" stroke="Green" points="835.96,-119.7 846.42,-118.01 837.19,-112.81 835.96,-119.7"/>
<text xml:space="preserve" text-anchor="middle" x="777.5" y="-115.52" font-family="Helvetica,sans-Serif" font-size="14.00" fill="#a39a9a">Localhost Proxy</text>
</g>
<!-- Security&#45;&gt;EnvoyGateway -->
<g id="edge5" class="edge">
<title>Security&#45;&gt;EnvoyGateway</title>
<path fill="none" stroke="Green" d="M690.63,-204.24C703.42,-202.13 716.91,-199.95 729.5,-198 762.35,-192.9 798.77,-187.59 829.68,-183.18"/>
<polygon fill="Green" stroke="Green" points="829.9,-186.68 839.3,-181.81 828.91,-179.75 829.9,-186.68"/>
</g>
<!-- Security&#45;&gt;EnvoySidecar -->
<g id="edge6" class="edge">
<title>Security&#45;&gt;EnvoySidecar</title>
<path fill="none" stroke="Green" d="M690.65,-202.45C701.24,-199.2 711.96,-195.11 721.5,-190 725.66,-187.77 725.38,-185.32 729.5,-183 762.8,-164.23 803.38,-150.9 836.87,-142.07"/>
<polygon fill="Green" stroke="Green" points="837.64,-145.48 846.46,-139.62 835.91,-138.7 837.64,-145.48"/>
</g>
<!-- Security&#45;&gt;Postgres -->
<g id="edge7" class="edge">
<title>Security&#45;&gt;Postgres</title>
<path fill="none" stroke="Green" d="M690.62,-213.34C757.12,-211.97 869.65,-207.79 965.5,-195 993.75,-191.23 1024.43,-185.24 1051.36,-179.32"/>
<polygon fill="Green" stroke="Green" points="1051.78,-182.82 1060.78,-177.22 1050.26,-175.98 1051.78,-182.82"/>
</g>
</g>
</svg>
