<?xml version="1.0" encoding="UTF-8" standalone="no"?>
<!DOCTYPE svg PUBLIC "-//W3C//DTD SVG 1.1//EN"
 "http://www.w3.org/Graphics/SVG/1.1/DTD/svg11.dtd">
<!-- Generated by graphviz version 13.0.0 (20250608.1624)
 -->
<!-- Pages: 1 -->
<svg width="722pt" height="512pt"
 viewBox="0.00 0.00 722.00 512.00" xmlns="http://www.w3.org/2000/svg" xmlns:xlink="http://www.w3.org/1999/xlink">
<g id="graph0" class="graph" transform="scale(1 1) rotate(0) translate(4 508)">
<g id="clust1" class="cluster">
<title>cluster_k3d</title>
<polygon fill="none" stroke="gray" stroke-dasharray="5,2" points="8,-8 8,-427 706,-427 706,-8 8,-8"/>
<text xml:space="preserve" text-anchor="middle" x="357" y="-409.7" font-family="Helvetica,sans-Serif" font-size="14.00" fill="Grey">k3d (Kubernetes) Cluster</text>
</g>
<g id="clust2" class="cluster">
<title>cluster_istio_sys</title>
<polygon fill="#f0f0f0" stroke="gray" points="227,-319 227,-396 349,-396 349,-319 227,-319"/>
<text xml:space="preserve" text-anchor="middle" x="288" y="-378.7" font-family="Helvetica,sans-Serif" font-size="14.00" fill="Grey">istio&#45;system</text>
</g>
<g id="clust3" class="cluster">
<title>cluster_pod_a</title>
<polygon fill="none" stroke="gray" stroke-dasharray="5,2" points="386,-211 386,-395 600,-395 600,-211 386,-211"/>
<text xml:space="preserve" text-anchor="middle" x="493" y="-377.7" font-family="Helvetica,sans-Serif" font-size="14.00" fill="Grey">Pod: service&#45;aa</text>
</g>
<g id="clust4" class="cluster">
<title>cluster_pod_b</title>
<polygon fill="none" stroke="gray" stroke-dasharray="5,2" points="170,-103 170,-286 368,-286 368,-103 170,-103"/>
<text xml:space="preserve" text-anchor="middle" x="269" y="-268.7" font-family="Helvetica,sans-Serif" font-size="14.00" fill="Grey">Pod: service&#45;bb</text>
</g>
<g id="clust5" class="cluster">
<title>cluster_pod_rabbitmq</title>
<polygon fill="none" stroke="gray" stroke-dasharray="5,2" points="376,-16 376,-178 522,-178 522,-16 376,-16"/>
<text xml:space="preserve" text-anchor="middle" x="449" y="-160.7" font-family="Helvetica,sans-Serif" font-size="14.00" fill="Grey">Pod: rabbitmq</text>
</g>
<g id="clust6" class="cluster">
<title>cluster_pod_postgres</title>
<polygon fill="none" stroke="gray" stroke-dasharray="5,2" points="16,-16 16,-178 162,-178 162,-16 16,-16"/>
<text xml:space="preserve" text-anchor="middle" x="89" y="-160.7" font-family="Helvetica,sans-Serif" font-size="14.00" fill="Grey">Pod: postgres</text>
</g>
<!-- istiod -->
<g id="node1" class="node">
<title>istiod</title>
<path fill="#add8e6" stroke="Grey" stroke-width="2" d="M329.38,-365C329.38,-365 246.62,-365 246.62,-365 240.62,-365 234.62,-359 234.62,-353 234.62,-353 234.62,-339 234.62,-339 234.62,-333 240.62,-327 246.62,-327 246.62,-327 329.38,-327 329.38,-327 335.38,-327 341.38,-333 341.38,-339 341.38,-339 341.38,-353 341.38,-353 341.38,-359 335.38,-365 329.38,-365"/>
<text xml:space="preserve" text-anchor="middle" x="288" y="-347.7" font-family="Helvetica,sans-Serif" font-size="14.00">istiod</text>
<text xml:space="preserve" text-anchor="middle" x="288" y="-332.7" font-family="Helvetica,sans-Serif" font-size="14.00">(Control Plane)</text>
</g>
<!-- ProxyA -->
<g id="node4" class="node">
<title>ProxyA</title>
<path fill="#ffa07a" stroke="Grey" stroke-width="2" d="M530.38,-255C530.38,-255 423.62,-255 423.62,-255 417.62,-255 411.62,-249 411.62,-243 411.62,-243 411.62,-231 411.62,-231 411.62,-225 417.62,-219 423.62,-219 423.62,-219 530.38,-219 530.38,-219 536.38,-219 542.38,-225 542.38,-231 542.38,-231 542.38,-243 542.38,-243 542.38,-249 536.38,-255 530.38,-255"/>
<text xml:space="preserve" text-anchor="middle" x="477" y="-231.2" font-family="Helvetica,sans-Serif" font-size="14.00">Sidecar: istio&#45;proxy</text>
</g>
<!-- istiod&#45;&gt;ProxyA -->
<g id="edge10" class="edge">
<title>istiod&#45;&gt;ProxyA</title>
<path fill="none" stroke="gray" stroke-width="2" stroke-dasharray="5,2" d="M342.34,-327.11C355.64,-321.95 369.6,-315.83 382,-309 405.06,-296.29 428.79,-278.56 446.77,-263.99"/>
<polygon fill="gray" stroke="gray" stroke-width="2" points="448.82,-266.84 454.3,-257.77 444.36,-261.44 448.82,-266.84"/>
</g>
<!-- ProxyB -->
<g id="node6" class="node">
<title>ProxyB</title>
<path fill="#ffa07a" stroke="Grey" stroke-width="2" d="M326.38,-255C326.38,-255 219.62,-255 219.62,-255 213.62,-255 207.62,-249 207.62,-243 207.62,-243 207.62,-231 207.62,-231 207.62,-225 213.62,-219 219.62,-219 219.62,-219 326.38,-219 326.38,-219 332.38,-219 338.38,-225 338.38,-231 338.38,-231 338.38,-243 338.38,-243 338.38,-249 332.38,-255 326.38,-255"/>
<text xml:space="preserve" text-anchor="middle" x="273" y="-231.2" font-family="Helvetica,sans-Serif" font-size="14.00">Sidecar: istio&#45;proxy</text>
</g>
<!-- istiod&#45;&gt;ProxyB -->
<g id="edge11" class="edge">
<title>istiod&#45;&gt;ProxyB</title>
<path fill="none" stroke="gray" stroke-width="2" stroke-dasharray="5,2" d="M285.39,-326.36C283.16,-310.44 279.9,-287.23 277.29,-268.59"/>
<polygon fill="gray" stroke="gray" stroke-width="2" points="280.76,-268.13 275.9,-258.71 273.83,-269.1 280.76,-268.13"/>
</g>
<!-- ProxyRabbitMQ -->
<g id="node8" class="node">
<title>ProxyRabbitMQ</title>
<path fill="#ffa07a" stroke="Grey" stroke-width="2" d="M502.38,-147C502.38,-147 395.62,-147 395.62,-147 389.62,-147 383.62,-141 383.62,-135 383.62,-135 383.62,-123 383.62,-123 383.62,-117 389.62,-111 395.62,-111 395.62,-111 502.38,-111 502.38,-111 508.38,-111 514.38,-117 514.38,-123 514.38,-123 514.38,-135 514.38,-135 514.38,-141 508.38,-147 502.38,-147"/>
<text xml:space="preserve" text-anchor="middle" x="449" y="-123.2" font-family="Helvetica,sans-Serif" font-size="14.00">Sidecar: istio&#45;proxy</text>
</g>
<!-- istiod&#45;&gt;ProxyRabbitMQ -->
<g id="edge12" class="edge">
<title>istiod&#45;&gt;ProxyRabbitMQ</title>
<path fill="none" stroke="gray" stroke-width="2" stroke-dasharray="5,2" d="M328,-326.19C344.27,-316.49 361.64,-303.06 372,-286 389.45,-257.25 368.54,-241.82 382,-211 390.87,-190.7 406.39,-171.43 420.27,-156.79"/>
<polygon fill="gray" stroke="gray" stroke-width="2" points="422.41,-159.6 426.94,-150.03 417.42,-154.69 422.41,-159.6"/>
</g>
<!-- ProxyPostgres -->
<g id="node10" class="node">
<title>ProxyPostgres</title>
<path fill="#ffa07a" stroke="Grey" stroke-width="2" d="M142.38,-147C142.38,-147 35.62,-147 35.62,-147 29.63,-147 23.62,-141 23.62,-135 23.62,-135 23.62,-123 23.62,-123 23.62,-117 29.62,-111 35.62,-111 35.62,-111 142.38,-111 142.38,-111 148.38,-111 154.38,-117 154.38,-123 154.38,-123 154.38,-135 154.38,-135 154.38,-141 148.38,-147 142.38,-147"/>
<text xml:space="preserve" text-anchor="middle" x="89" y="-123.2" font-family="Helvetica,sans-Serif" font-size="14.00">Sidecar: istio&#45;proxy</text>
</g>
<!-- istiod&#45;&gt;ProxyPostgres -->
<g id="edge13" class="edge">
<title>istiod&#45;&gt;ProxyPostgres</title>
<path fill="none" stroke="gray" stroke-width="2" stroke-dasharray="5,2" d="M233.69,-327.74C210.63,-318.29 184.79,-304.64 166,-286 130.13,-250.42 108.26,-194.72 97.41,-160.39"/>
<polygon fill="gray" stroke="gray" stroke-width="2" points="100.77,-159.42 94.53,-150.85 94.07,-161.43 100.77,-159.42"/>
</g>
<!-- ingress -->
<g id="node2" class="node">
<title>ingress</title>
<polygon fill="#ffd700" stroke="Grey" stroke-width="2" points="698.38,-365 609.62,-365 609.62,-361 605.62,-361 605.62,-357 609.62,-357 609.62,-335 605.62,-335 605.62,-331 609.62,-331 609.62,-327 698.38,-327 698.38,-365"/>
<polyline fill="none" stroke="Grey" stroke-width="2" points="609.62,-361 613.62,-361 613.62,-357 609.62,-357"/>
<polyline fill="none" stroke="Grey" stroke-width="2" points="609.62,-335 613.62,-335 613.62,-331 609.62,-331"/>
<text xml:space="preserve" text-anchor="middle" x="654" y="-347.7" font-family="Helvetica,sans-Serif" font-size="14.00">Istio Ingress</text>
<text xml:space="preserve" text-anchor="middle" x="654" y="-332.7" font-family="Helvetica,sans-Serif" font-size="14.00">Gateway</text>
</g>
<!-- ingress&#45;&gt;ProxyA -->
<g id="edge2" class="edge">
<title>ingress&#45;&gt;ProxyA</title>
<path fill="none" stroke="Green" stroke-width="2" d="M622.76,-326.12C593.47,-308.41 549.5,-281.83 517.52,-262.49"/>
<polygon fill="Green" stroke="Green" stroke-width="2" points="519.7,-259.73 509.34,-257.55 516.08,-265.72 519.7,-259.73"/>
<text xml:space="preserve" text-anchor="middle" x="638.95" y="-295.7" font-family="Helvetica,sans-Serif" font-size="14.00" fill="#a39a9a">HTTP (Routing)</text>
</g>
<!-- AppA -->
<g id="node3" class="node">
<title>AppA</title>
<path fill="#b3e5fc" stroke="Grey" stroke-width="2" d="M579.75,-364C579.75,-364 406.25,-364 406.25,-364 400.25,-364 394.25,-358 394.25,-352 394.25,-352 394.25,-340 394.25,-340 394.25,-334 400.25,-328 406.25,-328 406.25,-328 579.75,-328 579.75,-328 585.75,-328 591.75,-334 591.75,-340 591.75,-340 591.75,-352 591.75,-352 591.75,-358 585.75,-364 579.75,-364"/>
<text xml:space="preserve" text-anchor="middle" x="493" y="-340.2" font-family="Helvetica,sans-Serif" font-size="14.00">App: App&#45;Gateway (Producer)</text>
</g>
<!-- AppA&#45;&gt;ProxyA -->
<g id="edge3" class="edge">
<title>AppA&#45;&gt;ProxyA</title>
<path fill="none" stroke="Green" stroke-width="2" d="M448.22,-318.31C445.7,-315.45 443.49,-312.35 441.75,-309 434.39,-294.84 440.94,-278.93 450.3,-265.77"/>
<polygon fill="Green" stroke="Green" stroke-width="2" points="445.8,-320.84 455.52,-325.06 450.55,-315.7 445.8,-320.84"/>
<polygon fill="Green" stroke="Green" stroke-width="2" points="452.8,-268.25 456.31,-258.25 447.33,-263.88 452.8,-268.25"/>
<text xml:space="preserve" text-anchor="middle" x="468.38" y="-295.7" font-family="Helvetica,sans-Serif" font-size="14.00" fill="#a39a9a">localhost</text>
</g>
<!-- ProxyA&#45;&gt;ProxyRabbitMQ -->
<g id="edge4" class="edge">
<title>ProxyA&#45;&gt;ProxyRabbitMQ</title>
<path fill="none" stroke="#ffa07a" stroke-width="2" d="M472.25,-218.02C468.08,-202.24 461.93,-178.96 457.01,-160.31"/>
<polygon fill="#ffa07a" stroke="#ffa07a" stroke-width="2" points="460.39,-159.42 454.45,-150.64 453.62,-161.2 460.39,-159.42"/>
<text xml:space="preserve" text-anchor="middle" x="485.52" y="-187.7" font-family="Helvetica,sans-Serif" font-size="14.00" fill="#a39a9a">mTLS</text>
</g>
<!-- AppB -->
<g id="node5" class="node">
<title>AppB</title>
<path fill="#b3e5fc" stroke="Grey" stroke-width="2" d="M347.5,-147C347.5,-147 190.5,-147 190.5,-147 184.5,-147 178.5,-141 178.5,-135 178.5,-135 178.5,-123 178.5,-123 178.5,-117 184.5,-111 190.5,-111 190.5,-111 347.5,-111 347.5,-111 353.5,-111 359.5,-117 359.5,-123 359.5,-123 359.5,-135 359.5,-135 359.5,-141 353.5,-147 347.5,-147"/>
<text xml:space="preserve" text-anchor="middle" x="269" y="-123.2" font-family="Helvetica,sans-Serif" font-size="14.00">App: App&#45;Core (Consumer)</text>
</g>
<!-- ProxyB&#45;&gt;AppB -->
<g id="edge7" class="edge">
<title>ProxyB&#45;&gt;AppB</title>
<path fill="none" stroke="Green" stroke-width="2" d="M259.99,-206.2C259.51,-204.46 259.09,-202.72 258.75,-201 256.17,-187.81 257.59,-173.11 260.09,-160.53"/>
<polygon fill="Green" stroke="Green" stroke-width="2" points="256.6,-207.12 263.22,-215.39 263.21,-204.79 256.6,-207.12"/>
<polygon fill="Green" stroke="Green" stroke-width="2" points="263.49,-161.37 262.4,-150.83 256.68,-159.75 263.49,-161.37"/>
<text xml:space="preserve" text-anchor="middle" x="285.38" y="-187.7" font-family="Helvetica,sans-Serif" font-size="14.00" fill="#a39a9a">localhost</text>
</g>
<!-- ProxyB&#45;&gt;ProxyRabbitMQ -->
<g id="edge6" class="edge">
<title>ProxyB&#45;&gt;ProxyRabbitMQ</title>
<path fill="none" stroke="#ffa07a" stroke-width="2" d="M293.15,-218.13C307.67,-205.58 326.24,-190.3 335.25,-186 350.33,-178.8 356.51,-184.29 372,-178 386.67,-172.04 401.7,-163.36 414.54,-155.01"/>
<polygon fill="#ffa07a" stroke="#ffa07a" stroke-width="2" points="416.34,-158.01 422.68,-149.53 412.43,-152.21 416.34,-158.01"/>
<text xml:space="preserve" text-anchor="middle" x="353.62" y="-187.7" font-family="Helvetica,sans-Serif" font-size="14.00" fill="#a39a9a">mTLS</text>
</g>
<!-- ProxyB&#45;&gt;ProxyPostgres -->
<g id="edge8" class="edge">
<title>ProxyB&#45;&gt;ProxyPostgres</title>
<path fill="none" stroke="#ffa07a" stroke-width="2" d="M238.97,-218.23C217.8,-207.01 190.11,-192.03 166,-178 153.39,-170.66 139.82,-162.35 127.64,-154.72"/>
<polygon fill="#ffa07a" stroke="#ffa07a" stroke-width="2" points="129.8,-151.95 119.47,-149.58 126.07,-157.87 129.8,-151.95"/>
<text xml:space="preserve" text-anchor="middle" x="225.2" y="-187.7" font-family="Helvetica,sans-Serif" font-size="14.00" fill="#a39a9a">mTLS</text>
</g>
<!-- AppRabbitMQ -->
<g id="node7" class="node">
<title>AppRabbitMQ</title>
<path fill="#b3e5fc" stroke="Grey" stroke-width="2" d="M491.88,-60C491.88,-60 406.12,-60 406.12,-60 400.12,-60 394.12,-54 394.12,-48 394.12,-48 394.12,-36 394.12,-36 394.12,-30 400.12,-24 406.12,-24 406.12,-24 491.88,-24 491.88,-24 497.88,-24 503.88,-30 503.88,-36 503.88,-36 503.88,-48 503.88,-48 503.88,-54 497.88,-60 491.88,-60"/>
<text xml:space="preserve" text-anchor="middle" x="449" y="-36.2" font-family="Helvetica,sans-Serif" font-size="14.00">App: RabbitMQ</text>
</g>
<!-- ProxyRabbitMQ&#45;&gt;AppRabbitMQ -->
<g id="edge5" class="edge">
<title>ProxyRabbitMQ&#45;&gt;AppRabbitMQ</title>
<path fill="none" stroke="Green" stroke-width="2" d="M449,-97.41C449,-89.75 449,-81.53 449,-73.86"/>
<polygon fill="Green" stroke="Green" stroke-width="2" points="445.5,-97.36 449,-107.36 452.5,-97.36 445.5,-97.36"/>
<polygon fill="Green" stroke="Green" stroke-width="2" points="452.5,-73.91 449,-63.91 445.5,-73.91 452.5,-73.91"/>
<text xml:space="preserve" text-anchor="middle" x="475.62" y="-79.7" font-family="Helvetica,sans-Serif" font-size="14.00" fill="#a39a9a">localhost</text>
</g>
<!-- AppPostgres -->
<g id="node9" class="node">
<title>AppPostgres</title>
<path fill="#b3e5fc" stroke="Grey" stroke-width="2" d="M127.38,-60C127.38,-60 50.62,-60 50.62,-60 44.62,-60 38.62,-54 38.62,-48 38.62,-48 38.62,-36 38.62,-36 38.62,-30 44.62,-24 50.62,-24 50.62,-24 127.38,-24 127.38,-24 133.38,-24 139.38,-30 139.38,-36 139.38,-36 139.38,-48 139.38,-48 139.38,-54 133.38,-60 127.38,-60"/>
<text xml:space="preserve" text-anchor="middle" x="89" y="-36.2" font-family="Helvetica,sans-Serif" font-size="14.00">App: Postgres</text>
</g>
<!-- ProxyPostgres&#45;&gt;AppPostgres -->
<g id="edge9" class="edge">
<title>ProxyPostgres&#45;&gt;AppPostgres</title>
<path fill="none" stroke="Green" stroke-width="2" d="M89,-97.41C89,-89.75 89,-81.53 89,-73.86"/>
<polygon fill="Green" stroke="Green" stroke-width="2" points="85.5,-97.36 89,-107.36 92.5,-97.36 85.5,-97.36"/>
<polygon fill="Green" stroke="Green" stroke-width="2" points="92.5,-73.91 89,-63.91 85.5,-73.91 92.5,-73.91"/>
<text xml:space="preserve" text-anchor="middle" x="115.62" y="-79.7" font-family="Helvetica,sans-Serif" font-size="14.00" fill="#a39a9a">localhost</text>
</g>
<!-- Client -->
<g id="node11" class="node">
<title>Client</title>
<path fill="#cfd8dc" stroke="Grey" stroke-width="2" d="M693.88,-504C693.88,-504 614.12,-504 614.12,-504 608.12,-504 602.12,-498 602.12,-492 602.12,-492 602.12,-480 602.12,-480 602.12,-474 608.12,-468 614.12,-468 614.12,-468 693.88,-468 693.88,-468 699.88,-468 705.88,-474 705.88,-480 705.88,-480 705.88,-492 705.88,-492 705.88,-498 699.88,-504 693.88,-504"/>
<text xml:space="preserve" text-anchor="middle" x="654" y="-480.2" font-family="Helvetica,sans-Serif" font-size="14.00">External Client</text>
</g>
<!-- Client&#45;&gt;ingress -->
<g id="edge1" class="edge">
<title>Client&#45;&gt;ingress</title>
<path fill="none" stroke="Green" stroke-width="2" d="M654,-467.24C654,-444.82 654,-405.87 654,-378.38"/>
<polygon fill="Green" stroke="Green" stroke-width="2" points="657.5,-378.6 654,-368.6 650.5,-378.6 657.5,-378.6"/>
<text xml:space="preserve" text-anchor="middle" x="676.12" y="-436.7" font-family="Helvetica,sans-Serif" font-size="14.00" fill="#a39a9a">HTTPS</text>
</g>
</g>
</svg>
